<?xml version="1.0" encoding="UTF-8"?><svg xmlns="http://www.w3.org/2000/svg" viewBox="0 0 169.12 140.65"><defs><style>.f{fill:#acd2e8;}.g{fill:#cccac6;}.h{fill:#e2e2e2;}.i{fill:#8e8c87;}.j{fill:none;stroke:#3f2a25;stroke-linecap:round;stroke-linejoin:round;stroke-width:.5px;}.k{fill:#4f4a41;}.l{fill:#bc7171;}.m{fill:#5d94af;}</style></defs><g id="a"/><g id="b"><g><path class="l" d="M135.75,90.68c0,7.14-4.93,13.13-11.57,14.74,8.92-5.62,10.48-18.69,3.51-28.15,4.8,2.55,8.06,7.6,8.06,13.41Z"/><path class="l" d="M138.32,90.68c0,9.8-7.95,17.75-17.75,17.75-1.31,0-2.58-.14-3.81-.41,2.86-.37,5.34-1.28,7.42-2.6,6.64-1.61,11.57-7.6,11.57-14.74,0-5.81-3.26-10.86-8.06-13.41-1.05-1.44-2.31-2.79-3.76-4.02,8.19,1.57,14.39,8.78,14.39,17.43Z"/><path class="l" d="M121.39,90.2l-1.03-2.63c.07-.01,.14-.01,.21-.01,1.73,0,3.13,1.4,3.13,3.12s-1.4,3.13-3.13,3.13-3.12-1.4-3.12-3.13c0-1.08,.55-2.03,1.39-2.59h.01l1.06,2.59,1.48-.48Z"/><path class="l" d="M117.45,90.68c0,1.73,1.4,3.13,3.12,3.13s3.13-1.4,3.13-3.13-1.4-3.12-3.13-3.12c-.07,0-.14,0-.21,.01l-4.44-11.34c1.47-.47,3.02-.73,4.65-.73,2.57,0,5,.64,7.12,1.77,6.97,9.46,5.41,22.53-3.51,28.15-1.16,.29-2.36,.44-3.61,.44-8.38,0-15.17-6.8-15.17-15.18,0-6.13,3.63-11.41,8.86-13.8h0l4.58,11.21h-.01c-.84,.56-1.39,1.51-1.39,2.59Z"/><path class="l" d="M127.69,77.27c-2.12-1.13-4.55-1.77-7.12-1.77-1.63,0-3.18,.26-4.65,.73l-.94-2.39c1.76-.59,3.63-.91,5.59-.91,1.15,0,2.27,.11,3.36,.32,1.45,1.23,2.71,2.58,3.76,4.02Z"/><polygon class="l" points="106.73 41.78 109.92 49.14 105.38 49.33 102.15 47.18 106.45 47.18 105.07 43.99 106.73 41.78"/><path class="l" d="M102.83,90.68c0-7.2,4.29-13.41,10.46-16.18h.01l.97,2.37h0c-5.23,2.4-8.86,7.68-8.86,13.81,0,8.38,6.79,15.18,15.17,15.18,1.25,0,2.45-.15,3.61-.44-2.08,1.32-4.56,2.23-7.42,2.6-7.97-1.74-13.93-8.85-13.93-17.34Z"/><polygon class="l" points="105.38 49.33 114.98 73.84 115.92 76.23 120.36 87.57 121.39 90.2 119.91 90.68 118.85 88.09 114.27 76.87 113.3 74.5 108.25 62.12 107.79 61 107.44 60.14 102.15 47.18 105.38 49.33"/><polygon class="l" points="89.37 41.78 106.73 41.78 105.07 43.99 89.37 43.99 89.37 41.78"/><path class="l" d="M77.02,58.7v5.23l-1.9,.13h-.03l.03-5.38c.28,0,1.62,.02,1.9,.02Z"/><path class="l" d="M75.12,58.67h-6.46v-1.57h12.52v1.62l-4.16-.02c-.28,0-1.62-.02-1.9-.02h0Z"/><path class="l" d="M73.15,87l-8.03,.98,4.91-9.28c1.64,2.62,2.67,5.45,3.12,8.3Z"/><path class="l" d="M65.59,105.39c5.42-3.44,8.11-9.65,7.79-16.11l3.53-.43c.08,.6,.12,1.21,.12,1.83,0,7.09-4.87,13.05-11.44,14.71Z"/><path class="l" d="M76.47,86.6c-.97-3.51-3.18-6.5-6.12-8.5l1.2-2.28c3.66,2.4,6.39,6.11,7.49,10.47l-2.57,.31Z"/><path class="l" d="M70.35,78.1c2.94,2,5.15,4.99,6.12,8.5l-3.32,.4c-.45-2.85-1.48-5.68-3.12-8.3l.32-.6Z"/><path class="l" d="M69.78,74.8l-1.03,2.07c-.98-1.28-2.12-2.48-3.43-3.59,1.57,.3,3.07,.82,4.46,1.52Z"/><polygon class="l" points="69.78 74.8 75.08 64.17 75.09 64.17 75.09 64.06 75.12 64.06 77.03 63.93 107.43 60.14 107.44 60.14 107.79 61 107.78 61 105.66 62.66 76.6 66.28 71.55 75.82 70.35 78.1 70.03 78.7 65.12 87.98 61.85 90.68 63.24 87.9 68.63 77.1 68.75 76.87 69.78 74.8"/><polygon class="l" points="76.91 88.85 73.38 89.28 64.94 90.3 61.85 90.68 65.12 87.98 73.15 87 76.47 86.6 79.04 86.29 90.54 84.89 105.66 62.66 107.78 61 107.79 61 108.25 62.12 108.24 62.12 92.04 87.01 79.46 88.54 76.91 88.85"/><path class="l" d="M61.85,75.5c2.44,0,4.74,.58,6.78,1.6l-5.39,10.8c-.42-.22-.89-.34-1.39-.34-1.73,0-3.13,1.4-3.13,3.12s1.4,3.13,3.13,3.13,3.12-1.4,3.12-3.13c0-.13-.01-.25-.03-.38l8.44-1.02c.32,6.46-2.37,12.67-7.79,16.11-1.2,.31-2.45,.47-3.74,.47-8.38,0-15.18-6.8-15.18-15.18s6.8-15.18,15.18-15.18Z"/><path class="l" d="M61.85,90.68l3.09-.38c.02,.13,.03,.25,.03,.38,0,1.73-1.4,3.13-3.12,3.13s-3.13-1.4-3.13-3.13,1.4-3.12,3.13-3.12c.5,0,.97,.12,1.39,.34l-1.39,2.78Z"/><path class="l" d="M65.59,105.39c6.57-1.66,11.44-7.62,11.44-14.71,0-.62-.04-1.23-.12-1.83l2.55-.31c.09,.7,.13,1.42,.13,2.14,0,9.8-7.94,17.75-17.74,17.75-1.29,0-2.55-.14-3.76-.4h0c2.9-.38,5.4-1.3,7.5-2.64Z"/><path class="l" d="M46.67,90.68c0,8.38,6.8,15.18,15.18,15.18,1.29,0,2.54-.16,3.74-.47-2.1,1.34-4.6,2.26-7.5,2.63h0c-7.99-1.71-13.99-8.83-13.99-17.34,0-9.8,7.95-17.75,17.75-17.75,1.19,0,2.35,.12,3.47,.35,1.31,1.11,2.45,2.31,3.43,3.59l-.12,.23c-2.04-1.02-4.34-1.6-6.78-1.6-8.38,0-15.18,6.8-15.18,15.18Z"/></g></g><g id="c"><g><path class="h" d="M73.15,87l-8.03,.98,4.91-9.28c1.64,2.62,2.67,5.45,3.12,8.3Z"/><path class="g" d="M73.15,87c-.45-2.85-1.48-5.68-3.12-8.3l.32-.6c2.94,2,5.15,4.99,6.12,8.5l-3.32,.4Z"/><path class="g" d="M76.91,88.85c.08,.6,.12,1.21,.12,1.83,0,7.09-4.87,13.05-11.44,14.71,5.42-3.44,8.11-9.65,7.79-16.11l3.53-.43Z"/><path class="g" d="M127.69,77.27c4.8,2.55,8.06,7.6,8.06,13.41,0,7.14-4.93,13.14-11.58,14.75,8.93-5.64,10.49-18.7,3.52-28.16Z"/><path class="h" d="M61.85,75.5c2.44,0,4.74,.58,6.78,1.6l-5.39,10.8c-.42-.22-.89-.34-1.39-.34-1.73,0-3.13,1.4-3.13,3.12s1.4,3.13,3.13,3.13,3.12-1.4,3.12-3.13c0-.13-.01-.25-.03-.38l8.44-1.02c.32,6.46-2.37,12.67-7.79,16.11-1.2,.31-2.45,.47-3.74,.47-8.38,0-15.18-6.8-15.18-15.18s6.8-15.18,15.18-15.18Z"/><path class="h" d="M127.69,77.27c6.97,9.46,5.41,22.52-3.52,28.16-1.15,.28-2.36,.43-3.6,.43-8.38,0-15.17-6.8-15.17-15.18,0-6.13,3.63-11.41,8.86-13.8l4.58,11.21c-.84,.56-1.39,1.51-1.39,2.59,0,1.73,1.4,3.13,3.12,3.13s3.13-1.4,3.13-3.13-1.4-3.12-3.13-3.12c-.07,0-.14,0-.21,.01l-4.45-11.34c1.47-.47,3.03-.73,4.66-.73,2.57,0,5,.64,7.12,1.77Z"/><path class="i" d="M123.7,90.68c0,1.73-1.4,3.13-3.13,3.13s-3.12-1.4-3.12-3.13c0-1.08,.55-2.03,1.39-2.59l1.06,2.59,1.49-.48-1.03-2.63c.07-.01,.14-.01,.21-.01,1.73,0,3.13,1.4,3.13,3.12Z"/><path class="i" d="M64.97,90.68c0,1.73-1.4,3.13-3.12,3.13s-3.13-1.4-3.13-3.13,1.4-3.12,3.13-3.12c.5,0,.97,.12,1.39,.34l-1.39,2.78,3.09-.38c.02,.13,.03,.25,.03,.38Z"/><path class="k" d="M69.78,74.8l-1.03,2.07c-.98-1.28-2.12-2.48-3.43-3.59,1.57,.3,3.07,.82,4.46,1.52Z"/><path class="k" d="M138.32,90.68c0,9.8-7.95,17.75-17.75,17.75-1.31,0-2.59-.14-3.82-.42,2.86-.36,5.34-1.27,7.42-2.58,6.65-1.61,11.58-7.61,11.58-14.75,0-5.81-3.26-10.86-8.06-13.41-1.05-1.44-2.31-2.79-3.76-4.02,8.19,1.57,14.39,8.78,14.39,17.43Z"/><path class="k" d="M76.47,86.6c-.97-3.51-3.18-6.5-6.12-8.5l1.2-2.28c3.66,2.4,6.39,6.11,7.49,10.47l-2.57,.31Z"/><path class="k" d="M79.59,90.68c0,9.8-7.94,17.75-17.74,17.75-1.29,0-2.55-.14-3.76-.4h0c2.9-.38,5.4-1.3,7.5-2.64,6.57-1.66,11.44-7.62,11.44-14.71,0-.62-.04-1.23-.12-1.83l2.55-.31c.09,.7,.13,1.42,.13,2.14Z"/><path class="i" d="M102.83,90.68c0-7.2,4.29-13.41,10.46-16.18l.97,2.38c-5.23,2.39-8.86,7.67-8.86,13.8,0,8.38,6.79,15.18,15.17,15.18,1.24,0,2.45-.15,3.6-.43-2.08,1.31-4.56,2.22-7.42,2.58-7.96-1.74-13.92-8.84-13.92-17.33Z"/><path class="i" d="M114.98,73.84c1.76-.59,3.63-.91,5.59-.91,1.15,0,2.27,.11,3.36,.32,1.45,1.23,2.71,2.58,3.76,4.02-2.12-1.13-4.55-1.77-7.12-1.77-1.63,0-3.19,.26-4.66,.73l-.93-2.39Z"/><path class="i" d="M44.1,90.68c0-9.8,7.95-17.75,17.75-17.75,1.19,0,2.35,.12,3.47,.35,1.31,1.11,2.45,2.31,3.43,3.59l-.12,.23c-2.04-1.02-4.34-1.6-6.78-1.6-8.38,0-15.18,6.8-15.18,15.18s6.8,15.18,15.18,15.18c1.29,0,2.54-.16,3.74-.47-2.1,1.34-4.6,2.26-7.5,2.63h0c-7.99-1.71-13.99-8.83-13.99-17.34Z"/><path class="m" d="M75.08,64.06l.03-5.38c.29,0,1.63,.02,1.91,.02v5.23l-1.91,.13h-.03Z"/><polygon class="m" points="73.38 89.28 64.94 90.3 61.85 90.68 65.12 87.98 73.15 87 76.47 86.6 79.04 86.29 90.54 84.89 105.66 62.66 107.78 61 108.24 62.12 92.04 87.01 79.46 88.54 76.91 88.85 73.38 89.28"/><polygon class="m" points="105.06 43.99 106.73 41.78 109.92 49.14 105.37 49.33 102.14 47.18 106.45 47.18 105.06 43.99"/><polygon class="f" points="114.98 73.84 115.91 76.23 120.36 87.57 121.39 90.2 119.9 90.68 118.84 88.09 114.26 76.88 113.29 74.5 108.24 62.12 107.78 61 107.43 60.14 102.14 47.18 105.37 49.33 114.98 73.84"/><polygon class="f" points="89.36 41.78 106.73 41.78 105.06 43.99 89.36 43.99 89.36 41.78"/><path class="k" d="M68.66,57.1h12.52v1.62l-4.16-.02c-.28,0-1.62-.02-1.91-.02h-6.45v-1.58Z"/><polygon class="f" points="65.12 87.98 61.85 90.68 63.24 87.9 68.63 77.1 68.75 76.87 69.78 74.8 75.08 64.17 75.08 64.06 75.11 64.06 77.03 63.93 107.43 60.14 107.78 61 105.66 62.66 76.6 66.28 71.55 75.82 70.35 78.1 70.03 78.7 65.12 87.98"/></g></g><g id="d"><g id="e"/><path class="j" d="M71.55,75.83c3.66,2.4,6.39,6.11,7.49,10.47"/><path class="j" d="M79.46,88.55c.09,.7,.13,1.42,.13,2.14,0,9.8-7.94,17.75-17.74,17.75s-17.75-7.95-17.75-17.75,7.95-17.75,17.75-17.75c2.85,0,5.55,.67,7.93,1.87"/><path class="j" d="M70.35,78.11c2.94,2,5.15,4.99,6.12,8.5"/><path class="j" d="M76.91,88.86c.08,.6,.12,1.21,.12,1.83,0,8.38-6.8,15.18-15.18,15.18s-15.18-6.8-15.18-15.18,6.8-15.18,15.18-15.18c2.44,0,4.74,.58,6.78,1.6"/><path class="j" d="M114.97,73.85c1.76-.59,3.64-.91,5.6-.91,9.8,0,17.75,7.95,17.75,17.75s-7.95,17.75-17.75,17.75-17.74-7.95-17.74-17.75c0-7.2,4.29-13.41,10.46-16.18"/><path class="j" d="M115.91,76.24c1.47-.47,3.03-.73,4.66-.73,8.39,0,15.18,6.8,15.18,15.18s-6.79,15.18-15.18,15.18-15.17-6.8-15.17-15.18c0-6.13,3.63-11.41,8.86-13.8"/><line class="j" x1="107.43" y1="60.15" x2="77.03" y2="63.94"/><polyline class="j" points="75.08 64.18 69.78 74.81 68.63 77.11 63.24 87.91 61.85 90.69 64.94 90.31 76.91 88.86 79.46 88.55 92.04 87.02 108.24 62.13"/><polygon class="j" points="65.12 87.99 76.6 66.29 105.66 62.67 90.54 84.9 65.12 87.99"/><polygon class="j" points="89.36 41.78 89.36 44 105.06 44 106.45 47.19 102.14 47.19 119.9 90.69 121.38 90.21 105.37 49.33 109.92 49.15 106.73 41.78 89.36 41.78"/><polyline class="j" points="75.08 64.18 75.11 58.67 68.66 58.67 68.66 57.11 81.18 57.11 81.18 58.72 77.02 58.71 77.03 63.94"/><path class="j" d="M64.94,90.31c.02,.13,.03,.25,.03,.38,0,1.73-1.4,3.13-3.12,3.13s-3.13-1.4-3.13-3.13,1.4-3.12,3.13-3.12c.5,0,.97,.12,1.39,.34"/><path class="j" d="M120.35,87.58c.07-.01,.15-.01,.22-.01,1.73,0,3.13,1.4,3.13,3.12s-1.4,3.13-3.13,3.13-3.12-1.4-3.12-3.13c0-1.08,.55-2.03,1.39-2.59"/></g></svg>