<?xml version="1.0" encoding="UTF-8"?><svg xmlns="http://www.w3.org/2000/svg" viewBox="0 0 336.39 524.48"><defs><style>.e{fill:#ead0d0;}.f{fill:#fcb9b9;}.g{fill:#fff;}.h{fill:#6b3d34;}.i{fill:#eab5a7;}.j{fill:#7f4d40;}.k{fill:#a06858;}.l{fill:#bc7171;}.m{fill:#824f46;}.n{stroke-width:2px;}.n,.o{fill:none;stroke:#3f2a25;stroke-linecap:round;stroke-linejoin:round;}.p{fill:#eaa0a0;}.q{fill:#b27967;}.r{fill:#d17e75;}.s{fill:#935d51;}.t{fill:#e08f82;}</style></defs><g id="a"><path class="n" d="M164.1,266.78c-18.86,0-52.78-10.23-52.78-26.02,0-11,5.07-12.05,6-21,1.99-19.25,11.21-34.54,25.25-42.63h0"/><path class="n" d="M168.87,170.78c6.97,.18,14.64,1.93,20.42,4.45"/><path class="n" d="M176.15,266.04c16.62-1.87,26.8-7.17,32.59-16.07,2.52-3.85,4.21-8.36,5.25-13.56,.92-4.66,1.33-9.88,1.33-15.65,0-10.81-2.48-20.17-6.89-27.76"/><path class="n" d="M168.87,170.78c-3.18-13.25,2.3-38.77,4.47-67.11,1.14-14.87-7.96-34.76-17-33.59-12.11,1.58-33.53,35.06-30.52,61.57,2.62,23.06,14.14,36.19,16.75,45.47h0"/><path class="n" d="M189.29,175.23c7.11-15.95,14.2-44.46,21.59-66.48,4.74-14.14,20.86-28.92,28.73-24.32,10.54,6.17,17.23,45.35,4.14,68.59-9.2,16.32-26.99,30.25-35.32,39.98"/><path class="n" d="M137.09,357.78c.71,1.88,1.53,3.79,2.46,5.72,5.16,10.73,11.51,30.9,19.4,38.41,2.47,2.35,5.62,2.75,7.7,1.62"/><path class="n" d="M164.1,266.77c-.52,4.89-2.34,5.2-5.02,6.46-6.7,3.16-6.32,2.14-10.73,4.96-7.75,4.95-34.56,44.7-35.97,61.89-.54,6.65,3.03,22.29,13.76,24.2,6.35,1.13,8.64-4.06,10.94-6.5"/><path class="n" d="M214.91,353.48c3.83,8.04,6.41,11.85,9.84,12.84,1.12,.33,2.34,.35,3.72,.11,1.86-.32,3.94-2.37,5.72-5.47,4.82-8.37,7.55-24.36-1.61-34.25-15.27-16.48-43.83-49.01-47.15-50.28-3.7-1.41-4.64-2.04-7.44-3.03-3.22-1.15-1.78-3.82-1.84-7.36"/><path class="n" d="M166.65,403.53c-.23,9.12-.29,16.24,1.37,19.84,1.64,3.57,9.24,4.57,13.1,2.54,13.43-7.07,20.62-50.37,25.33-59.32,.95-1.8,1.62-3.64,2.08-5.49"/><line class="n" x1="119.2" y1="360.43" x2="119.2" y2="360.42"/><path class="n" d="M115.02,227.41c-10.33-8.76-25.26-14.51-36.94-15.42"/><path class="n" d="M80.17,232c11.87-.23,22.37,1.36,31.15,5.09"/><path class="n" d="M213.99,236.41c9.49-.87,19.21,.13,26.72,2.6"/><path class="n" d="M231.09,256.67c-7.76-3.41-15.24-5.7-22.35-6.7"/><path class="n" d="M208.53,361.09c3.02-2.5,5.05-5.15,6.38-7.62"/></g><g id="b"><g><path class="l" d="M142.69,238.42c2.62,.37,4.61-.91,4.33-2.46-.21-1.18-6.58-1.6-7.32-1-.79,.65,.96,3.18,2.99,3.46Zm65.58-45.68c4.41,7.59,6.89,16.94,6.89,27.75,0,5.78-.41,10.99-1.34,15.66-1.04,5.2-2.73,9.71-5.24,13.56-5.8,8.89-15.98,14.19-32.59,16.06-3.34,.38-6.95,.62-10.83,.72-.39,.01-.81,.02-1.22,.02-18.86,.01-52.78-10.23-52.78-26.02,0-11,5.07-12.05,6-21,1.99-19.25,11.21-34.53,25.24-42.63h0c7.12-4.11,15.47-6.37,24.75-6.37,.52,0,1.03,.01,1.54,.02h.01c6.97,.18,14.64,1.93,20.42,4.45,7.11-15.95,14.2-44.45,21.58-66.48,4.74-14.14,20.87-28.92,28.74-24.31,10.54,6.16,17.23,45.34,4.13,68.59-9.19,16.32-26.98,30.25-35.31,39.98Zm-18.11,42.75c4.65-4.73-1.43-19.31-6-21-3.17-1.17-8.43,2.34-12.63,6.9-4.16,4.5-7.3,10.04-6.37,13.1,.45,1.51,3.8,2.75,7.96,3.38h.02c6.2,.93,14.18,.5,17.02-2.38Zm-15.86-23.81c.17-.8-1.62-2.14-3.47-2.22-2.43-.1-4.4,2.02-4.12,2.83,.46,1.32,7.29,.83,7.59-.61Zm-29.14-2.19c.77-.9-.28-4.5-3-5-1.89-.34-3.98,.9-4,2-.04,1.88,5.92,4.25,7,3Zm-9,19c2.63-.36,2.14-7.67,.26-13.98-1.28-4.34-3.23-8.21-5.26-9.02-3.69-1.47-9.82,9.15-8,17,.56,2.42,3.15,4.07,5.99,5.03,2.6,.89,5.4,1.19,7.01,.97Z"/><path class="l" d="M204.21,329.78c1.17,6.77,7.07,19.25,4.16,31.05-.46,1.86-1.14,3.69-2.08,5.49-4.71,8.96-11.9,52.25-25.33,59.32-3.86,2.04-11.46,1.04-13.11-2.54-1.66-3.59-1.59-10.69-1.36-19.8h-.4c-2.08,1.11-4.84,.69-7.3-1.66-7.89-7.51-14.24-27.67-19.4-38.41-.93-1.93-1.74-3.83-2.46-5.71-1.99,2.1-3.97,6.25-8.55,6.62-.73,.06-1.53,.03-2.4-.13-2.78-.49-5.07-1.9-6.94-3.85-5.36-5.54-7.22-15.41-6.82-20.34,1.41-17.19,28.22-56.94,35.97-61.89,4.41-2.82,4.03-1.8,10.73-4.96,2.68-1.26,4.5-1.58,5.02-6.46,.41,0,.83-.01,1.22-.02,3.88-.1,7.49-.34,10.83-.72h0c.06,3.55-1.39,6.22,1.84,7.36,2.8,1,3.74,1.62,7.44,3.04,3.32,1.27,31.88,33.8,47.15,50.28,12.55,13.55,2.78,38.54-4.11,39.72-1.38,.23-2.59,.21-3.72-.11-3.43-.99-6.01-4.8-9.84-12.85-2.47-5.19-5.46-12.14-9.53-21.22-.34-.76-.68-1.49-1.01-2.21Z"/><path class="l" d="M214.75,353.21c-1.33,2.47-3.36,5.12-6.38,7.62,2.91-11.8-2.99-24.28-4.16-31.05,.33,.72,.67,1.45,1.01,2.21,4.07,9.08,7.06,16.03,9.53,21.22Z"/><path class="l" d="M184.16,214.49c4.57,1.69,10.65,16.27,6,21-2.84,2.88-10.82,3.31-17.02,2.38,11.04-1.39,9.18-20.91-1.61-16.48,4.2-4.56,9.46-8.07,12.63-6.9Z"/><path class="l" d="M171.53,221.39c10.79-4.43,12.65,15.09,1.61,16.48h-.02c-4.16-.63-7.51-1.87-7.96-3.38-.93-3.06,2.21-8.6,6.37-13.1Z"/><path class="l" d="M170.83,209.46c1.85,.08,3.64,1.42,3.47,2.22-.3,1.44-7.13,1.93-7.59,.61-.28-.81,1.69-2.93,4.12-2.83Z"/><path class="l" d="M156.18,69.82c9.04-1.18,18.13,18.72,16.99,33.59-2.17,28.33-7.65,53.85-4.47,67.1-.51-.01-1.02-.02-1.54-.02-9.28,0-17.63,2.26-24.75,6.36h0c-2.59-9.27-14.13-22.4-16.74-45.47-3.01-26.5,18.41-59.99,30.52-61.56Z"/><path class="l" d="M147.02,235.96c.28,1.55-1.71,2.83-4.33,2.46-2.03-.28-3.78-2.81-2.99-3.46,.74-.6,7.11-.18,7.32,1Z"/><path class="l" d="M142.16,204.49c2.72,.5,3.77,4.1,3,5-1.08,1.25-7.04-1.12-7-3,.02-1.1,2.11-2.34,4-2Z"/><path class="l" d="M136.42,214.51c1.88,6.31,2.37,13.62-.26,13.98-1.61,.22-4.41-.08-7.01-.97v-.03c-3.99-9,4.27-18.98,7.27-12.98Z"/><path class="l" d="M136.42,214.51c-3-6-11.26,3.98-7.26,12.98v.03c-2.85-.96-5.44-2.61-6-5.03-1.82-7.85,4.31-18.47,8-17,2.03,.81,3.98,4.68,5.26,9.02Z"/></g></g><g id="c"><g><path class="p" d="M208.32,192.95c-1.16,1.36-2.14,2.63-2.88,3.82h0c-.53,.85-.94,1.65-1.22,2.41h-.01c1.48-5.04,2.62-9.97,3.54-14.84,6.01-5.41,21.05-20.17,27.69-32.86,9.9-18.94,14.21-39.1,12.32-53.16,4.53,15.14,4.88,38.66-4.12,54.64-9.19,16.33-27,30.26-35.32,39.99Z"/><path class="f" d="M247.76,98.32c1.89,14.06-2.42,34.22-12.32,53.16-6.64,12.69-21.68,27.45-27.69,32.86,4.65-24.51,3.83-47.53,12.69-75.7,3.51-13.2,10.15-22.96,19.73-23.83,3.01,2.19,5.67,7.09,7.59,13.48v.03Z"/><path class="q" d="M239.5,84.37c.22,.13,.45,.28,.67,.44-9.58,.87-16.22,10.63-19.73,23.83-8.86,28.17-8.04,51.19-12.69,75.7-.92,4.87-2.06,9.8-3.54,14.84-.24,.86-.51,1.73-.78,2.6-.46-1.96-6.3-6.46-7.69-15.34-2.28-14.47,1.94-35.04,1.21-32.72-.01,.03-.04,.13-.11,.3,4.59-14.43,9.2-31.21,13.93-45.33,4.74-14.14,20.87-28.92,28.73-24.32Z"/><path class="s" d="M232.48,326.65c9.15,9.89,6.43,25.88,1.6,34.25,.74-5.35,.97-8.73-.32-13,.26-2.89-.24-6.16-1.35-9.71-4.85,2.56-13.89,5.35-15.36,.85-.82-2.51,6.33-9.88,9.79-13.3-3.65-6.55-8.49-13.55-13.9-20.56,7.04,7.77,14.12,15.63,19.54,21.47Z"/><path class="k" d="M233.76,347.9c1.29,4.27,1.06,7.65,.32,13-1.78,3.1-3.85,5.15-5.71,5.47-1.38,.24-2.59,.22-3.72-.1h0c.71-2.81,1.23-5.07,1.52-7.16,2.15-1.39,4.19-3.27,5.44-5.04s1.95-3.84,2.15-6.17Z"/><path class="q" d="M113.22,347.79h0c0,.42,.02,.82,.06,1.24-.89-3.45-1.18-6.75-1-9.01,1.4-17.19,28.22-56.94,35.97-61.89,4.41-2.82,4.03-1.8,10.73-4.96,2.08-.98,3.64-1.38,4.49-3.81l.08,.03c2.37,1.04,10.3,.37,12.38-1.07-.24,2.37-.51,4.14,1.96,5.02,2.8,.99,3.74,1.62,7.43,3.03,2.15,.82,14.81,14.66,27.62,28.81,5.41,7.01,10.25,14.01,13.9,20.56-3.46,3.42-10.61,10.79-9.79,13.3,1.47,4.5,10.51,1.71,15.36-.85,1.11,3.55,1.61,6.82,1.35,9.71-.2,2.33-.9,4.4-2.15,6.17s-3.29,3.65-5.44,5.04c-2.78,1.81-5.75,2.82-7.4,1.75-1.22-1.91-2.5-4.37-3.96-7.44-2.47-5.19-5.46-12.14-9.53-21.22-.34-.77-.68-1.51-1.03-2.24h0c-4.12-8.89-8.11-15.48-17.16-30.66,12.09,29.31,20.13,31.31,14.57,58.48-2.97,14.49-3.44,23.12-9.65,42.83-3.08,9.75-10.1,24.71-19.08,25.93-2.3-.52-4.27-1.62-5.02-3.24-1.66-3.59-1.59-10.69-1.36-19.8,.24-9.25,.65-20.58-.4-32.43-9.12-1.13-13.73-5.04-16.1-6.17-2.7-1.35-9.84-4.87-13.4-8.08-4.97-13.62-4.66-26.05-1.95-37.29h-.01c-2.7,5.07-3.59,10.85-3.94,16.18-1.56-1.4-3.32-2.44-4.88-2.83-4.34-1.07-12.84,5.22-12.65,14.91Zm74.31,47.01c0-3.13-3.27-5.67-7.3-5.67s-7.3,2.54-7.3,5.67,3.27,5.68,7.3,5.68,7.3-2.54,7.3-5.68Z"/><path class="k" d="M226.17,359.11c-.29,2.09-.81,4.35-1.52,7.15h0c-2.12-.6-3.92-2.3-5.88-5.4,1.65,1.07,4.62,.06,7.4-1.75Z"/><path class="s" d="M214.81,353.42h-.01c-1.33,2.47-3.36,5.11-6.37,7.61,2.91-11.82-3-24.31-4.18-31.07,.35,.73,.69,1.47,1.03,2.24,4.07,9.08,7.06,16.03,9.53,21.22Z"/><path class="s" d="M215.21,220.7c0,5.77-.41,10.98-1.34,15.65-3.61,.33-7.19,.93-10.6,1.83,7.03-18.56,2.58-38.95,2.17-41.4h0c.74-1.2,1.72-2.47,2.88-3.83,4.41,7.59,6.89,16.94,6.89,27.75Z"/><path class="s" d="M208.64,249.91c-5.8,8.89-15.98,14.2-32.59,16.07-3.35,.38-6.95,.62-10.84,.72-.39,.01-.8,.02-1.21,.02-8.16,.01-19.15-1.91-28.99-5.37,2.93,.59,50.83,6.73,64.23-14.94,1.64-2.65,2.97-5.42,4.03-8.23,3.41-.9,6.99-1.5,10.6-1.83-1.03,5.2-2.72,9.72-5.23,13.56Z"/><path class="s" d="M208.43,361.03c-.46,1.86-1.13,3.7-2.08,5.5-4.71,8.95-11.9,52.24-25.33,59.32-2.11,1.11-5.33,1.31-8.09,.69,8.98-1.22,16-16.18,19.08-25.93,6.21-19.71,6.68-28.34,9.65-42.83,5.56-27.17-2.48-29.17-14.57-58.48,9.05,15.18,13.04,21.77,17.16,30.65h0c1.18,6.77,7.09,19.26,4.18,31.08Z"/><path class="q" d="M136.46,214.67c-1.29-4.32-3.22-8.16-5.25-8.97-2.45-.99-6,3.4-7.55,8.77-.77,2.68-1.05,5.61-.45,8.23,.56,2.42,3.16,4.07,5.99,5.03,2.6,.89,5.4,1.19,7.01,.97,.28-.04,.53-.16,.74-.36,1.77-1.56,1.19-8.03-.49-13.67Zm66.81,23.51c-1.06,2.81-2.39,5.58-4.03,8.23-13.4,21.67-61.3,15.53-64.23,14.94-12.89-4.52-23.8-11.69-23.8-20.65,0-2.17,.2-3.96,.52-5.49h0c1.33-2.52,2.97-3.52,4.52-4.13,.62,.76,1.65,1.45,2.91,1.85,2.36,.75,4.62,.25,5.06-1.13,.43-1.34-1.02-3-3.25-3.79,.08-.23,.15-.47,.2-.75,.85-4.3-3.52-4.01-3.19-13.01,3.03-16.68,11.78-29.87,24.47-37.18h0c2.05-1.19,4.21-2.22,6.46-3.08,14.1-2.19,30.7,.59,37.65,5.75-.74,1.5-1.47,2.87-2.16,4.02-5.23,8.72,16.04,20.94,18.78,18.78,.25-.19,.31-.44,.24-.76,.27-.87,.54-1.74,.78-2.6h.01c.28-.76,.69-1.56,1.22-2.4,.41,2.45,4.86,22.84-2.17,41.4Zm-12.37-13.4c-1.45-4.72-4.27-9.2-6.69-10.08-3.17-1.17-8.42,2.33-12.62,6.89h-.01c-4.15,4.5-7.29,10.05-6.37,13.11,.46,1.51,3.81,2.75,7.97,3.38,6.2,.92,14.19,.5,17.03-2.38,2.2-2.24,2.01-6.68,.69-10.92Zm-48.15,13.84c.08,.01,.15,.02,.23,.02,2.51,.27,4.37-.98,4.1-2.48-.08-.41-.91-.73-1.99-.95-2-.39-4.85-.44-5.33-.05-.8,.65,.96,3.18,2.99,3.46Zm50.77,6.3c0-1.95-2.57-3.53-5.75-3.53s-5.74,1.58-5.74,3.53,2.57,3.54,5.74,3.54,5.75-1.59,5.75-3.54Zm-19.16-33.03c.17-.8-1.63-2.15-3.47-2.23-2.43-.1-4.4,2.02-4.12,2.84,.46,1.31,7.29,.83,7.59-.61Zm-27.62,19.41c4.38,1.61,9.28-.6,9.27-1.95-.03-2.21-13.26-4.87-14.22-2.74-.5,1.1,2.19,3.68,4.95,4.69Zm-1.53-21.6c.78-.9-.27-4.5-3-5-1.88-.35-3.98,.89-4,2-.03,1.87,5.93,4.24,7,3Z"/><path class="q" d="M203.43,201.78c.07,.32,.01,.57-.24,.76,.08-.25,.16-.51,.24-.76Z"/><path class="s" d="M203.43,201.78c-.08,.25-.16,.51-.24,.76-2.74,2.16-24.01-10.06-18.78-18.78,1.6-2.1,3.19-5.04,4.78-8.6,2.53-5.69,5.07-12.97,7.6-20.98,.02-.06,.04-.11,.05-.16,.07-.17,.1-.27,.11-.3,.73-2.32-3.49,18.25-1.21,32.72,1.39,8.88,7.23,13.38,7.69,15.34Z"/><path class="q" d="M188.76,174.98c3.72-8.49,7.26-18.55,8.03-20.8-2.53,8.01-5.07,15.29-7.6,20.98-.14-.06-.29-.12-.43-.18Z"/><path class="t" d="M187.77,241.39c3.18,0,5.75,1.58,5.75,3.53s-2.57,3.54-5.75,3.54-5.74-1.59-5.74-3.54,2.57-3.53,5.74-3.53Z"/><path class="g" d="M190.9,224.78c1.32,4.24,1.51,8.68-.69,10.92-2.84,2.88-10.83,3.3-17.03,2.38h0c7.09-.88,8.88-9.24,6.39-13.95,3.74-1.24,7.62-1.28,11.33,.65Z"/><path class="q" d="M188.76,174.98c.14,.06,.29,.12,.43,.18-1.59,3.56-3.18,6.5-4.78,8.6,.69-1.15,1.42-2.52,2.16-4.02,.72-1.48,1.46-3.09,2.19-4.76Z"/><path class="s" d="M188.76,174.98c-.73,1.67-1.47,3.28-2.19,4.76-6.95-5.16-23.55-7.94-37.65-5.75,5.55-2.15,11.69-3.29,18.29-3.29,.52,0,1.04,.01,1.55,.02,6.8,.18,14.27,1.84,20,4.26Z"/><path class="k" d="M180.23,389.13c4.03,0,7.3,2.54,7.3,5.67s-3.27,5.68-7.3,5.68-7.3-2.54-7.3-5.68,3.27-5.67,7.3-5.67Z"/><path class="e" d="M190.9,224.78c-3.71-1.93-7.59-1.89-11.33-.65-1.39-2.63-4.11-4.13-7.98-2.54,4.2-4.56,9.45-8.06,12.62-6.89,2.42,.88,5.24,5.36,6.69,10.08Z"/><path class="j" d="M179.57,224.13c2.49,4.71,.7,13.07-6.39,13.94h0c-4.16-.62-7.51-1.86-7.97-3.37,3.81-4.48,8.93-8.78,14.36-10.57Z"/><path class="s" d="M176.05,265.98c.01,.83-.05,1.61-.12,2.34-2.08,1.44-10.01,2.11-12.38,1.07l-.08-.03c.23-.7,.41-1.56,.53-2.64,.41,0,.82-.01,1.21-.02,3.89-.1,7.49-.34,10.84-.72Z"/><path class="h" d="M171.59,221.59c3.87-1.59,6.59-.09,7.98,2.54-5.43,1.79-10.55,6.09-14.36,10.57-.92-3.06,2.22-8.61,6.37-13.11h.01Z"/><path class="i" d="M170.89,209.66c1.84,.08,3.64,1.43,3.47,2.23-.3,1.44-7.13,1.92-7.59,.61-.28-.82,1.69-2.94,4.12-2.84Z"/><path class="s" d="M148.92,173.99c-2.25,.86-4.41,1.89-6.46,3.07-.34-1.2-.82-2.45-1.42-3.79l.07-.03c-1.1-4.61-5.74-12.65-1.28-18.89,5.22-7.31,15.5-15.54,19.18-19.57,6.96-7.63,13.04-38.06,2.62-63.11,6.89,5,12.51,20.07,11.6,31.94-2.17,28.34-7.65,53.86-4.47,67.11-.51-.01-1.03-.02-1.55-.02-6.6,0-12.74,1.14-18.29,3.29Z"/><path class="s" d="M166.15,371.07c1.05,11.85,.64,23.18,.4,32.43h-.4c-2.08,1.12-4.84,.7-7.31-1.65-7.89-7.52-14.24-27.68-19.4-38.41-.93-1.93-1.74-3.84-2.46-5.72-.11-.3-.23-.6-.33-.9,3.56,3.21,10.7,6.73,13.4,8.08,2.37,1.13,6.98,5.04,16.1,6.17Zm-2.57,13.48c0-1.98-2.31-3.6-5.16-3.6s-5.15,1.62-5.15,3.6,2.3,3.6,5.15,3.6,5.16-1.61,5.16-3.6Z"/><path class="m" d="M158.42,380.95c2.85,0,5.16,1.62,5.16,3.6s-2.31,3.6-5.16,3.6-5.15-1.61-5.15-3.6,2.3-3.6,5.15-3.6Z"/><path class="q" d="M161.63,71.67c10.42,25.05,4.34,55.48-2.62,63.11-3.68,4.03-13.96,12.26-19.18,19.57-4.46,6.24,.18,14.28,1.28,18.89l-.07,.03c-4.01-9.04-13.05-21.59-15.33-41.68-3-26.51,18.41-59.99,30.53-61.57,1.82-.24,3.64,.38,5.39,1.65Z"/><path class="s" d="M156.01,229.35c.01,1.35-4.89,3.56-9.27,1.95-2.76-1.01-5.45-3.59-4.95-4.69,.96-2.13,14.19,.53,14.22,2.74Z"/><path class="p" d="M147.08,236.16c.27,1.5-1.59,2.75-4.1,2.48,1.45-.66,2.75-2.38,2.11-3.43,1.08,.22,1.91,.54,1.99,.95Z"/><path class="i" d="M142.21,204.7c2.73,.5,3.78,4.1,3,5-1.07,1.24-7.03-1.13-7-3,.02-1.11,2.12-2.35,4-2Z"/><path class="f" d="M145.09,235.21c.64,1.05-.66,2.77-2.11,3.43-.08,0-.15-.01-.23-.02-2.03-.28-3.79-2.81-2.99-3.46,.48-.39,3.33-.34,5.33,.05Z"/><path class="h" d="M136.46,214.67c1.68,5.64,2.26,12.11,.49,13.67-1.17-6.58-3.6-10.79-6.72-12.76,1.93-2.86,4.72-3.86,6.23-.91Z"/><path class="s" d="M119.1,360.37c-2.9-3-4.77-7.27-5.82-11.33h0c-.04-.43-.06-.83-.06-1.24h0c-.19-9.7,8.31-15.99,12.65-14.92,1.56,.39,3.32,1.43,4.88,2.83,.35-5.33,1.24-11.11,3.94-16.18h.01c-2.71,11.24-3.02,23.67,1.95,37.29,.1,.3,.22,.6,.33,.9-2.3,2.44-4.59,7.63-10.94,6.5-2.78-.49-5.07-1.91-6.94-3.85Z"/><path class="j" d="M136.95,228.34c-.21,.2-.46,.32-.74,.36-1.61,.22-4.41-.08-7.01-.97v-.03c-1.99-4.5-.92-9.25,1.03-12.12,3.12,1.97,5.55,6.18,6.72,12.76Z"/><path class="e" d="M136.46,214.67c-1.51-2.95-4.3-1.95-6.23,.91-1.97-1.25-4.21-1.61-6.57-1.11,1.55-5.37,5.1-9.76,7.55-8.77,2.03,.81,3.96,4.65,5.25,8.97Z"/><path class="g" d="M129.21,227.7v.03c-2.84-.96-5.44-2.61-6-5.03-.6-2.62-.32-5.55,.45-8.23,2.36-.5,4.6-.14,6.57,1.11-1.95,2.87-3.02,7.62-1.02,12.12Z"/><path class="t" d="M120.98,228.01c2.23,.79,3.68,2.45,3.25,3.79-.44,1.38-2.7,1.88-5.06,1.13-1.26-.4-2.29-1.09-2.91-1.85,2.06-.82,3.96-.95,4.72-3.07Z"/><path class="s" d="M114.91,227.34c1.02-2.06,1.95-4.3,2.3-7.64,.19-1.85,.45-3.67,.78-5.45-.33,9,4.04,8.71,3.19,13.01-.05,.28-.12,.52-.2,.75-.07-.02-.14-.05-.21-.07-2.35-.75-4.62-.25-5.06,1.13-.2,.64,.02,1.35,.55,2.01-1.55,.61-3.19,1.61-4.52,4.13h0c.71-3.33,2.01-5.48,3.18-7.87Z"/><path class="r" d="M120.77,227.94c.07,.02,.14,.05,.21,.07-.76,2.12-2.66,2.25-4.72,3.07-.53-.66-.75-1.37-.55-2.01,.44-1.38,2.71-1.88,5.06-1.13Z"/></g><circle class="g" cx="132.31" cy="216.71" r=".93"/><circle class="g" cx="177.54" cy="224.93" r=".93"/></g><g id="d"><path class="o" d="M208.4,193.02c4.41,7.59,6.89,16.95,6.89,27.76,0,30.07-11,45-50,46-18.58,.48-54-9.86-54-26,0-11,5.07-12.05,6-21,1.99-19.25,11.21-34.54,25.25-42.63h0c7.12-4.11,15.47-6.37,24.75-6.37,.52,0,1.04,.01,1.55,.02,6.97,.18,14.64,1.93,20.42,4.45"/><path class="o" d="M136.29,228.78c4.43-.61,0-21-5-23-3.69-1.48-9.82,9.14-8,17,1.07,4.64,9.64,6.46,13,6Z"/><path class="o" d="M165.29,234.78c-1.85-6.16,12.69-22.33,19-20,4.57,1.69,10.66,16.27,6,21-4.74,4.81-23.86,2.77-25-1Z"/><path class="o" d="M145.29,209.78c.78-.9-.28-4.5-3-5-1.88-.35-3.98,.9-4,2-.03,1.88,5.92,4.25,7,3Z"/><path class="o" d="M166.84,212.58c-.28-.82,1.69-2.94,4.12-2.84,1.84,.08,3.64,1.42,3.47,2.22-.3,1.44-7.13,1.92-7.59,.61Z"/><path class="o" d="M136.55,214.8c-3-6-11.27,3.98-7.27,12.98"/><path class="o" d="M171.66,221.67c10.8-4.43,12.66,15.12,1.59,16.48"/><path class="o" d="M133.95,241.47c1.39,2.7,3.82,1.33,6.91,1.85,2.29,.39,7.5,3.72,12.33,2.98"/><path class="o" d="M142.82,238.71c2.62,.37,4.61-.92,4.33-2.46-.21-1.17-6.58-1.6-7.32-1-.79,.65,.96,3.18,2.99,3.46Z"/><path class="o" d="M141.39,243.45c.89-.45,1.43-4.04,1.43-4.74"/><path class="o" d="M168.83,170.8c-3.18-13.25,2.3-38.77,4.47-67.11,1.14-14.87-7.96-34.76-17-33.59-12.11,1.57-33.53,35.06-30.52,61.57,2.62,23.07,14.15,36.2,16.75,45.48"/><path class="o" d="M184.48,183.84c8.74-11.48,17.32-48.13,26.36-75.08,4.74-14.14,20.87-28.92,28.73-24.32,10.54,6.17,17.23,45.35,4.14,68.59-11.39,20.23-35.99,36.78-39.42,46.22"/><path class="o" d="M220.51,108.72c-11.01,35-7.07,62.06-17.25,93.91"/><path class="o" d="M150.03,284.02c-10.21,19.84-26.45,46.35-10.51,79.5,5.16,10.74,11.51,30.9,19.4,38.41,2.47,2.35,5.22,2.77,7.3,1.64"/><path class="o" d="M164.07,266.8c-.52,4.89-2.34,5.2-5.02,6.46-6.7,3.16-6.32,2.14-10.73,4.96-7.75,4.95-34.56,44.7-35.97,61.89-.54,6.65,3.03,22.29,13.76,24.2,6.35,1.13,8.64-4.06,10.94-6.5"/><path class="o" d="M176.12,266.06c.06,3.54-1.39,6.21,1.84,7.36,2.8,1,3.74,1.62,7.43,3.03,3.33,1.27,31.89,33.8,47.15,50.28,12.55,13.55,2.79,38.54-4.11,39.72-8.31,1.42-10.64-6.42-23.09-34.17-5.35-11.92-9.78-18.65-24.13-42.91"/><path class="o" d="M204.33,330.03c1.36,7.82,9.06,23.33,2.09,36.58-4.71,8.95-11.9,52.25-25.33,59.32-3.86,2.03-11.46,1.03-13.11-2.54-3.34-7.24,.32-28.73-1.76-52.24"/><path class="o" d="M150.12,364.99c2.38,1.13,6.98,5.03,16.1,6.16,3.88,.48,7.3-2.22,10.96-3.56"/><path class="o" d="M224.72,345.91c2.55,8.41,2.15,12.02,0,20.43"/><path class="o" d="M231.18,341.61c4.05,8.05,4.04,11.67,2.98,19.38"/><path class="o" d="M122,344.15c-3.05,6.69-2.34,8.43-2.83,16.3"/><path class="o" d="M128.66,347.67c-1.07,7.84-1.99,9.72-.14,16.76"/><path class="o" d="M114.99,227.44c-10.33-8.76-25.26-14.51-36.94-15.42"/><path class="o" d="M80.14,232.03c11.87-.23,22.37,1.36,31.15,5.09"/><path class="o" d="M200.65,239.04c12.9-4.11,28.9-3.67,40.03-.01"/><path class="o" d="M231.05,256.69c-10.87-4.78-21.17-7.36-30.71-7.29"/><path class="o" d="M208.5,361.12c3.02-2.5,5.05-5.15,6.38-7.62"/></g></svg>