<?xml version="1.0" encoding="UTF-8"?><svg xmlns="http://www.w3.org/2000/svg" viewBox="0 0 169.12 140.65"><defs><style>.f{fill:#ead0d0;}.g{fill:#fcb9b9;}.h{fill:#fff;}.i{fill:#6b3d34;}.j{fill:none;stroke:#3f2a25;stroke-linecap:round;stroke-linejoin:round;stroke-width:.5px;}.k{fill:#eab5a7;}.l{fill:#7f4d40;}.m{fill:#bc7171;}.n{fill:#472b28;}.o{fill:#eaa0a0;}.p{fill:#b27967;}.q{fill:#d17e75;}.r{fill:#935d51;}.s{fill:#e08f82;}</style></defs><g id="a"/><g id="b"><path class="m" d="M84.15,76.9c-.57,0-1.15-.04-1.72-.08-7.15-.58-14.01-3.99-13.22-10.21,.99-7.87,3.99-18.09,15.41-18.18,10.5-.08,14.19,9.76,15.3,17.62,.64,4.51-3.41,8.11-8.64,9.81"/><path class="m" d="M89.34,49.15c2.57-2.35,6.26-7.09,9.54-13.03,4.1-7.41,9.53-10.71,11.54-9.79,2.69,1.24,3,12.78-3.49,19.54-3.92,4.09-8.93,5.88-12.03,7.2"/><path class="m" d="M93,51.19c1.89-1.5,4.54-4.13,5.95-8.28,1.55-4.56,3.24-8.08,5.3-11.38"/><path class="m" d="M79.94,49.13c-1.52-3.11-2.88-8.3-3.7-15.16-1-8.41-4.79-13.51-7-13.41-2.96,.13-7.59,10.71-4.13,19.41,2.51,6.31,7.6,10.13,9.53,12.47"/><path class="m" d="M72.98,27.69c.67,3.84,.91,7.73,.63,12.54-.3,5.16,1.63,8.75,2.84,10.66"/><path class="m" d="M88.66,66.19c-.64-1.53,1.19-5.69,3.13-6.16,1.73-.41,4.27,2.8,3.5,4.94-.77,2.14-6.01,2.7-6.63,1.22Z"/><path class="m" d="M89.95,61.55c1.85-1.51,5.73,4.33,1.96,5.4"/><path class="m" d="M79.28,66.4c.54-1.57-1.55-5.6-3.52-5.94-1.75-.3-4.08,3.07-3.18,5.15,.9,2.09,6.17,2.31,6.7,.79Z"/><path class="m" d="M77.71,61.84c-1.94-1.39-5.44,4.69-1.61,5.51"/><path class="m" d="M87.97,55.29c-.17-.21,.19-1.03,.91-1.25,.55-.17,1.21,.04,1.24,.29,.06,.45-1.89,1.3-2.16,.96Z"/><path class="m" d="M83.69,68.49c.82-.05,1.34-.56,1.16-1.02-.14-.34-2.1-.08-2.28,.15-.2,.25,.49,.9,1.12,.86Z"/><path class="m" d="M83.71,70.47c.09-.69,.07-1.72,0-1.98"/><ellipse class="m" cx="83.74" cy="72.11" rx="1.21" ry="1.64"/><path class="m" d="M84.47,70.8c.03,.12,.06,.26,.06,.41,0,.61-.35,1.1-.79,1.1s-.79-.49-.79-1.1c0-.14,.02-.28,.06-.41"/><path class="m" d="M83.63,70.48c-.05,.6,.16,1.31,.11,1.83"/><path class="m" d="M95.6,94.4c.52,2.38,1.05,5.58,.65,9.46-.77,7.35-1.8,16.2-3.26,16.85-1.48,.65-2.52,.91-3.96,.09-1.01-.58-.36-11.31-1.53-11.92-1.06-.55-2.76-.29-3.48-.08-1.5,.44-.03,11.67-1.17,12.28-1.4,.76-2.88,.41-3.88-.04-1.2-.54-1.17-1.95-4.32-16.85-1.23-5.82,2.03-14.69,3.37-19.15"/><path class="m" d="M78.55,81.63c-2.84,3.15-6.96,9.35-11.99,12.07-5.33,2.89-6.38,5.67-5.88,7.09,.64,1.81,5.62,2.47,9.15,1.05,3.11-1.25,4.26-3.35,4.87-4.43"/><path class="m" d="M60.59,99.78c1.34-.9,2.08-1.34,3.63-1.81"/><path class="m" d="M62.83,102.27c1.52-.53,2.11-.85,3.21-1.72"/><path class="m" d="M97.51,94.21c-2.01,2.01-11.19-5.33-12.4-9.54-1.32-4.56-1.55-11.03,.79-12.18,1.57-.78,3.64,.94,5.02,2.79,1.58,2.1,.36,4.25,1.45,7.09,1.91,4.97,7.8,9.17,5.13,11.84Z"/><path class="m" d="M85.68,72.62c1.87,2.04,3.09,3.9,3.34,6.54"/><path class="m" d="M88.91,73.2c1,1.41,1.91,3.28,1.93,4.79"/><g><path class="m" d="M111.85,28.93c.93,4.06-.1,11.84-4.97,16.91-3.91,4.08-8.91,5.87-12,7.18-.57-.68-1.2-1.31-1.89-1.87,.25-.2,.51-.42,.79-.66s.56-.5,.85-.79c1.92,.92,3.03,1.51,7.52-1.4,3.59-2.33,10.61-14.47,9.67-19.37h.03Z"/><path class="m" d="M111.82,28.94c.94,4.9-6.08,17.04-9.67,19.37-4.49,2.91-5.61,2.32-7.52,1.4,1.57-1.56,3.27-3.78,4.3-6.81,1.55-4.55,3.23-8.06,5.29-11.35,1.2-2.12,4.61-4.9,6.48-4.86l.06-.06c.48,.44,.86,1.25,1.1,2.31h-.03Z"/><path class="m" d="M110.69,26.67c-1.87-.04-5.28,2.74-6.48,4.86-2.06,3.3-3.74,6.8-5.29,11.35-1.03,3.03-2.73,5.25-4.3,6.81-.29,.28-.57,.55-.85,.79l-.09-.1c-2.49-1.29,.96-6.84,2.46-9.77,.91-1.4,1.82-2.91,2.7-4.51,4.09-7.39,9.51-10.69,11.51-9.77,.14,.06,.27,.15,.39,.27l-.06,.06Z"/><path class="m" d="M97.85,68.23c.02,.21-.09,.42-.29,.6,.15-.31,.23-.61,.26-.73,.02,.04,.03,.08,.03,.13Z"/><path class="m" d="M97.81,68.1c-.07,.25-.16,.49-.26,.73h0c-.28,.25-.75,.44-1.29,.51-.94,.11-1.75-.2-1.81-.7-.06-.5,.65-1,1.59-1.11,.86-.11,1.6,.15,1.77,.57Z"/><path class="m" d="M95.58,94.25c-.47-.13-1-.35-1.56-.64-3.44-1.78-8.07-6.17-8.91-9.06-.57-1.95-.93-4.26-.98-6.34,0-.49,0-.96,.02-1.41,.11-1.99,.57-3.61,1.52-4.26,1.61,1.76,2.74,3.38,3.17,5.48-1.45,.49-2.84,.97-2.43,2.06,.27,.71,2.06,.3,4.01,.52h.01s.09,.01,.13,.02h0c.43,.18,.78,1.6,1.5,3.21,.67,1.49,1.73,3.1,2.74,4.3,1.39,1.63,3.51,4.92,1.55,6.29h0c-.24-.02-.51-.06-.79-.15Z"/><path class="m" d="M94.91,62.2c.46,.87,.66,1.87,.36,2.69-.39,1.07-1.89,1.75-3.38,1.97h0c2.44-.69,1.66-3.39,.31-4.79,.95-.25,1.92-.22,2.7,.13Z"/><path class="m" d="M83.7,68.4c.82-.05,1.34-.56,1.16-1.01-.04-.1-.23-.15-.49-.16-.63-.03-1.66,.15-1.79,.31-.19,.23,.38,.8,.96,.86,.05,0,.1,0,.15,0Zm4.96-2.29c.31,.74,1.76,.97,3.24,.75,1.49-.22,2.99-.9,3.38-1.97,.3-.83,.1-1.82-.36-2.69-.72-1.38-2.08-2.48-3.13-2.23-.66,.16-1.3,.74-1.84,1.5-1.01,1.41-1.65,3.44-1.33,4.5h0c.02,.05,.03,.1,.05,.14Zm-5.02,4.27c-.23,.02-.45,.14-.62,.33-.29,.3-.48,.77-.48,1.3,0,.9,.54,1.63,1.21,1.63s1.21-.73,1.21-1.63c0-.53-.19-1-.48-1.3-.2-.21-.45-.34-.73-.34-.04,0-.07,0-.11,0Zm-7.16-19.54c.28-.21,.58-.4,.89-.58,.79-.48,1.65-.87,2.59-1.17,1.38-.44,2.93-.7,4.67-.71,1.75-.01,3.31,.25,4.7,.74,1.38,.48,2.59,1.18,3.66,2.04,.69,.56,1.32,1.19,1.89,1.87,.02,.02,.03,.03,.04,.05l-.04,.03c2.77,3.65,4.36,10.4,2.93,14.99-.17-.42-.92-.67-1.77-.57-.94,.11-1.65,.61-1.59,1.11,.06,.5,.87,.81,1.81,.7,.54-.07,1.01-.26,1.29-.51-.09,.23-.19,.44-.3,.66-1.34,2.61-3.69,4.43-6.4,5.6-.57-.74-1.24-1.45-1.94-1.99-1.01-.77-2.09-1.16-3-.7-.08,.04-.15,.08-.23,.13-.95,.66-1.42,2.28-1.52,4.26-.57,0-1.14-.04-1.71-.08-6.2-.5-12.18-3.14-13.12-7.9-.14-.71-.17-1.48-.07-2.29,.03-.28,.07-.57,.11-.86,.65-4.59,2.04-9.8,5.37-13.29,.53-.55,1.1-1.06,1.73-1.52Zm2.8,15.54s.02-.05,.03-.07c.36-1.03-.43-3.14-1.58-4.55-.58-.73-1.27-1.27-1.93-1.38-1.04-.18-2.28,.94-2.93,2.31-.44,.93-.61,1.99-.24,2.83,.45,1.04,2,1.62,3.5,1.75,1.44,.12,2.83-.18,3.15-.88Zm8.69-11.15c.27,.34,2.21-.5,2.15-.95-.03-.25-.69-.46-1.24-.29-.72,.22-1.08,1.04-.91,1.25Zm-1.5,9.73c0-.67-5.61-.02-5.67,.63-.05,.49,1.43,.72,2.58,.72,1.37,0,3.1-.82,3.09-1.35Zm-6.56-5.63c.14-.4,0-1.23-.64-1.53-.54-.25-1.26-.03-1.35,.29-.14,.51,1.19,1.53,1.74,1.47,.02,0,.04,0,.06,0,.03,0,.05-.02,.07-.03,.06-.04,.1-.11,.13-.2Zm-4.91,10.26c0-.5-.77-.91-1.72-.91s-1.72,.41-1.72,.91,.77,.91,1.72,.91,1.72-.41,1.72-.91Z"/><path class="m" d="M96.23,103.68c-.77,7.34-1.79,16.17-3.25,16.8-.67,.29-1.25,.51-1.81,.58,2.44-.72,3.4-10.65,3.53-11.86,.73-6.78,.12-13.54-.67-15.6,.56,.29,1.08,.51,1.56,.64,.52,2.37,1.05,5.56,.65,9.43Z"/><path class="m" d="M96.14,40.62c-1.49,2.92-4.94,8.47-2.46,9.77l.09,.1c-.28,.24-.54,.46-.79,.66-1.06-.86-2.27-1.56-3.66-2.04,1.88-1.71,4.34-4.7,6.81-8.49Z"/><path class="m" d="M94.91,62.2c-.79-.34-1.76-.38-2.7-.13-.73-.75-1.62-1.12-2.26-.6,.54-.76,1.18-1.34,1.84-1.5,1.05-.25,2.41,.85,3.13,2.23Z"/><path class="m" d="M91.49,112.62c.88,0,1.59,.42,1.59,.94s-.71,.94-1.59,.94-1.59-.42-1.59-.94,.71-.94,1.59-.94Z"/><path class="m" d="M90.78,77.22c.37-.22,.66-.47,.79-.78,.53,1.71-.07,3.54,.8,5.81,1.91,4.96,7.78,9.15,5.12,11.81-.26,.26-.64,.36-1.11,.34,1.97-1.37-.16-4.66-1.55-6.29-1.01-1.19-2.07-2.81-2.74-4.3-.72-1.61-1.08-3.04-1.5-3.21h0s-.09-.03-.13-.02h-.01c-1.96-.23-3.75,.19-4.01-.52-.41-1.09,.98-1.57,2.43-2.06,.69-.23,1.39-.48,1.92-.78Z"/><path class="m" d="M92.21,62.08c1.35,1.4,2.13,4.1-.31,4.79h0c-1.48,.22-2.93-.01-3.24-.75-.02-.04-.03-.09-.05-.14h0c.36-2.14,1.94-3.46,3.6-3.9Z"/><path class="m" d="M90.85,75.08c2.71-1.16,5.06-2.99,6.4-5.6,.11-.21,.21-.43,.3-.66h0c.21-.18,.32-.39,.29-.6,0-.04-.02-.09-.03-.13h0c1.43-4.59-.16-11.34-2.93-14.99l.04-.03c2.79,3.36,4.2,8.02,4.87,12.22,.03,.22,.07,.44,.1,.66,.63,4.5-3.4,8.09-8.61,9.79-.1-.19-.22-.37-.36-.56-.02-.03-.05-.06-.07-.09Z"/><path class="m" d="M91.57,76.44c-.14,.31-.42,.57-.79,.78-.22-1.37-1.01-2.92-1.87-4.12h0c.7,.53,1.37,1.24,1.94,1.98,.02,.03,.05,.06,.07,.09,.14,.19,.26,.37,.36,.56,.12,.23,.22,.46,.29,.7h0Z"/><path class="m" d="M89.95,61.47c.65-.52,1.54-.15,2.26,.6-1.66,.44-3.24,1.76-3.6,3.9-.32-1.06,.33-3.09,1.33-4.5Z"/><path class="m" d="M88.91,73.1c.86,1.21,1.65,2.76,1.87,4.12-.53,.31-1.23,.55-1.92,.78-.44-2.1-1.57-3.73-3.17-5.48,.07-.05,.15-.1,.23-.13,.91-.45,1.99-.06,3,.7h0Z"/><path class="m" d="M90.12,54.29c.06,.45-1.88,1.29-2.15,.95-.16-.21,.19-1.03,.91-1.25,.55-.17,1.21,.04,1.24,.29Z"/><path class="m" d="M80.8,65.6c.06-.65,5.67-1.3,5.67-.63,0,.53-1.72,1.35-3.09,1.35-1.15,0-2.62-.23-2.58-.72Z"/><path class="m" d="M83.75,70.38c.28,0,.53,.12,.73,.34,.03,.12,.06,.26,.06,.4,0,.61-.35,1.1-.78,1.1,.05-.52-.16-1.22-.11-1.82,.03,0,.07,0,.11,0Z"/><path class="m" d="M81.59,113.56c0-.57-.68-1.03-1.53-1.03s-1.53,.46-1.53,1.03,.69,1.03,1.53,1.03,1.53-.46,1.53-1.03Zm-3.03-32.03s0,0,.01-.01c.16-.22,.34-.36,.44-.41,1.21-.66,2.26-.97,3.09-1.53,.37-.25,.49-.83,.49-1.48,.53,.27,1.05,.24,1.54,.11h0c.05,2.09,.41,4.39,.98,6.34,.83,2.9,5.46,7.29,8.91,9.06,.79,2.06,1.4,8.82,.67,15.6-.13,1.21-1.09,11.14-3.53,11.86-.69,.09-1.35-.04-2.14-.49-1.01-.58-.36-11.29-1.53-11.89-1.06-.55-2.75-.29-3.47-.08-2.48-.21-1.41,5.23-1.75,9.34-.11,1.29,.2,2.62-2.29,3.21-.36-.09-.7-.21-.99-.34-1.2-.53-1.17-1.94-4.31-16.81-.42-1.99-.32-4.35,.06-6.76,.72-4.6,2.43-9.42,3.3-12.35-.89,1.17-2.82,9.07-6.59,13.42-.05-.79-.3-1.58-.82-2.18-2.03-2.35-5-1.72-6.35-1.1l-.02-.04c.67-.48,1.46-.97,2.36-1.46,5.01-2.71,9.11-8.89,11.94-12.03Zm14.52,32.03c0-.52-.71-.94-1.59-.94s-1.59,.42-1.59,.94,.71,.94,1.59,.94,1.59-.42,1.59-.94Z"/><path class="m" d="M84.16,76.79c-.02,.45-.03,.93-.02,1.41h0c-.49,.13-1.01,.16-1.54-.11,0-.45-.06-.94-.15-1.38,.57,.05,1.14,.07,1.71,.08Z"/><path class="m" d="M82.28,117.95c.35-4.12-.73-9.55,1.75-9.34-1.49,.44-.03,11.64-1.17,12.25-.99,.53-2.01,.52-2.88,.3,2.49-.59,2.18-1.92,2.29-3.21Z"/><path class="m" d="M83.55,68.4c.77-.03,.96-.91,.83-1.17,.25,.01,.44,.06,.49,.16,.18,.45-.34,.96-1.16,1.01-.05,0-.1,0-.15,0Z"/><path class="m" d="M84.37,67.23c.14,.26-.06,1.13-.83,1.17-.58-.06-1.15-.63-.96-.86,.13-.16,1.16-.34,1.79-.31Z"/><path class="m" d="M82.96,71.12c0-.14,.02-.28,.06-.4,.17-.19,.39-.3,.62-.33-.05,.6,.15,1.3,.11,1.82-.44,0-.78-.49-.78-1.1Z"/><path class="m" d="M82.96,71.12c0,.61,.35,1.1,.78,1.1s.78-.49,.78-1.1c0-.14-.02-.28-.06-.4,.29,.3,.48,.77,.48,1.3,0,.9-.54,1.63-1.21,1.63s-1.21-.73-1.21-1.63c0-.53,.19-1,.48-1.3-.04,.12-.06,.26-.06,.4Z"/><path class="m" d="M80.06,112.53c.84,0,1.53,.46,1.53,1.03s-.68,1.03-1.53,1.03-1.53-.46-1.53-1.03,.69-1.03,1.53-1.03Z"/><path class="m" d="M79.31,66.32s-.02,.05-.03,.07c-.37-2.18-2.05-3.48-3.78-3.87,.68-.8,1.55-1.23,2.23-.75,1.14,1.41,1.93,3.51,1.58,4.55Z"/><path class="m" d="M75.5,62.52c1.72,.39,3.41,1.69,3.78,3.87-.32,.7-1.72,1-3.15,.88h0c-2.48-.54-1.88-3.27-.62-4.75Z"/><path class="m" d="M73.64,32.9c-.12-1.79-.33-3.5-.62-5.19-.4-2.21-1.76-6.08-3.71-7.12,1.31-.04,3.16,1.74,4.67,4.94,1.22,3.14,1.81,7.32,1.9,9.31,.42,9.47,2.61,14.89,1.49,15.41-.31,.18-.6,.38-.89,.58-1.21-1.9-3.13-5.48-2.83-10.63,.15-2.67,.15-5.06,0-7.32Z"/><path class="m" d="M77.73,61.77c-.68-.49-1.55-.05-2.23,.75-.93-.21-1.87-.15-2.63,.18,.65-1.37,1.89-2.49,2.93-2.31,.66,.11,1.35,.66,1.93,1.38Z"/><path class="m" d="M69.88,101.68c-3.17,1.27-7.49,.87-8.8-.53h0c-.15-.16-.26-.33-.32-.52-.1-.29-.14-.63-.09-1.01,.14-1.2,1.12-2.84,3.59-4.6l.02,.04c1.35-.63,4.32-1.25,6.35,1.1,.52,.61,.77,1.39,.82,2.18,3.77-4.35,5.7-12.26,6.59-13.42-.88,2.93-2.58,7.74-3.3,12.35-.56,1-1.58,2.86-4.17,4.12-.22,.11-.44,.21-.68,.3Z"/><path class="m" d="M76.13,67.27h0c-1.5-.12-3.05-.7-3.5-1.74-.36-.84-.2-1.9,.24-2.83,.76-.33,1.7-.39,2.63-.18-1.25,1.48-1.85,4.22,.62,4.75Z"/><path class="m" d="M76.27,33.97c.82,6.84,2.17,12.01,3.69,15.12-.94,.3-1.8,.7-2.59,1.17,1.12-.53-1.07-5.94-1.49-15.41-.09-1.99-.68-6.17-1.9-9.31,1.03,2.19,1.89,5.04,2.29,8.44Z"/><path class="m" d="M73.29,68.68c.95,0,1.72,.41,1.72,.91s-.77,.91-1.72,.91-1.72-.41-1.72-.91,.77-.91,1.72-.91Z"/><path class="m" d="M74.32,51.89c-2.15-2.35-6.8-6.02-9.15-11.93-3.45-8.68,1.17-19.23,4.12-19.37h.02c1.95,1.03,3.31,4.91,3.71,7.12,.29,1.7,.51,3.4,.62,5.19,.09,4.14-1.14,10.27-.23,13.46,.28,.99,1.33,4.7,.92,5.51l-.02,.02Z"/><path class="m" d="M73.42,46.37c-.91-3.2,.32-9.32,.23-13.46,.15,2.26,.16,4.64,0,7.32-.3,5.15,1.62,8.73,2.83,10.63-.63,.46-1.21,.97-1.73,1.52l-.04-.04c-.12-.14-.24-.29-.39-.44l.02-.02c.41-.81-.64-4.51-.92-5.51Z"/></g><circle class="m" cx="91.35" cy="62.4" r=".29"/><circle class="m" cx="76.5" cy="62.79" r=".29"/></g><g id="c"><path class="j" d="M84.15,76.9c-.57,0-1.15-.04-1.72-.08-7.15-.58-14.01-3.99-13.22-10.21,.99-7.87,3.99-18.09,15.41-18.18,10.5-.08,14.19,9.76,15.3,17.62,.64,4.51-3.41,8.11-8.64,9.81"/><path class="j" d="M89.34,49.15c2.57-2.35,6.26-7.09,9.54-13.03,4.1-7.41,9.53-10.71,11.54-9.79,2.69,1.24,3,12.78-3.49,19.54-3.92,4.09-8.93,5.88-12.03,7.2"/><path class="j" d="M93,51.19c1.89-1.5,4.54-4.13,5.95-8.28,1.55-4.56,3.24-8.08,5.3-11.38"/><path class="j" d="M79.94,49.13c-1.52-3.11-2.88-8.3-3.7-15.16-1-8.41-4.79-13.51-7-13.41-2.96,.13-7.59,10.71-4.13,19.41,2.51,6.31,7.6,10.13,9.53,12.47"/><path class="j" d="M72.98,27.69c.67,3.84,.91,7.73,.63,12.54-.3,5.16,1.63,8.75,2.84,10.66"/><path class="j" d="M88.66,66.19c-.64-1.53,1.19-5.69,3.13-6.16,1.73-.41,4.27,2.8,3.5,4.94-.77,2.14-6.01,2.7-6.63,1.22Z"/><path class="j" d="M89.95,61.55c1.85-1.51,5.73,4.33,1.96,5.4"/><path class="j" d="M79.28,66.4c.54-1.57-1.55-5.6-3.52-5.94-1.75-.3-4.08,3.07-3.18,5.15,.9,2.09,6.17,2.31,6.7,.79Z"/><path class="j" d="M77.71,61.84c-1.94-1.39-5.44,4.69-1.61,5.51"/><path class="j" d="M79.76,59.6c.3-.21,.26-1.37-.52-1.73-.54-.25-1.26-.04-1.35,.29-.15,.56,1.45,1.73,1.87,1.44Z"/><path class="j" d="M87.97,55.29c-.17-.21,.19-1.03,.91-1.25,.55-.17,1.21,.04,1.24,.29,.06,.45-1.89,1.3-2.16,.96Z"/><path class="j" d="M83.69,68.49c.82-.05,1.34-.56,1.16-1.02-.14-.34-2.1-.08-2.28,.15-.2,.25,.49,.9,1.12,.86Z"/><path class="j" d="M83.71,70.47c.09-.69,.07-1.72,0-1.98"/><path class="j" d="M69.33,65.74c-3.89-1.57-9.02-1.82-12.54-.95"/><path class="j" d="M59.35,70.47c3.47-1.22,6.99-1.82,9.93-1.58"/><path class="j" d="M99.79,65.38c3.89-1.57,9.02-1.82,12.54-.95"/><path class="j" d="M109.77,70.11c-3.47-1.22-6.99-1.82-9.93-1.58"/><ellipse class="j" cx="83.74" cy="72.11" rx="1.21" ry="1.64"/><path class="j" d="M84.47,70.8c.03,.12,.06,.26,.06,.41,0,.61-.35,1.1-.79,1.1s-.79-.49-.79-1.1c0-.14,.02-.28,.06-.41"/><path class="j" d="M83.63,70.48c-.05,.6,.16,1.31,.11,1.83"/><path class="j" d="M95.6,94.4c.52,2.38,1.05,5.58,.65,9.46-.77,7.35-1.8,16.2-3.26,16.85-1.48,.65-2.52,.91-3.96,.09-1.01-.58-.36-11.31-1.53-11.92-1.06-.55-2.76-.29-3.48-.08-1.5,.44-.03,11.67-1.17,12.28-1.4,.76-2.88,.41-3.88-.04-1.2-.54-1.17-1.95-4.32-16.85-1.23-5.82,2.03-14.69,3.37-19.15"/><path class="j" d="M82.43,76.81c.2,1.09,.29,2.44-.35,2.87-.83,.56-1.89,.88-3.1,1.54-.11,.06-.31,.22-.48,.47"/><path class="j" d="M78.55,81.63c-2.84,3.15-6.96,9.35-11.99,12.07-5.33,2.89-6.38,5.67-5.88,7.09,.64,1.81,5.62,2.47,9.15,1.05,3.11-1.25,4.26-3.35,4.87-4.43"/><path class="j" d="M60.59,99.78c1.34-.9,2.08-1.34,3.63-1.81"/><path class="j" d="M62.83,102.27c1.52-.53,2.11-.85,3.21-1.72"/><path class="j" d="M97.51,94.21c-2.01,2.01-11.19-5.33-12.4-9.54-1.32-4.56-1.55-11.03,.79-12.18,1.57-.78,3.64,.94,5.02,2.79,1.58,2.1,.36,4.25,1.45,7.09,1.91,4.97,7.8,9.17,5.13,11.84Z"/><path class="j" d="M85.68,72.62c1.87,2.04,3.09,3.9,3.34,6.54"/><path class="j" d="M88.91,73.2c1,1.41,1.91,3.28,1.93,4.79"/><g><path class="k" d="M79.28,57.86c.58,.27,.74,1,.65,1.41-.01,.05-.03,.09-.04,.13-.02,.04-.04,.07-.06,.1,0,.01-.02,.02-.04,.03-.07,.05-.16,.06-.28,.04-.03,0-.07-.02-.11-.02,0,0,0,0-.02,0-.6-.19-1.53-.97-1.41-1.4,.09-.32,.79-.53,1.31-.28Z"/><path class="o" d="M111.85,28.93c.93,4.06-.1,11.84-4.97,16.91-3.91,4.08-8.91,5.87-12,7.18-.57-.68-1.2-1.31-1.89-1.87,.25-.2,.51-.42,.78-.66,.28-.24,.56-.51,.85-.79,1.91,.92,3.03,1.5,7.52-1.4,3.59-2.33,10.61-14.47,9.68-19.37h.03Z"/><path class="g" d="M111.82,28.94c.94,4.9-6.08,17.04-9.68,19.37-4.48,2.9-5.61,2.32-7.52,1.4,1.57-1.56,3.27-3.78,4.3-6.81,1.55-4.55,3.23-8.06,5.29-11.35,1.2-2.12,4.61-4.9,6.47-4.86l.06-.06c.48,.44,.86,1.25,1.1,2.32h-.03Z"/><path class="p" d="M94.63,49.7c-.29,.29-.57,.55-.85,.79l-.09-.11c-2.48-1.29,.95-6.81,2.44-9.74,.92-1.41,1.83-2.93,2.72-4.53,4.09-7.39,9.51-10.69,11.51-9.77,.14,.06,.27,.15,.39,.27l-.06,.06c-1.86-.04-5.28,2.74-6.47,4.86-2.06,3.3-3.74,6.8-5.29,11.35-1.03,3.03-2.73,5.25-4.3,6.81Z"/><path class="r" d="M99.8,65.29c.03,.22,.07,.44,.1,.66,.63,4.5-3.4,8.09-8.62,9.79-.1-.19-.22-.38-.36-.57-.02-.03-.05-.06-.07-.09,2.71-1.16,5.06-2.99,6.4-5.6,.11-.21,.21-.43,.3-.66h0c.21-.18,.32-.39,.29-.6,0-.04-.02-.08-.03-.12h0c1.43-4.6-.16-11.35-2.93-15l.04-.03c2.79,3.36,4.21,8.02,4.87,12.22Z"/><path class="q" d="M97.85,68.23c.02,.21-.09,.42-.29,.6,.15-.3,.23-.6,.26-.72,.02,.04,.02,.08,.03,.12Z"/><path class="p" d="M84.37,67.24c-.63-.03-1.66,.15-1.79,.31-.19,.23,.38,.8,.96,.86,.05,0,.1,0,.15,0,.82-.05,1.34-.56,1.16-1.01-.04-.1-.23-.15-.49-.16Zm-.73,3.16c-.23,.02-.44,.14-.62,.32-.29,.3-.48,.77-.48,1.3,0,.9,.54,1.63,1.21,1.63s1.21-.73,1.21-1.63c0-.53-.19-1-.48-1.3h0c-.2-.21-.46-.33-.73-.33-.04,0-.07,0-.11,0Zm-4.36-4s.02-.05,.03-.07c.36-1.03-.43-3.14-1.58-4.55-.59-.73-1.27-1.27-1.93-1.38-1.04-.18-2.28,.94-2.93,2.31h0c-.44,.93-.61,1.99-.24,2.83,.45,1.04,1.99,1.62,3.49,1.74h0c1.44,.12,2.83-.18,3.15-.88Zm15.61-13.28c2.77,3.65,4.36,10.4,2.93,14.99h0c-.17-.42-.92-.67-1.77-.57-.94,.11-1.65,.61-1.59,1.11,.06,.5,.87,.81,1.81,.7,.54-.07,1.01-.26,1.29-.51-.09,.23-.19,.44-.3,.66-1.34,2.61-3.69,4.43-6.4,5.6-.57-.74-1.23-1.45-1.93-1.98h0c-1.01-.77-2.09-1.16-3-.71-.08,.04-.15,.08-.22,.13-.95,.65-1.42,2.28-1.53,4.27-.57,0-1.14-.04-1.71-.08-7.14-.57-13.97-3.98-13.19-10.19,.04-.28,.07-.57,.11-.86,.66-4.59,2.04-9.8,5.37-13.29,.53-.55,1.1-1.06,1.73-1.52,.28-.21,.58-.4,.89-.59,.79-.47,1.65-.87,2.6-1.17,1.38-.44,2.93-.7,4.67-.71,1.75-.01,3.31,.25,4.7,.74,1.38,.48,2.59,1.18,3.66,2.04,.69,.56,1.32,1.19,1.89,1.87,.01,.02,.03,.03,.04,.05l-.04,.03Zm.4,11.79c.3-.83,.1-1.82-.36-2.7h0c-.72-1.38-2.08-2.48-3.13-2.23-.66,.16-1.3,.74-1.84,1.5-1,1.42-1.64,3.44-1.33,4.5,.02,.05,.03,.1,.05,.14,.31,.74,1.76,.97,3.24,.75,1.49-.22,2.99-.9,3.38-1.97Zm-7.31-9.66c.27,.34,2.21-.5,2.15-.95-.03-.25-.7-.46-1.24-.29-.72,.22-1.08,1.04-.91,1.25Zm-1.5,9.73c0-.66-5.61-.02-5.67,.63-.04,.49,1.43,.72,2.58,.72,1.37,0,3.09-.83,3.09-1.35Zm-6.54-5.69c.1-.42-.06-1.18-.66-1.46-.54-.25-1.26-.04-1.35,.29-.12,.44,.84,1.25,1.46,1.44,0,0,.01,0,.02,0,.04,0,.07,.02,.11,.02,.12,.02,.21,0,.28-.04,.01,0,.03-.02,.04-.03,.02-.02,.05-.06,.06-.1,.02-.04,.03-.08,.04-.13Zm-4.93,10.32c0-.5-.77-.91-1.71-.91s-1.72,.41-1.72,.91,.77,.91,1.72,.91,1.71-.41,1.71-.91Z"/><path class="s" d="M97.81,68.09c-.07,.25-.16,.49-.26,.73h0c-.28,.25-.75,.44-1.29,.51-.94,.11-1.75-.2-1.81-.7-.06-.5,.65-1,1.59-1.11,.85-.11,1.6,.15,1.77,.57Z"/><path class="r" d="M90.59,80.6h0s-.08-.02-.13-.02c0,0,0,0-.02,0-1.96-.22-3.75,.19-4.01-.52-.41-1.09,.98-1.57,2.43-2.06,.69-.23,1.39-.48,1.92-.78,.37-.22,.66-.47,.79-.78,.53,1.71-.07,3.54,.8,5.81,1.91,4.96,7.78,9.15,5.12,11.81-.26,.26-.64,.36-1.11,.34,1.97-1.37-.16-4.66-1.55-6.29-1.02-1.19-2.08-2.81-2.74-4.29-.73-1.61-1.08-3.04-1.5-3.21Z"/><path class="p" d="M90.46,80.59s.08,0,.13,.01h0c.43,.18,.78,1.6,1.5,3.22,.66,1.48,1.72,3.1,2.74,4.29,1.38,1.63,3.51,4.92,1.55,6.29h0c-.24-.02-.51-.06-.79-.15-.47-.13-1-.35-1.56-.64-3.44-1.78-8.07-6.17-8.91-9.06-.57-1.96-.93-4.26-.98-6.34,0-.49,0-.96,.02-1.41,.11-1.99,.58-3.62,1.53-4.27,1.6,1.76,2.73,3.38,3.17,5.48-1.45,.49-2.84,.97-2.43,2.06,.27,.71,2.06,.3,4.01,.52,0,0,0,0,.02,0Z"/><path class="r" d="M95.58,94.25c.52,2.37,1.05,5.56,.65,9.43-.77,7.34-1.79,16.17-3.25,16.8-.67,.29-1.25,.51-1.82,.58,2.44-.72,3.4-10.66,3.53-11.86,.73-6.77,.12-13.54-.66-15.6,.56,.29,1.08,.51,1.56,.64Z"/><path class="h" d="M94.92,62.2c.46,.88,.66,1.87,.36,2.7-.39,1.07-1.89,1.75-3.38,1.97h0c2.44-.69,1.67-3.39,.31-4.79,.94-.25,1.92-.22,2.7,.13h0Z"/><path class="p" d="M78.57,81.52c.16-.22,.34-.36,.44-.41,1.21-.66,2.26-.97,3.09-1.53,.37-.25,.49-.83,.49-1.48,.53,.27,1.05,.24,1.54,.11,.05,2.08,.41,4.39,.98,6.34,.83,2.9,5.47,7.29,8.91,9.06,.79,2.06,1.39,8.82,.66,15.6-.13,1.21-1.08,11.14-3.53,11.86-.68,.09-1.35-.04-2.14-.49-1.01-.58-.36-11.29-1.53-11.89-1.06-.55-2.75-.29-3.47-.08-2.48-.21-1.41,5.23-1.75,9.34-.11,1.29,.2,2.62-2.29,3.21h0c-.36-.09-.7-.21-.99-.34-1.2-.53-1.17-1.94-4.31-16.81-.42-1.99-.32-4.35,.06-6.76,.72-4.61,2.43-9.42,3.3-12.35h0c-.89,1.17-2.82,9.07-6.59,13.42-.05-.79-.3-1.58-.82-2.18-2.03-2.35-5-1.72-6.35-1.1l-.02-.03c.67-.48,1.46-.97,2.36-1.46,5.01-2.72,9.13-8.9,11.96-12.04Zm14.51,32.05c0-.52-.71-.94-1.59-.94s-1.59,.42-1.59,.94,.71,.94,1.59,.94,1.59-.42,1.59-.94Zm-11.5,0c0-.57-.69-1.03-1.53-1.03s-1.53,.46-1.53,1.03,.68,1.03,1.53,1.03,1.53-.46,1.53-1.03Z"/><path class="r" d="M89.34,49.11c1.87-1.71,4.33-4.68,6.8-8.46-1.5,2.93-4.93,8.45-2.44,9.74l.09,.11c-.27,.24-.53,.46-.78,.66-1.06-.86-2.27-1.56-3.66-2.04Z"/><path class="f" d="M94.91,62.2c-.79-.34-1.76-.38-2.7-.13-.73-.75-1.62-1.12-2.27-.6,.54-.76,1.19-1.35,1.84-1.5,1.05-.25,2.41,.85,3.13,2.23Z"/><ellipse class="r" cx="91.49" cy="113.56" rx="1.59" ry=".94"/><path class="l" d="M92.21,62.07c1.35,1.4,2.13,4.1-.31,4.79h0c-1.48,.22-2.93-.01-3.24-.75-.02-.04-.03-.09-.05-.14,.36-2.13,1.94-3.46,3.6-3.9Z"/><path class="p" d="M91.57,76.44h0c-.14,.32-.42,.57-.79,.78-.22-1.37-1.01-2.91-1.86-4.12,.7,.53,1.37,1.24,1.93,1.98,.02,.03,.05,.06,.07,.09,.14,.19,.26,.38,.36,.57,.12,.23,.22,.46,.29,.7Z"/><path class="i" d="M89.94,61.48c.65-.53,1.54-.15,2.27,.6-1.66,.44-3.24,1.77-3.6,3.9-.32-1.05,.33-3.08,1.33-4.5Z"/><path class="p" d="M88.92,73.1c.86,1.21,1.64,2.75,1.86,4.12-.53,.31-1.23,.55-1.92,.78-.44-2.1-1.57-3.73-3.17-5.48,.07-.05,.15-.1,.22-.13,.91-.45,1.99-.06,3,.71h0Z"/><path class="k" d="M90.12,54.28c.06,.45-1.89,1.29-2.15,.95-.17-.21,.19-1.03,.91-1.25,.55-.17,1.21,.04,1.24,.29Z"/><path class="r" d="M80.8,65.59c.06-.65,5.67-1.29,5.67-.63,0,.53-1.72,1.35-3.09,1.35-1.15,0-2.62-.23-2.58-.72Z"/><path class="o" d="M84.86,67.39c.18,.45-.34,.96-1.16,1.01-.05,0-.1,0-.15,0h0c.77-.04,.96-.9,.83-1.17,.26,.01,.44,.06,.49,.16Z"/><path class="n" d="M84.48,70.72c.29,.3,.48,.77,.48,1.3,0,.9-.54,1.63-1.21,1.63s-1.21-.73-1.21-1.63c0-.53,.19-1,.48-1.3-.04,.12-.06,.26-.06,.4,0,.61,.35,1.1,.78,1.1s.78-.49,.78-1.1c0-.14-.02-.28-.06-.4Z"/><path class="f" d="M84.48,70.72c.03,.12,.06,.26,.06,.4,0,.61-.35,1.1-.78,1.1,.05-.52-.16-1.22-.11-1.82,.04,0,.07,0,.11,0,.27,0,.53,.12,.73,.33h0Z"/><path class="g" d="M84.37,67.24c.14,.27-.06,1.13-.83,1.17h0c-.58-.06-1.15-.63-.96-.86,.13-.16,1.16-.34,1.79-.31Z"/><path class="r" d="M84.16,76.79c-.02,.45-.03,.92-.02,1.41-.49,.13-1.01,.15-1.54-.11,0-.45-.06-.94-.15-1.38,.57,.05,1.14,.07,1.71,.08Z"/><path class="r" d="M82.28,117.96c.35-4.12-.73-9.56,1.75-9.34-1.49,.44-.03,11.64-1.17,12.25-.99,.53-2.01,.52-2.88,.3,2.49-.59,2.18-1.92,2.29-3.21Z"/><path class="h" d="M83.64,70.39c-.05,.6,.16,1.3,.11,1.82-.44,0-.78-.49-.78-1.1,0-.14,.02-.28,.06-.4,.17-.18,.39-.3,.62-.32Z"/><path class="r" d="M80.06,112.53c.84,0,1.53,.46,1.53,1.03s-.69,1.03-1.53,1.03-1.53-.46-1.53-1.03,.68-1.03,1.53-1.03Z"/><path class="i" d="M77.73,61.77c1.14,1.41,1.93,3.52,1.58,4.55,0,.02-.02,.05-.03,.07-.37-2.18-2.05-3.48-3.77-3.87,.68-.8,1.55-1.24,2.23-.75Z"/><path class="r" d="M60.66,99.62c.14-1.2,1.12-2.84,3.59-4.6l.02,.03c1.35-.63,4.32-1.25,6.35,1.1,.52,.61,.77,1.39,.82,2.18,3.77-4.35,5.7-12.26,6.59-13.42h0c-.88,2.93-2.58,7.74-3.3,12.35-.56,1-1.59,2.86-4.18,4.12-.22,.11-.44,.21-.68,.3-2.24,.9-5.06,.96-6.99,.43-.79-.22-1.43-.55-1.82-.96-.15-.16-.26-.33-.32-.52-.1-.28-.14-.62-.09-1.01Z"/><path class="r" d="M76.27,33.97c.82,6.84,2.17,12.02,3.69,15.12-.95,.31-1.81,.7-2.6,1.17,1.12-.53-1.07-5.94-1.49-15.41-.09-1.97-.67-6.11-1.87-9.24,1.01,2.18,1.86,5.01,2.26,8.36Z"/><path class="p" d="M73.64,32.89c-.12-1.79-.33-3.49-.62-5.18-.4-2.22-1.77-6.1-3.71-7.12,1.32-.04,3.19,1.76,4.7,5.01h0c1.2,3.14,1.78,7.28,1.87,9.26,.42,9.47,2.61,14.89,1.49,15.41-.31,.19-.6,.38-.89,.59-1.21-1.9-3.13-5.48-2.83-10.63,.15-2.68,.15-5.07,0-7.33Z"/><path class="f" d="M77.73,61.77c-.68-.49-1.55-.05-2.23,.75-.93-.21-1.87-.15-2.63,.18,.65-1.37,1.89-2.49,2.93-2.31,.66,.11,1.34,.66,1.93,1.38Z"/><path class="l" d="M79.28,66.39c-.32,.7-1.71,1-3.15,.88h0c-2.47-.54-1.87-3.27-.61-4.75,1.73,.39,3.4,1.69,3.77,3.87Z"/><path class="o" d="M76.48,50.85c-.63,.46-1.21,.97-1.73,1.52l-.05-.04c-.12-.14-.24-.29-.38-.44l.02-.02c.4-.81-.64-4.51-.92-5.51-.91-3.2,.32-9.33,.23-13.47,.15,2.26,.16,4.65,0,7.33-.3,5.15,1.62,8.73,2.83,10.63Z"/><path class="s" d="M73.29,68.68c.95,0,1.71,.41,1.71,.91s-.77,.91-1.71,.91-1.72-.41-1.72-.91,.77-.91,1.72-.91Z"/><path class="h" d="M72.87,62.7c.76-.33,1.7-.39,2.63-.18-1.26,1.48-1.86,4.21,.61,4.75-1.5-.12-3.04-.7-3.49-1.74-.36-.84-.2-1.89,.24-2.83h0Z"/><path class="g" d="M73.42,46.36c.28,1,1.33,4.7,.92,5.51l-.02,.02c-2.15-2.35-6.8-6.02-9.15-11.93-3.45-8.68,1.17-19.23,4.12-19.37h.02c1.95,1.02,3.31,4.9,3.71,7.12,.29,1.69,.51,3.39,.62,5.18,.09,4.14-1.14,10.28-.23,13.47Z"/></g><circle class="h" cx="91.35" cy="62.4" r=".29"/><circle class="h" cx="76.5" cy="62.79" r=".29"/></g><g id="d"><g id="e"/><path class="j" d="M84.15,76.89c-.57,0-1.15-.04-1.72-.08-7.15-.58-14.01-3.99-13.22-10.21,.99-7.87,3.99-18.09,15.41-18.18,10.5-.08,14.19,9.76,15.3,17.62,.64,4.51-3.41,8.11-8.64,9.81"/><path class="j" d="M89.34,49.15c2.57-2.35,6.26-7.09,9.54-13.03,4.1-7.41,9.53-10.71,11.54-9.79,2.69,1.24,3,12.78-3.49,19.54-3.92,4.09-8.93,5.88-12.03,7.2"/><path class="j" d="M93,51.19c1.89-1.5,4.54-4.13,5.95-8.28,1.55-4.56,3.24-8.08,5.3-11.38"/><path class="j" d="M79.94,49.12c-1.52-3.11-2.88-8.3-3.7-15.16-1-8.41-4.79-13.51-7-13.41-2.96,.13-7.59,10.71-4.13,19.41,2.51,6.31,7.6,10.13,9.53,12.47"/><path class="j" d="M72.98,27.69c.67,3.84,.91,7.73,.63,12.54-.3,5.16,1.63,8.75,2.84,10.66"/><path class="j" d="M88.66,66.19c-.64-1.53,1.19-5.69,3.13-6.16,1.73-.41,4.27,2.8,3.5,4.94-.77,2.14-6.01,2.7-6.63,1.22Z"/><path class="j" d="M89.95,61.54c1.85-1.51,5.73,4.33,1.96,5.4"/><path class="j" d="M79.28,66.39c.54-1.57-1.55-5.6-3.52-5.94-1.75-.3-4.08,3.07-3.18,5.15,.9,2.09,6.17,2.31,6.7,.79Z"/><path class="j" d="M77.71,61.83c-1.94-1.39-5.44,4.69-1.61,5.51"/><path class="j" d="M79.76,59.59c.3-.21,.26-1.37-.52-1.73-.54-.25-1.26-.04-1.35,.29-.15,.56,1.45,1.73,1.87,1.44Z"/><path class="j" d="M87.97,55.29c-.17-.21,.19-1.03,.91-1.25,.55-.17,1.21,.04,1.24,.29,.06,.45-1.89,1.3-2.16,.96Z"/><path class="j" d="M83.69,68.49c.82-.05,1.34-.56,1.16-1.02-.14-.34-2.1-.08-2.28,.15-.2,.25,.49,.9,1.12,.86Z"/><path class="j" d="M83.71,70.46c.09-.69,.07-1.72,0-1.98"/><path class="j" d="M69.33,65.73c-3.89-1.57-9.02-1.82-12.54-.95"/><path class="j" d="M59.35,70.46c3.47-1.22,6.99-1.82,9.93-1.58"/><path class="j" d="M99.79,65.37c3.89-1.57,9.02-1.82,12.54-.95"/><path class="j" d="M109.77,70.11c-3.47-1.22-6.99-1.82-9.93-1.58"/><ellipse class="j" cx="83.74" cy="72.1" rx="1.21" ry="1.64"/><path class="j" d="M84.47,70.8c.03,.12,.06,.26,.06,.41,0,.61-.35,1.1-.79,1.1s-.79-.49-.79-1.1c0-.14,.02-.28,.06-.41"/><path class="j" d="M83.63,70.47c-.05,.6,.16,1.31,.11,1.83"/><path class="j" d="M95.6,94.39c.52,2.38,1.05,5.58,.65,9.46-.77,7.35-1.8,16.2-3.26,16.85-1.48,.65-2.52,.91-3.96,.09-1.01-.58-.36-11.31-1.53-11.92-1.06-.55-2.76-.29-3.48-.08-1.5,.44-.03,11.67-1.17,12.28-1.4,.76-2.88,.41-3.88-.04-1.2-.54-1.17-1.95-4.32-16.85-1.23-5.82,2.03-14.69,3.37-19.15"/><path class="j" d="M82.43,76.81c.2,1.09,.29,2.44-.35,2.87-.83,.56-1.89,.88-3.1,1.54-.11,.06-.31,.22-.48,.47"/><path class="j" d="M78.55,81.63c-2.84,3.15-6.96,9.35-11.99,12.07-5.33,2.89-6.38,5.67-5.88,7.09,.64,1.81,5.62,2.47,9.15,1.05,3.11-1.25,4.26-3.35,4.87-4.43"/><path class="j" d="M60.59,99.77c1.34-.9,2.08-1.34,3.63-1.81"/><path class="j" d="M62.83,102.26c1.52-.53,2.11-.85,3.21-1.72"/><path class="j" d="M97.51,94.2c-2.01,2.01-11.19-5.33-12.4-9.54-1.32-4.56-1.55-11.03,.79-12.18,1.57-.78,3.64,.94,5.02,2.79,1.58,2.1,.36,4.25,1.45,7.09,1.91,4.97,7.8,9.17,5.13,11.84Z"/><path class="j" d="M85.68,72.61c1.87,2.04,3.09,3.9,3.34,6.54"/><path class="j" d="M88.91,73.19c1,1.41,1.91,3.28,1.93,4.79"/></g></svg>