<?xml version="1.0" encoding="UTF-8"?><svg xmlns="http://www.w3.org/2000/svg" viewBox="0 0 336.39 524.48"><defs><style>.e{fill:#ead0d0;}.f{fill:#fcb9b9;}.g{fill:#fff;}.h{fill:#6b3d34;}.i{fill:#eab5a7;}.j{fill:#7f4d40;}.k{fill:#bc7171;}.l{fill:#472b28;}.m{fill:#824f46;}.n{stroke-width:2px;}.n,.o{fill:none;stroke:#3f2a25;stroke-linecap:round;stroke-linejoin:round;}.p{fill:#eaa0a0;}.q{fill:#b27967;}.r{fill:#d17e75;}.s{fill:#935d51;}.t{fill:#e08f82;}</style></defs><g id="a"><path class="n" d="M209.58,194.88h0c14.04,8.1,23.26,23.39,25.25,42.64,.35,3.34,1.28,5.58,2.3,7.65,1.71,3.47,3.7,6.46,3.7,13.35,0,2.35-.75,4.58-2.1,6.67"/><path class="n" d="M143.72,210.76s0,0-.01,0c-4.4,7.59-6.88,16.94-6.88,27.75,0,5.77,.41,10.99,1.33,15.65,1.04,5.2,2.74,9.72,5.24,13.57,6.52,9.97,18.54,15.44,38.97,16.6"/><path class="n" d="M205.2,282.5c-3.47,.75-6.89,1.31-10.11,1.65"/><path class="n" d="M162.85,192.99c5.78-2.52,13.46-4.27,20.43-4.45"/><path class="n" d="M183.28,188.54c3.18-13.25-2.3-38.77-4.47-67.11-1.14-14.87,7.96-34.76,17-33.58,12.11,1.57,33.52,35.05,30.52,61.56-2.62,23.06-14.14,36.19-16.75,45.47h0"/><path class="n" d="M143.71,210.77c-8.33-9.73-26.12-23.66-35.31-39.98-13.09-23.25-6.41-62.43,4.14-68.6,7.86-4.6,23.99,10.18,28.73,24.32,7.39,22.03,14.47,50.53,21.58,66.48"/><path class="n" d="M237.12,245.18c10.33-8.76,25.26-14.51,36.94-15.42"/><path class="n" d="M271.98,249.78c-11.87-.23-22.37,1.36-31.15,5.09"/><path class="n" d="M111.43,256.77c7.51-2.47,17.24-3.47,26.73-2.6"/><path class="n" d="M143.4,267.74c-7.11,1-14.58,3.29-22.34,6.7"/><path class="n" d="M202.85,300.73c-.57,.36-1.15,.75-1.74,1.14"/><path class="n" d="M212.81,325.84c1.09-.01,2.06-.05,2.85-.13,7.52-.77,20.23-7.83,22.43-14.36,.25-.72,.36-1.44,.33-2.14-.09-1.8-1-3.63-2.51-5.35-2.13-2.44-5.45-4.65-9.24-6.21"/><path class="n" d="M169.46,300.73c1.1-4.36,2.17-7.48,2.8-7.94,2.76-2.02,7.04-1.6,8.25-2.89,1.46-1.54,1.63-3.47,1.86-5.56"/><line class="n" x1="235.92" y1="303.86" x2="235.91" y2="303.86"/><path class="n" d="M202.96,331.83c-1.62,13.68-6.03,26.23-10.71,33.08-2.56,3.74-1.04,26.34-2.09,30.39-1.24,4.81-10.43,6.59-13.69,5.05-2.1-.99-6.79-12.01-7.98-17.11v-.02"/><path class="n" d="M195.09,284.15c-.7,2.74-1.18,3.77-.97,5.8,.21,1.91,3.33,2.79,3.87,3.87,1.27,2.55,2.31,5.25,3.12,8.05"/><path class="n" d="M130.16,345.95c-.87,22.88,12.26,52.62,19.89,68.39,1.47,3.03,13.4,3.68,15.75-.1,1.77-2.84,1.86-16.2,2.69-30.98,0-.01,.01-.01,0-.02v-.02"/><path class="n" d="M142.05,322.89c9.9-9.71,23.08-17.2,27.41-22.16"/><path class="n" d="M226.67,297.65c.25-2.37,.98-4.41,3.5-7.35,4.03-4.7,6.99-3.6,10.86-7.44,3.82-3.78,5.65-8.72,4.35-12.52-.41-1.2-1.13-2.29-2.2-3.19-1.17-.98-2.68-1.63-4.45-1.96"/><path class="n" d="M202.85,300.73c.11-4.62-.56-11.89,2.35-18.23"/><path class="n" d="M130.16,345.96c-7.25,5.29-12.4,2.56-12.98,1.18-1.66-3.96,4.17-1.93,2.84-3.72-3.9-5.24-11.28-14.36-3.33-22.99,3.42-3.72,4.67,7.29,5.87,5.28,1.32-2.2-3.36-38.15,15.85-40.89,7.32-1.04,.05,23.77-2.15,29.15-1,2.45,6.18-6.96,8.8-5.58,2.49,1.32-.31,8.23-3.01,14.5"/><path class="n" d="M202.96,331.83c2.95,.35,6.23-1.68,9.85-5.99"/></g><g id="b"><g><path class="k" d="M245.25,270.04c1.3,3.8-.53,8.74-4.35,12.52-3.87,3.84-6.83,2.74-10.86,7.44-2.52,2.94-3.25,4.98-3.5,7.35-4.01-1.65-8.54-2.57-12.77-2.27-2.28,.16-6.41,2.35-11.05,5.35,.11-4.62-.56-11.89,2.35-18.23,13.75-2.98,28.23-9.06,33.53-17.31,1.77,.33,3.28,.98,4.45,1.96,1.07,.9,1.79,1.99,2.2,3.19Z"/><path class="k" d="M162.72,192.69c5.78-2.52,13.45-4.27,20.42-4.45h.01c.51-.01,1.02-.02,1.54-.02,9.28,0,17.63,2.26,24.75,6.36h.01c14.03,8.11,23.25,23.39,25.24,42.64,.93,8.95,6,10,6,21,0,2.35-.75,4.58-2.09,6.67-5.3,8.25-19.78,14.33-33.53,17.31-3.47,.75-6.9,1.31-10.12,1.65-2.98,.3-5.77,.43-8.26,.37-1.53-.04-3.01-.1-4.45-.18-20.44-1.16-32.46-6.62-38.97-16.6-2.51-3.85-4.21-8.37-5.25-13.57-.92-4.66-1.33-9.88-1.33-15.65,0-10.81,2.48-20.16,6.89-27.75-8.33-9.73-26.12-23.66-35.31-39.98-13.1-23.25-6.41-62.43,4.13-68.6,7.87-4.6,24,10.18,28.74,24.32,7.38,22.03,14.47,50.53,21.58,66.48Zm52.29,67.97c-.47,0-.97-.01-1.51-.02-.73-.02-1.53-.01-2.37,.13-.35,.06-.78,.19-1.26,.36-1.33,.48-3.11,1.31-5.07,1.92-.98,.31-2,.57-3.04,.69v.11c.55,2.96,2.57,6.03,4.57,6.45,2.77,.58,8.08-3.8,8.68-9.64Zm-5.85-4.51c2.03-.28,3.78-2.81,2.99-3.46-.74-.6-7.11-.18-7.32,1-.28,1.54,1.71,2.83,4.33,2.46Zm19.53-15.93c1.82-7.85-4.31-18.47-8-17-2.03,.81-3.98,4.68-5.26,9.02-1.88,6.31-2.37,13.62,.26,13.98,1.61,.22,4.41-.08,7.01-.97,2.84-.96,5.43-2.61,5.99-5.03Zm-22-13c1.08,1.25,7.04-1.12,7-3-.02-1.1-2.11-2.34-4-2-2.72,.5-3.77,4.1-3,5Zm-21.55,2.8c.28-.81-1.69-2.93-4.12-2.83-1.85,.08-3.64,1.42-3.47,2.22,.3,1.44,7.13,1.93,7.59,.61Z"/><path class="k" d="M235.78,303.56c1.51,1.72,2.42,3.55,2.51,5.35,.03,.7-.08,1.42-.33,2.14-2.2,6.53-14.91,13.59-22.43,14.36-.79,.08-1.76,.12-2.85,.13-2.93,.04-6.62-.09-9.32-.08-1.23,.01-2.25,.04-2.9,.14-7.12,1.07-15.06,11.74-19.04,12.26-7.25,.95-14.54-2.74-15.39-5.21-1.96-5.74,.76-22.23,3.3-32.22,1.1-4.36,2.17-7.48,2.8-7.94,2.75-2.02,7.03-1.6,8.25-2.89,1.45-1.54,1.63-3.27,1.85-5.36v-.2c1.45,.08,2.93,.14,4.46,.18,2.49,.06,5.28-.07,8.26-.37-.76,3.02-1.18,3.68-.96,5.8,.21,1.91,3.33,2.79,3.87,3.87,1.27,2.55,2.31,5.25,3.12,8.05,.59-.39,1.17-.78,1.74-1.14,4.64-3,8.77-5.19,11.05-5.35,4.23-.3,8.76,.62,12.77,2.27,3.79,1.56,7.11,3.77,9.24,6.21Z"/><path class="k" d="M220.69,223.22c3.69-1.47,9.82,9.15,8,17-.56,2.42-3.15,4.07-5.99,5.03v-.03c3.99-9-4.27-18.98-7.27-12.98,1.28-4.34,3.23-8.21,5.26-9.02Z"/><path class="k" d="M195.67,87.55c12.11,1.57,33.53,35.06,30.52,61.56-2.61,23.07-14.15,36.2-16.74,45.48h-.01c-7.12-4.11-15.47-6.37-24.75-6.37-.52,0-1.03,.01-1.54,.02,3.18-13.25-2.3-38.77-4.48-67.11-1.13-14.86,7.96-34.76,17-33.58Z"/><path class="k" d="M215.43,232.24c3-6,11.26,3.98,7.26,12.98v.03c-2.59,.89-5.39,1.19-7,.97-2.63-.36-2.14-7.67-.26-13.98Z"/><path class="k" d="M213.5,260.64c.54,.01,1.04,.03,1.51,.02-.6,5.84-5.91,10.22-8.68,9.64-2-.42-4.02-3.49-4.56-6.45v-.11c1.03-.12,2.05-.38,3.03-.69,.15,.27,0,4.06,2.77,4.05,1.84,0,5.55-3.48,5.93-6.46Z"/><path class="k" d="M213.69,224.22c.04,1.88-5.92,4.25-7,3-.77-.9,.28-4.5,3-5,1.89-.34,3.98,.9,4,2Z"/><path class="k" d="M211.13,260.77c.84-.14,1.64-.15,2.37-.13-.38,2.98-4.09,6.46-5.93,6.46,1.31-1.07,2.52-4.77,2.3-5.97,.48-.17,.91-.3,1.26-.36Z"/><path class="k" d="M203.36,325.46c2.7-.01,6.39,.12,9.32,.08-3.62,4.31-6.9,6.34-9.85,5.99,.24-2,.42-4.03,.53-6.07Z"/><path class="k" d="M212.15,252.69c.79,.65-.96,3.18-2.99,3.46-2.62,.37-4.61-.92-4.33-2.46,.21-1.18,6.58-1.6,7.32-1Z"/><path class="k" d="M209.87,261.13c.22,1.2-.99,4.9-2.3,5.97-2.77,.01-2.62-3.78-2.77-4.05,1.96-.61,3.74-1.44,5.07-1.92Z"/><path class="k" d="M168.36,382.92c-.83,14.79-.93,28.18-2.69,31.02-2.35,3.78-14.28,3.13-15.75,.1-7.63-15.77-20.76-45.51-19.89-68.39,.03-.76,.07-1.5,.13-2.24,.62-7.76,5.55-14.73,11.76-20.82,9.9-9.71,23.07-17.2,27.4-22.16h.01c-2.54,9.99-5.26,26.48-3.3,32.22,.85,2.47,8.14,6.16,15.39,5.21,3.98-.52,11.92-11.19,19.04-12.26,.65-.1,1.67-.13,2.9-.14-.11,2.04-.29,4.07-.53,6.07-1.62,13.68-6.03,26.23-10.71,33.08-2.56,3.74-1.04,26.34-2.09,30.39-1.24,4.81-10.43,6.59-13.69,5.05-2.1-.99-6.8-12.04-7.98-17.13Z"/><path class="k" d="M181.02,227.19c2.43-.1,4.4,2.02,4.12,2.83-.46,1.32-7.29,.83-7.59-.61-.17-.8,1.62-2.14,3.47-2.22Z"/><path class="k" d="M144.93,308.09c2.49,1.32-.31,8.23-3.01,14.5-6.21,6.09-11.14,13.06-11.76,20.82-.06,.74-.1,1.48-.13,2.24-7.26,5.29-12.4,2.56-12.98,1.18-1.66-3.96,4.17-1.93,2.84-3.72-3.9-5.24-11.28-14.35-3.33-22.99,3.42-3.71,4.67,7.29,5.87,5.29,1.32-2.2-3.36-38.15,15.85-40.89,7.32-1.05,.05,23.77-2.15,29.15-1.01,2.45,6.18-6.96,8.8-5.58Z"/></g></g><g id="c"><g><path class="g" d="M209.93,261.34c.21,1.21-.99,4.89-2.3,5.97-2.77,.01-2.63-3.79-2.77-4.05,1.96-.61,3.74-1.44,5.07-1.92Z"/><path class="g" d="M228.15,231.7c.89,2.82,1.24,5.95,.6,8.73-.56,2.41-3.15,4.07-5.99,5.03v-.03c2.17-4.92,.7-10.13-1.58-12.86,2.13-1.15,4.53-1.38,6.97-.87Z"/><path class="e" d="M213.56,260.85c-.4,2.98-4.09,6.45-5.93,6.46,1.31-1.08,2.51-4.76,2.3-5.97,.26-.1,.5-.18,.72-.24,.19-.06,.37-.1,.53-.13,.85-.14,1.64-.14,2.38-.12Z"/><path class="e" d="M228.15,231.7c-2.44-.51-4.84-.28-6.97,.87-1.88-2.27-4.31-2.85-5.68-.17,1.29-4.32,3.22-8.16,5.25-8.97,2.38-.96,5.78,3.14,7.4,8.27Z"/><path class="l" d="M207.63,267.31c1.84-.01,5.53-3.48,5.93-6.46,.54,.01,1.04,.03,1.51,.01-.6,5.84-5.91,10.22-8.68,9.64-2.01-.42-4.02-3.48-4.57-6.45v-.09c1.03-.13,2.06-.39,3.04-.7,.14,.26,0,4.06,2.77,4.05Z"/><path class="f" d="M210.65,252.63c0,.91,.46,1.97-2.2,3.78-2.22,.05-3.82-1.12-3.56-2.52,.15-.86,3.64-1.32,5.76-1.26Z"/><path class="f" d="M139.94,169.8c-.33,8.41,3.43,31.27-5.62,31.27-8.71-8.51-19.5-18.84-26-30.38-12.41-22.02-7.05-58.36,2.52-67.36,9.58,.88,17.17,9.84,20.69,23.04,4.93,15.68,6.86,29.78,8.41,43.43Z"/><path class="p" d="M212.21,252.89c.79,.65-.97,3.18-3,3.46-.26,.04-.51,.06-.76,.06,2.66-1.81,2.2-2.87,2.2-3.78,.77,.01,1.36,.1,1.56,.26Z"/><path class="p" d="M139.94,169.8c1.78,15.7,3.05,30.82,7.8,47.08-.67-1.82-2.12-3.89-4.1-6.21-2.45-2.85-5.71-6.07-9.32-9.6,9.05,0,5.29-22.86,5.62-31.27Z"/><path class="r" d="M230.33,245.91c2.35-.76,4.62-.25,5.06,1.13,.19,.59,.01,1.24-.43,1.85h-.01c-2.12-.69-4.05-.93-4.81-2.91,.06-.03,.13-.05,.19-.07Z"/><path class="t" d="M163.33,259.36c3.17,0,5.75,1.58,5.75,3.53s-2.58,3.54-5.75,3.54-5.75-1.59-5.75-3.54,2.57-3.53,5.75-3.53Z"/><path class="t" d="M234.95,248.89c-.58,.83-1.67,1.58-3.02,2.01-2.35,.75-4.62,.25-5.06-1.13-.43-1.34,1.03-3.01,3.27-3.79,.76,1.98,2.69,2.22,4.81,2.91Z"/><path class="i" d="M213.75,224.43c.03,1.87-5.92,4.24-7,3-.78-.9,.28-4.5,3-5,1.88-.35,3.98,.89,4,2Z"/><path class="i" d="M181.08,227.39c2.43-.1,4.4,2.02,4.11,2.84-.45,1.31-7.29,.83-7.59-.62-.16-.8,1.63-2.14,3.48-2.22Z"/><path class="h" d="M214.22,244.58c-.7-2.65-.07-7.68,1.28-12.18,1.37-2.68,3.8-2.1,5.68,.17-3.21,1.73-5.79,5.54-6.93,12h-.03Z"/><path class="j" d="M221.18,232.57c2.28,2.73,3.75,7.94,1.57,12.86v.03c-2.59,.89-5.39,1.19-7,.97-.75-.11-1.25-.79-1.53-1.85h.03c1.14-6.47,3.72-10.28,6.93-12.01Z"/><path class="m" d="M190.62,376.27c-.05,2-.07,4.08-.08,6.11-.85,.4-1.82,.72-2.88,.94-3.8,.78-7.21-.12-7.6-2.03-.4-1.9,2.37-4.08,6.17-4.87,1.6-.33,3.13-.37,4.39-.15Z"/><path class="s" d="M168.09,389.53c-.07,1.61-.14,3.19-.21,4.71-1.19,.75-2.85,1.32-4.73,1.53-3.86,.44-7.17-.77-7.39-2.71-.21-1.93,2.74-3.85,6.6-4.29,2.27-.26,4.36,.06,5.73,.76Z"/><path class="s" d="M144.99,308.3c2.49,1.32-.3,8.22-3,14.48,0,.01-.01,.01-.01,.02-2.58,2.52-4.94,5.2-6.85,8.03,1.97-3.02,3.97-9.66,2.65-11.35-1.12-1.45-3.81-.13-5.48-1.05-2.61-1.43,9.75-32.41,2.06-32.41l-.05-.1c1.21-.58,2.55-.99,4.03-1.2,7.31-1.04,.04,23.77-2.16,29.15-1,2.46,6.19-6.96,8.81-5.57Z"/><path class="s" d="M182.59,315.56c-.95-3.65-.81-9.25-.98-14.93,.09-7.62-5.54-9.6-9.43-7.94,2.76-2.02,7.04-1.59,8.25-2.88,1.46-1.55,1.63-3.28,1.86-5.37v-.19c1.45,.08,2.93,.14,4.46,.18,2.49,.06,5.28-.07,8.25-.37-.76,3.01-1.18,3.67-.96,5.79,.21,1.91,3.33,2.79,3.87,3.87,1.27,2.55,2.31,5.25,3.12,8.05-5.66,3.78-11.82,8.48-16.22,12-.81,.64-1.55,1.24-2.22,1.79Z"/><path class="s" d="M203.41,325.67c-.11,2.04-.29,4.06-.53,6.06-1.62,13.68-6.03,26.23-10.71,33.08-1.04,1.53-1.41,6.19-1.55,11.46-1.26-.22-2.79-.18-4.39,.15-3.8,.79-6.57,2.97-6.17,4.87,.39,1.91,3.8,2.81,7.6,2.03,1.06-.22,2.03-.54,2.88-.94-.03,5.73,0,11.05-.46,12.82-1.24,4.81-10.43,6.59-13.69,5.05-2.1-.99-6.79-12.01-7.98-17.11,.11-1.81,.22-3.65,.35-5.49,.54-7.73,7.5-12.25,11.15-15.45,9.91-6.07,14.22-15.03,15.91-20.68,1.69-5.61,3.04-10.58,3.04-15.29,.56-.2,1.11-.34,1.66-.42,.65-.1,1.67-.13,2.89-.14Z"/><path class="s" d="M203.41,325.67c2.69-.02,6.39,.12,9.32,.07-3.62,4.31-6.9,6.34-9.85,5.99,.24-2,.42-4.02,.53-6.06Z"/><path class="s" d="M235.84,303.76c-.79-.27-1.53-.5-2.24-.71-8.57-4.63-17.46-4.89-19.44-3.61-3.87,2.48,3.14,15.96-1.76,17.49-3.77,1.18-8.04-10.28-9.63-10.79-4.59-1.48-14.02,5.61-17.96,7.63,4.4-3.52,10.56-8.22,16.22-12,.59-.39,1.17-.77,1.74-1.14,4.64-2.99,8.77-5.18,11.05-5.34,4.23-.3,8.76,.61,12.77,2.26,3.8,1.55,7.12,3.76,9.25,6.21Z"/><path class="s" d="M245.3,270.24c1.3,3.8-.53,8.74-4.35,12.52-3.87,3.84-6.83,2.74-10.86,7.44-2.52,2.94-3.25,4.98-3.5,7.35-4.01-1.65-8.54-2.56-12.77-2.26-2.28,.16-6.41,2.35-11.05,5.34,.11-4.62-.56-11.88,2.35-18.22,1.3-.28,2.6-.59,3.9-.93,12.5-3.21,24.85-8.91,29.64-16.39,1.77,.33,3.27,.98,4.44,1.96,1.07,.9,1.79,1.99,2.2,3.19Z"/><path class="s" d="M238.66,265.09c-4.79,7.48-17.14,13.18-29.64,16.39,23.14-7.39,30.74-29.17,27.24-32.1-.44-.2-.87-.35-1.3-.49,.44-.61,.62-1.26,.43-1.85-.44-1.38-2.71-1.89-5.06-1.13-.06,.02-.13,.04-.19,.07-.09-.23-.17-.47-.22-.75-.52-2.64,1.28-3.55,2.66-5.96,.03-.04,.05-.09,.07-.14,.22-.47,.26-1.4,.1-2.68l1.86-.22c.05,.4,.1,.8,.14,1.2,.76,7.27,4.24,9.33,5.53,15.74h0c.29,1.49,.47,3.2,.47,5.26,0,2.35-.75,4.57-2.09,6.66Z"/><path class="s" d="M167.55,201.49c6.25,8.03-16.03,20.94-18.78,18.78-.08-.24-.15-.48-.23-.72,.47-1.89,6.4-6.12,6.83-15.15,.61-12.92-11.36-67.57-11.98-71.22,.35,1.08,.69,2.18,1.04,3.29,.05,.13,.09,.28,.13,.43,.07,.23,.14,.46,.22,.7,.16,.52,.33,1.1,.52,1.71,.1,.31,.19,.62,.29,.94s.2,.65,.31,1c5.71,18.81,11.29,39.1,16.88,51.64,1.49,3.34,2.98,6.14,4.48,8.2,.1,.15,.2,.28,.29,.4Z"/><path class="s" d="M202.67,91.23c11.85,9.47,26.07,36.16,23.58,58.09-2.62,23.07-14.15,36.2-16.75,45.47-7.12-4.1-15.47-6.36-24.75-6.36-.52,0-1.04,.01-1.55,.02,1.01-4.23,1.15-9.71,.79-16.13h.07c2.44-11.32,17.25-15.54,20.92-19.57,6.97-7.63,11.84-35.96-2.31-61.52Z"/><path class="s" d="M234.02,232.24c.23,1.31,.43,2.64,.59,3.99l-1.86,.22c-1.39-11.12-17.94-48.79-65.19-45.33,4.89-1.54,10.46-2.54,15.64-2.67,.51-.01,1.03-.02,1.55-.02,9.28,0,17.63,2.26,24.75,6.36h0c12.75,7.36,21.52,20.64,24.52,37.43v.02Z"/><path class="s" d="M209.32,244.58c.5,1.1,.5,2.81-2.26,3.82-4.37,1.61-11.98,.27-11.96-1.08,.03-2.21,13.25-4.87,14.22-2.74Z"/><path class="q" d="M137.78,319.48c1.32,1.69-.68,8.33-2.65,11.35-.03,.04-.05,.07-.07,.1-2.67,3.95-4.48,8.18-4.84,12.68-.06,.74-.1,1.49-.13,2.25h-.01c-7.25,5.28-12.39,2.55-12.97,1.18-1.67-3.97,4.17-1.93,2.83-3.72-3.89-5.24-11.27-14.36-3.32-22.99,3.42-3.72,4.67,7.29,5.87,5.28,1.22-2.03-2.67-32.81,11.82-39.69l.05,.1c7.69,0-4.67,30.98-2.06,32.41,1.67,.92,4.36-.4,5.48,1.05Z"/><path class="q" d="M202.67,91.23c14.15,25.56,9.28,53.89,2.31,61.52-3.67,4.03-18.48,8.25-20.92,19.57h-.07c-.77-13.69-3.78-31.69-5.26-50.98-1.14-14.87,7.96-34.76,17-33.59,2.09,.27,4.46,1.5,6.93,3.47,0,0,0,.01,.01,.01Z"/><path class="q" d="M155.37,204.4c-.43,9.03-6.36,13.26-6.83,15.15-.27-.88-.54-1.76-.79-2.64-.01-.01-.01-.02-.01-.03-4.75-16.26-6.02-31.38-7.8-47.08-1.55-13.65-3.48-27.75-8.41-43.43-3.52-13.2-11.11-22.16-20.69-23.04,.53-.49,1.07-.91,1.62-1.23,7.87-4.6,23.99,10.18,28.73,24.31,.74,2.2,1.47,4.46,2.2,6.77,.62,3.65,12.59,58.3,11.98,71.22Z"/><path class="q" d="M222.76,245.46c2.84-.96,5.43-2.62,5.99-5.03,.64-2.78,.29-5.91-.6-8.73-1.62-5.13-5.02-9.23-7.4-8.27-2.03,.81-3.96,4.65-5.25,8.97-1.35,4.5-1.98,9.53-1.28,12.18,.28,1.06,.78,1.74,1.53,1.85,1.61,.22,4.41-.08,7.01-.97Zm-13.74,36.02c-1.3,.34-2.6,.65-3.9,.93-3.47,.75-6.9,1.31-10.12,1.65-2.97,.3-5.76,.43-8.25,.37-1.53-.04-3.01-.1-4.45-.18-20.44-1.16-32.47-6.63-38.97-16.61-2.52-3.84-4.21-8.36-5.24-13.56-.93-4.67-1.34-9.88-1.34-15.65,0-10.81,2.48-20.17,6.89-27.76,1.98,2.32,3.43,4.39,4.1,6.21,0,.01,0,.02,.01,.03,.25,.88,.52,1.76,.79,2.64-.07,.29,0,.53,.23,.72,2.75,2.16,25.03-10.75,18.78-18.78-.09-.12-.19-.25-.29-.4-1.06-1.56-2.45-4.53-4.01-8.4,1.35-.57,2.79-1.1,4.3-1.57h.01c47.25-3.46,63.8,34.21,65.19,45.33,.16,1.28,.12,2.21-.1,2.68-.02,.05-.04,.1-.07,.14-1.38,2.41-3.18,3.32-2.66,5.96,.05,.28,.13,.52,.22,.75-2.24,.78-3.7,2.45-3.27,3.79,.44,1.38,2.71,1.88,5.06,1.13,1.35-.43,2.44-1.18,3.02-2.01h.01c.43,.14,.86,.29,1.3,.49,3.5,2.93-4.1,24.71-27.24,32.1Zm.19-25.13c2.03-.28,3.79-2.81,3-3.46-.2-.16-.79-.25-1.56-.26-2.12-.06-5.61,.4-5.76,1.26-.26,1.4,1.34,2.57,3.56,2.52,.25,0,.5-.02,.76-.06Zm4.35,4.5c-.74-.02-1.53-.02-2.38,.12-.16,.03-.34,.07-.53,.13-.22,.06-.46,.14-.72,.24-1.33,.48-3.11,1.31-5.07,1.92-.98,.31-2.01,.57-3.05,.7v.09c.56,2.97,2.57,6.03,4.58,6.45,2.77,.58,8.08-3.8,8.68-9.64-.47,.02-.97,0-1.51-.01Zm-6.81-33.42c1.08,1.24,7.03-1.13,7-3-.02-1.11-2.12-2.35-4-2-2.72,.5-3.78,4.1-3,5Zm.31,20.97c2.76-1.01,2.76-2.72,2.26-3.82-.97-2.13-14.19,.53-14.22,2.74-.02,1.35,7.59,2.69,11.96,1.08Zm-21.87-18.17c.29-.82-1.68-2.94-4.11-2.84-1.85,.08-3.64,1.42-3.48,2.22,.3,1.45,7.14,1.93,7.59,.62Zm-16.11,32.66c0-1.95-2.58-3.53-5.75-3.53s-5.75,1.58-5.75,3.53,2.57,3.54,5.75,3.54,5.75-1.59,5.75-3.54Z"/><path class="q" d="M233.6,303.05c1.08,.57,2.15,1.22,3.2,1.95h.01c.93,1.34,1.47,2.74,1.54,4.11,.03,.7-.09,1.43-.34,2.15-2.21,6.54-14.91,13.59-22.42,14.35-.79,.08-1.77,.12-2.86,.13-2.93,.05-6.63-.09-9.32-.07-1.22,.01-2.24,.04-2.89,.14-.55,.08-1.1,.22-1.66,.42-6.66,2.23-13.72,11.36-17.38,11.84-7.25,.95-14.55-2.74-15.39-5.22-1.96-5.74,.76-22.23,3.3-32.22,1.1-4.36,2.16-7.48,2.79-7.94,3.89-1.66,9.52,.32,9.43,7.94,.17,5.68,.03,11.28,.98,14.93,.67-.55,1.41-1.15,2.22-1.79,3.94-2.02,13.37-9.11,17.96-7.63,1.59,.51,5.86,11.97,9.63,10.79,4.9-1.53-2.11-15.01,1.76-17.49,1.98-1.28,10.87-1.02,19.44,3.61Z"/><path class="q" d="M168.41,383.14c-.12,2.17-.22,4.31-.32,6.39-1.37-.7-3.46-1.02-5.73-.76-3.86,.44-6.81,2.36-6.6,4.29,.22,1.94,3.53,3.15,7.39,2.71,1.88-.21,3.54-.78,4.73-1.53-.45,9.94-.85,17.81-2.15,19.9-2.36,3.78-14.29,3.13-15.75,.1-7.63-15.76-20.76-45.49-19.89-68.38,.03-.76,.07-1.51,.13-2.25,.36-4.5,2.17-8.73,4.84-12.68,.02-.03,.04-.06,.07-.1,1.91-2.83,4.27-5.51,6.85-8.03,0-.01,.01-.01,.01-.02,9.89-9.7,23.07-17.19,27.39-22.15h.01c-2.54,9.99-5.26,26.48-3.3,32.22,.84,2.48,8.14,6.17,15.39,5.22,3.66-.48,10.72-9.61,17.38-11.84,0,4.71-1.35,9.68-3.04,15.29-1.69,5.65-6,14.61-15.91,20.68-3.65,3.2-10.61,7.72-11.15,15.45-.13,1.84-.24,3.68-.35,5.49Z"/></g><circle class="g" cx="219.09" cy="233.97" r=".93"/></g><g id="d"><path class="o" d="M162.85,192.98c5.78-2.52,13.45-4.27,20.42-4.45,.51,0,1.03-.02,1.55-.02,9.28,0,17.63,2.26,24.75,6.36h0c14.04,8.1,23.26,23.39,25.25,42.64,.93,8.95,6,10,6,21,0,16.14-35.42,26.48-54,26-39-1-50-15.93-50-46,0-10.81,2.48-20.17,6.89-27.76"/><path class="o" d="M215.82,246.51c-4.43-.61,0-21,5-23,3.69-1.48,9.82,9.14,8,17-1.07,4.64-9.64,6.46-13,6Z"/><path class="o" d="M206.82,227.51c-.78-.9,.28-4.5,3-5,1.88-.35,3.98,.9,4,2,.03,1.88-5.92,4.25-7,3Z"/><path class="o" d="M185.27,230.31c.28-.82-1.69-2.94-4.12-2.84-1.84,.08-3.64,1.42-3.47,2.22,.3,1.44,7.13,1.92,7.59,.61Z"/><path class="o" d="M215.56,232.53c3-6,11.27,3.98,7.27,12.98"/><path class="o" d="M218.17,259.2c-1.39,2.7-3.82,1.33-6.91,1.85-2.29,.39-7.5,3.72-12.33,2.98"/><path class="o" d="M209.29,256.44c-2.62,.37-4.61-.92-4.33-2.46,.21-1.17,6.58-1.6,7.32-1,.79,.65-.96,3.18-2.99,3.46Z"/><path class="o" d="M210.72,261.18c-.89-.45-1.43-4.04-1.43-4.74"/><path class="o" d="M183.28,188.53c3.18-13.25-2.3-38.77-4.47-67.11-1.14-14.87,7.96-34.76,17-33.59,12.11,1.57,33.53,35.06,30.52,61.57-2.62,23.07-14.15,36.2-16.75,45.48"/><path class="o" d="M167.63,201.58c-8.74-11.48-17.32-48.13-26.36-75.08-4.74-14.14-20.87-28.92-28.73-24.32-10.54,6.17-17.23,45.35-4.14,68.59,11.39,20.23,35.99,36.78,39.42,46.22"/><path class="o" d="M131.6,126.45c11.01,35,7.07,62.06,17.25,93.91"/><path class="o" d="M237.12,245.17c10.33-8.76,25.26-14.51,36.94-15.42"/><path class="o" d="M271.97,249.76c-11.87-.23-22.37,1.36-31.15,5.09"/><path class="o" d="M151.46,256.77c-12.9-4.11-28.9-3.67-40.03-.01"/><path class="o" d="M121.06,274.43c10.87-4.78,21.17-7.36,30.71-7.29"/><path class="o" d="M163.81,250.24c8.45-3.1,22.6,.28,23.8,0,4.05-.96-13.99-13.08-19.99-13.06"/><path class="o" d="M215.14,260.95c-.6,5.84-5.91,10.22-8.68,9.64-2.01-.42-4.02-3.49-4.57-6.45"/><path class="o" d="M213.64,260.93c-.39,2.98-4.09,6.46-5.93,6.46-2.77,.01-2.62-3.78-2.77-4.05"/><path class="o" d="M210,261.42c.22,1.2-.99,4.9-2.3,5.97"/><path class="o" d="M182.36,284.53c-.23,2.09-.4,3.82-1.86,5.37-1.22,1.29-5.49,.86-8.25,2.89-2.07,1.52-8.92,31.92-6.1,40.16,.85,2.48,8.15,6.17,15.39,5.22,3.98-.52,11.93-11.19,19.04-12.26,2.61-.39,11.21,.2,15.07-.2,8.35-.85,23.1-9.46,22.76-16.5-.34-7.07-13.47-14.61-24.52-13.83-7.37,.52-33.98,22.24-35.02,23.54"/><path class="o" d="M181.68,300.72c.17,5.68,.03,11.28,.99,14.92"/><path class="o" d="M217.42,303.85c5.23-2.1,8.63-3.35,18.49,0"/><path class="o" d="M220.62,312.07c5.28-2.35,11.44-4.06,17.47-.73"/><path class="o" d="M168.49,383.21c1.18,5.09,5.88,16.14,7.98,17.13,3.26,1.54,12.45-.24,13.69-5.05,1.05-4.05-.47-26.65,2.09-30.39,5.37-7.85,10.37-23.2,11.24-39.15"/><path class="o" d="M195.08,284.14c-.76,3.02-1.18,3.68-.96,5.8,.21,1.91,3.33,2.79,3.87,3.87,1.27,2.55,2.31,5.25,3.12,8.05"/><path class="o" d="M169.45,300.72c-7.04,8.07-37.54,22.86-39.17,42.98-1.87,23.15,11.88,54.35,19.76,70.63,1.47,3.03,13.4,3.68,15.75-.1,1.99-3.19,1.86-19.66,3.03-36.49,.54-7.73,7.5-12.25,11.15-15.46"/><path class="o" d="M226.67,297.64c.25-2.37,.98-4.41,3.5-7.35,4.03-4.7,6.99-3.6,10.86-7.44,3.82-3.78,5.65-8.72,4.35-12.52-.41-1.2-1.13-2.29-2.2-3.19-1.17-.98-2.68-1.63-4.45-1.96"/><path class="o" d="M202.85,300.72c.11-4.62-.56-11.89,2.35-18.23"/><path class="o" d="M236.33,274.89c3.17-2.28,4.37-3.83,9.04-4.57"/><path class="o" d="M130.16,345.94c-7.25,5.29-12.4,2.56-12.98,1.18-1.66-3.96,4.17-1.93,2.84-3.72-3.9-5.24-11.28-14.36-3.33-22.99,3.42-3.72,4.67,7.29,5.87,5.28,1.32-2.2-3.36-38.15,15.85-40.89,7.32-1.04,.05,23.77-2.15,29.15-1,2.45,6.18-6.96,8.8-5.58,2.49,1.32-.31,8.23-3.01,14.5"/><path class="o" d="M202.96,331.82c2.95,.35,6.23-1.68,9.85-5.99"/></g></svg>