<?xml version="1.0" encoding="UTF-8"?><svg xmlns="http://www.w3.org/2000/svg" viewBox="0 0 169.12 140.65"><defs><style>.f{fill:#e2e2e2;}.g{fill:#8e8c87;}.h{fill:none;stroke:#3f2a25;stroke-linecap:round;stroke-linejoin:round;stroke-width:.5px;}.i{fill:#4f4a41;}.j{fill:#c6944a;}.k{fill:#bc7171;}.l{fill:#f4ba5b;}</style></defs><g id="a"/><g id="b"><g><path class="k" d="M69.08,72.17c-.9-.06-1.76-.11-2.57-.17-2.75-.2-4.91-.43-6.27-.68-3.17-.57-4.73-2.91-4.69-4.95,9.17,3.96,71.39,3.96,76.56-.73,.49,2.16-1.04,5.04-4.6,5.68-1.36,.25-3.52,.48-6.27,.68-.81,.06-1.67,.11-2.57,.17-6.62,.4-15.62,.66-24.7,.66h-.19c-9.08,0-18.08-.26-24.7-.66Z"/><path class="k" d="M129.26,63.17c1.62,.21,2.57,1.22,2.85,2.47-5.17,4.69-67.39,4.69-76.56,.73,.03-1.57,1.01-2.94,2.94-3.2,1.31-.18,18.1,.68,35.29,.76h.19c17.19-.08,33.98-.94,35.29-.76Z"/><path class="k" d="M120.14,76.44c1.08,0,1.96,.88,1.96,1.96s-.88,1.95-1.96,1.95-1.96-.87-1.96-1.95,.88-1.96,1.96-1.96Z"/><path class="k" d="M121.24,72v1.98h0c-.35-.08-.72-.13-1.1-.13-.52,0-1.01,.09-1.47,.24v-1.92c.9-.06,1.76-.11,2.57-.17Z"/><path class="k" d="M118.18,82.47c4.21,.24,6.74-4.4,4.3-7.96,1.32,.79,2.21,2.24,2.21,3.89,0,2.51-2.04,4.55-4.55,4.55-.71,0-1.37-.16-1.97-.46v-.02Z"/><path class="k" d="M122.1,78.4c0-1.08-.88-1.96-1.96-1.96s-1.96,.88-1.96,1.96,.88,1.95,1.96,1.95,1.96-.87,1.96-1.95Zm.38-3.89c2.44,3.56-.09,8.2-4.3,7.96v.02c-1.54-.72-2.59-2.29-2.59-4.09,0-1.99,1.29-3.69,3.08-4.31,.46-.15,.95-.24,1.47-.24,.38,0,.75,.05,1.1,.14,.44,.11,.86,.28,1.24,.52Z"/><path class="k" d="M69.7,74.36c1.46,.75,2.46,2.28,2.46,4.04,0,2.51-2.03,4.55-4.55,4.55-.7,0-1.36-.16-1.95-.45,4.22,.24,6.5-4.58,4.04-8.14Z"/><path class="k" d="M67.61,76.44c1.08,0,1.96,.88,1.96,1.96s-.88,1.95-1.96,1.95-1.95-.87-1.95-1.95,.87-1.96,1.95-1.96Z"/><path class="k" d="M67.61,73.85c-.38,0-.75,.05-1.1,.13v-1.98c.81,.06,1.67,.11,2.57,.17v1.92c-.46-.16-.96-.24-1.47-.24Z"/><path class="k" d="M65.66,78.4c0,1.08,.87,1.95,1.95,1.95s1.96-.87,1.96-1.95-.88-1.96-1.96-1.96-1.95,.88-1.95,1.96Zm0,4.1c-1.54-.72-2.6-2.29-2.6-4.1,0-2.13,1.47-3.92,3.45-4.42,.35-.08,.72-.13,1.1-.13,.51,0,1.01,.08,1.47,.24,.21,.07,.42,.16,.62,.27,2.46,3.56,.18,8.38-4.04,8.14Z"/></g></g><g id="c"><g><path class="j" d="M121.24,72c-.81,.06-1.67,.11-2.57,.17-6.62,.4-15.62,.66-24.7,.66h-.19c-9.08,0-18.08-.26-24.7-.66-.9-.06-1.76-.11-2.57-.17-2.75-.2-4.91-.43-6.27-.68-3.17-.57-4.73-2.91-4.69-4.95,9.17,3.96,71.39,3.96,76.56-.74,.5,2.16-1.04,5.05-4.6,5.69-1.36,.25-3.52,.48-6.27,.68Z"/><path class="l" d="M129.26,63.17c1.61,.21,2.56,1.22,2.85,2.46-5.17,4.7-67.39,4.7-76.56,.74,.03-1.57,1.01-2.94,2.94-3.2,1.31-.18,18.1,.68,35.29,.76h.19c17.19-.08,33.98-.94,35.29-.76Z"/><path class="f" d="M120.14,76.44c1.08,0,1.95,.88,1.95,1.96s-.87,1.95-1.95,1.95-1.96-.87-1.96-1.95,.88-1.96,1.96-1.96Z"/><path class="i" d="M118.67,72.17c.9-.06,1.76-.11,2.57-.17v1.98h0c-.35-.08-.72-.13-1.1-.13-.51,0-1.01,.08-1.47,.24v-1.92Z"/><path class="i" d="M122.48,74.51c1.32,.78,2.21,2.23,2.21,3.89,0,2.51-2.04,4.54-4.55,4.54-.71,0-1.37-.16-1.97-.45v-.02c4.22,.23,6.75-4.4,4.31-7.96Z"/><path class="g" d="M118.18,78.4c0,1.08,.88,1.95,1.96,1.95s1.95-.87,1.95-1.95-.87-1.96-1.95-1.96-1.96,.88-1.96,1.96Zm4.3-3.89c2.44,3.56-.09,8.19-4.3,7.96v.02c-1.54-.73-2.59-2.28-2.59-4.09,0-2.01,1.29-3.7,3.08-4.31,.46-.16,.96-.24,1.47-.24,.38,0,.75,.05,1.1,.14,.44,.11,.86,.28,1.24,.52Z"/><path class="i" d="M72.16,78.4c0,2.51-2.04,4.54-4.55,4.54-.7,0-1.35-.16-1.94-.44,4.2,.22,6.48-4.58,4.04-8.13,1.45,.75,2.45,2.27,2.45,4.03Z"/><path class="f" d="M67.61,76.44c1.08,0,1.96,.88,1.96,1.96s-.88,1.95-1.96,1.95-1.96-.87-1.96-1.95,.88-1.96,1.96-1.96Z"/><path class="i" d="M67.61,73.85c-.38,0-.75,.05-1.1,.13v-1.98c.81,.06,1.67,.11,2.57,.17v1.92c-.46-.15-.95-.24-1.47-.24Z"/><path class="g" d="M66.51,73.98c.35-.08,.72-.13,1.1-.13,.52,0,1.01,.09,1.47,.24,.22,.08,.43,.17,.63,.28,2.44,3.55,.16,8.35-4.04,8.13-1.54-.72-2.61-2.28-2.61-4.1,0-2.14,1.47-3.93,3.45-4.42Zm3.06,4.42c0-1.08-.88-1.96-1.96-1.96s-1.96,.88-1.96,1.96,.88,1.95,1.96,1.95,1.96-.87,1.96-1.95Z"/></g></g><g id="d"><g id="e"/><path class="h" d="M93.94,63.94c-17.26-.07-34.17-.94-35.48-.76-4.44,.58-3.85,7.15,1.75,8.15,4.7,.85,19.14,1.51,33.73,1.51"/><circle class="h" cx="67.59" cy="78.41" r="4.55"/><circle class="h" cx="67.59" cy="78.41" r="1.96"/><line class="h" x1="66.49" y1="72.01" x2="66.49" y2="73.99"/><line class="h" x1="69.05" y1="72.17" x2="69.05" y2="74.1"/><path class="h" d="M93.76,72.84c14.59,0,29.03-.66,33.73-1.51,5.6-1,6.19-7.57,1.75-8.15-1.31-.18-18.22,.69-35.48,.76"/><circle class="h" cx="120.11" cy="78.41" r="4.55"/><circle class="h" cx="120.11" cy="78.41" r="1.96"/><line class="h" x1="121.21" y1="72.01" x2="121.21" y2="73.99"/><line class="h" x1="118.65" y1="72.17" x2="118.65" y2="74.1"/></g></svg>