<?xml version="1.0" encoding="UTF-8"?><svg xmlns="http://www.w3.org/2000/svg" viewBox="0 0 419.48 239.48"><defs><style>.e{fill:#ad7766;}.f{fill:#c47b49;}.g{fill:#c6977b;}.h{fill:#bc7171;}.i{fill:#6a964d;}.j{fill:#77b566;}.k{stroke-width:2px;}.k,.l{fill:none;stroke:#3f2a25;stroke-linecap:round;stroke-linejoin:round;}.m{fill:#e09f57;}</style></defs><g id="a"><path class="k" d="M260.66,99.02h-.02c-.01-.13-.02-.27-.03-.4-.15-2.19-.05-4.5-1.94-4.5-.84,0-2.1,1.61-3.31,4.02"/><path class="k" d="M269.17,99.67c.11-.07,.23-.15,.35-.23,10.72-6.99,29.78-23.54,33.39-21.05,4.66,3.23-7.57,16.89-14.95,26.02"/><path class="k" d="M133.37,139.05c0,32.85,0,59.86,81.51,59.86s81.51-27.42,81.52-59.88"/><path class="k" d="M133.37,139.05c-3.29-4.14-3.29-8.98-3.29-14.16"/><path class="k" d="M299.67,124.89c0,5.17,0,10-3.27,14.14"/><line class="k" x1="260.66" y1="99.03" x2="260.64" y2="99.03"/><path class="k" d="M130.07,124.89c0-.85,0-1.7,.02-2.53,0-.32,.01-.64,.02-.95,.04-1.14,.12-2.26,.28-3.36v-.03"/><line class="k" x1="269.52" y1="99.46" x2="269.52" y2="99.45"/><path class="k" d="M241.74,94.74s-.01-.01-.01-.03"/><line class="k" x1="244.97" y1="97.47" x2="244.96" y2="97.47"/><path class="k" d="M132.05,112.34c-4.48-3.1-7.31-6.04-5.86-8.26,1.14-1.74,7.09-.84,14.39,.88"/><path class="k" d="M242.84,97.36c-.35-.91-.72-1.78-1.1-2.63,0-.01,0-.01,0-.02h0c-1.43-3.2-3.07-5.96-4.91-8.2-1.61-1.94-3.38-3.45-5.34-4.43-2.3-1.14-4.92-1.85-7.68-2.15h-.01"/><path class="k" d="M199.72,87.9h-.01c-2.59,2.54-4.53,5.62-5.47,9.19"/><path class="k" d="M199.72,87.9h-.01c-6.78-3.37-13.57-11.92-12.64-13.8,1.58-3.18,7.27,3.49,9.47-.26,2.83-4.83-8.81-43.66-3.93-46.36,7.02-3.89,17.76,31.84,21.57,33.02,3.42,1.06,2.8-6.82,7.46-5.36,2.66,.83,5.32,12.95,2.15,24.79h0"/><path class="k" d="M255.36,98.15c-3.22-.26-6.68-.49-10.39-.68h-.01c-.7-.03-1.41-.07-2.13-.1"/><path class="k" d="M140.58,104.97c2.15-1.03,4.74-1.98,7.87-2.84,7.03-1.92,16.76-3.39,30.22-4.3,4.71-.32,9.89-.56,15.57-.73"/><path class="k" d="M132.05,112.35c-1.5,2.79-1.86,5.85-1.94,9.07-.02,.73-.03,1.47-.03,2.21v.87"/><path class="k" d="M287.96,104.42c11.72,5.04,11.72,12.17,11.72,20.08"/><path class="k" d="M269.17,99.68c-2.62-.39-5.47-.74-8.56-1.05"/></g><g id="b"><g><path class="h" d="M287.95,104.89c8.23,3.54,10.68,8.31,11.4,13.57h-.02c-.35,2.37-1.06,4.63-2.57,6.71-.04-.07-.09-.14-.14-.21-1.45-1.94-3.6-3.73-6.76-5.34,.83-.99,1.23-1.85,1.13-2.46-.76-4.82-7.55-.77-8.12-4.31-.18-1.13,1.92-4.02,4.84-7.66l.24-.3Z"/><path class="h" d="M130.1,121.89c.04-1.14,.12-2.26,.28-3.36,.37,2.36,1.09,4.58,2.59,6.65,.04,.07,.09,.13,.14,.2,2.79,3.74,8.14,6.92,18.41,9.29,6.23,1.44,14.29,2.58,24.69,3.35,6.55,.5,14.04,.84,22.59,1.03,4.98,.11,10.33,.17,16.06,.17s11.15-.06,16.16-.17c3.38-.07,6.59-.17,9.65-.3,2.62-.1,5.12-.23,7.51-.37,9.19-.54,16.74-1.33,22.94-2.33,15.02-2.44,22.13-6.15,25.5-10.68,.05-.07,.1-.13,.14-.2,1.51-2.08,2.22-4.34,2.57-6.71h.02c.31,2.24,.31,4.56,.31,6.91,0,5.26,0,10.18-3.44,14.37-6.58,7.99-25.71,13.33-81.36,13.33s-74.77-5.34-81.35-13.33c-3.44-4.19-3.44-9.11-3.44-14.37h-.01c0-.27,0-.54,.01-.8v-.47c0-.74,.01-1.48,.03-2.21Z"/><path class="h" d="M269.51,99.92c10.72-6.99,29.78-23.54,33.39-21.05,4.66,3.23-7.57,16.89-14.95,26.02l-.24,.3c-2.92,3.64-5.02,6.53-4.84,7.66,.57,3.54,7.36-.51,8.12,4.31,.1,.61-.3,1.47-1.13,2.46-.06,.1-.15,.19-.23,.29-3.03,3.46-10.8,8.36-19.91,10.18-1.25-3.37-3.21-6.64-5.69-9.5-.42-.49-.84-.96-1.29-1.41-2.65-2.74-5.77-4.98-9.13-6.45-.56-.25-1.13-.46-1.7-.67v-.02c0-4.35,1.55-9.48,3.25-13.04,.06-.13,.13-.26,.19-.38,1.21-2.41,2.47-4.02,3.31-4.02,1.89,0,1.79,2.31,1.94,4.5,.01,.13,.02,.27,.03,.4h.02c.15,1.75,.58,3.32,2.45,3.45,1.07,.09,3.04-.88,5.55-2.47,.17-.11,.34-.21,.51-.33,.11-.07,.23-.15,.35-.23Z"/><path class="h" d="M296.62,124.96c.05,.07,.1,.14,.14,.21-.04,.07-.09,.13-.14,.2-3.37,4.53-10.48,8.24-25.5,10.68h0c-.19-1.98-.68-3.98-1.4-5.96,9.11-1.82,16.88-6.72,19.91-10.18,.08-.1,.17-.19,.23-.29,3.16,1.61,5.31,3.4,6.76,5.34Z"/><path class="h" d="M296.22,139.74l.17,.16c0,32.85,0,59.49-81.52,59.49s-81.52-26.64-81.52-59.49l.16-.16c6.58,7.99,25.71,13.33,81.35,13.33s74.78-5.34,81.36-13.33Z"/><path class="h" d="M271.12,136.04h0c-6.2,1.01-13.75,1.8-22.94,2.34-3.53-7.93-10.94-12.78-20.32-17.02,.86-1.11,1.76-2.17,2.64-3.12h.02c2.8-3.03,5.59-5.27,8.27-6.31,0,0,0-.01,.01,0h.02c.31-.14,.64-.25,.95-.34,2.34-.68,4.67-.88,6.97-.66,1.77,.14,3.49,.55,5.17,1.13,.57,.21,1.14,.42,1.7,.67,3.36,1.47,6.48,3.71,9.13,6.45,.45,.45,.87,.92,1.29,1.41,2.48,2.86,4.44,6.13,5.69,9.5,.72,1.98,1.21,3.98,1.4,5.95Z"/><path class="h" d="M269.16,100.15c-.17,.12-.34,.22-.51,.33-2.51,1.59-4.48,2.56-5.55,2.47-1.87-.13-2.3-1.7-2.45-3.45h-.02c-.01-.13-.02-.27-.03-.4,3.09,.31,5.94,.66,8.56,1.05Z"/><path class="h" d="M255.35,98.62c-.06,.12-.13,.25-.19,.38-1.7,3.56-3.25,8.69-3.25,13.04v.02c-1.68-.58-3.4-.99-5.17-1.13-1.02-4.53-2.26-8.83-3.76-12.68-.05-.14-.1-.27-.16-.41,.72,.03,1.43,.07,2.13,.1h.01c3.71,.19,7.17,.42,10.39,.68Z"/><path class="h" d="M238.8,111.92s-.01-.01-.01,.01c-2.68,1.04-5.47,3.28-8.27,6.31h-.02c-.88,.95-1.78,2.01-2.64,3.12-.23,.28-.45,.55-.66,.84-.68,.87-1.35,1.78-2.02,2.73-4.21-3.32-8.38-6.31-12.34-8.64-.73-.42-1.44-.83-2.15-1.2-2.98-1.6-5.79-2.81-8.35-3.47-.49-.13-.97-.24-1.44-.32,.03-.02,.05-.04,.08-.06-.13,0-.26,0-.39,.01h-.01c-1.29-.22-2.5-.28-3.6-.17-.29,.04-.58,.07-.86,.11-.26-.64-.51-1.28-.72-1.9-.9-2.54-1.47-4.89-1.62-7.01-.09-1.14-.04-2.23,.13-3.23,.07-.36,.14-.73,.22-1.09,.03-.13,.06-.26,.1-.39,.94-3.57,2.87-6.65,5.47-9.19h.01c6.08-5.96,15.73-8.84,24.07-7.97,2.76,.3,5.39,1.01,7.69,2.15,1.96,.98,3.73,2.49,5.33,4.44,1.84,2.23,3.49,4.99,4.92,8.18h0s0,.02,.01,.03h0c.37,.86,.75,1.73,1.09,2.63,.06,.14,.11,.27,.16,.41,1.5,3.85,2.74,8.15,3.76,12.68-2.3-.22-4.63-.02-6.97,.66-.31,.09-.64,.2-.95,.34h-.02Z"/><path class="h" d="M248.18,138.38c-2.39,.14-4.89,.27-7.51,.37-1.23-1.24-2.5-2.44-3.78-3.65-.23-.22-.48-.44-.71-.66-.14-.13-.29-.27-.42-.38-.42-.39-.84-.77-1.26-1.16-.42-.38-.84-.77-1.27-1.14-.98-.9-1.99-1.77-2.98-2.62h-.01c-1.67-1.46-3.37-2.84-5.06-4.21,.67-.95,1.34-1.86,2.02-2.73,.21-.29,.43-.56,.66-.84,9.38,4.24,16.79,9.09,20.32,17.02Z"/><path class="h" d="M238.8,111.92h0s-.01,.01-.01,.01t.01-.01Z"/><path class="h" d="M236.89,135.1c1.28,1.21,2.55,2.41,3.78,3.65-1.24-1.24-2.51-2.44-3.78-3.65Z"/><path class="h" d="M236.89,135.1c1.27,1.21,2.54,2.41,3.78,3.65-3.06,.13-6.27,.23-9.65,.3,1.41-1.51,3.08-2.98,5.16-4.6,.23,.21,.47,.43,.71,.65Z"/><path class="h" d="M236.89,135.1c-.24-.22-.48-.44-.71-.65-.14-.14-.29-.28-.42-.38-.42-.4-.84-.78-1.26-1.17,.42,.39,.84,.77,1.26,1.16,.13,.11,.28,.25,.42,.38,.23,.22,.48,.44,.71,.66Z"/><path class="h" d="M235.76,134.07c.13,.1,.28,.24,.42,.38-2.08,1.62-3.75,3.09-5.16,4.6-5.01,.11-10.39,.17-16.16,.17s-11.08-.06-16.06-.17c.15-8.49,4.88-15.8,11.57-23.37l.32-.59c.71,.37,1.42,.78,2.15,1.2,3.96,2.33,8.13,5.32,12.34,8.64,1.69,1.37,3.39,2.75,5.06,4.21h.01c1,.87,1.99,1.73,2.97,2.63,.43,.37,.86,.75,1.28,1.13,.42,.39,.84,.77,1.26,1.17Z"/><path class="h" d="M234.5,132.9c-.42-.38-.85-.76-1.28-1.13-.98-.9-1.97-1.76-2.97-2.63,.99,.85,2,1.72,2.98,2.62,.43,.37,.85,.76,1.27,1.14Z"/><path class="h" d="M221.62,55.62c2.67,.83,5.33,12.95,2.16,24.79-8.34-.87-17.99,2.01-24.07,7.96h-.01c-6.78-3.36-13.57-11.91-12.64-13.79,1.57-3.18,7.26,3.49,9.47-.26,2.83-4.82-8.81-43.66-3.93-46.36,7.01-3.88,17.76,31.85,21.56,33.02,3.43,1.06,2.81-6.81,7.46-5.36Z"/><path class="h" d="M192.61,112.07h.01c.2-.08,.41-.15,.63-.22,.01,0,.03-.01,.04-.01,.56-.18,1.14-.33,1.73-.46h.02c.36-.07,.72-.13,1.08-.19,.28-.04,.57-.07,.86-.11,1.1-.11,2.31-.05,3.6,.17h.01c.1,.01,.21,.03,.31,.05,.47,.08,.95,.19,1.44,.32,2.56,.66,5.37,1.87,8.35,3.47l-.32,.59c-6.69,7.57-11.42,14.88-11.57,23.37-8.55-.19-16.04-.53-22.59-1.03,.15-7.99,3.69-16.61,9.7-21.93,1.96-1.75,4.19-3.11,6.66-3.99,.01-.01,.02-.03,.04-.03Z"/><path class="h" d="M200.98,111.24s-.05,.04-.08,.06c-.1-.02-.21-.04-.31-.05,.13-.01,.26-.01,.39-.01Z"/><path class="h" d="M165.2,111.52c-3.91-.75-8.95-2.07-14.12-3.43-3.37-.87-6.77-1.77-9.95-2.52-.19-.04-.37-.09-.56-.13,2.15-1.03,4.74-1.98,7.87-2.84,7.03-1.92,16.76-3.39,30.22-4.3,4.71-.32,9.89-.56,15.57-.73-.04,.13-.07,.26-.1,.39-.08,.36-.15,.73-.22,1.09-.17,1-.22,2.09-.13,3.23,.15,2.12,.72,4.47,1.62,7.01,.21,.62,.46,1.26,.72,1.9-.36,.06-.72,.12-1.08,.19h-.02c-.58,.02-1.15,.04-1.72,.06-3.4,.11-6.62,.24-9.67,.4h-.01c-3.58-5.43-9-10.01-10.54-9.39-3.29,1.35,2.94,7.5-.97,9.44-1.06,.51-3.56,.28-6.91-.37Z"/><path class="h" d="M193.3,111.44c.57-.02,1.14-.04,1.72-.06-.59,.13-1.17,.28-1.73,.46-.01,0-.03,.01-.04,.01-.22,.07-.43,.14-.63,.22,.23-.21,.46-.41,.68-.63Z"/><path class="h" d="M193.3,111.44c-.22,.22-.45,.42-.68,.63h-.01s-.03,.02-.04,.03c-2.47,.88-4.7,2.24-6.66,3.99-.58-1.42-1.37-2.86-2.29-4.25h.01c3.05-.16,6.27-.29,9.67-.4Z"/><path class="h" d="M183.62,111.84c.92,1.39,1.71,2.83,2.29,4.25-6.01,5.32-9.55,13.94-9.7,21.93-10.4-.77-18.46-1.91-24.69-3.35h0c0-3.75,6.75-2.92,6.01-6.18-.41-1.76-7.73-5.43-15.25-9.56h-.01c-.14-.08-.28-.15-.42-.23-3.42-1.89-6.85-3.87-9.66-5.78-.05-.04-.1-.07-.15-.1-4.48-3.1-7.32-6.04-5.87-8.26,1.14-1.74,7.1-.84,14.4,.88,.19,.04,.37,.09,.56,.13,3.18,.75,6.58,1.65,9.95,2.52,5.17,1.36,10.21,2.68,14.12,3.43,3.35,.65,5.85,.88,6.91,.37,3.91-1.94-2.32-8.09,.97-9.44,1.54-.62,6.96,3.96,10.54,9.39Z"/><path class="h" d="M157.53,128.49c.74,3.26-6.01,2.43-6.01,6.17h0c-10.27-2.36-15.62-5.54-18.41-9.28-.05-.07-.1-.13-.14-.2,.03-.07,.08-.13,.13-.2,1.74-2.33,4.47-4.45,8.75-6.28,.14,.08,.28,.15,.42,.23h.01c7.52,4.13,14.84,7.8,15.25,9.56Z"/><path class="h" d="M130.38,118.53c-.16,1.1-.24,2.22-.28,3.36,.08-3.22,.44-6.28,1.94-9.07,.05,.03,.1,.06,.15,.1,2.81,1.91,6.24,3.89,9.66,5.78-4.28,1.83-7.01,3.95-8.75,6.28-.05,.07-.1,.13-.13,.2-1.5-2.07-2.22-4.29-2.59-6.65Z"/><path class="h" d="M130.1,121.89c-.02,.73-.03,1.47-.03,2.21-.01-.43,0-.85,.01-1.26,0-.32,.01-.64,.02-.95Z"/></g></g><g id="c"><g><path class="e" d="M299.34,118.23c.32,2.22,.32,4.53,.32,6.91h.01c0,5.26,0,10.18-3.44,14.37-2.68,3.25-7.45,6.07-15.92,8.26,2.8-2.58,2.36-10.54,.08-13.65l-.05-.2c8.9-2.3,13.71-5.31,16.29-8.78,1.59-2.14,2.35-4.46,2.71-6.91Z"/><path class="e" d="M299.34,118.21v.02c-.36,2.45-1.12,4.77-2.71,6.91-1.48-1.99-3.7-3.82-7-5.46,.03-.03,.05-.06,.07-.09,.94-1.07,1.4-2.01,1.29-2.66-.76-4.81-7.55-.77-8.12-4.31-.18-1.13,1.92-4.01,4.85-7.66,8.35,3.54,10.87,8.11,11.62,13.25Z"/><path class="e" d="M289.63,119.68c3.3,1.64,5.52,3.47,7,5.46-2.58,3.47-7.39,6.48-16.29,8.78-2.68,.7-5.73,1.33-9.21,1.9h0c-.19-1.98-.68-3.98-1.4-5.96,9.1-1.82,16.87-6.72,19.9-10.18Z"/><path class="i" d="M287.72,104.96c-2.93,3.65-5.03,6.53-4.85,7.66,.57,3.54,7.36-.5,8.12,4.31,.11,.65-.35,1.59-1.29,2.66-.02,.03-.04,.06-.07,.09-3.03,3.46-10.8,8.36-19.9,10.18-.29-.77-.61-1.54-.97-2.29,5.99-1.43,14.18-5.6,14.33-8.73,.11-2.36-3.74-3.3-4.97-5.94-1.03-2.22,1.52-3.81,7.15-9,4.24-3.91,10.22-9.87,17.74-19.7-2.59,5.76-10.14,14.36-15.22,20.68-.03,.03-.05,.05-.07,.08Z"/><path class="g" d="M283.74,152c-.69,6.71-2.55,16.52-7.45,23.53-14.9,21.31-44.21,22.82-46.59,23.3h-.02c-4.61,.22-9.54,.33-14.81,.33-81.51,0-81.51-26.64-81.51-59.49l.16-.15c6.39,7.75,24.6,13,76.51,13.31v.1c21.13,3.53,55.85,3.14,73.71-.93Z"/><path class="i" d="M270.22,118.77c.2,.79-2.08,2.04-4.96,3.1-.39-.52-.8-1.02-1.22-1.51-.14-.17-.29-.33-.43-.49,.65-.06,1.76-.87,2.98-2.03,2.02-.05,3.47,.3,3.63,.93Z"/><path class="i" d="M265.22,117.91c.48-.05,.94-.07,1.37-.07-1.22,1.16-2.33,1.97-2.98,2.03h0c-.05-.97,.38-1.91,1.61-1.96Z"/><path class="j" d="M260.55,99.38c0,1.92-1.65,4.54-.63,5.17,1.11,.68,3.82-1.58,5.88-2.65h0c.84-.42,1.8-.98,2.85-1.65,.05-.03,.09-.06,.14-.09,.24-.15,.48-.29,.72-.47,10.72-6.99,29.79-23.54,33.39-21.05,1.44,1,1.27,3,.11,5.56-7.52,9.83-13.5,15.79-17.74,19.7-5.63,5.19-8.18,6.78-7.15,9,1.23,2.64,5.08,3.58,4.97,5.94-.15,3.13-8.34,7.3-14.33,8.73-.94-1.99-2.12-3.91-3.5-5.7,2.88-1.06,5.16-2.31,4.96-3.1-.16-.63-1.61-.98-3.63-.93,3.04-2.9,6.73-8.01,5.56-9.4-1.31-1.56-9.48,4.58-10.89,6.19-.62,.71-.62,1.71-.28,2.64-2.23-1.98-4.72-3.61-7.37-4.77-.11-.05-.23-.1-.35-.15h-.01c-.43-.19-.88-.35-1.34-.52h0c0-4.37,1.55-9.5,3.26-13.06,.02-.03,.03-.07,.05-.1,1.25-2.56,2.57-4.3,3.44-4.3,1.99,0,1.78,2.52,1.97,4.79,0,.04,.01,.07,.01,.11h.01s0,.07,0,.1h-.11Z"/><path class="f" d="M269.73,129.86c.72,1.98,1.21,3.98,1.4,5.95h0c-6.2,1.01-13.75,1.8-22.94,2.34-.68-1.54-1.51-2.96-2.47-4.28,9.88-3.36,19.15-7.59,18.34-12.58,.3,.45,.71,.72,1.18,.59,.01,0,.01-.01,.02-.01,1.38,1.79,2.56,3.71,3.5,5.7,.36,.75,.68,1.52,.97,2.29Z"/><path class="g" d="M264.06,121.29c-.26-.38-.43-.9-.45-1.42,.14,.16,.29,.32,.43,.49,.42,.49,.83,.99,1.22,1.51-.01,0-.01,.01-.02,.01-.47,.13-.88-.14-1.18-.59Z"/><path class="i" d="M265.22,117.91c-1.23,.05-1.66,.99-1.61,1.95-.29-.32-.57-.61-.86-.91-.57-.59-1.16-1.15-1.77-1.68-.34-.93-.34-1.93,.28-2.64,1.41-1.61,9.58-7.75,10.89-6.19,1.17,1.39-2.52,6.5-5.56,9.4-.43,0-.89,.02-1.37,.07Z"/><path class="g" d="M263.61,119.87c-.07,.01-.14,.01-.2,0-.92-.17-1.98-1.33-2.43-2.6,.61,.53,1.2,1.09,1.77,1.68,.29,.3,.57,.59,.86,.91h0Z"/><path class="i" d="M260.66,99.37c.16,1.72,.61,3.22,2.44,3.36,.62,.05,1.55-.26,2.7-.84h0c-2.06,1.08-4.77,3.34-5.88,2.66-1.02-.63,.63-3.25,.63-5.17h.11Z"/><path class="e" d="M268.65,100.25c-1.05,.67-2.01,1.23-2.85,1.64-1.15,.58-2.08,.89-2.7,.84-1.83-.14-2.28-1.64-2.44-3.36,0-.03,0-.07,0-.1h-.01s-.01-.07-.01-.11c2.93,.3,5.65,.63,8.16,1-.05,.03-.09,.06-.14,.09Z"/><path class="e" d="M255.22,98.67s-.03,.07-.05,.1c-1.71,3.56-3.26,8.69-3.26,13.05h0c-1.67-.57-3.4-.98-5.17-1.12-1.02-4.53-2.26-8.83-3.75-12.68,0-.04-.03-.07-.04-.11,.67,.02,1.33,.06,1.98,.09h.01c3.67,.19,7.09,.41,10.28,.67Z"/><path class="m" d="M253.26,112.35c.12,.05,.24,.1,.35,.15,2.65,1.16,5.14,2.79,7.37,4.77,.45,1.27,1.51,2.43,2.43,2.6,.06,.01,.13,.01,.2,0,.02,.52,.19,1.04,.45,1.42,.81,4.99-8.46,9.22-18.34,12.58-4-5.51-10.29-9.32-17.85-12.74,.86-1.11,1.75-2.17,2.64-3.12h.01c2.81-3.03,5.59-5.27,8.28-6.31,0,0,0-.01,.01,0h0c.09-.04,.18-.08,.27-.11h.01c.23-.09,.45-.17,.68-.23,.43-.13,.86-.24,1.29-.33,1.9-.41,3.79-.51,5.67-.33,1.77,.14,3.5,.55,5.17,1.13,.46,.17,.91,.33,1.34,.52h.01Z"/><path class="f" d="M245.72,133.87c.96,1.32,1.79,2.74,2.47,4.28-2.39,.14-4.89,.27-7.51,.37-.77-.77-1.56-1.53-2.35-2.29,2.4-.73,4.92-1.51,7.39-2.36Z"/><path class="m" d="M227.87,121.13c7.56,3.42,13.85,7.23,17.85,12.74-2.47,.85-4.99,1.63-7.39,2.36-.48-.45-.96-.91-1.44-1.36-.23-.22-.48-.44-.71-.65-.13-.14-.28-.28-.42-.38-.83-.79-1.67-1.56-2.53-2.3-.98-.9-1.99-1.77-2.98-2.63-1.67-1.46-3.37-2.84-5.06-4.21,.66-.95,1.33-1.86,2.01-2.73,.22-.29,.44-.56,.67-.84Z"/><path class="g" d="M238.81,111.69h0s-.01,.01-.01,.01t.01-.01Z"/><path class="f" d="M238.33,136.23c.79,.76,1.58,1.52,2.35,2.29-3.06,.13-6.28,.23-9.66,.3,1.42-1.51,3.08-2.98,5.16-4.6,.23,.21,.48,.43,.71,.65,.48,.45,.96,.91,1.44,1.36Z"/><path class="g" d="M233.23,131.54c.86,.74,1.7,1.51,2.53,2.3-.83-.78-1.67-1.56-2.53-2.3Z"/><path class="m" d="M209.4,116.57c9.02,5.01,16.7,12.24,15.38,16.7-1.14,3.88-12.86,5.37-20.08,5.66-.02,.01-.03,.01-.05,0-2.01-.03-3.96-.06-5.85-.11,.15-8.07,4.44-15.08,10.6-22.25Z"/><path class="f" d="M221.75,80.06c.68,0,1.35,.05,2.01,.12h.03c2.76,.3,5.39,1.01,7.68,2.15,1.96,.98,3.73,2.49,5.34,4.44,1.84,2.23,3.48,5,4.91,8.19,0,.01,.01,.01,.01,.03,.42,.95,.83,1.91,1.21,2.92h.01s.03,.07,.04,.11c1.49,3.85,2.73,8.15,3.75,12.68-1.88-.18-3.77-.08-5.67,.33l-.08-.34c-.75-2.28-2.44-12.18-9.64-22.42-3.67-5.21-11.64-6.79-18.15-7.31,2.83-.69,5.74-1.01,8.55-.9Z"/><path class="i" d="M213.95,72.8c.81,.01,1.43,2.55,1.7,5.62,0,.79-.98,1.18-1.96,1.11-.18-.85-.77-2.13-1.58-3.53,.49-1.92,1.2-3.22,1.84-3.2Z"/><path class="e" d="M283.74,152c-17.86,4.07-52.58,4.46-73.71,.93v-.1c1.58,.01,3.19,.01,4.84,.01,32.97,0,53.13-1.87,65.44-5.07,8.47-2.19,13.24-5.01,15.92-8.26l.16,.16c0,30.72,0,56.01-66.69,59.16,2.38-.48,31.69-1.99,46.59-23.3,4.9-7.01,6.76-16.82,7.45-23.53Z"/><path class="i" d="M221.53,55.69c2.64,.82,5.28,12.76,2.23,24.49-.66-.07-1.33-.12-2.01-.12v-.24c1.12-6.06,.86-16.57-1.94-17.96-2.12-1.05-4.53,2.1-7.44,2.15-4.28,.09-4.58-11.16-18.36-36.24,6.97,1.17,16.52,32.18,20.06,33.27,3.43,1.06,2.8-6.81,7.46-5.35Z"/><path class="i" d="M213.69,79.53c-1.09-.08-2.19-.76-1.88-2.13,.09-.5,.19-.97,.3-1.4,.81,1.4,1.4,2.68,1.58,3.53Z"/><path class="j" d="M196.86,70.99c-.31-10.8-8.61-40.61-4.36-42.97,.49-.27,.99-.35,1.51-.25,13.78,25.08,14.08,36.33,18.36,36.24,2.91-.05,5.32-3.2,7.44-2.15,2.8,1.39,3.06,11.9,1.95,17.96v.24c-2.82-.11-5.73,.21-8.56,.9l-.12,.03c.28-.18,.48-.39,.6-.63,.09-.18,.09-.47,.01-.83,.98,.07,1.96-.32,1.96-1.11-.27-3.07-.89-5.61-1.7-5.62-.64-.02-1.35,1.28-1.84,3.2-2.22-3.81-6.06-8.49-7.63-7.77-1.84,.86,1.95,10.34,3.13,12.13,.63,.95,2.02,1.31,3.32,1.24-4.23,1.35-8.17,3.56-11.22,6.54h-.01c-.07,.08-.15,.15-.22,.23-6.74-3.4-13.43-11.86-12.51-13.72,1.01-2.06,3.74-.01,6.14,.69,.01,0,.02,0,.02,0,1.61,.97,3.45,2.55,4.28,1.97,1.08-.76-.4-4.01-.53-6.33h-.02Z"/><path class="i" d="M213.68,80.36c-.12,.24-.32,.45-.6,.63h-.01c-.72,.18-1.44,.38-2.14,.61-1.3,.07-2.69-.29-3.32-1.24-1.18-1.79-4.97-11.27-3.13-12.13,1.57-.72,5.41,3.96,7.63,7.77-.11,.43-.21,.9-.3,1.4-.31,1.37,.79,2.05,1.88,2.13,.08,.36,.08,.65-.01,.83Z"/><path class="g" d="M210.93,81.6c.7-.23,1.42-.43,2.14-.6-.53,.34-1.32,.56-2.14,.6Z"/><path class="f" d="M202.34,111.4c3.17,.81,6.74,2.46,10.51,4.66,3.96,2.33,8.13,5.32,12.34,8.64,1.69,1.37,3.39,2.75,5.06,4.21,.99,.86,2,1.73,2.98,2.63,.86,.74,1.7,1.52,2.53,2.3,.14,.1,.29,.24,.42,.38-2.08,1.62-3.74,3.09-5.16,4.6-5.01,.11-10.39,.17-16.16,.17-3.53,0-6.92-.02-10.16-.06,7.22-.29,18.94-1.78,20.08-5.66,1.32-4.46-6.36-11.69-15.38-16.7-4.82-2.68-10.02-4.73-14.44-5.39,.38-.09,.77-.16,1.16-.22,.29-.04,.57-.07,.86-.11,1.2-.12,2.52-.04,3.92,.22,.47,.08,.95,.19,1.44,.33Z"/><path class="m" d="M238.81,111.69s-.01-.01-.01,.01c-2.69,1.04-5.47,3.28-8.28,6.31h-.01c-.89,.95-1.78,2.01-2.64,3.12-.23,.28-.45,.55-.67,.84-.68,.87-1.35,1.78-2.01,2.73-4.21-3.32-8.38-6.31-12.34-8.64-3.77-2.2-7.34-3.85-10.51-4.66-.49-.14-.97-.25-1.44-.33-1.4-.26-2.72-.34-3.92-.22-.29,.04-.57,.07-.86,.11-.26-.64-.5-1.28-.72-1.9-.9-2.54-1.47-4.89-1.62-7.01-.08-1.15-.04-2.23,.14-3.23,.07-.36,.13-.73,.22-1.09,0-.03,.02-.07,.03-.1,.87-3.59,2.76-6.7,5.31-9.26,.07-.08,.15-.15,.22-.22h.01c3.05-2.99,6.99-5.2,11.22-6.55,.82-.04,1.61-.26,2.14-.6h.01l.12-.04c6.51,.52,14.48,2.1,18.15,7.31,7.2,10.24,8.89,20.14,9.64,22.42l.08,.34c-.43,.09-.86,.2-1.29,.33-.23,.06-.45,.14-.68,.23h-.01c-.09,.03-.18,.07-.27,.11h0Z"/><path class="i" d="M196.88,70.99c.13,2.32,1.61,5.57,.53,6.33-.83,.58-2.67-1-4.28-1.97,1.31,.38,2.52,.36,3.3-.97,.36-.62,.49-1.8,.43-3.39h.02Z"/><path class="m" d="M194.96,111.18c4.42,.66,9.62,2.71,14.44,5.39-6.16,7.17-10.45,14.18-10.6,22.25-8.55-.19-16.04-.53-22.59-1.03,.08-3.72,.88-7.57,2.34-11.17,.5-.68,.85-1.47,.95-2.16,1.21-2.49,2.75-4.8,4.6-6.79,.56-.64,1.18-1.24,1.82-1.81,1.96-1.74,4.19-3.1,6.65-3.99,.01-.01,.03-.02,.04-.02,.21-.09,.42-.15,.64-.22,.01,0,.03-.02,.04-.02,.14-.04,.27-.08,.41-.12h.02c.4-.12,.82-.22,1.24-.31Z"/><path class="g" d="M195.4,109.06c.22,.62,.46,1.26,.72,1.9-.39,.06-.78,.13-1.16,.22-.42,.09-.84,.19-1.24,.31h-.02c-.13,0-.26,.01-.39,.01-3.34,.11-6.51,.23-9.5,.39-3.58-5.56-9.16-10.3-10.73-9.67-3.29,1.35,2.94,7.5-.96,9.44-1.06,.51-3.57,.28-6.91-.37-3.91-.75-8.96-2.07-14.13-3.43-3.36-.87-6.76-1.77-9.95-2.52-.04-.01-.09-.02-.13-.03,2.07-.96,4.52-1.84,7.45-2.64,7.03-1.93,16.76-3.4,30.22-4.31,4.69-.32,9.85-.56,15.5-.73-.01,.03-.02,.07-.03,.1-.09,.36-.15,.73-.22,1.09-.18,1-.22,2.08-.14,3.23,.15,2.12,.72,4.47,1.62,7.01Z"/><path class="e" d="M183.81,111.89c2.99-.16,6.16-.28,9.5-.39,.13,0,.26-.01,.39-.01-.14,.04-.27,.08-.41,.12-.01,0-.03,.02-.04,.02-.22,.07-.43,.13-.64,.22-.01,0-.03,.01-.04,.02-2.46,.89-4.69,2.25-6.65,3.99-.54-1.33-1.27-2.67-2.11-3.97Z"/><path class="j" d="M184.1,117.67c-1.85,1.99-3.39,4.3-4.6,6.79,.07-.44,.03-.85-.14-1.15-.95-1.74-14.73-2.12-15.21,.47-.37,1.99,9.56,4.4,11.7,4.47,1.02,.04,2-.69,2.7-1.63-1.46,3.6-2.26,7.45-2.34,11.17-10.39-.77-18.44-1.91-24.68-3.34v-.02c0-2.25,2.44-2.84,4.22-3.67,1.7-.9,5.78-.59,5.85-1.79,.07-1.07-4.29-2.21-6.93-3.32-.01,0-.02-.01-.02-.01-2.89-1.88-7.59-4.32-12.36-6.94h-.01s-.08-.04-.12-.07c-3.53-1.94-7.07-3.97-9.97-5.94-.01,0-.01-.01-.02-.01-4.56-3.13-7.46-6.1-5.99-8.35,.32-.5,1.04-.78,2.07-.89v.11c14.79,3.15,26.32,7.51,34.15,10.25h.01c6.46,2.26,10.4,3.41,11.58,1.87,1.77-2.32,.09-6.41,2.3-7.26,1.99-.76,6.12,4.17,7.8,9.25h.01Z"/><path class="g" d="M178.55,126.62c.28-.73,.6-1.45,.95-2.16-.1,.69-.45,1.48-.95,2.16Z"/><path class="i" d="M164.15,123.78c.48-2.59,14.26-2.21,15.21-.47,.17,.3,.21,.71,.14,1.15-.35,.71-.67,1.43-.95,2.16-.7,.94-1.68,1.67-2.7,1.63-2.14-.07-12.07-2.48-11.7-4.47Z"/><path class="i" d="M154.67,125.65c2.64,1.11,7,2.25,6.93,3.32-.07,1.2-4.15,.89-5.85,1.79,1.19-.55,2.08-1.2,1.78-2.5-.15-.64-1.21-1.53-2.86-2.61Z"/><path class="e" d="M141.86,118.76c.1-.04,.2-.08,.3-.13,.04,.03,.08,.05,.12,.07h.01c4.77,2.62,9.47,5.06,12.36,6.94,0,0,.01,.01,.02,.01,1.65,1.08,2.71,1.97,2.86,2.61,.3,1.3-.59,1.95-1.78,2.5-1.78,.83-4.22,1.42-4.22,3.67v.02c-10.27-2.38-15.62-5.56-18.42-9.3h0s-.03-.04-.04-.05c.01-.02,.03-.04,.04-.06,1.74-2.33,4.47-4.45,8.75-6.28Z"/><path class="g" d="M133.11,125.15c2.8,3.74,8.15,6.92,18.42,9.3,6.24,1.43,14.29,2.57,24.68,3.34,6.55,.5,14.04,.84,22.59,1.03,1.89,.05,3.84,.08,5.85,.11,.02,.01,.03,.01,.05,0,3.24,.04,6.63,.06,10.16,.06,5.77,0,11.15-.06,16.16-.17,3.38-.07,6.6-.17,9.66-.3,2.62-.1,5.12-.23,7.51-.37,9.19-.54,16.74-1.33,22.94-2.33,3.48-.57,6.53-1.2,9.21-1.9l.05,.2c2.28,3.11,2.72,11.07-.08,13.65-12.31,3.2-32.47,5.07-65.44,5.07-1.65,0-3.26,0-4.84-.01-51.91-.31-70.12-5.56-76.51-13.31-3.45-4.2-3.45-9.12-3.45-14.38,0-2.35,0-4.65,.31-6.84h.01c.37,2.41,1.12,4.69,2.68,6.8,.01,.01,.02,.03,.04,.04h0Z"/><path class="g" d="M130.39,118.3h-.01v-.03c.29-1.95,.72-3.7,1.71-5.47l.08-.12s.01,.01,.02,.01c2.9,1.97,6.44,4,9.97,5.94-.1,.05-.2,.09-.3,.13-4.28,1.83-7.01,3.95-8.75,6.28-.01,.02-.03,.04-.04,.06-1.56-2.11-2.31-4.39-2.68-6.8Z"/><path class="i" d="M151.08,107.86c5.17,1.36,10.22,2.68,14.13,3.43,3.34,.65,5.85,.88,6.91,.37,3.9-1.94-2.33-8.09,.96-9.44,1.57-.63,7.15,4.11,10.73,9.67,.84,1.3,1.57,2.64,2.11,3.97-.64,.57-1.26,1.17-1.82,1.81h-.01c-1.68-5.09-5.81-10.02-7.8-9.26-2.21,.85-.53,4.94-2.3,7.26-1.18,1.54-5.12,.39-11.58-1.87h-.01c-7.83-2.74-19.36-7.1-34.14-10.25v-.11c2.64-.27,7.34,.59,12.74,1.87,.04,.01,.09,.02,.13,.03,3.19,.75,6.59,1.65,9.95,2.52Z"/></g></g><g id="d"><path class="l" d="M246.73,110.58c1.77,.14,3.5,.54,5.17,1.13,.57,.2,1.14,.42,1.7,.67,3.36,1.47,6.48,3.71,9.13,6.45,.45,.45,.87,.93,1.29,1.42,2.48,2.86,4.44,6.12,5.69,9.5,.72,1.97,1.21,3.97,1.4,5.95"/><path class="l" d="M225.17,124.58c1.69,1.36,3.39,2.75,5.06,4.2,.99,.86,2,1.73,2.98,2.63,.86,.75,1.7,1.51,2.53,2.3,.14,.11,.29,.24,.42,.38,.23,.22,.48,.44,.71,.65,1.28,1.21,2.56,2.42,3.8,3.66"/><path class="l" d="M251.9,111.69c0-4.35,1.55-9.48,3.25-13.04,.06-.13,.13-.26,.19-.38,1.21-2.41,2.47-4.02,3.31-4.02,1.89,0,1.79,2.31,1.94,4.5,.01,.13,.02,.27,.03,.4h.02c.15,1.75,.58,3.32,2.45,3.45,1.07,.09,3.04-.88,5.55-2.47,.17-.11,.34-.21,.51-.33,.11-.07,.23-.15,.35-.23,10.72-6.99,29.78-23.54,33.39-21.05,4.66,3.23-7.57,16.89-14.95,26.02l-.24,.3c-2.92,3.64-5.02,6.53-4.84,7.66,.57,3.54,7.36-.51,8.12,4.31,.1,.61-.3,1.47-1.13,2.46-.06,.1-.15,.19-.23,.29-3.03,3.46-10.8,8.36-19.91,10.18"/><path class="l" d="M227.85,121.01c9.41,4.26,16.85,9.12,20.37,17.1"/><path class="l" d="M296.38,139.55c0,32.85,0,59.49-81.52,59.49s-81.52-26.63-81.52-59.49"/><path class="l" d="M299.65,125.02c0,15.29,0,27.69-84.8,27.69s-84.8-12.4-84.8-27.69"/><path class="l" d="M299.32,118.09h0c-.36,2.46-1.11,4.79-2.71,6.93-6.17,8.29-24.91,13.85-81.77,13.85s-75.57-5.57-81.75-13.84c-1.59-2.14-2.35-4.44-2.72-6.87h0"/><line class="l" x1="260.64" y1="99.15" x2="260.62" y2="99.15"/><path class="l" d="M130.05,125.02c0-.85,0-1.7,.02-2.53,0-.32,.01-.64,.02-.95,.04-1.14,.12-2.26,.28-3.36v-.03"/><path class="l" d="M238.81,111.58h-.01s-.01,0-.01,0"/><path class="l" d="M142.27,118.58h0"/><line class="l" x1="269.5" y1="99.58" x2="269.5" y2="99.57"/><path class="l" d="M241.72,94.86s-.01-.01-.01-.03"/><line class="l" x1="244.95" y1="97.59" x2="244.94" y2="97.59"/><path class="l" d="M240.67,138.41h-.01c-1.23-1.25-2.5-2.45-3.78-3.66-.23-.22-.48-.44-.71-.66-.14-.13-.29-.27-.42-.38-.83-.77-1.68-1.55-2.53-2.3-.98-.9-1.99-1.77-2.98-2.62-1.68-1.46-3.38-2.85-5.06-4.21-4.21-3.32-8.39-6.31-12.35-8.64-3.77-2.2-7.33-3.85-10.5-4.67-.49-.13-.97-.24-1.44-.32-.1-.02-.21-.04-.31-.05h-.01c-1.29-.22-2.5-.28-3.6-.17-.29,.04-.58,.07-.86,.11-.36,.06-.72,.12-1.08,.19h-.02c-.59,.13-1.17,.28-1.73,.46-.01,0-.03,.01-.04,.01-.22,.07-.43,.14-.63,.22h-.01s-.03,.02-.04,.03c-2.47,.88-4.7,2.24-6.66,3.99-6.01,5.32-9.55,13.94-9.7,21.93m4.8,14.17h-.01"/><path class="l" d="M151.51,134.31c0-3.74,6.75-2.91,6-6.18-.41-1.76-7.73-5.43-15.24-9.55h-.01c-3.57-1.96-7.16-4.03-10.08-6.01-4.57-3.13-7.48-6.11-6.01-8.36,1.17-1.78,7.4-.79,14.95,1.01,3.18,.75,6.59,1.65,9.95,2.52,5.17,1.36,10.22,2.68,14.12,3.43,3.35,.65,5.85,.88,6.91,.37,3.91-1.93-2.33-8.08,.97-9.43,1.93-.79,9.97,6.61,12.83,13.63"/><path class="l" d="M240.67,138.41c-1.24-1.24-2.52-2.45-3.8-3.66-.23-.22-.48-.44-.71-.65-.14-.14-.29-.27-.42-.38-.83-.79-1.67-1.55-2.53-2.3-.98-.9-1.99-1.77-2.98-2.63-1.67-1.46-3.37-2.84-5.06-4.2,.67-.95,1.33-1.86,2.01-2.74,.22-.29,.44-.56,.67-.84,.86-1.1,1.76-2.16,2.64-3.12h.01c2.8-3.03,5.59-5.27,8.27-6.31t.01,0"/><path class="l" d="M196.11,110.84c-.26-.64-.5-1.28-.72-1.91-.9-2.53-1.47-4.89-1.62-7.01-.08-1.14-.04-2.23,.14-3.23,.07-.37,.14-.73,.22-1.09,.9-3.74,2.88-6.95,5.57-9.58h.01c6.08-5.96,15.73-8.84,24.07-7.97,2.76,.3,5.39,1.01,7.69,2.15,1.96,.98,3.73,2.49,5.33,4.44,1.84,2.23,3.48,5.01,4.91,8.19,0,.01,.01,.01,.01,.03,.44,.98,.86,1.99,1.25,3.03,1.5,3.85,2.74,8.15,3.76,12.68-2.3-.22-4.63-.03-6.97,.65-.31,.1-.64,.2-.95,.34h-.01"/><path class="l" d="M199.7,88.03c-6.78-3.36-13.58-11.92-12.65-13.8,1.57-3.18,7.26,3.49,9.47-.26,2.83-4.82-8.81-43.65-3.93-46.36,7.01-3.88,17.76,31.85,21.56,33.02,3.43,1.06,2.81-6.81,7.46-5.36,2.66,.83,5.32,12.96,2.16,24.8"/><path class="l" d="M200.89,110.95c6.75-5.01,13.41-8.24,20.84-7.91"/><path class="l" d="M230.11,118.12c.14-.08,.26-.17,.39-.23h.02"/><path class="l" d="M192.56,111.76s.03-.02,.04-.04h.01c.23-.21,.46-.41,.68-.63"/><line class="l" x1="165.2" y1="111.16" x2="165.19" y2="111.17"/><path class="l" d="M210.36,115.33c-6.68,7.57-11.42,14.89-11.57,23.38"/><path class="l" d="M236.17,134.1c-2.08,1.62-3.76,3.1-5.17,4.61"/><path class="l" d="M255.34,98.27c-3.22-.26-6.68-.49-10.39-.68h-.01c-.7-.03-1.41-.07-2.13-.1"/><path class="l" d="M140.56,105.09c2.15-1.03,4.74-1.98,7.87-2.84,7.03-1.92,16.76-3.39,30.22-4.3,4.71-.32,9.89-.56,15.57-.73"/><path class="l" d="M132.03,112.47c-1.5,2.79-1.86,5.85-1.94,9.07-.02,.73-.03,1.47-.03,2.21v.87"/><path class="l" d="M287.94,104.54c11.72,5.04,11.72,12.17,11.72,20.08"/><path class="l" d="M269.15,99.8c-2.62-.39-5.47-.74-8.56-1.05"/><path class="l" d="M289.85,119.27c3.16,1.61,5.31,3.4,6.76,5.34,.05,.07,.1,.14,.14,.21"/><path class="l" d="M132.95,124.84s0-.01,.01-.01c.03-.07,.08-.13,.13-.2,1.74-2.33,4.47-4.45,8.75-6.28"/><path class="l" d="M200.97,110.89c-.13,0-.26,0-.39,.01h-.01"/><path class="l" d="M195.03,111.03h-.02c-.58,.02-1.15,.04-1.72,.06-3.4,.11-6.62,.24-9.67,.4"/></g></svg>