<?xml version="1.0" encoding="UTF-8"?><svg xmlns="http://www.w3.org/2000/svg" viewBox="0 0 336.39 524.48"><defs><style>.e{fill:#ead0d0;}.f{fill:#fcb9b9;}.g{fill:#fff;}.h{fill:#eab5a7;}.i{fill:#bc7171;}.j{fill:#d84e4e;}.k{fill:#472b28;}.l{fill:#824f46;}.m{fill:#aa3d3d;}.n{stroke-width:2px;}.n,.o{fill:none;stroke:#3f2a25;stroke-linecap:round;stroke-linejoin:round;}.p{fill:#eaa0a0;}.q{fill:#b27967;}.r{fill:#d17e75;}.s{fill:#935d51;}.t{fill:#e08f82;}</style></defs><g id="a"><path class="n" d="M205.91,210.6c1.9,3.83,3.47,7.98,4.67,12.43,.88,3.24,2.15,5.31,3.49,7.18,2.25,3.15,4.69,5.78,5.8,12.58,2.23,13.72-22.14,27.4-40.71,32.55"/><path class="n" d="M113.47,235.64c.13,1.35,.31,2.72,.54,4.11,.93,5.7,2.17,10.79,3.84,15.24,1.86,4.96,4.25,9.14,7.34,12.53,7.17,7.87,18.11,11.48,34.88,10.63"/><path class="n" d="M151.84,178.74c-.8-14.09-9.14-36.34-15.19-61.3-3.51-14.5,2.27-35.59,11.38-35.88,12.21-.39,38.72,29.22,40.01,55.86,.91,18.93-5.09,32.28-7.92,41.75"/><path class="n" d="M112.73,208.38c-10.48-7.87-27.26-17.92-37.65-30.93-16.66-20.84-16.35-60.59-6.93-68.37,7.02-5.8,25.31,6.2,32.26,19.39,9.95,18.88,20.74,43.15,29.92,58.27"/><path class="n" d="M214.08,230.21c8.79-10.3,22.6-18.38,33.99-21.15"/><path class="n" d="M249.22,229.15c-11.75,1.68-21.86,4.93-29.93,10.03"/><path class="n" d="M117.85,254.99c-9.52,.65-18.96,3.2-25.98,6.84"/><path class="n" d="M104.21,277.72c7.11-4.61,14.12-8.07,20.98-10.2"/><path class="n" d="M160.07,278.15c.51,3.14,.43,5.07-.37,7.31-1.41,3.95-9.99,2.21-12.13,5.21-7.36,10.31-34.17,34.18-30.26,45.92,4.27,12.81,21.97,36.45,26.87,42.78,1.09,1.4,2.35,2.4,3.67,3.1"/><path class="n" d="M189.8,391.43c3.52,13.63,9.22,31.08,12.42,33,4.66,2.8,13.27,1.94,15.92-.71,2.2-2.22,8-19.62-.53-72.26-.68-4.19-2.24-9.77-4.34-15.94-3.9-11.44-9.63-24.89-14.93-35.12"/><path class="n" d="M179.16,275.34c.24,1.89,.64,5.61,3.11,7.31,.76,.53,1.78,1.07,2.84,1.62"/><path class="n" d="M147.85,382.46h0c1.16,20.27,8.07,47.13,10.55,47.78,6.3,1.66,13.82,1.69,16.56-.52,2.44-1.98,2.36-26.26,8.09-34.96,.94-1.43,3.65-2.48,6.75-3.33"/><path class="n" d="M198.34,300.4c28.8-8.29,39.1-22.82,50.06-27.2,4.62-1.85,17.87-6.13,24.26-9.65,1.09-.6,11.63-11.17,10.17-19.83-1.3-7.73-14.1-10.84-20.74-9.78-13.89,2.2-25.92,11.57-30.65,15.39-6.8,5.48-21.07,33.71-30,32.77-4.7-.49-4.53-1.19-9.52,.03-2.73,.67-5.45,1.62-6.81,2.14"/><path class="n" d="M180.12,179.17c11.03-7.37,20.85-12.1,23.28-9.08"/><path class="n" d="M203.4,170.09c8.7,9.71,16.61,25.69,15.58,30.32-.9,4.09-10.73,9.52-13.07,10.19"/><path class="n" d="M112.73,208.38c-4.15,9.86-4.67,19.96-1.81,26.6,.28,.65,1.16,.88,2.55,.66"/><path class="n" d="M130.32,186.74h0c5.89-4,13.04-6.9,21.51-8"/><path class="n" d="M282.97,246.65s-.05,.03-.07,.05"/></g><g id="b"><g><path class="i" d="M282.41,246.3c-.86,7.93-9.27,16.31-10.24,16.84-6.39,3.53-19.63,7.81-24.26,9.65-9.37,3.74-18.26,14.92-38.64,23.26-5.51-4.89-6.55-7.5-5.07-15.09h0c8.83-4.46,20.73-27.18,26.76-32.03,4.73-3.82,16.76-13.19,30.65-15.4,4.57-.72,12.07,.53,16.71,3.9,2.1,1.52,3.62,3.48,4.03,5.89,.16,.97,.17,1.97,.06,2.98Z"/><path class="i" d="M187.93,245.41c1.95-.61,3.28-3.39,2.39-3.9-.82-.48-7.04,.97-7.06,2.16-.03,1.57,2.14,2.52,4.67,1.74Zm-6.91,8.9c1.48,2.62,3.61,6.72,7.25,6.13,2.79-.46,7.36-5.78,6.03-11.5-.46,.08-.95,.14-1.47,.21-.7,.1-1.45,.23-2.22,.49-.16,.05-.33,.13-.51,.22-.24,.1-.49,.24-.77,.4-1.25,.71-2.87,1.8-4.7,2.71-1.13,.57-2.35,1.06-3.61,1.34Zm-56.31,12.81c-3.09-3.39-5.48-7.57-7.34-12.53h0c-1.67-4.46-2.91-9.54-3.84-15.24-.23-1.39-.41-2.76-.54-4.11,5.01-.78,16.6-7.32,30.64-20.42,3.87,2.25,16.77,2.03,22-5.61,5.61-8.21,12.21-15.79,18.28-22.06h.01c9.02,4.89,16.44,12.81,21.51,23.05,1.9,3.83,3.47,7.98,4.67,12.43,.88,3.24,2.15,5.31,3.49,7.18,2.25,3.15,4.69,5.78,5.8,12.58,2.23,13.72-22.17,27.41-40.74,32.55-2.99,.83-5.83,1.43-8.38,1.78-3.82,.52-7.39,.87-10.73,1.03-16.75,.84-27.67-2.76-34.83-10.63Zm56.14-49.87c1.26,1.06,6.76-2.24,6.43-4.09-.2-1.08-2.47-1.97-4.27-1.33-2.61,.93-3.07,4.66-2.16,5.42Zm-20.83,6.22c.15-.85-2.13-2.62-4.52-2.13-1.8,.37-3.36,1.99-3.07,2.75,.53,1.37,7.36,.75,7.59-.62Z"/><path class="i" d="M202.91,169.69c8.71,9.71,16.62,25.69,15.59,30.32-.91,4.09-10.74,9.52-13.07,10.19-5.07-10.24-12.49-18.16-21.51-23.04h-.01c10.26-10.59,19-17.47,19-17.47Z"/><path class="i" d="M189.31,391.03c-3.11,.85-5.81,1.9-6.74,3.33-5.74,8.7-5.65,32.98-8.09,34.96-2.74,2.21-10.26,2.18-16.57,.52-2.48-.65-9.39-27.51-10.54-47.77,2.06,1.09,4.28,1.45,6.24,1.48h0c2.38,.05,4.37-.4,5.25-.62,2.02-.52,3.62-2.19,4.82-4.53,3.54-6.9,3.57-19.58,.4-25.39-.85-1.55-1.75-3.04-2.7-4.49,36.32,5.32,43.04-2.1,51.41-13.39,2.1,6.17,3.67,11.75,4.34,15.93,8.53,52.64,2.73,70.04,.52,72.26-2.64,2.65-11.25,3.51-15.91,.71-3.2-1.92-8.91-19.37-12.43-33Z"/><path class="i" d="M150.47,317.7c-4.17-5.68-7-8.1-19.29-9.1,6.25-7.24,12.81-13.99,15.91-18.33,2.14-3,10.71-1.26,12.13-5.21,12.49,10.53,22.56,6.62,22.56-2.81,.76,.53,1.78,1.07,2.84,1.62,2.22,1.13,4.65,2.27,5.45,3.27,2.24,2.83,4.95,7.38,7.79,12.86,5.29,10.23,11.03,23.68,14.93,35.12h0c-8.37,11.3-15.09,18.72-51.41,13.4-4.89-7.47-10.81-13.57-14.69-17.81,.23-4.17,1.76-8.65,3.78-13.01Z"/><path class="i" d="M204.2,280.96c-1.48,7.59-.44,10.2,5.07,15.09-3.45,1.42-7.24,2.75-11.41,3.95-2.84-5.48-5.55-10.03-7.79-12.86-.8-1-3.23-2.14-5.45-3.27,1.36-.52,4.09-1.47,6.81-2.14,4.99-1.22,4.82-.53,9.53-.03,1.01,.11,2.1-.17,3.24-.74Z"/><path class="i" d="M143.63,214.82c-.47-.28-.8-.59-.98-.92-1.92-3.64,14.55-19.03,30.83-30.84h.01c1.31-.96,2.63-1.89,3.93-2.78,.74-.52,1.48-1.02,2.22-1.51,11.03-7.38,20.84-12.1,23.27-9.08,0,0-8.74,6.88-19,17.46-6.07,6.27-12.67,13.85-18.28,22.06-5.23,7.64-18.13,7.86-22,5.61Z"/><path class="i" d="M194.3,248.94c1.33,5.72-3.24,11.04-6.03,11.5-3.64,.59-5.77-3.51-7.25-6.13,1.26-.28,2.48-.77,3.61-1.34,.19,.29,.65,4,3.36,3.56,1.82-.3,4.93-4.32,4.85-7.32v-.06c.51-.07,1-.13,1.46-.21Z"/><path class="i" d="M192.84,249.21c.08,3-3.03,7.02-4.85,7.32,1.13-1.27,1.74-5.11,1.34-6.26h0c.28-.17,.53-.31,.77-.41,.18-.09,.35-.17,.51-.22,.77-.26,1.52-.39,2.22-.49v.06Z"/><path class="i" d="M190.32,241.51c.89,.51-.44,3.29-2.39,3.9-2.53,.78-4.7-.17-4.67-1.74,.02-1.19,6.24-2.64,7.06-2.16Z"/><path class="i" d="M189.33,250.27c.4,1.15-.21,4.99-1.34,6.26-2.71,.44-3.17-3.27-3.36-3.56,1.83-.91,3.45-2,4.7-2.71h0Z"/><path class="i" d="M187.56,137.02c.91,18.93-5.09,32.28-7.92,41.75-.74,.49-1.48,.99-2.22,1.51-9.77-2.45-18.44-2.93-26.06-1.94-.8-14.09-9.14-36.34-15.19-61.3-3.51-14.5,2.27-35.59,11.38-35.88,12.21-.39,38.72,29.22,40.01,55.86Z"/><path class="i" d="M187.28,213.16c.33,1.85-5.17,5.15-6.43,4.09-.91-.76-.45-4.49,2.16-5.42,1.8-.64,4.07,.25,4.27,1.33Z"/><path class="i" d="M178.65,274.94c.25,1.86,.62,5.56,3.13,7.31,0,9.43-10.07,13.34-22.56,2.81,.8-2.24,.85-4.05,.33-7.19v-.12c3.33-.16,6.9-.51,10.72-1.03,2.55-.35,5.39-.95,8.38-1.78Z"/><path class="i" d="M122.62,219.91c12.7-2.41,16.92-11.5,15.76-22.06-2.61-2.48-5.48-6.49-8.53-11.51,5.89-4,13.04-6.9,21.51-8,7.62-.99,16.29-.51,26.06,1.94-1.3,.89-2.62,1.82-3.93,2.78h-.01c-16.28,11.81-32.75,27.2-30.83,30.84,.18,.33,.51,.64,.98,.92-14.04,13.1-25.63,19.64-30.64,20.42-1.39,.22-2.27-.01-2.55-.66-2.86-6.64-2.34-16.73,1.81-26.59,3.91,2.93,6.93,5.57,8.42,7.94,.01,.02,.02,.03,.02,.04,.62,1.31,1.26,2.62,1.93,3.94Z"/><path class="i" d="M147.37,382.07c-1.33-.7-2.59-1.7-3.67-3.1-4.9-6.33-22.6-29.97-26.87-42.78-2.27-6.79,5.76-17.65,14.35-27.59,12.29,1,15.12,3.42,19.29,9.1-2.02,4.36-3.55,8.84-3.78,13.01,3.88,4.24,9.8,10.34,14.69,17.81,.95,1.45,1.85,2.94,2.7,4.49,3.17,5.81,3.14,18.49-.4,25.39-1.2,2.34-2.8,4.01-4.82,4.53-.88,.22-2.87,.67-5.25,.63h0c-1.96-.04-4.18-.4-6.24-1.49Z"/><path class="i" d="M155.5,221.34c2.39-.49,4.67,1.28,4.52,2.13-.23,1.37-7.06,1.99-7.59,.62-.29-.76,1.27-2.38,3.07-2.75Z"/><path class="i" d="M129.85,186.34c3.05,5.02,5.92,9.03,8.53,11.51,1.16,10.56-3.06,19.65-15.76,22.06-.67-1.32-1.31-2.63-1.93-3.94,0-.01-.01-.02-.02-.04-1.49-2.37-4.51-5.01-8.42-7.94h0c-10.47-7.88-27.26-17.93-37.66-30.94-16.65-20.84-16.34-60.59-6.93-68.37,7.03-5.8,25.32,6.2,32.27,19.39,9.94,18.88,20.73,43.15,29.92,58.27Z"/></g></g><g id="c"><g><path class="j" d="M203.66,285.96c-.1,4.21,1.51,6.6,5.67,10.29-3.46,1.42-7.24,2.75-11.42,3.95-2.84-5.48-5.55-10.03-7.79-12.85,3.16-.98,8.36-1.12,13.54-1.39Z"/><path class="m" d="M155.5,308.52c-1.7,2.94-3.47,6.13-4.97,9.38-.59-.8-1.16-1.54-1.73-2.22,2.78-3.08,5.83-6.1,7.49-8.52-.26,.44-.52,.9-.79,1.36Z"/><path class="m" d="M150.53,317.9c1.5-3.25,3.27-6.44,4.97-9.38-1.83,6.97-5.94,18.65-5.94,25.43-1.02-1.09-1.96-2.1-2.81-3.03,.23-4.18,1.76-8.66,3.78-13.02Z"/><path class="m" d="M212.85,335.33h-.01c-.69,.93-1.37,1.84-2.06,2.71-2.26-11.06-5.63-22.74-10.54-33.19,4.6,9.45,9.28,20.7,12.61,30.48Z"/><path class="m" d="M204.26,281.16c-.36,1.87-.58,3.43-.6,4.8-5.18,.27-10.38,.41-13.54,1.39-.79-1.01-3.22-2.14-5.44-3.27h0c1.36-.53,4.09-1.48,6.81-2.15,4.99-1.22,4.82-.52,9.52-.03,1.02,.11,2.11-.17,3.25-.75h0Z"/><path class="m" d="M183.97,187.36c10.26-10.59,19-17.47,19-17.47,8.71,9.72,16.62,25.7,15.59,30.33-.91,4.08-10.74,9.51-13.08,10.19h0c-5.07-10.25-12.49-18.17-21.51-23.05Z"/><path class="e" d="M131.93,185.24c5.48-3.33,11.97-5.72,19.48-6.7,7.62-.99,16.29-.51,26.06,1.94-1.3,.9-2.61,1.83-3.93,2.78h-.01c-.75,.55-1.5,1.1-2.25,1.66-10.5-3.63-23.51-4.38-39.35,.32Z"/><path class="g" d="M129.9,186.53c.66-.45,1.34-.88,2.03-1.29,15.84-4.7,28.85-3.95,39.35-.32-15.51,11.55-30.41,25.71-28.57,29.19,.18,.33,.51,.64,.97,.91-14.04,13.1-25.63,19.64-30.64,20.42-1.39,.22-2.27-.01-2.55-.66-2.86-6.64-2.34-16.74,1.81-26.6,3.91,2.94,6.94,5.58,8.43,7.96,.01,.02,.02,.03,.02,.04,.47,.98,.94,1.97,1.44,2.95h0c.16,.34,.32,.66,.48,.98,.86-.16,1.68-.35,2.46-.57l.09-.03c10.73-3.08,14.3-11.64,13.21-21.47-2.61-2.48-5.48-6.49-8.53-11.51Z"/><path class="j" d="M143.68,215.02c-.46-.27-.79-.58-.97-.91-1.84-3.48,13.06-17.64,28.57-29.19,.75-.56,1.5-1.11,2.25-1.66h.01c1.32-.95,2.63-1.88,3.93-2.78,.75-.51,1.49-1.02,2.22-1.51,11.03-7.37,20.85-12.09,23.28-9.08,0,0-8.74,6.88-19,17.47-.77,.8-1.56,1.63-2.35,2.48-5.4,5.75-11.04,12.42-15.93,19.58-5.24,7.65-18.15,7.86-22.01,5.6Z"/><path class="j" d="M156.29,307.16c-1.66,2.42-4.71,5.44-7.49,8.52-3.44-4.11-7.01-6.01-17.56-6.88,6.26-7.24,12.8-13.98,15.9-18.32,2.15-3,10.72-1.27,12.13-5.22,12.49,10.53,22.57,6.62,22.57-2.8,.76,.53,1.78,1.07,2.84,1.62,2.22,1.13,4.65,2.26,5.44,3.27,2.24,2.82,4.95,7.37,7.79,12.85,.75,1.46,1.52,2.99,2.29,4.57,0,.03,.03,.05,.04,.08,4.91,10.45,8.28,22.13,10.54,33.19-7.62,9.72-16.02,15.56-49.34,10.69h-.01c-3.81-5.84-8.27-10.85-11.87-14.78,0-6.78,4.11-18.46,5.94-25.43,.27-.46,.53-.92,.79-1.36Z"/><path class="g" d="M188.05,256.73c-2.71,.44-3.17-3.27-3.36-3.56,1.83-.91,3.45-2,4.7-2.7,.4,1.15-.21,4.99-1.34,6.26Z"/><path class="e" d="M192.9,249.41c.08,3.01-3.03,7.02-4.85,7.32,1.13-1.27,1.74-5.11,1.34-6.26,.28-.16,.53-.3,.77-.41,.18-.09,.35-.16,.51-.21,.77-.26,1.52-.39,2.22-.49v.05Z"/><path class="k" d="M194.36,249.15c1.33,5.71-3.24,11.03-6.03,11.49-3.65,.6-5.77-3.51-7.25-6.13,1.26-.28,2.48-.77,3.61-1.34,.19,.29,.65,4,3.36,3.56,1.82-.3,4.93-4.31,4.85-7.32v-.05c.51-.08,1-.13,1.46-.22h0Z"/><path class="f" d="M187.85,241.87c.99,.9,.61,2.42-.86,3.96-2.07,.3-3.7-.59-3.67-1.96,.01-.75,2.5-1.6,4.53-2Z"/><path class="p" d="M190.38,241.71c.89,.52-.44,3.29-2.4,3.9-.34,.1-.67,.18-.99,.22,1.47-1.54,1.85-3.06,.86-3.96,1.19-.25,2.23-.33,2.53-.16Z"/><path class="p" d="M105.91,202.92c8.95-1.35,.94-22.59,0-30.96h.01c4.18,14.89,7.84,29.31,14.81,44.18-1.49-2.38-4.52-5.02-8.43-7.96-2.03-1.52-4.29-3.13-6.7-4.82l.31-.44Z"/><path class="f" d="M105.91,171.96c.94,8.37,8.95,29.61,0,30.96l-.31,.44c-10.03-7.06-22.57-15.62-30.95-26.11-16.65-20.84-16.35-60.58-6.93-68.36,8.41,2.51,18.88,12.68,22.71,20.89,7.48,14.88,11.7,28.71,15.49,42.18h-.01Z"/><path class="r" d="M206.17,233.84c2.26-1,4.57-.73,5.15,.59,.25,.56,.15,1.23-.23,1.89h-.01c-2.18-.46-4.13-.5-5.09-2.39h0c.06-.04,.12-.06,.18-.09Z"/><path class="t" d="M147.05,257.21c.21,1.94-2.18,3.78-5.34,4.12-3.15,.33-5.88-.97-6.09-2.91-.2-1.94,2.19-3.79,5.35-4.12,3.15-.34,5.88,.96,6.08,2.91Z"/><path class="t" d="M205.99,233.93c.96,1.89,2.91,1.93,5.09,2.39h.01c-.51,.88-1.51,1.75-2.8,2.32-2.26,.99-4.57,.73-5.15-.6-.57-1.28,.7-3.1,2.85-4.12h0Z"/><path class="h" d="M187.34,213.37c.33,1.84-5.17,5.14-6.43,4.08-.91-.76-.45-4.48,2.16-5.41,1.8-.65,4.07,.24,4.27,1.33Z"/><path class="h" d="M155.56,221.54c2.38-.49,4.67,1.29,4.52,2.14-.24,1.37-7.06,1.99-7.59,.61-.29-.76,1.26-2.38,3.07-2.75Z"/><path class="l" d="M221.59,392.6c.11,3.26,.12,6.2,.07,8.87-.91,.39-1.92,.7-3.01,.89-4.56,.8-8.64-.73-9.12-3.42-.48-2.7,2.83-5.54,7.39-6.35,1.68-.29,3.29-.27,4.67,.01Z"/><path class="l" d="M179.6,402.16c-.64,2.46-1.16,5.15-1.59,7.86-1.02,.39-2.18,.66-3.42,.75-1.71,.13-3.32-.09-4.66-.56,.14-3.16,.45-6.16,1.18-8.55,.85-.27,1.77-.45,2.75-.52,2.21-.17,4.24,.24,5.74,1.02Z"/><path class="q" d="M160.38,281.16c6.44,2.92,17.07,1.75,18.88-2.88,.41,1.56,1.15,3.18,2.58,4.18,0,9.42-10.08,13.33-22.57,2.8,.5-1.38,.7-2.6,.66-4.09h.45Z"/><path class="s" d="M179.26,278.27h0c-1.81,4.64-12.44,5.81-18.88,2.89h-.45c-.01-.89-.12-1.89-.32-3.09v-.12c3.32-.17,6.89-.51,10.71-1.03,2.56-.35,5.4-.96,8.39-1.78,.1,.81,.24,1.95,.55,3.13Z"/><path class="s" d="M160.89,377.07c.88,.7,1.83,1.23,2.84,1.53-1.19,2.35-2.79,4.02-4.81,4.54-.42,.1-1.09,.26-1.93,.39,2.17-1.18,3.38-3.6,3.9-6.46Z"/><path class="s" d="M171.11,401.66c-.73,2.39-1.04,5.39-1.18,8.55-2.06-.72-3.47-2.06-3.59-3.67-.16-2.06,1.84-3.97,4.77-4.88Z"/><path class="s" d="M178.01,410.02c-1.45,9.07-2,18.31-3.47,19.5-1.32,1.07-3.74,1.61-6.61,1.7,2.64-1.77,1.6-12.05,2-21.01,1.34,.47,2.95,.69,4.66,.56,1.24-.09,2.4-.36,3.42-.75Z"/><path class="s" d="M185.15,392.69c-1.16,.55-2.06,1.16-2.53,1.87-1.26,1.91-2.24,4.58-3.02,7.6-1.5-.78-3.53-1.19-5.74-1.02-.98,.07-1.9,.25-2.75,.52,.49-1.63,1.16-2.98,2.1-3.92,1.28-1.29,8.87-3.93,11.94-5.05Z"/><path class="s" d="M221.59,392.6c-1.38-.28-2.99-.3-4.67-.01-4.56,.81-7.87,3.65-7.39,6.35,.48,2.69,4.56,4.22,9.12,3.42,1.09-.19,2.1-.5,3.01-.89-.3,14.67-2.7,20.79-3.95,22.05-2.64,2.66-11.25,3.51-15.91,.72-3.21-1.92-8.91-19.37-12.43-33h0c3.15-.87,6.73-1.53,9.3-2.15,6.49-1.63,15.43-4.84,15.88-8.57,.69-5.6,.18-23.09-3.77-42.48,.69-.87,1.37-1.78,2.06-2.71h.01c2.1,6.17,3.67,11.75,4.34,15.93,2.82,17.38,4.07,30.92,4.4,41.34Z"/><path class="s" d="M150.53,317.9c-2.02,4.36-3.55,8.84-3.78,13.02-2.13-2.33-3.65-4.1-4.04-5.23,0-.86,.27-1.8,.73-2.78,1.05-2.25,3.12-4.76,5.36-7.23,.57,.68,1.14,1.42,1.73,2.22Z"/><path class="s" d="M146.75,330.92c.85,.93,1.79,1.94,2.81,3.03,3.6,3.93,8.06,8.94,11.87,14.78,.95,1.45,1.86,2.94,2.7,4.49,3.18,5.8,3.14,18.47-.4,25.38-1.01-.3-1.96-.83-2.84-1.53,1.1-6.02-.89-13.94-3.47-16.12-4.62-3.9-16.67,9.72-18-.13-.97-7.18,9.2-8.16,11.11-14.61,1.56-5.29-11.87-17.47-7.09-23.3-.46,.98-.73,1.92-.73,2.78,.39,1.13,1.91,2.9,4.04,5.23Z"/><path class="s" d="M278.37,237.63c1.68,1.21,2.99,2.71,3.66,4.49,.17,.45,.3,.91,.38,1.4,.16,.97,.17,1.97,.06,2.98-.86,7.94-9.27,16.32-10.24,16.85-1.57,.86-3.54,1.77-5.71,2.68h-.02c-8.53,1.65-19.97-2.72-22.92-9.55-1.14-2.64-.72-6.84,.63-11.01-4.46,3.21-8.26,7.2-11.66,10.81-13.69,14.56-13.86,28.72-26.41,29.54-.82,.06-1.65,.1-2.48,.14,.02-1.37,.24-2.93,.6-4.8h0c8.84-4.48,20.73-27.18,26.75-32.03,4.74-3.82,16.77-13.19,30.66-15.39,4.57-.73,12.06,.52,16.7,3.89Z"/><path class="s" d="M209.81,221.65l-2.67,.76c-2.28-7.78-10.23-23.19-25.52-32.57,.79-.85,1.58-1.68,2.35-2.48,9.02,4.88,16.44,12.8,21.51,23.04h0c1.73,3.5,3.19,7.25,4.33,11.25Z"/><path class="s" d="M207.73,226.93c.26-.64,.07-2.25-.59-4.52l2.67-.76c.12,.39,.23,.78,.34,1.18,.88,3.24,2.15,5.31,3.49,7.18,2.25,3.15,4.69,5.78,5.8,12.58,1.69,10.37-11.84,20.72-26.56,27.38,18.54-10.69,23.08-30.94,19.55-33.3-.46-.16-.9-.26-1.34-.35,.38-.66,.48-1.33,.23-1.89-.58-1.32-2.89-1.59-5.15-.59-.06,.03-.12,.05-.18,.08-.12-.22-.22-.44-.3-.71-.8-2.57,.9-3.67,2.01-6.21,0-.02,.02-.05,.03-.07Z"/><path class="s" d="M187.61,137.22c.91,18.93-5.09,32.28-7.92,41.75-.73,.49-1.47,1-2.22,1.51-9.77-2.45-18.44-2.93-26.06-1.94-.19-3.36-.81-7.18-1.72-11.39l.37-.08c.72-11.55,15.48-17.93,18.52-22.47,5.75-8.58,5.66-36.9-12.13-60.05,13.06,8.3,30.13,31.42,31.16,52.67Z"/><path class="s" d="M129.9,186.53c3.05,5.02,5.92,9.03,8.53,11.51,1.09,9.83-2.48,18.39-13.21,21.47l-.09,.03c-.78,.22-1.6,.41-2.46,.57-.16-.32-.32-.64-.48-.97h0c.17-1.9,5.96-6.98,5.03-16.06-1.19-11.62-18.56-55.33-22.89-66.35,8.67,17.22,17.7,36.85,25.57,49.8Z"/><path class="q" d="M156.45,84.55c17.79,23.15,17.88,51.47,12.13,60.05-3.04,4.54-17.8,10.92-18.52,22.47l-.37,.08c-2.93-13.46-8.86-30.9-13.47-49.91-3.51-14.5,2.27-35.59,11.38-35.88,2.47-.08,5.53,1.07,8.85,3.19Z"/><path class="q" d="M127.22,203.08c.93,9.08-4.86,14.16-5.03,16.05-.5-.98-.97-1.97-1.44-2.95,0-.01-.01-.02-.02-.04-6.97-14.87-10.63-29.29-14.81-44.18-3.79-13.47-8.01-27.3-15.49-42.18-3.83-8.21-14.3-18.38-22.71-20.89,7.03-5.81,25.32,6.19,32.27,19.39,1.43,2.72,2.88,5.55,4.34,8.45,4.33,11.02,21.7,54.73,22.89,66.35Z"/><path class="q" d="M243.58,256.48c2.95,6.83,14.39,11.2,22.92,9.55-6.65,2.8-15.05,5.57-18.53,6.97-9.37,3.74-18.26,14.91-38.64,23.25-4.16-3.69-5.77-6.08-5.67-10.29,.83-.04,1.66-.08,2.48-.14,12.55-.82,12.72-14.98,26.41-29.54,3.4-3.61,7.2-7.6,11.66-10.81-1.35,4.17-1.77,8.37-.63,11.01Z"/><path class="q" d="M210.78,338.04c3.95,19.39,4.46,36.88,3.77,42.48-.45,3.73-9.39,6.94-15.88,8.57-2.57,.62-6.15,1.28-9.3,2.14-1.54,.42-2.98,.89-4.16,1.43l-.06,.03c-3.07,1.12-10.66,3.76-11.94,5.05-.94,.94-1.61,2.29-2.1,3.92-2.93,.91-4.93,2.82-4.77,4.88,.12,1.61,1.53,2.95,3.59,3.67-.4,8.96,.64,19.24-2,21.01-3.09,.11-6.69-.32-9.96-1.18-2.48-.65-9.39-27.52-10.55-47.77,2.06,1.1,4.29,1.46,6.25,1.49,1.25,.03,2.39-.09,3.32-.23,.84-.13,1.51-.29,1.93-.39,2.02-.52,3.62-2.19,4.81-4.54,3.54-6.91,3.58-19.58,.4-25.38-.84-1.55-1.75-3.04-2.7-4.49h.01c33.32,4.87,41.72-.97,49.34-10.69Z"/><path class="q" d="M153.67,383.76c-1.96-.03-4.19-.39-6.25-1.49-1.33-.7-2.59-1.7-3.67-3.1-4.9-6.32-22.59-29.97-26.87-42.78-2.26-6.79,5.77-17.65,14.36-27.59,10.55,.87,14.12,2.77,17.56,6.88-2.24,2.47-4.31,4.98-5.36,7.23-4.78,5.83,8.65,18.01,7.09,23.3-1.91,6.45-12.08,7.43-11.11,14.61,1.33,9.85,13.38-3.77,18,.13,2.58,2.18,4.57,10.1,3.47,16.12-.52,2.86-1.73,5.28-3.9,6.46-.93,.14-2.07,.26-3.32,.23Z"/><path class="q" d="M181.08,254.51c1.48,2.62,3.6,6.73,7.25,6.13,2.79-.46,7.36-5.78,6.03-11.49h0c-.46,.08-.95,.13-1.47,.21-.7,.1-1.45,.23-2.22,.49-.16,.05-.33,.12-.51,.21-.24,.11-.49,.25-.77,.41-1.25,.7-2.87,1.79-4.7,2.7-1.13,.57-2.35,1.06-3.61,1.34Zm2.24-10.64c-.03,1.37,1.6,2.26,3.67,1.96,.32-.04,.65-.12,.99-.22,1.96-.61,3.29-3.38,2.4-3.9-.3-.17-1.34-.09-2.53,.16-2.03,.4-4.52,1.25-4.53,2Zm-58.55,23.46c-3.1-3.39-5.49-7.58-7.35-12.54-1.67-4.45-2.91-9.54-3.84-15.24-.23-1.39-.41-2.76-.54-4.11,5.01-.78,16.6-7.32,30.64-20.42,3.86,2.26,16.77,2.05,22.01-5.6,4.89-7.16,10.53-13.83,15.93-19.58,15.29,9.38,23.24,24.79,25.52,32.57,.66,2.27,.85,3.88,.59,4.52,0,.02-.02,.05-.03,.07-1.11,2.54-2.81,3.64-2.01,6.21,.08,.27,.18,.49,.3,.71-2.15,1.02-3.42,2.84-2.85,4.12,.58,1.33,2.89,1.59,5.15,.6,1.29-.57,2.29-1.44,2.8-2.32,.44,.09,.88,.19,1.34,.35,3.53,2.36-1.01,22.61-19.55,33.3-4.76,2.15-9.64,3.91-14.17,5.17-2.99,.82-5.83,1.43-8.39,1.78-3.82,.52-7.39,.86-10.72,1.03-16.74,.84-27.67-2.76-34.83-10.62Zm56.14-49.88c1.26,1.06,6.76-2.24,6.43-4.08-.2-1.09-2.47-1.98-4.27-1.33-2.61,.93-3.07,4.65-2.16,5.41Zm-20.83,6.23c.15-.85-2.14-2.63-4.52-2.14-1.81,.37-3.36,1.99-3.07,2.75,.53,1.38,7.35,.76,7.59-.61Zm-18.37,37.65c3.16-.34,5.55-2.18,5.34-4.12-.2-1.95-2.93-3.25-6.08-2.91-3.16,.33-5.55,2.18-5.35,4.12,.21,1.94,2.94,3.24,6.09,2.91Z"/></g></g><g id="d"><path class="o" d="M173.62,183.35h-.01"/><path class="o" d="M184.05,187.45c9.02,4.88,16.44,12.8,21.51,23.04,1.9,3.83,3.47,7.98,4.67,12.43,.88,3.24,2.15,5.31,3.49,7.18,2.25,3.15,4.69,5.78,5.8,12.58,2.59,15.93-30.71,31.82-49.12,34.33-31.23,4.27-45.88-3.38-52.9-22.13-1.67-4.45-2.91-9.54-3.84-15.24-.23-1.39-.41-2.76-.54-4.11"/><path class="o" d="M180.99,217.54c-.91-.76-.45-4.49,2.16-5.42,1.8-.64,4.07,.25,4.27,1.33,.34,1.85-5.17,5.14-6.43,4.08Z"/><path class="o" d="M160.16,223.76c.15-.85-2.14-2.63-4.52-2.14-1.81,.37-3.36,1.99-3.07,2.75,.53,1.37,7.35,.75,7.59-.61Z"/><path class="o" d="M197.27,247c-.94,2.88-3.56,1.92-6.52,2.94-2.2,.75-6.81,4.87-11.69,4.92"/><path class="o" d="M188.06,245.7c-2.53,.78-4.7-.16-4.67-1.74,.02-1.19,6.24-2.64,7.07-2.16,.89,.51-.44,3.29-2.4,3.9Z"/><path class="o" d="M190.24,250.15c-.96-.3-2.06-3.76-2.17-4.45"/><path class="o" d="M151.49,178.63c-.8-14.09-9.14-36.34-15.19-61.3-3.51-14.5,2.27-35.59,11.38-35.88,12.21-.39,38.72,29.22,40.01,55.86,.91,18.93-5.09,32.28-7.92,41.75"/><path class="o" d="M138.52,198.14c-10.47-9.93-25.21-44.63-38.45-69.78-6.95-13.19-25.24-25.19-32.27-19.39-9.42,7.78-9.72,47.52,6.93,68.37,14.49,18.14,41.43,30.53,46.33,39.29"/><path class="o" d="M90.51,129.87c16.49,32.78,17.09,60.53,32.25,90.34"/><path class="o" d="M213.73,230.1c8.79-10.3,22.6-18.38,33.99-21.15"/><path class="o" d="M248.86,229.04c-11.75,1.68-21.86,4.93-29.93,10.03"/><path class="o" d="M131.04,255.31c-13.4-1.98-29.11,1.02-39.51,6.41"/><path class="o" d="M103.87,277.61c9.96-6.46,19.72-10.66,29.14-12.12"/><path class="o" d="M194.44,249.23c1.33,5.72-3.24,11.04-6.03,11.49-3.64,.6-5.77-3.51-7.25-6.13"/><path class="o" d="M192.98,249.5c.08,3-3.03,7.02-4.85,7.32-2.73,.44-3.18-3.32-3.37-3.57"/><path class="o" d="M189.47,250.56c.4,1.15-.21,4.99-1.34,6.26"/><path class="o" d="M202.1,219.94c-2.69,1.94-5.44,6.44-8.23,12.47"/><path class="o" d="M165.77,244.09c-7.88-1.36-15.79-3.12-23.23,.7"/><path class="o" d="M159.69,278.16c.51,3.14,.46,4.95-.34,7.19-1.41,3.95-9.99,2.22-12.13,5.22-7.36,10.31-34.17,34.18-30.26,45.91,4.27,12.81,21.97,36.46,26.87,42.78,4.83,6.23,13.09,4.49,15.16,3.96,7.96-2.04,9.47-22.14,5.22-29.92-7.61-13.92-20.19-23.96-21.42-27.52"/><path class="o" d="M157.07,306.05c-4.3,7.34-9.78,16.73-10.24,24.95"/><path class="o" d="M131.32,308.89c12.29,1,15.11,3.42,19.29,9.1"/><path class="o" d="M178.79,275.23c.24,1.87,.61,5.57,3.13,7.31,2.35,1.63,7.11,3.4,8.28,4.89,8.67,10.96,24.46,47.8,27.07,63.91,8.53,52.64,2.72,70.05,.52,72.26-2.64,2.66-11.25,3.51-15.91,.72-3.2-1.92-8.91-19.37-12.43-33"/><path class="o" d="M198.75,389.17c-5.09,1.24-14.15,2.61-16.04,5.48-5.73,8.7-5.64,32.98-8.09,34.96-2.74,2.22-10.26,2.18-16.57,.52-2.48-.65-9.39-27.52-10.55-47.77"/><path class="o" d="M197.99,300.29c28.8-8.29,39.1-22.82,50.06-27.2,4.62-1.85,17.87-6.13,24.26-9.65,1.09-.6,11.63-11.17,10.17-19.83-1.3-7.73-14.1-10.84-20.74-9.78-13.89,2.2-25.92,11.57-30.65,15.39-6.8,5.48-21.07,33.71-30,32.77-4.7-.49-4.53-1.19-9.52,.03-2.73,.67-5.45,1.62-6.81,2.14"/><path class="o" d="M204.34,281.24c-1.48,7.6-.45,10.21,5.07,15.1"/><path class="o" d="M159.35,285.35c12.49,10.53,22.57,6.62,22.57-2.8"/><path class="o" d="M161.51,348.81c36.33,5.31,43.04-2.11,51.41-13.4"/><path class="o" d="M145.53,367.58c1.16,6.68,3.92,11.2,8.22,16.26"/><path class="o" d="M153.75,364.91c1.72,5.68,5.25,12.33,10.07,13.77"/><path class="o" d="M203.05,169.98c-6.39-7.92-63.77,37.59-60.26,44.22,1.65,3.11,17.12,3.87,22.98-4.69,15.09-22.06,37.28-39.53,37.28-39.53Z"/><path class="o" d="M203.05,169.98c8.71,9.72,16.62,25.7,15.59,30.33-.91,4.09-10.74,9.51-13.07,10.19"/><path class="o" d="M112.38,208.27c-4.15,9.86-4.67,19.96-1.81,26.6,.28,.65,1.16,.88,2.55,.66,5.01-.78,16.6-7.32,30.64-20.42h.01"/><path class="o" d="M129.97,186.63c5.89-4,13.05-6.9,21.52-8,7.62-.99,16.29-.51,26.06,1.94"/><path class="o" d="M120.75,220.52c15.72-1.99,19.85-13.29,17.22-25.83"/><path class="o" d="M260.7,243.08c3.75-1.92,7.55-5.59,17.76-5.37"/><path class="o" d="M265.98,252.61c6.98-1.37,11.93-3.03,16.64-6.07"/></g></svg>