<?xml version="1.0" encoding="UTF-8"?><svg xmlns="http://www.w3.org/2000/svg" viewBox="0 0 336.39 511.68"><defs><style>.f{fill:#ead0d0;}.g{fill:#fcb9b9;}.h{fill:#fff;}.i{fill:#6b3d34;}.j{fill:#c47b49;}.k{fill:#bf7e67;}.l{fill:#eab5a7;}.m{fill:#507096;}.n{fill:#7f4d40;}.o{fill:#bc7171;}.p{fill:#6a964d;}.q{fill:#fc9;}.r{fill:#77b566;}.s{stroke-width:2px;}.s,.t{fill:none;stroke:#3f2a25;stroke-linecap:round;stroke-linejoin:round;}.u{fill:#e09f57;}.v{fill:#eaa0a0;}.w{fill:#3d587f;}.x{fill:#d17e75;}.y{fill:#dba77f;}.a`{fill:#935d51;}.aa{fill:#cc8e87;}.ab{fill:#e08f82;}</style></defs><g id="a"><path class="s" d="M211.89,332.75c.65,3.93-.03,10.45-.46,14.58-2.5,23.74-5.8,52.31-10.52,54.38-4.77,2.1-8.13,2.95-12.79,.3-3.26-1.87-1.17-36.52-4.95-38.48-.91-.47-1.96-.76-3.06-.9h0c-3.05-.44-6.45,.13-8.15,.64-.79,.23-1.32,1.4-1.68,3.2-1.83,9.17,.98,34.79-2.1,36.45-4.53,2.45-9.3,1.31-12.52-.13-3.88-1.73-3.77-6.29-13.96-54.39-.82-3.88-1.28-10.22-.61-14.77"/><path class="s" d="M164.68,330.62c3.37,.22,7.06,.33,11.07,.33,2.01,0,3.93-.03,5.78-.08,2.41-.07,4.68-.18,6.82-.34"/><path class="s" d="M226.17,296.13c0,7.19,0,13.02-50.43,13.02s-50.43-5.83-50.43-13.02"/><path class="s" d="M127.95,198.1c-2.53,7.67-4,15.68-4.93,23.05-2.79,22.15,24.35,33.26,49.74,33.26s52.27-14.66,49.39-35.09c-.21-1.47-.44-2.96-.71-4.47-1.78-10.09-4.94-20.8-10.27-29.89"/><path class="s" d="M188.52,160.61h0c5.39-10.17,11.46-26.68,15.63-45.9,5.8-26.71,19.55-41.95,26.61-40.96,9.47,1.34,21.09,36.75,7.3,63.66-8.47,16.53-22.59,26.78-30.91,33.72-.01,.01-.03,.02-.04,.04"/><path class="s" d="M199.7,167.08c.26-.36,.53-.75,.8-1.14,4.37-6.46,9.67-16.74,10.17-30.29,.58-15.55,2.54-27.98,5.87-40.11"/><path class="s" d="M156.39,162.02c-4.4-10.22-8.28-25.97-10.69-46.2-3.24-27.13-15.48-43.62-22.6-43.3-9.55,.43-24.49,34.58-13.32,62.67,7.37,18.52,21.73,30.4,28.95,38.07,.07,.07,.13,.13,.18,.19"/><path class="s" d="M135.19,95.56c2.15,12.39,2.93,24.95,2.02,40.48-.9,15.62,4.5,26.79,8.42,33.18"/><path class="s" d="M185.8,219.84c-2.07-4.93,3.85-18.37,10.1-19.87,5.57-1.34,13.79,9.03,11.31,15.93-2.48,6.9-19.41,8.72-21.41,3.94Z"/><path class="s" d="M189.95,204.83c5.96-4.86,18.5,13.98,6.33,17.43"/><path class="s" d="M155.53,220.5c1.75-5.06-5.02-18.09-11.35-19.19-5.64-.98-13.18,9.89-10.27,16.62,2.91,6.73,19.93,7.46,21.62,2.56Z"/><path class="s" d="M150.44,205.79c-6.26-4.47-17.57,15.14-5.2,17.8"/><path class="s" d="M158.11,192.45c1.32,1.57,1.24,4.11,.46,4.66-1.15,.81-5.06-1.79-5.91-3.71"/><path class="s" d="M183.57,195.4c-.54-.68,.62-3.33,2.95-4.04,1.77-.54,3.91,.14,4.01,.95,.19,1.46-6.09,4.18-6.96,3.09Z"/><path class="s" d="M169.75,227.25c2.64-.16,4.33-1.82,3.75-3.28-.44-1.11-6.77-.25-7.37,.49-.65,.79,1.58,2.92,3.62,2.79Z"/><path class="s" d="M169.7,233.32c.3-2.22,.34-5.24,.11-6.06"/><path class="s" d="M123.39,218.37c-12.56-5.07-29.11-5.88-40.49-3.07"/><path class="s" d="M91.17,233.64c11.2-3.95,22.55-5.88,32.06-5.1"/><path class="s" d="M222.27,217.17c12.56-5.07,28.56-5.84,39.93-3.03"/><path class="s" d="M253.94,232.49c-11.2-3.95-22.55-5.88-32.06-5.1"/><path class="s" d="M168.94,254.32c.49,2.21,.64,4.65-.4,6.54-1.56,2.84-10.75,1.75-14.78,4.8-3.62,2.74-11.84,16.17-12.99,18.88"/><line class="s" x1="180.12" y1="362.64" x2="180.11" y2="362.64"/><path class="s" d="M184.72,253.37c-.01,2.07,.53,3.9,1.48,6.31,1.27,3.23,10.53,2.1,14.41,5.06,3.07,2.35,7.79,11.19,10.16,16.46"/><path class="s" d="M137.83,327.61c.32-.4,.63-.81,.94-1.2,4.63-5.95,8.85-11.3,12.63-13.64h0c1.56-.97,3.04-1.43,4.44-1.2,5.95,.95,11.08,14.15,8.87,19.22,0,.02,0,.05-.02,.07,0,0,0,.02-.01,.03-1.29,4.83-15.46,7.25-23.59,2.87-1.26-.68-2.38-1.53-3.28-2.56"/><path class="s" d="M137.83,327.17s-.01,.02-.02,.03"/><path class="s" d="M160.07,314.58c1.1,3.94,1.85,8.45-.84,10.85"/><path class="s" d="M151.4,313.11h0c.54,5.01,.12,8.14-1.68,11.28"/><path class="s" d="M127.27,302.88c0,8.57,0,16.23,8.28,21.36,.93,.58,1.97,1.13,3.13,1.63,.03,.02,.06,.04,.09,.04"/><path class="s" d="M214.09,325.27s.06-.03,.09-.04c1.14-.58,2.15-1.2,3.05-1.86,6.99-5.1,6.99-12.39,6.99-20.49"/><path class="s" d="M125.5,292.81h0c.21,1.12,.65,2.17,1.53,3.14,.02,.03,.05,.06,.08,.09,2.67,2.82,9.28,4.97,25.64,5.94h0c3.9,.24,8.35,.39,13.43,.48,2.96,.05,6.14,.08,9.55,.08s6.62-.03,9.6-.08c2.01-.03,3.92-.08,5.74-.14,1.56-.05,3.04-.11,4.47-.17,18.7-.86,25.98-3.11,28.81-6.12,.03-.03,.06-.06,.08-.09,.9-.97,1.32-2.04,1.53-3.15h0"/><path class="s" d="M125.31,295.85v-.41c0-.35,.01-.7,.02-1.04,.05-1.51,.26-2.95,1.15-4.26,.38-.55,.87-1.08,1.52-1.58"/><path class="s" d="M206.55,284.02c-1.08-.11-2.21-.22-3.42-.31"/><path class="s" d="M218.27,286.11c.32,.1,.63,.2,.93,.3,6.97,2.38,6.97,5.73,6.97,9.44"/><path class="s" d="M133.83,285.94c.74-.21,1.54-.41,2.41-.6,1.33-.29,2.83-.56,4.52-.8h0c3.58-.52,8-.94,13.45-1.23,.16-.01,.32-.02,.48-.02,2.67-.14,5.59-.24,8.78-.32,3.71-.09,7.79-.14,12.27-.14,6.29,0,11.8,.09,16.62,.27,.43,0,.84,.03,1.25,.04h.01c2.1,.09,4.06,.19,5.9,.3"/><path class="s" d="M159.29,289.59c1.17-.03,2.38-.07,3.63-.1,.35,0,.7-.02,1.06-.03,.82-.02,1.66-.03,2.52-.05,.24,0,.49-.01,.74-.01h.17s.04,0,.06,0h.49c2.45-.04,5.03-.06,7.78-.06,5.55,0,10.48,.07,14.88,.21l1.08,.03h.01"/><path class="s" d="M220.1,293.25l.24,.09c1.88,.75,3.16,1.59,4.02,2.51,.03,.03,.06,.06,.08,.09"/><path class="s" d="M198.06,289.86h-.03c-.15,0-.28-.02-.43-.02h-.01"/><path class="s" d="M127.03,295.95s.05-.06,.08-.09c1.04-1.1,2.66-2.1,5.21-2.96,.42-.14,.87-.28,1.34-.42"/><path class="s" d="M151.22,290h.02c.55-.04,1.13-.08,1.71-.12h.01"/><path class="s" d="M135.55,324.24c.01,2.28,.52,4.98,2.26,6.71"/><path class="s" d="M214.84,326.27s.06,.09,.1,.14"/><path class="s" d="M214.96,326.91s0,0-.02-.03c-.29-.36-.57-.72-.85-1.08-6.58-8.45-12.31-15.72-17.15-14.95-5.95,.95-11.08,14.15-8.87,19.22,.06,.26,.15,.49,.28,.73,2.68,5.11,20.19,7.02,26.61-.32"/><path class="s" d="M192.7,313.91c-1.1,3.94-1.85,8.45,.84,10.85"/><path class="s" d="M201.37,312.44c-.54,5.01-.12,8.13,1.68,11.27"/><path class="s" d="M217.23,323.37c.01,2.3-.5,5.06-2.27,6.82"/><path class="s" d="M154.7,283.3c.73-2.89,1.69-6.21,1.99-8.44"/><path class="s" d="M197.87,275.44c.73,1.8,1.25,3.6,1.79,5.4,.13,.47,.27,.94,.41,1.4"/><path class="s" d="M186.29,228.77c-4.51-4.64-9.39,4.34-16.59,4.56-4.39,.14-8.64-1.47-10.49,1.19-2.83,4.05,6.67,7.02,13.45,6.35,8.63-.85,17.33-8.28,13.63-12.09Z"/><path class="s" d="M171.32,233.13c.98,1.68,1.61,6.58,1.34,7.73"/><path class="s" d="M178.55,229.51c.98,1.68,2.67,7.48,2.4,8.63"/><path class="s" d="M163.64,232.98c.98,1.68,.81,5.95,.54,7.1"/><path class="s" d="M185.76,234.19c14.81-.98,38.49,6.46,55.41,18.11"/><path class="s" d="M222.94,242.49c-.79,2.96,.46,6.65,.88,6.68,.75,.06,1.43-3.35,2.22-3.26,.82,.09,.65,3.79,1.83,4.04,.93,.2,1.7-1.98,2.61-1.83,1.55,.26,1.41,7,2.22,7.04,.66,.04,1-4.47,2.09-4.57,1.53-.13,2.96,8.71,4.7,8.61,1.19-.07,.1-4.33,1.4-4.47,1.93-.21,4.41,8.72,6.82,8.27,1.59-.29-3.83-7.64-2.75-9.93,.52-1.1,6.26-1.79,6.26-2.35,0-.86-10.8-1.27-10.83-2.22-.02-.73,6.95-1.08,6.39-1.83-.96-1.29-12.23,.07-12.39-1.17-.12-.9,6.78-1.88,6-2.87-1.69-2.15-11.71,1.39-12.13-.13-.18-.65,1.98-1.22,1.57-2.09-.24-.5-6.21-.33-7.84,1.68"/><circle class="s" cx="163.15" cy="274.79" r="2.08"/><path class="s" d="M160.59,263.41c.5,1.84,1.01,8.07,.76,10.33"/><path class="s" d="M163.97,262.87c.58,2.08,.89,8.46,.66,10.46"/><circle class="s" cx="192.75" cy="274.27" r="2.08"/><path class="s" d="M195.31,262.9c-.5,1.84-1.01,8.07-.76,10.33"/><path class="s" d="M191.93,262.35c-.58,2.08-.89,8.46-.66,10.46"/><path class="s" d="M165.23,274.79c7.18-.46,17.87-.77,25.44-.26"/><path class="s" d="M193.64,276.15c.68,2.44,3.98,5.65,6.02,4.7"/><path class="s" d="M162.21,276.64c-.68,2.44-4.97,5.68-7.01,4.73"/><path class="s" d="M150.88,392.29c8.3,2.57,10.63,2.38,18.82,1.52"/><path class="s" d="M205.11,392.29c-8.3,2.57-10.53,2.52-18.73,1.66"/><path class="s" d="M122.82,225.16c-26.64-.8-50.55-3.75-50.94-8.41-1.14-13.6,195.72-46.31,197.6-29.74,.99,8.68-26.72,21.73-48.04,27.84"/><path class="s" d="M72.26,215.55c8.42-18.87,169.99-53.1,196.7-29.72"/><path class="s" d="M212.75,177.75c-1.65-2.43-3.53-4.64-5.6-6.62"/><path class="s" d="M188.52,160.6c-10.21-2.92-21.61-2.55-32.13,1.42-.02,.01-.03,.02-.05,.03"/><path class="s" d="M125.88,192.54c3.22-7.83,7.65-14.23,12.85-19.28"/><path class="s" d="M138.9,173.44c8.17-5.02,9.56-6.17,17.49-11.42"/><path class="s" d="M188.51,160.6c7.71,4.34,10.99,6.55,18.59,10.56"/><path class="s" d="M208.46,301.18c-.1-.34-.21-.68-.33-1.01-.7-1.91-1.81-3.76-3.21-5.37-.24-.28-.48-.55-.73-.8-1.5-1.55-3.26-2.81-5.16-3.65-.32-.13-.64-.26-.96-.37-.09-.03-.19-.06-.28-.09,0,0,0-.01-.01,0-.86-.28-1.74-.48-2.64-.55"/><path class="s" d="M198.07,289.97v-.07c0-2.1,.65-4.52,1.44-6.42,.13-.31,.26-.6,.39-.88,.05-.11,.1-.2,.16-.3h0c.67-1.32,1.36-2.19,1.82-2.19,.57,0,.82,.37,.94,.9,.13,.53,.12,1.22,.18,1.87,.03,.31,.07,.6,.15,.87h.01c.16,.59,.5,1.03,1.23,1.08,.45,.04,1.17-.25,2.09-.77h0c.32-.19,.67-.4,1.04-.63,.16-.1,.32-.2,.48-.31,.83-.54,1.75-1.19,2.73-1.89,6.12-4.43,14.38-11.23,16.14-10.01,2.66,1.85-4.43,9.71-8.58,14.87-.02,.02-.03,.04-.05,.06-1.62,2.04-2.79,3.65-2.69,4.27,.33,2,4.16-.28,4.59,2.44,.02,.13,0,.28-.05,.44-.1,.32-.35,.7-.72,1.11-1.71,1.96-6.1,4.73-11.25,5.76"/><path class="s" d="M194.41,302.24c-2.26-3.01-5.75-5.11-9.93-7.01h-.01"/><path class="s" d="M158,312.66h-.01m-2.47-10.48c.62-3.74,2.47-7.46,5.25-9.93,1.11-.98,2.37-1.75,3.76-2.25t.02-.01c.12-.05,.24-.09,.36-.13,0,0,.02-.01,.03-.01,.51-.16,1.05-.28,1.6-.36,.11-.02,.21-.03,.32-.04h.02s.1-.02,.14-.03c.42-.04,.85-.04,1.31,.01h.09c.27,.03,.54,.07,.82,.12,.27,.04,.53,.1,.81,.18,1.79,.46,3.81,1.39,5.94,2.64,2.24,1.31,4.6,3.01,6.97,4.88,.96,.77,1.92,1.56,2.86,2.38,.57,.48,1.13,.98,1.69,1.48,.48,.43,.96,.86,1.43,1.3l.02,.02"/><path class="s" d="M160.77,292.25c-.36-.88-.87-1.77-1.44-2.62-2.03-2.98-4.96-5.43-5.81-5.08-1.86,.76,1.66,4.24-.55,5.33-.04,.02-.08,.04-.13,.05-.31,.11-.77,.13-1.36,.09-.66-.04-1.47-.17-2.41-.35h-.01c-2.2-.42-5.06-1.17-7.98-1.94-1.9-.49-3.82-1-5.62-1.42-.54-.13-1.06-.25-1.57-.36-3.54-.78-6.3-1.09-6.88-.21-.53,.81-.06,1.78,1.01,2.83,.62,.61,1.44,1.24,2.39,1.89,.99,.67,2.11,1.36,3.29,2.04,.79,.46,1.6,.92,2.41,1.36,4.25,2.33,8.39,4.41,8.62,5.4,.25,1.11-1.01,1.38-2.07,1.88"/><path class="s" d="M188.96,302.43l-.02-.02c-.47-.44-.95-.87-1.43-1.3-.56-.5-1.12-1-1.69-1.48-.94-.82-1.9-1.61-2.86-2.38,.38-.54,.76-1.05,1.14-1.54,.12-.16,.25-.32,.38-.48,.48-.62,.99-1.22,1.49-1.76h.01c1.58-1.72,3.16-2.98,4.67-3.57h0"/><path class="s" d="M195.13,289.34c-1.13-.11-2.27-.05-3.42,.24-.05,.01-.11,.03-.16,.04-.12,.02-.23,.06-.35,.09-.18,.05-.36,.11-.54,.19h0"/><path class="s" d="M168.38,302.54c.83-3.69,3.16-7.06,6.21-10.52"/></g><g id="b"><g><path class="o" d="M197.2,165.76c.83,.48,1.64,.96,2.48,1.44-1.01-.27-1.83-.76-2.48-1.44Z"/><path class="o" d="M269.47,187.13c.99,8.68-26.72,21.73-48.04,27.84-1.78-10.09-4.94-20.8-10.27-29.89h0c27.52-2.98,49.98-3.67,56.44-.17,.02,.01,.04,.03,.06,.04,.46,.32,.88,.66,1.28,1h.01c.3,.37,.47,.76,.52,1.18Z"/><path class="o" d="M267.6,184.91c-6.46-3.5-28.92-2.81-56.44,.16-16.64,1.8-35.13,4.44-53.06,7.5-1.82,.3-3.64,.62-5.45,.94-5.3,.93-10.53,1.9-15.61,2.89h-.02c-3.08,.6-6.11,1.21-9.08,1.82-29.36,6.06-52.49,12.67-55.68,17.44,2.99-6.68,25.15-15.28,53.72-22.57,24.96-6.36,54.81-11.73,81.05-13.93,1.95-.17,3.87-.32,5.77-.44,24.78-1.68,45.6-.26,54.8,6.19Z"/><path class="o" d="M231.49,246.58c-1.33-.71-2.69-1.39-4.05-2.05l.85-1.79c.84,1.26,10.43-2.07,12.08,.03,.79,1-6.11,1.97-6,2.87,.17,1.24,11.43-.11,12.4,1.18,.55,.74-6.42,1.09-6.4,1.82,.03,.95,10.83,1.36,10.83,2.22,0,.56-5.74,1.25-6.26,2.35-1.09,2.29,4.34,9.63,2.75,9.93-2.42,.44-4.9-8.48-6.83-8.27-1.3,.14-.21,4.4-1.4,4.47-1.73,.1-3.16-8.74-4.69-8.61-1.09,.09-1.43,4.6-2.09,4.56-.77-.04-.68-6.37-2.08-7l.89-1.71Z"/><path class="o" d="M240.67,86.96c4.65,13.05,6.12,33.51-2.62,50.57-8.47,16.53-22.59,26.78-30.91,33.72-.01,.01-.03,.02-.04,.04h-.01c-2.95-1.56-5.24-2.84-7.4-4.09,.26-.36,.53-.75,.8-1.14,.29-.44,.59-.89,.89-1.36,6.7,1.52,9.02,.78,21.09-11.61,9.66-9.93,22.74-34.63,18.18-66.12h.02Z"/><path class="o" d="M240.65,86.97c4.56,31.49-8.52,56.19-18.18,66.12-12.07,12.39-14.39,13.13-21.09,11.61,4.17-6.5,8.81-16.29,9.28-28.93,.58-15.55,2.54-27.98,5.87-40.11h0c2.03-5.51,11.26-21.7,18.58-18.97h.01c2.03,2.28,3.98,5.85,5.55,10.27h-.01Z"/><path class="o" d="M235.11,76.68h-.01c-7.32-2.72-16.55,13.47-18.58,18.98h0c-3.33,12.13-5.29,24.56-5.87,40.11-.47,12.64-5.11,22.43-9.28,28.93-.3,.47-.6,.92-.89,1.36-.27,.39-.54,.78-.8,1.14h-.01c-.84-.48-1.65-.96-2.48-1.44-5.08-5.22-.56-21.54,1.76-30.65l-.16-.05c1.95-6.24,3.78-13.05,5.34-20.23,5.8-26.71,19.55-41.95,26.61-40.96,1.43,.2,2.92,1.19,4.36,2.81Z"/><path class="o" d="M231.49,246.58l-.89,1.71c-.05-.02-.09-.03-.14-.04-.9-.15-1.68,2.03-2.61,1.83-1.17-.26-1.01-3.96-1.82-4.05h-.03l.61-1.89c.27,.13,.55,.26,.83,.39,1.36,.66,2.72,1.34,4.05,2.05Z"/><path class="o" d="M229.81,240.55c.41,.87-1.75,1.44-1.57,2.09,.01,.04,.03,.07,.05,.1l-.85,1.79c-.28-.13-.56-.26-.83-.39-1.21-.57-2.42-1.12-3.64-1.64-.3-.13-.6-.26-.9-.38,1.76-1.91,7.5-2.06,7.74-1.57Z"/><path class="o" d="M204.77,294.72c-.21-.24-.42-.47-.63-.68-1.5-1.55-3.26-2.81-5.16-3.65-.32-.13-.64-.26-.96-.37-.04,0-.07-.02-.11-.04,.03,.01,.07,.01,.1,.01h.01v-.05c0-1.42,.3-2.99,.74-4.44,.2-.68,.43-1.33,.68-1.93,.01-.02,.01-.03,.02-.05,.13-.31,.26-.6,.39-.88,.05-.11,.1-.2,.16-.3h0l.03-.07h0c.67-1.28,1.34-2.12,1.79-2.12,.57,0,.82,.37,.94,.9,.13,.53,.12,1.22,.18,1.87,0,.09,.02,.18,.04,.27h-.02c0,1.08-.94,2.57-.36,2.92,.6,.37,2.16-1.07,3.32-1.74,.06-.03,.13-.07,.2-.11s.15-.08,.23-.13h0l.06-.03h.01c.32-.19,.67-.4,1.04-.63,.16-.1,.32-.2,.48-.31,.41-.26,.83-.55,1.28-.86,.46-.33,.95-.67,1.45-1.03,.01,0,.02,0,.03-.02,6.12-4.43,14.35-11.21,16.11-9.99,.76,.53,.72,1.53,.2,2.83l-.26-.12c-9.89,12.92-15.08,14.01-14.06,16.21,.69,1.49,2.87,2.02,2.8,3.36-.08,1.76-4.7,4.12-8.09,4.93l-.08,.04c-.64-1.28-1.47-2.51-2.42-3.62,.15,.16,.35,.25,.56,.19,1.63-.6,2.92-1.31,2.81-1.76-.08-.35-.91-.55-2.04-.53-.04,0-.07,0-.11,.01l.02-.02c.57-.54,1.19-1.23,1.72-1.93h.01c1.07-1.4,1.84-2.86,1.4-3.38-.63-.74-4.06,1.66-5.56,2.95h-.01c-.26,.23-.46,.42-.58,.55-.83,.95,.31,2.79,1.22,2.96,.03,.01,.07,.01,.12,.01,.03,0,.06-.01,.09-.02v.03c.01,.36,.15,.72,.35,.94-.02-.02-.04-.03-.05-.05-.04-.04-.07-.08-.1-.12Z"/><path class="o" d="M220.05,293.35c-.11,.32-.35,.69-.72,1.1-1.71,1.96-6.1,4.73-11.25,5.76-.21-.57-.46-1.14-.74-1.7l.08-.04c3.39-.81,8.01-3.17,8.09-4.93,.07-1.34-2.11-1.87-2.8-3.36-1.02-2.2,4.17-3.29,14.06-16.21l.26,.12c-1.33,3.27-5.81,8.34-8.78,12.04-.02,.02-.03,.04-.05,.06l-.02,.02c-1.61,2.03-2.77,3.63-2.67,4.25,.33,2,4.16-.28,4.59,2.44,.02,.13,0,.28-.05,.44h0Z"/><path class="o" d="M226.61,244.14l-.61,1.89c-.78,0-1.45,3.32-2.19,3.26-.43-.03-1.68-3.71-.89-6.68l.05-.11c1.22,.52,2.43,1.07,3.64,1.64Z"/><path class="o" d="M224.44,296.06c.89-.97,1.31-2.03,1.52-3.14h.02c.18,1.08,.18,2.25,.18,3.33,0,2.45,0,4.74-2,6.7-1.7,1.67-4.87,3.1-10.74,4.18,1.65-1.19,1.4-5.14,.09-6.61,6.04-1.11,9.19-2.6,10.84-4.35,.03-.04,.06-.06,.08-.1h.01Z"/><path class="o" d="M225.96,292.92c-.21,1.11-.63,2.17-1.52,3.14-.03-.02-.04-.03-.06-.06l-.03-.03c-.86-.91-2.13-1.75-4.01-2.51-.1-.04-.19-.08-.29-.11h0c.05-.17,.07-.32,.05-.45-.43-2.72-4.26-.44-4.59-2.44-.1-.62,1.06-2.22,2.67-4.25,.36,.11,.7,.22,1.02,.33,3.26,1.11,5,2.44,5.92,3.91,.17,.27,.3,.55,.42,.83,.21,.51,.36,1.06,.44,1.64h-.02Z"/><path class="o" d="M213.51,300.52c-1.51,.28-3.2,.53-5.09,.76v-.06c-.11-.34-.22-.68-.34-1.01,5.15-1.03,9.54-3.8,11.25-5.76,.37-.41,.61-.78,.72-1.1,.1,.03,.19,.07,.29,.11,1.88,.76,3.15,1.6,4.01,2.51l.03,.03s.03,.04,.06,.06h-.01s-.05,.07-.08,.11c-1.65,1.75-4.8,3.24-10.84,4.35Z"/><path class="o" d="M224.16,302.95l.05,.05c0,8.1,0,15.39-6.99,20.49-.9,.66-1.91,1.28-3.05,1.86-.03,0-.06,.03-.09,.04l-.26,.2c-1.3-1.68-2.57-3.3-3.82-4.82,.36-.34,.71-.71,1.04-1.08,2.9-3.25,4.01-7.81,4.41-10.92-4.64,.83-11.21,1.33-18.18,1.5-8.76,.2-18.15-.13-25.13-1.02,1.17,.02,2.36,.02,3.59,.02,18.55,0,30.28-.79,37.69-2.14,5.87-1.08,9.04-2.51,10.74-4.18Z"/><path class="o" d="M222.14,219.44c1.07,7.57-1.95,14.34-7.46,19.87-1.98-.69-3.95-1.31-5.91-1.85,1.68-2.03,3.1-4.11,4.15-6.15,.35-.68,.66-1.38,.94-2.11h0c.7-.59,1.08-1.28,.99-1.97-.02-.22-.09-.42-.2-.61,2.2-8.88-.1-20.29-2.8-30.55-6.43-1.09-14.46-1.64-23.08-1.82,1.05-.61,1.82-1.3,1.75-1.82-.11-.81-2.25-1.48-4.02-.94-1.47,.45-2.48,1.68-2.87,2.7-8.14-.04-16.6,.21-24.57,.61-.11-.77-.42-1.58-.96-2.23,17.93-3.06,36.42-5.7,53.06-7.5h0c5.33,9.1,8.49,19.81,10.27,29.9,.27,1.51,.5,3,.71,4.47Z"/><path class="o" d="M213.82,325.59l.26-.2s.06-.03,.09-.04c1.14-.58,2.15-1.2,3.05-1.86,.01,2.3-.5,5.35-2.27,7.11-.84,.96-1.87,1.77-3.04,2.42-6.46,3.66-17,2.84-21.62-.14,11.8,1.54,22.66-3.02,16.74-15.6,.98,1.07,1.97,2.25,2.97,3.49,1.25,1.52,2.52,3.14,3.82,4.82Z"/><path class="o" d="M214.85,227.23c.09,.69-.29,1.38-.99,1.96,.31-.83,.57-1.69,.79-2.57,.11,.19,.18,.39,.2,.61Z"/><path class="o" d="M206.18,207.61c-2.29-4.61-6.81-8.35-10.29-7.52-2.12,.51-4.21,2.4-5.95,4.87-3.26,4.59-5.34,11.17-4.3,14.57,.04,.15,.09,.29,.15,.43,1,2.38,5.7,3.13,10.47,2.43,4.81-.71,9.7-2.9,10.94-6.36,.93-2.59,.36-5.66-1.02-8.42Zm-36.49,25.84c-2.14,.06-4.24-.28-6.06-.34-1.9-.08-3.49,.16-4.44,1.52-1.7,2.43,1.05,4.47,4.98,5.57,2.62,.73,5.77,1.05,8.48,.78,2.92-.29,5.84-1.33,8.29-2.72,2.01-1.15,3.7-2.53,4.8-3.94h.01c1.54-1.96,1.95-3.96,.53-5.43-2.38-2.45-4.87-1.11-7.74,.74-2.15,1.39-4.52,3.05-7.23,3.62-.53,.11-1.07,.18-1.62,.2Zm39.08,4.01c-5.23,6.35-12.93,12.23-19.57,15.08-.01,0-.01,.01-.02,.01-1.47,.35-2.96,.66-4.46,.93-3.94,.69-7.98,1.05-11.97,1.05-1.27,0-2.54-.03-3.82-.09-22.62-.98-45.37-10.71-46.1-29.15-.05-1.29,.01-2.63,.18-4.02,.11-.92,.24-1.85,.37-2.78,.94-6.58,2.35-13.56,4.56-20.27,2.97-.61,6-1.22,9.08-1.82h.02c4.9-.47,10.63-.93,16.8-1.31,1.52,1.48,3.87,2.74,4.72,2.14,.46-.32,.67-1.33,.5-2.43,7.97-.4,16.43-.65,24.57-.61-.24,.58-.27,1.09-.07,1.34,.55,.7,3.34-.17,5.21-1.28,8.62,.18,16.65,.73,23.08,1.82,2.7,10.26,5,21.67,2.8,30.55-.7-1.25-3.02-1.96-5.66-1.64-3.04,.37-5.35,1.98-5.15,3.59,.19,1.61,2.82,2.62,5.86,2.25,1.74-.21,3.23-.83,4.16-1.62-.28,.73-.59,1.43-.94,2.11-1.05,2.04-2.47,4.12-4.15,6.15Zm-29.48-20.78c-.01-2.16-18.16-.06-18.35,2.04-.15,1.57,4.63,2.32,8.34,2.32,4.44,0,10.01-2.67,10.01-4.36Zm-9.56,10.7c2.64-.17,4.34-1.82,3.75-3.28-.15-.38-.98-.53-2.05-.53-2.04-.01-4.92,.53-5.32,1.02-.57,.69,1.07,2.41,2.86,2.74,.25,.05,.51,.07,.76,.05Zm-14.21-6.76c1.16-3.34-1.4-10.15-5.09-14.71,0,0-.01,0-.01-.01-1.9-2.35-4.1-4.09-6.25-4.46-3.37-.58-7.41,3.05-9.5,7.51-1.42,3.01-1.94,6.4-.77,9.11,1.46,3.37,6.45,5.24,11.29,5.64,.01,.01,.02,.01,.03,.01,4.81,.39,9.46-.65,10.3-3.09Zm-14.59,11.03c0-1.63-2.48-2.95-5.55-2.95s-5.55,1.32-5.55,2.95,2.49,2.94,5.55,2.94,5.55-1.31,5.55-2.94Z"/><path class="o" d="M215.45,308.77c-.4,3.11-1.51,7.67-4.41,10.92-.33,.37-.68,.74-1.04,1.08-1-1.24-1.99-2.42-2.97-3.49h0c-3.56-3.97-6.81-6.58-9.74-6.36l-.02-.65c6.97-.17,13.54-.67,18.18-1.5Z"/><path class="o" d="M214.65,226.62c-.22,.88-.48,1.74-.79,2.57h0c-.93,.8-2.42,1.42-4.16,1.63-3.04,.37-5.67-.64-5.86-2.25-.2-1.61,2.11-3.22,5.15-3.59,2.64-.32,4.96,.39,5.66,1.64Z"/><path class="o" d="M194.97,302.31l.57-.03c5.09-.23,9.34-.57,12.88-1,1.89-.23,3.58-.48,5.09-.76,1.31,1.47,1.56,5.42-.09,6.61-7.41,1.35-19.14,2.14-37.69,2.14-1.23,0-2.42,0-3.59-.02-6.49-.03-12.08-.17-16.9-.41-17.78-.87-25-3.01-27.93-5.88-2.01-1.96-2.01-4.26-2.01-6.71v-.68c.01-.35,.01-.7,.02-1.04,.02-.54,.06-1.06,.14-1.58h.03c.21,1.11,.65,2.15,1.53,3.13,.03,.03,.06,.06,.09,.1,2.03,2.15,6.35,3.9,15.5,5.04,2.87,.36,6.22,.66,10.13,.89h0c.88,.06,1.79,.11,2.73,.15,3.22,.16,6.77,.27,10.71,.34,.7,0,1.42,.02,2.15,.03,2.34,.03,4.8,.05,7.4,.05,2.06,0,4.04,0,5.93-.03,1.26-.01,2.48-.03,3.67-.05,1.23-.02,2.42-.05,3.58-.08,.74-.02,1.46-.04,2.17-.06,1.13-.04,2.23-.08,3.28-.13,.21,0,.41-.01,.61-.02Z"/><path class="o" d="M188.51,160.73c3.55,2,6.17,3.55,8.69,5.03,.65,.68,1.47,1.17,2.48,1.44h.01c2.16,1.25,4.45,2.53,7.4,4.09h.01s.03-.03,.04-.04c2.07,1.98,3.95,4.19,5.6,6.62l.06,.85c-1.9,.12-3.82,.27-5.77,.44h0c-4.9-8.78-24.04-19.94-38.88-19.94,6.91-.88,13.88-.35,20.36,1.5h0Z"/><path class="o" d="M183.43,330.92c.39-.06,2.15-.2,4.66-.61h.01c.05,.22,.13,.42,.24,.61,.38,.72,1.05,1.38,1.95,1.96,4.62,2.98,15.16,3.8,21.62,.14h0c.65,3.93-.05,10.31-.48,14.44-1.68,15.98-3.73,34.15-6.33,44.95-1.97,.61-3.61,1.08-5.06,1.42,1.4-4.55,2.51-10.29,3.35-16.49,.19-.28,.29-.58,.29-.9,0-.17-.03-.34-.09-.51,1.65-12.6,2.31-26.81,2.45-36.61h0c-16.17-.01-15.27-2.77-18.32-4.12-2.84-1.25-17.68-2.05-23.99-2.61,.47-.49,.79-1.02,.94-1.58,.01-.01,.01-.02,.01-.03,.01-.02,.01-.05,.02-.07,3.37,.22,7.03,.16,11.04,.16,2.01,0,3.93-.03,5.78-.08,.67-.02,1.3-.04,1.91-.07Z"/><path class="o" d="M210.72,281.25s-.02,.01-.03,.02c-.5,.36-.99,.7-1.45,1.03-1.82-4.7-4.96-12.03-6.75-15.47,2.86,3.58,6.31,10.15,8.23,14.42Z"/><path class="o" d="M209.29,287.47c.44,.52-.33,1.98-1.4,3.38h-.01c-.53,.7-1.15,1.39-1.72,1.93l-.02,.02c-.21,.01-.44,.02-.67,.04-.69,.02-.93,.54-.9,1.08-.03,0-.06,.02-.09,.02-.05,0-.09,0-.12-.01-.91-.17-2.05-2.01-1.22-2.96,.12-.13,.32-.32,.58-.55h.01c1.5-1.29,4.93-3.69,5.56-2.95Z"/><path class="o" d="M208.77,237.46c1.96,.54,3.93,1.16,5.91,1.85-6.13,6.16-15.35,10.78-25.48,13.23,6.64-2.85,14.34-8.73,19.57-15.08Z"/><path class="o" d="M199.65,280.97c-2.04,.96-5.35-2.25-6.03-4.69,.71-.33,1.2-1.05,1.2-1.88,0-.38-.1-.74-.28-1.05-.25-2.26,.26-8.48,.76-10.33l.02-.08c2.03,.39,3.96,.92,5.28,1.93,.58,.44,1.22,1.12,1.89,1.96,1.79,3.44,4.93,10.77,6.75,15.47-.45,.31-.87,.6-1.28,.86-.16,.11-.32,.21-.48,.31-.37,.23-.72,.44-1.04,.63h-.01l-.06,.03h0c-1.02-.11-2.09-.21-3.23-.29h-.01s0-.03,0-.05h-.01c-.06-.19-.09-.39-.11-.6-.02-.09-.03-.18-.04-.27-.06-.65-.05-1.34-.18-1.87-.12-.53-.37-.9-.94-.9-.45,0-1.12,.84-1.79,2.11l-.39-1.29Z"/><path class="o" d="M208.41,301.22v.06c-3.53,.43-7.78,.77-12.87,1l-.57,.03c5.8-2.01,11.08-4.55,9.82-7.53-.01-.02-.01-.04-.02-.06,.03,.04,.06,.08,.1,.12,.01,.02,.03,.03,.05,.05,.95,1.11,1.78,2.34,2.42,3.62,.28,.56,.53,1.13,.74,1.7,.12,.33,.23,.67,.33,1.01Z"/><path class="o" d="M208.29,293.32c.11,.45-1.18,1.16-2.81,1.76-.21,.06-.41-.03-.56-.19-.2-.22-.34-.58-.35-.94v-.03c.36-.09,.94-.52,1.57-1.12,.04-.01,.07-.01,.11-.01,1.13-.02,1.96,.18,2.04,.53Z"/><path class="o" d="M207.03,317.28c5.92,12.58-4.94,17.14-16.74,15.6-.9-.58-1.57-1.24-1.95-1.96-.11-.19-.19-.39-.24-.61h-.01l-.03-.12c-2.21-5.06,2.92-18.27,8.87-19.22,.12-.02,.24-.03,.36-.05,2.93-.22,6.18,2.39,9.74,6.35h0Z"/><path class="o" d="M206.18,207.61c1.38,2.76,1.95,5.83,1.02,8.42-1.24,3.46-6.13,5.65-10.94,6.36h0c7.8-2.21,5.46-10.73,1.21-15.3,3.05-.74,6.18-.58,8.71,.52Z"/><path class="o" d="M207.03,179.15h0c-26.24,2.21-56.09,7.58-81.05,13.94l-.11-.43c3.22-7.83,7.65-14.23,12.85-19.28,.07,.07,.13,.13,.18,.19,2.89-1.78,4.93-3.07,6.72-4.23,.73-.48,1.42-.94,2.11-1.4,2.35-1.56,4.66-3.16,8.6-5.77,.02-.01,.03-.02,.05-.03,3.84-1.45,7.8-2.42,11.77-2.92,14.84,0,33.98,11.16,38.88,19.93Z"/><path class="o" d="M206.36,284.13c-.08,.05-.16,.09-.23,.13s-.14,.08-.2,.11c-.69,.35-1.23,.53-1.59,.5-.71-.05-1.05-.46-1.21-1.03,1.14,.08,2.21,.18,3.23,.29Z"/><path class="o" d="M205.47,292.84c.23-.02,.46-.03,.67-.04-.63,.6-1.21,1.03-1.57,1.12-.03-.54,.21-1.06,.9-1.08Z"/><path class="o" d="M206.04,339.31h0c-.14,9.81-.8,24.02-2.45,36.62-.5-1.39-3-2.44-6.01-2.44-3.36,0-6.09,1.32-6.09,2.95s2.73,2.95,6.09,2.95c2.72,0,5.03-.86,5.81-2.05-.84,6.2-1.95,11.94-3.35,16.49-4.64,1.09-7.42,.9-13.66,.24-.81-10.89-.51-29.01-3.21-30.41-.91-.47-1.96-.76-3.06-.9h-.01c-3.05-.44-6.45,.13-8.15,.64-1.54,.06-6.21,0-6.21,1.33,.05,6.54,.7,20.22-.73,29.65-4.83,.36-7.66,.04-14.13-1.97-1.73-7.49-4.25-20.57-9.19-43.88-.82-3.88-1.29-10.1-.61-14.65,.68,.36,1.39,.68,2.14,.95,7.21,2.63,17.29,1.13,20.5-2.24h.01c6.31,.56,21.15,1.36,23.99,2.61,3.05,1.35,2.15,4.11,18.32,4.11Zm-41.57,38.25c0-1.63-2.62-2.95-5.86-2.95s-5.86,1.32-5.86,2.95,2.63,2.95,5.86,2.95,5.86-1.32,5.86-2.95Z"/><path class="o" d="M204.79,294.78c1.26,2.98-4.02,5.52-9.82,7.53-.2,.01-.4,.02-.61,.02v-.05c-2.26-3.01-5.75-5.11-9.93-7.01,.48-.62,.99-1.22,1.49-1.76h.01c1.58-1.72,3.16-2.98,4.67-3.57h.01c.18-.07,.36-.13,.54-.18,.07-.02,.13-.04,.2-.06l.15-.03s.11-.03,.16-.04c1.15-.29,2.29-.35,3.42-.24h.01c.9,.06,1.78,.26,2.64,.54h.01c.05,.02,.1,.03,.15,.05h.02s.07,.03,.11,.04c.32,.11,.64,.24,.96,.37,1.9,.84,3.66,2.1,5.16,3.65,.21,.21,.42,.44,.63,.68,0,.02,0,.04,.02,.06Z"/><path class="o" d="M204.34,284.87c.36,.03,.9-.15,1.59-.5-1.16,.67-2.72,2.11-3.32,1.74-.58-.35,.36-1.84,.36-2.92h.02c.02,.21,.05,.41,.11,.6h.01s0,.03,0,.05h.01c.16,.57,.5,.98,1.21,1.03Z"/><path class="o" d="M203.59,375.93c.06,.17,.09,.34,.09,.51,0,.32-.1,.62-.29,.9,.07-.47,.14-.94,.2-1.41Z"/><path class="o" d="M203.59,375.93c-.06,.47-.13,.94-.2,1.41-.78,1.19-3.09,2.05-5.81,2.05-3.36,0-6.09-1.32-6.09-2.95s2.73-2.95,6.09-2.95c3.01,0,5.51,1.05,6.01,2.44Z"/><path class="o" d="M206.18,207.61c-2.53-1.1-5.66-1.26-8.71-.52-2.4-2.56-5.39-3.88-7.53-2.13,1.74-2.47,3.83-4.36,5.95-4.87,3.48-.83,8,2.91,10.29,7.52Z"/><path class="o" d="M205.1,392.41c-1.26,5.24-2.65,8.75-4.19,9.43-2.76,1.21-5.04,2.01-7.38,1.95,2.68-.75,4.81-4.49,6.51-9.96,1.45-.34,3.09-.81,5.06-1.42Z"/><path class="o" d="M200.04,282.26h0l-.03,.07h0c-.06,.11-.11,.2-.16,.31-.13,.28-.26,.57-.39,.88,0,.02,0,.03-.02,.05h-.01c-.81-.05-1.65-.1-2.52-.15h-.02c-1.06-.05-2.15-.1-3.28-.15-.41,0-.83-.03-1.25-.05-4.83-.17-10.33-.26-16.62-.26-4.48,0-8.56,.05-12.28,.14-2.06,.05-4.01,.11-5.85,.19-.05-.56-.12-1.22-.2-1.92,2.02-.75,4.31-2.88,4.79-4.61,.28,.15,.6,.23,.94,.23,1.15,0,2.08-.93,2.08-2.08,7.18-.46,17.87-.77,25.44-.26h.02c.12,1.02,1,1.83,2.06,1.83,.31,0,.61-.07,.88-.2,.68,2.44,3.99,5.65,6.03,4.69l.39,1.29Z"/><path class="o" d="M199.43,283.57h.01c-.25,.6-.48,1.25-.68,1.93,0-.01,0-.02-.01-.02-.45-.87-1.09-1.6-1.84-2.06,.87,.05,1.71,.1,2.52,.15Z"/><path class="o" d="M198.8,135.06l.16,.05c-2.32,9.11-6.84,25.43-1.76,30.65-2.52-1.48-5.14-3.03-8.69-5.03h0c3.38-6.37,7.02-15.22,10.29-25.67Z"/><path class="o" d="M157.61,283.29c1.84-.08,3.79-.14,5.85-.19,3.72-.09,7.8-.14,12.28-.14,6.29,0,11.79,.09,16.62,.26,.42,.02,.84,.04,1.25,.05,1.13,.05,2.22,.1,3.28,.15h.02c.75,.46,1.39,1.19,1.84,2.06,.01,0,.01,.01,.01,.02-.44,1.45-.73,3.02-.74,4.44v.05h-.01s-.07,0-.1-.01h-.02s-.1-.03-.15-.05h-.01c-.86-.28-1.74-.48-2.64-.55h-.01c-1.13-.1-2.27-.04-3.42,.25-.05,.01-.11,.03-.16,.04l-.15,.03h-.02c-.24-.02-.48-.02-.72-.03-4.4-.13-9.33-.2-14.87-.2-2.49,0-4.85,.01-7.1,.04-.01-.01-.02,0-.02,0-.09-.02-.17-.03-.25-.04h-.09c-.46-.05-.89-.05-1.31-.01-.04,.01-.1,.02-.14,.03h-.02c-.11,.01-.21,.02-.32,.04-.03,0-.05,.01-.08,.02-.01-.01-.02,0-.03,0-.82,.01-1.63,.03-2.41,.04-.36,.01-.71,.02-1.06,.03-1.24,.03-2.44,.07-3.6,.1-.01-.02-.02-.03-.03-.05-1.9-2.79-4.59-5.11-5.62-5.11l-.07-1.08c.2-.02,.41-.03,.61-.04,.16-.01,.32-.02,.49-.02,.94-.05,1.91-.09,2.92-.13Z"/><path class="o" d="M197.47,207.09c4.25,4.57,6.59,13.09-1.21,15.29h0c-4.77,.71-9.47-.04-10.47-2.42-.06-.14-.11-.28-.15-.43l.05-.02c.89-5.27,4.11-8.95,7.99-10.98,.16,.26,.45,.43,.78,.43,.51,0,.92-.41,.92-.93,0-.09-.01-.18-.04-.26,.7-.28,1.42-.51,2.13-.68Z"/><path class="o" d="M197.27,310.27l.02,.65c-.12,.02-.24,.03-.36,.05-5.95,.95-11.08,14.16-8.87,19.22l.03,.12c-2.51,.41-4.27,.55-4.66,.61-.61,.03-1.24,.05-1.91,.07-1.85,.05-3.77,.08-5.78,.08-4.01,0-7.67,.06-11.04-.16,1.63-3.74-.74-11.93-4.51-16.33-.64-.75-1.32-1.4-2.03-1.88h0c-.75-.52-1.53-.87-2.33-1-.24-.04-.49-.06-.73-.06l.14-2.8c4.82,.24,10.41,.38,16.9,.41,6.98,.89,16.37,1.22,25.13,1.02Z"/><path class="o" d="M197.47,207.09c-.71,.17-1.43,.4-2.13,.68-.11-.38-.46-.66-.88-.66-.51,0-.93,.41-.93,.92,0,.19,.05,.36,.15,.5-3.88,2.03-7.1,5.71-7.99,10.98l-.05,.02c-1.04-3.4,1.04-9.98,4.3-14.57,2.14-1.75,5.13-.43,7.53,2.13Z"/><path class="o" d="M195.34,207.77c.03,.08,.04,.17,.04,.26,0,.52-.41,.93-.92,.93-.33,0-.62-.17-.78-.43,.54-.29,1.1-.55,1.66-.76Z"/><path class="o" d="M195.32,262.94l-.02,.08c-.5,1.85-1.01,8.07-.76,10.33-.36-.62-1.03-1.04-1.8-1.04-.58,0-1.1,.24-1.48,.62-.23-2.01,.09-8.37,.66-10.45l.02-.12c1.1,.18,2.25,.36,3.38,.58Z"/><path class="o" d="M194.46,207.11c.42,0,.77,.28,.88,.66-.56,.21-1.12,.47-1.66,.76-.1-.14-.15-.31-.15-.5,0-.51,.42-.92,.93-.92Z"/><path class="o" d="M194.54,273.35c.18,.31,.28,.67,.28,1.05,0,.83-.49,1.55-1.2,1.88-.27,.13-.57,.2-.88,.2-1.06,0-1.94-.81-2.06-1.83-.01-.08-.02-.17-.02-.25,0-.57,.22-1.08,.6-1.46h0c.38-.39,.9-.63,1.48-.63,.77,0,1.44,.42,1.8,1.04Z"/><path class="o" d="M194.36,302.28v.05c-1.05,.05-2.15,.09-3.28,.13-.71,.02-1.43,.04-2.17,.06v-.05l-.02-.02c-.47-.44-.95-.87-1.43-1.3-.56-.5-1.12-1-1.69-1.48-.94-.82-1.9-1.61-2.86-2.38,.38-.54,.76-1.05,1.14-1.54,.12-.16,.25-.32,.38-.48,4.18,1.9,7.67,4,9.93,7.01Z"/><path class="o" d="M186.38,394.07c6.24,.66,9.02,.85,13.66-.24-1.7,5.47-3.83,9.21-6.51,9.96h0c-1.7-.04-3.43-.53-5.4-1.65-.93-.54-1.42-3.73-1.74-8.07Z"/><path class="o" d="M191.94,262.36l-.02,.12c-.57,2.08-.89,8.44-.66,10.45h0c-.38,.39-.6,.9-.6,1.47,0,.08,.01,.17,.02,.25h-.02c-7.57-.51-18.26-.2-25.44,.26,0-.57-.23-1.08-.6-1.46,.23-2-.09-8.37-.66-10.46,2.18-.39,3.96-.9,4.57-2.01,.62-1.13,.82-2.45,.77-3.8,6.81,.61,9.29,.48,15.77-.76h.01c.25,1.05,.63,2.14,1.12,3.39,.6,1.52,2.99,2.08,5.74,2.55Z"/><path class="o" d="M184.43,295.27c-.13,.16-.26,.32-.38,.48-.38,.49-.76,1-1.14,1.54-2.37-1.87-4.73-3.57-6.97-4.88-.41-.24-.82-.47-1.22-.68-1.68-.91-3.28-1.59-4.72-1.96-.28-.08-.54-.14-.81-.18-.19-.03-.37-.06-.55-.08,2.25-.03,4.61-.04,7.1-.04,5.54,0,10.47,.07,14.87,.2,.24,0,.48,0,.72,.03h.02c-.07,.02-.13,.04-.2,.06-.18,.05-.36,.11-.54,.19h-.01c-1.51,.58-3.09,1.84-4.67,3.56h-.01c-.5,.54-1.01,1.14-1.49,1.76Z"/><path class="o" d="M190.52,192.43c.07,.52-.7,1.21-1.75,1.82-1.69-.04-3.41-.06-5.14-.06,.39-1.02,1.4-2.25,2.87-2.7,1.77-.54,3.91,.13,4.02,.94Z"/><path class="o" d="M188.91,302.47v.05c-1.16,.03-2.35,.06-3.58,.08-1.19,.02-2.41,.04-3.67,.05,.05-.08,.07-.15,.1-.23,.72-2.44-3.33-6.35-8.22-9.17-.01,0-.01-.01-.02-.01,.33-.39,.67-.78,1.02-1.18l.18-.33c.4,.21,.81,.44,1.22,.68,2.24,1.31,4.6,3.01,6.97,4.88,.96,.77,1.92,1.56,2.86,2.38,.57,.48,1.13,.98,1.69,1.48,.48,.43,.96,.86,1.43,1.3l.02,.02Z"/><path class="o" d="M186.28,228.89c1.42,1.47,1.01,3.47-.53,5.43h-.01c-1.1,1.41-2.79,2.79-4.8,3.94,.28-1.15-1.42-6.95-2.4-8.63,2.87-1.85,5.36-3.19,7.74-.74Z"/><path class="o" d="M185.08,256.42h-.01c-6.48,1.24-8.96,1.37-15.77,.76-.03-.92-.18-1.85-.37-2.74,1.28,.06,2.55,.09,3.82,.09,3.99,0,8.03-.36,11.97-1.05v.02c0,1,.12,1.94,.36,2.92Z"/><path class="o" d="M188.77,194.25c-1.87,1.11-4.66,1.98-5.21,1.28-.2-.25-.17-.76,.07-1.34,1.73,0,3.45,.02,5.14,.06Z"/><path class="o" d="M173.54,293.25c4.89,2.82,8.94,6.73,8.22,9.17-.03,.08-.05,.15-.1,.23-1.89,.02-3.87,.03-5.93,.03-2.6,0-5.06-.02-7.4-.05v-.05c.74-3.27,2.65-6.29,5.19-9.34,0,0,0,.01,.02,.01Z"/><path class="o" d="M178.54,229.63c.98,1.68,2.68,7.48,2.4,8.63-2.45,1.39-5.37,2.43-8.29,2.72,.27-1.15-.36-6.05-1.34-7.73,2.71-.57,5.08-2.23,7.23-3.62Z"/><path class="o" d="M160.94,218.72c.19-2.1,18.34-4.2,18.35-2.04,0,1.69-5.57,4.36-10.01,4.36-3.71,0-8.49-.75-8.34-2.32Z"/><path class="o" d="M174.72,291.73l-.18,.33c-.35,.4-.69,.79-1.02,1.18-2.84-1.65-5.98-2.91-8.62-3.3l-.04-.04s.02-.01,.03-.01c.48-.15,.98-.26,1.49-.34,.01,0,.02-.01,.03,0,.03-.01,.05-.02,.08-.02,.11-.02,.21-.03,.32-.04h.02s.1-.02,.14-.03c.42-.04,.85-.04,1.31,.01h.09c.08,.01,.16,.02,.25,.04,0,0,.01-.01,.02,0,.18,.02,.36,.05,.55,.08,.27,.04,.53,.1,.81,.18,1.44,.37,3.04,1.05,4.72,1.96Z"/><path class="o" d="M173.48,224.1c.59,1.46-1.11,3.11-3.75,3.28-.25,.02-.51,0-.76-.05,2.49-.11,2.9-2.72,2.46-3.57v-.19c1.07,0,1.9,.15,2.05,.53Z"/><path class="o" d="M171.31,233.25c.98,1.68,1.61,6.58,1.34,7.73-2.71,.27-5.86-.05-8.48-.78,.28-1.15,.44-5.4-.54-7.09,1.82,.06,3.92,.4,6.06,.34,.55-.02,1.09-.09,1.62-.2Z"/><path class="o" d="M171.43,223.76c.44,.85,.03,3.46-2.46,3.57-1.79-.33-3.43-2.05-2.86-2.74,.4-.49,3.28-1.03,5.32-1.02v.19Z"/><path class="o" d="M171.95,363.4c-.79,.23-1.32,1.4-1.68,3.2-1.18,5.89-.44,18.58-.58,27.33-1.8,.19-3.32,.35-4.68,.45,1.43-9.43,.78-23.11,.73-29.65,0-1.33,4.67-1.27,6.21-1.33Z"/><path class="o" d="M159.78,293.2c.31-.32,.62-.62,.94-.91,1.11-.98,2.37-1.75,3.76-2.25t.02-.01c.12-.05,.24-.09,.36-.13l.04,.04c2.64,.39,5.78,1.65,8.62,3.3-2.54,3.05-4.45,6.07-5.19,9.34v.05c-.73-.01-1.45-.02-2.15-.03-3.94-.07-7.49-.18-10.71-.34v-.04c.55-3.31,2.06-6.59,4.31-9.02Z"/><path class="o" d="M169.69,393.93c-.07,4.88-.42,8.53-1.52,9.12-2.77,1.5-5.63,1.65-8.17,1.21,2.69-.47,4.19-4.48,5.01-9.88,1.36-.1,2.88-.26,4.68-.45Z"/><path class="o" d="M166.38,289.55c-.51,.08-1.01,.19-1.49,.34-.01,0-.02,.01-.03,.01-.12,.04-.24,.08-.36,.13t-.02,.01c-1.39,.5-2.65,1.27-3.76,2.25-.35-.86-.85-1.74-1.41-2.57,1.16-.03,2.36-.07,3.6-.1,.35-.01,.7-.02,1.06-.03,.78-.01,1.59-.03,2.41-.04Z"/><path class="o" d="M160.19,314.58c3.77,4.4,6.14,12.59,4.51,16.33-.01,.02-.01,.05-.02,.07,0,.01,0,.02-.01,.03-.15,.56-.47,1.09-.94,1.58h-.01c-3.21,3.37-13.29,4.87-20.5,2.24,10.17,.4,16.7-2.26,17.07-10.64,1.36-2.53,.68-6.21-.24-9.49l.14-.12Z"/><path class="o" d="M164.62,273.45c.37,.38,.6,.89,.6,1.46,0,1.15-.93,2.08-2.08,2.08-.34,0-.66-.08-.94-.23-.68-.34-1.14-1.04-1.14-1.85,0-.38,.1-.74,.28-1.05,.37-.62,1.03-1.03,1.8-1.03,.58,0,1.1,.24,1.48,.62Z"/><path class="o" d="M163.96,262.99c.57,2.09,.89,8.46,.66,10.46-.38-.38-.9-.62-1.48-.62-.77,0-1.43,.41-1.8,1.03,.25-2.26-.26-8.48-.76-10.32,1.16-.2,2.32-.36,3.38-.55Z"/><path class="o" d="M163.63,233.11c.98,1.69,.82,5.94,.54,7.09-3.93-1.1-6.68-3.14-4.98-5.57,.95-1.36,2.54-1.6,4.44-1.52Z"/><ellipse class="o" cx="158.61" cy="377.56" rx="5.86" ry="2.95"/><path class="o" d="M150.88,392.41c6.47,2.01,9.3,2.33,14.13,1.97-.82,5.4-2.32,9.41-5.01,9.88-1.61-.27-3.1-.78-4.35-1.34-2-.89-2.94-2.54-4.77-10.51Z"/><path class="o" d="M155.19,281.49c-.17,.65-.34,1.3-.5,1.93-.17,0-.33,0-.49,.02-.2,.01-.41,.02-.61,.04-5.17,.28-9.39,.69-12.84,1.19h0c1.16-2.71,9.37-16.15,12.99-18.89,1.69-1.27,4.28-1.83,6.84-2.24,.5,1.84,1.01,8.06,.76,10.32-.18,.31-.28,.67-.28,1.05,0,.81,.46,1.51,1.14,1.85-.48,1.73-2.77,3.86-4.79,4.61-.25-2.13-.6-4.7-.73-6.39-.23,1.74-.87,4.16-1.49,6.51Z"/><path class="o" d="M160.05,314.7c.92,3.28,1.6,6.96,.24,9.49,.14-3.04-.53-6.83-2.13-11.49,.71,.48,1.39,1.13,2.03,1.88l-.14,.12Z"/><path class="o" d="M139,326.22c4.54-5.83,8.68-11.03,12.39-13.33h0c1.29-.8,2.53-1.25,3.71-1.25,.24,0,.49,.02,.73,.06,.8,.13,1.58,.48,2.33,.99h0c1.6,4.67,2.27,8.46,2.13,11.5-.37,8.38-6.9,11.04-17.07,10.64-.75-.27-1.46-.59-2.14-.95-1.26-.69-2.38-1.53-3.28-2.56-1.74-1.73-2.25-4.68-2.26-6.96,.93,.58,1.97,1.13,3.13,1.63,.03,.02,.06,.04,.09,.04l.24,.19Z"/><path class="o" d="M160.72,292.29c-.32,.29-.63,.59-.94,.91-.96-2.84-3.26-5.59-4.37-5.15-1.25,.48-.31,2.79-1.3,4.09-1.32,1.73-8.79-2.53-21.32-5.78-1.44-.37-2.94-.73-4.51-1.06v-.03c1.26-.1,3.24,.21,5.56,.72,.04,.01,.09,.02,.13,.03,.47,.1,.95,.21,1.44,.33,1.8,.42,3.72,.93,5.62,1.42,2.92,.77,5.78,1.52,7.98,1.94h.01c.94,.18,1.75,.31,2.41,.35,.17,.01,.33,.02,.48,.02h.05c.21,0,.4-.01,.56-.04h0c.1-.02,.18-.04,.26-.07,.05-.01,.09-.03,.13-.05,2.21-1.09-1.31-4.57,.55-5.33,.05-.02,.12-.03,.19-.03,1.03,0,3.72,2.32,5.62,5.11,.01,.02,.02,.03,.03,.05,.56,.83,1.06,1.71,1.41,2.57Z"/><path class="o" d="M159.06,194.8c.17,1.1-.04,2.11-.5,2.43-.85,.6-3.2-.66-4.72-2.14,1.71-.1,3.45-.19,5.22-.29Z"/><path class="o" d="M158.1,192.57c.54,.65,.85,1.46,.96,2.23-1.77,.1-3.51,.19-5.22,.29-.54-.52-.97-1.07-1.19-1.57h0c1.81-.33,3.63-.65,5.45-.95Z"/><path class="o" d="M159.78,293.2c-2.25,2.43-3.76,5.71-4.31,9.02v.04c-.94-.04-1.85-.09-2.73-.14h0c-3.91-.24-7.26-.54-10.13-.9v-.04c.39-.18,.8-.34,1.16-.52,.06-.03,.13-.06,.2-.09,1.04-.39,3.06-.28,3.11-.92,.04-.72-3.43-1.49-4.63-2.21-.04-.03-.08-.05-.12-.08-1.64-.98-3.94-2.18-6.27-3.46-.78-.43-1.57-.87-2.33-1.31-.03-.02-.05-.03-.08-.05-1.18-.68-2.3-1.37-3.29-2.04-.93-.63-1.73-1.25-2.34-1.84h-.01s-.02-.03-.04-.05c-1.07-1.05-1.54-2.02-1.01-2.83,.2-.3,.66-.46,1.32-.51v.03c1.57,.33,3.07,.69,4.51,1.06,12.53,3.25,20,7.51,21.32,5.78,.99-1.3,.05-3.61,1.3-4.09,1.11-.44,3.41,2.31,4.37,5.15Zm-4.89,6.05c1.26,.04,2.43-1.98,1.98-2.79-.54-.98-8.32-1.2-8.59,.26-.21,1.13,5.4,2.49,6.61,2.53Z"/><path class="o" d="M157.41,281.37c.08,.7,.15,1.36,.2,1.92-1.01,.04-1.98,.08-2.92,.13,.16-.63,.33-1.28,.5-1.93,.6,.28,1.39,.2,2.22-.12Z"/><path class="o" d="M156.68,274.98c.13,1.69,.48,4.26,.73,6.39-.83,.32-1.62,.4-2.22,.12,.62-2.35,1.26-4.77,1.49-6.51Z"/><path class="o" d="M156.87,296.46c.45,.81-.72,2.83-1.98,2.79-1.21-.04-6.82-1.4-6.61-2.53,.27-1.46,8.05-1.24,8.59-.26Z"/><path class="o" d="M156.38,162.14s-.03,.02-.05,.03c-3.94,2.61-6.25,4.21-8.6,5.77l-.07-.11c3.55-1.78-2.56-18.05-3.91-48.61-.3-6.82-1.7-21.63-6.14-31.93h0c3.6,7.24,6.67,16.96,8.07,28.65,2.41,20.23,6.29,35.98,10.69,46.2Z"/><path class="o" d="M150.43,205.91c3.69,4.56,6.25,11.37,5.09,14.71-.92-5.43-4.35-9.1-8.42-11.02-.03-.48-.42-.86-.91-.86-.23,0-.45,.09-.61,.23-.78-.27-1.57-.49-2.36-.64,2.19-2.59,5-3.98,7.2-2.43,0,.01,.01,.01,.01,.01Z"/><path class="o" d="M155.24,308.84l-.14,2.8c-1.18,0-2.42,.45-3.71,1.24h0c-3.71,2.31-7.85,7.51-12.39,13.34l-.24-.19s-.06-.02-.09-.04c-1.16-.5-2.2-1.05-3.13-1.63-8.28-5.13-8.28-12.79-8.28-21.36l.05-.04c2.93,2.87,10.15,5.01,27.93,5.88Z"/><path class="o" d="M153.59,283.48l.07,1.08c-.07,0-.14,.01-.19,.03-1.86,.76,1.66,4.24-.55,5.33-.04,.02-.08,.04-.13,.05-.08,.03-.16,.05-.26,.07h0c-.19,.01-.38,.02-.56,.04h-.05c-.15,0-.31-.01-.48-.02-.66-.04-1.47-.17-2.41-.35h-.01c-2.2-.42-5.06-1.17-7.98-1.94-1.9-.49-3.82-1-5.62-1.42-.49-.12-.97-.23-1.44-.33,.69-.19,1.45-.38,2.26-.55,1.33-.29,2.83-.55,4.52-.8,3.45-.5,7.67-.91,12.84-1.19Z"/><path class="o" d="M152.65,193.52c.22,.5,.65,1.05,1.19,1.57-6.17,.38-11.9,.84-16.8,1.31,5.08-.99,10.31-1.96,15.61-2.89h0Z"/><path class="o" d="M150.42,205.9c-2.2-1.55-5.01-.16-7.2,2.43-2.96-.59-5.95-.36-8.38,.7l-.17-.08c2.09-4.46,6.13-8.09,9.5-7.51,2.15,.37,4.35,2.11,6.25,4.46Z"/><path class="o" d="M155.52,220.62c-.84,2.44-5.49,3.48-10.3,3.09-.01,0-.02,0-.03-.01-7.99-1.74-6.04-10.59-1.97-15.37,.79,.15,1.58,.37,2.36,.64-.2,.17-.32,.42-.32,.7,0,.51,.42,.93,.93,.93s.92-.42,.92-.93c0-.02,0-.05-.01-.07,4.07,1.92,7.5,5.59,8.42,11.02Z"/><path class="o" d="M147.66,167.83l.07,.11c-.69,.46-1.38,.92-2.11,1.4-3.92-6.39-9.32-17.56-8.42-33.18,.54-9.18,.49-17.33-.09-25.01,0-.02-.01-.05-.01-.07-.04-.9-.11-1.76-.21-2.58-.4-4.37-.98-8.6-1.71-12.82h-.01c-.51-5.1-6.43-20.57-14.38-22.35,.79-.42,1.56-.66,2.3-.69,4.05-.18,9.76,5.08,14.53,14.65h0c4.44,10.3,5.84,25.11,6.14,31.93,1.35,30.56,7.46,46.83,3.91,48.61Z"/><path class="o" d="M147.1,209.6s.01,.05,.01,.07c0,.51-.41,.93-.92,.93s-.93-.42-.93-.93c0-.28,.12-.53,.32-.7,.51,.19,1.02,.4,1.52,.63Z"/><path class="o" d="M142.45,297.44c1.2,.72,4.67,1.49,4.63,2.21-.05,.64-2.07,.53-3.11,.92,.51-.29,.85-.65,.71-1.27-.1-.44-.95-1.07-2.23-1.86Z"/><path class="o" d="M146.19,208.74c.49,0,.88,.38,.91,.86-.5-.23-1.01-.44-1.52-.63,.16-.14,.38-.23,.61-.23Z"/><path class="o" d="M144.68,299.3c.14,.62-.2,.98-.71,1.27-.07,.03-.14,.06-.2,.09-.36,.18-.77,.34-1.16,.52v.04c-9.15-1.14-13.47-2.89-15.5-5.04-.03-.04-.06-.07-.09-.1l.02-.02s.05-.06,.07-.08c1.03-1.09,2.66-2.09,5.2-2.95,.44-.15,.91-.3,1.42-.44,.76,.44,1.55,.88,2.33,1.31,2.33,1.28,4.63,2.48,6.27,3.46,.04,.03,.08,.05,.12,.08,1.28,.79,2.13,1.42,2.23,1.86Z"/><path class="o" d="M134.84,209.03c2.43-1.06,5.42-1.29,8.38-.7-4.07,4.78-6.02,13.63,1.97,15.37-4.84-.4-9.83-2.27-11.29-5.64-1.17-2.71-.65-6.1,.77-9.11l.17,.08Z"/><path class="o" d="M135.38,228.7c3.07,0,5.55,1.32,5.55,2.95s-2.48,2.94-5.55,2.94-5.55-1.31-5.55-2.94,2.49-2.95,5.55-2.95Z"/><path class="o" d="M145.62,169.34c-1.79,1.16-3.83,2.45-6.72,4.23-.05-.06-.11-.12-.18-.19,1.31-2.62-2.02-13.68-2.93-16.9-3.08-10.81,1.95-31.95,1.32-45.33,.58,7.68,.63,15.83,.09,25.01-.9,15.62,4.5,26.79,8.42,33.18Z"/><path class="o" d="M135.79,156.48c.91,3.22,4.24,14.28,2.93,16.9-7.22-7.67-21.58-19.55-28.95-38.07-10.3-25.91,1.6-56.96,11.01-61.98h.01c7.95,1.78,13.87,17.25,14.38,22.35h.01c.73,4.22,1.31,8.45,1.71,12.82,.08,.86,.15,1.72,.21,2.58,0,.02,.01,.05,.01,.07,.63,13.38-4.4,34.52-1.32,45.33Z"/><path class="o" d="M125.49,292.95h-.03v-.03h0c.16-.93,.45-1.81,1.02-2.65,.37-.56,.87-1.1,1.53-1.61h.01c.61,.59,1.41,1.21,2.34,1.84,.99,.67,2.11,1.36,3.29,2.04,.03,.02,.05,.03,.08,.05-.51,.14-.98,.29-1.42,.44-2.54,.86-4.17,1.86-5.2,2.95-.02,.02-.05,.05-.07,.08l-.02,.02c-.88-.98-1.32-2.02-1.53-3.13Z"/><path class="o" d="M123.38,218.49c-.13,.93-.26,1.86-.37,2.78-.17,1.39-.23,2.73-.18,4.02h-.02c-26.65-.81-50.55-3.76-50.94-8.42-.03-.38,.09-.78,.38-1.2h.01c3.19-4.78,26.32-11.39,55.68-17.45-2.21,6.71-3.62,13.69-4.56,20.27Z"/></g></g><g id="c"><g><path class="k" d="M269.52,187.12c.99,8.68-26.72,21.73-48.04,27.84-1.78-10.09-4.94-20.8-10.27-29.89h0c27.52-2.98,49.98-3.67,56.44-.17,.02,.01,.04,.03,.06,.04,.46,.32,.88,.66,1.28,1h.01c.3,.37,.47,.76,.52,1.18Z"/><path class="y" d="M267.65,184.9c-6.46-3.5-28.92-2.81-56.44,.16-16.64,1.8-35.13,4.44-53.06,7.5-1.82,.3-3.64,.62-5.45,.94-5.3,.93-10.53,1.9-15.61,2.89h-.02c-3.08,.6-6.11,1.21-9.08,1.82-29.36,6.06-52.49,12.67-55.68,17.44,2.99-6.68,25.15-15.28,53.72-22.57,24.96-6.36,54.81-11.73,81.05-13.93,1.95-.17,3.87-.32,5.77-.44,24.78-1.68,45.6-.26,54.8,6.19Z"/><path class="k" d="M231.54,246.57c-1.33-.71-2.69-1.39-4.05-2.05l.85-1.79c.85,1.26,10.44-2.07,12.09,.03,.78,1-6.12,1.97-6,2.87,.16,1.24,11.42-.12,12.39,1.17,.55,.75-6.41,1.1-6.39,1.83,.02,.95,10.82,1.36,10.82,2.22,0,.55-5.74,1.24-6.26,2.35-1.09,2.29,4.34,9.63,2.75,9.92-2.42,.45-4.9-8.48-6.83-8.27-1.3,.15-.21,4.4-1.4,4.48-1.73,.1-3.16-8.74-4.69-8.61-1.09,.09-1.43,4.6-2.09,4.56-.77-.04-.68-6.37-2.08-7l.89-1.71Z"/><path class="v" d="M240.72,86.95c4.65,13.05,6.12,33.51-2.62,50.57-8.47,16.53-22.59,26.78-30.91,33.72-.01,.01-.03,.02-.04,.04-2.95-1.56-5.25-2.84-7.41-4.09,.26-.36,.53-.75,.8-1.14,.29-.44,.59-.89,.89-1.36,6.7,1.52,9.02,.78,21.09-11.61,9.66-9.93,22.75-34.63,18.18-66.12h.02Z"/><path class="g" d="M240.7,86.96c4.57,31.49-8.52,56.19-18.18,66.12-12.07,12.39-14.39,13.13-21.09,11.61,4.17-6.5,8.81-16.29,9.28-28.93,.58-15.55,2.54-27.98,5.87-40.11h-.01c2.03-5.51,11.26-21.7,18.58-18.97h.01c2.03,2.28,3.98,5.85,5.55,10.27h-.01Z"/><path class="k" d="M235.16,76.67h-.01c-7.32-2.72-16.55,13.47-18.58,18.98h.01c-3.33,12.13-5.29,24.56-5.87,40.11-.47,12.64-5.11,22.43-9.28,28.93-.3,.47-.6,.92-.89,1.36-.27,.39-.54,.78-.8,1.14h-.01c-.84-.49-1.66-.97-2.49-1.46-5.05-5.26-.54-21.54,1.77-30.63l-.16-.05c1.95-6.24,3.78-13.05,5.34-20.23,5.8-26.71,19.55-41.95,26.61-40.96,1.43,.2,2.92,1.19,4.36,2.81Z"/><path class="y" d="M231.54,246.57l-.89,1.71c-.05-.02-.09-.03-.14-.04-.9-.15-1.68,2.03-2.61,1.82-1.17-.25-1.01-3.95-1.82-4.04h-.03l.61-1.89c.27,.13,.55,.26,.83,.39,1.36,.66,2.72,1.34,4.05,2.05Z"/><path class="y" d="M229.86,240.54c.42,.87-1.75,1.44-1.57,2.09,.01,.04,.03,.07,.05,.1l-.85,1.79c-.28-.13-.56-.26-.83-.39-1.2-.57-2.41-1.11-3.63-1.64-.3-.13-.6-.25-.91-.38,1.76-1.91,7.5-2.06,7.74-1.57Z"/><path class="r" d="M204.82,294.71c-.21-.24-.42-.47-.63-.68-1.5-1.55-3.26-2.81-5.16-3.65-.32-.13-.64-.26-.96-.37-.04-.01-.07-.02-.11-.04,.03,0,.07,0,.1,0h.01v-.05c.01-1.42,.3-2.99,.74-4.44,.2-.68,.43-1.33,.68-1.93,.01-.02,.01-.03,.02-.05,.13-.31,.26-.6,.39-.88,.05-.11,.1-.2,.16-.3h0l.03-.07h0c.67-1.28,1.34-2.12,1.79-2.12,.57,0,.82,.37,.94,.9,.13,.53,.12,1.22,.18,1.87,0,.09,.02,.18,.04,.27h-.02c0,1.08-.94,2.57-.36,2.92,.6,.37,2.16-1.08,3.32-1.74,.06-.03,.13-.07,.2-.11s.15-.08,.23-.13h.01l.06-.03h.01c.32-.19,.67-.4,1.04-.63,.16-.1,.32-.2,.48-.31,.41-.26,.83-.55,1.28-.86,.46-.33,.95-.67,1.45-1.03,.01-.01,.02-.01,.03-.02,6.12-4.43,14.35-11.21,16.11-9.99,.76,.53,.72,1.53,.2,2.83l-.26-.12c-9.89,12.92-15.08,14.01-14.06,16.21,.69,1.49,2.87,2.02,2.81,3.36-.09,1.76-4.71,4.12-8.1,4.93l-.08,.04c-.64-1.28-1.47-2.51-2.42-3.62,.15,.16,.35,.25,.56,.19,1.63-.6,2.92-1.31,2.81-1.76-.08-.35-.91-.55-2.04-.53-.04,0-.07,0-.11,.01l.02-.02c.57-.54,1.19-1.23,1.72-1.93h.01c1.07-1.4,1.84-2.86,1.4-3.38-.63-.74-4.06,1.66-5.56,2.95h-.01c-.26,.23-.46,.42-.58,.55-.83,.95,.31,2.79,1.22,2.96,.03,.01,.07,.01,.12,.01,.03,0,.06-.01,.09-.02v.03c.01,.36,.15,.72,.35,.94-.02-.02-.04-.03-.05-.05-.04-.04-.07-.08-.1-.12Z"/><path class="p" d="M220.1,293.34c-.11,.32-.35,.69-.72,1.1-1.71,1.96-6.1,4.73-11.25,5.76-.21-.57-.46-1.14-.74-1.7l.08-.04c3.39-.81,8.01-3.17,8.1-4.93,.06-1.34-2.12-1.87-2.81-3.36-1.02-2.2,4.17-3.29,14.06-16.21l.26,.12c-1.33,3.27-5.81,8.34-8.78,12.04-.02,.02-.03,.04-.05,.06l-.02,.02c-1.61,2.03-2.77,3.63-2.67,4.25,.33,2,4.16-.28,4.59,2.44,.02,.13,0,.28-.05,.44h0Z"/><path class="y" d="M226.66,244.13l-.61,1.89c-.78,0-1.45,3.32-2.19,3.26-.42-.03-1.68-3.72-.88-6.68l.05-.11c1.22,.53,2.43,1.07,3.63,1.64Z"/><path class="k" d="M226.03,292.91c.18,1.08,.18,2.25,.18,3.33,0,2.45,0,4.74-2,6.7-1.7,1.67-4.87,3.1-10.74,4.18h0c1.65-1.19,1.4-5.14,.09-6.61,6.04-1.11,9.19-2.6,10.84-4.35,.03-.04,.06-.07,.09-.1,.89-.97,1.32-2.04,1.52-3.15h.02Z"/><path class="k" d="M226.01,292.91c-.2,1.11-.63,2.18-1.52,3.15-.02-.02-.04-.04-.06-.07l-.03-.03c-.86-.91-2.13-1.75-4.01-2.51-.1-.04-.19-.08-.29-.11h0c.05-.17,.07-.32,.05-.45-.43-2.72-4.26-.44-4.59-2.44-.1-.62,1.06-2.22,2.67-4.25,.36,.11,.7,.22,1.02,.33,3.26,1.11,5,2.44,5.92,3.91,.17,.27,.3,.55,.42,.83,.21,.51,.36,1.06,.44,1.64h-.02Z"/><path class="k" d="M213.56,300.51c-1.51,.28-3.2,.53-5.09,.76v-.06c-.11-.34-.22-.68-.34-1.01,5.15-1.03,9.54-3.8,11.25-5.76,.37-.41,.61-.78,.72-1.1,.1,.03,.19,.07,.29,.11,1.88,.76,3.15,1.6,4.01,2.51l.03,.03s.04,.05,.06,.07c-.03,.03-.06,.06-.09,.1-1.65,1.75-4.8,3.24-10.84,4.35Z"/><path class="k" d="M224.21,302.94l.05,.05c0,8.1,0,15.39-6.99,20.49-.9,.66-1.91,1.28-3.05,1.86-.03,.01-.06,.03-.09,.04l-.26,.2c-1.3-1.68-2.57-3.3-3.82-4.82,.36-.34,.71-.71,1.04-1.08,2.9-3.25,4.01-7.81,4.41-10.92-4.64,.83-11.21,1.33-18.18,1.5-8.75,.2-18.14-.13-25.12-1.02,1.16,.02,2.36,.02,3.58,.02,18.55,0,30.28-.79,37.69-2.14,5.87-1.08,9.04-2.51,10.74-4.18Z"/><path class="a`" d="M222.19,219.43c1.07,7.57-1.95,14.34-7.46,19.87-1.98-.69-3.96-1.31-5.91-1.85,1.68-2.03,3.1-4.11,4.15-6.15,.35-.68,.66-1.38,.94-2.11h0c.7-.59,1.08-1.28,.99-1.97-.02-.22-.09-.42-.2-.61,2.2-8.88-.1-20.29-2.8-30.55-6.43-1.09-14.46-1.64-23.08-1.82,1.05-.61,1.82-1.3,1.75-1.82-.11-.81-2.25-1.48-4.01-.94-1.48,.45-2.49,1.68-2.88,2.7-8.14-.04-16.6,.21-24.57,.61-.11-.77-.42-1.58-.96-2.23,17.93-3.06,36.42-5.7,53.06-7.5h0c5.33,9.1,8.49,19.81,10.27,29.9,.27,1.51,.5,3,.71,4.47Z"/><path class="a`" d="M213.87,325.58l.26-.2s.06-.03,.09-.04c1.14-.58,2.15-1.2,3.05-1.86,.01,2.3-.5,5.35-2.27,7.11-.84,.96-1.87,1.77-3.04,2.42-6.46,3.66-17,2.84-21.62-.14,11.8,1.54,22.66-3.02,16.74-15.6,.98,1.07,1.97,2.25,2.97,3.49,1.25,1.52,2.52,3.14,3.82,4.82Z"/><path class="x" d="M214.9,227.22c.09,.69-.29,1.38-.99,1.96,.31-.83,.57-1.69,.79-2.57,.11,.19,.18,.39,.2,.61Z"/><path class="k" d="M206.24,207.59c-2.3-4.61-6.82-8.35-10.3-7.51-2.12,.51-4.21,2.4-5.95,4.86-3.26,4.59-5.34,11.18-4.3,14.58,.04,.15,.09,.29,.15,.43,1,2.38,5.7,3.13,10.48,2.43,4.81-.72,9.7-2.9,10.94-6.37,.93-2.59,.35-5.66-1.02-8.42Zm-37.17,19.73c.24,.05,.48,.06,.72,.05,2.64-.17,4.33-1.82,3.74-3.28-.15-.38-.98-.53-2.05-.53-2.04,0-4.92,.53-5.32,1.02-.57,.7,1.1,2.44,2.91,2.74Zm39.75,10.13c-5.23,6.35-12.93,12.23-19.57,15.08-.01,0-.01,.01-.02,.01-1.47,.35-2.96,.66-4.46,.93-3.94,.69-7.98,1.05-11.97,1.05-1.27,0-2.54-.03-3.82-.09-22.62-.98-45.37-10.71-46.1-29.16-.05-1.29,.01-2.63,.18-4.01,.11-.92,.24-1.85,.37-2.78,.94-6.58,2.35-13.56,4.56-20.27,2.97-.61,6-1.22,9.08-1.82h.02c4.9-.47,10.63-.93,16.8-1.31,1.52,1.48,3.87,2.74,4.72,2.14,.46-.32,.67-1.33,.5-2.43,7.97-.4,16.43-.65,24.57-.61-.24,.58-.27,1.09-.07,1.34,.55,.69,3.34-.18,5.21-1.28,8.62,.18,16.65,.73,23.08,1.82,2.7,10.26,5,21.67,2.8,30.55-.7-1.25-3.03-1.97-5.66-1.65-3.04,.38-5.35,1.98-5.15,3.6,.19,1.61,2.82,2.62,5.86,2.25,1.74-.21,3.23-.83,4.16-1.62-.28,.73-.59,1.43-.94,2.11-1.05,2.04-2.47,4.12-4.15,6.15Zm-23.02-3.14c1.54-1.96,1.95-3.96,.53-5.43-2.38-2.45-4.87-1.11-7.74,.74-2.15,1.39-4.52,3.05-7.23,3.62-.53,.11-1.07,.17-1.62,.19-2.14,.07-4.25-.28-6.06-.33-1.91-.08-3.49,.16-4.44,1.52-1.7,2.43,1.05,4.47,4.98,5.57,2.62,.73,5.77,1.05,8.48,.78,2.92-.29,5.84-1.33,8.29-2.72,2.01-1.15,3.7-2.53,4.81-3.94Zm-6.46-17.65c-.01-2.15-18.16-.05-18.35,2.05-.14,1.56,4.63,2.32,8.35,2.32,4.43,0,10-2.67,10-4.37Zm-23.77,3.95c1.15-3.34-1.4-10.15-5.09-14.71,0,0-.01,0-.01-.01-1.9-2.35-4.1-4.1-6.25-4.47-3.37-.58-7.41,3.06-9.5,7.52-1.42,3.01-1.94,6.4-.77,9.11,1.46,3.38,6.47,5.24,11.32,5.65,4.81,.39,9.46-.65,10.3-3.09Zm-14.58,11.03c0-1.63-2.49-2.95-5.55-2.95s-5.55,1.32-5.55,2.95,2.48,2.94,5.55,2.94,5.55-1.32,5.55-2.94Z"/><path class="y" d="M215.5,308.76c-.4,3.11-1.51,7.67-4.41,10.92-.33,.37-.68,.74-1.04,1.08-1-1.24-1.99-2.42-2.97-3.49h0c-3.56-3.97-6.81-6.58-9.74-6.36l-.02-.65c6.97-.17,13.54-.67,18.18-1.5Z"/><path class="ab" d="M214.7,226.61c-.22,.88-.48,1.74-.79,2.57h0c-.93,.8-2.42,1.42-4.16,1.63-3.04,.37-5.67-.64-5.86-2.25-.2-1.62,2.11-3.22,5.15-3.6,2.63-.32,4.96,.4,5.66,1.65Z"/><path class="y" d="M181.71,302.64c1.26,0,2.48-.03,3.67-.05,1.23-.02,2.42-.05,3.58-.08,.74-.02,1.46-.04,2.17-.06,1.13-.04,2.22-.08,3.28-.13,.2,0,.4-.01,.6-.02s.39-.02,.59-.03c5.09-.23,9.33-.57,12.87-1,1.89-.23,3.58-.48,5.09-.76,1.31,1.47,1.56,5.42-.09,6.6h0c-7.41,1.36-19.14,2.15-37.69,2.15-1.22,0-2.42,0-3.58-.02-6.49-.03-12.08-.17-16.9-.41-17.8-.87-25.02-3.02-27.94-5.89-2-1.96-2-4.25-2-6.7v-.68c0-.35,0-.7,.01-1.04,.02-.54,.06-1.06,.14-1.58h.03c.21,1.11,.65,2.15,1.53,3.13l.09,.09c2.03,2.15,6.34,3.91,15.5,5.05,2.88,.36,6.23,.66,10.14,.89h0c.88,.06,1.79,.11,2.72,.15,3.21,.16,6.77,.27,10.71,.34,.7,.01,1.42,.02,2.15,.03,2.34,.03,4.8,.05,7.4,.05,2.06,0,4.04-.01,5.93-.03Z"/><path class="k" d="M212.79,177.86l.06,.85c-1.9,.12-3.82,.27-5.77,.44h0c-4.9-8.78-24.04-19.94-38.88-19.94,6.91-.88,13.88-.35,20.36,1.5h0c3.55,2.01,6.15,3.55,8.68,5.02,.65,.69,1.47,1.19,2.49,1.46h.01c2.16,1.25,4.46,2.53,7.41,4.09,.01-.02,.03-.03,.04-.04,2.07,1.98,3.95,4.19,5.6,6.62Z"/><path class="w" d="M183.48,330.91c.39-.06,2.15-.2,4.67-.61,.05,.21,.13,.41,.24,.61,.38,.72,1.05,1.38,1.95,1.96,4.62,2.98,15.16,3.8,21.62,.14,.65,3.93-.05,10.31-.48,14.44-1.68,15.98-3.73,34.15-6.33,44.95-1.98,.61-3.61,1.08-5.06,1.42,1.4-4.55,2.51-10.29,3.35-16.49,.19-.28,.29-.58,.29-.9,0-.17-.03-.34-.09-.51,1.65-12.6,2.31-26.81,2.45-36.61h0c-16.17,0-15.27-2.77-18.32-4.12-2.84-1.25-17.68-2.05-23.99-2.61,.47-.49,.79-1.02,.94-1.58,.01-.01,.01-.02,.01-.03,.01-.02,.01-.05,.02-.07,3.37,.22,7.03,.16,11.04,.16,2.01,0,3.93-.03,5.78-.08,.67-.02,1.3-.04,1.91-.07Z"/><path class="a`" d="M210.77,281.24s-.02,.01-.03,.02c-.5,.36-.99,.7-1.45,1.03-1.82-4.7-4.96-12.03-6.75-15.47,2.86,3.58,6.31,10.15,8.23,14.42Z"/><path class="p" d="M209.34,287.46c.44,.52-.33,1.98-1.4,3.38h-.01c-.53,.7-1.15,1.39-1.72,1.93l-.02,.02c-.21,.01-.44,.02-.67,.04-.69,.02-.93,.54-.9,1.08-.03,.01-.06,.02-.09,.02-.05,0-.09,0-.12-.01-.91-.17-2.05-2.01-1.22-2.96,.12-.13,.32-.32,.58-.55h.01c1.5-1.29,4.93-3.69,5.56-2.95Z"/><path class="a`" d="M208.82,237.45c1.95,.54,3.93,1.16,5.91,1.85-6.13,6.16-15.35,10.78-25.48,13.23,6.64-2.85,14.34-8.73,19.57-15.08Z"/><path class="k" d="M199.7,280.96c-2.04,.96-5.35-2.25-6.02-4.7,.7-.33,1.19-1.05,1.19-1.88,0-.38-.1-.73-.28-1.04-.25-2.26,.26-8.49,.76-10.33l.02-.08c2.03,.39,3.96,.92,5.28,1.93,.58,.44,1.22,1.12,1.89,1.96,1.79,3.44,4.93,10.77,6.75,15.47-.45,.31-.87,.6-1.28,.86-.16,.11-.32,.21-.48,.31-.37,.23-.72,.44-1.04,.63h-.01l-.06,.03h-.01c-1.02-.11-2.09-.21-3.23-.29h0s-.01-.03-.01-.05h-.01c-.06-.19-.09-.39-.11-.6-.02-.09-.03-.18-.04-.27-.06-.65-.05-1.34-.18-1.87-.12-.53-.37-.9-.94-.9-.45,0-1.12,.84-1.79,2.11l-.39-1.29Z"/><path class="j" d="M208.46,301.21v.06c-3.53,.43-7.77,.77-12.86,1-.2,.01-.39,.02-.59,.03,5.81-2.01,11.09-4.55,9.83-7.53-.01-.02-.01-.04-.02-.06,.03,.04,.06,.08,.1,.12,0,.02,.03,.03,.05,.05,.95,1.11,1.78,2.34,2.42,3.62,.28,.56,.53,1.13,.74,1.7,.12,.33,.23,.67,.33,1.01Z"/><path class="p" d="M208.34,293.31c.11,.45-1.18,1.16-2.81,1.76-.21,.06-.41-.03-.56-.19-.2-.22-.34-.58-.35-.94v-.03c.36-.09,.94-.52,1.57-1.12,.04-.01,.07-.01,.11-.01,1.13-.02,1.96,.18,2.04,.53Z"/><path class="k" d="M207.08,317.27c5.92,12.58-4.94,17.14-16.74,15.6-.9-.58-1.57-1.24-1.95-1.96-.11-.2-.19-.4-.24-.61-.02-.04-.03-.08-.04-.12-2.21-5.07,2.92-18.27,8.87-19.22,.12-.02,.24-.03,.36-.05,2.93-.22,6.18,2.39,9.74,6.35h0Z"/><path class="h" d="M206.24,207.59c1.37,2.76,1.95,5.83,1.02,8.42-1.24,3.47-6.13,5.65-10.94,6.37h0c7.79-2.21,5.45-10.73,1.2-15.3,3.06-.75,6.19-.58,8.72,.51Z"/><path class="y" d="M138.94,173.55c2.89-1.77,4.94-3.06,6.73-4.22,.73-.48,1.42-.94,2.11-1.4,2.35-1.56,4.66-3.16,8.6-5.77,.02-.01,.03-.02,.05-.03,3.84-1.45,7.8-2.42,11.77-2.92,14.84,0,33.98,11.16,38.88,19.93h0c-26.24,2.21-56.09,7.58-81.05,13.94l-.11-.43c3.22-7.83,7.65-14.23,12.85-19.28,.07,.07,.12,.12,.17,.18Z"/><path class="k" d="M206.41,284.12c-.08,.05-.16,.09-.23,.13s-.14,.08-.2,.11c-.69,.35-1.23,.53-1.59,.5-.71-.05-1.05-.46-1.21-1.03,1.14,.08,2.21,.18,3.23,.29Z"/><path class="p" d="M205.52,292.83c.23-.02,.46-.03,.67-.04-.63,.6-1.21,1.03-1.57,1.12-.03-.54,.21-1.06,.9-1.08Z"/><path class="m" d="M206.09,339.3h0c-.14,9.81-.8,24.02-2.45,36.62-.5-1.39-3-2.44-6-2.44-3.37,0-6.1,1.32-6.1,2.95s2.73,2.94,6.1,2.94c2.71,0,5.02-.85,5.8-2.04-.84,6.2-1.95,11.94-3.35,16.49-4.64,1.08-7.42,.9-13.66,.24-.81-10.89-.51-29.01-3.21-30.41-.91-.47-1.96-.76-3.06-.9h-.01c-3.05-.44-6.45,.13-8.15,.64-1.54,.06-6.21,0-6.21,1.33,.05,6.54,.7,20.22-.73,29.65-4.82,.36-7.66,.04-14.13-1.97-1.73-7.49-4.25-20.57-9.19-43.88-.82-3.88-1.29-10.1-.61-14.65,.68,.36,1.39,.68,2.14,.95,7.21,2.63,17.29,1.13,20.5-2.24h.01c6.31,.56,21.15,1.36,23.99,2.61,3.05,1.35,2.15,4.11,18.32,4.11Zm-41.57,38.25c0-1.63-2.62-2.95-5.86-2.95s-5.86,1.32-5.86,2.95,2.63,2.95,5.86,2.95,5.86-1.32,5.86-2.95Z"/><path class="u" d="M204.84,294.77c1.26,2.98-4.02,5.52-9.83,7.53-.2,0-.4,.02-.6,.02v-.05c-2.26-3.01-5.75-5.11-9.93-7.01,.48-.62,.99-1.22,1.49-1.76h.01c1.58-1.72,3.16-2.98,4.67-3.57h.01c.18-.08,.36-.14,.54-.19,.06-.01,.12-.03,.18-.05h.02s.1-.03,.15-.04,.11-.03,.16-.04c1.15-.29,2.29-.35,3.42-.24h.01c.9,.07,1.78,.27,2.64,.55h.01c.05,.02,.1,.03,.15,.05h.02s.07,.03,.11,.04c.32,.11,.64,.24,.96,.37,1.9,.84,3.66,2.1,5.16,3.65,.21,.21,.42,.44,.63,.68,.01,.02,.01,.04,.02,.06Z"/><path class="p" d="M204.39,284.86c.36,.03,.9-.15,1.59-.5-1.16,.66-2.72,2.11-3.32,1.74-.58-.35,.36-1.84,.36-2.92h.02c.02,.21,.05,.41,.11,.6h.01s.01,.03,.01,.05h0c.16,.57,.5,.98,1.21,1.03Z"/><path class="w" d="M203.64,375.92c.06,.17,.09,.34,.09,.51,0,.32-.1,.62-.29,.9,.07-.47,.14-.94,.2-1.41Z"/><path class="w" d="M203.64,375.92c-.06,.47-.13,.94-.2,1.41-.78,1.19-3.09,2.04-5.8,2.04-3.37,0-6.1-1.31-6.1-2.94s2.73-2.95,6.1-2.95c3,0,5.5,1.05,6,2.44Z"/><path class="f" d="M206.24,207.59c-2.53-1.09-5.66-1.26-8.72-.51-2.39-2.57-5.39-3.89-7.53-2.14,1.74-2.46,3.83-4.35,5.95-4.86,3.48-.84,8,2.9,10.3,7.51Z"/><path class="a`" d="M205.15,392.4c-1.26,5.24-2.65,8.75-4.19,9.43-2.76,1.21-5.04,2.01-7.38,1.95,2.68-.75,4.81-4.49,6.51-9.96,1.45-.34,3.08-.81,5.06-1.42Z"/><path class="m" d="M200.09,282.25h0l-.03,.07h0c-.06,.11-.11,.2-.16,.31-.13,.28-.26,.57-.39,.88,0,.02,0,.03-.02,.05h-.01c-.81-.05-1.65-.1-2.52-.15h-.02c-1.06-.05-2.15-.1-3.28-.15-.41-.01-.83-.03-1.25-.05-4.83-.17-10.33-.26-16.62-.26-4.48,0-8.56,.05-12.28,.14-2.06,.05-4.01,.11-5.85,.19-.05-.56-.12-1.22-.2-1.92,2.02-.75,4.31-2.87,4.79-4.61,.28,.15,.6,.23,.94,.23,1.15,0,2.08-.93,2.08-2.08,7.18-.46,17.87-.77,25.44-.26h.02c.13,1.03,1,1.83,2.06,1.83,.32,0,.62-.07,.89-.21,.67,2.45,3.98,5.66,6.02,4.7l.39,1.29Z"/><path class="k" d="M199.48,283.56h.01c-.25,.6-.48,1.25-.68,1.93,0-.01,0-.02-.01-.02-.45-.87-1.09-1.6-1.84-2.06,.87,.05,1.71,.1,2.52,.15Z"/><path class="a`" d="M198.85,135.05l.16,.05c-2.31,9.09-6.82,25.37-1.77,30.63-2.53-1.47-5.13-3.01-8.68-5.01h0c3.38-6.37,7.02-15.22,10.29-25.67Z"/><path class="y" d="M157.66,283.28c1.84-.08,3.79-.14,5.85-.19,3.72-.09,7.8-.14,12.28-.14,6.29,0,11.79,.09,16.62,.26,.42,.02,.84,.04,1.25,.05,1.13,.05,2.22,.1,3.28,.15h.02c.75,.46,1.39,1.19,1.84,2.06,.01,0,.01,0,.01,.02-.44,1.45-.73,3.02-.74,4.44v.05h-.01s-.07,0-.1,0h-.02s-.1-.03-.15-.05h-.01c-.86-.28-1.74-.48-2.64-.55h-.01c-1.13-.11-2.27-.05-3.42,.24-.05,.01-.11,.03-.16,.04s-.1,.02-.15,.04h-.02c-.24-.02-.48-.02-.72-.03-4.4-.13-9.33-.2-14.87-.2-2.49,0-4.85,.01-7.1,.04-.01-.01-.02,0-.02,0-.09-.02-.17-.03-.25-.04h-.09c-.46-.05-.89-.05-1.31-.01-.04,.01-.1,.02-.14,.03h-.02c-.11,.01-.21,.02-.32,.04-.03,0-.05,.01-.08,.02-.01-.01-.02,0-.03,0-.82,.01-1.63,.03-2.41,.04-.36,.01-.71,.02-1.06,.03-1.24,.03-2.44,.07-3.6,.1-.01-.02-.02-.03-.03-.05-1.9-2.79-4.59-5.11-5.62-5.11l-.07-1.08c.2-.02,.41-.03,.61-.04,.16-.01,.32-.02,.49-.02,.94-.05,1.91-.09,2.92-.13Z"/><path class="n" d="M197.52,207.08c4.25,4.57,6.59,13.09-1.2,15.29h0c-4.78,.71-9.48-.04-10.48-2.42-.06-.14-.11-.28-.15-.43l.06-.02c.89-5.27,4.11-8.95,7.98-10.99,.16,.26,.45,.44,.78,.44,.51,0,.93-.42,.93-.93,0-.09-.01-.18-.04-.27,.7-.28,1.41-.5,2.12-.67Z"/><path class="y" d="M197.32,310.26l.02,.65c-.12,.02-.24,.03-.36,.05-5.95,.95-11.08,14.15-8.87,19.22,.01,.04,.02,.08,.04,.12-2.52,.41-4.28,.55-4.67,.61-.61,.03-1.24,.05-1.91,.07-1.85,.05-3.77,.08-5.78,.08-4.01,0-7.67,.06-11.04-.16,1.63-3.74-.74-11.92-4.5-16.33-.64-.76-1.33-1.4-2.04-1.89-.75-.52-1.53-.87-2.33-1-.23-.04-.47-.05-.71-.05l.13-2.8c4.82,.24,10.41,.38,16.9,.41,6.98,.89,16.37,1.22,25.12,1.02Z"/><path class="i" d="M197.52,207.08c-.71,.17-1.42,.39-2.12,.67-.12-.38-.47-.65-.89-.65-.51,0-.93,.41-.93,.92,0,.18,.05,.35,.15,.49-3.87,2.04-7.09,5.72-7.98,10.99l-.06,.02c-1.04-3.4,1.04-9.99,4.3-14.58,2.14-1.75,5.14-.43,7.53,2.14Z"/><path class="h" d="M195.4,207.75c.03,.09,.04,.18,.04,.27,0,.51-.42,.93-.93,.93-.33,0-.62-.18-.78-.44,.55-.29,1.11-.55,1.67-.76Z"/><path class="m" d="M195.37,262.93l-.02,.08c-.5,1.84-1.01,8.07-.76,10.33-.36-.62-1.03-1.04-1.8-1.04-.58,0-1.1,.24-1.48,.62-.23-1.99,.09-8.37,.66-10.45l.02-.12c1.1,.18,2.25,.36,3.38,.58Z"/><path class="h" d="M194.51,207.1c.42,0,.77,.27,.89,.65-.56,.21-1.12,.47-1.67,.76-.1-.14-.15-.31-.15-.49,0-.51,.42-.92,.93-.92Z"/><path class="q" d="M194.59,273.34c.18,.31,.28,.66,.28,1.04,0,.83-.49,1.55-1.19,1.88-.27,.14-.57,.21-.89,.21-1.06,0-1.93-.8-2.06-1.83-.01-.08-.02-.17-.02-.26,0-.57,.23-1.08,.6-1.46,.38-.38,.9-.62,1.48-.62,.77,0,1.44,.42,1.8,1.04Z"/><path class="u" d="M194.41,302.27v.05c-1.06,.05-2.15,.09-3.28,.13-.71,.02-1.43,.04-2.17,.06v-.05l-.02-.02c-.47-.44-.95-.87-1.43-1.3-.56-.5-1.12-1-1.69-1.48-.94-.82-1.9-1.61-2.86-2.38,.38-.54,.76-1.05,1.14-1.54,.12-.16,.25-.32,.38-.48,4.18,1.9,7.67,4,9.93,7.01Z"/><path class="k" d="M186.43,394.06c6.24,.66,9.02,.84,13.66-.24-1.7,5.47-3.83,9.21-6.51,9.96h-.01c-1.7-.04-3.43-.53-5.4-1.65-.93-.54-1.42-3.73-1.74-8.07Z"/><path class="k" d="M191.99,262.35l-.02,.12c-.57,2.08-.89,8.46-.66,10.45-.37,.38-.6,.89-.6,1.46,0,.09,.01,.18,.02,.26h-.02c-7.57-.51-18.26-.2-25.44,.26,0-.57-.23-1.08-.6-1.46,.23-2-.09-8.38-.66-10.46,2.18-.39,3.96-.9,4.57-2.01,.62-1.13,.82-2.45,.77-3.8,6.81,.61,9.29,.48,15.77-.76h.01c.25,1.05,.63,2.14,1.12,3.39,.6,1.52,2.99,2.08,5.74,2.55Z"/><path class="k" d="M190.65,289.93c-1.51,.59-3.09,1.85-4.67,3.57h-.01c-.5,.54-1.01,1.14-1.49,1.76-.13,.16-.26,.32-.38,.48-.38,.49-.76,1-1.14,1.54-2.37-1.87-4.73-3.57-6.97-4.88-.41-.24-.82-.47-1.22-.68-1.68-.91-3.28-1.59-4.72-1.96-.28-.08-.54-.14-.81-.18-.19-.03-.37-.06-.55-.08,2.25-.03,4.61-.04,7.1-.04,5.54,0,10.47,.07,14.87,.2,.24,.01,.48,.01,.72,.03-.06,.02-.12,.04-.18,.05-.18,.05-.36,.11-.54,.19h-.01Z"/><path class="aa" d="M190.57,192.42c.07,.52-.7,1.21-1.75,1.82-1.69-.04-3.41-.06-5.14-.06,.39-1.02,1.4-2.25,2.88-2.7,1.76-.54,3.9,.13,4.01,.94Z"/><path class="j" d="M188.96,302.46v.05c-1.16,.03-2.35,.06-3.58,.08-1.19,.02-2.41,.04-3.67,.05,.05-.08,.07-.15,.1-.23,.72-2.44-3.33-6.35-8.22-9.17-.01,0-.01-.01-.02-.01,.33-.39,.67-.78,1.02-1.18l.18-.33c.4,.21,.81,.44,1.22,.68,2.24,1.31,4.6,3.01,6.97,4.88,.96,.77,1.92,1.56,2.86,2.38,.57,.48,1.13,.98,1.69,1.48,.48,.43,.96,.86,1.43,1.3l.02,.02Z"/><path class="f" d="M186.33,228.88c1.42,1.47,1.01,3.47-.53,5.43-1.11,1.41-2.8,2.79-4.81,3.94h0c.28-1.16-1.42-6.95-2.4-8.63,2.87-1.85,5.36-3.19,7.74-.74Z"/><path class="a`" d="M185.13,256.41h-.01c-6.48,1.24-8.96,1.37-15.77,.76-.03-.92-.18-1.85-.37-2.74,1.28,.06,2.55,.09,3.82,.09,3.99,0,8.03-.36,11.97-1.05v.02c0,1,.12,1.94,.36,2.92Z"/><path class="l" d="M188.82,194.24c-1.87,1.1-4.66,1.97-5.21,1.28-.2-.25-.17-.76,.07-1.34,1.73,0,3.45,.02,5.14,.06Z"/><path class="u" d="M173.59,293.24c4.89,2.82,8.94,6.73,8.22,9.17-.03,.08-.05,.15-.1,.23-1.89,.02-3.87,.03-5.93,.03-2.6,0-5.06-.02-7.4-.05v-.05c.74-3.27,2.65-6.29,5.19-9.34,.01,0,.01,.01,.02,.01Z"/><path class="f" d="M178.59,229.62c.98,1.68,2.68,7.47,2.4,8.62h0c-2.45,1.4-5.37,2.44-8.29,2.73,.28-1.15-.36-6.05-1.34-7.73,2.71-.57,5.08-2.23,7.23-3.62Z"/><path class="a`" d="M160.99,218.71c.19-2.1,18.34-4.2,18.35-2.05,0,1.7-5.57,4.37-10,4.37-3.72,0-8.49-.76-8.35-2.32Z"/><path class="j" d="M174.77,291.72l-.18,.33c-.35,.4-.69,.79-1.02,1.18-2.84-1.65-5.98-2.91-8.62-3.3l-.04-.04s.02,0,.03,0c.48-.15,.98-.26,1.49-.34,.01,0,.02-.01,.03,0,.03-.01,.05-.02,.08-.02,.11-.02,.21-.03,.32-.04h.02s.1-.02,.14-.03c.42-.04,.85-.04,1.31,.01h.09c.08,.01,.16,.02,.25,.04,0,0,0-.01,.02,0,.18,.02,.36,.05,.55,.08,.27,.04,.53,.1,.81,.18,1.44,.37,3.04,1.05,4.72,1.96Z"/><path class="v" d="M173.53,224.09c.59,1.46-1.1,3.11-3.74,3.28-.24,.01-.48,0-.72-.05,2.45-.15,2.85-2.73,2.41-3.57v-.19c1.07,0,1.9,.15,2.05,.53Z"/><path class="h" d="M171.36,233.24c.98,1.68,1.62,6.58,1.34,7.73-2.71,.27-5.86-.05-8.48-.78,.28-1.15,.44-5.4-.54-7.09,1.81,.05,3.92,.4,6.06,.33,.55-.02,1.09-.08,1.62-.19Z"/><path class="g" d="M171.48,223.75c.44,.84,.04,3.42-2.41,3.57-1.81-.3-3.48-2.04-2.91-2.74,.4-.49,3.28-1.03,5.32-1.02v.19Z"/><path class="w" d="M172,363.39c-.79,.23-1.32,1.4-1.68,3.2-1.18,5.89-.44,18.58-.58,27.33-1.8,.19-3.32,.35-4.68,.45,1.43-9.43,.78-23.11,.73-29.65,0-1.33,4.67-1.27,6.21-1.33Z"/><path class="u" d="M159.83,293.19c.31-.32,.62-.62,.94-.91,1.11-.98,2.37-1.75,3.76-2.25t.02-.01c.12-.05,.24-.09,.36-.13l.04,.04c2.64,.39,5.78,1.65,8.62,3.3-2.54,3.05-4.45,6.07-5.19,9.34v.05c-.73-.01-1.45-.02-2.15-.03-3.94-.07-7.5-.18-10.71-.34v-.04c.55-3.31,2.06-6.59,4.31-9.02Z"/><path class="a`" d="M169.74,393.92c-.07,4.88-.42,8.53-1.52,9.12-2.77,1.5-5.63,1.65-8.17,1.21,2.69-.47,4.19-4.47,5.01-9.88,1.36-.1,2.88-.26,4.68-.45Z"/><path class="k" d="M166.43,289.54c-.51,.08-1.01,.19-1.49,.34-.01,0-.02,0-.03,0-.12,.04-.24,.08-.36,.13t-.02,.01c-1.39,.5-2.65,1.27-3.76,2.25-.35-.86-.85-1.74-1.41-2.57,1.16-.03,2.36-.07,3.6-.1,.35-.01,.7-.02,1.06-.03,.78-.01,1.59-.03,2.41-.04Z"/><path class="a`" d="M160.25,314.57c3.76,4.41,6.13,12.59,4.5,16.33-.01,.02-.01,.05-.02,.07,0,0,0,.02-.01,.03-.15,.56-.47,1.09-.94,1.58h-.01c-3.21,3.37-13.29,4.87-20.5,2.24,10.17,.4,16.7-2.26,17.07-10.64h0c1.36-2.53,.69-6.21-.23-9.49l.14-.12Z"/><path class="q" d="M164.67,273.44c.37,.38,.6,.89,.6,1.46,0,1.15-.93,2.08-2.08,2.08-.34,0-.66-.08-.94-.23-.68-.34-1.14-1.04-1.14-1.85,0-.38,.1-.74,.28-1.05,.37-.62,1.03-1.03,1.8-1.03,.58,0,1.1,.24,1.48,.62Z"/><path class="m" d="M164.01,262.98c.57,2.08,.89,8.46,.66,10.46-.38-.38-.9-.62-1.48-.62-.77,0-1.43,.41-1.8,1.03,.25-2.26-.26-8.46-.76-10.32h0c1.16-.2,2.32-.36,3.38-.55Z"/><path class="h" d="M163.68,233.1c.98,1.69,.82,5.94,.54,7.09-3.93-1.1-6.68-3.14-4.98-5.57,.95-1.36,2.53-1.6,4.44-1.52Z"/><ellipse class="w" cx="158.66" cy="377.55" rx="5.86" ry="2.95"/><path class="k" d="M150.93,392.4c6.47,2.01,9.31,2.33,14.13,1.97-.82,5.41-2.32,9.41-5.01,9.88-1.61-.27-3.1-.78-4.35-1.34-2-.89-2.94-2.54-4.77-10.51Z"/><path class="k" d="M161.11,274.9c0,.81,.46,1.51,1.14,1.85-.48,1.74-2.77,3.86-4.79,4.61-.25-2.13-.6-4.7-.73-6.39-.23,1.74-.87,4.16-1.49,6.51-.17,.65-.34,1.3-.5,1.93-.17,0-.33,.01-.49,.02-.2,.01-.41,.02-.61,.04-5.16,.28-9.38,.68-12.83,1.19h0c1.15-2.71,9.37-16.15,12.98-18.89,1.69-1.27,4.28-1.83,6.84-2.24,.5,1.86,1.01,8.06,.76,10.32-.18,.31-.28,.67-.28,1.05Z"/><path class="a`" d="M160.11,314.69c.92,3.28,1.59,6.96,.23,9.48,.14-3.04-.53-6.83-2.13-11.49,.71,.49,1.4,1.13,2.04,1.89l-.14,.12Z"/><path class="k" d="M160.34,324.18c-.37,8.38-6.9,11.04-17.07,10.64-.75-.27-1.46-.59-2.14-.95-1.26-.69-2.38-1.53-3.28-2.56-1.74-1.73-2.25-4.68-2.26-6.96,.93,.58,1.97,1.13,3.13,1.63,.03,.02,.06,.04,.09,.04l.24,.19c4.54-5.83,8.68-11.03,12.39-13.33h0c1.3-.81,2.54-1.25,3.73-1.25,.24,0,.48,0,.71,.05,.8,.13,1.58,.48,2.33,1,1.6,4.66,2.27,8.45,2.13,11.49h0Z"/><path class="p" d="M160.77,292.28c-.32,.29-.63,.59-.94,.91-.96-2.84-3.26-5.59-4.37-5.15-1.25,.48-.31,2.79-1.3,4.09-1.32,1.73-8.79-2.53-21.32-5.78-1.44-.37-2.94-.73-4.51-1.06v-.03c1.26-.1,3.24,.21,5.56,.72,.04,.01,.09,.02,.13,.03,.47,.1,.95,.21,1.44,.33,1.8,.42,3.72,.93,5.62,1.42,2.92,.77,5.78,1.52,7.98,1.94h.01c.94,.18,1.75,.31,2.41,.35,.17,0,.33,.02,.48,.02h.05c.21,0,.4-.01,.56-.04h.01c.1-.02,.18-.04,.26-.07,.05-.01,.09-.03,.13-.05,2.21-1.09-1.31-4.57,.55-5.33,.05-.02,.12-.03,.19-.03,1.03,0,3.72,2.32,5.62,5.11,.01,.02,.02,.03,.03,.05,.56,.83,1.06,1.71,1.41,2.57Z"/><path class="l" d="M159.11,194.79c.17,1.1-.04,2.11-.5,2.43-.85,.6-3.2-.66-4.72-2.14,1.71-.1,3.45-.19,5.22-.29Z"/><path class="aa" d="M158.15,192.56c.54,.65,.85,1.46,.96,2.23-1.77,.1-3.51,.19-5.22,.29-.54-.52-.97-1.07-1.19-1.57h0c1.81-.33,3.63-.65,5.45-.95Z"/><path class="r" d="M159.83,293.19c-2.25,2.43-3.76,5.71-4.31,9.02v.04c-.93-.04-1.84-.09-2.72-.14h0c-3.91-.24-7.26-.54-10.14-.9v-.04c.39-.19,.81-.34,1.17-.52,.06-.03,.12-.06,.19-.09,1.04-.39,3.07-.28,3.11-.92,.04-.72-3.43-1.49-4.63-2.21-.04-.03-.08-.05-.12-.08-1.64-.98-3.94-2.18-6.27-3.46-.78-.43-1.57-.87-2.33-1.31-.03-.02-.05-.03-.08-.05-1.18-.68-2.3-1.37-3.29-2.04-.93-.63-1.73-1.25-2.34-1.84h-.01s-.02-.03-.04-.05c-1.07-1.05-1.54-2.02-1.01-2.83,.2-.3,.66-.46,1.32-.51v.03c1.57,.33,3.07,.69,4.51,1.06,12.53,3.25,20,7.51,21.32,5.78,.99-1.3,.05-3.61,1.3-4.09,1.11-.44,3.41,2.31,4.37,5.15Zm-4.89,6.05c1.26,.04,2.43-1.98,1.98-2.79-.54-.98-8.32-1.2-8.59,.26-.21,1.13,5.4,2.49,6.61,2.53Z"/><path class="w" d="M157.46,281.36c.08,.7,.15,1.36,.2,1.92-1.01,.04-1.98,.08-2.92,.13,.16-.63,.33-1.28,.5-1.93,.6,.28,1.39,.2,2.22-.12Z"/><path class="a`" d="M156.73,274.97c.13,1.69,.48,4.26,.73,6.39-.83,.32-1.62,.4-2.22,.12,.62-2.35,1.26-4.77,1.49-6.51Z"/><path class="p" d="M156.92,296.45c.45,.81-.72,2.83-1.98,2.79-1.21-.04-6.82-1.4-6.61-2.53,.27-1.46,8.05-1.24,8.59-.26Z"/><path class="a`" d="M156.43,162.13s-.03,.02-.05,.03c-3.94,2.61-6.25,4.21-8.6,5.77l-.07-.11c3.55-1.78-2.56-18.05-3.91-48.61-.3-6.81-1.7-21.59-6.11-31.89,3.6,7.24,6.66,16.94,8.05,28.61,2.41,20.23,6.29,35.98,10.69,46.2Z"/><path class="i" d="M150.48,205.9c3.69,4.56,6.24,11.37,5.09,14.71-.92-5.43-4.34-9.09-8.41-11.01-.02-.48-.43-.87-.92-.87-.23,0-.45,.09-.61,.23-.78-.27-1.57-.49-2.36-.64,2.19-2.59,5-3.99,7.2-2.43,0,.01,.01,.01,.01,.01Z"/><path class="y" d="M155.3,308.83l-.13,2.8c-1.19,0-2.43,.44-3.73,1.24h0c-3.71,2.31-7.85,7.51-12.39,13.34l-.24-.19s-.06-.02-.09-.04c-1.16-.5-2.2-1.05-3.13-1.63-8.28-5.13-8.28-12.79-8.28-21.36l.05-.05c2.92,2.87,10.14,5.02,27.94,5.89Z"/><path class="y" d="M153.64,283.47l.07,1.08c-.07,0-.14,0-.19,.03-1.86,.76,1.66,4.24-.55,5.33-.04,.02-.08,.04-.13,.05-.08,.03-.16,.05-.26,.07h-.01c-.19,.01-.38,.02-.56,.04h-.05c-.15,0-.31-.01-.48-.02-.66-.04-1.47-.17-2.41-.35h-.01c-2.2-.42-5.06-1.17-7.98-1.94-1.9-.49-3.82-1-5.62-1.42-.49-.12-.97-.23-1.44-.33,.69-.19,1.45-.38,2.26-.55,1.34-.29,2.84-.56,4.53-.8,3.45-.51,7.67-.91,12.83-1.19Z"/><path class="a`" d="M152.7,193.51c.22,.5,.65,1.05,1.19,1.57-6.17,.38-11.9,.84-16.8,1.31,5.08-.99,10.31-1.96,15.61-2.89h0Z"/><path class="f" d="M150.47,205.89c-2.2-1.56-5.01-.16-7.2,2.43-2.96-.59-5.95-.36-8.38,.7l-.17-.08c2.09-4.46,6.13-8.1,9.5-7.52,2.15,.37,4.35,2.12,6.25,4.47Z"/><path class="n" d="M155.57,220.61c-.84,2.44-5.49,3.48-10.3,3.09h0c-8.03-1.73-6.08-10.6-2-15.38,.79,.15,1.58,.37,2.36,.64-.2,.17-.32,.42-.32,.7,0,.51,.42,.92,.93,.92s.93-.41,.93-.92c0-.02,0-.04-.01-.06,4.07,1.92,7.49,5.58,8.41,11.01Z"/><path class="k" d="M147.71,167.82l.07,.11c-.69,.46-1.38,.92-2.11,1.4-3.92-6.39-9.32-17.56-8.42-33.18,.54-9.18,.49-17.33-.09-25.01,0-.02-.01-.05-.01-.07-.04-.9-.11-1.76-.21-2.58-.4-4.37-.98-8.6-1.71-12.82h-.01c-.51-5.1-6.43-20.57-14.38-22.35,.79-.42,1.56-.66,2.3-.69,4.05-.18,9.76,5.08,14.53,14.65,0,.01,0,.02,.02,.04,4.41,10.3,5.81,25.08,6.11,31.89,1.35,30.56,7.46,46.83,3.91,48.61Z"/><path class="h" d="M147.16,209.6s.01,.04,.01,.06c0,.51-.42,.92-.93,.92s-.93-.41-.93-.92c0-.28,.12-.53,.32-.7,.52,.19,1.03,.4,1.53,.64Z"/><path class="p" d="M142.5,297.43c1.2,.72,4.67,1.49,4.63,2.21-.04,.64-2.07,.53-3.11,.92,.51-.29,.85-.65,.71-1.27-.1-.44-.95-1.07-2.23-1.86Z"/><path class="h" d="M146.24,208.73c.49,0,.9,.39,.92,.87-.5-.24-1.01-.45-1.53-.64,.16-.14,.38-.23,.61-.23Z"/><path class="h" d="M145.27,223.69h0c-4.85-.4-9.86-2.26-11.32-5.64-1.17-2.71-.65-6.1,.77-9.11l.17,.08c2.43-1.06,5.42-1.29,8.38-.7-4.08,4.78-6.03,13.65,2,15.37Z"/><path class="k" d="M144.73,299.29c.14,.62-.2,.98-.71,1.27-.07,.03-.13,.06-.19,.09-.36,.18-.78,.33-1.17,.52v.04c-9.16-1.14-13.47-2.9-15.5-5.05l-.09-.09,.02-.02s.05-.06,.07-.08c1.03-1.09,2.66-2.09,5.2-2.95,.44-.15,.91-.3,1.42-.44,.76,.44,1.55,.88,2.33,1.31,2.33,1.28,4.63,2.48,6.27,3.46,.04,.03,.08,.05,.12,.08,1.28,.79,2.13,1.42,2.23,1.86Z"/><path class="ab" d="M135.44,228.69c3.06,0,5.55,1.32,5.55,2.95s-2.49,2.94-5.55,2.94-5.55-1.32-5.55-2.94,2.48-2.95,5.55-2.95Z"/><path class="v" d="M145.67,169.33c-1.79,1.16-3.84,2.45-6.73,4.22-.05-.06-.1-.11-.17-.18,1.31-2.62-2.01-13.68-2.93-16.9-3.08-10.81,1.95-31.95,1.32-45.33,.58,7.68,.63,15.83,.09,25.01-.9,15.62,4.5,26.79,8.42,33.18Z"/><path class="g" d="M135.84,156.47c.92,3.22,4.24,14.28,2.93,16.9-7.22-7.67-21.58-19.55-28.95-38.07-10.3-25.91,1.6-56.96,11.01-61.98h.01c7.95,1.78,13.87,17.25,14.38,22.35h.01c.73,4.22,1.31,8.45,1.71,12.82,.08,.86,.15,1.72,.21,2.58,0,.02,.01,.05,.01,.07,.63,13.38-4.4,34.52-1.32,45.33Z"/><path class="y" d="M125.54,292.94h-.03v-.03h0c.16-.93,.45-1.81,1.02-2.65,.37-.56,.87-1.1,1.53-1.61h.01c.61,.59,1.41,1.21,2.34,1.84,.99,.67,2.11,1.36,3.29,2.04,.03,.02,.05,.03,.08,.05-.51,.14-.98,.29-1.42,.44-2.54,.86-4.17,1.86-5.2,2.95-.02,.02-.05,.05-.07,.08l-.02,.02c-.88-.98-1.32-2.02-1.53-3.13Z"/><path class="k" d="M123.43,218.48c-.13,.93-.26,1.86-.37,2.78-.17,1.38-.23,2.72-.18,4.01h-.02c-26.64-.8-50.55-3.75-50.94-8.41-.03-.38,.09-.78,.38-1.2h.01c3.19-4.78,26.32-11.39,55.68-17.45-2.21,6.71-3.62,13.69-4.56,20.27Z"/></g></g><g id="d"><g id="e"/><path class="t" d="M211.89,332.78c.65,3.93-.03,10.45-.46,14.58-2.5,23.74-5.8,52.31-10.52,54.38-4.77,2.1-8.13,2.95-12.79,.3-3.26-1.87-1.17-36.52-4.95-38.48-.91-.47-1.96-.76-3.06-.9h0c-3.05-.44-6.45,.13-8.15,.64-.79,.23-1.32,1.4-1.68,3.2-1.83,9.17,.98,34.79-2.1,36.45-4.53,2.45-9.3,1.31-12.52-.13-3.88-1.73-3.77-6.29-13.96-54.39-.82-3.88-1.28-10.22-.61-14.77"/><path class="t" d="M164.68,330.64c3.37,.22,7.06,.33,11.07,.33,2.01,0,3.93-.03,5.78-.08,2.41-.07,4.68-.18,6.82-.34"/><path class="t" d="M226.17,296.15c0,7.19,0,13.02-50.43,13.02s-50.43-5.83-50.43-13.02"/><path class="t" d="M127.95,198.12c-2.53,7.67-4,15.68-4.93,23.05-2.79,22.15,24.35,33.26,49.74,33.26s52.27-14.66,49.39-35.09c-.21-1.47-.44-2.96-.71-4.47-1.78-10.09-4.94-20.8-10.27-29.89"/><path class="t" d="M188.52,160.63h0c5.39-10.17,11.46-26.68,15.63-45.9,5.8-26.71,19.55-41.95,26.61-40.96,9.47,1.34,21.09,36.75,7.3,63.66-8.47,16.53-22.59,26.78-30.91,33.72-.01,.01-.03,.02-.04,.04"/><path class="t" d="M199.7,167.1c.26-.36,.53-.75,.8-1.14,4.37-6.46,9.67-16.74,10.17-30.29,.58-15.55,2.54-27.98,5.87-40.11"/><path class="t" d="M156.39,162.04c-4.4-10.22-8.28-25.97-10.69-46.2-3.24-27.13-15.48-43.62-22.6-43.3-9.55,.43-24.49,34.58-13.32,62.67,7.37,18.52,21.73,30.4,28.95,38.07,.07,.07,.13,.13,.18,.19"/><path class="t" d="M135.19,95.58c2.15,12.39,2.93,24.95,2.02,40.48-.9,15.62,4.5,26.79,8.42,33.18"/><path class="t" d="M185.8,219.86c-2.07-4.93,3.85-18.37,10.1-19.87,5.57-1.34,13.79,9.03,11.31,15.93-2.48,6.9-19.41,8.72-21.41,3.94Z"/><path class="t" d="M189.95,204.86c5.96-4.86,18.5,13.98,6.33,17.43"/><path class="t" d="M155.53,220.52c1.75-5.06-5.02-18.09-11.35-19.19-5.64-.98-13.18,9.89-10.27,16.62,2.91,6.73,19.93,7.46,21.62,2.56Z"/><path class="t" d="M150.44,205.81c-6.26-4.47-17.57,15.14-5.2,17.8"/><path class="t" d="M158.11,192.47c1.32,1.57,1.24,4.11,.46,4.66-1.15,.81-5.06-1.79-5.91-3.71"/><path class="t" d="M183.57,195.43c-.54-.68,.62-3.33,2.95-4.04,1.77-.54,3.91,.14,4.01,.95,.19,1.46-6.09,4.18-6.96,3.09Z"/><path class="t" d="M169.75,227.28c2.64-.16,4.33-1.82,3.75-3.28-.44-1.11-6.77-.25-7.37,.49-.65,.79,1.58,2.92,3.62,2.79Z"/><path class="t" d="M169.7,233.35c.3-2.22,.34-5.24,.11-6.06"/><path class="t" d="M123.39,218.39c-12.56-5.07-29.11-5.88-40.49-3.07"/><path class="t" d="M91.17,233.67c11.2-3.95,22.55-5.88,32.06-5.1"/><path class="t" d="M222.27,217.19c12.56-5.07,28.56-5.84,39.93-3.03"/><path class="t" d="M253.94,232.51c-11.2-3.95-22.55-5.88-32.06-5.1"/><path class="t" d="M168.94,254.34c.49,2.21,.64,4.65-.4,6.54-1.56,2.84-10.75,1.75-14.78,4.8-3.62,2.74-11.84,16.17-12.99,18.88"/><line class="t" x1="180.12" y1="362.66" x2="180.11" y2="362.66"/><path class="t" d="M184.72,253.4c-.01,2.07,.53,3.9,1.48,6.31,1.27,3.23,10.53,2.1,14.41,5.06,3.07,2.35,7.79,11.19,10.16,16.46"/><path class="t" d="M137.83,327.63c.32-.4,.63-.81,.94-1.2,4.63-5.95,8.85-11.3,12.63-13.64h0c1.56-.97,3.04-1.43,4.44-1.2,5.95,.95,11.08,14.15,8.87,19.22,0,.02,0,.05-.02,.07,0,0,0,.02-.01,.03-1.29,4.83-15.46,7.25-23.59,2.87-1.26-.68-2.38-1.53-3.28-2.56"/><path class="t" d="M137.83,327.19s-.01,.02-.02,.03"/><path class="t" d="M160.07,314.6c1.1,3.94,1.85,8.45-.84,10.85"/><path class="t" d="M151.4,313.13h0c.54,5.01,.12,8.14-1.68,11.28"/><path class="t" d="M127.27,302.9c0,8.57,0,16.23,8.28,21.36,.93,.58,1.97,1.13,3.13,1.63,.03,.02,.06,.04,.09,.04"/><path class="t" d="M214.09,325.29s.06-.03,.09-.04c1.14-.58,2.15-1.2,3.05-1.86,6.99-5.1,6.99-12.39,6.99-20.49"/><path class="t" d="M125.5,292.84h0c.21,1.12,.65,2.17,1.53,3.14,.02,.03,.05,.06,.08,.09,2.67,2.82,9.28,4.97,25.64,5.94h0c3.9,.24,8.35,.39,13.43,.48,2.96,.05,6.14,.08,9.55,.08s6.62-.03,9.6-.08c2.01-.03,3.92-.08,5.74-.14,1.56-.05,3.04-.11,4.47-.17,18.7-.86,25.98-3.11,28.81-6.12,.03-.03,.06-.06,.08-.09,.9-.97,1.32-2.04,1.53-3.15h0"/><path class="t" d="M125.31,295.88v-.41c0-.35,.01-.7,.02-1.04,.05-1.51,.26-2.95,1.15-4.26,.38-.55,.87-1.08,1.52-1.58"/><path class="t" d="M206.55,284.05c-1.08-.11-2.21-.22-3.42-.31"/><path class="t" d="M218.27,286.14c.32,.1,.63,.2,.93,.3,6.97,2.38,6.97,5.73,6.97,9.44"/><path class="t" d="M133.83,285.97c.74-.21,1.54-.41,2.41-.6,1.33-.29,2.83-.56,4.52-.8h0c3.58-.52,8-.94,13.45-1.23,.16-.01,.32-.02,.48-.02,2.67-.14,5.59-.24,8.78-.32,3.71-.09,7.79-.14,12.27-.14,6.29,0,11.8,.09,16.62,.27,.43,.01,.84,.03,1.25,.04h.01c2.1,.09,4.06,.19,5.9,.3"/><path class="t" d="M159.29,289.62c1.17-.03,2.38-.07,3.63-.1,.35-.01,.7-.02,1.06-.03,.82-.02,1.66-.03,2.52-.05,.24,0,.49-.01,.74-.01h.17s.04-.01,.06,0h.49c2.45-.04,5.03-.06,7.78-.06,5.55,0,10.48,.07,14.88,.21l1.08,.03h.01"/><path class="t" d="M220.1,293.28l.24,.09c1.88,.75,3.16,1.59,4.02,2.51,.03,.03,.06,.06,.08,.09"/><path class="t" d="M198.06,289.89h-.03c-.15-.01-.28-.02-.43-.02h-.01"/><path class="t" d="M127.03,295.98s.05-.06,.08-.09c1.04-1.1,2.66-2.1,5.21-2.96,.42-.14,.87-.28,1.34-.42"/><path class="t" d="M151.22,290.03h.02c.55-.04,1.13-.08,1.71-.12h.01"/><path class="t" d="M135.55,324.26c.01,2.28,.52,4.98,2.26,6.71"/><path class="t" d="M214.84,326.29c.03,.05,.06,.09,.1,.14"/><path class="t" d="M214.96,326.94s0,0-.02-.03c-.29-.36-.57-.72-.85-1.08-6.58-8.45-12.31-15.72-17.15-14.95-5.95,.95-11.08,14.15-8.87,19.22,.06,.26,.15,.49,.28,.73,2.68,5.11,20.19,7.02,26.61-.32"/><path class="t" d="M192.7,313.93c-1.1,3.94-1.85,8.45,.84,10.85"/><path class="t" d="M201.37,312.47c-.54,5.01-.12,8.13,1.68,11.27"/><path class="t" d="M217.23,323.39c.01,2.3-.5,5.06-2.27,6.82"/><path class="t" d="M154.7,283.32c.73-2.89,1.69-6.21,1.99-8.44"/><path class="t" d="M197.87,275.47c.73,1.8,1.25,3.6,1.79,5.4,.13,.47,.27,.94,.41,1.4"/><path class="t" d="M186.29,228.79c-4.51-4.64-9.39,4.34-16.59,4.56-4.39,.14-8.64-1.47-10.49,1.19-2.83,4.05,6.67,7.02,13.45,6.35,8.63-.85,17.33-8.28,13.63-12.09Z"/><path class="t" d="M171.32,233.15c.98,1.68,1.61,6.58,1.34,7.73"/><path class="t" d="M178.55,229.53c.98,1.68,2.67,7.48,2.4,8.63"/><path class="t" d="M163.64,233c.98,1.68,.81,5.95,.54,7.1"/><path class="t" d="M185.76,234.22c14.81-.98,38.49,6.46,55.41,18.11"/><path class="t" d="M222.94,242.51c-.79,2.96,.46,6.65,.88,6.68,.75,.06,1.43-3.35,2.22-3.26,.82,.09,.65,3.79,1.83,4.04,.93,.2,1.7-1.98,2.61-1.83,1.55,.26,1.41,7,2.22,7.04,.66,.04,1-4.47,2.09-4.57,1.53-.13,2.96,8.71,4.7,8.61,1.19-.07,.1-4.33,1.4-4.47,1.93-.21,4.41,8.72,6.82,8.27,1.59-.29-3.83-7.64-2.75-9.93,.52-1.1,6.26-1.79,6.26-2.35,0-.86-10.8-1.27-10.83-2.22-.02-.73,6.95-1.08,6.39-1.83-.96-1.29-12.23,.07-12.39-1.17-.12-.9,6.78-1.88,6-2.87-1.69-2.15-11.71,1.39-12.13-.13-.18-.65,1.98-1.22,1.57-2.09-.24-.5-6.21-.33-7.84,1.68"/><circle class="t" cx="163.15" cy="274.81" r="2.08"/><path class="t" d="M160.59,263.44c.5,1.84,1.01,8.07,.76,10.33"/><path class="t" d="M163.97,262.89c.58,2.08,.89,8.46,.66,10.46"/><circle class="t" cx="192.75" cy="274.3" r="2.08"/><path class="t" d="M195.31,262.92c-.5,1.84-1.01,8.07-.76,10.33"/><path class="t" d="M191.93,262.38c-.58,2.08-.89,8.46-.66,10.46"/><path class="t" d="M165.23,274.81c7.18-.46,17.87-.77,25.44-.26"/><path class="t" d="M193.64,276.18c.68,2.44,3.98,5.65,6.02,4.7"/><path class="t" d="M162.21,276.67c-.68,2.44-4.97,5.68-7.01,4.73"/><path class="t" d="M150.88,392.31c8.3,2.57,10.63,2.38,18.82,1.52"/><path class="t" d="M205.11,392.31c-8.3,2.57-10.53,2.52-18.73,1.66"/><path class="t" d="M122.82,225.19c-26.64-.8-50.55-3.75-50.94-8.41-1.14-13.6,195.72-46.31,197.6-29.74,.99,8.68-26.72,21.73-48.04,27.84"/><path class="t" d="M72.26,215.57c8.42-18.87,169.99-53.1,196.7-29.72"/><path class="t" d="M212.75,177.77c-1.65-2.43-3.53-4.64-5.6-6.62"/><path class="t" d="M188.52,160.62c-10.21-2.92-21.61-2.55-32.13,1.42-.02,.01-.03,.02-.05,.03"/><path class="t" d="M125.88,192.56c3.22-7.83,7.65-14.23,12.85-19.28"/><path class="t" d="M138.9,173.47c8.17-5.02,9.56-6.17,17.49-11.42"/><path class="t" d="M188.51,160.63c7.71,4.34,10.99,6.55,18.59,10.56"/><path class="t" d="M208.46,301.21c-.1-.34-.21-.68-.33-1.01-.7-1.91-1.81-3.76-3.21-5.37-.24-.28-.48-.55-.73-.8-1.5-1.55-3.26-2.81-5.16-3.65-.32-.13-.64-.26-.96-.37-.09-.03-.19-.06-.28-.09,0,0,0,0-.01,0-.86-.28-1.74-.48-2.64-.55"/><path class="t" d="M198.07,290v-.07c0-2.1,.65-4.52,1.44-6.42,.13-.31,.26-.6,.39-.88,.05-.11,.1-.2,.16-.3h0c.67-1.32,1.36-2.19,1.82-2.19,.57,0,.82,.37,.94,.9,.13,.53,.12,1.22,.18,1.87,.03,.31,.07,.6,.15,.87h.01c.16,.59,.5,1.03,1.23,1.08,.45,.04,1.17-.25,2.09-.77h0c.32-.19,.67-.4,1.04-.63,.16-.1,.32-.2,.48-.31,.83-.54,1.75-1.19,2.73-1.89,6.12-4.43,14.38-11.23,16.14-10.01,2.66,1.85-4.43,9.71-8.58,14.87-.02,.02-.03,.04-.05,.06-1.62,2.04-2.79,3.65-2.69,4.27,.33,2,4.16-.28,4.59,2.44,.02,.13,0,.28-.05,.44-.1,.32-.35,.7-.72,1.11-1.71,1.96-6.1,4.73-11.25,5.76"/><path class="t" d="M194.41,302.27c-2.26-3.01-5.75-5.11-9.93-7.01h-.01"/><path class="t" d="M158,312.69h-.01m-2.47-10.48c.62-3.74,2.47-7.46,5.25-9.93,1.11-.98,2.37-1.75,3.76-2.25t.02-.01c.12-.05,.24-.09,.36-.13,0,0,.02-.01,.03-.01,.51-.16,1.05-.28,1.6-.36,.11-.02,.21-.03,.32-.04h.02s.1-.02,.14-.03c.42-.04,.85-.04,1.31,.01h.09c.27,.03,.54,.07,.82,.12,.27,.04,.53,.1,.81,.18,1.79,.46,3.81,1.39,5.94,2.64,2.24,1.31,4.6,3.01,6.97,4.88,.96,.77,1.92,1.56,2.86,2.38,.57,.48,1.13,.98,1.69,1.48,.48,.43,.96,.86,1.43,1.3l.02,.02"/><path class="t" d="M160.77,292.28c-.36-.88-.87-1.77-1.44-2.62-2.03-2.98-4.96-5.43-5.81-5.08-1.86,.76,1.66,4.24-.55,5.33-.04,.02-.08,.04-.13,.05-.31,.11-.77,.13-1.36,.09-.66-.04-1.47-.17-2.41-.35h-.01c-2.2-.42-5.06-1.17-7.98-1.94-1.9-.49-3.82-1-5.62-1.42-.54-.13-1.06-.25-1.57-.36-3.54-.78-6.3-1.09-6.88-.21-.53,.81-.06,1.78,1.01,2.83,.62,.61,1.44,1.24,2.39,1.89,.99,.67,2.11,1.36,3.29,2.04,.79,.46,1.6,.92,2.41,1.36,4.25,2.33,8.39,4.41,8.62,5.4,.25,1.11-1.01,1.38-2.07,1.88"/><path class="t" d="M188.96,302.46l-.02-.02c-.47-.44-.95-.87-1.43-1.3-.56-.5-1.12-1-1.69-1.48-.94-.82-1.9-1.61-2.86-2.38,.38-.54,.76-1.05,1.14-1.54,.12-.16,.25-.32,.38-.48,.48-.62,.99-1.22,1.49-1.76h.01c1.58-1.72,3.16-2.98,4.67-3.57h0"/><path class="t" d="M195.13,289.37c-1.13-.11-2.27-.05-3.42,.24-.05,.01-.11,.03-.16,.04-.12,.02-.23,.06-.35,.09-.18,.05-.36,.11-.54,.19h0"/><path class="t" d="M168.38,302.57c.83-3.69,3.16-7.06,6.21-10.52"/></g></svg>