<?xml version="1.0" encoding="UTF-8"?><svg xmlns="http://www.w3.org/2000/svg" viewBox="0 0 334.34 510.14"><defs><style>.f{fill:#ead0d0;}.g{fill:#fcb9b9;}.h{fill:#fff;}.i{fill:#6b3d34;}.j{fill:#c47b49;}.k{fill:#bf7e67;}.l{fill:#eab5a7;}.m{fill:#507096;}.n{fill:#7f4d40;}.o{fill:#bc7171;}.p{fill:#6a964d;}.q{fill:#fc9;}.r{fill:#77b566;}.s{stroke-width:2px;}.s,.t{fill:none;stroke:#3f2a25;stroke-linecap:round;stroke-linejoin:round;}.u{fill:#e09f57;}.v{fill:#eaa0a0;}.w{fill:#3d587f;}.x{fill:#d17e75;}.y{fill:#dba77f;}.a`{fill:#935d51;}.aa{fill:#cc8e87;}.ab{fill:#e08f82;}</style></defs><g id="a"><path class="s" d="M211.42,336.2c.65,3.93-.03,10.45-.46,14.58-2.5,23.74-5.8,52.31-10.52,54.38-4.77,2.1-8.13,2.95-12.79,.3-3.26-1.87-1.17-36.52-4.95-38.48-.91-.47-1.96-.76-3.06-.9h-.01c-3.05-.44-6.45,.13-8.15,.64-.79,.23-1.32,1.4-1.68,3.2-1.83,9.17,.98,34.79-2.1,36.45-4.53,2.45-9.3,1.31-12.52-.13-3.88-1.73-3.77-6.29-13.96-54.39-.82-3.88-1.28-10.22-.61-14.77"/><path class="s" d="M164.21,334.06c3.37,.22,7.06,.33,11.07,.33,2.01,0,3.93-.03,5.78-.08,2.41-.07,4.68-.18,6.82-.34"/><path class="s" d="M225.7,299.57c0,7.19,0,13.02-50.43,13.02s-50.43-5.83-50.43-13.02"/><path class="s" d="M210.7,188.41c5.33,9.09,8.49,19.8,10.27,29.89,.27,1.51,.5,3,.71,4.47,1.07,7.56-1.95,14.33-7.46,19.86-9.31,9.36-25.76,15.17-41.68,15.23"/><path class="s" d="M164.59,257.52c-22.86-2.01-44.55-13-42.04-32.92,.93-7.37,2.4-15.38,4.93-23.05"/><path class="s" d="M188.05,164.05h0c5.39-10.17,11.46-26.68,15.63-45.9,5.8-26.71,19.55-41.95,26.61-40.96,9.47,1.34,21.09,36.75,7.3,63.66-8.47,16.53-22.59,26.78-30.91,33.72-.01,.01-.03,.02-.04,.04"/><path class="s" d="M199.23,170.52c.26-.36,.53-.75,.8-1.14,4.37-6.46,9.67-16.74,10.17-30.29,.58-15.55,2.54-27.98,5.87-40.11"/><path class="s" d="M155.92,165.46c-4.4-10.22-8.28-25.97-10.69-46.2-3.24-27.13-15.48-43.62-22.6-43.3-9.55,.43-24.49,34.58-13.32,62.67,7.37,18.52,21.73,30.4,28.95,38.07,.07,.07,.13,.13,.18,.19"/><path class="s" d="M134.72,99c2.15,12.39,2.93,24.95,2.02,40.48-.9,15.62,4.5,26.79,8.42,33.18"/><path class="s" d="M185.33,223.28c-2.07-4.93,3.85-18.37,10.1-19.87,5.57-1.34,13.79,9.03,11.31,15.93-2.48,6.9-19.41,8.72-21.41,3.94Z"/><path class="s" d="M189.48,208.28c5.96-4.86,18.5,13.98,6.33,17.43"/><path class="s" d="M155.06,223.94c1.75-5.06-5.02-18.09-11.35-19.19-5.64-.98-13.18,9.89-10.27,16.62,2.91,6.73,19.93,7.46,21.62,2.56Z"/><path class="s" d="M149.97,209.23c-6.26-4.47-17.57,15.14-5.2,17.8"/><path class="s" d="M157.64,195.89c1.32,1.57,1.24,4.11,.46,4.66-1.15,.81-5.06-1.79-5.91-3.71"/><path class="s" d="M183.1,198.85c-.54-.68,.62-3.33,2.95-4.04,1.77-.54,3.91,.14,4.01,.95,.19,1.46-6.09,4.18-6.96,3.09Z"/><path class="s" d="M169.27,230.7c2.64-.16,4.33-1.82,3.75-3.28-.44-1.11-6.77-.25-7.37,.49-.65,.79,1.58,2.92,3.62,2.79Z"/><path class="s" d="M169.22,236.77c.3-2.22,.34-5.24,.11-6.06"/><path class="s" d="M122.92,221.82c-12.56-5.07-29.11-5.88-40.49-3.07"/><path class="s" d="M90.7,237.09c11.2-3.95,22.55-5.88,32.06-5.1"/><path class="s" d="M221.8,220.62c12.56-5.07,28.56-5.84,39.93-3.03"/><path class="s" d="M253.47,235.93c-11.2-3.95-22.55-5.88-32.06-5.1"/><path class="s" d="M140.3,287.99c1.15-2.71,9.36-16.14,12.98-18.88,1.69-1.27,4.29-1.83,6.84-2.25,1.17-.19,2.32-.35,3.38-.54,.95-.17,1.81-.36,2.54-.62"/><line class="s" x1="179.65" y1="366.08" x2="179.64" y2="366.08"/><path class="s" d="M184.26,256.83c-.01,2.07,.53,3.9,1.48,6.31,1.27,3.23,10.52,2.09,14.4,5.06,3.08,2.35,7.84,11.27,10.19,16.53"/><path class="s" d="M137.36,331.05c.32-.4,.63-.81,.94-1.2,4.63-5.95,8.85-11.3,12.63-13.64h0c1.56-.97,3.04-1.43,4.44-1.2,5.95,.95,11.08,14.15,8.87,19.22-.01,.02-.01,.05-.02,.07,0,0,0,.02-.01,.03-1.29,4.83-15.46,7.25-23.59,2.87-1.26-.68-2.38-1.53-3.28-2.56"/><path class="s" d="M137.36,330.61s-.01,.02-.02,.03"/><path class="s" d="M159.59,318.02c1.1,3.94,1.85,8.45-.84,10.85"/><path class="s" d="M150.93,316.56h0c.54,5.01,.12,8.14-1.68,11.28"/><path class="s" d="M126.8,306.32c0,8.57,0,16.23,8.28,21.36,.93,.58,1.97,1.13,3.13,1.63,.03,.02,.06,.04,.09,.04"/><path class="s" d="M213.62,328.71s.06-.03,.09-.04c1.14-.58,2.15-1.2,3.05-1.86,6.99-5.1,6.99-12.39,6.99-20.49"/><path class="s" d="M164.82,286.38c-.62,.01-1.22,.03-1.82,.04-3.18,.08-6.1,.19-8.77,.33-.17,0-.33,.01-.49,.02-5.44,.29-9.86,.7-13.44,1.22-1.69,.24-3.19,.51-4.53,.8-.93,.2-1.78,.42-2.56,.64"/><path class="s" d="M124.85,299.3v-.4c0-.36,0-.71,0-1.04,.05-1.52,.26-2.96,1.16-4.27,.37-.54,.86-1.06,1.49-1.56"/><path class="s" d="M206.23,287.48c-1.12-.11-2.3-.22-3.55-.32"/><path class="s" d="M217.89,289.58c.3,.1,.58,.19,.85,.28,6.96,2.38,6.96,5.73,6.96,9.44"/><path class="s" d="M192.91,286.59c.08,0,.16,.01,.24,.01,2.12,.09,4.11,.18,5.96,.31"/><path class="s" d="M197.63,293.32h-.07c-.22-.01-.45-.03-.68-.04h-.02"/><path class="s" d="M219.69,296.72c.07,.02,.13,.05,.19,.07,1.88,.76,3.15,1.6,4.01,2.51,.03,.03,.06,.07,.08,.1"/><path class="s" d="M166.04,292.86h-.01c-.43,0-.84,.02-1.25,.03-.43,.01-.85,.02-1.27,.03-.36,0-.71,.01-1.06,.02-1.25,.04-2.46,.07-3.63,.11h-.01"/><path class="s" d="M126.56,299.41s.06-.07,.09-.1c1.03-1.1,2.66-2.09,5.2-2.95,.4-.14,.83-.27,1.28-.4h.01"/><path class="s" d="M150.36,293.48s.01,0,.01,0c.74-.05,1.51-.1,2.3-.15h0"/><path class="s" d="M135.08,327.68c.01,2.28,.52,4.98,2.26,6.71"/><path class="s" d="M214.37,329.71s.06,.09,.1,.14"/><path class="s" d="M214.49,330.36s-.01,0-.02-.03c-.29-.36-.57-.72-.85-1.08-6.58-8.45-12.31-15.72-17.15-14.95-5.95,.95-11.08,14.15-8.87,19.22,.06,.26,.15,.49,.28,.73,2.68,5.11,20.19,7.02,26.61-.32"/><path class="s" d="M192.23,317.35c-1.1,3.94-1.85,8.45,.84,10.85"/><path class="s" d="M200.9,315.89c-.54,5.01-.12,8.13,1.68,11.27"/><path class="s" d="M216.76,326.81c.01,2.3-.5,5.06-2.27,6.82"/><path class="s" d="M154.23,286.74c.73-2.89,1.69-6.21,1.99-8.44"/><path class="s" d="M199.64,285.79c-.71-2.3-1.3-4.59-2.23-6.89"/><path class="s" d="M185.82,232.21c-4.51-4.64-9.39,4.34-16.59,4.56-4.39,.14-8.64-1.47-10.49,1.19-2.83,4.05,6.67,7.02,13.45,6.35,8.63-.85,17.33-8.28,13.63-12.09Z"/><path class="s" d="M170.85,236.57c.98,1.68,1.61,6.58,1.34,7.73"/><path class="s" d="M178.08,232.95c.98,1.68,2.67,7.48,2.4,8.63"/><path class="s" d="M163.17,236.42c.98,1.68,.81,5.95,.54,7.1"/><path class="s" d="M185.28,237.64c14.81-.98,38.49,6.46,55.41,18.11"/><path class="s" d="M222.46,245.93c-.79,2.96,.46,6.65,.88,6.68,.75,.06,1.43-3.35,2.22-3.26,.82,.09,.65,3.79,1.83,4.04,.93,.2,1.7-1.98,2.61-1.83,1.55,.26,1.41,7,2.22,7.04,.66,.04,1-4.47,2.09-4.57,1.53-.13,2.96,8.71,4.7,8.61,1.19-.07,.1-4.33,1.4-4.47,1.93-.21,4.41,8.72,6.82,8.27,1.59-.29-3.83-7.64-2.75-9.93,.52-1.1,6.26-1.79,6.26-2.35,0-.86-10.8-1.27-10.83-2.22-.02-.73,6.95-1.08,6.39-1.83-.96-1.29-12.23,.07-12.39-1.17-.12-.9,6.78-1.88,6-2.87-1.69-2.15-11.71,1.39-12.13-.13-.18-.65,1.98-1.22,1.57-2.09-.24-.5-6.21-.33-7.84,1.68"/><path class="s" d="M162.82,276.16s-.09-.01-.14-.01c-.77,0-1.44,.42-1.8,1.03h0c-.18,.32-.28,.67-.28,1.05,0,.81,.47,1.52,1.14,1.87,.28,.14,.6,.22,.94,.22,1.02,0,1.86-.73,2.05-1.71h0"/><path class="s" d="M160.12,266.86c.5,1.84,1.01,8.07,.76,10.33"/><path class="s" d="M164.19,272.64c-.11-2.42-.36-5.1-.69-6.32"/><circle class="s" cx="192.28" cy="277.72" r="2.08"/><path class="s" d="M194.84,266.34c-.5,1.84-1.01,8.07-.76,10.33"/><path class="s" d="M191.46,265.8c-.58,2.08-.89,8.46-.66,10.46"/><path class="s" d="M171.09,277.91s0-.01,0,0"/><path class="s" d="M190.2,277.98c-.83-.06-1.7-.1-2.6-.14"/><path class="s" d="M193.16,279.6c.68,2.44,3.98,5.65,6.02,4.7"/><path class="s" d="M161.74,280.09c-.68,2.44-4.97,5.68-7.01,4.73"/><path class="s" d="M150.41,395.73c8.3,2.57,10.63,2.38,18.82,1.52"/><path class="s" d="M204.64,395.73c-8.3,2.57-10.53,2.52-18.73,1.66"/><path class="s" d="M122.35,228.61c-26.64-.8-50.55-3.75-50.94-8.41-1.14-13.6,195.72-46.31,197.6-29.74,.99,8.68-26.72,21.73-48.04,27.84"/><path class="s" d="M71.78,218.99c8.42-18.87,169.99-53.1,196.7-29.72"/><path class="s" d="M212.28,181.19c-1.65-2.43-3.53-4.64-5.6-6.62"/><path class="s" d="M188.05,164.04c-10.21-2.92-21.61-2.55-32.13,1.42-.02,.01-.03,.02-.05,.03"/><path class="s" d="M125.41,195.98c3.22-7.83,7.65-14.23,12.85-19.28"/><path class="s" d="M138.43,176.89c8.17-5.02,9.56-6.17,17.49-11.42"/><path class="s" d="M188.04,164.05c7.71,4.34,10.99,6.55,18.59,10.56"/><path class="s" d="M125.04,296.38h0c.21,1.12,.65,2.17,1.53,3.14,.02,.03,.05,.06,.08,.09,2.67,2.82,9.28,4.97,25.64,5.94h0c3.9,.24,8.35,.39,13.43,.48,2.96,.05,6.14,.08,9.55,.08s6.62-.03,9.6-.08c2.01-.03,3.92-.08,5.74-.14,1.56-.05,3.04-.11,4.47-.17,18.7-.86,25.98-3.11,28.81-6.12,.03-.03,.06-.06,.08-.09,.9-.97,1.32-2.04,1.53-3.15h0"/><path class="s" d="M208.02,304.71c-.1-.34-.21-.68-.33-1.01-.7-1.91-1.81-3.76-3.21-5.37-.24-.28-.48-.55-.73-.8-1.5-1.55-3.26-2.81-5.16-3.65-.32-.13-.64-.26-.96-.37-.09-.03-.19-.06-.28-.09,0,0,0-.01-.01,0-.86-.28-1.74-.48-2.64-.55"/><path class="s" d="M197.63,293.5v-.07c.01-2.1,.65-4.52,1.44-6.42,.13-.31,.26-.6,.39-.88,.05-.11,.1-.2,.16-.3h0c.67-1.32,1.36-2.19,1.82-2.19,.57,0,.82,.37,.94,.9,.13,.53,.12,1.22,.18,1.87,.03,.31,.07,.6,.15,.87h.01c.16,.59,.5,1.03,1.23,1.08,.45,.04,1.17-.25,2.09-.77h.01c.32-.19,.67-.4,1.04-.63,.16-.1,.32-.2,.48-.31,.83-.54,1.75-1.19,2.73-1.89,6.12-4.43,14.38-11.23,16.14-10.01,2.66,1.85-4.43,9.71-8.58,14.87-.02,.02-.03,.04-.05,.06-1.62,2.04-2.79,3.65-2.69,4.27,.33,2,4.16-.28,4.59,2.44,.02,.13,0,.28-.05,.44-.1,.32-.35,.7-.72,1.11-1.71,1.96-6.1,4.73-11.25,5.76"/><path class="s" d="M193.97,305.77c-2.26-3.01-5.75-5.11-9.93-7.01h0"/><path class="s" d="M157.56,316.19h-.01m-2.47-10.48c.62-3.74,2.47-7.46,5.25-9.93,1.11-.98,2.37-1.75,3.76-2.25t.02-.01c.12-.05,.24-.09,.36-.13,.01,0,.02-.01,.03-.01,.51-.16,1.05-.28,1.6-.36,.11-.02,.21-.03,.32-.04h.02s.1-.02,.14-.03c.42-.04,.85-.04,1.31,.01h.09c.27,.03,.54,.07,.82,.12,.27,.04,.53,.1,.81,.18,1.79,.46,3.81,1.39,5.94,2.64,2.24,1.31,4.6,3.01,6.97,4.88,.96,.77,1.92,1.56,2.86,2.38,.57,.48,1.13,.98,1.69,1.48,.48,.43,.96,.86,1.43,1.3l.02,.02"/><path class="s" d="M160.33,295.78c-.36-.88-.87-1.77-1.44-2.62-2.03-2.98-4.96-5.43-5.81-5.08-1.86,.76,1.66,4.24-.55,5.33-.04,.02-.08,.04-.13,.05-.31,.11-.77,.13-1.36,.09-.66-.04-1.47-.17-2.41-.35h0c-2.2-.42-5.06-1.17-7.98-1.94-1.9-.49-3.82-1-5.62-1.42-.54-.13-1.06-.25-1.57-.36-3.54-.78-6.3-1.09-6.88-.21-.53,.81-.06,1.78,1.01,2.83,.62,.61,1.44,1.24,2.39,1.89,.99,.67,2.11,1.36,3.29,2.04,.79,.46,1.6,.92,2.41,1.36,4.25,2.33,8.39,4.41,8.62,5.4,.25,1.11-1.01,1.38-2.07,1.88"/><path class="s" d="M188.52,305.96l-.02-.02c-.47-.44-.95-.87-1.43-1.3-.56-.5-1.12-1-1.69-1.48-.94-.82-1.9-1.61-2.86-2.38,.38-.54,.76-1.05,1.14-1.54,.12-.16,.25-.32,.38-.48,.48-.62,.99-1.22,1.49-1.76h0c1.58-1.72,3.16-2.98,4.67-3.57h0"/><path class="s" d="M190.22,293.42h.01c.18-.07,.36-.13,.54-.18,.12-.03,.23-.07,.35-.09,1.2-.32,2.4-.39,3.58-.28-.48-2.18-1.06-4.26-1.75-6.17-.12-.34-.24-.67-.37-1-.22-.59-.46-1.16-.71-1.71v-.02c-.81-1.8-1.74-3.37-2.78-4.63-.43-.52-.87-.98-1.34-1.38-.53-.45-1.09-.83-1.67-1.12-1.3-.65-2.79-1.05-4.35-1.22-4.71-.49-10.17,1.14-13.6,4.5h0c-1.52,1.49-2.64,3.31-3.15,5.42-.04,.2-.08,.41-.12,.62-.02,.11-.04,.22-.05,.34-.06,.46-.06,.96-.03,1.48,.09,1.2,.41,2.53,.92,3.96,.12,.34,.25,.68,.39,1.04h.01s0,.03,.01,.04"/><path class="s" d="M181.73,275.62c1.79-6.68,.29-13.54-1.22-14.01-2.63-.82-2.28,3.63-4.22,3.03-.79-.25-2.13-3.18-3.7-6.67-2.66-5.9-5.99-13.37-8.48-11.99-1.3,.72-.52,6,.5,11.65,.5,2.8,1.06,5.7,1.45,8.18,.5,3.11,.74,5.57,.27,6.37-.5,.84-1.3,.75-2.15,.46-1.28-.46-2.66-1.39-3.2-.31-.29,.58,3.25,7.27,6.63,8.33"/><path class="s" d="M168.8,293.08c3.82-2.83,7.58-4.65,11.78-4.47"/><path class="s" d="M164.11,293.52l-.02,.02"/><path class="s" d="M167.94,306.07c.83-3.69,3.16-7.06,6.21-10.52"/></g><g id="b"><g><path class="o" d="M196.71,169.19c.82,.48,1.64,.95,2.47,1.44-1.01-.27-1.83-.76-2.47-1.44Z"/><path class="o" d="M206.05,287.58s-.02,.01-.03,.02h-.01c-.16,.09-.32,.18-.47,.25-.07,.04-.14,.07-.2,.11-.61,.29-1.09,.44-1.42,.41-.73-.05-1.07-.49-1.23-1.08h-.01v-.02c1.18,.09,2.31,.2,3.37,.31Z"/><path class="o" d="M268.98,190.56c.99,8.68-26.72,21.73-48.04,27.84h-.01c-1.78-10.09-4.94-20.8-10.27-29.89h0c27.57-2.99,50.06-3.68,56.48-.15,.01,0,.02,.01,.02,.01,.46,.32,.89,.66,1.29,1.01,.3,.36,.48,.75,.53,1.18Z"/><path class="o" d="M206.54,182.58c1.94-.17,3.86-.32,5.76-.44,24.81-1.68,45.66-.26,54.84,6.22-6.42-3.53-28.91-2.84-56.48,.14-16.64,1.8-35.13,4.44-53.06,7.5-1.82,.31-3.64,.62-5.45,.94-5.3,.94-10.52,1.9-15.6,2.89h-.02c-3.09,.6-6.12,1.21-9.09,1.82-29.38,6.07-52.51,12.68-55.69,17.45,2.98-6.68,25.14-15.28,53.73-22.57,24.96-6.38,54.82-11.75,81.06-13.95Z"/><path class="o" d="M231,250.01c-1.34-.71-2.69-1.39-4.06-2.05l.86-1.79c.84,1.26,10.43-2.07,12.08,.03,.79,.99-6.12,1.97-6,2.87,.17,1.24,11.43-.12,12.39,1.17,.56,.74-6.41,1.1-6.39,1.83,.03,.94,10.83,1.36,10.83,2.22,0,.55-5.74,1.24-6.26,2.34-1.09,2.3,4.33,9.64,2.75,9.93-2.42,.45-4.9-8.48-6.83-8.27-1.3,.14-.21,4.4-1.4,4.47-1.73,.11-3.16-8.73-4.7-8.61-1.08,.1-1.42,4.61-2.08,4.57-.78-.05-.68-6.37-2.08-7l.89-1.71Z"/><path class="o" d="M240.17,90.4c4.65,13.05,6.12,33.51-2.62,50.56-8.47,16.53-22.59,26.78-30.91,33.72-.01,0-.03,.02-.04,.04-2.95-1.56-5.25-2.84-7.41-4.09,.26-.36,.53-.75,.8-1.14,.29-.44,.59-.89,.9-1.36,6.7,1.52,9.02,.78,21.08-11.61,9.67-9.93,22.75-34.63,18.19-66.12h.01Z"/><path class="o" d="M240.16,90.4c4.56,31.49-8.52,56.19-18.19,66.12-12.06,12.39-14.38,13.13-21.08,11.61,4.16-6.5,8.8-16.29,9.27-28.93,.58-15.55,2.54-27.98,5.87-40.11h0c2.03-5.51,11.24-21.69,18.57-18.98h.01c2.04,2.29,3.98,5.87,5.56,10.29h-.01Z"/><path class="o" d="M234.6,80.11c-7.33-2.71-16.54,13.47-18.57,18.97h0c-3.33,12.14-5.29,24.57-5.87,40.12-.47,12.64-5.11,22.43-9.27,28.93-.31,.47-.61,.92-.9,1.36-.27,.39-.54,.78-.8,1.14h-.01c-.83-.49-1.65-.96-2.47-1.44-5.08-5.23-.56-21.55,1.75-30.65l-.16-.05c1.95-6.24,3.78-13.05,5.34-20.23,5.8-26.71,19.55-41.95,26.61-40.96,1.43,.2,2.92,1.19,4.35,2.81Z"/><path class="o" d="M231,250.01l-.89,1.71s-.09-.03-.14-.04c-.91-.16-1.68,2.03-2.61,1.82-1.17-.25-1.01-3.95-1.83-4.04h-.03l.6-1.9c.28,.14,.56,.27,.84,.4,1.37,.66,2.72,1.34,4.06,2.05Z"/><path class="o" d="M229.32,243.98c.41,.87-1.75,1.44-1.57,2.09,.01,.04,.03,.07,.05,.1l-.86,1.79c-.28-.13-.56-.26-.84-.4-1.2-.56-2.41-1.11-3.63-1.62-.29-.14-.59-.26-.89-.39,1.76-1.91,7.5-2.06,7.74-1.57Z"/><path class="o" d="M197.6,293.42c.01-2.1,.65-4.51,1.44-6.4,0-.01,.01-.01,.01-.02,.13-.3,.25-.59,.38-.86,.05-.11,.1-.19,.16-.29h0v-.02c.67-1.31,1.36-2.18,1.82-2.18,.57,0,.82,.37,.94,.9,.13,.53,.12,1.22,.18,1.87,.01,.07,.01,.14,.03,.2-.01,.01,0,.01,0,.01-.01,1.08-.98,2.56-.4,2.91,.6,.37,2.04-.93,3.18-1.58,.06-.04,.13-.07,.2-.11,.15-.07,.31-.16,.47-.25h.01s.02,0,.03-.02c.31-.18,.65-.39,1.01-.61,.16-.1,.32-.2,.48-.31,.39-.26,.81-.54,1.24-.83,.48-.34,.97-.69,1.49-1.06,6.12-4.43,14.38-11.23,16.14-10.01,.74,.51,.73,1.49,.23,2.75l-.32-.11c-9.89,12.92-15.08,14.01-14.06,16.21,.69,1.49,2.86,2.02,2.8,3.36-.08,1.76-4.71,4.12-8.09,4.93l-.09,.04c-.64-1.28-1.47-2.49-2.43-3.6-.04-.04-.08-.09-.12-.13h0c-.2-.24-.4-.46-.61-.67-1.5-1.55-3.26-2.81-5.16-3.65-.32-.13-.64-.26-.96-.37-.09-.03-.19-.06-.28-.09h-.01l-.09-.03c.11,.01,.21,.01,.31,.02h.07Zm9.83,.86c1.07-1.4,1.84-2.86,1.4-3.38-.63-.74-4.06,1.66-5.56,2.95h-.01c-.26,.23-.46,.42-.58,.55-.83,.95,.31,2.79,1.23,2.96,.02,.01,.06,.01,.11,.01,.03,0,.06-.01,.09-.02v.03c.02,.63,.42,1.26,.91,1.13,1.63-.6,2.92-1.31,2.81-1.76-.08-.35-.91-.55-2.04-.53-.04,0-.07,0-.11,0l.02-.02c.57-.54,1.2-1.23,1.73-1.93Z"/><path class="o" d="M226.32,277.4l.32,.11c-1.29,3.26-5.82,8.39-8.81,12.12-.02,.02-.03,.03-.04,.05h-.01c-1.62,2.05-2.79,3.66-2.69,4.28,.33,2,4.16-.28,4.59,2.44,.02,.12,0,.26-.04,.41,0,.01-.01,.02-.01,.03-.1,.32-.35,.7-.72,1.11-1.71,1.96-6.1,4.73-11.25,5.76-.22-.6-.48-1.19-.78-1.77l.09-.04c3.38-.81,8.01-3.17,8.09-4.93,.06-1.34-2.11-1.87-2.8-3.36-1.02-2.2,4.17-3.29,14.06-16.21Z"/><path class="o" d="M226.1,247.56l-.6,1.9c-.78,0-1.45,3.32-2.18,3.26-.43-.03-1.68-3.72-.89-6.68l.04-.1c1.22,.51,2.43,1.06,3.63,1.62Z"/><path class="o" d="M225.47,296.35c.2,1.08,.2,2.2,.2,3.33,0,2.45,0,4.74-2,6.71-1.7,1.66-4.87,3.09-10.74,4.16,1.65-1.19,1.4-5.13,.08-6.6,6.04-1.11,9.2-2.6,10.85-4.35,.03-.04,.05-.06,.08-.1,.9-.97,1.32-2.04,1.53-3.15Z"/><path class="o" d="M225.47,296.34h0c-.21,1.12-.63,2.19-1.53,3.16-.03-.03-.05-.06-.08-.1-.87-.91-2.14-1.75-4.02-2.51-.06-.03-.13-.05-.2-.08,.04-.15,.06-.29,.04-.41-.43-2.72-4.26-.44-4.59-2.44-.1-.62,1.07-2.23,2.69-4.27h.01c.32,.08,.62,.18,.91,.28,4.84,1.65,6.32,3.9,6.77,6.37Z"/><path class="o" d="M213.01,303.95c-1.49,.28-3.16,.53-5.03,.75-.09-.33-.2-.67-.32-.99,5.15-1.03,9.54-3.8,11.25-5.76,.37-.41,.62-.79,.72-1.11,0-.01,.01-.02,.01-.03,.07,.03,.14,.05,.2,.08,1.88,.76,3.15,1.6,4.02,2.51,.03,.04,.05,.07,.08,.1-.03,.04-.05,.06-.08,.1-1.65,1.75-4.81,3.24-10.85,4.35Z"/><path class="o" d="M223.67,306.39l.04,.04c0,8.1,0,15.39-6.99,20.49-.9,.66-1.91,1.28-3.05,1.86-.03,.01-.06,.03-.09,.04l-.26,.2c-1.3-1.68-2.57-3.3-3.82-4.82,.36-.34,.71-.7,1.04-1.08,2.91-3.25,4.01-7.8,4.42-10.92-4.56,.82-10.99,1.32-17.83,1.49-8.86,.21-18.4-.12-25.48-1.02,1.17,.02,2.36,.02,3.59,.02,18.55,0,30.28-.79,37.69-2.14,5.87-1.07,9.04-2.5,10.74-4.16Z"/><path class="o" d="M221.64,222.87c1.07,7.56-1.95,14.33-7.45,19.86-1.98-.68-3.95-1.3-5.91-1.85,1.68-2.03,3.09-4.1,4.15-6.14,.35-.68,.66-1.38,.94-2.11h0c.7-.59,1.08-1.28,.99-1.97-.02-.22-.09-.42-.2-.61,2.2-8.88-.1-20.29-2.8-30.55-6.43-1.09-14.47-1.64-23.08-1.82,1.05-.61,1.82-1.3,1.75-1.82-.11-.81-2.25-1.48-4.02-.94-1.48,.45-2.48,1.68-2.87,2.7-8.15-.04-16.61,.21-24.58,.61-.11-.77-.42-1.58-.96-2.23,17.93-3.06,36.42-5.7,53.06-7.5h0c5.33,9.1,8.49,19.81,10.27,29.9,.27,1.51,.5,3,.71,4.47Z"/><path class="o" d="M213.32,329.02l.26-.2s.06-.03,.09-.04c1.14-.58,2.15-1.2,3.05-1.86,.01,2.3-.5,5.35-2.27,7.11-.84,.96-1.87,1.77-3.04,2.42-6.46,3.66-17,2.83-21.62-.14h0c11.8,1.54,22.66-3.02,16.76-15.58,.97,1.07,1.95,2.23,2.95,3.47,1.25,1.52,2.52,3.14,3.82,4.82Z"/><path class="o" d="M214.36,230.66c.09,.69-.29,1.38-.99,1.96,.31-.83,.57-1.69,.79-2.57,.11,.19,.18,.39,.2,.61Z"/><path class="o" d="M189.46,208.37c-3.26,4.58-5.35,11.18-4.31,14.59,.04,.15,.09,.29,.15,.43,1,2.38,5.69,3.13,10.47,2.43,4.81-.71,9.69-2.9,10.94-6.37,.93-2.59,.36-5.66-1.02-8.42-2.29-4.61-6.81-8.35-10.29-7.51-2.12,.51-4.2,2.39-5.94,4.85Zm-20.27,28.5c-2.14,.07-4.24-.28-6.05-.33-1.91-.08-3.49,.16-4.44,1.52-1.7,2.43,1.05,4.47,4.98,5.57,.56,.15,1.14,.29,1.74,.41l-.55,1.77s.01,.01,.01,.02c-.27-.03-.54,.02-.79,.16-1.3,.72-.52,5.99,.5,11.63h0c-19.85-1.73-38.84-10.26-41.85-25.52-.22-1.09-.36-2.23-.4-3.39-.05-1.3,0-2.63,.18-4.01,.11-.92,.24-1.85,.37-2.78h0c.94-6.59,2.35-13.56,4.56-20.27,2.97-.61,6-1.22,9.09-1.82h.02c4.89-.47,10.63-.93,16.79-1.31,1.52,1.48,3.87,2.74,4.72,2.14,.46-.32,.67-1.33,.5-2.43,7.97-.4,16.43-.65,24.58-.61-.24,.58-.27,1.09-.07,1.33,.55,.7,3.34-.17,5.21-1.27,8.61,.18,16.65,.73,23.08,1.82,2.7,10.26,5,21.67,2.8,30.55-.7-1.25-3.03-1.97-5.66-1.65-3.05,.37-5.35,1.98-5.16,3.6,.2,1.61,2.83,2.62,5.87,2.25,1.74-.21,3.23-.83,4.16-1.62-.28,.73-.59,1.43-.94,2.11-1.06,2.04-2.47,4.11-4.15,6.14-8.49-2.4-16.59-3.56-23.02-3.14,1.54-1.96,1.95-3.96,.53-5.42-2.38-2.46-4.87-1.11-7.74,.74-2.15,1.38-4.52,3.05-7.23,3.62-.53,.1-1.07,.17-1.63,.19Zm9.61-16.77c-.01-2.16-18.16-.05-18.35,2.04-.15,1.57,4.63,2.33,8.34,2.33,4.44,0,10.01-2.67,10.01-4.37Zm-9.56,10.7c2.64-.16,4.34-1.82,3.75-3.28-.16-.39-1.05-.53-2.17-.53-2.03,.02-4.82,.55-5.2,1.02-.57,.7,1.06,2.41,2.85,2.74,.25,.05,.51,.07,.77,.05Zm-14.21-6.75c1.15-3.34-1.4-10.15-5.1-14.71-1.89-2.35-4.1-4.11-6.25-4.48-3.37-.58-7.41,3.05-9.5,7.51-1.42,3.01-1.94,6.4-.77,9.12,1.46,3.37,6.45,5.23,11.29,5.63,.01,.01,.02,.01,.03,.01,4.81,.4,9.46-.64,10.3-3.08Zm-14.59,11.03c0-1.63-2.48-2.95-5.55-2.95s-5.55,1.32-5.55,2.95,2.49,2.94,5.55,2.94,5.55-1.32,5.55-2.94Z"/><path class="o" d="M206.55,320.73c-3.42-3.82-6.56-6.39-9.4-6.39l-.02-.65c6.84-.17,13.27-.67,17.83-1.49-.41,3.12-1.51,7.67-4.42,10.92-.33,.38-.68,.74-1.04,1.08-1-1.24-1.98-2.4-2.95-3.47Z"/><path class="o" d="M214.16,230.05c-.22,.88-.48,1.74-.79,2.57h0c-.93,.8-2.42,1.42-4.16,1.63-3.04,.37-5.67-.64-5.87-2.25-.19-1.62,2.11-3.23,5.16-3.6,2.63-.32,4.96,.4,5.66,1.65Z"/><path class="o" d="M155.05,305.7c3.19,.15,6.73,.26,10.63,.33,.73,.01,1.47,.02,2.23,.03h.01c2.32,.03,4.75,.05,7.31,.05,2.07,0,4.06-.01,5.97-.03,1.25-.01,2.46-.03,3.64-.05,1.25-.02,2.46-.05,3.63-.08,.72-.02,1.42-.04,2.11-.06,1.16-.04,2.27-.08,3.35-.13,.2,0,.39,0,.58-.03,.18,0,.36,0,.54-.02,5.12-.24,9.38-.58,12.93-1.01,1.87-.22,3.54-.47,5.03-.75,1.32,1.47,1.57,5.41-.08,6.6-7.41,1.35-19.14,2.14-37.69,2.14-1.23,0-2.42,0-3.59-.02-6.49-.03-12.08-.17-16.9-.41-17.8-.87-25.02-3.01-27.94-5.88-2-1.96-2-4.25-2-6.7v-.68c0-.35,.01-.7,.02-1.04,0-.54,.05-1.06,.14-1.58h.02c.22,1.11,.65,2.15,1.54,3.13,.02,.03,.05,.06,.08,.1,2.04,2.16,6.38,3.92,15.62,5.05h.01c2.85,.36,6.15,.65,10.01,.88h0c.9,.06,1.83,.11,2.8,.16Z"/><path class="o" d="M188.01,164.15c3.56,2,6.17,3.55,8.7,5.04,.64,.68,1.46,1.17,2.47,1.44h.01c2.16,1.25,4.46,2.53,7.41,4.09,.01-.02,.03-.03,.04-.04,2.07,1.98,3.95,4.19,5.6,6.62l.06,.84c-1.9,.12-3.82,.27-5.76,.44-4.89-8.76-23.99-19.91-38.82-19.94,6.89-.87,13.83-.34,20.29,1.51Z"/><path class="o" d="M183.01,334.35c.51-.07,2.21-.21,4.59-.6,.05,.2,.13,.4,.24,.6,.38,.72,1.05,1.38,1.95,1.96,4.62,2.97,15.16,3.8,21.62,.14,.66,3.93-.05,10.31-.48,14.44-1.68,15.98-3.73,34.15-6.32,44.95-1.98,.61-3.61,1.08-5.06,1.41,1.41-4.55,2.51-10.29,3.36-16.49,.18-.28,.28-.58,.28-.89,0-.17-.03-.34-.09-.51,1.65-12.6,2.3-26.81,2.45-36.61h0c-16.17-.01-15.27-2.78-18.32-4.12-2.84-1.25-17.69-2.05-24-2.62,.47-.49,.79-1.01,.94-1.57,0,0,0-.02,0-.03,.01-.02,.01-.05,.02-.07,3.37,.22,7.03,.16,11.04,.16,2.01,0,3.93-.03,5.78-.08,.7-.02,1.36-.04,1.99-.07Z"/><path class="o" d="M210.27,284.77c-.52,.37-1.01,.72-1.49,1.06-1.81-4.7-4.97-12.1-6.78-15.57,2.88,3.6,6.35,10.24,8.27,14.51Z"/><path class="o" d="M208.83,290.9c.44,.52-.33,1.98-1.4,3.38-.53,.7-1.16,1.39-1.73,1.93l-.02,.02c-.21,.01-.44,.02-.67,.04-.69,.02-.93,.54-.9,1.08-.03,.01-.06,.02-.09,.02-.05,0-.09,0-.11-.01-.92-.17-2.06-2.01-1.23-2.96,.12-.13,.32-.32,.58-.55h.01c1.5-1.29,4.93-3.69,5.56-2.95Z"/><path class="o" d="M208.28,240.88c1.96,.55,3.93,1.17,5.91,1.85-6.13,6.16-15.35,10.78-25.48,13.24,6.65-2.85,14.34-8.74,19.57-15.09Z"/><path class="o" d="M199.15,284.4c-2.05,.95-5.33-2.26-6.02-4.69h0c.71-.33,1.2-1.05,1.2-1.89,0-.38-.1-.73-.28-1.04-.25-2.26,.26-8.49,.76-10.33l.02-.08c2.03,.39,3.96,.92,5.28,1.93,.58,.44,1.22,1.12,1.89,1.96,1.81,3.47,4.97,10.87,6.78,15.57-.43,.29-.85,.57-1.24,.83-.16,.11-.32,.21-.48,.31-.36,.22-.7,.43-1.01,.61-1.06-.11-2.19-.22-3.37-.31-.06-.2-.1-.41-.12-.64,0,0-.01,0,0-.01-.02-.06-.02-.13-.03-.2-.06-.65-.05-1.34-.18-1.87-.12-.53-.37-.9-.94-.9-.46,0-1.15,.87-1.82,2.18-.15-.48-.29-.95-.44-1.43Z"/><path class="o" d="M207.83,296.75c.11,.45-1.18,1.16-2.81,1.76-.49,.13-.89-.5-.91-1.13v-.03c.37-.09,.94-.52,1.57-1.12,.04,0,.07,0,.11,0,1.13-.02,1.96,.18,2.04,.53Z"/><path class="o" d="M207.66,303.71c.12,.32,.23,.66,.32,.99-3.55,.43-7.81,.77-12.93,1.01-.18,.01-.36,.02-.54,.02,5.8-2,11.08-4.54,9.82-7.52,.04,.04,.08,.09,.12,.13,.96,1.11,1.79,2.32,2.43,3.6,.3,.58,.56,1.17,.78,1.77Z"/><path class="o" d="M206.55,320.73c5.9,12.56-4.96,17.12-16.76,15.57h0c-.9-.57-1.57-1.23-1.95-1.95-.11-.2-.19-.4-.24-.6-.02-.04-.03-.09-.04-.13-2.21-5.07,2.92-18.27,8.87-19.22,.24-.04,.48-.06,.72-.06,2.84,0,5.98,2.57,9.4,6.39Z"/><path class="o" d="M205.69,211.03c1.38,2.76,1.95,5.83,1.02,8.42-1.25,3.47-6.13,5.66-10.94,6.37h0c7.8-2.21,5.46-10.73,1.2-15.3,3.06-.75,6.19-.58,8.72,.51Z"/><path class="o" d="M138.4,176.99c2.89-1.78,4.93-3.07,6.71-4.23,.74-.47,1.43-.93,2.12-1.39,2.36-1.57,4.69-3.17,8.65-5.8h.01c3.86-1.46,7.84-2.43,11.83-2.93,14.83,.03,33.93,11.18,38.82,19.94-26.24,2.2-56.1,7.57-81.06,13.95l-.11-.44c3.22-7.83,7.65-14.23,12.85-19.28l.18,.18Z"/><path class="o" d="M205.01,296.27c.23-.02,.46-.03,.67-.04-.63,.6-1.2,1.03-1.57,1.12-.03-.54,.21-1.06,.9-1.08Z"/><path class="o" d="M205.55,342.74h0c-.15,9.81-.8,24.02-2.45,36.62-.5-1.39-3-2.44-6.01-2.44-3.36,0-6.09,1.32-6.09,2.95s2.73,2.94,6.09,2.94c2.72,0,5.03-.86,5.82-2.05-.85,6.2-1.95,11.94-3.36,16.49-4.65,1.09-7.42,.91-13.67,.25-.81-10.89-.51-29.01-3.21-30.41-.91-.47-1.96-.76-3.06-.9h-.01c-3.05-.44-6.45,.13-8.15,.64-1.53,.06-6.2,0-6.2,1.32,.04,6.54,.69,20.22-.74,29.66-4.82,.36-7.66,.03-14.13-1.97-1.73-7.49-4.25-20.57-9.19-43.88-.82-3.88-1.28-10.1-.61-14.65,.68,.37,1.4,.68,2.15,.95,7.21,2.63,17.28,1.12,20.5-2.25,6.31,.57,21.16,1.37,24,2.62,3.05,1.34,2.15,4.11,18.32,4.11Zm-41.57,38.25c0-1.63-2.62-2.95-5.86-2.95s-5.86,1.32-5.86,2.95,2.62,2.94,5.86,2.94,5.86-1.32,5.86-2.94Z"/><path class="o" d="M204.33,298.21c1.26,2.98-4.02,5.52-9.82,7.52-.19,.02-.38,.02-.58,.03-2.27-3-5.75-5.09-9.92-6.99,.48-.62,.99-1.22,1.49-1.76h.01c1.58-1.72,3.16-2.98,4.67-3.57h.03c.18-.08,.36-.14,.54-.19,.12-.03,.23-.07,.35-.09l.24-.06c1.12-.27,2.23-.32,3.33-.22h0c.86,.07,1.7,.25,2.52,.52h.02l.09,.03h.01c.09,.03,.19,.06,.28,.09,.32,.11,.64,.24,.96,.37,1.9,.84,3.66,2.1,5.16,3.65,.21,.21,.41,.43,.61,.66h0Z"/><path class="o" d="M203.92,288.37c.33,.03,.81-.12,1.42-.41-1.14,.65-2.58,1.95-3.18,1.58-.58-.35,.39-1.83,.4-2.91,.02,.23,.06,.44,.12,.64v.02h.01c.16,.59,.5,1.03,1.23,1.08Z"/><path class="o" d="M203.1,379.36c.06,.17,.09,.34,.09,.51,0,.31-.1,.61-.28,.89,.06-.47,.13-.93,.19-1.4Z"/><path class="o" d="M208.28,240.88c-5.23,6.35-12.92,12.24-19.57,15.09t-.02,0c-1.47,.35-2.96,.66-4.47,.92-3.84,.68-7.77,1.04-11.66,1.06-2.38-5.3-5.31-11.85-7.68-12.13,0-.01-.01-.01-.01-.02l.55-1.77c2.2,.43,4.61,.58,6.74,.37,2.92-.29,5.84-1.33,8.29-2.72,2.01-1.15,3.7-2.54,4.8-3.95h.01c6.43-.42,14.53,.74,23.02,3.14Z"/><path class="o" d="M203.1,379.36c-.06,.47-.13,.93-.19,1.4-.79,1.19-3.1,2.05-5.82,2.05-3.36,0-6.09-1.32-6.09-2.94s2.73-2.95,6.09-2.95c3.01,0,5.51,1.05,6.01,2.44Z"/><path class="o" d="M205.69,211.03c-2.53-1.09-5.66-1.26-8.72-.51-2.38-2.56-5.37-3.88-7.51-2.15,1.74-2.46,3.82-4.34,5.94-4.85,3.48-.84,8,2.9,10.29,7.51Z"/><path class="o" d="M204.61,395.84c-1.27,5.24-2.66,8.75-4.2,9.43-2.75,1.21-5.04,2.01-7.37,1.95,2.68-.75,4.82-4.5,6.51-9.97,1.45-.33,3.08-.8,5.06-1.41Z"/><path class="o" d="M199.59,285.84h0c-.06,.11-.11,.19-.16,.3-.13,.27-.25,.56-.38,.86-.85-.05-1.74-.1-2.65-.15h-.01c-1.05-.05-2.14-.1-3.27-.15h-.01c-.07,0-.12,0-.19-.01-.11-.33-.23-.66-.36-.98-.22-.59-.46-1.16-.71-1.71v-.02c-.81-1.8-1.74-3.37-2.78-4.63-.43-.52-.87-.98-1.34-1.38l-.02-.02c.84,.03,1.67,.08,2.45,.13h.03c.13,1.03,1,1.82,2.06,1.82,.32,0,.62-.07,.88-.19,.69,2.43,3.97,5.64,6.02,4.69,.15,.48,.29,.95,.44,1.43h0Z"/><path class="o" d="M199.05,287s-.01,0-.01,.02c-.79,1.89-1.43,4.3-1.44,6.4h-.07c-.1-.01-.2-.01-.31-.02h-.02c-.82-.27-1.66-.45-2.52-.52-.48-2.18-1.06-4.26-1.75-6.17t0-.02c.07,.01,.12,.01,.19,.01h.01c1.13,.05,2.22,.1,3.27,.15h.01c.91,.05,1.8,.1,2.65,.15Z"/><path class="o" d="M198.3,138.49l.16,.05c-2.31,9.1-6.83,25.42-1.75,30.65-2.53-1.49-5.14-3.04-8.7-5.04,3.38-6.36,7.02-15.21,10.29-25.66Z"/><path class="o" d="M197.13,313.69l.02,.65c-.24,0-.48,.02-.72,.06-5.95,.95-11.08,14.15-8.87,19.22,.01,.04,.02,.09,.04,.13-2.38,.39-4.08,.53-4.59,.6-.63,.03-1.29,.05-1.99,.07-1.85,.05-3.77,.08-5.78,.08-4.01,0-7.67,.06-11.04-.16,1.63-3.75-.74-11.93-4.5-16.33-.64-.76-1.33-1.4-2.04-1.89-.75-.52-1.53-.87-2.33-1-.24-.04-.48-.06-.72-.06l.14-2.8c4.82,.24,10.41,.38,16.9,.41,7.08,.9,16.62,1.23,25.48,1.02Z"/><path class="o" d="M196.97,210.52c4.26,4.57,6.6,13.09-1.2,15.29h0c-4.78,.71-9.47-.04-10.47-2.42-.06-.14-.11-.28-.15-.43l.05-.02c.9-5.27,4.11-8.95,7.99-10.99,.16,.26,.45,.44,.78,.44,.51,0,.92-.42,.92-.93,0-.09-.01-.18-.04-.27,.7-.28,1.41-.5,2.12-.67Z"/><path class="o" d="M196.97,210.52c-.71,.17-1.42,.39-2.12,.67-.11-.38-.46-.66-.88-.66-.51,0-.93,.42-.93,.93,0,.18,.05,.35,.15,.49-3.88,2.04-7.09,5.72-7.99,10.99l-.05,.02c-1.04-3.41,1.05-10.01,4.31-14.59,2.14-1.73,5.13-.41,7.51,2.15Z"/><path class="o" d="M194.85,211.19c.03,.09,.04,.18,.04,.27,0,.51-.41,.93-.92,.93-.33,0-.62-.18-.78-.44,.54-.29,1.1-.54,1.66-.76Z"/><path class="o" d="M194.83,266.37l-.02,.08c-.5,1.84-1.01,8.07-.76,10.33-.36-.62-1.03-1.04-1.8-1.04-.58,0-1.1,.24-1.48,.62-.23-1.99,.09-8.37,.66-10.46l.02-.11c1.09,.18,2.25,.36,3.38,.58Z"/><path class="o" d="M192.92,286.69s0,.01,0,.02c.69,1.91,1.27,3.99,1.75,6.17h0c-1.1-.1-2.21-.05-3.33,.22l-.03-.14c-.42-1.28-1.38-6.88-5.44-12.66-2.08-2.95-6.59-3.83-10.27-4.13l-.02-.06c1.66-.42,3.37-.61,5.02-.56,.37,.01,.74,.04,1.11,.08,1.56,.17,3.05,.57,4.35,1.22,.57,.28,1.12,.66,1.64,1.1h.01l.02,.02c.47,.4,.91,.86,1.34,1.38,1.04,1.26,1.97,2.83,2.78,4.63v.02c.25,.55,.49,1.12,.71,1.71,.13,.32,.25,.65,.36,.98Z"/><path class="o" d="M193.97,210.53c.42,0,.77,.28,.88,.66-.56,.22-1.12,.47-1.66,.76-.1-.14-.15-.31-.15-.49,0-.51,.42-.93,.93-.93Z"/><path class="o" d="M194.05,276.78c.18,.31,.28,.66,.28,1.04,0,.84-.49,1.56-1.2,1.88h0c-.26,.13-.56,.2-.88,.2-1.06,0-1.93-.79-2.06-1.82-.01-.08-.02-.17-.02-.26,0-.57,.23-1.08,.6-1.46,.38-.38,.9-.62,1.48-.62,.77,0,1.44,.42,1.8,1.04Z"/><path class="o" d="M185.88,397.5c6.25,.66,9.02,.84,13.67-.25-1.69,5.47-3.83,9.22-6.51,9.97h-.01c-1.7-.03-3.44-.53-5.41-1.65-.93-.54-1.42-3.73-1.74-8.07Z"/><path class="o" d="M193.93,305.76c-1.08,.05-2.19,.09-3.35,.13-.69,.02-1.39,.04-2.11,.06-.47-.44-.95-.87-1.43-1.3-.56-.5-1.12-1-1.69-1.48-.94-.82-1.9-1.61-2.86-2.38,.38-.54,.76-1.05,1.14-1.54,.12-.16,.25-.32,.38-.48,4.17,1.9,7.65,3.99,9.92,6.99Z"/><path class="o" d="M191.45,265.79l-.02,.11c-.57,2.09-.89,8.47-.66,10.46-.37,.38-.6,.89-.6,1.46,0,.09,0,.18,.02,.26h-.03c-.78-.05-1.61-.1-2.45-.13h-.01c-.52-.44-1.07-.82-1.64-1.1-1.3-.65-2.79-1.05-4.35-1.22,1.79-6.68,.29-13.54-1.22-14.01-.22-.07-.42-.1-.61-.1l-.11-.87c1.4-.18,2.93-.44,4.8-.8h.01c.25,1.05,.63,2.14,1.12,3.39,.6,1.52,2.99,2.08,5.75,2.55Z"/><path class="o" d="M190.2,293.44h-.02c-1.51,.59-3.09,1.85-4.67,3.57h-.01c-.5,.54-1.01,1.14-1.49,1.76-.13,.16-.26,.32-.38,.48-.38,.49-.76,1-1.14,1.54-2.37-1.87-4.73-3.57-6.97-4.88-.41-.24-.81-.47-1.21-.68-1.68-.91-3.28-1.59-4.73-1.96-.28-.08-.54-.14-.81-.18-.28-.05-.55-.09-.82-.12h-.09c-.1-.01-.21-.02-.31-.03h-.05c-.33-.02-.64,0-.95,.02h-.01s-.09,.02-.13,.03h-.02c-.11,.01-.2,.02-.31,.04-.01-.01-.01-.03-.01-.04h-.01s-.01-.01-.01-.02c-.13-.35-.26-.69-.38-1.02-.51-1.43-.83-2.76-.92-3.96-.03-.52-.03-1.02,.03-1.48v-.02c.01-.11,.03-.22,.05-.32,.04-.21,.08-.42,.12-.62,.45-1.86,1.38-3.5,2.63-4.88,.17-.18,.34-.36,.52-.53h.01c.82-.81,1.75-1.51,2.76-2.11,1.04-.62,2.18-1.14,3.35-1.53,.45-.15,.9-.28,1.36-.39l.02,.06c3.68,.3,8.19,1.18,10.27,4.13,4.06,5.78,5.02,11.38,5.44,12.66l.03,.14-.24,.06c-.12,.02-.23,.06-.35,.09-.18,.05-.36,.11-.54,.19h-.01Z"/><path class="o" d="M190.03,195.86c.07,.52-.7,1.21-1.75,1.82-1.69-.04-3.41-.06-5.14-.06,.39-1.02,1.39-2.25,2.87-2.7,1.77-.54,3.91,.13,4.02,.94Z"/><path class="o" d="M187.04,304.65c.48,.43,.96,.86,1.43,1.3-1.17,.03-2.38,.06-3.63,.08-1.18,.02-2.39,.04-3.64,.05,.05-.08,.07-.15,.1-.23,.72-2.43-3.3-6.32-8.16-9.14,.32-.38,.65-.76,.99-1.15l.18-.33c.4,.21,.8,.44,1.21,.68,2.24,1.31,4.6,3.01,6.97,4.88,.96,.77,1.92,1.56,2.86,2.38,.57,.48,1.13,.98,1.69,1.48Z"/><path class="o" d="M185.79,232.32c1.42,1.46,1.01,3.46-.53,5.42h-.01c-1.1,1.41-2.79,2.8-4.8,3.95h0c.28-1.16-1.42-6.96-2.4-8.63,2.87-1.85,5.36-3.2,7.74-.74Z"/><path class="o" d="M184.58,259.85h-.01c-1.87,.36-3.4,.62-4.8,.8-2.03,.27-3.78,.35-5.85,.29-.42-.89-.88-1.9-1.35-2.96,0,0-.01,0-.01-.02,3.89-.02,7.82-.38,11.66-1.06v.03c0,1,.12,1.94,.36,2.92Z"/><path class="o" d="M188.28,197.68c-1.87,1.1-4.66,1.97-5.21,1.27-.2-.24-.17-.75,.07-1.33,1.73,0,3.45,.02,5.14,.06Z"/><path class="o" d="M173.92,260.94c.98,2.06,1.8,3.54,2.35,3.71,1.78,.55,1.63-3.13,3.61-3.13,.19,0,.39,.03,.61,.1,1.51,.47,3.01,7.33,1.22,14.01-.37-.04-.74-.07-1.11-.08v-.23c.63-3.42,.49-9.36-1.1-10.14-1.19-.59-2.55,1.18-4.19,1.21-2.43,.05-2.59-6.33-10.43-20.56,2.37,.28,5.3,6.83,7.68,12.13,0,.01,.01,.01,.01,.02,.47,1.06,.93,2.07,1.35,2.96Z"/><path class="o" d="M173.14,296.71c4.86,2.82,8.88,6.71,8.16,9.14-.03,.08-.05,.15-.1,.23-1.91,.02-3.9,.03-5.97,.03-2.56,0-4.99-.02-7.31-.05,.75-3.27,2.67-6.29,5.22-9.35Z"/><path class="o" d="M179.5,265.18c1.59,.78,1.73,6.72,1.11,10.14v.23c-1.66-.05-3.37,.14-5.03,.56-.46,.11-.91,.24-1.36,.39l-.09-.27c.43-.12,.77-.32,.9-.6,.05-.11,.05-.27,.01-.48,.55,.05,1.1-.17,1.1-.62-.15-1.73-.5-3.16-.96-3.17-.36-.01-.76,.72-1.04,1.8-1.26-2.16-3.43-4.79-4.31-4.38-.25,.12-.32,.51-.26,1.07l-2.96,.48h-.06c-.03-1.17-.23-2.73-.51-4.51,0-.01,0-.02-.01-.03-.38-2.47-.94-5.36-1.44-8.15v-.02c-1.02-5.64-1.8-10.91-.5-11.63,.25-.14,.52-.19,.79-.16,7.84,14.23,8,20.61,10.43,20.56,1.64-.03,3-1.8,4.19-1.21Z"/><path class="o" d="M178.05,233.06c.98,1.67,2.68,7.47,2.4,8.62h0c-2.45,1.4-5.37,2.44-8.29,2.73,.27-1.15-.36-6.06-1.34-7.73,2.71-.57,5.08-2.24,7.23-3.62Z"/><path class="o" d="M179.77,260.65l.11,.87c-1.98,0-1.83,3.68-3.61,3.13-.55-.17-1.37-1.65-2.35-3.71,2.07,.06,3.82-.02,5.85-.29Z"/><path class="o" d="M175.18,271.36c.46,.01,.81,1.44,.96,3.17,0,.45-.55,.67-1.1,.62-.11-.48-.44-1.2-.9-1.99,.28-1.08,.68-1.81,1.04-1.8Z"/><path class="o" d="M160.45,222.14c.19-2.09,18.34-4.2,18.35-2.04,0,1.7-5.57,4.37-10.01,4.37-3.71,0-8.49-.76-8.34-2.33Z"/><path class="o" d="M175.04,275.15c.04,.21,.04,.37-.01,.48-.13,.28-.47,.48-.9,.6-.86,.24-2.06,.1-2.53-.6-.51-.77-1.87-4.04-2.03-5.78-.06-.56,.01-.95,.26-1.07,.88-.41,3.05,2.22,4.31,4.38-.06,.24-.12,.51-.17,.79-.17,.78,.44,1.16,1.07,1.2Z"/><path class="o" d="M174.31,295.23l-.18,.33c-.34,.39-.67,.77-.99,1.15l-.06-.03c-2.83-1.64-5.94-2.9-8.58-3.3,.5-.15,1.03-.27,1.57-.35h.01c.11-.02,.2-.03,.31-.04h.02s.09-.02,.13-.03h.01c.31-.03,.62-.04,.95-.02h.05c.1,.01,.21,.02,.31,.03h.09c.27,.03,.54,.07,.82,.12,.27,.04,.53,.1,.81,.18,1.45,.37,3.05,1.05,4.73,1.96Z"/><path class="o" d="M170.87,278.03c-1.01,.6-1.94,1.3-2.76,2.1h-.01c-.18,.18-.35,.36-.52,.54-.98-.31-1.97-1.09-2.88-2.05-.67-.72-1.3-1.54-1.84-2.35-1.25-1.86-2.04-3.64-1.9-3.93,.54-1.07,1.91-.16,3.18,.3h.02c.06,.03,.13,.05,.19,.07,.94,.54,2.07,1.54,2.56,1.2,.61-.43-.22-2.27-.3-3.58l2.96-.48c.16,1.74,1.52,5.01,2.03,5.78,.47,.7,1.67,.84,2.53,.6l.09,.27c-1.17,.39-2.31,.91-3.35,1.53Z"/><path class="o" d="M174.14,273.16c.46,.79,.79,1.51,.9,1.99-.63-.04-1.24-.42-1.07-1.2,.05-.28,.11-.55,.17-.79Z"/><path class="o" d="M173.08,296.68l.06,.03c-2.55,3.06-4.47,6.08-5.22,9.35h-.01c-.76-.01-1.5-.02-2.23-.03-3.9-.07-7.44-.18-10.63-.33,.56-3.29,2.05-6.57,4.31-8.99,.3-.32,.61-.63,.94-.92h.01c1.11-.98,2.36-1.75,3.75-2.25t.02-.01c.12-.05,.24-.09,.36-.13,.01,0,.02,0,.03,0s.02-.01,.03-.01c2.64,.4,5.75,1.66,8.58,3.3Z"/><path class="o" d="M172.99,227.52c.59,1.46-1.11,3.12-3.75,3.28-.26,.02-.52,0-.77-.05,2.5-.11,2.79-2.91,2.35-3.76,1.12,0,2.01,.14,2.17,.53Z"/><path class="o" d="M170.82,236.68c.98,1.67,1.61,6.58,1.34,7.73-2.13,.21-4.54,.06-6.74-.37-.6-.12-1.18-.26-1.74-.41,.27-1.15,.44-5.4-.54-7.09,1.81,.05,3.91,.4,6.05,.33,.56-.02,1.1-.09,1.63-.19Z"/><path class="o" d="M170.82,226.99c.44,.85,.15,3.65-2.35,3.76-1.79-.33-3.42-2.04-2.85-2.74,.38-.47,3.17-1,5.2-1.02Z"/><path class="o" d="M171.45,366.83c-.79,.23-1.32,1.4-1.68,3.2-1.18,5.89-.44,18.58-.58,27.33-1.8,.19-3.32,.35-4.68,.45,1.43-9.44,.78-23.12,.74-29.66,0-1.32,4.67-1.26,6.2-1.32Z"/><path class="o" d="M169.19,397.36c-.07,4.88-.42,8.53-1.52,9.12-2.77,1.5-5.63,1.65-8.17,1.22,2.69-.47,4.19-4.48,5.01-9.89,1.36-.1,2.88-.26,4.68-.45Z"/><path class="o" d="M166.61,270.33c.08,1.31,.91,3.15,.3,3.58-.49,.34-1.62-.66-2.56-1.2,.78,.24,1.5,.26,1.96-.52,.2-.34,.27-.99,.24-1.86h.06Z"/><path class="o" d="M166.55,270.33c.03,.87-.04,1.52-.24,1.86-.46,.78-1.18,.76-1.96,.52l-.21-.12c-.1-2.37-.35-4.97-.68-6.17,.96-.17,1.84-.36,2.57-.63,.01,.01,.01,.02,.01,.03,.28,1.78,.48,3.34,.51,4.51Z"/><path class="o" d="M164.5,293.38s-.02,.01-.03,.01-.02,0-.03,0c-.12,.04-.24,.08-.36,.13t-.02,.01c-1.39,.5-2.64,1.27-3.75,2.24-.36-.88-.87-1.76-1.44-2.61,0-.01-.01-.01-.01-.02,1.15-.04,2.32-.07,3.55-.1,.35-.01,.7-.02,1.07-.03,.83-.02,1.68-.03,2.56-.05h.01s.01,0,.01,.02h.01s0,.03,.01,.04h-.01c-.54,.08-1.07,.2-1.57,.35Z"/><path class="o" d="M166.05,292.97h-.01c-.88,.02-1.73,.03-2.56,.05-.37,.01-.72,.02-1.07,.03-1.23,.03-2.4,.06-3.55,.1h-.01c-1.89-2.78-4.57-5.09-5.6-5.09l-.06-1.16c.17,0,.34-.02,.52-.03,.16-.01,.32-.02,.48-.02,.93-.05,1.89-.09,2.89-.13,1.85-.08,3.81-.14,5.88-.19,.59-.01,1.2-.03,1.81-.04h.01v.02c-.06,.46-.06,.96-.03,1.48,.09,1.2,.41,2.53,.92,3.96,.12,.33,.25,.67,.38,1.02Z"/><path class="o" d="M167.58,280.67c-1.25,1.38-2.18,3.02-2.63,4.88-.04,.2-.08,.41-.12,.62-.02,.1-.04,.21-.05,.32h-.01c-.61,.01-1.22,.03-1.81,.04-2.07,.05-4.03,.11-5.88,.19v-.08c-.04-.54-.11-1.16-.18-1.83,2.02-.75,4.31-2.88,4.8-4.61,.28,.14,.6,.22,.94,.22,1.05,0,1.92-.78,2.06-1.8,.91,.96,1.9,1.74,2.88,2.05Z"/><path class="o" d="M159.7,318.01c3.76,4.4,6.13,12.58,4.5,16.33-.01,.02-.01,.05-.02,.07,0,.01,0,.02,0,.03-.15,.56-.47,1.08-.94,1.57-3.22,3.37-13.29,4.88-20.5,2.25,10.18,.39,16.71-2.27,17.07-10.67,1.35-2.52,.67-6.19-.24-9.46l.14-.12Z"/><polygon class="o" points="164.14 272.64 164.15 272.65 164.14 272.65 164.14 272.64"/><path class="o" d="M164.14,272.59v.05c-1.27-.46-2.64-1.37-3.18-.3-.14,.29,.65,2.07,1.9,3.93h-.01c-.07-.01-.14-.01-.21-.01-.76,0-1.43,.41-1.79,1.01,.25-2.27-.26-8.45-.76-10.3,1.16-.2,2.31-.36,3.37-.55,.33,1.2,.58,3.8,.68,6.17Z"/><path class="o" d="M163.14,236.54c.98,1.69,.81,5.94,.54,7.09-3.93-1.1-6.68-3.14-4.98-5.57,.95-1.36,2.53-1.6,4.44-1.52Z"/><path class="o" d="M161.7,280.2c-.67-.34-1.14-1.05-1.14-1.86,0-.39,.11-.76,.29-1.07,.36-.6,1.03-1.01,1.79-1.01,.07,0,.14,0,.21,.01h.01c.54,.81,1.17,1.63,1.84,2.35-.14,1.02-1.01,1.8-2.06,1.8-.34,0-.66-.08-.94-.22Z"/><path class="o" d="M158.12,378.04c3.24,0,5.86,1.32,5.86,2.95s-2.62,2.94-5.86,2.94-5.86-1.32-5.86-2.94,2.62-2.95,5.86-2.95Z"/><path class="o" d="M150.38,395.84c6.47,2,9.31,2.33,14.13,1.97-.82,5.41-2.32,9.42-5.01,9.89-1.61-.28-3.1-.79-4.35-1.35-2-.89-2.94-2.54-4.77-10.51Z"/><path class="o" d="M160.09,266.97c.5,1.85,1.01,8.03,.76,10.3-.18,.31-.29,.68-.29,1.07,0,.81,.47,1.52,1.14,1.86-.49,1.73-2.78,3.86-4.8,4.61-.23-2.12-.58-4.68-.72-6.4-.23,1.74-.87,4.16-1.49,6.51-.17,.65-.34,1.3-.5,1.93-.16,0-.32,.01-.48,.02-.18,.01-.35,.02-.52,.03-5.21,.29-9.47,.7-12.93,1.19,1.15-2.7,9.37-16.14,12.99-18.88,1.68-1.28,4.27-1.83,6.83-2.24h0Z"/><path class="o" d="M160.31,295.78h-.01c-.33,.3-.64,.61-.94,.93h-.01s-.01-.04-.02-.06c-.96-2.85-3.27-5.61-4.38-5.17-1.25,.48-.31,2.79-1.3,4.09-1.32,1.73-8.79-2.53-21.32-5.78-1.39-.36-2.84-.71-4.35-1.03,1.25-.07,3.16,.23,5.38,.72h.02s.03,.01,.05,.01c.51,.11,1.03,.23,1.57,.36,1.8,.42,3.72,.93,5.62,1.42,2.92,.77,5.78,1.52,7.98,1.94h.01c.87,.17,1.62,.29,2.25,.34h.06s.07,.01,.1,.01c.59,.04,1.05,.02,1.36-.09,.05-.01,.09-.03,.13-.05,2.21-1.09-1.31-4.57,.55-5.33,.05-.02,.12-.03,.19-.03,1.03,0,3.71,2.31,5.6,5.09h.01s.01,.01,.01,.02c.57,.85,1.08,1.73,1.44,2.61Z"/><path class="o" d="M159.56,318.13c.91,3.27,1.59,6.94,.24,9.46,.13-3.03-.54-6.81-2.14-11.47,.71,.49,1.4,1.13,2.04,1.89l-.14,.12Z"/><path class="o" d="M159.8,327.59c-.36,8.4-6.89,11.06-17.07,10.67-.75-.27-1.47-.58-2.15-.95-1.26-.69-2.38-1.53-3.28-2.56-1.74-1.73-2.25-4.68-2.26-6.96,.93,.58,1.97,1.13,3.13,1.63,.03,.02,.06,.04,.09,.04l.24,.19c4.54-5.83,8.68-11.03,12.39-13.33h0c1.29-.81,2.53-1.26,3.72-1.26,.24,0,.48,.02,.72,.06,.8,.13,1.58,.48,2.33,1,1.6,4.66,2.27,8.44,2.14,11.47Z"/><path class="o" d="M159.35,296.7h.01c-2.26,2.43-3.75,5.71-4.31,9-.97-.05-1.9-.1-2.8-.15h0c-3.86-.24-7.16-.53-10.01-.89,.56-.26,1.16-.46,1.57-.75,1.09-.29,2.78-.25,2.81-.83,.05-.74-3.68-1.54-4.75-2.29l-.02,.03c-1.63-.97-3.9-2.16-6.2-3.42-.81-.44-1.62-.9-2.41-1.36-.01-.01-.02-.01-.03-.01-1.17-.68-2.28-1.37-3.26-2.03-.95-.65-1.77-1.28-2.39-1.89-.01-.01-.03-.03-.03-.04-1.05-1.03-1.5-1.99-.98-2.79,.21-.32,.71-.48,1.43-.52,1.51,.32,2.96,.67,4.35,1.03,12.53,3.25,20,7.51,21.32,5.78,.99-1.3,.05-3.61,1.3-4.09,1.11-.44,3.42,2.32,4.38,5.17,0,.02,0,.03,.02,.05Zm-4.92,5.98c1.26,.04,2.43-1.98,1.98-2.79-.54-.98-8.32-1.2-8.59,.26-.21,1.13,5.4,2.49,6.61,2.53Z"/><path class="o" d="M158.56,198.23c.17,1.1-.04,2.11-.5,2.43-.85,.6-3.2-.66-4.72-2.14,1.71-.1,3.45-.19,5.22-.29Z"/><path class="o" d="M157.6,196c.54,.65,.85,1.46,.96,2.23-1.77,.1-3.51,.19-5.22,.29-.54-.52-.97-1.07-1.19-1.57h0c1.81-.33,3.63-.64,5.45-.95Z"/><path class="o" d="M157.08,286.64v.08c-1,.04-1.96,.08-2.89,.13,.16-.63,.33-1.28,.5-1.93,.6,.28,1.38,.2,2.21-.11,.07,.67,.14,1.29,.18,1.83Z"/><path class="o" d="M156.18,278.41c.14,1.72,.49,4.28,.72,6.4-.83,.31-1.61,.39-2.21,.11,.62-2.35,1.26-4.77,1.49-6.51Z"/><path class="o" d="M156.41,299.89c.45,.81-.72,2.83-1.98,2.79-1.21-.04-6.82-1.4-6.61-2.53,.27-1.46,8.05-1.24,8.59-.26Z"/><path class="o" d="M155.88,165.57c-3.96,2.63-6.29,4.23-8.65,5.8l-.07-.1c3.58-1.76-2.55-18.03-3.9-48.62-.3-6.81-1.71-21.59-6.12-31.89,3.6,7.24,6.66,16.94,8.05,28.61,2.41,20.23,6.29,35.98,10.69,46.2Z"/><path class="o" d="M149.93,209.34c3.7,4.56,6.25,11.37,5.1,14.71-.92-5.43-4.35-9.1-8.42-11.01-.02-.49-.42-.87-.91-.87-.23,0-.45,.09-.61,.23-.78-.28-1.57-.5-2.37-.65,2.2-2.59,5.02-3.98,7.21-2.41Z"/><path class="o" d="M154.75,312.26l-.14,2.8c-1.19,0-2.43,.45-3.72,1.25h0c-3.71,2.31-7.85,7.51-12.39,13.34l-.24-.19s-.06-.02-.09-.04c-1.16-.5-2.2-1.05-3.13-1.63-8.28-5.13-8.28-12.79-8.28-21.36l.05-.05c2.92,2.87,10.14,5.01,27.94,5.88Z"/><path class="o" d="M150.92,293.55h-.06c-.63-.05-1.38-.17-2.25-.34h-.01c-2.2-.42-5.06-1.17-7.98-1.94-1.9-.49-3.82-1-5.62-1.42-.54-.13-1.06-.25-1.57-.36-.02,0-.03-.01-.05-.01,.73-.2,1.49-.4,2.35-.58,1.34-.29,2.84-.56,4.53-.81,3.46-.49,7.72-.9,12.93-1.19l.06,1.16c-.07,0-.14,.01-.19,.03-1.86,.76,1.66,4.24-.55,5.33-.04,.02-.08,.04-.13,.05-.31,.11-.77,.13-1.36,.09-.03,0-.06,0-.1-.01Z"/><path class="o" d="M152.15,196.95c.22,.5,.65,1.05,1.19,1.57-6.16,.38-11.9,.84-16.79,1.31,5.08-.99,10.3-1.95,15.6-2.89h0Z"/><path class="o" d="M149.93,209.34c-2.19-1.57-5.01-.18-7.21,2.41-2.96-.59-5.95-.35-8.37,.7l-.17-.08c2.09-4.46,6.13-8.09,9.5-7.51,2.15,.37,4.36,2.13,6.25,4.48Z"/><path class="o" d="M155.03,224.05c-.84,2.44-5.49,3.48-10.3,3.08-.01,0-.02,0-.03-.01-7.99-1.74-6.04-10.59-1.98-15.37,.8,.15,1.59,.37,2.37,.65-.2,.17-.32,.42-.32,.7,0,.51,.42,.92,.93,.92s.92-.41,.92-.92c0-.02,0-.04-.01-.06,4.07,1.91,7.5,5.58,8.42,11.01Z"/><path class="o" d="M147.16,171.27l.07,.1c-.69,.46-1.38,.92-2.12,1.39-3.92-6.39-9.31-17.56-8.41-33.17,.54-9.19,.49-17.33-.1-25.02v-.06c-.04-.9-.11-1.76-.21-2.58-.4-4.37-.98-8.6-1.71-12.82h0c-.5-5.1-6.43-20.59-14.38-22.35,.79-.42,1.56-.66,2.3-.69,4.05-.18,9.76,5.08,14.53,14.65,0,0,.01,.02,.02,.04,4.41,10.3,5.82,25.08,6.12,31.89,1.35,30.59,7.48,46.86,3.9,48.62Z"/><path class="o" d="M141.87,300.79c1.07,.75,4.8,1.55,4.75,2.29-.03,.58-1.72,.54-2.81,.83,.37-.26,.58-.59,.46-1.11-.11-.45-1.04-1.13-2.42-1.98l.02-.03Z"/><path class="o" d="M146.61,213.04s.01,.04,.01,.06c0,.51-.41,.92-.92,.92s-.93-.41-.93-.92c0-.28,.12-.53,.32-.7,.52,.18,1.02,.39,1.52,.64Z"/><path class="o" d="M145.7,212.17c.49,0,.89,.38,.91,.87-.5-.25-1-.46-1.52-.64,.16-.14,.38-.23,.61-.23Z"/><path class="o" d="M143.81,303.91c-.41,.29-1.01,.49-1.57,.75h-.01c-9.24-1.13-13.58-2.89-15.62-5.05-.03-.04-.06-.07-.08-.1,.02-.03,.05-.06,.08-.1,1.04-1.09,2.66-2.09,5.2-2.95,.44-.15,.9-.29,1.4-.43,.01,0,.02,0,.03,.01,.79,.46,1.6,.92,2.41,1.36,2.3,1.26,4.57,2.45,6.2,3.42,1.38,.85,2.31,1.53,2.42,1.98,.12,.52-.09,.85-.46,1.11Z"/><path class="o" d="M134.35,212.45c2.42-1.05,5.41-1.29,8.37-.7-4.06,4.78-6.01,13.63,1.98,15.37-4.84-.4-9.83-2.26-11.29-5.63-1.17-2.72-.65-6.11,.77-9.12l.17,.08Z"/><path class="o" d="M134.89,232.13c3.07,0,5.55,1.32,5.55,2.95s-2.48,2.94-5.55,2.94-5.55-1.32-5.55-2.94,2.49-2.95,5.55-2.95Z"/><path class="o" d="M145.11,172.76c-1.78,1.16-3.82,2.45-6.71,4.23l-.18-.18c1.32-2.62-2.01-13.68-2.92-16.9-3.08-10.81,1.95-31.97,1.3-45.34,.59,7.69,.64,15.83,.1,25.02-.9,15.61,4.49,26.78,8.41,33.17Z"/><path class="o" d="M135.3,159.91c.91,3.22,4.24,14.28,2.92,16.9-7.22-7.67-21.58-19.55-28.95-38.07-10.3-25.91,1.61-56.99,11.02-61.98,7.95,1.76,13.88,17.25,14.38,22.35h0c.73,4.22,1.31,8.45,1.71,12.82,.08,.86,.15,1.72,.21,2.58v.06c.65,13.37-4.38,34.53-1.3,45.34Z"/><path class="o" d="M136.39,111.93c.1,.82,.17,1.68,.21,2.58-.06-.86-.13-1.72-.21-2.58Z"/><path class="o" d="M124.99,296.38h-.02c.14-.93,.44-1.83,1.01-2.68,.38-.56,.88-1.1,1.54-1.62h.01l.03,.03c.62,.61,1.44,1.24,2.39,1.89,.98,.66,2.09,1.35,3.26,2.03-.5,.14-.96,.28-1.4,.43-2.54,.86-4.16,1.86-5.2,2.95-.03,.04-.06,.07-.08,.1-.89-.98-1.32-2.02-1.54-3.13Z"/><path class="o" d="M122.88,221.91h0c-.13,.94-.26,1.87-.37,2.79-.17,1.38-.23,2.71-.18,4.01h-.01c-26.65-.8-50.55-3.75-50.94-8.41-.03-.38,.09-.78,.37-1.2,3.18-4.77,26.31-11.38,55.69-17.45-2.21,6.71-3.62,13.68-4.56,20.26Z"/></g></g><g id="c"><g><path class="k" d="M269.03,190.54c.98,8.68-26.73,21.73-48.05,27.84-1.78-10.09-4.94-20.8-10.27-29.89,27.35-2.97,49.7-3.66,56.33-.24,.02,0,.03,.01,.05,.03,.5,.34,.98,.71,1.41,1.09,.31,.36,.48,.75,.53,1.17Z"/><path class="y" d="M136.69,199.8c-3.12,.6-6.2,1.22-9.2,1.83-29.36,6.06-52.49,12.67-55.68,17.44,3-6.68,25.15-15.28,53.72-22.56,24.96-6.37,54.82-11.74,81.06-13.94,1.94-.17,3.86-.32,5.76-.44,24.67-1.67,45.42-.27,54.69,6.12-6.63-3.42-28.98-2.73-56.33,.24-16.64,1.79-35.13,4.43-53.06,7.49-1.82,.31-3.64,.63-5.45,.95-5.27,.92-10.46,1.88-15.51,2.87Z"/><path class="k" d="M231.05,249.99c-1.34-.71-2.69-1.39-4.06-2.04l.86-1.8c.84,1.26,10.43-2.07,12.08,.03,.78,1-6.12,1.97-6,2.87,.16,1.24,11.43-.11,12.39,1.18,.55,.74-6.41,1.09-6.39,1.82,.02,.95,10.82,1.36,10.82,2.22,0,.55-5.73,1.25-6.26,2.35-1.08,2.29,4.34,9.63,2.75,9.93-2.42,.44-4.9-8.48-6.82-8.27-1.3,.14-.21,4.4-1.4,4.47-1.74,.1-3.17-8.74-4.7-8.61-1.08,.09-1.43,4.6-2.09,4.56-.78-.04-.68-6.37-2.07-7l.89-1.71Z"/><path class="v" d="M240.22,90.37c4.65,13.05,6.12,33.51-2.62,50.57-8.47,16.53-22.59,26.78-30.91,33.72-.01,.01-.03,.02-.04,.04-2.95-1.55-5.25-2.84-7.41-4.09,.26-.36,.53-.75,.8-1.14,.3-.44,.6-.89,.89-1.36,6.71,1.52,9.02,.78,21.09-11.61,9.66-9.93,22.75-34.63,18.18-66.12h.02Z"/><path class="g" d="M240.2,90.38c4.57,31.49-8.52,56.19-18.18,66.12-12.07,12.39-14.38,13.13-21.09,11.61,4.17-6.5,8.81-16.29,9.28-28.93,.58-15.55,2.54-27.98,5.87-40.11,2.03-5.51,11.25-21.7,18.57-18.97h.01c2.03,2.28,3.98,5.85,5.55,10.27h0Z"/><path class="k" d="M234.66,80.09h-.01c-7.32-2.72-16.54,13.47-18.57,18.98-3.33,12.13-5.29,24.56-5.87,40.11-.47,12.64-5.11,22.43-9.28,28.93-.29,.47-.59,.92-.89,1.36-.27,.39-.54,.78-.8,1.14h-.01c-.84-.48-1.65-.96-2.47-1.44-5.08-5.23-.56-21.54,1.75-30.65l-.16-.05c1.96-6.24,3.78-13.05,5.34-20.23,5.8-26.71,19.55-41.95,26.61-40.96,1.43,.2,2.92,1.19,4.36,2.81Z"/><path class="y" d="M231.05,249.99l-.89,1.71s-.09-.03-.14-.04c-.91-.15-1.68,2.03-2.61,1.83-1.18-.26-1.01-3.96-1.83-4.05h-.03l.61-1.89c.27,.13,.55,.26,.83,.4,1.37,.65,2.72,1.33,4.06,2.04Z"/><path class="y" d="M229.36,243.96c.42,.87-1.74,1.44-1.56,2.09,.01,.04,.03,.07,.05,.1l-.86,1.8c-.28-.14-.56-.27-.83-.4-1.2-.57-2.41-1.11-3.63-1.64-.3-.13-.6-.25-.91-.38,1.76-1.91,7.5-2.06,7.74-1.57Z"/><path class="r" d="M197.65,293.4c.01-2.1,.65-4.51,1.44-6.4,0-.01,.01-.01,.01-.02,.13-.3,.25-.59,.38-.86,.05-.11,.1-.19,.16-.29h0v-.02c.67-1.31,1.36-2.18,1.82-2.18,.57,0,.82,.37,.94,.9,.13,.53,.12,1.22,.18,1.87,.01,.07,.01,.14,.03,.2h-.01c0,1.09-.97,2.57-.39,2.92,.61,.38,2.09-.99,3.24-1.61,.04-.02,.08-.05,.13-.07,.15-.08,.31-.17,.48-.26h.01s.02-.01,.03-.02c.31-.18,.65-.39,1.01-.61,.16-.1,.32-.2,.48-.31,.39-.26,.81-.54,1.24-.83,.48-.34,.97-.69,1.49-1.06,6.12-4.43,14.38-11.23,16.14-10.01,.74,.52,.73,1.5,.22,2.77l-.32-.12c-9.88,12.91-15.08,14-14.06,16.2,.69,1.5,2.87,2.02,2.81,3.36-.08,1.77-4.71,4.12-8.09,4.93l-.09,.04c-.64-1.28-1.47-2.49-2.43-3.6-.04-.04-.08-.09-.12-.13h0c-.2-.24-.4-.46-.61-.67-1.5-1.55-3.26-2.81-5.16-3.65-.32-.13-.64-.26-.96-.37-.09-.03-.19-.06-.28-.09h0l-.09-.03c.11,.01,.21,.01,.31,.02h.07Zm9.83,.86c1.07-1.4,1.84-2.86,1.4-3.38-.63-.74-4.06,1.66-5.56,2.95h-.01c-.26,.23-.46,.42-.58,.55-.83,.95,.31,2.79,1.22,2.96,.03,.01,.07,.01,.12,.01,.03,0,.06-.01,.09-.02v.03c.02,.63,.42,1.26,.91,1.13,1.63-.6,2.92-1.31,2.81-1.76-.08-.35-.91-.55-2.04-.53-.04,0-.07,0-.11,.01l.02-.02c.57-.54,1.19-1.23,1.72-1.93h.01Z"/><path class="p" d="M226.36,277.39l.32,.12c-1.3,3.26-5.81,8.38-8.8,12.1-.02,.02-.03,.03-.04,.05h-.01c-1.62,2.05-2.79,3.66-2.69,4.28,.33,2,4.16-.28,4.59,2.44,.02,.12,0,.26-.04,.41,0,.01-.01,.02-.01,.03-.1,.32-.35,.7-.72,1.11-1.71,1.96-6.1,4.73-11.25,5.76-.22-.6-.48-1.19-.78-1.77l.09-.04c3.38-.81,8.01-3.16,8.09-4.93,.06-1.34-2.12-1.86-2.81-3.36-1.02-2.2,4.18-3.29,14.06-16.2Z"/><path class="y" d="M226.16,247.55l-.61,1.89c-.78,0-1.45,3.32-2.19,3.26-.42-.03-1.68-3.71-.88-6.68l.05-.11c1.22,.53,2.43,1.07,3.63,1.64Z"/><path class="k" d="M225.52,296.32c.2,1.08,.2,2.21,.2,3.34,0,2.45,0,4.75-2,6.71-1.7,1.67-4.87,3.09-10.75,4.17,1.66-1.19,1.4-5.14,.09-6.61,6.04-1.11,9.2-2.6,10.85-4.35,.03-.04,.05-.06,.08-.1,.9-.97,1.32-2.04,1.53-3.15h0Z"/><path class="k" d="M225.52,296.32h0c-.21,1.12-.63,2.19-1.53,3.16-.03-.03-.05-.06-.08-.1-.87-.91-2.14-1.75-4.02-2.51-.06-.03-.13-.05-.2-.08,.04-.15,.06-.29,.04-.41-.43-2.72-4.26-.44-4.59-2.44-.1-.62,1.07-2.23,2.69-4.27h.01c.32,.08,.62,.18,.91,.28,4.84,1.65,6.32,3.9,6.77,6.37Z"/><path class="k" d="M213.05,303.93c-1.49,.28-3.15,.53-5.02,.75-.09-.33-.2-.67-.32-.99,5.15-1.03,9.54-3.8,11.25-5.76,.37-.41,.62-.79,.72-1.11,0,0,.01-.02,.01-.03,.07,.03,.14,.05,.2,.08,1.88,.76,3.15,1.6,4.02,2.51,.03,.04,.05,.07,.08,.1-.03,.04-.05,.06-.08,.1-1.65,1.75-4.81,3.24-10.85,4.35h-.01Z"/><path class="k" d="M223.72,306.37l.04,.04c0,8.1,0,15.39-6.99,20.49-.9,.66-1.91,1.28-3.05,1.86-.03,.01-.06,.03-.09,.04l-.26,.2c-1.3-1.68-2.57-3.3-3.82-4.82,.36-.34,.71-.7,1.04-1.08,2.91-3.25,4.01-7.8,4.42-10.92-4.56,.82-10.99,1.31-17.83,1.48-8.86,.23-18.41-.1-25.48-1,1.17,.02,2.36,.02,3.59,.02,18.54,0,30.27-.79,37.68-2.14,5.88-1.08,9.05-2.5,10.75-4.17Z"/><path class="a`" d="M221.69,222.85c1.07,7.56-1.95,14.33-7.45,19.86-1.98-.68-3.96-1.3-5.91-1.84,1.68-2.03,3.1-4.11,4.15-6.15,.35-.68,.66-1.38,.94-2.11h0c.7-.59,1.07-1.28,.99-1.97-.03-.21-.09-.41-.21-.6,2.21-8.88-.09-20.3-2.79-30.56-6.43-1.09-14.45-1.64-23.06-1.82,1.04-.62,1.79-1.3,1.72-1.82-.11-.81-2.25-1.48-4.01-.94-1.48,.45-2.49,1.68-2.88,2.7-8.14-.04-16.6,.21-24.57,.61-.11-.77-.42-1.58-.96-2.23,17.93-3.06,36.42-5.7,53.06-7.49,5.33,9.09,8.49,19.8,10.27,29.89,.27,1.51,.5,3,.71,4.47Z"/><path class="a`" d="M213.37,329l.26-.2s.06-.03,.09-.04c1.14-.58,2.15-1.2,3.05-1.86,.01,2.3-.5,5.35-2.27,7.11-.84,.96-1.87,1.77-3.04,2.42-6.46,3.66-17,2.84-21.62-.14,11.8,1.54,22.66-3.02,16.74-15.6,.98,1.07,1.97,2.25,2.97,3.49,1.25,1.52,2.52,3.14,3.82,4.82Z"/><path class="x" d="M214.41,230.64c.08,.69-.29,1.38-.99,1.96,.31-.83,.57-1.68,.78-2.56,.12,.19,.18,.39,.21,.6Z"/><path class="k" d="M205.74,211.01c-2.29-4.6-6.81-8.34-10.29-7.51-2.13,.51-4.21,2.4-5.96,4.87-3.25,4.59-5.33,11.17-4.29,14.57,.03,.15,.08,.29,.14,.43,1,2.38,5.7,3.13,10.48,2.43,4.81-.71,9.69-2.9,10.94-6.36,.93-2.59,.35-5.67-1.02-8.43Zm-42.55,25.51c-1.91-.08-3.49,.16-4.44,1.52-1.7,2.43,1.04,4.47,4.97,5.57,.56,.16,1.14,.29,1.74,.41l-.54,1.77s.01,.02,.01,.03c-.28-.04-.54,.01-.8,.15-1.3,.72-.52,5.99,.5,11.63-19.85-1.73-38.84-10.26-41.85-25.52-.22-1.09-.36-2.22-.4-3.38-.05-1.3,.01-2.64,.18-4.02,.93-7.37,2.4-15.38,4.93-23.05,3-.61,6.08-1.23,9.2-1.83,4.87-.47,10.57-.92,16.7-1.3,1.52,1.48,3.87,2.74,4.72,2.14,.46-.32,.67-1.33,.5-2.43,7.97-.4,16.43-.65,24.57-.61-.24,.58-.27,1.09-.07,1.34,.56,.7,3.37-.18,5.24-1.28,8.61,.18,16.63,.73,23.06,1.82,2.7,10.26,5,21.68,2.79,30.56-.68-1.26-3.01-1.97-5.66-1.65-3.04,.37-5.35,1.98-5.15,3.59s2.82,2.62,5.86,2.25c1.75-.21,3.25-.83,4.17-1.62-.28,.73-.59,1.43-.94,2.11-1.05,2.04-2.47,4.12-4.15,6.15-8.5-2.41-16.6-3.57-23.03-3.14,1.54-1.96,1.95-3.96,.53-5.43-2.38-2.45-4.86-1.11-7.73,.74-2.15,1.38-4.52,3.05-7.23,3.62-.53,.11-1.07,.18-1.63,.2-2.14,.06-4.24-.28-6.05-.34Zm15.66-16.43c-.02-2.16-18.17-.06-18.36,2.04-.14,1.57,4.63,2.32,8.35,2.32,4.44,0,10.01-2.67,10.01-4.36Zm-9.56,10.7c2.64-.17,4.33-1.82,3.75-3.28-.16-.39-1.06-.54-2.17-.53-2.04,.02-4.82,.55-5.21,1.02-.56,.69,1.07,2.41,2.86,2.74,.26,.05,.51,.07,.77,.05Zm-14.21-6.76c1.15-3.34-1.41-10.15-5.1-14.71-1.9-2.35-4.11-4.1-6.26-4.47-3.37-.58-7.41,3.05-9.5,7.51-1.42,3.01-1.94,6.4-.77,9.11,1.47,3.37,6.46,5.24,11.3,5.64,.01,.01,.02,.01,.03,.01,4.81,.39,9.45-.65,10.3-3.09Zm-14.59,11.03c0-1.63-2.49-2.95-5.55-2.95s-5.55,1.32-5.55,2.95,2.48,2.94,5.55,2.94,5.55-1.31,5.55-2.94Z"/><path class="y" d="M215.01,312.18c-.41,3.12-1.51,7.67-4.42,10.92-.33,.38-.68,.74-1.04,1.08-1-1.24-1.99-2.42-2.97-3.49h0c-3.41-3.81-6.55-6.37-9.38-6.37l-.02-.66c6.84-.17,13.27-.66,17.83-1.48Z"/><path class="ab" d="M214.2,230.04c-.21,.88-.47,1.73-.78,2.56h0c-.92,.8-2.42,1.42-4.17,1.63-3.04,.37-5.66-.64-5.86-2.25s2.11-3.22,5.15-3.59c2.65-.32,4.98,.39,5.66,1.65Z"/><path class="y" d="M155.1,305.68c3.19,.15,6.73,.26,10.63,.33,.73,.01,1.47,.02,2.23,.03,2.32,.03,4.76,.05,7.32,.05,2.07,0,4.06-.01,5.97-.03,1.25-.01,2.46-.03,3.64-.05,1.25-.02,2.46-.05,3.63-.08,.72-.02,1.42-.04,2.11-.06,1.16-.04,2.27-.08,3.35-.13,.2,0,.39,0,.58-.03,.18,0,.36-.01,.54-.02,5.12-.24,9.38-.58,12.93-1.01,1.87-.22,3.53-.47,5.02-.75h.01c1.31,1.47,1.57,5.42-.09,6.61-7.41,1.35-19.14,2.14-37.68,2.14-1.23,0-2.42,0-3.59-.02-6.34-.03-11.81-.16-16.55-.39-18.05-.86-25.35-3.02-28.29-5.91-2-1.95-2-4.25-2-6.7v-.68c0-.35,0-.7,.02-1.04,.01-.54,.05-1.06,.14-1.58h.02c.22,1.11,.65,2.15,1.54,3.13,.02,.03,.05,.06,.08,.1,2.04,2.16,6.38,3.92,15.62,5.05,2.85,.36,6.16,.65,10.02,.88h0c.9,.06,1.83,.11,2.8,.16Z"/><path class="k" d="M212.29,181.28l.06,.85c-1.9,.12-3.82,.27-5.76,.44h0s-.04-.06-.05-.09c-4.98-8.76-24.04-19.85-38.84-19.85,6.91-.88,13.88-.35,20.36,1.5h0c3.55,2.01,6.16,3.56,8.7,5.04,.64,.68,1.46,1.17,2.47,1.44h.01c2.16,1.25,4.46,2.54,7.41,4.09,.01-.02,.03-.03,.04-.04,2.07,1.98,3.95,4.19,5.6,6.62Z"/><path class="w" d="M183.06,334.33c.51-.07,2.21-.21,4.59-.6,.05,.21,.13,.41,.24,.6,.38,.72,1.05,1.38,1.95,1.96,4.62,2.98,15.16,3.8,21.62,.14h0c.65,3.93-.05,10.31-.48,14.44-1.68,15.98-3.73,34.15-6.33,44.95-1.97,.61-3.6,1.08-5.05,1.41,1.41-4.56,2.51-10.31,3.36-16.51,.17-.27,.27-.57,.27-.87,0-.17-.03-.33-.09-.49,1.66-12.61,2.32-26.83,2.46-36.63h0c-16.17-.01-15.27-2.77-18.32-4.12-2.84-1.25-17.68-2.05-24-2.61,.47-.49,.79-1.02,.94-1.58,.01-.01,.01-.02,.01-.03,.01-.02,.01-.05,.02-.07,3.37,.22,7.03,.16,11.04,.16,2.01,0,3.93-.03,5.78-.08,.7-.02,1.36-.04,1.99-.07Z"/><path class="a`" d="M210.32,284.75c-.52,.37-1.01,.72-1.49,1.06-1.81-4.7-4.97-12.1-6.78-15.57,2.88,3.6,6.35,10.24,8.27,14.51Z"/><path class="p" d="M208.88,290.88c.44,.52-.33,1.98-1.4,3.38h-.01c-.53,.7-1.15,1.39-1.72,1.93l-.02,.02c-.21,.01-.44,.02-.67,.04-.69,.02-.93,.54-.9,1.08-.03,.01-.06,.02-.09,.02-.05,0-.09,0-.12-.01-.91-.17-2.05-2.01-1.22-2.96,.12-.13,.32-.32,.58-.55h.01c1.5-1.29,4.93-3.69,5.56-2.95Z"/><path class="a`" d="M208.33,240.87c1.95,.54,3.93,1.16,5.91,1.84-6.13,6.16-15.35,10.78-25.48,13.24,6.64-2.85,14.34-8.73,19.57-15.08Z"/><path class="k" d="M199.2,284.38c-2.04,.96-5.34-2.25-6.02-4.69,.7-.33,1.2-1.05,1.2-1.88,0-.39-.11-.75-.29-1.07-.25-2.27,.27-8.47,.76-10.31l.02-.08c2.04,.39,3.97,.93,5.29,1.93,.58,.44,1.22,1.12,1.89,1.96,1.81,3.47,4.97,10.87,6.78,15.57-.43,.29-.85,.57-1.24,.83-.16,.11-.32,.21-.48,.31-.36,.22-.7,.43-1.01,.61-1.06-.11-2.19-.22-3.37-.31-.06-.2-.1-.42-.12-.65-.02-.06-.02-.13-.03-.2-.06-.65-.05-1.34-.18-1.87-.12-.53-.37-.9-.94-.9-.46,0-1.15,.87-1.82,2.18-.15-.48-.29-.95-.44-1.43Z"/><path class="p" d="M207.88,296.73c.11,.45-1.18,1.16-2.81,1.76-.49,.13-.89-.5-.91-1.13v-.03c.36-.09,.94-.52,1.57-1.12,.04-.01,.07-.01,.11-.01,1.13-.02,1.96,.18,2.04,.53Z"/><path class="j" d="M207.71,303.69c.12,.32,.23,.66,.32,.99-3.55,.43-7.81,.77-12.93,1.01-.18,.01-.36,.02-.54,.02,5.8-2,11.08-4.54,9.82-7.52,.04,.04,.08,.09,.12,.13,.96,1.11,1.79,2.32,2.43,3.6,.3,.58,.56,1.17,.78,1.77Z"/><path class="k" d="M206.58,320.69c5.92,12.58-4.94,17.14-16.74,15.6-.9-.58-1.57-1.24-1.95-1.96-.11-.19-.19-.39-.24-.6-.02-.04-.03-.09-.04-.13-2.21-5.06,2.92-18.27,8.87-19.22,.24-.04,.48-.06,.72-.06,2.83,0,5.97,2.56,9.38,6.36h0Z"/><path class="h" d="M205.74,211.01c1.37,2.76,1.95,5.84,1.02,8.43-1.25,3.46-6.13,5.65-10.94,6.36h0c7.79-2.21,5.45-10.73,1.2-15.3,3.06-.75,6.19-.58,8.72,.51Z"/><path class="y" d="M138.45,176.98c2.89-1.78,4.94-3.07,6.72-4.23,.83-.54,1.6-1.05,2.37-1.57,2.26-1.51,4.56-3.08,8.34-5.6,.02-.01,.03-.02,.05-.03,3.84-1.45,7.8-2.42,11.77-2.92,14.8,0,33.86,11.09,38.84,19.85,.01,.03,.03,.05,.05,.08h0c-26.24,2.21-56.1,7.58-81.06,13.95l-.11-.44c3.22-7.83,7.65-14.23,12.85-19.28,.07,.07,.13,.13,.18,.19Z"/><path class="p" d="M205.06,296.25c.23-.02,.46-.03,.67-.04-.63,.6-1.21,1.03-1.57,1.12-.03-.54,.21-1.06,.9-1.08Z"/><path class="m" d="M205.6,342.72h0c-.14,9.81-.8,24.03-2.46,36.64-.48-1.4-2.99-2.46-6-2.46-3.37,0-6.1,1.32-6.1,2.95s2.73,2.95,6.1,2.95c2.73,0,5.04-.87,5.82-2.08-.85,6.2-1.95,11.95-3.36,16.51-4.65,1.1-7.43,.91-13.67,.25-.81-10.89-.51-29.01-3.21-30.41-.91-.47-1.96-.76-3.06-.9h-.01c-3.05-.44-6.45,.13-8.15,.64-1.53,.06-6.21,0-6.21,1.33,.05,6.54,.7,20.22-.73,29.65-4.82,.36-7.66,.04-14.14-1.97-1.73-7.48-4.25-20.57-9.18-43.88-.82-3.88-1.28-10.1-.61-14.65,.68,.37,1.4,.68,2.15,.95,7.21,2.63,17.28,1.13,20.49-2.24h.01c6.32,.56,21.16,1.36,24,2.61,3.05,1.35,2.15,4.11,18.32,4.11Zm-41.57,38.25c0-1.63-2.63-2.95-5.86-2.95s-5.86,1.32-5.86,2.95,2.62,2.95,5.86,2.95,5.86-1.32,5.86-2.95Z"/><path class="u" d="M204.38,298.19c1.26,2.98-4.02,5.52-9.82,7.52-.19,.02-.38,.02-.58,.03-2.27-3-5.75-5.09-9.92-6.99,.48-.62,.99-1.22,1.49-1.76h.01c1.58-1.72,3.16-2.98,4.67-3.57h.02c.18-.08,.36-.14,.54-.19,.12-.03,.23-.07,.35-.09l.24-.06c1.12-.27,2.24-.32,3.34-.22,.86,.07,1.71,.25,2.53,.52h.02l.09,.03h0c.09,.03,.19,.06,.28,.09,.32,.11,.64,.24,.96,.37,1.9,.84,3.66,2.1,5.16,3.65,.21,.21,.41,.43,.61,.66h0Z"/><path class="p" d="M203.97,288.35c.34,.03,.85-.13,1.48-.44-1.15,.62-2.63,1.99-3.24,1.61-.58-.35,.39-1.83,.39-2.92h.01c.02,.23,.06,.45,.12,.65v.02h.01c.16,.59,.5,1.03,1.23,1.08Z"/><path class="w" d="M203.14,379.36c.06,.16,.09,.32,.09,.49,0,.3-.1,.6-.27,.87,.06-.45,.13-.9,.18-1.36Z"/><path class="k" d="M208.33,240.87c-5.23,6.35-12.93,12.23-19.57,15.08t-.02,.01c-1.47,.35-2.96,.66-4.47,.92-3.85,.68-7.77,1.04-11.67,1.06-2.38-5.29-5.3-11.83-7.67-12.12,0,0,0-.02-.01-.03l.54-1.77c2.2,.43,4.61,.58,6.74,.37,2.92-.29,5.84-1.33,8.29-2.72,2.01-1.15,3.7-2.53,4.81-3.94,6.43-.43,14.53,.73,23.03,3.14Z"/><path class="w" d="M203.14,379.36c-.05,.46-.12,.91-.18,1.36-.78,1.21-3.09,2.08-5.82,2.08-3.37,0-6.1-1.32-6.1-2.95s2.73-2.95,6.1-2.95c3.01,0,5.52,1.06,6,2.46Z"/><path class="f" d="M205.74,211.01c-2.53-1.09-5.66-1.26-8.72-.51h-.01c-2.38-2.56-5.38-3.88-7.52-2.13,1.75-2.47,3.83-4.36,5.96-4.87,3.48-.83,8,2.91,10.29,7.51Z"/><path class="a`" d="M204.65,395.82c-1.25,5.25-2.65,8.76-4.19,9.43-2.75,1.21-5.04,2.01-7.37,1.95,2.68-.74,4.82-4.49,6.51-9.97,1.45-.33,3.08-.8,5.05-1.41Z"/><path class="m" d="M199.64,285.82h0c-.06,.11-.11,.19-.16,.3-.13,.27-.25,.56-.38,.86-.85-.05-1.74-.1-2.65-.15h-.01c-1.05-.05-2.14-.1-3.27-.15h-.01c-.07,0-.13,0-.2-.01-.11-.33-.23-.66-.36-.98-.22-.59-.46-1.16-.71-1.71v-.02c-.81-1.8-1.74-3.37-2.78-4.63-.43-.52-.87-.98-1.34-1.38l-.02-.02c.85,.03,1.67,.08,2.46,.13h.02c.12,1.02,1.01,1.83,2.07,1.83,.31,0,.61-.07,.88-.2,.68,2.44,3.98,5.65,6.02,4.69,.15,.48,.29,.95,.44,1.43h0Z"/><path class="k" d="M199.1,286.98s-.01,0-.01,.02c-.79,1.89-1.43,4.3-1.44,6.4h-.07c-.1-.01-.2-.01-.31-.02h-.02c-.82-.27-1.67-.45-2.53-.52-.48-2.18-1.06-4.26-1.75-6.17t-.01-.02c.07,.01,.13,.01,.2,.01h.01c1.13,.05,2.22,.1,3.27,.15h.01c.91,.05,1.8,.1,2.65,.15Z"/><path class="a`" d="M198.35,138.47l.16,.05c-2.31,9.11-6.83,25.42-1.75,30.65-2.54-1.48-5.15-3.03-8.7-5.03h0c3.38-6.37,7.02-15.22,10.29-25.67Z"/><path class="y" d="M197.18,313.66l.02,.66c-.24,0-.48,.02-.72,.06-5.95,.95-11.08,14.16-8.87,19.22,0,.04,.02,.09,.04,.13-2.38,.39-4.08,.53-4.59,.6-.63,.03-1.29,.05-1.99,.07-1.85,.05-3.77,.08-5.78,.08-4.01,0-7.67,.06-11.04-.16,1.63-3.74-.74-11.93-4.51-16.33-.64-.75-1.32-1.4-2.03-1.88h0c-.75-.52-1.53-.87-2.33-1-.12-.02-.24-.03-.37-.05l.14-2.79c4.74,.23,10.21,.36,16.55,.39,7.07,.9,16.62,1.23,25.48,1Z"/><path class="n" d="M197.02,210.5c4.25,4.57,6.59,13.09-1.2,15.29h0c-4.78,.71-9.48-.04-10.48-2.42-.06-.14-.11-.28-.14-.43l.05-.02c.9-5.27,4.11-8.95,7.99-10.99,.15,.27,.44,.44,.77,.44,.51,0,.93-.41,.93-.93,0-.09-.01-.18-.04-.27,.7-.28,1.4-.5,2.11-.67h.01Z"/><path class="i" d="M197.01,210.5c-.71,.17-1.41,.39-2.11,.67-.12-.38-.47-.65-.89-.65-.51,0-.92,.41-.92,.92,0,.18,.05,.35,.15,.49-3.88,2.04-7.09,5.72-7.99,10.99l-.05,.02c-1.04-3.4,1.04-9.98,4.29-14.57,2.14-1.75,5.14-.43,7.52,2.13Z"/><path class="h" d="M194.9,211.17c.03,.09,.04,.18,.04,.27,0,.52-.42,.93-.93,.93-.33,0-.62-.17-.77-.44,.54-.29,1.1-.54,1.66-.76Z"/><path class="m" d="M194.87,266.35l-.02,.08c-.49,1.84-1.01,8.04-.76,10.31-.37-.61-1.04-1.02-1.79-1.02-.58,0-1.11,.24-1.49,.62-.22-2.01,.09-8.37,.67-10.45l.02-.12c1.09,.18,2.25,.36,3.37,.58Z"/><path class="j" d="M194.72,292.86c-1.1-.1-2.22-.05-3.34,.22l-.03-.13c-.42-1.29-1.37-6.89-5.44-12.67-2.07-2.95-6.58-3.83-10.26-4.13l-.02-.06c1.66-.42,3.37-.61,5.01-.56,.37,.01,.74,.04,1.11,.08,1.56,.17,3.05,.57,4.35,1.22,.57,.28,1.12,.66,1.64,1.1h.01l.02,.02c.47,.4,.91,.86,1.34,1.38,1.04,1.26,1.97,2.83,2.78,4.63v.02c.25,.55,.49,1.12,.71,1.71,.13,.32,.25,.65,.36,.98t.01,.02c.69,1.91,1.27,3.99,1.75,6.17Z"/><path class="h" d="M194.01,210.52c.42,0,.77,.27,.89,.65-.56,.22-1.12,.47-1.66,.76-.1-.14-.15-.31-.15-.49,0-.51,.41-.92,.92-.92Z"/><path class="q" d="M194.09,276.74c.18,.32,.29,.68,.29,1.07,0,.83-.5,1.55-1.2,1.88-.27,.13-.57,.2-.88,.2-1.06,0-1.95-.81-2.07-1.83-.01-.08-.02-.17-.02-.25,0-.56,.23-1.08,.6-1.46h0c.38-.39,.91-.63,1.49-.63,.75,0,1.42,.41,1.79,1.02Z"/><path class="k" d="M185.93,397.48c6.24,.66,9.02,.85,13.67-.25-1.69,5.48-3.83,9.23-6.51,9.97h-.01c-1.7-.03-3.44-.53-5.41-1.65-.93-.53-1.42-3.73-1.74-8.07Z"/><path class="u" d="M193.98,305.74c-1.08,.05-2.19,.09-3.35,.13-.69,.02-1.39,.04-2.11,.06-.47-.44-.95-.87-1.43-1.3-.56-.5-1.12-1-1.69-1.48-.94-.82-1.9-1.61-2.86-2.38,.38-.54,.76-1.05,1.14-1.54,.12-.16,.25-.32,.38-.48,4.17,1.9,7.65,3.99,9.92,6.99Z"/><path class="k" d="M191.5,265.77l-.02,.12c-.58,2.08-.89,8.44-.67,10.45h0c-.37,.39-.6,.91-.6,1.47,0,.08,.01,.17,.02,.25h-.02c-.79-.05-1.61-.1-2.46-.13h-.01c-.52-.44-1.07-.82-1.64-1.1-1.3-.65-2.79-1.05-4.35-1.22,1.79-6.68,.29-13.54-1.22-14.01-.22-.07-.42-.1-.61-.1l-.11-.87c1.4-.17,2.94-.44,4.81-.8h.01c.25,1.05,.63,2.14,1.12,3.39,.61,1.53,2.99,2.08,5.75,2.55Z"/><path class="u" d="M167.62,280.66c.17-.18,.34-.36,.52-.54h.01c.82-.81,1.75-1.51,2.76-2.11h.01c1.44-.87,3.05-1.51,4.71-1.92l.02,.06c3.68,.3,8.19,1.18,10.26,4.13,4.07,5.78,5.02,11.38,5.44,12.67l.03,.13-.24,.06c-.12,.02-.23,.06-.35,.09-.18,.05-.36,.11-.54,.19h-.02c-1.51,.59-3.09,1.85-4.67,3.57h-.01c-.5,.54-1.01,1.14-1.49,1.76-.13,.16-.26,.32-.38,.48-.38,.49-.76,1-1.14,1.54-2.37-1.87-4.73-3.57-6.97-4.88-.41-.24-.82-.47-1.22-.68-1.68-.91-3.28-1.59-4.72-1.96-.28-.08-.54-.14-.81-.18-.28-.05-.55-.09-.82-.12h-.09c-.1-.01-.21-.02-.31-.03h-.05c-.33-.02-.64-.01-.95,.02h-.01s-.09,.02-.13,.03h-.02c-.11,.01-.21,.02-.32,.04,0-.01,0-.03,0-.04h-.01s-.01-.01-.01-.02c-.13-.35-.26-.69-.38-1.02-.51-1.43-.83-2.76-.92-3.96-.03-.52-.03-1.02,.03-1.48v-.02c.01-.11,.03-.22,.05-.32,.04-.21,.08-.42,.12-.62,.45-1.86,1.37-3.49,2.63-4.87Z"/><path class="aa" d="M190.07,195.84c.07,.52-.68,1.2-1.72,1.82-1.7-.04-3.43-.06-5.17-.06,.39-1.02,1.4-2.25,2.88-2.7,1.76-.54,3.9,.13,4.01,.94Z"/><path class="j" d="M187.09,304.63c.48,.43,.96,.86,1.43,1.3-1.17,.03-2.38,.06-3.63,.08-1.18,.02-2.39,.04-3.64,.05,.05-.08,.07-.15,.1-.23,.72-2.43-3.3-6.32-8.17-9.14,.32-.38,.65-.76,.99-1.15l.18-.33c.4,.21,.81,.44,1.22,.68,2.24,1.31,4.6,3.01,6.97,4.88,.96,.77,1.92,1.56,2.86,2.38,.57,.48,1.13,.98,1.69,1.48Z"/><path class="f" d="M185.83,232.3c1.42,1.47,1.01,3.47-.53,5.43-1.11,1.41-2.8,2.79-4.81,3.94,.28-1.16-1.41-6.95-2.39-8.63,2.87-1.85,5.35-3.19,7.73-.74Z"/><path class="a`" d="M184.63,259.83h-.01c-1.87,.36-3.41,.63-4.81,.8-2.03,.27-3.78,.36-5.85,.29-.42-.9-.88-1.9-1.35-2.96,0-.01-.01-.01-.01-.02,3.9-.02,7.82-.38,11.67-1.06v.03c0,1,.12,1.94,.36,2.92Z"/><path class="l" d="M188.35,197.66c-1.87,1.1-4.68,1.98-5.24,1.28-.2-.25-.17-.76,.07-1.34,1.74,0,3.47,.02,5.17,.06Z"/><path class="p" d="M180.53,261.6c1.51,.47,3.01,7.33,1.22,14.01-.37-.04-.74-.07-1.11-.08v-.23c.64-3.42,.49-9.35-1.09-10.14-1.2-.59-2.56,1.19-4.2,1.22-2.43,.05-2.59-6.33-10.42-20.56,2.37,.29,5.29,6.83,7.67,12.12,0,.01,.01,.01,.01,.02,.47,1.06,.93,2.06,1.35,2.96,.98,2.06,1.8,3.54,2.35,3.71,1.78,.55,1.63-3.13,3.61-3.13,.19,0,.39,.03,.61,.1Z"/><path class="u" d="M173.18,296.69c4.87,2.82,8.89,6.71,8.17,9.14-.03,.08-.05,.15-.1,.23-1.91,.02-3.9,.03-5.97,.03-2.56,0-5-.02-7.32-.05,.75-3.27,2.67-6.29,5.22-9.35Z"/><path class="r" d="M179.55,265.16c1.58,.79,1.73,6.72,1.1,10.14v.23c-1.65-.05-3.36,.14-5.02,.56-1.66,.41-3.27,1.05-4.71,1.92h-.01c-1.01,.6-1.94,1.3-2.76,2.1h-.01c-.18,.19-.35,.37-.52,.55-.98-.32-1.96-1.09-2.87-2.06-.67-.72-1.3-1.54-1.84-2.35h-.01c-1.25-1.86-2.04-3.64-1.9-3.93,.54-1.08,1.91-.15,3.19,.31h.01c.07,.02,.14,.05,.21,.06,.94,.55,2.06,1.54,2.55,1.2,.61-.42-.23-2.26-.3-3.57h-.07c-.02-1.17-.23-2.74-.51-4.52v-.03c-.39-2.47-.95-5.36-1.45-8.15v-.02c-1.02-5.64-1.8-10.91-.5-11.63,.26-.14,.52-.19,.8-.15,7.83,14.23,7.99,20.61,10.42,20.56,1.64-.03,3-1.81,4.2-1.22Zm-3.36,9.36c-.15-1.74-.5-3.17-.96-3.18-.36-.01-.76,.72-1.04,1.8-1.26-2.15-3.42-4.79-4.31-4.38-1.04,.48,1.1,5.84,1.77,6.85,.69,1.05,3.02,.83,3.42,0,.05-.1,.05-.26,.01-.47,.56,.04,1.11-.18,1.11-.62Z"/><path class="f" d="M178.1,233.04c.98,1.68,2.67,7.47,2.39,8.63-2.45,1.39-5.37,2.43-8.29,2.72,.28-1.15-.36-6.05-1.33-7.73,2.71-.57,5.08-2.24,7.23-3.62Z"/><path class="k" d="M179.81,260.63l.11,.87c-1.98,0-1.83,3.68-3.61,3.13-.55-.17-1.37-1.65-2.35-3.71,2.07,.07,3.82-.02,5.85-.29Z"/><path class="p" d="M175.23,271.34c.46,.01,.81,1.44,.96,3.18,0,.44-.55,.66-1.11,.62-.1-.47-.43-1.2-.89-1.99h0c.28-1.09,.68-1.82,1.04-1.81Z"/><path class="a`" d="M160.49,222.13c.19-2.1,18.34-4.2,18.36-2.04,0,1.69-5.57,4.36-10.01,4.36-3.72,0-8.49-.75-8.35-2.32Z"/><path class="p" d="M175.08,275.14c.04,.21,.04,.37-.01,.47-.4,.83-2.73,1.05-3.42,0-.67-1.01-2.81-6.37-1.77-6.85,.89-.41,3.05,2.23,4.31,4.38h0c-.07,.26-.12,.52-.17,.8-.18,.77,.44,1.15,1.06,1.2Z"/><path class="j" d="M174.35,295.21l-.18,.33c-.34,.39-.67,.77-.99,1.15-.02-.01-.03-.02-.05-.03-2.83-1.64-5.94-2.9-8.57-3.3,.5-.16,1.02-.27,1.56-.35,.11-.02,.21-.03,.32-.04h.02s.09-.02,.13-.03h.01c.31-.03,.62-.04,.95-.02h.05c.1,.01,.21,.02,.31,.03h.09c.27,.03,.54,.07,.82,.12,.27,.04,.53,.1,.81,.18,1.44,.37,3.04,1.05,4.72,1.96Z"/><path class="p" d="M174.19,273.15c.46,.79,.79,1.52,.89,1.99-.62-.05-1.24-.43-1.06-1.2,.05-.28,.1-.54,.17-.79Z"/><path class="u" d="M173.13,296.66s.03,.02,.05,.03c-2.55,3.06-4.47,6.08-5.22,9.35-.76-.01-1.5-.02-2.23-.03-3.9-.07-7.44-.18-10.63-.33,.56-3.29,2.05-6.57,4.31-8.99,.3-.32,.61-.63,.94-.92,1.11-.98,2.37-1.75,3.76-2.25t.02-.01c.12-.05,.24-.09,.36-.13,.01,0,.02-.01,.03-.01s.03-.01,.04-.01c2.63,.4,5.74,1.66,8.57,3.3Z"/><path class="v" d="M173.04,227.51c.58,1.46-1.11,3.11-3.75,3.28-.26,.02-.51,0-.77-.05,2.49-.11,2.79-2.92,2.35-3.76,1.11-.01,2.01,.14,2.17,.53Z"/><path class="h" d="M170.87,236.66c.97,1.68,1.61,6.58,1.33,7.73-2.13,.21-4.54,.06-6.74-.37-.6-.12-1.18-.25-1.74-.41,.28-1.15,.44-5.4-.53-7.09,1.81,.06,3.91,.4,6.05,.34,.56-.02,1.1-.09,1.63-.2Z"/><path class="g" d="M170.87,226.98c.44,.84,.14,3.65-2.35,3.76-1.79-.33-3.42-2.05-2.86-2.74,.39-.47,3.17-1,5.21-1.02Z"/><path class="w" d="M171.5,366.81c-.79,.23-1.32,1.4-1.68,3.2-1.18,5.89-.44,18.58-.58,27.33-1.8,.19-3.32,.35-4.68,.45,1.43-9.43,.78-23.11,.73-29.65,0-1.33,4.68-1.27,6.21-1.33Z"/><path class="a`" d="M169.24,397.34c-.07,4.88-.42,8.53-1.52,9.12-2.77,1.5-5.63,1.65-8.17,1.21,2.69-.47,4.19-4.48,5.01-9.88,1.36-.1,2.88-.26,4.68-.45Z"/><path class="p" d="M166.66,270.32c.07,1.31,.91,3.15,.3,3.57-.49,.34-1.61-.65-2.55-1.2,.77,.24,1.48,.25,1.94-.52,.2-.34,.27-.98,.24-1.85h.07Z"/><path class="k" d="M166.59,270.32c.03,.87-.04,1.51-.24,1.85-.46,.77-1.17,.76-1.94,.52-.08-.04-.15-.08-.22-.12-.1-2.37-.35-4.97-.68-6.17,.96-.17,1.84-.36,2.57-.63v.03c.28,1.78,.49,3.35,.51,4.52Z"/><path class="k" d="M164.56,293.36s-.03,.01-.04,.01-.02,.01-.03,.01c-.12,.04-.24,.08-.36,.13t-.02,.01c-1.39,.5-2.65,1.27-3.76,2.25-.36-.88-.87-1.77-1.44-2.62,0-.01-.01-.01-.01-.02,1.15-.04,2.33-.07,3.56-.1,.35-.01,.7-.02,1.07-.03,.83-.02,1.68-.03,2.56-.05,0,.01,.01,.01,.01,.02h.01s0,.03,0,.04c-.54,.08-1.06,.19-1.56,.35Z"/><path class="y" d="M165.71,291.93c.12,.33,.25,.67,.38,1.02-.88,.02-1.73,.03-2.56,.05-.37,.01-.72,.02-1.07,.03-1.23,.03-2.41,.06-3.56,.1-1.9-2.78-4.58-5.09-5.61-5.09l-.07-1.16,.54-.03c.16-.01,.32-.02,.48-.02,.93-.05,1.89-.09,2.89-.13,1.85-.08,3.81-.14,5.88-.19,.59-.01,1.2-.03,1.81-.04v.02c-.06,.46-.06,.96-.03,1.48,.09,1.2,.41,2.53,.92,3.96Z"/><path class="m" d="M167.62,280.66c-1.26,1.38-2.18,3.01-2.63,4.87-.04,.2-.08,.41-.12,.62-.02,.1-.04,.21-.05,.32-.61,.01-1.22,.03-1.81,.04-2.07,.05-4.03,.11-5.88,.19v-.08c-.04-.54-.1-1.16-.18-1.83,2.02-.75,4.31-2.87,4.8-4.61,.28,.14,.6,.22,.94,.22,1.05,0,1.92-.78,2.06-1.8,.91,.97,1.89,1.74,2.87,2.06Z"/><path class="a`" d="M159.74,317.99c3.77,4.4,6.14,12.59,4.51,16.33-.01,.02-.01,.05-.02,.07,0,.01,0,.02-.01,.03-.15,.56-.47,1.09-.94,1.58h-.01c-3.21,3.37-13.28,4.87-20.49,2.24,10.16,.4,16.69-2.26,17.06-10.64,1.36-2.53,.69-6.21-.23-9.49l.13-.12Z"/><path class="m" d="M164.19,272.57v.06c-1.28-.46-2.65-1.39-3.19-.31-.14,.29,.65,2.07,1.9,3.93-.07-.01-.14-.01-.21-.01-.76,0-1.43,.41-1.79,1.01,.25-2.27-.27-8.47-.77-10.3,1.16-.2,2.32-.36,3.38-.55,.33,1.2,.58,3.8,.68,6.17Z"/><path class="h" d="M163.19,236.52c.97,1.69,.81,5.94,.53,7.09-3.93-1.1-6.67-3.14-4.97-5.57,.95-1.36,2.53-1.6,4.44-1.52Z"/><path class="q" d="M161.75,280.18c-.67-.34-1.14-1.05-1.14-1.86,0-.39,.11-.76,.29-1.07,.36-.6,1.03-1.01,1.79-1.01,.07,0,.14,0,.21,.01h.01c.54,.81,1.17,1.63,1.84,2.35-.14,1.02-1.01,1.8-2.06,1.8-.34,0-.66-.08-.94-.22Z"/><ellipse class="w" cx="158.17" cy="380.97" rx="5.86" ry="2.95"/><path class="k" d="M150.42,395.82c6.48,2.01,9.32,2.33,14.14,1.97-.82,5.4-2.32,9.41-5.01,9.88-1.61-.27-3.1-.78-4.35-1.34-2-.89-2.94-2.54-4.78-10.51Z"/><path class="k" d="M160.13,266.95c.5,1.83,1.02,8.03,.77,10.3-.18,.31-.29,.68-.29,1.07,0,.81,.47,1.52,1.14,1.86-.49,1.74-2.78,3.86-4.8,4.61-.24-2.12-.59-4.68-.72-6.4-.23,1.75-.87,4.16-1.49,6.51-.17,.65-.34,1.3-.5,1.93-.16,0-.32,.01-.48,.02l-.54,.03c-5.2,.29-9.45,.7-12.91,1.19,1.15-2.7,9.37-16.14,12.99-18.88,1.68-1.28,4.27-1.83,6.83-2.24Z"/><path class="a`" d="M159.61,318.11c.92,3.28,1.59,6.96,.23,9.49,.14-3.04-.53-6.83-2.13-11.49,.71,.48,1.39,1.13,2.03,1.88l-.13,.12Z"/><path class="k" d="M138.55,329.63c4.54-5.83,8.68-11.03,12.39-13.33h0c1.43-.89,2.78-1.34,4.07-1.24,.13,.02,.25,.03,.37,.05,.8,.13,1.58,.48,2.33,.99h0c1.6,4.67,2.27,8.46,2.13,11.5-.37,8.38-6.9,11.04-17.06,10.64-.75-.27-1.47-.58-2.15-.95-1.26-.69-2.38-1.53-3.28-2.56-1.74-1.73-2.25-4.68-2.26-6.96,.93,.58,1.97,1.13,3.13,1.63,.03,.02,.06,.04,.09,.04l.24,.19Z"/><path class="p" d="M160.35,295.77c-.33,.29-.64,.6-.94,.92h-.01s-.01-.04-.02-.06c-.96-2.85-3.27-5.61-4.38-5.17-1.25,.48-.31,2.79-1.3,4.09-1.32,1.73-8.79-2.53-21.32-5.78-1.39-.36-2.84-.71-4.36-1.03,1.25-.07,3.16,.23,5.39,.72h.01s.03,.01,.05,.01c.51,.11,1.03,.23,1.57,.36,1.8,.42,3.72,.93,5.62,1.42,2.92,.77,5.78,1.52,7.98,1.94h.01c.87,.17,1.63,.29,2.26,.34h.04s.08,.01,.11,.01c.59,.04,1.05,.02,1.36-.09,.03-.01,.05-.01,.07-.03,.02,0,.04-.01,.06-.02,2.21-1.09-1.31-4.57,.55-5.33,.05-.02,.12-.03,.19-.03,1.03,0,3.71,2.31,5.61,5.09,0,.01,.01,.01,.01,.02,.57,.85,1.08,1.74,1.44,2.62Z"/><path class="r" d="M159.4,296.68h.01c-2.26,2.43-3.75,5.71-4.31,9-.97-.05-1.9-.1-2.8-.15h0c-3.86-.24-7.17-.53-10.02-.89,.55-.26,1.14-.45,1.55-.73,1.08-.31,2.81-.26,2.84-.84,.05-.75-3.68-1.54-4.75-2.3l-.02,.04c-1.63-.98-3.9-2.17-6.21-3.43-.81-.44-1.62-.9-2.41-1.36-.01,0-.01-.01-.02-.01-1.17-.68-2.29-1.36-3.27-2.03-.95-.65-1.77-1.28-2.39-1.89l-.03-.03c-1.05-1.04-1.5-2-.98-2.8,.21-.32,.71-.48,1.43-.52,1.52,.32,2.97,.67,4.36,1.03,12.53,3.25,20,7.51,21.32,5.78,.99-1.3,.05-3.61,1.3-4.09,1.11-.44,3.42,2.32,4.38,5.17,.01,.02,.01,.03,.02,.05Zm-4.92,5.98c1.26,.04,2.43-1.98,1.98-2.79-.54-.98-8.32-1.2-8.59,.26-.21,1.13,5.4,2.49,6.61,2.53Z"/><path class="l" d="M158.61,198.21c.17,1.1-.04,2.11-.5,2.43-.85,.6-3.2-.66-4.72-2.14,1.71-.1,3.45-.19,5.22-.29Z"/><path class="aa" d="M157.65,195.98c.54,.65,.85,1.46,.96,2.23-1.77,.1-3.51,.19-5.22,.29-.54-.52-.97-1.07-1.19-1.57,1.81-.32,3.63-.64,5.45-.95Z"/><path class="w" d="M157.13,286.62v.08c-1,.04-1.96,.08-2.89,.13,.16-.63,.33-1.28,.5-1.93,.59,.28,1.38,.2,2.21-.11,.08,.67,.14,1.29,.18,1.83Z"/><path class="a`" d="M156.23,278.39c.13,1.72,.48,4.28,.72,6.4-.83,.31-1.62,.39-2.21,.11,.62-2.35,1.26-4.76,1.49-6.51Z"/><path class="p" d="M156.46,299.87c.45,.81-.72,2.83-1.98,2.79-1.21-.04-6.82-1.4-6.61-2.53,.27-1.46,8.05-1.24,8.59-.26Z"/><path class="a`" d="M155.93,165.55s-.03,.02-.05,.03c-3.78,2.52-6.08,4.09-8.34,5.6l-.07-.1c2.99-2.43-2.85-18.65-4.17-48.45-.3-6.81-1.7-21.59-6.11-31.89,3.6,7.24,6.66,16.94,8.05,28.61,2.41,20.23,6.29,35.98,10.69,46.2Z"/><path class="i" d="M149.98,209.32c3.69,4.56,6.25,11.37,5.1,14.71-.92-5.43-4.35-9.1-8.42-11.02-.03-.48-.43-.86-.92-.86-.23,0-.44,.09-.6,.23-.78-.27-1.58-.49-2.37-.64,2.19-2.59,5.01-3.99,7.21-2.42Z"/><path class="y" d="M155.15,312.27l-.14,2.79c-1.29-.1-2.64,.35-4.07,1.23h0c-3.71,2.31-7.85,7.51-12.39,13.34l-.24-.19s-.06-.02-.09-.04c-1.16-.5-2.2-1.05-3.13-1.63-8.28-5.13-8.28-12.79-8.28-21.36l.05-.05c2.94,2.89,10.24,5.05,28.29,5.91Z"/><path class="y" d="M153.22,286.88l.07,1.16c-.07,0-.14,.01-.19,.03-1.86,.76,1.66,4.24-.55,5.33-.02,0-.04,.02-.06,.02-.53,.04-1.03,.07-1.54,.11h-.04c-.63-.05-1.39-.17-2.26-.34h-.01c-2.2-.42-5.06-1.17-7.98-1.94-1.9-.49-3.82-1-5.62-1.42-.54-.13-1.06-.25-1.57-.36-.02,0-.03-.01-.05-.01,.73-.2,1.5-.4,2.36-.58,1.34-.29,2.84-.56,4.53-.81,3.46-.49,7.71-.9,12.91-1.19Z"/><path class="a`" d="M152.2,196.93c.22,.5,.65,1.05,1.19,1.57-6.13,.38-11.83,.83-16.7,1.3,5.05-.99,10.24-1.95,15.51-2.87Z"/><path class="f" d="M149.98,209.32c-2.2-1.57-5.02-.17-7.21,2.42-2.96-.59-5.96-.36-8.38,.7l-.17-.08c2.09-4.46,6.13-8.09,9.5-7.51,2.15,.37,4.36,2.12,6.26,4.47Z"/><path class="k" d="M147.47,171.08l.07,.1c-.77,.52-1.54,1.03-2.37,1.57-3.92-6.39-9.32-17.56-8.42-33.18,.54-9.18,.49-17.33-.09-25.01,0-.02-.01-.05-.01-.07-.4-5.29-1.04-10.36-1.92-15.4h-.01c-.51-5.1-6.43-20.58-14.38-22.35,.79-.42,1.56-.66,2.3-.69,4.05-.18,9.76,5.08,14.53,14.65,0,.01,.01,.02,.02,.04,4.41,10.3,5.81,25.08,6.11,31.89,1.32,29.8,7.16,46.02,4.17,48.45Z"/><path class="n" d="M155.08,224.03c-.85,2.44-5.49,3.48-10.3,3.09-.01,0-.02,0-.03-.01-7.99-1.74-6.05-10.59-1.98-15.37,.79,.15,1.59,.37,2.37,.64-.2,.17-.32,.42-.32,.7,0,.51,.41,.93,.92,.93s.93-.42,.93-.93c0-.02,0-.05-.01-.07,4.07,1.92,7.5,5.59,8.42,11.02Z"/><path class="p" d="M141.92,300.77c1.07,.76,4.8,1.55,4.75,2.3-.03,.58-1.76,.53-2.84,.84,.38-.27,.6-.6,.48-1.13-.11-.46-1.03-1.13-2.41-1.97l.02-.04Z"/><path class="h" d="M146.66,213.01s.01,.05,.01,.07c0,.51-.42,.93-.93,.93s-.92-.42-.92-.93c0-.28,.12-.53,.32-.7,.51,.19,1.02,.4,1.52,.63Z"/><path class="h" d="M145.74,212.15c.49,0,.89,.38,.92,.86-.5-.23-1.01-.44-1.52-.63,.16-.14,.37-.23,.6-.23Z"/><path class="k" d="M143.83,303.91c-.41,.28-1,.47-1.55,.73-9.24-1.13-13.58-2.89-15.62-5.05-.03-.04-.06-.07-.08-.1,.02-.03,.05-.06,.08-.1,1.04-1.09,2.66-2.09,5.2-2.95,.44-.15,.9-.29,1.4-.43,.01,0,.01,.01,.02,.01,.79,.46,1.6,.92,2.41,1.36,2.31,1.26,4.58,2.45,6.21,3.43,1.38,.84,2.3,1.51,2.41,1.97,.12,.53-.1,.86-.48,1.13Z"/><path class="h" d="M134.39,212.44c2.42-1.06,5.42-1.29,8.38-.7-4.07,4.78-6.01,13.63,1.98,15.37-4.84-.4-9.83-2.27-11.3-5.64-1.17-2.71-.65-6.1,.77-9.11l.17,.08Z"/><path class="ab" d="M134.94,232.11c3.06,0,5.55,1.32,5.55,2.95s-2.49,2.94-5.55,2.94-5.55-1.31-5.55-2.94,2.48-2.95,5.55-2.95Z"/><path class="v" d="M145.17,172.75c-1.78,1.16-3.83,2.45-6.72,4.23-.05-.06-.11-.12-.18-.19,1.31-2.62-2.01-13.68-2.93-16.9-3.07-10.81,1.95-31.95,1.32-45.33,.58,7.68,.63,15.83,.09,25.01-.9,15.62,4.5,26.79,8.42,33.18Z"/><path class="g" d="M135.34,159.89c.92,3.22,4.24,14.28,2.93,16.9-7.22-7.67-21.58-19.55-28.95-38.07-10.3-25.91,1.61-56.99,11.02-61.98,7.95,1.77,13.87,17.25,14.38,22.35h.01c.88,5.04,1.52,10.11,1.92,15.4,0,.02,.01,.05,.01,.07,.63,13.38-4.39,34.52-1.32,45.33Z"/><path class="y" d="M125.04,296.36h-.02c.14-.93,.44-1.83,1.01-2.68,.38-.56,.88-1.1,1.54-1.62l.03,.03c.62,.61,1.44,1.24,2.39,1.89,.98,.67,2.1,1.35,3.27,2.03-.5,.14-.96,.28-1.4,.43-2.54,.86-4.16,1.86-5.2,2.95-.03,.04-.06,.07-.08,.1-.89-.98-1.32-2.02-1.54-3.13Z"/><path class="k" d="M127.49,201.63c-2.53,7.67-4,15.68-4.93,23.05-.17,1.38-.23,2.72-.18,4.02h-.02c-26.64-.81-50.55-3.76-50.94-8.42-.03-.38,.09-.78,.38-1.2h.01c3.19-4.78,26.32-11.39,55.68-17.45Z"/></g></g><g id="d"><g id="e"/><path class="t" d="M211.43,336.21c.65,3.93-.03,10.45-.46,14.58-2.5,23.74-5.8,52.31-10.52,54.38-4.77,2.1-8.13,2.95-12.79,.3-3.26-1.87-1.17-36.52-4.95-38.48-.91-.47-1.96-.76-3.06-.9h-.01c-3.05-.44-6.45,.13-8.15,.64-.79,.23-1.32,1.4-1.68,3.2-1.83,9.17,.98,34.79-2.1,36.45-4.53,2.45-9.3,1.31-12.52-.13-3.88-1.73-3.77-6.29-13.96-54.39-.82-3.88-1.28-10.22-.61-14.77"/><path class="t" d="M164.21,334.07c3.37,.22,7.06,.33,11.07,.33,2.01,0,3.93-.03,5.78-.08,2.41-.07,4.68-.18,6.82-.34"/><path class="t" d="M225.71,299.59c0,7.19,0,13.02-50.43,13.02s-50.43-5.83-50.43-13.02"/><path class="t" d="M210.71,188.42c5.33,9.09,8.49,19.8,10.27,29.89,.27,1.51,.5,3,.71,4.47,1.07,7.56-1.95,14.33-7.46,19.86-9.31,9.36-25.76,15.17-41.68,15.23"/><path class="t" d="M164.6,257.53c-22.86-2.01-44.55-13-42.04-32.92,.93-7.37,2.4-15.38,4.93-23.05"/><path class="t" d="M188.05,164.06h0c5.39-10.17,11.46-26.68,15.63-45.9,5.8-26.71,19.55-41.95,26.61-40.96,9.47,1.34,21.09,36.75,7.3,63.66-8.47,16.53-22.59,26.78-30.91,33.72,0,.01-.03,.02-.04,.04"/><path class="t" d="M199.23,170.53c.26-.36,.53-.75,.8-1.14,4.37-6.46,9.67-16.74,10.17-30.29,.58-15.55,2.54-27.98,5.87-40.11"/><path class="t" d="M155.92,165.47c-4.4-10.22-8.28-25.97-10.69-46.2-3.24-27.13-15.48-43.62-22.6-43.3-9.55,.43-24.49,34.58-13.32,62.67,7.37,18.52,21.73,30.4,28.95,38.07,.07,.07,.13,.13,.18,.19"/><path class="t" d="M134.72,99.01c2.15,12.39,2.93,24.95,2.02,40.48-.9,15.62,4.5,26.79,8.42,33.18"/><path class="t" d="M185.34,223.3c-2.07-4.93,3.85-18.37,10.1-19.87,5.57-1.34,13.79,9.03,11.31,15.93-2.48,6.9-19.41,8.72-21.41,3.94Z"/><path class="t" d="M189.48,208.29c5.96-4.86,18.5,13.98,6.33,17.43"/><path class="t" d="M155.07,223.96c1.75-5.06-5.02-18.09-11.35-19.19-5.64-.98-13.18,9.89-10.27,16.62,2.91,6.73,19.93,7.46,21.62,2.56Z"/><path class="t" d="M149.97,209.24c-6.26-4.47-17.57,15.14-5.2,17.8"/><path class="t" d="M157.64,195.9c1.32,1.57,1.24,4.11,.46,4.66-1.15,.81-5.06-1.79-5.91-3.71"/><path class="t" d="M183.11,198.86c-.54-.68,.62-3.33,2.95-4.04,1.77-.54,3.91,.14,4.01,.95,.19,1.46-6.09,4.18-6.96,3.09Z"/><path class="t" d="M169.28,230.71c2.64-.16,4.33-1.82,3.75-3.28-.44-1.11-6.77-.25-7.37,.49-.65,.79,1.58,2.92,3.62,2.79Z"/><path class="t" d="M169.23,236.78c.3-2.22,.34-5.24,.11-6.06"/><path class="t" d="M122.93,221.83c-12.56-5.07-29.11-5.88-40.49-3.07"/><path class="t" d="M90.71,237.1c11.2-3.95,22.55-5.88,32.06-5.1"/><path class="t" d="M221.81,220.63c12.56-5.07,28.56-5.84,39.93-3.03"/><path class="t" d="M253.48,235.94c-11.2-3.95-22.55-5.88-32.06-5.1"/><path class="t" d="M140.31,288c1.15-2.71,9.36-16.14,12.98-18.88,1.69-1.27,4.29-1.83,6.84-2.25,1.17-.19,2.32-.35,3.38-.54,.95-.17,1.81-.36,2.54-.62"/><line class="t" x1="179.65" y1="366.09" x2="179.64" y2="366.09"/><path class="t" d="M184.27,256.84c0,2.07,.53,3.9,1.48,6.31,1.27,3.23,10.52,2.09,14.4,5.06,3.08,2.35,7.84,11.27,10.19,16.53"/><path class="t" d="M137.36,331.06c.32-.4,.63-.81,.94-1.2,4.63-5.95,8.85-11.3,12.63-13.64h0c1.56-.97,3.04-1.43,4.44-1.2,5.95,.95,11.08,14.15,8.87,19.22-.01,.02-.01,.05-.02,.07,0,0,0,.02-.01,.03-1.29,4.83-15.46,7.25-23.59,2.87-1.26-.68-2.38-1.53-3.28-2.56"/><path class="t" d="M137.36,330.62s-.01,.02-.02,.03"/><path class="t" d="M159.6,318.04c1.1,3.94,1.85,8.45-.84,10.85"/><path class="t" d="M150.93,316.57h0c.54,5.01,.12,8.14-1.68,11.28"/><path class="t" d="M126.8,306.33c0,8.57,0,16.23,8.28,21.36,.93,.58,1.97,1.13,3.13,1.63,.03,.02,.06,.04,.09,.04"/><path class="t" d="M213.62,328.72s.06-.03,.09-.04c1.14-.58,2.15-1.2,3.05-1.86,6.99-5.1,6.99-12.39,6.99-20.49"/><path class="t" d="M164.83,286.39c-.62,0-1.22,.03-1.82,.04-3.18,.08-6.1,.19-8.77,.33-.17,0-.33,.01-.49,.02-5.44,.29-9.86,.7-13.44,1.22-1.69,.24-3.19,.51-4.53,.8-.93,.2-1.78,.42-2.56,.64"/><path class="t" d="M124.86,299.31v-.4c0-.36,0-.71,.01-1.04,.05-1.52,.26-2.96,1.16-4.27,.37-.54,.86-1.06,1.49-1.56"/><path class="t" d="M206.24,287.49c-1.12-.11-2.3-.22-3.55-.32"/><path class="t" d="M217.9,289.59c.3,.1,.58,.19,.85,.28,6.96,2.38,6.96,5.73,6.96,9.44"/><path class="t" d="M192.92,286.6c.08,0,.16,.01,.24,.01,2.12,.09,4.11,.18,5.96,.31"/><path class="t" d="M197.64,293.33h-.07c-.22-.01-.45-.03-.68-.04h-.02"/><path class="t" d="M219.7,296.73c.07,.02,.13,.05,.19,.07,1.88,.76,3.15,1.6,4.01,2.51,.03,.03,.06,.07,.08,.1"/><path class="t" d="M166.05,292.87h-.01c-.43,.01-.84,.02-1.25,.03-.43,.01-.85,.02-1.27,.03-.36,0-.71,.01-1.06,.02-1.25,.04-2.46,.07-3.63,.11h-.01"/><path class="t" d="M126.57,299.42s.06-.07,.09-.1c1.03-1.1,2.66-2.09,5.2-2.95,.4-.14,.83-.27,1.28-.4h.01"/><path class="t" d="M150.37,293.49s0,0,0,0c.74-.05,1.51-.1,2.3-.15h.01"/><path class="t" d="M135.08,327.69c0,2.28,.52,4.98,2.26,6.71"/><path class="t" d="M214.37,329.72c.03,.05,.06,.09,.1,.14"/><path class="t" d="M214.49,330.37s-.01,0-.02-.03c-.29-.36-.57-.72-.85-1.08-6.58-8.45-12.31-15.72-17.15-14.95-5.95,.95-11.08,14.15-8.87,19.22,.06,.26,.15,.49,.28,.73,2.68,5.11,20.19,7.02,26.61-.32"/><path class="t" d="M192.24,317.36c-1.1,3.94-1.85,8.45,.84,10.85"/><path class="t" d="M200.91,315.9c-.54,5.01-.12,8.13,1.68,11.27"/><path class="t" d="M216.76,326.82c0,2.3-.5,5.06-2.27,6.82"/><path class="t" d="M154.23,286.75c.73-2.89,1.69-6.21,1.99-8.44"/><path class="t" d="M199.65,285.8c-.71-2.3-1.3-4.59-2.23-6.89"/><path class="t" d="M185.83,232.22c-4.51-4.64-9.39,4.34-16.59,4.56-4.39,.14-8.64-1.47-10.49,1.19-2.83,4.05,6.67,7.02,13.45,6.35,8.63-.85,17.33-8.28,13.63-12.09Z"/><path class="t" d="M170.86,236.58c.98,1.68,1.61,6.58,1.34,7.73"/><path class="t" d="M178.09,232.96c.98,1.68,2.67,7.48,2.4,8.63"/><path class="t" d="M163.18,236.44c.98,1.68,.81,5.95,.54,7.1"/><path class="t" d="M185.29,237.65c14.81-.98,38.49,6.46,55.41,18.11"/><path class="t" d="M222.47,245.95c-.79,2.96,.46,6.65,.88,6.68,.75,.06,1.43-3.35,2.22-3.26,.82,.09,.65,3.79,1.83,4.04,.93,.2,1.7-1.98,2.61-1.83,1.55,.26,1.41,7,2.22,7.04,.66,.04,1-4.47,2.09-4.57,1.53-.13,2.96,8.71,4.7,8.61,1.19-.07,.1-4.33,1.4-4.47,1.93-.21,4.41,8.72,6.82,8.27,1.59-.29-3.83-7.64-2.75-9.93,.52-1.1,6.26-1.79,6.26-2.35,0-.86-10.8-1.27-10.83-2.22-.02-.73,6.95-1.08,6.39-1.83-.96-1.29-12.23,.07-12.39-1.17-.12-.9,6.78-1.88,6-2.87-1.69-2.15-11.71,1.39-12.13-.13-.18-.65,1.98-1.22,1.57-2.09-.24-.5-6.21-.33-7.84,1.68"/><path class="t" d="M162.83,276.17s-.09-.01-.14-.01c-.77,0-1.44,.42-1.8,1.03h0c-.18,.32-.28,.67-.28,1.05,0,.81,.47,1.52,1.14,1.87,.28,.14,.6,.22,.94,.22,1.02,0,1.86-.73,2.05-1.71h0"/><path class="t" d="M160.13,266.87c.5,1.84,1.01,8.07,.76,10.33"/><path class="t" d="M164.2,272.65c-.11-2.42-.36-5.1-.69-6.32"/><circle class="t" cx="192.29" cy="277.73" r="2.08"/><path class="t" d="M194.85,266.36c-.5,1.84-1.01,8.07-.76,10.33"/><path class="t" d="M191.47,265.81c-.58,2.08-.89,8.46-.66,10.46"/><path class="t" d="M171.1,277.92s-.01-.01-.01,0"/><path class="t" d="M190.21,277.99c-.83-.06-1.7-.1-2.6-.14"/><path class="t" d="M193.17,279.61c.68,2.44,3.98,5.65,6.02,4.7"/><path class="t" d="M161.75,280.1c-.68,2.44-4.97,5.68-7.01,4.73"/><path class="t" d="M150.42,395.75c8.3,2.57,10.63,2.38,18.82,1.52"/><path class="t" d="M204.65,395.75c-8.3,2.57-10.53,2.52-18.73,1.66"/><path class="t" d="M122.36,228.62c-26.64-.8-50.55-3.75-50.94-8.41-1.14-13.6,195.72-46.31,197.6-29.74,.99,8.68-26.72,21.73-48.04,27.84"/><path class="t" d="M71.79,219.01c8.42-18.87,169.99-53.1,196.7-29.72"/><path class="t" d="M212.28,181.2c-1.65-2.43-3.53-4.64-5.6-6.62"/><path class="t" d="M188.05,164.05c-10.21-2.92-21.61-2.55-32.13,1.42-.02,.01-.03,.02-.05,.03"/><path class="t" d="M125.41,195.99c3.22-7.83,7.65-14.23,12.85-19.28"/><path class="t" d="M138.44,176.9c8.17-5.02,9.56-6.17,17.49-11.42"/><path class="t" d="M188.05,164.06c7.71,4.34,10.99,6.55,18.59,10.56"/><path class="t" d="M125.05,296.39h0c.21,1.12,.65,2.17,1.53,3.14,.02,.03,.05,.06,.08,.09,2.67,2.82,9.28,4.97,25.64,5.94h0c3.9,.24,8.35,.39,13.43,.48,2.96,.05,6.14,.08,9.55,.08s6.62-.03,9.6-.08c2.01-.03,3.92-.08,5.74-.14,1.56-.05,3.04-.11,4.47-.17,18.7-.86,25.98-3.11,28.81-6.12,.03-.03,.06-.06,.08-.09,.9-.97,1.32-2.04,1.53-3.15h0"/><path class="t" d="M208.03,304.72c-.1-.34-.21-.68-.33-1.01-.7-1.91-1.81-3.76-3.21-5.37-.24-.28-.48-.55-.73-.8-1.5-1.55-3.26-2.81-5.16-3.65-.32-.13-.64-.26-.96-.37-.09-.03-.19-.06-.28-.09,0,0,0-.01-.01,0-.86-.28-1.74-.48-2.64-.55"/><path class="t" d="M197.64,293.51v-.07c.01-2.1,.65-4.52,1.44-6.42,.13-.31,.26-.6,.39-.88,.05-.11,.1-.2,.16-.3h0c.67-1.32,1.36-2.19,1.82-2.19,.57,0,.82,.37,.94,.9,.13,.53,.12,1.22,.18,1.87,.03,.31,.07,.6,.15,.87h.01c.16,.59,.5,1.03,1.23,1.08,.45,.04,1.17-.25,2.09-.77h.01c.32-.19,.67-.4,1.04-.63,.16-.1,.32-.2,.48-.31,.83-.54,1.75-1.19,2.73-1.89,6.12-4.43,14.38-11.23,16.14-10.01,2.66,1.85-4.43,9.71-8.58,14.87-.02,.02-.03,.04-.05,.06-1.62,2.04-2.79,3.65-2.69,4.27,.33,2,4.16-.28,4.59,2.44,.02,.13,0,.28-.05,.44-.1,.32-.35,.7-.72,1.11-1.71,1.96-6.1,4.73-11.25,5.76"/><path class="t" d="M193.98,305.78c-2.26-3.01-5.75-5.11-9.93-7.01h0"/><path class="t" d="M157.57,316.2h-.01m-2.47-10.48c.62-3.74,2.47-7.46,5.25-9.93,1.11-.98,2.37-1.75,3.76-2.25t.02-.01c.12-.05,.24-.09,.36-.13,.01,0,.02-.01,.03-.01,.51-.16,1.05-.28,1.6-.36,.11-.02,.21-.03,.32-.04h.02s.1-.02,.14-.03c.42-.04,.85-.04,1.31,.01h.09c.27,.03,.54,.07,.82,.12,.27,.04,.53,.1,.81,.18,1.79,.46,3.81,1.39,5.94,2.64,2.24,1.31,4.6,3.01,6.97,4.88,.96,.77,1.92,1.56,2.86,2.38,.57,.48,1.13,.98,1.69,1.48,.48,.43,.96,.86,1.43,1.3l.02,.02"/><path class="t" d="M160.34,295.79c-.36-.88-.87-1.77-1.44-2.62-2.03-2.98-4.96-5.43-5.81-5.08-1.86,.76,1.66,4.24-.55,5.33-.04,.02-.08,.04-.13,.05-.31,.11-.77,.13-1.36,.09-.66-.04-1.47-.17-2.41-.35h-.01c-2.2-.42-5.06-1.17-7.98-1.94-1.9-.49-3.82-1-5.62-1.42-.54-.13-1.06-.25-1.57-.36-3.54-.78-6.3-1.09-6.88-.21-.53,.81-.06,1.78,1.01,2.83,.62,.61,1.44,1.24,2.39,1.89,.99,.67,2.11,1.36,3.29,2.04,.79,.46,1.6,.92,2.41,1.36,4.25,2.33,8.39,4.41,8.62,5.4,.25,1.11-1.01,1.38-2.07,1.88"/><path class="t" d="M188.53,305.97l-.02-.02c-.47-.44-.95-.87-1.43-1.3-.56-.5-1.12-1-1.69-1.48-.94-.82-1.9-1.61-2.86-2.38,.38-.54,.76-1.05,1.14-1.54,.12-.16,.25-.32,.38-.48,.48-.62,.99-1.22,1.49-1.76h0c1.58-1.72,3.16-2.98,4.67-3.57h0"/><path class="t" d="M190.23,293.43h.01c.18-.07,.36-.13,.54-.18,.12-.03,.23-.07,.35-.09,1.2-.32,2.4-.39,3.58-.28-.48-2.18-1.06-4.26-1.75-6.17-.12-.34-.24-.67-.37-1-.22-.59-.46-1.16-.71-1.71v-.02c-.81-1.8-1.74-3.37-2.78-4.63-.43-.52-.87-.98-1.34-1.38-.53-.45-1.09-.83-1.67-1.12-1.3-.65-2.79-1.05-4.35-1.22-4.71-.49-10.17,1.14-13.6,4.5h-.01c-1.52,1.49-2.64,3.31-3.15,5.42-.04,.2-.08,.41-.12,.62-.02,.11-.04,.22-.05,.34-.06,.46-.06,.96-.03,1.48,.09,1.2,.41,2.53,.92,3.96,.12,.34,.25,.68,.39,1.04h.01s0,.03,.01,.04"/><path class="t" d="M181.74,275.63c1.79-6.68,.29-13.54-1.22-14.01-2.63-.82-2.28,3.63-4.22,3.03-.79-.25-2.13-3.18-3.7-6.67-2.66-5.9-5.99-13.37-8.48-11.99-1.3,.72-.52,6,.5,11.65,.5,2.8,1.06,5.7,1.45,8.18,.5,3.11,.74,5.57,.27,6.37-.5,.84-1.3,.75-2.15,.46-1.28-.46-2.66-1.39-3.2-.31-.29,.58,3.25,7.27,6.63,8.33"/><path class="t" d="M168.81,293.09c3.82-2.83,7.58-4.65,11.78-4.47"/><path class="t" d="M164.12,293.53l-.02,.02"/><path class="t" d="M167.95,306.08c.83-3.69,3.16-7.06,6.21-10.52"/></g></svg>