<?xml version="1.0" encoding="UTF-8"?><svg xmlns="http://www.w3.org/2000/svg" viewBox="0 0 336.39 524.48"><defs><style>.e{fill:#ead0d0;}.f{fill:#fcb9b9;}.g{fill:#fff;}.h{fill:#ffead7;}.i{fill:#6b3d34;}.j{fill:#edccb7;}.k{fill:#eab5a7;}.l{fill:#7f4d40;}.m{fill:#a06858;}.n{fill:#bc7171;}.o{fill:#fc9;}.p{fill:#472b28;}.q{stroke-width:2px;}.q,.r{fill:none;stroke:#3f2a25;stroke-linecap:round;stroke-linejoin:round;}.s{fill:#eaa0a0;}.t{fill:#dba77b;}.u{fill:#b27967;}.v{fill:#d17e75;}.w{fill:#935d51;}.x{fill:#e08f82;}</style></defs><g id="a"><path class="q" d="M193.94,257.73c-5.04,1.96-10.48,3.41-16.04,4.26"/><path class="q" d="M163.15,262.85c-3.27-.1-6.54-.37-9.76-.8"/><path class="q" d="M153.39,262.04h0c-1.22,3.24-2.42,6.68-3.58,10.32"/><path class="q" d="M127.37,332.79h0c-4.98,6.16-9.92,9.22-13.39,8.73-10.49-1.47-23.36-40.69-8.09-70.48,.61-1.19,1.24-2.34,1.9-3.47"/><path class="q" d="M193.94,257.73c3.89,8.64,8.44,21.52,12.16,34.95"/><path class="q" d="M233.64,257.06c3.65,4.2,7.27,9.25,10.85,15.69,16.26,29.27,4.72,68.89-5.72,70.72-5.23,.92-14.08-6.19-21.58-19.88,0,0,0,0,0-.02"/><path class="q" d="M74.53,218.26h0c-2.25,.24-4.39,.58-6.42,1.03"/><path class="q" d="M104.68,220.7c-3.42-.95-6.98-1.65-10.58-2.13h0"/><path class="q" d="M265.27,218.32c-3.69-.91-7.86-1.48-12.28-1.68"/><path class="q" d="M233.78,233.31c7.17,.83,14.79,2.66,22.33,5.32"/><path class="q" d="M221.94,241c2.94-1.76,7.27-4.51,11.84-7.69,7.55-5.26,15.74-11.67,19.21-16.67,1.95-2.78,2.43-5.12,.56-6.58-19.92-15.56-28.31-33.65-34.17-40.95-16.96-21.13-66.84-37.46-97.83-4.05-11.4,12.29-18.84,36.28-16.66,55.27h0"/><path class="q" d="M221.94,241c2.74,1.6,5.53,3.61,7.67,5.68,2.86,2.77,3.9,6.68,4.03,10.38"/><path class="q" d="M127.37,332.79h0c-1.92,14.48-1.87,27.14,1.22,31.97,4.18,6.52,8.59,39.95,13.57,43.63,4.27,3.16,11.24,3.95,16.42,1.41,1.49-.73,4.53-20.1,3.78-37.58"/><path class="q" d="M163.13,262.77s.01,.05,.02,.08c.29,1.43,.94,5.38-.78,6.19-3.22,1.53-8.37,2.45-11.17,2.9-.46,.07-.93,.21-1.39,.42"/><path class="q" d="M217.19,323.59c.33,1.36,.6,2.66,.82,3.89,.36,2.03-1.02,3.98-3.42,5.84"/><path class="q" d="M206.1,292.68c-4.69-10-9.78-18.22-13.56-20.32-4.02-2.23-7.34-1.23-12.62-2.69-3.69-1.02-1.67-5-2.02-7.68,0-.03-.01-.06-.01-.09"/><path class="q" d="M162.36,372.22c3.03,.46,5.83,.87,9.34,1.93,3.46,1.04,.06,30.52,2.81,35.21,2.47,4.24,13.11,4.89,17.34,3.13,2.86-1.18,11.22-33.65,14.48-45,1.1-3.85,1.6-8.02,1.7-12.02"/><path class="q" d="M207.9,355.56c12.08-7.82,12.59-18.4,11.67-19.86-2.39-3.81-5.82,2.45-5.61,.49,.06-.54,.39-1.79,.69-3.12"/><path class="q" d="M104.89,220.33h0l-.21,.37c-.68,1.16-1.54,2.29-3.02,2.79-2.16,.74-4.82-1.54-7.56-4.92h0c-5.81-7.17-12-19.3-14.54-17.97-1.5,.79,5.65,8.75,3.91,10.57-2.5,2.62-19.25-10.57-20.74-8.81-1.18,1.41,8.54,10.85,11.8,15.9h0c.88,1.36,1.29,2.4,.91,2.89-.68,.87-3.72-.22-7.34-1.86-6.18-2.81-14.08-7.23-14.77-6.17-.65,1.01,5.75,5.88,4.89,7.24-.85,1.36-7.95-2.53-8.41-1.37-.83,2.12,18.27,9.47,17.22,13.31-.77,2.78-11.55,1.76-11.74,3.52-.2,1.88,12.01,3.81,11.93,6.46-.08,2.7-12.85,4.12-12.71,6.26,.09,1.49,6.35,1.69,6.65,3.91,.24,1.81-3.68,3.36-3.33,4.31,.54,1.46,10.13-1.78,11.74,.97,.7,1.2-.7,2.54,0,3.53,1.68,2.37,11.93-2.58,12.33-1.77,.43,.89-12.79,5.16-10.96,8.22,1.9,3.18,8.74-6.13,13.89-3.32,1.62,.88,1.89,2.13,3.52,2.34,3.62,.48,5.54-6.34,7.44-4.69,2.02,1.76-4.05,5.49-2.94,7.24,.61,.96,7.87-3.05,14.94-1.71"/></g><g id="b"><g><path class="n" d="M234.94,217.43c-2.87,.47-5.69,1.1-8.42,1.89-2.11,.59-4.15,1.28-6.11,2.07-4.36-27.68-17.83-60.88-54.32-60.6-40.24,.31-51.23,35.83-54.92,63.78-1.06,1.3-2.05,2.44-2.81,2.16-1.87-.69,.72-10.56-1.43-9.59-.95,.42-1.49,1.64-2.18,2.9-2.18-18.99,5.26-42.98,16.66-55.27,30.99-33.41,80.87-17.08,97.83,4.05,5.86,7.3,14.25,25.39,34.17,40.95,1.87,1.46,1.39,3.8-.56,6.58-5.76-.27-11.92,.08-17.91,1.08Z"/><path class="n" d="M234.94,217.43c5.99-1,12.15-1.35,17.91-1.08-3.47,5-11.66,11.41-19.21,16.67-1.75-.21-3.47-.35-5.16-.43,3.42-4.42,5.93-9.52,6.46-15.16Z"/><path class="n" d="M213.65,270.84c2.01,1.77,3.83,2.6,4.8,1.48,1.29-1.49,3.15-5.1,3.91-9.22,3.98,3.19,8.26,5.42,9.36,3.35,.92-1.71,1.92-5.56,1.78-9.68,3.65,4.2,7.27,9.25,10.85,15.69,16.26,29.27,4.72,68.89-5.72,70.72-5.23,.92-14.08-6.19-21.58-19.88,0,0,0-.01-.01-.02-2.15-9.18-6.41-20.91-11.08-30.89-3.72-13.43-8.27-26.31-12.16-34.95h0c3.59-1.4,6.97-3.06,10.06-4.95,.04,1.83,.34,3.84,1.09,6.01,1.18,3.41,5.22,9.28,8.7,12.34Z"/><path class="n" d="M215.56,242.3c.88-1.16,1.67-2.36,2.35-3.6,.59,.26,1.21,.56,1.83,.88,.42,.21,.84,.44,1.27,.68,.26,.15,.53,.3,.79,.45,2.74,1.6,5.53,3.61,7.67,5.68,2.86,2.77,3.9,6.68,4.03,10.38,.14,4.12-.86,7.97-1.78,9.68-1.1,2.07-5.38-.16-9.36-3.35-2.88-2.3-5.61-5.09-6.87-7.12-.03-.04-.05-.08-.07-.12-2.28-3.71-2.85-7.22-2.97-10.03h0c1.14-1.14,2.17-2.31,3.11-3.53Z"/><path class="n" d="M228.48,232.59c1.69,.08,3.41,.22,5.16,.43-4.57,3.18-8.9,5.93-11.84,7.69-.26-.15-.53-.3-.79-.45,2.68-2.24,5.27-4.81,7.47-7.67Z"/><path class="n" d="M234.94,217.43c-.53,5.64-3.04,10.74-6.46,15.16-1.71-.08-3.37-.1-5-.05,1.62-3.97,2.73-8.45,3.04-13.22,2.73-.79,5.55-1.42,8.42-1.89Z"/><path class="n" d="M223.48,232.54c1.63-.05,3.29-.03,5,.05-2.2,2.86-4.79,5.43-7.47,7.67-.43-.24-.85-.47-1.27-.68,1.41-2.09,2.68-4.45,3.74-7.04Z"/><path class="n" d="M226.52,219.32c-.31,4.77-1.42,9.25-3.04,13.22-1.02,.02-2.03,.08-3.01,.16l-.15-.04c.71-2.83,.89-5.8,.45-8.9-.11-.79-.23-1.58-.36-2.37,1.96-.79,4-1.48,6.11-2.07Z"/><path class="n" d="M220.47,232.7c.98-.08,1.99-.14,3.01-.16-1.06,2.59-2.33,4.95-3.74,7.04-.62-.32-1.24-.62-1.83-.88,1.07-1.93,1.89-3.94,2.41-6.04l.15,.04Z"/><path class="n" d="M174,239.58c-2.97,1.46-8.42-.14-10.7-.09-.07,0-.14,0-.21,.01l-.27,.03c-1.66,.2-4.73,1.22-7.26,1.35,.94,3.9,4.7,9.2,9.22,9.2,5.02,0,9.22-6.34,9.22-10.5Zm-20.75,22.18c-5.17-.7-10.22-1.81-14.94-3.35-5.48-1.79-10.5-4.15-14.71-7.08h-.01c1.93-1.97,3.49-3.45,3.16-3.86-.66-.82-2.17-.27-2.93-1.37-1.45-2.09,2.39-6.38,1.37-7.43-.82-.84-3.3,1.83-5.28,1.17-4.4-1.45-1.66-17.56-4.9-18.39-1.16-.3-2.55,1.53-3.84,3.12,3.69-27.95,14.68-63.47,54.92-63.78,36.49-.28,49.96,32.92,54.32,60.6,.13,.79,.25,1.58,.36,2.37,.44,3.1,.26,6.07-.45,8.9-.52,2.1-1.34,4.11-2.41,6.04-.68,1.24-1.47,2.44-2.35,3.6-.94,1.22-1.97,2.39-3.11,3.52h0c-2.46,2.46-5.36,4.7-8.59,6.67-3.09,1.89-6.47,3.55-10.06,4.94-5.05,1.97-10.5,3.42-16.08,4.27h0c-3.85,.6-7.75,.91-11.63,.91-1.02,0-2.03-.02-3.05-.05-3.28-.1-6.56-.37-9.79-.8Zm50.99-41.78c2.74-7.64-6.36-19.12-12.53-17.64-2.35,.56-4.66,2.65-6.59,5.38-3.76,5.3-6.11,13.01-4.6,16.62,1.11,2.63,6.31,3.46,11.6,2.68h.01c5.32-.79,10.73-3.2,12.11-7.04Zm-28.64-32.85c.96,1.2,7.92-1.81,7.71-3.42-.12-.9-2.49-1.65-4.45-1.05-2.57,.78-3.85,3.72-3.26,4.47Zm-12.85,45.42c2.92-.18,4.8-2.02,4.15-3.63-.5-1.23-7.5-.28-8.17,.54-.71,.88,1.75,3.23,4.02,3.09Zm-15.71-41.81c.91-.95-.04-4.99-3.03-5.7-2.06-.5-4.45,.76-4.54,1.97-.14,2.07,6.31,5.05,7.57,3.73Zm-.03,34.33c1.28-3.7-1.55-11.24-5.64-16.29,0,0-.01,0-.01,0-2.1-2.6-4.54-4.53-6.92-4.94-6.25-1.09-14.6,10.95-11.37,18.4,1.62,3.75,7.18,5.82,12.54,6.26,5.33,.43,10.46-.72,11.4-3.42Z"/><path class="n" d="M215.42,255.86s.04,.08,.07,.12c1.26,2.03,3.99,4.82,6.87,7.12-.76,4.12-2.62,7.73-3.91,9.22-.97,1.12-2.79,.29-4.8-1.48-3.48-3.06-7.52-8.93-8.7-12.34-.75-2.17-1.05-4.18-1.09-6.01,3.23-1.97,6.13-4.21,8.59-6.66,.12,2.81,.69,6.32,2.97,10.03Z"/><path class="n" d="M219.43,335.41c.92,1.46,.56,12.04-11.52,19.86h-.02c.19-7.41-1-14.22-2.28-17.28,3.47-1.56,6.62-3.22,8.87-4.97-.3,1.33-.6,2.34-.66,2.88-.21,1.96,3.22-4.3,5.61-.49Z"/><path class="n" d="M157.62,344.17c-1.15-3.59,.4-8.71,3.09-13.25,.58-.98,1.21-1.94,1.87-2.84,1.46-1.97,3.08-3.71,4.72-5.02-7.78-9.11-17.09-19.99-26.86-31.9h0c.29-.73,.58-1.45,.87-2.18,4.04-4.05,8.77-7.34,8.79-11.51,.01-1.4-.99-2.81-2.48-4.12,.68-.56,1.37-.99,2.05-1.28,.46-.21,.93-.35,1.39-.42,2.8-.45,7.95-1.37,11.17-2.9,1.75-.83,1.09-4.83,.81-6.19,1.02,.03,2.03,.05,3.05,.05,3.88,0,7.78-.31,11.63-.9v.04c.43,2.68-1.68,6.6,2.06,7.63,5.28,1.46,8.59,.47,12.62,2.69,3.78,2.09,8.87,10.32,13.56,20.32,4.67,9.98,8.93,21.71,11.08,30.89,.01,.01,.01,.02,.01,.02,.32,1.36,.6,2.67,.82,3.9,.36,2.02-1,3.96-3.39,5.82-2.25,1.75-5.4,3.41-8.87,4.97-1.99,.9-4.09,1.77-6.18,2.6-5,1.99-9.95,3.76-13.27,5.28-1.11,.5-2.03,.98-2.72,1.42-1.06,.68-2.62,1.35-4.47,1.9-3.66,1.1-8.43,1.73-12.6,1.07-3.54-.55-6.65-2.02-8.25-4.92-.2-.37-.37-.76-.5-1.17Z"/><path class="n" d="M162.22,371.93c.75,17.48-2.29,36.85-3.78,37.58-5.18,2.54-12.15,1.75-16.42-1.41-4.98-3.68-9.39-37.11-13.57-43.63-3.09-4.83-3.14-17.49-1.22-31.96h0c.22-1.63,.46-3.27,.72-4.93,1.96,1.29,3.98,1.77,5.99,1.15h.01c-3,44.83,58.43,50.64,65.48,11.86,2.09-.83,4.19-1.7,6.18-2.6,1.28,3.06,2.47,9.87,2.28,17.28-.1,3.97-.6,8.11-1.7,11.94-3.26,11.35-11.62,43.81-14.48,45-4.23,1.75-14.87,1.11-17.35-3.13-2.74-4.7,.65-34.18-2.8-35.22-3.51-1.06-6.31-1.47-9.34-1.93Z"/><path class="n" d="M191.71,202.34c6.17-1.48,15.27,10,12.53,17.64-1.38,3.84-6.79,6.25-12.11,7.04,13.46-3.82-.42-24.68-7.01-19.3,1.93-2.73,4.24-4.82,6.59-5.38Z"/><path class="n" d="M185.12,207.72c6.59-5.38,20.47,15.48,7.01,19.3h-.01c-5.29,.78-10.49-.05-11.6-2.68-1.51-3.61,.84-11.32,4.6-16.62Z"/><path class="n" d="M186.16,345.87c1.71,2.37,2.52,3.88,2.23,4.39-1.54,2.76-3.24,2.98-4.4,3.25-.7,.16-2.12-1.04-4.16-3.34-.28-.31-.56-.63-.86-.98,1.85-.55,3.41-1.22,4.47-1.9,.69-.44,1.61-.92,2.72-1.42Z"/><path class="n" d="M188.39,350.26c.29-.51-.52-2.02-2.23-4.39,3.32-1.52,8.27-3.29,13.27-5.28-7.05,38.78-68.48,32.97-65.48-11.86,.28-.09,.53-.22,.75-.39,3.44,.69,7.3,1.24,11.41,1.67l-.02,.16c-1.46,21.8,21.18,29,33.74,20,2.04,2.3,3.46,3.5,4.16,3.34,1.16-.27,2.86-.49,4.4-3.25Z"/><path class="n" d="M183.31,183.71c.21,1.61-6.75,4.62-7.71,3.42-.59-.75,.69-3.69,3.26-4.47,1.96-.6,4.33,.15,4.45,1.05Z"/><path class="n" d="M178.97,349.19c.3,.35,.58,.67,.86,.98-12.56,9-35.2,1.8-33.74-20l.02-.16c4.62,.48,9.57,.78,14.59,.91h.01c-2.69,4.54-4.24,9.66-3.09,13.25,.13,.41,.3,.8,.5,1.17,1.6,2.9,4.71,4.37,8.25,4.92,4.17,.66,8.94,.03,12.6-1.07Z"/><path class="n" d="M163.34,240.29l-3.8,.1c-.11,.45-.08,.53-.08,1.02,0,2.88,1.92,5.23,4.32,5.24h.02c2.39,0,4.33-2.35,4.33-5.24,0-.53,.06-.77-.07-1.24l-4.72,.12Zm-.04-.8c2.28-.05,7.73,1.55,10.7,.09,0,4.16-4.2,10.5-9.22,10.5-4.52,0-8.28-5.3-9.22-9.2,2.53-.13,5.6-1.15,7.26-1.35l.27-.03c.07-.01,.14-.01,.21-.01Z"/><path class="n" d="M168.06,240.17c.13,.47,.07,.71,.07,1.24,0,2.89-1.94,5.24-4.33,5.24h-.02v-.03c.14-1.82-.29-4.12-.44-6.33l4.72-.12Z"/><path class="n" d="M166.9,228.92c.65,1.61-1.23,3.45-4.15,3.63-2.27,.14-4.73-2.21-4.02-3.09,.67-.82,7.67-1.77,8.17-.54Z"/><path class="n" d="M163.34,240.29c.15,2.21,.58,4.51,.44,6.33v.03c-2.4,0-4.32-2.36-4.32-5.24,0-.49-.03-.57,.08-1.02l3.8-.1Z"/><path class="n" d="M167.3,323.06c-1.64,1.31-3.26,3.05-4.72,5.02-6.89-9.04-15.17-19.73-24.44-30.75-.52-.62-1.04-1.24-1.57-1.86,.78-1.83,1.96-3.47,3.32-4.99,.18,.22,.37,.45,.55,.67h0c9.77,11.92,19.08,22.8,26.86,31.91Z"/><path class="n" d="M162.58,328.08c-.66,.9-1.29,1.86-1.87,2.84h-.01c-5.02-.13-9.97-.43-14.59-.91-4.11-.43-7.97-.98-11.41-1.67,3.46-2.66,1.53-15.06,1.09-24.09h.01c.73-2.31,1.51-4.61,2.34-6.92,9.27,11.02,17.55,21.71,24.44,30.75Z"/><path class="n" d="M145.3,271.65c-2.48-1.57-5.46-2.83-7.72-3.44-.38-.1-.75-.18-1.14-.25,.38-3.4,1.04-6.58,1.87-9.55,4.72,1.54,9.77,2.65,14.94,3.35-1.22,3.23-2.42,6.67-3.58,10.31-.68,.29-1.37,.72-2.05,1.28-.68-.59-1.47-1.17-2.32-1.7Z"/><path class="n" d="M135.9,267.87h.01c.18,.03,.36,.06,.53,.09,.39,.07,.76,.15,1.14,.25,2.26,.61,5.24,1.87,7.72,3.44,.85,.53,1.64,1.11,2.32,1.7,1.49,1.31,2.49,2.72,2.48,4.12-.02,4.17-4.75,7.46-8.79,11.51-.48,.48-.96,.98-1.42,1.5-1.36,1.52-2.54,3.16-3.32,4.99-.1,.26-.2,.52-.29,.78-.6,1.75-.65,4.64-.49,8,.44,9.03,2.37,21.43-1.09,24.09-.22,.17-.47,.3-.75,.39h-.01c-2.01,.62-4.03,.14-5.99-1.15-10.42-6.84-19.25-36.41-16.07-44.7,.94-2.44,3.17-5.4,6.13-8.05,1.77-1.59,3.81-3.07,5.99-4.27,3.74-2.04,7.91-3.24,11.9-2.69Z"/><path class="n" d="M144.01,185.04c2.99,.71,3.94,4.75,3.03,5.7-1.26,1.32-7.71-1.66-7.57-3.73,.09-1.21,2.48-2.47,4.54-1.97Z"/><path class="n" d="M141.37,208.78c4.09,5.05,6.92,12.59,5.64,16.29-.94,2.7-6.07,3.85-11.4,3.42h0c-13.69-2.95-1.18-24.64,5.75-19.72,0,0,.01,0,.01,0Z"/><path class="n" d="M141.31,288.98c-.29,.73-.58,1.45-.87,2.17-.18-.22-.37-.45-.55-.67,.46-.52,.94-1.02,1.42-1.5Z"/><path class="n" d="M141.36,208.77c-6.93-4.92-19.44,16.77-5.75,19.71h0c-5.36-.43-10.92-2.5-12.54-6.25-3.23-7.45,5.12-19.49,11.37-18.4,2.38,.41,4.82,2.34,6.92,4.94Z"/><path class="n" d="M136.57,295.47c.53,.62,1.05,1.24,1.57,1.86-.83,2.31-1.61,4.61-2.34,6.92h-.01c-.16-3.36-.11-6.25,.49-8,.09-.26,.19-.52,.29-.78Z"/><path class="n" d="M138.31,258.41c-.83,2.97-1.49,6.15-1.87,9.55-.17-.03-.35-.06-.53-.09h-.01c-3.99-.55-8.16,.65-11.9,2.69-2.01-2.59-4-5.2-5.98-7.83-2.06-3.32,2.29-8.07,5.57-11.41h.01c4.21,2.94,9.23,5.3,14.71,7.09Z"/><path class="n" d="M127.95,327.58c-.26,1.66-.5,3.3-.72,4.92h0c-4.98,6.16-9.92,9.22-13.39,8.73-10.49-1.47-23.36-40.69-8.09-70.48,.61-1.19,1.24-2.34,1.9-3.47,1.67,.31,3.33,.92,4.89,1.97,1.85,1.84,3.67,3.7,5.47,5.58-2.96,2.65-5.19,5.61-6.13,8.05-3.18,8.29,5.65,37.86,16.07,44.7Z"/><path class="n" d="M74.38,217.97c-3.27-5.05-12.99-14.49-11.8-15.89,1.49-1.77,18.23,11.42,20.74,8.8,1.74-1.82-5.41-9.78-3.91-10.56,2.54-1.33,8.72,10.79,14.54,17.96,2.74,3.38,5.4,5.67,7.56,4.93,1.48-.51,2.34-1.64,3.02-2.8,.08-.13,.15-.25,.22-.37,.69-1.26,1.23-2.48,2.18-2.9,2.15-.97-.44,8.9,1.43,9.59,.76,.28,1.75-.86,2.81-2.16,1.29-1.59,2.68-3.42,3.84-3.12,3.24,.83,.5,16.94,4.9,18.39,1.98,.66,4.46-2.01,5.28-1.17,1.02,1.05-2.82,5.34-1.37,7.43,.76,1.1,2.27,.55,2.93,1.37,.33,.41-1.23,1.89-3.16,3.85-3.28,3.34-7.63,8.09-5.57,11.41,1.98,2.63,3.97,5.24,5.98,7.83-2.18,1.2-4.22,2.68-5.99,4.27-1.8-1.88-3.62-3.74-5.47-5.58-1.56-1.05-3.22-1.66-4.89-1.97-7.08-1.34-14.33,2.67-14.94,1.71-1.12-1.75,4.96-5.48,2.94-7.24-1.9-1.65-3.82,5.18-7.44,4.7-1.63-.22-1.9-1.46-3.52-2.35-5.15-2.81-12,6.51-13.89,3.33-1.83-3.07,11.39-7.34,10.95-8.22-.4-.81-10.64,4.13-12.32,1.76-.7-.98,.7-2.32,0-3.52-1.62-2.75-11.2,.48-11.74-.98-.35-.94,3.57-2.49,3.32-4.3-.29-2.23-6.55-2.43-6.65-3.92-.14-2.13,12.64-3.56,12.72-6.26,.08-2.65-12.14-4.57-11.93-6.45,.18-1.77,10.97-.74,11.73-3.53,1.06-3.84-18.04-11.18-17.21-13.3,.45-1.17,7.56,2.73,8.41,1.37,.86-1.37-5.55-6.24-4.89-7.24,.69-1.06,8.59,3.35,14.77,6.16,3.62,1.64,6.66,2.73,7.34,1.86,.38-.49-.04-1.53-.92-2.89Z"/><path class="n" d="M104.53,220.41c-.68,1.16-1.54,2.29-3.02,2.8-2.16,.74-4.82-1.55-7.56-4.93,3.6,.48,7.16,1.18,10.58,2.13Z"/><path class="n" d="M74.38,217.97c.88,1.36,1.3,2.4,.92,2.89-.68,.87-3.72-.22-7.34-1.86,2.03-.45,4.17-.79,6.42-1.03Z"/></g></g><g id="c"><g><path class="e" d="M168.09,240.53c.13,.48,.1,.56,.1,1.08,0,2.89-1.94,5.25-4.34,5.25h-.02v-.04c.16-2.04-.4-4.68-.48-7.12h0c1.07-.03,2.87,.32,4.77,.54l-.03,.29Z"/><path class="g" d="M163.35,239.7c.08,2.44,.64,5.08,.48,7.12v.04c-2.39,0-4.31-2.37-4.31-5.25,0-.49-.14-.7-.03-1.15,1.32-.3,2.53-.62,3.38-.73,.1-.01,.19-.02,.28-.03,.06,0,.13,0,.2,0h0Z"/><path class="t" d="M253.46,209.98c1.87,1.46,1.39,3.8-.56,6.58-2.76-.13-5.61-.12-8.5,.05,.42-1.53,.46-3.08,.02-4.61-1.57-5.42-10.82-14.58-16.23-29.77,5.58,8.26,13.37,18.45,25.27,27.75Z"/><path class="t" d="M244.4,216.61c2.89-.17,5.74-.18,8.5-.05-3.47,5-11.65,11.41-19.2,16.66-1.75-.21-3.48-.35-5.17-.43,.67-.85,1.29-1.72,1.87-2.62,4.15-1.08,12.3-7.06,14-13.56Z"/><path class="f" d="M244.4,272.67c16.26,29.27,4.72,68.89-5.72,70.72-2.49,.44-5.81-.95-9.42-4.02-2.78-4.26-6.15-15.07-7.12-19.56-1.19-3.81-2.25-7.65-3.18-11.6-.35-16.68,2.75-33.87,6.53-42.68,2.9,1.83,5.46,2.67,6.28,1.13,.92-1.71,1.92-5.56,1.78-9.68,3.65,4.2,7.27,9.25,10.85,15.69Z"/><path class="o" d="M194.6,169.78c-7.42-5.52-16.76-8.87-28.46-8.78-40.23,.31-51.22,35.81-54.92,63.76-.99,1.24-1.94,2.33-2.68,2.2-.04-.01-.08-.01-.12-.03-1.87-.69,.72-10.56-1.43-9.58-.95,.43-1.49,1.64-2.19,2.9-2.18-18.99,5.26-42.98,16.66-55.27,30.99-33.41,80.87-17.08,97.83,4.05,2.36,2.94,5.13,7.63,8.9,13.2,5.41,15.19,14.66,24.35,16.23,29.77,.44,1.53,.4,3.08-.02,4.61-3.12,.16-6.28,.5-9.4,1.03,.41-4.28-.31-8.86-2.63-13.68-2.03-5.92-7.54-11.28-8.03-11-1.44,.79,6.94,12,6.42,25.49-1.42,.32-2.82,.67-4.19,1.07,.39-5.93-.47-12.3-3.11-18.67-1.53-3.98-3.59-4.67-4.21-4.5-1.83,.48,3.66,8.03,4.57,21.13,.05,.77,.06,1.77,.01,2.89-1.15,.38-2.27,.79-3.37,1.23-2.95-18.8-10.12-40.15-25.86-51.82Z"/><path class="o" d="M235,217.64c3.12-.53,6.28-.87,9.4-1.03-1.7,6.5-9.85,12.48-14,13.56,2.45-3.78,4.17-7.98,4.6-12.53Z"/><path class="t" d="M232.37,203.96c2.32,4.82,3.04,9.4,2.63,13.68-1.42,.23-2.84,.5-4.24,.81,.52-13.49-7.86-24.7-6.42-25.49,.49-.28,6,5.08,8.03,11Z"/><path class="t" d="M233.7,233.22s-.01,.01-.01,.01c-4.57,3.18-8.9,5.93-11.84,7.69-.26-.15-.53-.3-.79-.45,.48-.4,.96-.82,1.43-1.24,0,0,0-.01,.01-.01,2.16-1.93,4.23-4.09,6.03-6.43,1.69,.08,3.42,.22,5.17,.43Z"/><path class="o" d="M215.62,242.49c.87-1.16,1.66-2.35,2.34-3.58,.6,.26,1.21,.56,1.84,.89,.42,.21,.84,.43,1.26,.67,.26,.15,.53,.3,.79,.45,2.74,1.6,5.53,3.61,7.67,5.68,2.86,2.77,3.9,6.68,4.03,10.38,.14,4.12-.86,7.97-1.78,9.68-.82,1.54-3.38,.7-6.28-1.13h0c-1.01-.64-2.05-1.4-3.08-2.22-2.88-2.3-5.61-5.09-6.87-7.12-.03-.04-.05-.08-.07-.12-2.28-3.71-2.85-7.22-2.97-10.03h0c1.14-1.14,2.18-2.33,3.11-3.55h.01Z"/><path class="t" d="M230.76,218.45c1.4-.31,2.82-.58,4.24-.81-.43,4.55-2.15,8.75-4.6,12.53-.58,.9-1.2,1.77-1.87,2.62-.77-.04-1.53-.06-2.28-.07,1.88-3.59,3.73-7.79,4.22-11.08,.16-1.07,.25-2.14,.29-3.19Z"/><path class="o" d="M230.76,218.45c-.04,1.05-.13,2.12-.29,3.19-.49,3.29-2.34,7.49-4.22,11.08-.92-.02-1.82-.01-2.71,.02,1.62-3.97,2.73-8.45,3.03-13.22,1.37-.4,2.77-.75,4.19-1.07Z"/><path class="t" d="M226.25,232.72c.75,.01,1.51,.03,2.28,.07-1.8,2.34-3.87,4.5-6.03,6.43,.88-1.38,2.32-3.76,3.75-6.5Z"/><path class="t" d="M223.46,200.85c2.64,6.37,3.5,12.74,3.11,18.67-.93,.26-1.84,.54-2.74,.85,.05-1.12,.04-2.12-.01-2.89-.91-13.1-6.4-20.65-4.57-21.13,.62-.17,2.68,.52,4.21,4.5Z"/><path class="o" d="M223.54,232.74c.89-.03,1.79-.04,2.71-.02-1.43,2.74-2.87,5.12-3.75,6.5-.01,0-.01,.01-.01,.01-.47,.42-.95,.84-1.43,1.24-.42-.24-.84-.46-1.26-.67h0c1.41-2.1,2.69-4.47,3.74-7.06Z"/><path class="s" d="M225.49,265.52h0c-3.78,8.82-6.88,26.01-6.53,42.69-2.35-9.83-3.94-20.3-4.8-32.57-.11-1.6-.27-3.13-.46-4.59,2.01,1.77,3.83,2.6,4.8,1.48,1.29-1.49,3.15-5.1,3.91-9.22,1.03,.82,2.07,1.58,3.08,2.21Z"/><path class="t" d="M223.83,220.37c.9-.31,1.81-.59,2.74-.85-.3,4.77-1.41,9.25-3.03,13.22-1.02,.02-2.02,.08-3.01,.16l-.16-.04c.22-.88,.39-1.78,.51-2.69,1.9-.57,2.77-5.85,2.95-9.8Z"/><path class="u" d="M222.14,319.81c.97,4.49,4.34,15.3,7.12,19.56-2.19-1.85-4.49-4.34-6.78-7.4h.01c-2.3-7.03-3.36-15.33-3.53-23.76,.93,3.95,1.99,7.79,3.18,11.6Z"/><path class="w" d="M222.49,331.96h-.01c-1.82-2.44-3.64-5.27-5.38-8.45-2.15-9.19-6.43-20.96-11.1-30.95-3.72-13.42-8.26-26.28-12.15-34.91h0c3.59-1.4,6.97-3.06,10.06-4.95,.04,1.83,.34,3.84,1.09,6.01,1.18,3.41,5.22,9.28,8.7,12.34,.19,1.46,.35,2.99,.46,4.59,.86,12.27,2.45,22.74,4.8,32.57,.17,8.43,1.23,16.73,3.53,23.75Z"/><path class="o" d="M220.46,221.6c1.1-.44,2.22-.85,3.37-1.23-.18,3.95-1.05,9.23-2.95,9.8,.25-2,.24-4.07-.06-6.2-.11-.79-.23-1.58-.36-2.37Z"/><path class="t" d="M220.53,232.9c.99-.08,1.99-.14,3.01-.16-1.05,2.59-2.33,4.96-3.74,7.05h0c-.63-.32-1.24-.62-1.84-.88,1.07-1.93,1.89-3.95,2.41-6.05l.16,.04Z"/><path class="w" d="M220.46,221.6c.13,.79,.25,1.58,.36,2.37,.3,2.13,.31,4.2,.06,6.2-.12,.91-.29,1.81-.51,2.69-.52,2.1-1.34,4.12-2.41,6.05-.68,1.23-1.47,2.42-2.34,3.58h-.01c-.93,1.22-1.97,2.41-3.11,3.54h0c-2.46,2.46-5.36,4.7-8.59,6.67-3.09,1.89-6.47,3.55-10.06,4.94-5.05,1.97-10.5,3.42-16.07,4.27-2.34,.37-4.7,.62-7.07,.77,8.18-.95,30.2-8.04,40.58-24.59,.79-1.26,1.46-2.59,2.01-3.99,1.32-.71,2.17-1.8,2.17-3.02,0-.69-.26-1.33-.73-1.88,3.6-17.82-7.31-42.74-20.14-59.42,15.74,11.67,22.91,33.02,25.86,51.82Z"/><path class="t" d="M215.47,256.07s.04,.08,.07,.12c1.26,2.03,3.99,4.82,6.87,7.12-.76,4.12-2.62,7.73-3.91,9.22-.97,1.12-2.79,.29-4.8-1.48-3.48-3.06-7.52-8.93-8.7-12.34-.75-2.17-1.05-4.18-1.09-6.01,3.23-1.97,6.13-4.21,8.59-6.66,.12,2.81,.69,6.32,2.97,10.03Z"/><path class="w" d="M219.48,335.62c.92,1.46,.56,12.04-11.52,19.86h-.01c.19-7.4-1-14.22-2.29-17.28,3.47-1.57,6.62-3.23,8.87-4.98h0c-.3,1.34-.6,2.35-.66,2.89-.21,1.96,3.22-4.3,5.61-.49Z"/><path class="w" d="M205.66,338.2c-1.54,.69-3.14,1.37-4.75,2.02-.48,.19-.96,.39-1.43,.58-5.01,1.99-9.96,3.76-13.27,5.28-1.1,.5-2.03,.98-2.71,1.42-1.06,.68-2.63,1.35-4.48,1.9-3.66,1.09-8.43,1.72-12.59,1.07,.32-.55,.64-1.07,.97-1.57,3.79,.19,7.26-.77,8.94-2.82,1.33-1.63,1.53-3.72,1.41-5.97-.23-4.71-1.83-10.06,2.76-13.07,8.39-5.47,8.39,12.33,15.65,10.18,6.62-1.96,12.76-5.35,16.96-9.65,3.97-4.08-5.98-26.53-13.62-47.15,2.14,3.4,4.36,7.59,6.5,12.14,4.67,9.99,8.95,21.76,11.1,30.95,.33,1.36,.6,2.66,.82,3.89,.36,2.02-1,3.96-3.39,5.82-2.25,1.75-5.4,3.41-8.87,4.98Z"/><path class="u" d="M163.63,232.65c2.44-.44,3.91-2.07,3.32-3.53-.15-.38-.94-.55-1.98-.57-2.27-.07-5.72,.55-6.18,1.11-.72,.88,1.75,3.24,4.01,3.09,.29-.02,.57-.05,.83-.1Zm-10.33,29.32c-5.17-.7-10.23-1.81-14.94-3.36-5.48-1.78-10.5-4.14-14.71-7.07h-.01c1.94-1.98,3.5-3.46,3.17-3.87-.66-.81-2.17-.27-2.93-1.37-1.46-2.08,2.39-6.38,1.37-7.43-.82-.84-3.3,1.83-5.29,1.17-1.15-.38-1.81-1.77-2.21-3.62,.95,.48,2.12,.75,3.39,.75,3.18,0,5.75-1.73,5.75-3.86s-2.57-3.86-5.75-3.86c-1.59,0-3.02,.43-4.06,1.13-.27-4.3-.39-8.51-2.01-8.93-1.16-.3-2.55,1.52-3.85,3.11,3.7-27.95,14.69-63.45,54.92-63.76,11.7-.09,21.04,3.26,28.46,8.78,12.83,16.68,23.74,41.6,20.14,59.42-.98-1.18-2.86-1.98-5.01-1.98-3.17,0-5.74,1.73-5.74,3.86s2.57,3.86,5.74,3.86c1.35,0,2.59-.31,3.57-.84-.55,1.4-1.22,2.73-2.01,3.99-10.38,16.55-32.4,23.64-40.58,24.59h-.04c-1.51,.09-3.02,.14-4.53,.14-1.01,0-2.03-.02-3.05-.05-3.27-.1-6.55-.37-9.79-.8Zm20.75-22.18c-1.56,.76-3.81,.69-5.93,.45-1.9-.22-3.7-.57-4.77-.55-.07,0-.14,0-.2,0-.09,.01-.18,.02-.28,.03-.85,.11-2.06,.43-3.38,.73-1.27,.29-2.64,.56-3.88,.62h0c.94,3.91,4.7,9.2,9.22,9.2,5.02,0,9.22-6.33,9.22-10.49Zm30.24-19.61c1-2.77,.43-6.06-.99-9.04h-.01c-2.47-5.23-7.59-9.54-11.52-8.6-2.35,.56-4.66,2.66-6.6,5.39-3.61,5.09-5.91,12.4-4.75,16.16,.05,.16,.1,.31,.16,.45,1.11,2.64,6.31,3.47,11.6,2.68,5.33-.78,10.74-3.2,12.11-7.04Zm-28.63-32.85c.96,1.21,7.92-1.8,7.71-3.42-.12-.9-2.49-1.64-4.45-1.05-2.57,.79-3.86,3.73-3.26,4.47Zm-11.39,37.65c4.65-.78,10.13-3.38,9.62-5.34-.68-2.64-19.14-1.79-20.02,1.25-.57,1.95,6.29,4.77,10.4,4.09Zm-17.03-.36c.79-3.88-1.95-10.87-5.82-15.64-2.1-2.6-4.54-4.54-6.92-4.95-3.71-.64-8.16,3.34-10.48,8.24h-.01c-1.6,3.36-2.2,7.14-.89,10.17,1.62,3.73,7.16,5.8,12.52,6.24t.02,.01c5.33,.44,10.47-.72,11.41-3.42,.07-.21,.13-.42,.17-.65Zm-.14-33.68c.91-.94-.04-4.99-3.03-5.7-2.06-.49-4.45,.76-4.54,1.98-.15,2.07,6.3,5.04,7.57,3.72Z"/><path class="v" d="M214.74,229.2c.47,.55,.73,1.19,.73,1.88,0,1.22-.85,2.31-2.17,3.02,.62-1.56,1.1-3.19,1.44-4.9Z"/><path class="x" d="M209.73,227.22c2.15,0,4.03,.8,5.01,1.98-.34,1.71-.82,3.34-1.44,4.9-.98,.53-2.22,.84-3.57,.84-3.17,0-5.74-1.73-5.74-3.86s2.57-3.86,5.74-3.86Z"/><path class="u" d="M167.35,323.27c-7.78-9.11-17.09-19.99-26.86-31.9h0c.29-.73,.58-1.45,.87-2.18,4.05-4.05,8.78-7.34,8.8-11.52,.01-1.4-.99-2.81-2.48-4.11,.68-.56,1.36-.99,2.04-1.28,.46-.21,.93-.35,1.39-.42,2.8-.45,7.95-1.37,11.17-2.9,.94-.44,1.18-1.79,1.17-3.16h.23c3.3,1.97,11.62,1.01,13.97-.68-.21,1.95-.22,3.81,2.18,4.47,5.29,1.46,8.6,.46,12.63,2.69,2.05,1.14,4.49,4.08,7.04,8.14,7.64,20.62,17.59,43.07,13.62,47.15-4.2,4.3-10.34,7.69-16.96,9.65-7.26,2.15-7.26-15.65-15.65-10.18-4.59,3.01-2.99,8.36-2.76,13.07-4.79,2.26-7.68,4.65-10.35,8.79-2.89-.13-5.96-.93-8.59-2.4-.24-.3-.44-.61-.63-.95-.2-.37-.37-.76-.5-1.17-1.15-3.59,.4-8.7,3.08-13.24,.58-.98,1.21-1.94,1.88-2.85,1.45-1.97,3.07-3.71,4.71-5.02Zm23.82-27.84c.87,4.34,2.78,15.96,2.68,20.31v.69c.71,0,1.42-.01,2.12-.02,2.38-.06,4.78-.22,7.24-.67-3.73-.96-6.6-3.76-7.39-7-1.04-4.06-2.93-8.98-4.65-13.31Z"/><path class="w" d="M205.66,338.2c1.29,3.06,2.48,9.88,2.29,17.28-.1,3.97-.6,8.11-1.7,11.93-3.26,11.35-11.62,43.82-14.48,45-1.49,.62-3.77,.94-6.21,.91,6.33-1.5,9.37-16.93,11.05-26.28,2.94-16.38,9.07-33.91,4.3-46.82,1.61-.65,3.21-1.33,4.75-2.02Z"/><path class="g" d="M203.3,211.14c1.42,2.98,1.99,6.27,.99,9.04-1.37,3.84-6.78,6.26-12.11,7.04,8.16-2.31,6.29-10.86,2.08-16.06,2.97-.94,6.06-1.02,9.03-.02h.01Z"/><path class="u" d="M129.2,328.46c1.58,.76,3.2,.97,4.8,.47h0c-3,44.84,58.43,50.65,65.48,11.87,.47-.19,.95-.39,1.43-.58,4.77,12.91-1.36,30.44-4.3,46.82-1.68,9.35-4.72,24.78-11.05,26.28-4.5-.05-9.54-1.29-11.14-4.04-2.75-4.69,.65-34.17-2.8-35.21-3.52-1.06-6.31-1.47-9.34-1.93h0c-1.2-.19-2.44-.38-3.77-.62-.6,11.29-.02,36.32-8.44,39.64-2.97-.25-5.83-1.25-8-2.85-4.98-3.68-9.39-37.11-13.57-43.63-3.09-4.83-3.14-17.49-1.22-31.96h0c.22-1.63,.46-3.27,.72-4.93h.01c.39,.25,.79,.48,1.19,.67Zm64.73,60.54c0-2.52-3.07-4.56-6.87-4.56s-6.87,2.04-6.87,4.56,3.08,4.57,6.87,4.57,6.87-2.05,6.87-4.57Zm-38.37-1.96c0-2.3-3.15-4.17-7.03-4.17s-7.03,1.87-7.03,4.17,3.15,4.18,7.03,4.18,7.03-1.87,7.03-4.18Z"/><path class="e" d="M203.29,211.14c-2.97-1-6.06-.92-9.03,.02-2.74-3.39-6.49-5.36-9.09-3.23,1.94-2.73,4.25-4.83,6.6-5.39,3.93-.94,9.05,3.37,11.52,8.6Z"/><path class="w" d="M195.82,308.74c.79,3.24,3.66,6.04,7.39,7-2.46,.45-4.86,.61-7.24,.67h0c1-1.35,.73-4.2-.15-7.67Z"/><path class="w" d="M195.82,308.74c.88,3.47,1.15,6.32,.15,7.66h0c-.7,.02-1.41,.03-2.11,.03v-.69c.09-4.35-1.82-15.97-2.69-20.31,1.72,4.33,3.61,9.25,4.65,13.31Z"/><path class="l" d="M194.26,211.16c4.21,5.2,6.08,13.75-2.08,16.06-5.29,.79-10.49-.04-11.6-2.68-.06-.14-.11-.29-.16-.45,3.1-6.36,8.25-11.17,13.84-12.93Z"/><path class="m" d="M187.06,384.44c3.8,0,6.87,2.04,6.87,4.56s-3.07,4.57-6.87,4.57-6.87-2.05-6.87-4.57,3.08-4.56,6.87-4.56Z"/><path class="j" d="M186.21,346.08c1.71,2.37,2.52,3.88,2.23,4.39-1.54,2.76-3.24,2.98-4.4,3.25-.7,.16-2.12-1.04-4.16-3.34-.28-.31-.56-.63-.86-.98,1.85-.55,3.42-1.22,4.48-1.9,.68-.44,1.61-.92,2.71-1.42Z"/><path class="o" d="M188.44,350.47c.29-.51-.52-2.02-2.23-4.39,3.31-1.52,8.26-3.29,13.27-5.28-7.05,38.78-68.48,32.97-65.48-11.86h0c.28-.1,.53-.23,.75-.39,3.45,.69,7.3,1.25,11.41,1.67l-.02,.16c-1.46,21.8,21.18,29,33.74,20,2.04,2.3,3.46,3.5,4.16,3.34,1.16-.27,2.86-.49,4.4-3.25Z"/><path class="i" d="M185.17,207.93c2.6-2.13,6.35-.16,9.09,3.23-5.59,1.76-10.74,6.57-13.84,12.93-1.16-3.76,1.14-11.07,4.75-16.16Z"/><path class="k" d="M183.37,183.91c.21,1.62-6.75,4.63-7.71,3.42-.6-.74,.69-3.68,3.26-4.47,1.96-.59,4.33,.15,4.45,1.05Z"/><path class="t" d="M179.02,349.4c.3,.35,.58,.67,.86,.98-12.56,9-35.2,1.8-33.74-20l.02-.16c4.62,.48,9.57,.78,14.59,.91h.01c-2.68,4.55-4.23,9.66-3.08,13.25,.13,.41,.3,.8,.5,1.17,.19,.34,.39,.65,.63,.95,1.7,2.27,4.49,3.48,7.62,3.97,4.16,.65,8.93,.02,12.59-1.07Z"/><path class="w" d="M177.79,261.96c.15,.95-.03,2.07-.14,3.16-2.35,1.69-10.67,2.65-13.97,.67h-.23c-.01-1.18-.23-2.39-.36-3.02,1.02,.03,2.04,.05,3.05,.05,1.51,0,3.02-.05,4.53-.14h.04c2.37-.15,4.73-.4,7.07-.77v.05Z"/><path class="u" d="M177.75,340.11c.12,2.25-.08,4.34-1.41,5.97-1.68,2.05-5.15,3.01-8.94,2.82,2.67-4.14,5.56-6.53,10.35-8.79Z"/><path class="w" d="M173.89,219.64c.51,1.96-4.97,4.56-9.62,5.34-4.11,.68-10.97-2.14-10.4-4.09,.88-3.04,19.34-3.89,20.02-1.25Z"/><path class="p" d="M174.05,239.79c0,4.16-4.2,10.49-9.22,10.49-4.52,0-8.28-5.29-9.22-9.19h0c1.24-.07,2.61-.34,3.88-.63-.11,.45,.03,.66,.03,1.15,0,2.88,1.92,5.24,4.31,5.25h.02c2.4,0,4.34-2.36,4.34-5.25,0-.52,.03-.6-.1-1.08l.03-.29c2.12,.24,4.37,.31,5.93-.45Z"/><path class="s" d="M166.95,229.12c.59,1.46-.88,3.09-3.32,3.53,1.09-.88,1.66-2.5,1.34-4.1,1.04,.02,1.83,.19,1.98,.57Z"/><path class="m" d="M167.4,348.9c-.33,.5-.65,1.02-.97,1.57-3.13-.49-5.92-1.7-7.62-3.97,2.63,1.47,5.7,2.27,8.59,2.4Z"/><path class="f" d="M164.97,228.55c.32,1.6-.25,3.22-1.34,4.1-.26,.05-.54,.08-.83,.1-2.26,.15-4.73-2.21-4.01-3.09,.46-.56,3.91-1.18,6.18-1.11Z"/><path class="j" d="M167.35,323.27c-1.64,1.31-3.26,3.05-4.71,5.02h0c-6.89-9.04-15.16-19.72-24.44-30.74h0c-.52-.63-1.04-1.24-1.56-1.86,.77-1.84,1.95-3.48,3.31-5,.18,.22,.37,.45,.55,.67h0c9.77,11.92,19.08,22.8,26.86,31.91Z"/><path class="u" d="M162.63,328.29h0c-.67,.91-1.3,1.87-1.88,2.85h-.01c-5.02-.14-9.97-.44-14.59-.92-4.11-.42-7.96-.98-11.41-1.67,3.48-2.64,1.54-15.05,1.1-24.09,.73-2.31,1.51-4.6,2.34-6.91,9.28,11.02,17.55,21.7,24.44,30.74Z"/><path class="m" d="M162.28,372.14c.75,17.48-2.3,36.85-3.79,37.58-2.55,1.25-5.54,1.69-8.42,1.44,8.42-3.32,7.84-28.35,8.44-39.64,1.33,.24,2.57,.43,3.77,.61h0Z"/><path class="m" d="M148.53,382.87c3.88,0,7.03,1.87,7.03,4.17s-3.15,4.18-7.03,4.18-7.03-1.87-7.03-4.18,3.15-4.17,7.03-4.17Z"/><path class="w" d="M147.68,273.56c1.49,1.3,2.49,2.71,2.48,4.11-.02,4.18-4.75,7.47-8.8,11.52-.49,.49-.96,.99-1.42,1.5-1.36,1.52-2.54,3.16-3.31,5-.11,.25-.21,.51-.3,.77-.6,1.75-.64,4.64-.48,8,.44,9.04,2.38,21.45-1.1,24.09-.22,.16-.47,.29-.75,.38-1.6,.5-3.22,.29-4.8-.47,3.96-.22,4.7-27.46,.44-32.2-3.42-3.8-12.88-9.68-10.43-15.91,3.1-7.91,14.69,5.87,18.78,3.91,3.65-1.74,5.19-7.91,4.67-11.97,.81-.17,1.7-.32,2.69-.44h.01c.85,.53,1.64,1.11,2.32,1.71Z"/><path class="w" d="M153.3,261.97c-1.22,3.23-2.42,6.67-3.58,10.31-.68,.29-1.36,.72-2.04,1.28-.68-.6-1.47-1.18-2.32-1.71h-.01c-1.04-.66-2.16-1.27-3.28-1.79-1.56-.72-3.12-1.3-4.43-1.65-.38-.1-.77-.19-1.15-.25,.38-3.4,1.04-6.57,1.87-9.54h0c4.71,1.54,9.77,2.65,14.94,3.35Z"/><path class="i" d="M141.42,208.98c3.87,4.77,6.61,11.76,5.82,15.64-3.5-6.18-8.57-11.01-13.99-12.73,2.46-3.01,5.68-4.69,8.17-2.91Z"/><path class="k" d="M144.07,185.24c2.99,.71,3.94,4.76,3.03,5.7-1.27,1.32-7.72-1.65-7.57-3.72,.09-1.22,2.48-2.47,4.54-1.98Z"/><path class="l" d="M147.24,224.62c-.04,.23-.1,.44-.17,.65-.94,2.7-6.08,3.86-11.41,3.42t-.02-.01c-8.73-1.89-6.76-11.44-2.39-16.79,5.42,1.72,10.49,6.55,13.99,12.73Z"/><path class="m" d="M145.35,271.85c-.99,.12-1.88,.27-2.69,.44-.1-.85-.3-1.61-.59-2.22h0c1.12,.51,2.24,1.12,3.28,1.78Z"/><path class="u" d="M142.66,272.29c.52,4.06-1.02,10.23-4.67,11.97-4.09,1.96-15.68-11.82-18.78-3.91-2.45,6.23,7.01,12.11,10.43,15.91,4.26,4.74,3.52,31.98-.44,32.2-.4-.19-.8-.42-1.19-.68-.74-.48-1.48-1.08-2.2-1.78-9.42-9.15-16.82-35.22-13.87-42.91,.94-2.44,3.16-5.4,6.12-8.05,1.77-1.59,3.81-3.07,5.99-4.27,1.27-.69,2.59-1.29,3.94-1.75,2.79-.97,5.7-1.36,8.5-.86,.38,.06,.77,.15,1.15,.25,1.31,.35,2.87,.93,4.43,1.65h0c.29,.62,.49,1.38,.59,2.23Z"/><path class="e" d="M141.42,208.98c-2.49-1.78-5.71-.1-8.17,2.91-3.04-.97-6.19-.95-9.23,.38,2.32-4.9,6.77-8.88,10.48-8.24,2.38,.41,4.82,2.35,6.92,4.95Z"/><path class="s" d="M138.36,258.61h0c-.83,2.98-1.49,6.15-1.87,9.55-2.8-.5-5.71-.11-8.5,.86,.21-3.9-3.25-12.13-6.92-14.72h-.01c.86-.99,1.75-1.93,2.58-2.77h.01c4.21,2.94,9.23,5.3,14.71,7.08Z"/><path class="w" d="M138.19,297.54h0c-.83,2.32-1.61,4.61-2.34,6.92-.16-3.36-.12-6.25,.48-8,.09-.26,.19-.52,.3-.77,.52,.62,1.04,1.23,1.56,1.85Z"/><path class="g" d="M124.02,212.27c3.04-1.33,6.19-1.35,9.23-.38-4.37,5.35-6.34,14.9,2.39,16.79-5.36-.44-10.9-2.51-12.52-6.24-1.31-3.03-.71-6.81,.89-10.17h.01Z"/><path class="w" d="M128.01,327.78h-.01c-.26,1.67-.5,3.31-.72,4.93h0c-1.4,1.74-2.8,3.22-4.16,4.45,.74-2.04,2.69-6.03,2.69-11.16,.72,.7,1.46,1.3,2.2,1.78Z"/><path class="f" d="M121.07,254.3c3.67,2.59,7.13,10.82,6.92,14.72-1.35,.46-2.67,1.06-3.94,1.75-2.01-2.59-4-5.2-5.98-7.83-1.53-2.48,.5-5.76,2.99-8.65h.01Z"/><path class="j" d="M114.07,241.53c-.07,.06-.15,.13-.23,.21-.5-.52-.94-1.18-1.25-2.04-1.35-3.69,1.58-6.86-.17-9.05-.78-.98-1.74-1.29-4.18-1.69l.3-2c.74,.13,1.69-.96,2.68-2.2,1.3-1.59,2.69-3.41,3.85-3.11,1.62,.42,1.74,4.63,2.01,8.93,.13,2.07,.29,4.15,.67,5.84,.4,1.85,1.06,3.24,2.21,3.62,1.99,.66,4.47-2.01,5.29-1.17,1.02,1.05-2.83,5.35-1.37,7.43,.76,1.1,2.27,.56,2.93,1.37,.33,.41-1.23,1.89-3.17,3.86-.83,.84-1.72,1.78-2.58,2.76-2.49,2.89-4.52,6.17-2.99,8.65,1.98,2.63,3.97,5.24,5.98,7.83-2.18,1.2-4.22,2.68-5.99,4.27-1.8-1.88-3.62-3.74-5.47-5.58,.91-.26,4.7-2.3,5.09-3.45,.9-2.7-4.98-3.37-5.26-7.57-.34-5.17,8.48-7.55,7.83-12.14-.28-1.93-2.37-2.18-4.38-3.15,.22-1.5,.09-2.21-.28-2.39-.35-.17-.89,.17-1.52,.77Z"/><path class="x" d="M121.14,229.45c3.18,0,5.75,1.73,5.75,3.86s-2.57,3.86-5.75,3.86c-1.27,0-2.44-.27-3.39-.75-.38-1.69-.54-3.77-.67-5.84,1.04-.7,2.47-1.13,4.06-1.13Z"/><path class="f" d="M125.81,326c0,5.13-1.95,9.12-2.69,11.16-3.48,3.15-6.74,4.63-9.23,4.28-10.49-1.47-23.36-40.69-8.09-70.48,.61-1.19,1.24-2.34,1.9-3.47,1.67,.31,3.33,.92,4.89,1.97,1.85,1.84,3.67,3.7,5.47,5.58-2.96,2.65-5.18,5.61-6.12,8.05-2.95,7.69,4.45,33.76,13.87,42.91Z"/><path class="h" d="M75.89,221.45c2.46-3.77,7.75-3.58,8.95-3.51,3.11,.17,3.22,5.33,8.21,8.21,1.21,.7,4.4,1.19,10.77,2.15,1.87,.28,3.3,.48,4.42,.66,2.44,.4,3.4,.71,4.18,1.69,1.75,2.19-1.18,5.36,.17,9.05,.31,.86,.75,1.52,1.25,2.04-1.77,1.75-4.18,5.07-5.55,4.5-2.1-.88,.01-10.23-.91-10.44-.78-.17-1.87,6.52-4.31,6.79-3.2,.34-4.6-11.21-7.3-10.44-3.2,.92,4.64,10.38,2.87,11.61-1.16,.8-4.55-2.67-5.35-1.96-.58,.52,.64,2.84,1.83,4.83,4.28,7.34,14.3,11.09,18.78,4.04,1.14-3.55,1.75-5.96,1.97-7.52,2.01,.97,4.1,1.22,4.38,3.15,.65,4.59-8.17,6.97-7.83,12.14,.28,4.2,6.16,4.87,5.26,7.57-.39,1.15-4.18,3.19-5.09,3.45-1.56-1.05-3.22-1.66-4.89-1.97-7.07-1.34-14.32,2.67-14.93,1.71-1.12-1.75,4.95-5.48,2.93-7.24-1.89-1.66-3.81,5.17-7.43,4.69-1.63-.21-1.9-1.46-3.52-2.35-5.16-2.81-12,6.51-13.9,3.33-1.82-3.06,11.4-7.33,10.96-8.22-.4-.81-10.64,4.14-12.32,1.76-.7-.98,.7-2.32,0-3.52-1.62-2.75-11.21,.49-11.74-.98-.35-.94,3.57-2.49,3.32-4.3-.3-2.22-6.55-2.42-6.65-3.91-.14-2.14,12.64-3.57,12.72-6.26,.07-2.65-12.14-4.58-11.94-6.46,.19-1.76,10.98-.74,11.74-3.52,1.05-3.84-18.05-11.19-17.22-13.31,.46-1.16,7.56,2.73,8.42,1.37s-5.55-6.24-4.89-7.24c.69-1.06,8.57,3.35,14.76,6.17h.01c3.62,1.64,6.65,2.73,7.33,1.86l.54,.38Zm16.19,28.96c.42-2.52-.23-5.35-3.62-5.34-9.79-1.78-12.52-1.81-12.65-1.31-.22,.85,7.09,3.09,6.78,4.83-.25,1.41-5.47,1.66-5.47,2.08,.04,.45,5.91-.12,6.26,1.18,.22,.82-1.91,1.87-1.7,2.35,.21,.47,2.51-.07,4.96-.79,4.59,4.32,5.06-.75,5.44-3Z"/><path class="j" d="M115.59,240.76c.37,.18,.5,.89,.28,2.39-.22,1.56-.83,3.97-1.97,7.52-4.48,7.05-14.5,3.3-18.78-4.04-1.19-1.99-2.41-4.31-1.83-4.83,.8-.71,4.19,2.76,5.35,1.96,1.77-1.23-6.07-10.69-2.87-11.61,2.7-.77,4.1,10.78,7.3,10.44,2.44-.27,3.53-6.96,4.31-6.79,.92,.21-1.19,9.56,.91,10.44,1.37,.57,3.78-2.75,5.55-4.5,.08-.08,.16-.15,.23-.21,.63-.6,1.17-.94,1.52-.77Z"/><path class="j" d="M108.54,226.96l-.3,2c-1.12-.18-2.55-.38-4.42-.66-6.37-.96-9.56-1.45-10.77-2.15-4.99-2.88-5.1-8.04-8.21-8.21-1.2-.07-6.49-.26-8.95,3.51l-.54-.38c.38-.49-.03-1.53-.91-2.89h-.01c-3.26-5.06-12.98-14.5-11.79-15.9,1.49-1.76,18.23,11.43,20.74,8.81,1.74-1.82-5.42-9.79-3.92-10.57,2.54-1.33,8.73,10.8,14.54,17.97h.01c2.74,3.38,5.4,5.66,7.56,4.92,1.48-.5,2.34-1.63,3.02-2.79l.21-.36h0c.7-1.27,1.24-2.48,2.19-2.91,2.15-.98-.44,8.89,1.43,9.58,.04,.02,.08,.02,.12,.03Z"/><path class="j" d="M88.46,245.07c3.39,0,4.04,2.82,3.62,5.34-.38,2.25-.85,7.32-5.44,3-2.45,.72-4.75,1.26-4.96,.79-.21-.48,1.92-1.53,1.7-2.35-.35-1.3-6.22-.73-6.26-1.18,0-.42,5.22-.67,5.47-2.08,.31-1.74-7-3.98-6.78-4.83,.13-.5,2.86-.47,12.65,1.31Z"/></g><circle class="g" cx="135.82" cy="212.91" r=".93"/><circle class="g" cx="191.52" cy="211.99" r=".93"/></g><g id="d"><path class="r" d="M114.15,241.61c-.08-.14-.16-.28-.24-.43"/><path class="r" d="M111.3,224.86c3.69-27.95,14.68-63.47,54.92-63.78,37.54-.29,50.72,34.86,54.68,62.97,3.19,22.62-26.57,38.85-54.68,38.85-15.55,0-31.69-3.76-42.49-11.28"/><path class="r" d="M153.38,262.04c-1.22,3.23-2.42,6.68-3.58,10.32"/><path class="r" d="M127.36,332.79h0c-4.98,6.16-9.92,9.22-13.39,8.73-10.49-1.47-23.36-40.69-8.09-70.48,.61-1.19,1.24-2.34,1.9-3.47"/><path class="r" d="M138.44,258.7c-.83,2.97-1.49,6.15-1.87,9.55"/><line class="r" x1="136.1" y1="275.54" x2="136.1" y2="275.53"/><path class="r" d="M193.93,257.73c3.89,8.64,8.44,21.52,12.16,34.95"/><path class="r" d="M233.63,257.06c3.65,4.2,7.27,9.25,10.85,15.69,16.26,29.27,4.72,68.89-5.72,70.72-5.23,.92-14.09-6.2-21.59-19.9"/><path class="r" d="M213.78,271.13c.19,1.46,.35,2.99,.46,4.59,1.21,17.19,3.85,30.87,7.98,44.17"/><path class="r" d="M180.66,224.63c-2.29-5.46,4.27-20.34,11.19-22,6.17-1.48,15.27,10,12.52,17.64-2.74,7.65-21.49,9.65-23.71,4.36Z"/><path class="r" d="M185.25,208.01c6.6-5.39,20.49,15.49,7.01,19.3"/><path class="r" d="M147.15,225.36c1.94-5.6-5.56-20.03-12.57-21.24-6.25-1.08-14.6,10.96-11.37,18.41,3.23,7.45,22.07,8.26,23.94,2.84Z"/><path class="r" d="M141.5,209.07c-6.93-4.95-19.46,16.76-5.76,19.7"/><path class="r" d="M147.18,191.03c.91-.95-.04-4.99-3.02-5.7-2.06-.49-4.45,.76-4.54,1.98-.15,2.07,6.3,5.04,7.56,3.73Z"/><path class="r" d="M175.74,187.42c-.6-.75,.69-3.69,3.26-4.47,1.96-.6,4.32,.15,4.44,1.05,.22,1.62-6.75,4.63-7.71,3.43Z"/><path class="r" d="M162.88,232.84c2.92-.18,4.8-2.02,4.15-3.63-.49-1.22-7.49-.28-8.16,.54-.72,.88,1.75,3.23,4.01,3.09Z"/><path class="r" d="M152.07,239.89c1.75,2.87,8.64,.08,11.16-.1s10.24,2.35,12.37-1.23"/><path class="r" d="M162.95,239.82c.33-2.46,.25-6.06,0-6.97"/><path class="r" d="M74.52,218.26h-.01c-2.25,.24-4.39,.58-6.42,1.03"/><path class="r" d="M104.67,220.7c-3.42-.95-6.99-1.65-10.59-2.13"/><path class="r" d="M220.44,221.72c13.9-5.61,32.23-6.51,44.83-3.4"/><path class="r" d="M256.11,238.63c-12.4-4.37-24.97-6.51-35.5-5.64"/><path class="r" d="M155.69,241.17c.94,3.9,4.7,9.2,9.22,9.2,5.02,0,9.22-6.34,9.22-10.5"/><path class="r" d="M221.93,241c2.94-1.76,7.27-4.51,11.84-7.69,11.75-8.17,25.02-19.15,19.77-23.25-19.92-15.56-28.31-33.65-34.17-40.95-16.96-21.13-66.84-37.46-97.83-4.05-11.4,12.29-18.84,36.28-16.66,55.27h0"/><path class="r" d="M218.04,238.99c1.23,.54,2.55,1.23,3.89,2.01,2.74,1.6,5.53,3.61,7.67,5.68,2.86,2.77,3.9,6.68,4.03,10.38,.14,4.12-.86,7.97-1.78,9.68-1.1,2.07-5.38-.16-9.36-3.35-2.88-2.3-5.61-5.09-6.87-7.12-2.34-3.76-2.92-7.32-3.04-10.16"/><path class="r" d="M222.49,263.39c-.76,4.12-2.62,7.73-3.91,9.22-.97,1.12-2.79,.29-4.8-1.48-3.48-3.06-7.52-8.93-8.7-12.34-.75-2.17-1.05-4.18-1.09-6.01"/><path class="r" d="M215.69,242.58c6.16,5.51,8.52,9.06,10.69,14.57"/><path class="r" d="M215.55,256.15c.19,1.76,.21,3.52,.12,5.46"/><path class="r" d="M223.54,200.93c6.14,14.82,2.63,29.64-3.66,38.94"/><path class="r" d="M232.44,204.04c7.36,15.3-1.34,28.17-11.3,36.5"/><path class="r" d="M134.08,329.02c-12.67,3.91-25.84-36-22.06-45.85,2.6-6.77,15.1-17.53,25.7-14.67,4.72,1.27,12.54,5.35,12.52,9.26-.03,6.37-11.04,10.68-13.83,18.78-2.33,6.78,3.71,30.61-2.33,32.48Z"/><path class="r" d="M128.06,272.15c2.55-2.99,3.82-2.69,7.98-3.99"/><path class="r" d="M135.11,276.52c2.29-2.48,4.85-3.89,10.33-4.58"/><path class="r" d="M162.35,372.22c.75,17.48-2.29,36.85-3.78,37.58-5.18,2.54-12.15,1.75-16.42-1.41-4.98-3.68-9.39-37.11-13.57-43.63-3.09-4.83-3.14-17.5-1.22-31.97,.22-1.62,.46-3.26,.72-4.92"/><path class="r" d="M147.75,273.64c.68-.56,1.37-.99,2.05-1.28,.46-.21,.93-.35,1.39-.42,2.8-.45,7.95-1.37,11.17-2.9,1.75-.83,1.09-4.83,.81-6.19"/><path class="r" d="M177.87,262.04c.41,2.67-1.69,6.6,2.04,7.63,5.28,1.46,8.6,.46,12.62,2.69,8.12,4.49,22.25,37.22,25.47,55.13,1.53,8.51-27.74,15.77-34.43,20.09-4.94,3.19-20.87,6.07-25.32-1.95-3.33-6.01,3.36-18.17,9.91-22.84,13.3-9.49,23.87-4.6,36-7.14"/><path class="r" d="M188.98,289.76c3.04,8,9.82,23.05,7.08,26.73"/><path class="r" d="M205.74,338.28c1.96,4.7,3.73,18.25,.58,29.22-3.26,11.35-11.62,43.81-14.48,45-4.23,1.75-14.87,1.11-17.35-3.13-2.75-4.7,.65-34.17-2.8-35.22-4.9-1.48-8.41-1.7-13.11-2.54"/><path class="r" d="M172.15,331.24c-8.02,3.32-11.09,7.09-14.39,13.22"/><path class="r" d="M179.46,339.45c-6.42,2.77-9.68,5.47-12.95,11.1"/><path class="r" d="M208.04,355.56c12.08-7.82,12.44-18.4,11.52-19.86-2.39-3.81-5.82,2.45-5.61,.49,.06-.54,.36-1.55,.66-2.88"/><path class="r" d="M134.83,328.63c7.31,1.46,16.51,2.34,26,2.58"/><path class="r" d="M134.08,329.02c-3,44.83,58.43,50.64,65.48,11.86"/><path class="r" d="M146.22,330.46c-1.46,21.8,21.18,29,33.74,20"/><path class="r" d="M140.02,290.77c9.96,12.17,19.48,23.3,27.41,32.58"/><path class="r" d="M124.14,270.86c-2.01-2.59-4.01-5.21-5.99-7.84"/><path class="r" d="M186.29,346.16c1.71,2.37,2.52,3.88,2.23,4.39-1.54,2.76-3.24,2.98-4.4,3.25-.7,.16-2.12-1.04-4.16-3.34-.28-.31-.56-.63-.86-.98"/><path class="r" d="M136.7,295.76c9.91,11.68,18.73,23.06,26.01,32.61"/><path class="r" d="M118.14,275.12c-1.8-1.88-3.62-3.74-5.47-5.58"/><path class="r" d="M112.67,269.54c-8.17-5.48-19.07,.93-19.83-.26-1.12-1.75,4.96-5.48,2.93-7.24-1.9-1.65-3.82,5.18-7.43,4.7-1.63-.22-1.9-1.46-3.52-2.35-5.15-2.81-12,6.51-13.89,3.33-1.83-3.07,11.39-7.33,10.96-8.22-.4-.81-10.64,4.13-12.33,1.76-.7-.98,.7-2.32,0-3.52-1.61-2.75-11.2,.49-11.74-.98-.35-.94,3.57-2.49,3.33-4.3-.3-2.22-6.55-2.42-6.65-3.91-.14-2.14,12.64-3.56,12.72-6.26,.08-2.65-12.14-4.57-11.93-6.46,.19-1.76,10.98-.74,11.74-3.52,1.05-3.84-18.05-11.19-17.22-13.3,.46-1.17,7.56,2.73,8.41,1.37,.86-1.36-5.55-6.24-4.89-7.24,1.1-1.68,20.27,10.38,22.11,8.02,1.81-2.32-14.22-17-12.72-18.78,1.49-1.76,18.23,11.42,20.74,8.8,1.74-1.82-5.41-9.78-3.91-10.57,3.74-1.95,15.36,25.19,22.11,22.89,3.24-1.1,3.51-5.2,5.41-6.07,2.15-.98-.43,8.89,1.43,9.59,1.69,.63,4.54-5.83,6.65-5.28,3.24,.83,.5,16.94,4.89,18.39,1.99,.66,4.47-2.01,5.28-1.17,1.03,1.05-2.82,5.35-1.37,7.43,.76,1.1,2.27,.55,2.93,1.37,.9,1.11-12,9.98-8.74,15.26"/><path class="r" d="M95.19,246.71c-1.19-1.99-2.4-4.31-1.83-4.83,.8-.71,4.19,2.76,5.35,1.96,1.77-1.23-6.07-10.7-2.87-11.61,2.7-.77,4.1,10.78,7.3,10.43,2.44-.26,3.53-6.95,4.3-6.78,.93,.2-1.18,9.56,.91,10.43,1.93,.81,5.95-6.15,7.3-5.48,.74,.37,.54,2.95-1.7,9.91"/><path class="r" d="M88.54,245.15c-9.79-1.78-12.52-1.81-12.65-1.3-.23,.85,7.09,3.09,6.78,4.83-.25,1.43-5.52,1.67-5.48,2.09,.04,.44,5.91-.12,6.26,1.17,.22,.82-1.91,1.87-1.7,2.35,.21,.47,2.51-.07,4.96-.78"/><path class="r" d="M140.57,291.45h0c.29-.73,.58-1.45,.87-2.18"/><path class="r" d="M138.27,297.62c-.83,2.31-1.61,4.61-2.34,6.92"/><path class="r" d="M168.2,240.46c.13,.48,.07,.71,.07,1.24,0,2.89-1.94,5.25-4.34,5.25s-4.34-2.36-4.34-5.25c0-.49-.03-.57,.08-1.02"/><path class="r" d="M163.43,239.78c.08,2.45,.64,5.09,.48,7.13"/></g></svg>