<?xml version="1.0" encoding="UTF-8"?><svg xmlns="http://www.w3.org/2000/svg" viewBox="0 0 169.12 140.65"><defs><style>.f{fill:#c2e8f2;}.g{fill:#cccac6;}.h{fill:#9fc9d3;}.i{fill:#e2e2e2;}.j{fill:#ff8585;}.k{fill:#8e8c87;}.l{fill:none;stroke:#3f2a25;stroke-linecap:round;stroke-linejoin:round;stroke-width:.5px;}.m{fill:#e5b765;}.n{fill:#4f4a41;}.o{fill:#bc7171;}.p{fill:#ffd16c;}</style></defs><g id="a"/><g id="b"><g><path class="o" d="M142.14,84.91h-2.84c-1.9,.01-3.46-1.56-3.46-3.47,0-.95,.38-1.81,1.01-2.43,.64-.64,1.5-1.03,2.45-1.03h2.84v6.93Z"/><path class="o" d="M127.46,65.2v5.78h-11.72c-1.33,0-2.43-1.1-2.43-2.45v-3.33h14.15Z"/><path class="o" d="M127.45,55.92v9.28h-14.14v-6.85c0-1.33,1.1-2.43,2.43-2.43h11.71Z"/><path class="o" d="M127.45,54.85v1.07h-11.71c-1.33,0-2.43,1.1-2.43,2.43v6.85h-5.68v-3.18c0-1.07-.88-1.95-1.96-1.95h-8.63c-1.07,0-1.95,.88-1.95,1.95v3.18h-3.81v-3.18c0-1.07-.88-1.95-1.96-1.95h-8.63c-1.07,0-1.95,.88-1.95,1.95v3.18h-4.4v-3.18c0-1.07-.88-1.95-1.95-1.95h-8.64c-1.07,0-1.95,.88-1.95,1.95v3.18h-4.07v-3.18c0-1.07-.88-1.95-1.96-1.95h-8.63c-1.07,0-1.95,.88-1.95,1.95v3.18h-4.4v-3.18c0-1.07-.88-1.95-1.96-1.95h-8.63c-1.07,0-1.95,.88-1.95,1.95v3.18h-4.47v-10.35c0-2.7,2.2-4.9,4.9-4.9H122.54c2.7,0,4.91,2.2,4.91,4.9Z"/><path class="o" d="M124.43,99.04c0,1.86-1.37,3.4-3.15,3.67,1.46-1.7,2.2-3.78,2.41-5.89,.47,.62,.74,1.39,.74,2.22Z"/><path class="o" d="M120.71,95.32c1.22,0,2.3,.59,2.98,1.5-.21,2.11-.95,4.19-2.41,5.89-.18,.03-.38,.05-.57,.05-2.05,0-3.72-1.67-3.72-3.72s1.67-3.72,3.72-3.72Z"/><path class="o" d="M120.71,107.18c-1.62,0-3.12-.47-4.39-1.28l.03-.05c2.16-.7,3.77-1.81,4.93-3.14,1.78-.27,3.15-1.81,3.15-3.67,0-.83-.27-1.6-.74-2.22,.17-1.89-.08-3.8-.62-5.5l.02-.07c3.34,1.01,5.76,4.12,5.76,7.79,0,4.49-3.64,8.14-8.14,8.14Z"/><path class="o" d="M123.07,91.32c.54,1.7,.79,3.61,.62,5.5-.68-.91-1.76-1.5-2.98-1.5-2.05,0-3.72,1.66-3.72,3.72s1.67,3.72,3.72,3.72c.19,0,.39-.02,.57-.05-1.16,1.33-2.77,2.44-4.93,3.14l-.03,.05c-2.25-1.45-3.75-3.98-3.75-6.86,0-4.5,3.64-8.15,8.14-8.15,.83,0,1.63,.12,2.38,.36l-.02,.07Z"/><path class="o" d="M107.63,65.2v3.82c0,1.08-.88,1.96-1.96,1.96h-8.63c-1.07,0-1.95-.88-1.95-1.96v-3.82h12.54Z"/><path class="o" d="M107.63,62.02v3.18h-12.54v-3.18c0-1.07,.88-1.95,1.95-1.95h8.63c1.08,0,1.96,.88,1.96,1.95Z"/><path class="o" d="M91.28,65.2v3.82c0,1.08-.88,1.96-1.96,1.96h-8.63c-1.07,0-1.95-.88-1.95-1.96v-3.82h12.54Z"/><path class="o" d="M91.28,62.02v3.18h-12.54v-3.18c0-1.07,.88-1.95,1.95-1.95h8.63c1.08,0,1.96,.88,1.96,1.95Z"/><path class="o" d="M74.34,65.2v3.82c0,1.08-.88,1.96-1.95,1.96h-8.64c-1.07,0-1.95-.88-1.95-1.96v-3.82h12.54Z"/><path class="o" d="M74.34,62.02v3.18h-12.54v-3.18c0-1.07,.88-1.95,1.95-1.95h8.64c1.07,0,1.95,.88,1.95,1.95Z"/><path class="o" d="M57.73,65.2v3.82c0,1.08-.88,1.96-1.96,1.96h-8.63c-1.07,0-1.95-.88-1.95-1.96v-3.82h12.54Z"/><path class="o" d="M57.73,62.02v3.18h-12.54v-3.18c0-1.07,.88-1.95,1.95-1.95h8.63c1.08,0,1.96,.88,1.96,1.95Z"/><path class="o" d="M54.59,99.04v.04c0,4.5-3.64,8.14-8.15,8.14-1.67,0-3.22-.5-4.52-1.37,2.12-.69,3.71-1.77,4.86-3.07,1.9-.17,3.38-1.76,3.38-3.7v-.04c-.01-.91-.34-1.74-.89-2.37,.14-1.84-.11-3.7-.63-5.35l.02-.08c3.41,.96,5.91,4.09,5.93,7.8Z"/><path class="o" d="M46.78,102.78c1.55-1.75,2.3-3.92,2.49-6.11,.55,.63,.88,1.46,.89,2.37v.04c0,1.94-1.48,3.53-3.38,3.7Z"/><path class="o" d="M48.64,91.32c.52,1.65,.77,3.51,.63,5.35-.68-.8-1.69-1.31-2.83-1.31-2.03,0-3.69,1.64-3.72,3.68v.04c0,2.06,1.68,3.72,3.72,3.72,.12,0,.23-.01,.34-.02-1.15,1.3-2.74,2.38-4.86,3.07-2.18-1.46-3.62-3.94-3.62-6.77v-.04c.03-4.48,3.66-8.11,8.14-8.11,.77,0,1.51,.11,2.22,.31l-.02,.08Z"/><path class="o" d="M46.44,95.36c1.14,0,2.15,.51,2.83,1.31-.19,2.19-.94,4.36-2.49,6.11-.11,0-.22,.02-.34,.02-2.04,0-3.72-1.66-3.72-3.72v-.04c.03-2.04,1.69-3.68,3.72-3.68Z"/><path class="o" d="M40.79,65.2v3.82c0,1.08-.88,1.96-1.96,1.96h-8.63c-1.07,0-1.95-.88-1.95-1.96v-3.82h12.54Z"/><path class="o" d="M40.79,62.02v3.18h-12.54v-3.18c0-1.07,.88-1.95,1.95-1.95h8.63c1.08,0,1.96,.88,1.96,1.95Z"/><path class="o" d="M29.3,84.92c1.91,0,3.46,1.54,3.46,3.45,0,.95-.39,1.81-1.01,2.45-.63,.63-1.5,1.01-2.45,1.01h-5.52v-6.91h5.52Z"/><polygon class="o" points="23.89 79.92 23.78 79.92 23.78 77.98 23.89 77.98 108.78 77.98 108.78 79.92 23.89 79.92"/><path class="o" d="M106.89,99.04H54.59c-.02-3.71-2.52-6.84-5.93-7.8-.71-.2-1.45-.31-2.22-.31-4.48,0-8.11,3.63-8.14,8.11h-9.62c-2.7,0-4.9-2.21-4.9-4.91v-2.3h5.52c.95,0,1.82-.38,2.45-1.01,.62-.64,1.01-1.5,1.01-2.45,0-1.91-1.55-3.45-3.46-3.45h-5.52v-5H108.78v-1.94H23.78v-12.78h4.47v3.82c0,1.08,.88,1.96,1.95,1.96h8.63c1.08,0,1.96-.88,1.96-1.96v-3.82h4.4v3.82c0,1.08,.88,1.96,1.95,1.96h8.63c1.08,0,1.96-.88,1.96-1.96v-3.82h4.07v3.82c0,1.08,.88,1.96,1.95,1.96h8.64c1.07,0,1.95-.88,1.95-1.96v-3.82h4.4v3.82c0,1.08,.88,1.96,1.95,1.96h8.63c1.08,0,1.96-.88,1.96-1.96v-3.82h3.81v3.82c0,1.08,.88,1.96,1.95,1.96h8.63c1.08,0,1.96-.88,1.96-1.96v-3.82h5.68v3.33c0,1.35,1.1,2.45,2.43,2.45h11.72v.88c0,1.14,0,1,1.49,1h8.39c2.64,0,4.8,2.16,4.8,4.81v.31h-2.84c-.95,0-1.81,.39-2.45,1.03-.63,.62-1.01,1.48-1.01,2.43,0,1.91,1.56,3.48,3.46,3.48h2.84v9.31c0,2.64-2.16,4.81-4.8,4.81h-8.49c0-3.67-2.42-6.78-5.76-7.79-.75-.24-1.55-.36-2.38-.36-4.5,0-8.14,3.65-8.14,8.15h-5.68Z"/></g></g><g id="c"><g><path class="i" d="M142.14,77.98v6.93h-2.84c-1.89,0-3.46-1.56-3.46-3.47,0-.95,.39-1.81,1.02-2.43,.63-.64,1.49-1.03,2.44-1.03h2.84Z"/><path class="f" d="M127.46,65.2v5.78h-11.71c-1.34,0-2.43-1.1-2.43-2.45v-3.33h14.14Z"/><path class="h" d="M127.46,55.92v9.28h-14.14v-6.85c0-1.33,1.09-2.43,2.43-2.43h11.71Z"/><path class="m" d="M127.46,54.85v1.07h-11.71c-1.34,0-2.43,1.1-2.43,2.43v6.85h-5.69v-3.18c0-1.07-.88-1.95-1.95-1.95h-8.63c-1.08,0-1.96,.88-1.96,1.95v3.18h-3.8v-3.18c0-1.07-.88-1.95-1.96-1.95h-8.63c-1.07,0-1.95,.88-1.95,1.95v3.18h-4.4v-3.18c0-1.07-.88-1.95-1.96-1.95h-8.63c-1.07,0-1.95,.88-1.95,1.95v3.18h-4.08v-3.18c0-1.07-.88-1.95-1.95-1.95h-8.63c-1.08,0-1.96,.88-1.96,1.95v3.18h-4.4v-3.18c0-1.07-.88-1.95-1.95-1.95h-8.63c-1.08,0-1.96,.88-1.96,1.95v3.18h-4.47v-10.35c0-2.7,2.21-4.91,4.91-4.91H122.55c2.7,0,4.91,2.21,4.91,4.91Z"/><path class="n" d="M123.1,91.25c3.34,1.01,5.76,4.12,5.76,7.78,0,4.5-3.64,8.15-8.14,8.15-1.62,0-3.12-.47-4.39-1.28l.03-.05c2.16-.7,3.77-1.81,4.93-3.14,1.78-.27,3.15-1.81,3.15-3.67,0-.83-.27-1.6-.74-2.22,.17-1.89-.08-3.8-.62-5.5l.02-.07Z"/><path class="g" d="M121.29,102.71c1.46-1.7,2.2-3.78,2.41-5.89,.47,.62,.74,1.39,.74,2.22,0,1.86-1.37,3.4-3.15,3.67Z"/><path class="k" d="M112.57,99.03c0-4.49,3.65-8.14,8.15-8.14,.83,0,1.63,.12,2.38,.36l-.02,.07c.54,1.7,.79,3.61,.62,5.5-.68-.91-1.76-1.5-2.98-1.5-2.06,0-3.72,1.66-3.72,3.72s1.66,3.72,3.72,3.72c.19,0,.39-.02,.57-.05-1.16,1.33-2.77,2.44-4.93,3.14l-.03,.05c-2.26-1.45-3.76-3.99-3.76-6.87Z"/><path class="i" d="M120.72,95.32c1.22,0,2.3,.59,2.98,1.5-.21,2.11-.95,4.19-2.41,5.89-.18,.03-.38,.05-.57,.05-2.06,0-3.72-1.67-3.72-3.72s1.66-3.72,3.72-3.72Z"/><path class="f" d="M107.63,65.2v3.82c0,1.08-.88,1.96-1.95,1.96h-8.63c-1.08,0-1.96-.88-1.96-1.96v-3.82h12.54Z"/><path class="h" d="M107.63,62.02v3.18h-12.54v-3.18c0-1.07,.88-1.95,1.96-1.95h8.63c1.07,0,1.95,.88,1.95,1.95Z"/><path class="f" d="M91.29,65.2v3.82c0,1.08-.88,1.96-1.96,1.96h-8.63c-1.07,0-1.95-.88-1.95-1.96v-3.82h12.54Z"/><path class="h" d="M91.29,62.02v3.18h-12.54v-3.18c0-1.07,.88-1.95,1.95-1.95h8.63c1.08,0,1.96,.88,1.96,1.95Z"/><path class="f" d="M74.35,65.2v3.82c0,1.08-.88,1.96-1.96,1.96h-8.63c-1.07,0-1.95-.88-1.95-1.96v-3.82h12.54Z"/><path class="h" d="M74.35,62.02v3.18h-12.54v-3.18c0-1.07,.88-1.95,1.95-1.95h8.63c1.08,0,1.96,.88,1.96,1.95Z"/><path class="f" d="M57.73,65.2v3.82c0,1.08-.88,1.96-1.95,1.96h-8.63c-1.08,0-1.96-.88-1.96-1.96v-3.82h12.54Z"/><path class="h" d="M57.73,62.02v3.18h-12.54v-3.18c0-1.07,.88-1.95,1.96-1.95h8.63c1.07,0,1.95,.88,1.95,1.95Z"/><path class="n" d="M54.6,99.03v.05c0,4.49-3.65,8.14-8.15,8.14-1.67,0-3.22-.5-4.52-1.37,2.12-.69,3.71-1.77,4.86-3.07,1.9-.17,3.38-1.76,3.38-3.7v-.05c-.01-.9-.34-1.73-.89-2.37,.14-1.83-.11-3.69-.63-5.34l.02-.08c3.41,.96,5.91,4.08,5.93,7.79Z"/><path class="g" d="M46.79,102.78c1.55-1.76,2.3-3.92,2.49-6.12,.55,.64,.88,1.47,.89,2.37v.05c0,1.94-1.48,3.53-3.38,3.7Z"/><path class="k" d="M48.65,91.32c.52,1.65,.77,3.51,.63,5.34-.68-.79-1.7-1.3-2.83-1.3-2.03,0-3.7,1.64-3.72,3.67v.05c0,2.06,1.68,3.72,3.72,3.72,.12,0,.23-.01,.34-.02-1.15,1.3-2.74,2.38-4.86,3.07-2.18-1.46-3.62-3.95-3.62-6.77v-.05c.02-4.48,3.66-8.1,8.14-8.1,.77,0,1.51,.11,2.22,.31l-.02,.08Z"/><path class="i" d="M46.45,95.36c1.13,0,2.15,.51,2.83,1.3-.19,2.2-.94,4.36-2.49,6.12-.11,.01-.22,.02-.34,.02-2.04,0-3.72-1.66-3.72-3.72v-.05c.02-2.03,1.69-3.67,3.72-3.67Z"/><path class="f" d="M40.79,65.2v3.82c0,1.08-.88,1.96-1.95,1.96h-8.63c-1.08,0-1.96-.88-1.96-1.96v-3.82h12.54Z"/><path class="h" d="M40.79,62.02v3.18h-12.54v-3.18c0-1.07,.88-1.95,1.96-1.95h8.63c1.07,0,1.95,.88,1.95,1.95Z"/><path class="j" d="M29.31,84.91c1.91,0,3.46,1.55,3.46,3.46,0,.95-.39,1.81-1.01,2.45-.63,.62-1.5,1.01-2.45,1.01h-5.53v-6.92h5.53Z"/><polygon class="n" points="23.9 77.98 108.79 77.98 108.79 79.92 23.9 79.92 23.78 79.92 23.78 77.98 23.9 77.98"/><path class="p" d="M23.78,94.13v-2.3h5.53c.95,0,1.82-.39,2.45-1.01,.62-.64,1.01-1.5,1.01-2.45,0-1.91-1.55-3.46-3.46-3.46h-5.53v-4.99H108.79v-1.94H23.78v-12.78h4.47v3.82c0,1.08,.88,1.96,1.96,1.96h8.63c1.07,0,1.95-.88,1.95-1.96v-3.82h4.4v3.82c0,1.08,.88,1.96,1.96,1.96h8.63c1.07,0,1.95-.88,1.95-1.96v-3.82h4.08v3.82c0,1.08,.88,1.96,1.95,1.96h8.63c1.08,0,1.96-.88,1.96-1.96v-3.82h4.4v3.82c0,1.08,.88,1.96,1.95,1.96h8.63c1.08,0,1.96-.88,1.96-1.96v-3.82h3.8v3.82c0,1.08,.88,1.96,1.96,1.96h8.63c1.07,0,1.95-.88,1.95-1.96v-3.82h5.69v3.33c0,1.35,1.09,2.45,2.43,2.45h11.71v.88c0,1.13,0,.99,1.5,.99h8.39c2.64,0,4.79,2.17,4.79,4.81v.32h-2.84c-.95,0-1.81,.39-2.44,1.03-.63,.62-1.02,1.48-1.02,2.43,0,1.91,1.57,3.47,3.46,3.47h2.84v9.31c0,2.65-2.15,4.81-4.79,4.81h-8.49c0-3.66-2.42-6.77-5.76-7.78-.75-.24-1.55-.36-2.38-.36-4.5,0-8.15,3.65-8.15,8.14H54.6c-.02-3.71-2.52-6.83-5.93-7.79-.71-.2-1.45-.31-2.22-.31-4.48,0-8.12,3.62-8.14,8.1h-9.62c-2.7,0-4.91-2.21-4.91-4.9Z"/></g></g><g id="d"><g id="e"/><line class="l" x1="124.41" y1="98.65" x2="124.41" y2="98.64"/><polyline class="l" points="54.6 99.02 106.89 99.02 112.57 99.02"/><path class="l" d="M38.31,99.02h-9.62c-2.7,0-4.91-2.21-4.91-4.91V54.83c0-2.7,2.21-4.91,4.91-4.91H122.55c2.7,0,4.91,2.21,4.91,4.91v17c0,1.14,0,1,1.5,1"/><path class="l" d="M128.96,72.84h8.39c2.64,0,4.8,2.17,4.8,4.81v16.56c0,2.64-2.15,4.81-4.8,4.81h-8.48"/><line class="l" x1="112.57" y1="99.02" x2="106.89" y2="99.02"/><path class="l" d="M127.46,55.9h-11.71c-1.34,0-2.44,1.1-2.44,2.44v10.18c0,1.35,1.1,2.45,2.44,2.45h11.71"/><rect class="l" x="78.74" y="60.05" width="12.54" height="10.91" rx="1.96" ry="1.96"/><rect class="l" x="61.8" y="60.05" width="12.54" height="10.91" rx="1.96" ry="1.96"/><rect class="l" x="45.19" y="60.05" width="12.54" height="10.91" rx="1.96" ry="1.96"/><rect class="l" x="28.25" y="60.05" width="12.54" height="10.91" rx="1.96" ry="1.96"/><path class="l" d="M23.9,91.81h5.41c.95,0,1.82-.39,2.45-1.01,.62-.64,1.01-1.5,1.01-2.45,0-1.91-1.55-3.46-3.46-3.46h-5.41"/><path class="l" d="M142.15,84.9h-2.85c-1.9,0-3.46-1.56-3.46-3.47,0-.95,.39-1.81,1.01-2.44s1.5-1.02,2.45-1.02h2.85"/><path class="l" d="M46.45,90.91c-4.48,0-8.11,3.62-8.14,8.1v.05c0,4.49,3.65,8.14,8.14,8.14s8.15-3.65,8.15-8.14v-.05c-.02-4.48-3.66-8.1-8.15-8.1Zm3.72,8.1v.05c0,2.06-1.66,3.72-3.72,3.72s-3.72-1.66-3.72-3.72v-.05"/><circle class="l" cx="120.71" cy="99.02" r="8.14"/><path class="l" d="M42.72,99.02c.02-2.03,1.69-3.67,3.72-3.67s3.7,1.64,3.72,3.67"/><circle class="l" cx="120.71" cy="99.02" r="3.72"/><rect class="l" x="95.09" y="60.05" width="12.54" height="10.91" rx="1.96" ry="1.96"/><polyline class="l" points="23.9 77.97 108.78 77.97 108.78 79.9 23.9 79.9"/></g></svg>