<?xml version="1.0" encoding="UTF-8"?><svg xmlns="http://www.w3.org/2000/svg" viewBox="0 0 169.12 140.65"><defs><style>.f{fill:#c2e8f2;}.g{fill:#9fc9d3;}.h{fill:#e2e2e2;}.i{fill:#ff8585;}.j{fill:#faffff;}.k{fill:#8e8c87;}.l{fill:none;stroke:#3f2a25;stroke-linecap:round;stroke-linejoin:round;stroke-width:.5px;}.m{fill:#4f4a41;}.n{fill:#bc7171;}.o{fill:#c8cdce;}.p{fill:#dfe5e5;}</style></defs><g id="a"/><g id="b"><g><path class="n" d="M135.5,75.46h-2.93c-.98,0-1.87,.4-2.52,1.06-.64,.64-1.04,1.53-1.04,2.5,0,1.97,1.61,3.58,3.56,3.58h2.93v9.08c0,2.97-2.43,5.41-5.41,5.41h-7.11c0-3.71-2.4-6.85-5.74-7.95-.83-.28-1.72-.43-2.64-.43-4.63,0-8.38,3.75-8.38,8.38h-30.39c-.17-3.46-2.44-6.37-5.57-7.48-.88-.31-1.82-.48-2.8-.48-4.49,0-8.15,3.52-8.37,7.96h-9.44c-2.97,0-5.4-2.44-5.4-5.41v-1.63h5.56c.98,0,1.88-.4,2.52-1.04,.64-.66,1.04-1.54,1.04-2.52,0-1.97-1.59-3.56-3.56-3.56h-5.56v-19.96h4.48v3.66c0,1.08,.88,1.96,1.95,1.96h9c1.07,0,1.95-.88,1.95-1.96v-3.66h4.53v3.66c0,1.08,.88,1.96,1.95,1.96h9c1.08,0,1.96-.88,1.96-1.96v-3.66h4.19v3.66c0,1.08,.88,1.96,1.95,1.96h9c1.07,0,1.95-.88,1.95-1.96v-3.66h4.53v3.66c0,1.08,.88,1.96,1.95,1.96h9c1.07,0,1.95-.88,1.95-1.96v-3.66h5.76v3.1c0,1.39,1.13,2.52,2.5,2.52h12.05c.38,.89,.7,1.73,.96,2.52,.43,1.3,.64,2.67,.64,4.05v.3Z"/><path class="n" d="M132.57,82.6c-1.95,0-3.56-1.61-3.56-3.58,0-.97,.4-1.86,1.04-2.5,.65-.66,1.54-1.06,2.52-1.06h2.93v7.14h-2.93Z"/><path class="n" d="M133.9,68.59h-12.05c-1.37,0-2.5-1.13-2.5-2.52v-3.1h11.94c.98,1.94,1.89,3.87,2.61,5.62Z"/><path class="n" d="M131.29,62.97h-11.94v-7.37c0-1.38,1.13-2.51,2.5-2.51h3.96c1.64,2.75,3.68,6.35,5.48,9.88Z"/><path class="n" d="M101.11,47.55h18.62c1.75,.02,3.33,1.04,4.25,2.52,.51,.8,1.14,1.83,1.83,3.02h-3.96c-1.37,0-2.5,1.13-2.5,2.51v7.37h-5.76v-3.65c0-1.08-.88-1.96-1.95-1.96h-9c-1.07,0-1.95,.88-1.95,1.96v3.65h-4.53v-3.65c0-1.08-.88-1.96-1.95-1.96h-9c-1.07,0-1.95,.88-1.95,1.96v3.65h-4.19v-3.65c0-1.08-.88-1.96-1.96-1.96h-9c-1.07,0-1.95,.88-1.95,1.96v3.65h-4.53v-3.65c0-1.08-.88-1.96-1.95-1.96h-9c-1.07,0-1.95,.88-1.95,1.96v3.65h-4.48v-10.01c0-2.96,2.43-5.41,5.4-5.41h51.46Z"/><path class="n" d="M118.43,97.09c0,2.1-1.71,3.82-3.81,3.83,1.71-1.76,2.67-3.95,3.01-6.17,.5,.65,.8,1.46,.8,2.34Z"/><path class="n" d="M113.59,62.97v3.66c0,1.08-.88,1.96-1.95,1.96h-9c-1.07,0-1.95-.88-1.95-1.96v-3.66h12.9Z"/><path class="n" d="M113.59,59.32v3.65h-12.9v-3.65c0-1.08,.88-1.96,1.95-1.96h9c1.07,0,1.95,.88,1.95,1.96Z"/><path class="n" d="M117.24,89.14c3.34,1.1,5.74,4.24,5.74,7.95,0,4.63-3.75,8.38-8.38,8.38-1.81,0-3.48-.57-4.85-1.54l.02-.04c2.04-.66,3.64-1.7,4.85-2.97,2.1,0,3.81-1.73,3.81-3.83,0-.88-.3-1.69-.8-2.34,.31-1.94,.15-3.9-.39-5.61Z"/><path class="n" d="M117.63,94.75c-.34,2.22-1.3,4.41-3.01,6.17h-.02c-2.11,0-3.83-1.72-3.83-3.83s1.72-3.83,3.83-3.83c1.23,0,2.33,.59,3.03,1.49Z"/><path class="n" d="M110.77,97.09c0,2.11,1.72,3.83,3.83,3.83h.02c-1.21,1.27-2.81,2.31-4.85,2.97l-.02,.04c-2.14-1.52-3.53-4.02-3.53-6.84,0-4.63,3.75-8.38,8.38-8.38,.92,0,1.81,.15,2.64,.43,.54,1.71,.7,3.67,.39,5.61-.7-.9-1.8-1.49-3.03-1.49-2.11,0-3.83,1.72-3.83,3.83Z"/><path class="n" d="M96.16,62.97v3.66c0,1.08-.88,1.96-1.95,1.96h-9c-1.07,0-1.95-.88-1.95-1.96v-3.66h12.9Z"/><path class="n" d="M96.16,59.32v3.65h-12.9v-3.65c0-1.08,.88-1.96,1.95-1.96h9c1.07,0,1.95,.88,1.95,1.96Z"/><path class="n" d="M79.07,62.97v3.66c0,1.08-.88,1.96-1.96,1.96h-9c-1.07,0-1.95-.88-1.95-1.96v-3.66h12.91Z"/><path class="n" d="M79.07,59.32v3.65h-12.91v-3.65c0-1.08,.88-1.96,1.95-1.96h9c1.08,0,1.96,.88,1.96,1.96Z"/><path class="n" d="M75.83,97.09c.01,.14,.01,.28,.01,.42,0,4.63-3.75,8.38-8.38,8.38-1.73,0-3.34-.53-4.68-1.43,2.13-.7,3.79-1.8,5.03-3.15,1.95-.17,3.47-1.81,3.47-3.8,0-.79-.24-1.53-.65-2.13h0c.33-1.98,.16-3.97-.39-5.71l.02-.06c3.13,1.11,5.4,4.02,5.57,7.48Z"/><path class="n" d="M70.63,95.38c.41,.6,.65,1.34,.65,2.13,0,1.99-1.52,3.63-3.47,3.8,1.58-1.71,2.49-3.8,2.82-5.93Z"/><path class="n" d="M70.24,89.67c.55,1.74,.72,3.73,.39,5.7-.69-1.02-1.85-1.69-3.17-1.69-2.12,0-3.83,1.71-3.83,3.83s1.71,3.82,3.83,3.82c.12,0,.23,0,.35-.02-1.24,1.35-2.9,2.45-5.03,3.15-2.23-1.5-3.7-4.05-3.7-6.95,0-.14,0-.28,.01-.42,.22-4.44,3.88-7.96,8.37-7.96,.98,0,1.92,.17,2.8,.48l-.02,.06Z"/><path class="n" d="M70.63,95.37h0c-.33,2.14-1.24,4.23-2.82,5.94-.12,.01-.23,.02-.35,.02-2.12,0-3.83-1.71-3.83-3.82s1.71-3.83,3.83-3.83c1.32,0,2.48,.67,3.17,1.69Z"/><path class="n" d="M61.63,62.97v3.66c0,1.08-.88,1.96-1.95,1.96h-9c-1.07,0-1.95-.88-1.95-1.96v-3.66h12.9Z"/><path class="n" d="M61.63,59.32v3.65h-12.9v-3.65c0-1.08,.88-1.96,1.95-1.96h9c1.07,0,1.95,.88,1.95,1.96Z"/><path class="n" d="M49.81,82.93c1.97,0,3.56,1.59,3.56,3.56,0,.98-.4,1.86-1.04,2.52-.64,.64-1.54,1.04-2.52,1.04h-5.56v-7.12h5.56Z"/></g></g><g id="c"><g><path class="j" d="M117.25,89.14c-.83-.28-1.72-.43-2.64-.43-4.63,0-8.38,3.75-8.38,8.38h-30.4c-.17-3.46-2.44-6.37-5.56-7.48-.88-.32-1.82-.49-2.81-.49-4.48,0-8.16,3.54-8.37,7.97h-9.44c-2.97,0-5.39-2.44-5.39-5.41v-1.63h5.56c.98,0,1.88-.4,2.52-1.04,.64-.66,1.04-1.55,1.04-2.52,0-1.97-1.59-3.56-3.56-3.56h-5.56v-19.96h4.47v3.66c0,1.08,.88,1.96,1.96,1.96h8.99c1.08,0,1.96-.88,1.96-1.96v-3.66h4.53v3.66c0,1.08,.88,1.96,1.95,1.96h9c1.07,0,1.95-.88,1.95-1.96v-3.66h4.19v3.66c0,1.08,.88,1.96,1.96,1.96h8.99c1.08,0,1.96-.88,1.96-1.96v-3.66h4.52v3.66c0,1.08,.88,1.96,1.96,1.96h8.99c1.08,0,1.96-.88,1.96-1.96v-3.66h5.75v3.1c0,1.39,1.13,2.52,2.51,2.52h12.05c.37,.88,.7,1.73,.95,2.52,.44,1.29,.64,2.67,.64,4.04v.31h-2.92c-.98,0-1.87,.4-2.52,1.06-.65,.64-1.04,1.52-1.04,2.5,0,1.97,1.6,3.57,3.56,3.57h2.92v9.09c0,2.97-2.42,5.41-5.4,5.41h-7.11c0-3.71-2.4-6.85-5.74-7.95Z"/><path class="h" d="M135.5,75.46v7.13h-2.92c-1.96,0-3.56-1.6-3.56-3.57,0-.98,.39-1.86,1.04-2.5,.65-.66,1.54-1.06,2.52-1.06h2.92Z"/><path class="f" d="M133.91,68.59h-12.05c-1.38,0-2.51-1.13-2.51-2.52v-3.1h11.95c.98,1.94,1.89,3.87,2.61,5.62Z"/><path class="g" d="M131.3,62.97h-11.95v-7.37c0-1.38,1.13-2.51,2.51-2.51h3.96c1.64,2.75,3.68,6.35,5.48,9.88Z"/><path class="p" d="M101.12,47.55h18.62c1.75,0,3.33,1.04,4.25,2.52,.5,.8,1.13,1.82,1.83,3.02h-3.96c-1.38,0-2.51,1.13-2.51,2.51v7.37h-5.75v-3.66c0-1.07-.88-1.95-1.96-1.95h-8.99c-1.08,0-1.96,.88-1.96,1.95v3.66h-4.52v-3.66c0-1.07-.88-1.95-1.96-1.95h-8.99c-1.08,0-1.96,.88-1.96,1.95v3.66h-4.19v-3.66c0-1.07-.88-1.95-1.95-1.95h-9c-1.07,0-1.95,.88-1.95,1.95v3.66h-4.53v-3.66c0-1.07-.88-1.95-1.96-1.95h-8.99c-1.08,0-1.96,.88-1.96,1.95v3.66h-4.47v-10.01c0-2.97,2.42-5.41,5.39-5.41h51.47Z"/><path class="m" d="M117.25,89.14c3.34,1.1,5.74,4.24,5.74,7.95,0,4.62-3.75,8.38-8.38,8.38-1.81,0-3.49-.58-4.86-1.55l.03-.04c2.03-.66,3.63-1.7,4.84-2.96,2.11-.01,3.82-1.72,3.82-3.83,0-.88-.3-1.7-.8-2.34,.31-1.94,.15-3.9-.39-5.61Z"/><path class="o" d="M117.64,94.75c.5,.64,.8,1.46,.8,2.34,0,2.11-1.71,3.82-3.82,3.83,1.72-1.75,2.68-3.95,3.02-6.17Z"/><path class="k" d="M117.25,89.14c.54,1.71,.7,3.67,.39,5.61-.7-.91-1.8-1.49-3.03-1.49-2.12,0-3.83,1.71-3.83,3.83s1.71,3.83,3.83,3.83h0c-1.21,1.26-2.81,2.3-4.84,2.96l-.03,.04c-2.13-1.52-3.52-4.02-3.52-6.83,0-4.63,3.75-8.38,8.38-8.38,.92,0,1.81,.15,2.64,.43Z"/><path class="h" d="M114.61,93.26c1.23,0,2.33,.58,3.03,1.49-.34,2.22-1.3,4.42-3.02,6.17h0c-2.12,0-3.83-1.72-3.83-3.83s1.71-3.83,3.83-3.83Z"/><path class="f" d="M113.6,62.97v3.66c0,1.08-.88,1.96-1.96,1.96h-8.99c-1.08,0-1.96-.88-1.96-1.96v-3.66h12.91Z"/><path class="g" d="M113.6,59.31v3.66h-12.91v-3.66c0-1.07,.88-1.95,1.96-1.95h8.99c1.08,0,1.96,.88,1.96,1.95Z"/><path class="f" d="M96.17,62.97v3.66c0,1.08-.88,1.96-1.96,1.96h-8.99c-1.08,0-1.96-.88-1.96-1.96v-3.66h12.91Z"/><path class="g" d="M96.17,59.31v3.66h-12.91v-3.66c0-1.07,.88-1.95,1.96-1.95h8.99c1.08,0,1.96,.88,1.96,1.95Z"/><path class="f" d="M79.07,62.97v3.66c0,1.08-.88,1.96-1.95,1.96h-9c-1.07,0-1.95-.88-1.95-1.96v-3.66h12.9Z"/><path class="g" d="M79.07,59.31v3.66h-12.9v-3.66c0-1.07,.88-1.95,1.95-1.95h9c1.07,0,1.95,.88,1.95,1.95Z"/><path class="m" d="M75.83,97.09c.01,.14,.01,.27,.01,.41,0,4.63-3.75,8.39-8.38,8.39-1.73,0-3.34-.53-4.68-1.43,2.14-.7,3.8-1.8,5.04-3.15,1.95-.18,3.47-1.81,3.47-3.81,0-.79-.24-1.52-.65-2.13,.32-1.97,.16-3.96-.39-5.7l.02-.06c3.12,1.11,5.39,4.02,5.56,7.48Z"/><path class="o" d="M70.64,95.37c.41,.61,.65,1.34,.65,2.13,0,2-1.52,3.63-3.47,3.81,1.58-1.71,2.48-3.81,2.82-5.94Z"/><path class="k" d="M59.09,97.09c.21-4.43,3.89-7.97,8.37-7.97,.99,0,1.93,.17,2.81,.49l-.02,.06c.55,1.74,.71,3.73,.39,5.7-.69-1.02-1.86-1.69-3.18-1.69-2.11,0-3.82,1.71-3.82,3.82s1.71,3.83,3.82,3.83c.12,0,.24-.01,.36-.02-1.24,1.35-2.9,2.45-5.04,3.15-2.23-1.51-3.7-4.07-3.7-6.96,0-.14,0-.27,.01-.41Z"/><path class="h" d="M67.46,93.68c1.32,0,2.49,.67,3.18,1.69-.34,2.13-1.24,4.23-2.82,5.94-.12,.01-.24,.02-.36,.02-2.11,0-3.82-1.71-3.82-3.83s1.71-3.82,3.82-3.82Z"/><path class="f" d="M61.64,62.97v3.66c0,1.08-.88,1.96-1.96,1.96h-8.99c-1.08,0-1.96-.88-1.96-1.96v-3.66h12.91Z"/><path class="g" d="M61.64,59.31v3.66h-12.91v-3.66c0-1.07,.88-1.95,1.96-1.95h8.99c1.08,0,1.96,.88,1.96,1.95Z"/><path class="i" d="M49.82,82.93c1.97,0,3.56,1.59,3.56,3.56,0,.97-.4,1.86-1.04,2.52-.64,.64-1.54,1.04-2.52,1.04h-5.56v-7.12h5.56Z"/></g></g><g id="d"><g id="e"/><line class="l" x1="106.23" y1="97.09" x2="75.83" y2="97.09"/><path class="l" d="M59.1,97.09h-9.44c-2.97,0-5.4-2.44-5.4-5.41V52.96c0-2.97,2.43-5.41,5.4-5.41H119.74c1.75,.01,3.33,1.04,4.25,2.52,.5,.8,1.13,1.82,1.82,3.02,2.54,4.27,6.07,10.56,8.1,15.5,.37,.89,.69,1.73,.95,2.52,.44,1.3,.64,2.67,.64,4.05v16.53c0,2.97-2.43,5.41-5.41,5.41h-7.11"/><path class="l" d="M125.81,53.09h-3.96c-1.37,0-2.51,1.13-2.51,2.51v10.47c0,1.39,1.13,2.52,2.51,2.52h12.05"/><rect class="l" x="100.69" y="57.36" width="12.91" height="11.23" rx="1.96" ry="1.96"/><rect class="l" x="83.26" y="57.36" width="12.91" height="11.23" rx="1.96" ry="1.96"/><rect class="l" x="66.16" y="57.36" width="12.91" height="11.23" rx="1.96" ry="1.96"/><rect class="l" x="48.73" y="57.36" width="12.91" height="11.23" rx="1.96" ry="1.96"/><path class="l" d="M44.25,90.05h5.56c.98,0,1.88-.4,2.52-1.04,.64-.66,1.04-1.54,1.04-2.52,0-1.97-1.59-3.56-3.56-3.56h-5.56"/><path class="l" d="M135.5,82.59h-2.93c-1.95,0-3.56-1.61-3.56-3.57,0-.98,.4-1.86,1.04-2.51s1.54-1.05,2.52-1.05h2.93"/><circle class="l" cx="67.46" cy="97.5" r="8.38"/><circle class="l" cx="114.61" cy="97.08" r="8.38"/><line class="l" x1="63.69" y1="39.09" x2="87.74" y2="47.56"/><line class="l" x1="77.09" y1="37.81" x2="101.14" y2="47.56"/><circle class="l" cx="67.46" cy="97.5" r="3.83"/><circle class="l" cx="114.61" cy="97.09" r="3.83"/></g></svg>