<?xml version="1.0" encoding="UTF-8"?><svg xmlns="http://www.w3.org/2000/svg" viewBox="0 0 336.39 513.21"><defs><style>.f{fill:#ead0d0;}.g{fill:#fcb9b9;}.h{fill:#fff;}.i{fill:#6b3d34;}.j{fill:#c47b49;}.k{fill:#bf7e67;}.l{fill:#eab5a7;}.m{fill:#507096;}.n{fill:#7f4d40;}.o{fill:#bc7171;}.p{fill:#6a964d;}.q{fill:#fc9;}.r{fill:#77b566;}.s{stroke-width:2px;}.s,.t{fill:none;stroke:#3f2a25;stroke-linecap:round;stroke-linejoin:round;}.u{fill:#e09f57;}.v{fill:#eaa0a0;}.w{fill:#3d587f;}.x{fill:#d17e75;}.y{fill:#dba77f;}.a`{fill:#935d51;}.aa{fill:#cc8e87;}.ab{fill:#e08f82;}</style></defs><g id="a"><path class="s" d="M201.15,330.23c.65,3.93-.03,10.45-.46,14.58-2.5,23.74-5.8,52.31-10.52,54.38-4.77,2.1-8.13,2.95-12.79,.3-3.26-1.87-1.17-36.52-4.95-38.48-.91-.47-1.96-.76-3.06-.9h-.01c-3.05-.44-6.45,.13-8.15,.64-.79,.23-1.32,1.4-1.68,3.2-1.83,9.17,.98,34.79-2.1,36.45-4.53,2.45-9.3,1.31-12.52-.13-3.88-1.73-3.77-6.29-13.96-54.39-.82-3.88-1.28-10.22-.61-14.77"/><path class="s" d="M153.93,328.09c3.37,.22,7.06,.33,11.07,.33,2.01,0,3.93-.03,5.78-.08,2.41-.07,4.68-.18,6.82-.34"/><path class="s" d="M215.43,293.6c0,7.19,0,13.02-50.43,13.02s-50.43-5.83-50.43-13.02"/><path class="s" d="M200.42,182.43c5.33,9.09,8.49,19.8,10.27,29.89,.27,1.51,.5,3,.71,4.47,1.07,7.57-1.95,14.34-7.46,19.87-9.31,9.35-25.74,15.15-41.63,15.22"/><path class="s" d="M154.33,251.54c-22.87-2.01-44.57-13-42.06-32.92,.93-7.37,2.4-15.38,4.93-23.05"/><path class="s" d="M177.77,158.08h0c5.39-10.17,11.46-26.68,15.63-45.9,5.8-26.71,19.55-41.95,26.61-40.96,9.47,1.34,21.09,36.75,7.3,63.66-8.47,16.53-22.59,26.78-30.91,33.72,0,.01-.03,.02-.04,.04"/><path class="s" d="M188.95,164.55c.26-.36,.53-.75,.8-1.14,4.37-6.46,9.67-16.74,10.17-30.29,.58-15.55,2.54-27.98,5.87-40.11"/><path class="s" d="M145.64,159.49c-4.4-10.22-8.28-25.97-10.69-46.2-3.24-27.13-15.48-43.62-22.6-43.3-9.55,.43-24.49,34.58-13.32,62.67,7.37,18.52,21.73,30.4,28.95,38.07,.07,.07,.13,.13,.18,.19"/><path class="s" d="M124.44,93.03c2.15,12.39,2.93,24.95,2.02,40.48-.9,15.62,4.5,26.79,8.42,33.18"/><path class="s" d="M175.06,217.31c-2.07-4.93,3.85-18.37,10.1-19.87,5.57-1.34,13.79,9.03,11.31,15.93-2.48,6.9-19.41,8.72-21.41,3.94Z"/><path class="s" d="M179.2,202.31c5.96-4.86,18.5,13.98,6.33,17.43"/><path class="s" d="M144.79,217.97c1.75-5.06-5.02-18.09-11.35-19.19-5.64-.98-13.18,9.89-10.27,16.62,2.91,6.73,19.93,7.46,21.62,2.56Z"/><path class="s" d="M139.69,203.26c-6.26-4.47-17.57,15.14-5.2,17.8"/><path class="s" d="M147.36,189.92c1.32,1.57,1.24,4.11,.46,4.66-1.15,.81-5.06-1.79-5.91-3.71"/><path class="s" d="M172.82,192.88c-.54-.68,.62-3.33,2.95-4.04,1.77-.54,3.91,.14,4.01,.95,.19,1.46-6.09,4.18-6.96,3.09Z"/><path class="s" d="M159,224.73c2.64-.16,4.33-1.82,3.75-3.28-.44-1.11-6.77-.25-7.37,.49-.65,.79,1.58,2.92,3.62,2.79Z"/><path class="s" d="M158.95,230.8c.3-2.22,.34-5.24,.11-6.06"/><path class="s" d="M112.64,215.84c-12.56-5.07-29.11-5.88-40.49-3.07"/><path class="s" d="M80.43,231.12c11.2-3.95,22.55-5.88,32.06-5.1"/><path class="s" d="M211.53,214.65c12.56-5.07,28.56-5.84,39.93-3.03"/><path class="s" d="M243.19,229.96c-11.2-3.95-22.55-5.88-32.06-5.1"/><path class="s" d="M155.78,259.72c-.73,.26-1.61,.45-2.56,.62-3.39,.61-7.75,.94-10.21,2.8-.83,.63-1.91,1.82-3.09,3.33"/><line class="s" x1="169.37" y1="360.11" x2="169.36" y2="360.11"/><path class="s" d="M173.98,250.85c-.01,2.07,.53,3.9,1.48,6.31,1.27,3.23,10.53,2.1,14.41,5.06,.32,.24,.65,.56,.99,.93"/><path class="s" d="M200.02,278.67c-.51-1.13-1.13-2.43-1.81-3.8"/><path class="s" d="M127.08,325.08c.32-.4,.63-.81,.94-1.2,4.63-5.95,8.85-11.3,12.63-13.64h0c1.56-.97,3.04-1.43,4.44-1.2,5.95,.95,11.08,14.15,8.87,19.22-.01,.02-.01,.05-.02,.07,0,0,0,.02-.01,.03-1.29,4.83-15.46,7.25-23.59,2.87-1.26-.68-2.38-1.53-3.28-2.56"/><path class="s" d="M127.08,324.64s0,.02-.02,.03"/><path class="s" d="M149.32,312.05c1.1,3.94,1.85,8.45-.84,10.85"/><path class="s" d="M140.65,310.59h0c.54,5.01,.12,8.14-1.68,11.28"/><path class="s" d="M116.52,300.35c0,8.57,0,16.23,8.28,21.36,.93,.58,1.97,1.13,3.13,1.63,.03,.02,.06,.04,.09,.04"/><path class="s" d="M203.34,322.74s.06-.03,.09-.04c1.14-.58,2.15-1.2,3.05-1.86,6.99-5.1,6.99-12.39,6.99-20.49"/><path class="s" d="M114.76,290.29h0c.21,1.12,.65,2.17,1.53,3.14,.02,.03,.05,.06,.08,.09,2.67,2.82,9.28,4.97,25.64,5.94h0c3.9,.24,8.35,.39,13.43,.48,2.96,.05,6.14,.08,9.55,.08s6.62-.03,9.6-.08c2.01-.03,3.92-.08,5.74-.14,1.56-.05,3.04-.11,4.47-.17,18.7-.86,25.98-3.11,28.81-6.12,.03-.03,.06-.06,.08-.09,.9-.97,1.32-2.04,1.53-3.15h0"/><path class="s" d="M114.57,293.33v-.41c0-.35,.01-.7,.02-1.04,.05-1.51,.26-2.95,1.15-4.26,.38-.56,.89-1.1,1.56-1.61"/><line class="s" x1="185.23" y1="280.73" x2="185.22" y2="280.73"/><line class="s" x1="195.77" y1="281.5" x2="195.76" y2="281.5"/><line class="s" x1="192.44" y1="281.19" x2="192.43" y2="281.19"/><path class="s" d="M207.53,283.59c.32,.1,.63,.2,.93,.3,6.97,2.38,6.97,5.73,6.97,9.44"/><path class="s" d="M145.97,280.67c2.11-.09,4.36-.16,6.76-.22,.59-.01,1.18-.03,1.79-.04"/><path class="s" d="M123.17,283.39c.71-.2,1.49-.39,2.33-.57,1.04-.23,2.17-.44,3.42-.64"/><path class="s" d="M140.74,287.46h.02c.45-.03,.9-.06,1.36-.09"/><path class="s" d="M187.35,287.34h-.06c-.07,0-.14-.01-.22-.01,0,0,0-.01,0,0"/><path class="s" d="M209.38,290.74c.08,.02,.15,.05,.22,.08,1.88,.75,3.16,1.59,4.02,2.51,.03,.03,.06,.06,.08,.09"/><path class="s" d="M157.61,286.87h.09"/><line class="s" x1="155.81" y1="286.89" x2="155.8" y2="286.89"/><path class="s" d="M156.16,286.89h-.02"/><path class="s" d="M116.29,293.43s.05-.06,.08-.09c1.04-1.1,2.66-2.1,5.21-2.96,.44-.15,.91-.29,1.4-.44"/><path class="s" d="M124.8,321.71c.01,2.28,.52,4.98,2.26,6.71"/><path class="s" d="M204.09,323.74c.03,.05,.06,.09,.1,.14"/><path class="s" d="M204.21,324.39s-.01,0-.02-.03c-.29-.36-.57-.72-.85-1.08-6.58-8.45-12.31-15.72-17.15-14.95-5.95,.95-11.08,14.15-8.87,19.22,.06,.26,.15,.49,.28,.73,2.68,5.11,20.19,7.02,26.61-.32"/><path class="s" d="M181.96,311.38c-1.1,3.94-1.85,8.45,.84,10.85"/><path class="s" d="M190.63,309.92c-.54,5.01-.12,8.13,1.68,11.27"/><path class="s" d="M206.48,320.84c0,2.3-.5,5.06-2.27,6.82"/><path class="s" d="M145.94,272.33c-.05,.36-.12,.76-.2,1.18"/><line class="s" x1="189.34" y1="279.74" x2="189.34" y2="279.73"/><path class="s" d="M175.54,226.24c-4.51-4.64-9.39,4.34-16.59,4.56-4.39,.14-8.64-1.47-10.49,1.19-2.83,4.05,6.67,7.02,13.45,6.35,8.63-.85,17.33-8.28,13.63-12.09Z"/><path class="s" d="M160.58,230.6c.98,1.68,1.61,6.58,1.34,7.73"/><path class="s" d="M167.81,226.98c.98,1.68,2.67,7.48,2.4,8.63"/><path class="s" d="M152.9,230.45c.98,1.68,.81,5.95,.54,7.1"/><path class="s" d="M175.01,231.67c14.81-.98,38.49,6.46,55.41,18.11"/><path class="s" d="M212.19,239.96c-.79,2.96,.46,6.65,.88,6.68,.75,.06,1.43-3.35,2.22-3.26,.82,.09,.65,3.79,1.83,4.04,.93,.2,1.7-1.98,2.61-1.83,1.55,.26,1.41,7,2.22,7.04,.66,.04,1-4.47,2.09-4.57,1.53-.13,2.96,8.71,4.7,8.61,1.19-.07,.1-4.33,1.4-4.47,1.93-.21,4.41,8.72,6.82,8.27,1.59-.29-3.83-7.64-2.75-9.93,.52-1.1,6.26-1.79,6.26-2.35,0-.86-10.8-1.27-10.83-2.22-.02-.73,6.95-1.08,6.39-1.83-.96-1.29-12.23,.07-12.39-1.17-.12-.9,6.78-1.88,6-2.87-1.69-2.15-11.71,1.39-12.13-.13-.18-.65,1.98-1.22,1.57-2.09-.24-.5-6.21-.33-7.84,1.68"/><circle class="s" cx="152.4" cy="272.26" r="2.08"/><path class="s" d="M149.85,260.89c.5,1.84,1.01,8.07,.76,10.33"/><path class="s" d="M153.9,266.55c-.1-2.39-.35-5.01-.68-6.21"/><path class="s" d="M179.97,272.15c-.03-.13-.04-.26-.04-.4,0-1.15,.93-2.08,2.08-2.08,.21,0,.41,.03,.6,.09"/><path class="s" d="M184.57,260.37c-.39,1.45-.79,5.58-.82,8.39"/><path class="s" d="M181.19,259.83c-.58,2.08-.89,8.46-.66,10.46"/><path class="s" d="M179.93,272c-.79-.05-1.61-.1-2.46-.13"/><path class="s" d="M155.12,272.22c-.21,0-.42,.03-.63,.04"/><path class="s" d="M151.46,274.12c-.52,1.88-3.19,4.23-5.32,4.78"/><path class="s" d="M140.14,389.76c8.3,2.57,10.63,2.38,18.82,1.52"/><path class="s" d="M194.37,389.76c-8.3,2.57-10.53,2.52-18.73,1.66"/><path class="s" d="M112.07,222.64c-26.64-.8-50.55-3.75-50.94-8.41-1.14-13.6,195.72-46.31,197.6-29.74,.99,8.68-26.72,21.73-48.04,27.84"/><path class="s" d="M61.51,213.02c8.42-18.87,169.99-53.1,196.7-29.72"/><path class="s" d="M202,175.22c-1.65-2.43-3.53-4.64-5.6-6.62"/><path class="s" d="M177.77,158.07c-10.21-2.92-21.61-2.55-32.13,1.42-.02,.01-.03,.02-.05,.03"/><path class="s" d="M115.13,190.01c3.22-7.83,7.65-14.23,12.85-19.28"/><path class="s" d="M128.15,170.92c8.17-5.02,9.56-6.17,17.49-11.42"/><path class="s" d="M177.77,158.08c7.71,4.34,10.99,6.55,18.59,10.56"/><path class="s" d="M197.74,298.62c-.1-.34-.21-.68-.33-1.01-.7-1.91-1.81-3.76-3.21-5.37-.24-.28-.48-.55-.73-.8-1.5-1.55-3.26-2.81-5.16-3.65-.32-.13-.64-.26-.96-.37-.09-.03-.19-.06-.28-.09,0,0,0-.01,0,0-.86-.28-1.74-.48-2.64-.55"/><path class="s" d="M187.35,287.41v-.07c.01-2.1,.65-4.52,1.44-6.42,.13-.31,.26-.6,.39-.88,.05-.11,.1-.2,.16-.3h0c.67-1.32,1.36-2.19,1.82-2.19,.57,0,.82,.37,.94,.9,.13,.53,.12,1.22,.18,1.87,.03,.31,.07,.6,.15,.87h.01c.16,.59,.5,1.03,1.23,1.08,.45,.04,1.17-.25,2.09-.77h.01c.32-.19,.67-.4,1.04-.63,.16-.1,.32-.2,.48-.31,.83-.54,1.75-1.19,2.73-1.89,6.12-4.43,14.38-11.23,16.14-10.01,2.66,1.85-4.43,9.71-8.58,14.87-.02,.02-.03,.04-.05,.06-1.62,2.04-2.79,3.65-2.69,4.27,.33,2,4.16-.28,4.59,2.44,.02,.13,0,.28-.05,.44-.1,.32-.35,.7-.72,1.11-1.71,1.96-6.1,4.73-11.25,5.76"/><path class="s" d="M183.69,299.68c-2.26-3.01-5.75-5.11-9.93-7.01h-.01"/><path class="s" d="M178.81,273.25c.39-.37,.77-.74,1.16-1.1,.88-.82,1.76-1.62,2.64-2.39,.38-.34,.76-.67,1.14-1,.75-.65,1.49-1.27,2.21-1.86,1.75-1.44,3.41-2.71,4.9-3.75,3.32-2.35,5.78-3.58,6.41-3.02,1.63,1.43,1.87,7.44,.94,14.74-.23,1.83-.54,3.75-.92,5.69"/><path class="s" d="M187.93,282.46c-1-.62-1.89-1.18-2.7-1.73h-.01c-1.39-.93-2.55-1.81-3.62-2.83,0-.01-.01-.01-.01-.02"/><path class="s" d="M185.96,266.9c1.25,3.55,3.63,5.8,7.03,7.64"/><path class="s" d="M147.28,310.1h-.01m-2.47-10.48c.62-3.74,2.47-7.46,5.25-9.93,1.11-.98,2.37-1.75,3.76-2.25t.02-.01c.12-.05,.24-.09,.36-.13,.01,0,.02-.01,.03-.01,.51-.16,1.05-.28,1.6-.36,.11-.02,.21-.03,.32-.04h.02s.1-.02,.14-.03c.42-.04,.85-.04,1.31,.01h.09c.27,.03,.54,.07,.82,.12,.27,.04,.53,.1,.81,.18,1.79,.46,3.81,1.39,5.94,2.64,2.24,1.31,4.6,3.01,6.97,4.88,.96,.77,1.92,1.56,2.86,2.38,.57,.48,1.13,.98,1.69,1.48,.48,.43,.96,.86,1.43,1.3l.02,.02"/><path class="s" d="M150.05,289.69c-.36-.88-.87-1.77-1.44-2.62-2.03-2.98-4.96-5.43-5.81-5.08-1.86,.76,1.66,4.24-.55,5.33-.04,.02-.08,.04-.13,.05-.31,.11-.77,.13-1.36,.09-.66-.04-1.47-.17-2.41-.35h-.01c-2.2-.42-5.06-1.17-7.98-1.94-1.9-.49-3.82-1-5.62-1.42-.54-.13-1.06-.25-1.57-.36-3.54-.78-6.3-1.09-6.88-.21-.53,.81-.06,1.78,1.01,2.83,.62,.61,1.44,1.24,2.39,1.89,.99,.67,2.11,1.36,3.29,2.04,.79,.46,1.6,.92,2.41,1.36,4.25,2.33,8.39,4.41,8.62,5.4,.25,1.11-1.01,1.38-2.07,1.88"/><path class="s" d="M179.94,287.34h-.01"/><path class="s" d="M178.24,299.87l-.02-.02c-.47-.44-.95-.87-1.43-1.3-.56-.5-1.12-1-1.69-1.48-.94-.82-1.9-1.61-2.86-2.38,.38-.54,.76-1.05,1.14-1.54,.12-.16,.25-.32,.38-.48,.48-.62,.99-1.22,1.49-1.76h.01c1.58-1.72,3.16-2.98,4.67-3.57h0"/><path class="s" d="M179.94,287.33h.01c.18-.07,.36-.13,.54-.18,.12-.03,.23-.07,.35-.09,1.2-.32,2.4-.39,3.58-.28-.48-2.18-1.06-4.26-1.75-6.17-.12-.34-.24-.67-.37-1-.22-.59-.46-1.16-.71-1.71v-.02c-.81-1.8-1.74-3.37-2.78-4.63-.43-.52-.87-.98-1.34-1.38-.53-.45-1.09-.83-1.67-1.12-1.3-.65-2.79-1.05-4.35-1.22-4.71-.49-10.17,1.14-13.6,4.5h-.01c-1.52,1.49-2.64,3.31-3.15,5.42-.04,.2-.08,.41-.12,.62-.02,.11-.04,.22-.05,.34-.06,.46-.06,.96-.03,1.48,.09,1.2,.41,2.53,.92,3.96,.12,.34,.25,.68,.39,1.04h.01s0,.03,0,.04"/><path class="s" d="M171.45,269.53c1.79-6.68,.29-13.54-1.22-14.01-2.63-.82-2.28,3.63-4.22,3.03-.79-.25-2.13-3.18-3.7-6.67-2.66-5.9-5.99-13.37-8.48-11.99-1.3,.72-.52,6,.5,11.65,.5,2.8,1.06,5.7,1.45,8.18,.5,3.11,.74,5.57,.27,6.37-.5,.84-1.3,.75-2.15,.46-1.28-.46-2.66-1.39-3.2-.31-.29,.58,.73,2.3,2.35,4.04"/><path class="s" d="M154.37,271.59c.25,.22,.49,.43,.75,.63,.87,.72,1.8,1.35,2.73,1.81"/><path class="s" d="M158.52,286.99c3.82-2.83,7.58-4.65,11.78-4.47"/><path class="s" d="M130.36,285.17c-5.34-10.58-8.56-22.33-6.66-24.91,.72-.98,5.96,.88,12.45,4.18,1.9,.97,3.9,2.07,5.94,3.25"/><path class="s" d="M155.41,285.85c-.52,.58-1.04,1.11-1.6,1.6"/><path class="s" d="M143.72,272.59c-1.46,2.73-3.28,4.61-6.17,7.42"/><path class="s" d="M136.15,264.45c-.46,3.72-2.29,6.42-5.22,8.93"/><path class="s" d="M141.17,284.1c-1.04,1.25-1.91,2.2-2.83,3.01"/><path class="s" d="M142.09,267.7c-.79,1.65-.71,2.71-.35,3.41,.41,.79,1.16,1.17,1.98,1.48,1.15,.46,2.44,.81,3.05,2.1,1.07,2.35-1.7,4.38-.59,6.55,.94,1.8,4.01,2.6,6.15,1.9,1.22-.39,1.7-.93,2.17-1.25"/><path class="s" d="M157.66,299.98c.83-3.69,3.16-7.06,6.21-10.52"/></g><g id="b"><g><path class="o" d="M186.46,163.07c.83,.49,1.65,.97,2.49,1.46-1.02-.27-1.84-.77-2.49-1.46Z"/><path class="o" d="M146.78,277.25c0,.49,.07,.92,.17,1.35-.26,.11-.52,.2-.77,.27h-.01c.17-.54,.42-1.08,.61-1.62Z"/><path class="o" d="M155.86,286.82s0,.03,.01,.04c-.02,0-.03,0-.05,.01h-.02c-.53,.08-1.04,.2-1.53,.35-.01,0-.02,.01-.03,.01-.12,.04-.24,.08-.36,.13,.16-.15,.33-.3,.48-.46,.38-.34,.74-.72,1.1-1.12,.12,.34,.25,.68,.39,1.04h.01Z"/><path class="o" d="M258.75,184.46c.98,8.68-26.73,21.73-48.05,27.84-1.78-10.09-4.94-20.8-10.27-29.89,27.35-2.97,49.7-3.66,56.33-.24,.02,0,.03,.01,.05,.03,.5,.34,.98,.71,1.41,1.09,.31,.36,.48,.75,.53,1.17Z"/><path class="o" d="M126.41,193.72c-3.12,.6-6.2,1.22-9.2,1.83-29.36,6.06-52.49,12.67-55.68,17.44,3-6.68,25.15-15.28,53.72-22.56,24.96-6.37,54.82-11.74,81.06-13.94,1.94-.17,3.86-.32,5.76-.44,24.67-1.67,45.42-.27,54.69,6.12-6.63-3.42-28.98-2.73-56.33,.24-16.64,1.79-35.13,4.43-53.06,7.49-1.82,.31-3.64,.63-5.45,.95-5.27,.92-10.46,1.88-15.51,2.87Z"/><path class="o" d="M220.76,243.91c-1.33-.71-2.68-1.39-4.05-2.05l.86-1.79c.84,1.26,10.43-2.07,12.08,.03,.78,.99-6.12,1.97-6,2.87,.16,1.24,11.42-.12,12.39,1.17,.55,.75-6.41,1.1-6.39,1.83,.02,.95,10.82,1.36,10.82,2.22,0,.55-5.74,1.24-6.26,2.34-1.08,2.3,4.34,9.64,2.75,9.93-2.42,.45-4.9-8.48-6.82-8.27-1.3,.15-.21,4.4-1.41,4.48-1.73,.1-3.16-8.74-4.69-8.61-1.09,.09-1.43,4.6-2.09,4.56-.78-.04-.68-6.37-2.08-7l.89-1.71Z"/><path class="o" d="M229.94,84.29c4.65,13.05,6.12,33.51-2.62,50.57-8.47,16.53-22.59,26.78-30.91,33.72-.01,.01-.03,.02-.04,.04-2.95-1.55-5.25-2.84-7.41-4.09,.26-.36,.53-.75,.8-1.14,.3-.44,.6-.89,.89-1.36,6.71,1.52,9.02,.78,21.09-11.61,9.66-9.93,22.75-34.63,18.18-66.12h.02Z"/><path class="o" d="M229.92,84.3c4.57,31.49-8.52,56.19-18.18,66.12-12.07,12.39-14.38,13.13-21.09,11.61,4.17-6.5,8.81-16.29,9.28-28.93,.58-15.55,2.54-27.98,5.87-40.11h0c2.04-5.51,11.26-21.7,18.58-18.97h.01c2.03,2.28,3.98,5.85,5.55,10.27h-.01Z"/><path class="o" d="M224.38,74.01h-.01c-7.32-2.72-16.54,13.47-18.58,18.98h0c-3.33,12.13-5.29,24.56-5.87,40.11-.47,12.64-5.11,22.43-9.28,28.93-.29,.47-.59,.92-.89,1.36-.27,.39-.54,.78-.8,1.14h0c-.84-.49-1.66-.97-2.49-1.46-5.05-5.26-.54-21.54,1.77-30.63l-.16-.05c1.96-6.24,3.78-13.05,5.34-20.23,5.8-26.71,19.55-41.95,26.61-40.96,1.43,.2,2.92,1.19,4.36,2.81Z"/><path class="o" d="M220.76,243.91l-.89,1.71s-.09-.03-.14-.04c-.9-.15-1.67,2.03-2.6,1.82-1.18-.25-1.01-3.95-1.83-4.04h-.03l.6-1.9c.28,.14,.56,.27,.84,.4,1.37,.66,2.72,1.34,4.05,2.05Z"/><path class="o" d="M219.08,237.88c.42,.87-1.74,1.44-1.56,2.09,.01,.04,.03,.07,.05,.1l-.86,1.79c-.28-.13-.56-.26-.84-.4-1.2-.56-2.41-1.11-3.63-1.62-.3-.14-.6-.26-.9-.38,1.74-1.92,7.5-2.07,7.74-1.58Z"/><path class="o" d="M194.17,292.08c-.21-.25-.43-.49-.65-.71-1.5-1.55-3.26-2.81-5.16-3.65-.32-.13-.64-.26-.96-.37l-.09-.03s.06,0,.09,0v-.06c.01-1.56,.36-3.3,.87-4.87,.17-.52,.36-1.03,.55-1.5,.01-.02,.01-.03,.02-.05,.13-.31,.26-.6,.39-.88,.05-.11,.1-.2,.16-.3h0c.67-1.32,1.36-2.19,1.82-2.19,.57,0,.82,.37,.94,.9,.13,.53,.12,1.22,.18,1.87l.03,.24h-.01c0,1.08-.93,2.57-.35,2.92,.63,.38,2.58-1.3,3.76-1.91l-.02-.03s.05-.03,.07-.04h0c.32-.19,.67-.4,1.04-.63,.16-.1,.32-.2,.48-.31,.38-.25,.77-.51,1.19-.8,.47-.33,.97-.69,1.49-1.05,.02-.02,.03-.03,.05-.04,6.12-4.43,14.38-11.23,16.14-10.01,.75,.52,.73,1.51,.22,2.78l-.27-.1c-9.89,12.92-15.08,14.01-14.06,16.21,.69,1.49,2.86,2.02,2.8,3.36-.08,1.76-4.71,4.12-8.09,4.93l-.1,.05c-.65-1.29-1.49-2.53-2.46-3.65-.03-.03-.05-.06-.08-.09Zm3.1-3.93c1.07-1.4,1.84-2.86,1.4-3.38-.63-.74-4.06,1.66-5.56,2.95h-.01c-.26,.23-.46,.42-.58,.55-.83,.95,.31,2.79,1.22,2.96,.03,0,.07,0,.12,0,.03,0,.06,0,.09-.02v.03c.02,.63,.42,1.26,.91,1.13,1.63-.6,2.92-1.31,2.81-1.76-.08-.35-.91-.55-2.04-.53-.04,0-.07,0-.11,.01l.02-.02c.57-.54,1.19-1.23,1.72-1.93h.01Z"/><path class="o" d="M216.16,271.27l.27,.1c-1.3,3.27-5.81,8.38-8.8,12.09-.02,.02-.03,.04-.05,.06-.01,.02-.03,.03-.04,.05-1.6,2.02-2.75,3.61-2.65,4.22,.33,2,4.16-.28,4.59,2.44,.02,.13,0,.28-.05,.44,0,.01-.01,.03-.02,.04-.1,.31-.34,.68-.7,1.07-1.71,1.96-6.1,4.73-11.25,5.76-.21-.58-.46-1.16-.75-1.72l.1-.05c3.38-.81,8.01-3.17,8.09-4.93,.06-1.34-2.11-1.87-2.8-3.36-1.02-2.2,4.17-3.29,14.06-16.21Z"/><path class="o" d="M215.87,241.46l-.6,1.9c-.78,0-1.45,3.32-2.19,3.26-.42-.03-1.68-3.72-.88-6.68l.04-.1c1.22,.51,2.43,1.06,3.63,1.62Z"/><path class="o" d="M215.23,290.24c.2,1.08,.2,2.21,.2,3.34,0,2.45,0,4.75-2,6.7-1.7,1.67-4.87,3.1-10.74,4.18h0c1.66-1.19,1.4-5.14,.09-6.61,6.04-1.11,9.19-2.6,10.84-4.35,.03-.04,.06-.06,.09-.1,.89-.97,1.32-2.04,1.52-3.15h0Z"/><path class="o" d="M215.23,290.24h0c-.2,1.12-.63,2.19-1.52,3.16l-.09-.09c-.86-.92-2.13-1.76-4.01-2.52-.06-.03-.13-.05-.2-.08,.01-.01,.02-.03,.02-.04,.05-.16,.07-.31,.05-.44-.43-2.72-4.26-.44-4.59-2.44-.1-.61,1.05-2.2,2.65-4.22,.32,.1,.63,.2,.93,.3,4.84,1.65,6.31,3.9,6.76,6.37Z"/><path class="o" d="M202.77,297.85c-1.48,.27-3.13,.52-4.97,.75v-.05c-.11-.34-.22-.68-.34-1.01,5.15-1.03,9.54-3.8,11.25-5.76,.36-.39,.6-.76,.7-1.07,.07,.03,.14,.05,.2,.08,1.88,.76,3.15,1.6,4.01,2.52l.09,.09s-.06,.06-.09,.1c-1.65,1.75-4.8,3.24-10.84,4.35h-.01Z"/><path class="o" d="M204.72,306.1c-4.57,.82-10.99,1.31-17.82,1.48-8.85,.22-18.39-.1-25.46-1,1.16,.02,2.35,.02,3.57,.02,18.54,0,30.27-.79,37.68-2.14,5.87-1.08,9.04-2.51,10.74-4.18l.05,.05c0,8.1,0,15.39-6.99,20.49-.9,.66-1.91,1.28-3.05,1.86-.03,.01-.06,.03-.09,.04l-.26,.2c-1.3-1.68-2.57-3.3-3.81-4.82,.36-.34,.7-.7,1.03-1.07,2.9-3.26,4.01-7.81,4.41-10.93Z"/><path class="o" d="M211.41,216.77c1.06,7.56-1.94,14.33-7.45,19.86-1.98-.68-3.95-1.3-5.91-1.84,1.68-2.03,3.1-4.11,4.15-6.15,.35-.68,.66-1.38,.94-2.11h0c.7-.59,1.07-1.28,.99-1.97-.03-.21-.09-.41-.21-.6,2.21-8.87-.09-20.3-2.8-30.56-6.43-1.09-14.46-1.64-23.08-1.82,1.05-.61,1.82-1.3,1.75-1.82-.11-.81-2.25-1.48-4.01-.94-1.48,.45-2.49,1.68-2.88,2.7-8.14-.04-16.6,.21-24.57,.61-.11-.77-.42-1.58-.96-2.23,17.93-3.06,36.42-5.7,53.06-7.49,5.33,9.09,8.49,19.8,10.27,29.89,.27,1.51,.5,3,.71,4.47Z"/><path class="o" d="M199.28,318.1c1.24,1.52,2.51,3.14,3.81,4.82l.26-.2s.06-.03,.09-.04c1.14-.58,2.15-1.2,3.05-1.86,.01,2.3-.5,5.35-2.27,7.11-.84,.96-1.87,1.77-3.04,2.42-6.46,3.66-17,2.83-21.62-.14h0c11.8,1.54,22.66-3.03,16.74-15.6,.98,1.07,1.97,2.25,2.98,3.49Z"/><path class="o" d="M204.13,224.56c.08,.69-.29,1.38-.99,1.96,.31-.82,.57-1.68,.78-2.56,.12,.19,.18,.39,.21,.6Z"/><path class="o" d="M160.78,220.89c-2.04-.02-4.99,.53-5.4,1.02-.57,.7,1.07,2.41,2.86,2.74,.26,.06,.52,.07,.77,.06,2.64-.17,4.33-1.83,3.75-3.29-.15-.37-.95-.52-1.98-.53Zm34.68-15.96c-2.29-4.61-6.81-8.35-10.29-7.51-2.12,.51-4.2,2.39-5.95,4.85h-.01c-3.25,4.6-5.34,11.19-4.3,14.59,.04,.15,.09,.29,.15,.43,1,2.38,5.7,3.13,10.48,2.43,4.81-.72,9.7-2.9,10.94-6.37,.93-2.59,.35-5.66-1.02-8.42Zm-42.56,25.51c-1.9-.08-3.48,.16-4.43,1.52-1.7,2.43,1.04,4.47,4.97,5.57,.54,.15,1.09,.28,1.67,.4l-.37,1.73h-.03c-.29-.04-.56,0-.83,.15-1.3,.72-.52,6,.5,11.65,0,.02,0,.05,0,.07-21.3-1.86-41.61-11.51-42.29-28.92-.05-1.29,.01-2.63,.18-4.01,.93-7.37,2.4-15.38,4.93-23.05,3-.61,6.08-1.23,9.2-1.83,4.87-.47,10.57-.92,16.7-1.3,1.52,1.48,3.87,2.74,4.72,2.14,.46-.32,.67-1.33,.5-2.43,7.97-.4,16.43-.65,24.57-.61-.24,.58-.27,1.09-.07,1.34,.56,.69,3.34-.18,5.21-1.28,8.62,.18,16.65,.73,23.08,1.82,2.71,10.26,5.01,21.69,2.8,30.56-.69-1.26-3.02-1.98-5.66-1.66-3.04,.37-5.35,1.98-5.15,3.6,.19,1.61,2.82,2.62,5.86,2.25,1.75-.21,3.25-.83,4.17-1.62-.28,.73-.59,1.43-.94,2.11-1.05,2.04-2.47,4.12-4.15,6.15-8.49-2.41-16.6-3.58-23.03-3.15,1.54-1.96,1.95-3.96,.53-5.42-2.38-2.45-4.86-1.11-7.73,.74-2.16,1.38-4.53,3.05-7.24,3.62-.53,.11-1.07,.17-1.62,.19-2.14,.07-4.25-.28-6.06-.33Zm5.66-12.07c4.44,0,10.02-2.67,10-4.37-.01-2.15-18.16-.05-18.35,2.04-.14,1.57,4.63,2.33,8.35,2.33Zm-13.77-.42c1.15-3.34-1.4-10.15-5.09-14.71h-.01c-1.89-2.35-4.09-4.11-6.25-4.48-3.37-.58-7.41,3.06-9.5,7.52-1.42,3.01-1.94,6.4-.77,9.11,1.47,3.38,6.48,5.24,11.33,5.65,4.81,.39,9.45-.65,10.29-3.09Zm-14.58,11.03c0-1.63-2.49-2.95-5.55-2.95s-5.55,1.32-5.55,2.95,2.48,2.94,5.55,2.94,5.55-1.32,5.55-2.94Z"/><path class="o" d="M204.72,306.1c-.4,3.12-1.51,7.67-4.41,10.93-.33,.37-.67,.73-1.03,1.07-1.01-1.24-2-2.42-2.98-3.49h0c-3.41-3.81-6.55-6.37-9.38-6.37l-.02-.66c6.83-.17,13.25-.66,17.82-1.48Z"/><path class="o" d="M203.92,223.96c-.21,.88-.47,1.74-.78,2.56h0c-.92,.8-2.42,1.42-4.17,1.63-3.04,.37-5.67-.64-5.86-2.25-.2-1.62,2.11-3.23,5.15-3.6,2.64-.32,4.97,.4,5.66,1.66Z"/><path class="o" d="M161.44,306.58c-6.5-.03-12.09-.17-16.91-.41-17.8-.87-25.02-3.02-27.95-5.89-2-1.95-2-4.25-2-6.7v-.68c0-.35,0-.7,.01-1.04,.02-.54,.06-1.06,.14-1.58h.03c.22,1.11,.65,2.16,1.54,3.13,.02,.04,.05,.06,.08,.1,2.04,2.15,6.38,3.92,15.6,5.05,2.85,.36,6.17,.65,10.04,.88h0c.91,.06,1.85,.11,2.83,.16,3.18,.15,6.71,.26,10.6,.33,.74,.01,1.49,.02,2.26,.03,2.3,.03,4.73,.05,7.29,.05,2.1,0,4.1-.01,6.03-.03,1.23-.01,2.42-.03,3.58-.05,1.27-.02,2.49-.05,3.68-.08,.7-.02,1.39-.04,2.06-.06,1.17-.03,2.3-.08,3.39-.13,.17,0,.34-.01,.5-.02h.01l.57-.03c5.14-.24,9.42-.58,12.98-1.01,1.84-.23,3.49-.48,4.97-.75h.01c1.31,1.47,1.57,5.42-.09,6.6h0c-7.41,1.36-19.14,2.15-37.68,2.15-1.22,0-2.41,0-3.57-.02Z"/><path class="o" d="M177.78,158.05c3.54,2,6.15,3.54,8.68,5.02,.65,.69,1.47,1.19,2.49,1.46h0c2.16,1.25,4.46,2.54,7.41,4.09,.01-.02,.03-.03,.04-.04,2.07,1.98,3.95,4.19,5.6,6.62l.06,.85c-1.9,.12-3.82,.27-5.76,.44h0s-.04-.06-.05-.09c-4.98-8.76-24.04-19.85-38.84-19.85,6.91-.88,13.88-.35,20.36,1.5Z"/><path class="o" d="M172.75,328.25h.02c.51-.07,2.22-.22,4.6-.61,.05,.21,.13,.41,.24,.61,.38,.72,1.05,1.38,1.95,1.96,4.62,2.97,15.16,3.8,21.62,.14,.65,3.93-.05,10.31-.48,14.44-1.68,15.98-3.73,34.15-6.33,44.95-1.97,.61-3.6,1.08-5.05,1.41,1.41-4.56,2.51-10.31,3.36-16.51,.17-.27,.27-.57,.27-.87,0-.17-.03-.33-.09-.49,1.66-12.61,2.32-26.83,2.46-36.63h0c-16.17-.01-15.28-2.77-18.33-4.12-2.84-1.25-17.68-2.05-24-2.61,.47-.49,.8-1.02,.95-1.58,.01-.01,.01-.02,.01-.03,0-.02,0-.05,.02-.07,3.37,.22,7.03,.16,11.04,.16,2.01,0,3.93-.03,5.78-.08,.69-.02,1.34-.04,1.96-.07Z"/><path class="o" d="M200.02,278.64c-.52,.36-1.02,.72-1.49,1.05-.22-.57-.46-1.19-.72-1.83h0c.17-1,.31-1.97,.43-2.93,.68,1.33,1.28,2.6,1.78,3.71Z"/><path class="o" d="M198.67,284.77c.44,.52-.33,1.98-1.4,3.38h-.01c-.53,.7-1.15,1.39-1.72,1.93l-.02,.02c-.21,.01-.44,.02-.67,.04-.69,.02-.93,.54-.9,1.08-.03,.01-.06,.02-.09,.02-.05,0-.09,0-.12,0-.91-.17-2.05-2.01-1.22-2.96,.12-.13,.32-.32,.58-.55h.01c1.5-1.29,4.93-3.69,5.56-2.95Z"/><path class="o" d="M198.05,234.79c1.96,.54,3.93,1.16,5.91,1.84-6.12,6.17-15.35,10.79-25.48,13.24,6.64-2.85,14.34-8.73,19.57-15.08Z"/><path class="o" d="M191.67,273.66s.01-.01,.01-.01c.85-1.53,1.68-3.1,2.42-4.62h0c.14-.31,.28-.6,.42-.89h0c1.77-3.75,2.99-6.99,2.86-8.02,1.57,1.51,1.79,7.46,.88,14.68-.01,.04-.01,.08-.02,.12h0c-.12,.97-.26,1.94-.43,2.93h0c-.14,.88-.3,1.76-.47,2.64-.16,.11-.32,.21-.48,.31-.37,.23-.72,.44-1.04,.63h0s-.05,.03-.07,.04h-.01c-.88,.5-1.57,.77-2.01,.73-.7-.05-1.05-.46-1.21-1.02-.01-.02-.01-.04-.02-.06h-.01c-.06-.2-.1-.41-.12-.63l-.03-.24c-.06-.65-.05-1.34-.18-1.87-.12-.53-.37-.9-.94-.9-.46,0-1.15,.87-1.82,2.18h0c-.06,.11-.11,.2-.16,.31-.13,.28-.26,.57-.39,.88-.01,.02-.01,.03-.02,.05-.19,.47-.38,.98-.55,1.5l-.29-.02c-.56-.35-1.08-.67-1.57-.99,.17-.19,.34-.38,.52-.6,.58-.69,1.23-1.51,1.85-2.42,.05-.07,.09-.13,.14-.2,.92-1.36,1.85-2.9,2.75-4.51Z"/><path class="o" d="M197.81,277.86c.26,.64,.5,1.26,.72,1.83-.42,.29-.81,.55-1.19,.8,.17-.88,.33-1.76,.47-2.63Z"/><path class="o" d="M197.79,298.55v.05c-3.55,.43-7.83,.77-12.97,1.01l-.57,.03c5.84-2.01,11.19-4.56,9.92-7.56,.03,.03,.05,.06,.08,.09,.97,1.12,1.81,2.36,2.46,3.65,.29,.56,.54,1.14,.75,1.72,.12,.33,.23,.67,.33,1.01Z"/><path class="o" d="M197.67,290.62c.11,.45-1.18,1.16-2.81,1.76-.49,.13-.89-.5-.91-1.13v-.03c.36-.09,.94-.52,1.57-1.12,.04-.01,.07-.01,.11-.01,1.13-.02,1.96,.18,2.04,.53Z"/><path class="o" d="M197.38,260.12c.13,1.03-1.09,4.27-2.86,8.01h0c-.14,.3-.28,.59-.42,.89h0c-.74,1.53-1.57,3.1-2.42,4.63,0,0,0,.01-.01,.01s-.01-.01-.02-.01c-2.67-1.68-4.56-3.78-5.64-6.82,1.73-1.42,3.37-2.68,4.85-3.71,.02-.02,.03-.03,.05-.04,3.32-2.35,5.78-3.58,6.41-3.02l.03,.03,.03,.03Z"/><path class="o" d="M196.3,314.61c5.92,12.57-4.94,17.14-16.74,15.59h0c-.9-.57-1.57-1.23-1.95-1.95-.11-.2-.19-.4-.24-.61-.02-.04-.03-.08-.04-.12-2.21-5.07,2.92-18.27,8.87-19.22,.24-.04,.48-.06,.72-.06,2.83,0,5.97,2.56,9.38,6.36h0Z"/><path class="o" d="M195.46,204.93c1.37,2.76,1.95,5.83,1.02,8.42-1.24,3.47-6.13,5.65-10.94,6.37h0c7.79-2.21,5.46-10.73,1.2-15.3,3.05-.75,6.18-.58,8.72,.51Z"/><path class="o" d="M196.26,176.4s.03,.05,.05,.08h0c-26.24,2.21-56.1,7.58-81.06,13.95l-.11-.44c3.22-7.83,7.65-14.23,12.85-19.28,.07,.07,.12,.12,.17,.18,2.9-1.78,4.94-3.07,6.72-4.23,.73-.48,1.42-.93,2.11-1.39,2.35-1.56,4.68-3.16,8.61-5.77,.02-.01,.03-.02,.05-.03,3.84-1.45,7.8-2.42,11.77-2.92,14.8,0,33.86,11.09,38.84,19.85Z"/><path class="o" d="M195.74,281.47l.02,.03c-1.18,.61-3.13,2.29-3.76,1.91-.58-.35,.35-1.84,.35-2.92h.01c.02,.22,.06,.43,.12,.63h.01s.01,.04,.02,.06c.16,.56,.51,.97,1.21,1.02,.44,.04,1.13-.23,2.01-.73h.01Z"/><path class="o" d="M194.85,290.14c.23-.02,.46-.03,.67-.04-.63,.6-1.21,1.03-1.57,1.12-.03-.54,.21-1.06,.9-1.08Z"/><path class="o" d="M195.32,336.64h0c-.14,9.81-.8,24.03-2.46,36.64-.48-1.4-2.99-2.46-6-2.46-3.37,0-6.1,1.32-6.1,2.95s2.73,2.94,6.1,2.94c2.73,0,5.04-.87,5.82-2.07-.85,6.2-1.95,11.95-3.36,16.51-4.65,1.09-7.43,.91-13.67,.25-.81-10.89-.51-29.01-3.21-30.41-.91-.47-1.96-.76-3.06-.9h-.01c-3.05-.44-6.45,.13-8.15,.64-1.53,.06-6.21,0-6.21,1.33,.05,6.54,.7,20.22-.73,29.65-4.82,.36-7.66,.03-14.14-1.97-1.73-7.48-4.25-20.57-9.18-43.88-.82-3.88-1.28-10.1-.61-14.65,.68,.37,1.4,.68,2.15,.95,7.2,2.63,17.26,1.12,20.49-2.24,6.32,.56,21.16,1.36,24,2.61,3.05,1.35,2.16,4.11,18.33,4.11Zm-41.58,38.25c0-1.63-2.62-2.95-5.85-2.95s-5.86,1.32-5.86,2.95,2.62,2.94,5.86,2.94,5.85-1.31,5.85-2.94Z"/><path class="o" d="M194.17,292.08c1.27,3-4.08,5.55-9.92,7.56h-.01c-.16,.01-.33,.02-.5,.02v-.06c-2.26-3.01-5.75-5.11-9.93-7.01,.48-.62,.99-1.22,1.49-1.76h.01c1.58-1.72,3.16-2.98,4.67-3.57h.02c.18-.07,.36-.13,.54-.18,.05,0,.1-.03,.15-.04h.01c.06-.02,.12-.04,.19-.05,.09-.03,.19-.05,.28-.07,1.11-.26,2.21-.31,3.3-.21,.9,.07,1.78,.27,2.64,.55h.01l.18,.06h.01l.09,.03c.32,.11,.64,.24,.96,.37,1.9,.84,3.66,2.1,5.16,3.65,.22,.22,.44,.46,.65,.71Z"/><path class="o" d="M192.86,373.28c.06,.16,.09,.32,.09,.49,0,.3-.1,.6-.27,.87,.06-.45,.13-.9,.18-1.36Z"/><path class="o" d="M198.05,234.79c-5.23,6.35-12.93,12.23-19.57,15.08t-.02,.01c-1.47,.36-2.97,.67-4.47,.92-3.82,.68-7.73,1.04-11.6,1.06h0s-.01-.04-.02-.06c-2.36-5.25-5.26-11.74-7.62-12.14l.37-1.73c2.22,.44,4.65,.59,6.81,.38,2.92-.29,5.84-1.33,8.29-2.72,2.02-1.15,3.71-2.54,4.81-3.95,6.43-.43,14.54,.74,23.03,3.15Z"/><path class="o" d="M192.86,373.28c-.05,.46-.12,.91-.18,1.36-.78,1.2-3.09,2.07-5.82,2.07-3.37,0-6.1-1.32-6.1-2.94s2.73-2.95,6.1-2.95c3.01,0,5.52,1.06,6,2.46Z"/><path class="o" d="M191.65,273.65s.01,.01,.02,.01c-.9,1.61-1.83,3.15-2.75,4.51-.05,.07-.09,.13-.14,.2-.62,.91-1.27,1.73-1.85,2.42-.18,.22-.35,.41-.52,.6-.37-.23-.72-.46-1.05-.68-.03-.02-.05-.04-.08-.06h-.01c-1.39-.93-2.55-1.81-3.62-2.83h-.01v-.02c-.81-1.8-1.74-3.36-2.78-4.62,.37-.35,.74-.71,1.11-1.05l.05-.05c.87-.81,1.73-1.6,2.6-2.35,.01-.02,.03-.03,.04-.04,.36-.33,.73-.64,1.09-.95,.02-.02,.03-.04,.05-.05,.75-.65,1.49-1.27,2.21-1.86,1.08,3.04,2.97,5.14,5.64,6.82Z"/><path class="o" d="M195.46,204.93c-2.54-1.09-5.67-1.26-8.72-.51-2.38-2.56-5.38-3.89-7.52-2.15,1.75-2.46,3.83-4.34,5.95-4.85,3.48-.84,8,2.9,10.29,7.51Z"/><path class="o" d="M194.37,389.74c-1.25,5.25-2.65,8.76-4.19,9.43-2.75,1.21-5.04,2.01-7.37,1.95,2.68-.74,4.82-4.49,6.51-9.97,1.45-.33,3.08-.8,5.05-1.41Z"/><path class="o" d="M189.87,262.2c.32,.24,.65,.55,.99,.92-1.48,1.03-3.12,2.29-4.85,3.71-.72,.59-1.46,1.21-2.21,1.86-.02,.01-.03,.03-.05,.05,.03-2.81,.43-6.94,.82-8.39l.02-.08c2.03,.39,3.96,.93,5.28,1.93Z"/><path class="o" d="M187.98,282.38l.29,.02c-.51,1.57-.86,3.31-.87,4.87v.06s-.06,0-.09,0h-.01l-.18-.06h-.01c-.86-.28-1.74-.48-2.64-.55-.28-1.27-.59-2.5-.95-3.68l.12-.04c.7,.21,1.67-.42,2.76-1.59h.01c.49,.31,1.01,.63,1.57,.98Z"/><path class="o" d="M188.07,132.39l.16,.05c-2.31,9.09-6.82,25.37-1.77,30.63-2.53-1.48-5.14-3.02-8.68-5.02,3.38-6.36,7.02-15.21,10.29-25.66Z"/><path class="o" d="M186.9,307.58l.02,.66c-.24,0-.48,.02-.72,.06-5.95,.95-11.08,14.15-8.87,19.22,.01,.04,.02,.08,.04,.12-2.38,.39-4.09,.54-4.6,.61h-.02c-.62,.03-1.27,.05-1.96,.07-1.85,.05-3.77,.08-5.78,.08-4.01,0-7.67,.06-11.04-.16,1.63-3.74-.74-11.92-4.5-16.33-.64-.76-1.33-1.4-2.04-1.89-.75-.52-1.53-.87-2.33-1-.23-.04-.47-.05-.71-.05l.14-2.8c4.82,.24,10.41,.38,16.91,.41,7.07,.9,16.61,1.22,25.46,1Z"/><path class="o" d="M186.74,204.42c4.26,4.57,6.59,13.09-1.2,15.29h0c-4.78,.71-9.48-.04-10.48-2.42-.06-.14-.11-.28-.15-.43l.06-.02c.9-5.27,4.11-8.95,7.98-10.99,.16,.26,.45,.44,.78,.44,.51,0,.93-.42,.93-.93,0-.09-.01-.18-.04-.27,.7-.28,1.4-.5,2.12-.67Z"/><path class="o" d="M185.36,280.71c.33,.22,.68,.45,1.05,.68h-.01c-1.09,1.18-2.06,1.81-2.76,1.6l-.12,.04c-.24-.84-.5-1.65-.78-2.43-.01-.02-.01-.04-.02-.06-.12-.34-.24-.67-.37-1-.22-.59-.46-1.16-.71-1.71v-.02h.01c1.07,1.03,2.23,1.91,3.62,2.84h.01s.05,.04,.08,.06Z"/><path class="o" d="M186.74,204.42c-.72,.17-1.42,.39-2.12,.67-.12-.38-.47-.65-.89-.65-.51,0-.92,.41-.92,.92,0,.18,.05,.35,.14,.49-3.87,2.04-7.08,5.72-7.98,10.99l-.06,.02c-1.04-3.4,1.05-9.99,4.3-14.58h.01c2.14-1.75,5.14-.42,7.52,2.14Z"/><path class="o" d="M184.62,205.09c.03,.09,.04,.18,.04,.27,0,.51-.42,.93-.93,.93-.33,0-.62-.18-.78-.44,.54-.29,1.1-.54,1.67-.76Z"/><path class="o" d="M184.59,260.27l-.02,.08c-.39,1.45-.79,5.58-.82,8.39-.36,.31-.73,.62-1.09,.95-.01,.01-.03,.02-.04,.04-.2-.06-.4-.09-.61-.09-.58,0-1.1,.24-1.48,.62-.22-1.99,.09-8.37,.67-10.45l.02-.12c1.09,.19,2.25,.36,3.37,.58Z"/><path class="o" d="M184.47,286.71c-1.09-.1-2.19-.05-3.3,.21l-.02-.09c-.42-1.28-1.38-6.88-5.44-12.66-2.08-2.95-6.59-3.83-10.27-4.13l-.03-.11c1.67-.42,3.39-.61,5.04-.55,.35,.02,.7,.04,1.05,.08,1.56,.17,3.05,.57,4.35,1.22,.58,.29,1.14,.67,1.67,1.12,.02,.02,.04,.03,.06,.05,.45,.39,.87,.83,1.28,1.33,1.04,1.26,1.97,2.82,2.78,4.62h0v.03c.25,.55,.49,1.12,.71,1.71,.13,.33,.25,.66,.37,1,0,.02,0,.04,.02,.06,.28,.78,.54,1.59,.78,2.43,.36,1.18,.67,2.41,.95,3.68Z"/><path class="o" d="M183.73,204.44c.42,0,.77,.27,.89,.65-.57,.22-1.13,.47-1.67,.76-.09-.14-.14-.31-.14-.49,0-.51,.41-.92,.92-.92Z"/><path class="o" d="M178.27,299.78h0c-.47-.45-.95-.88-1.43-1.31-.56-.5-1.12-1-1.69-1.48-.94-.82-1.9-1.61-2.86-2.38,.38-.54,.76-1.05,1.14-1.54,.12-.16,.25-.32,.38-.48,4.18,1.9,7.67,4,9.93,7.01v.06c-1.09,.05-2.22,.1-3.39,.13-.67,.02-1.36,.04-2.06,.06v-.05l-.02-.02Z"/><path class="o" d="M175.65,391.4c6.24,.66,9.02,.84,13.67-.25-1.69,5.48-3.83,9.23-6.51,9.97h-.01c-1.7-.03-3.44-.53-5.41-1.65-.93-.53-1.42-3.73-1.74-8.07Z"/><path class="o" d="M182.01,269.64c.21,0,.41,.03,.61,.09-.87,.75-1.73,1.54-2.6,2.35l-.05,.05c-.01-.05-.02-.1-.02-.15-.02-.08-.02-.16-.02-.25,0-.57,.22-1.08,.6-1.46h0c.38-.39,.9-.63,1.48-.63Z"/><path class="o" d="M181.22,259.69l-.02,.12c-.58,2.08-.89,8.46-.67,10.45h0c-.38,.39-.6,.9-.6,1.47,0,.09,0,.17,.02,.25h-.02c-.75-.05-1.54-.09-2.35-.13-.02-.02-.04-.03-.06-.05-.53-.45-1.09-.83-1.67-1.12-1.3-.65-2.79-1.05-4.35-1.22h0c1.79-6.69,.29-13.55-1.22-14.02-.22-.07-.42-.1-.61-.1l-.1-.79c1.39-.18,2.92-.44,4.77-.8h.01c.25,1.05,.63,2.14,1.12,3.39,.61,1.53,2.99,2.08,5.75,2.55Z"/><path class="o" d="M173.81,292.59c-.13,.16-.26,.32-.38,.48-.38,.49-.76,1-1.14,1.54,.96,.77,1.92,1.56,2.86,2.38,.57,.48,1.13,.98,1.69,1.48,.48,.43,.96,.86,1.43,1.3h0c-.47-.43-.95-.86-1.43-1.29-.56-.5-1.12-1-1.69-1.48-.94-.82-1.9-1.61-2.86-2.38-2.37-1.87-4.73-3.57-6.97-4.88-.41-.24-.82-.47-1.22-.69-1.68-.9-3.28-1.58-4.72-1.95-.28-.08-.54-.14-.81-.18-.18-.03-.36-.06-.54-.08h-.01c-.09-.02-.18-.03-.27-.04h-.09c-.46-.05-.89-.05-1.31-.01-.04,.01-.1,.02-.14,.03h-.02c-.11,0-.21,.02-.32,.04-.01-.01-.01-.03-.01-.04h-.01c-.14-.36-.27-.7-.39-1.04h0c-.51-1.44-.83-2.76-.92-3.96-.03-.5-.03-.98,.03-1.43v-.05c.01-.12,.03-.23,.05-.34,.04-.21,.08-.42,.12-.62,.51-2.11,1.63-3.93,3.15-5.41h.01c.78-.78,1.66-1.46,2.63-2.04h.01c1.49-.9,3.15-1.57,4.87-2l.03,.11c3.68,.3,8.19,1.18,10.27,4.13,4.06,5.78,5.02,11.38,5.44,12.66l.02,.09c-.09,.02-.19,.04-.28,.07-.07,.01-.13,.03-.19,.05h-.01c-.05,.01-.1,.03-.15,.04-.18,.05-.36,.11-.54,.19h-.02c-1.51,.58-3.09,1.84-4.67,3.56h-.01c-.5,.54-1.01,1.14-1.49,1.76Z"/><path class="o" d="M179.95,271.98s0,.1,.02,.15c-.37,.34-.74,.7-1.11,1.05-.41-.5-.83-.94-1.28-1.33,.81,.04,1.6,.08,2.35,.13h.02Z"/><path class="o" d="M179.79,189.76c.07,.52-.7,1.21-1.75,1.82-1.69-.04-3.41-.06-5.14-.06,.39-1.02,1.4-2.25,2.88-2.7,1.76-.54,3.9,.13,4.01,.94Z"/><path class="o" d="M178.29,299.8v.05c-1.19,.03-2.41,.06-3.68,.08-1.16,.02-2.35,.04-3.58,.05,.05-.09,.08-.17,.11-.26,.72-2.44-3.33-6.35-8.22-9.17,.32-.39,.65-.78,1-1.17l.18-.33c.4,.22,.81,.45,1.22,.69,2.24,1.31,4.6,3.01,6.97,4.88,.96,.77,1.92,1.56,2.86,2.38,.57,.48,1.13,.98,1.69,1.48,.48,.43,.96,.86,1.43,1.3l.02,.02Z"/><path class="o" d="M175.55,226.22c1.42,1.46,1.01,3.46-.53,5.42-1.1,1.41-2.79,2.8-4.81,3.95h0c.28-1.16-1.42-6.95-2.39-8.63,2.87-1.85,5.35-3.19,7.73-.74Z"/><path class="o" d="M174.35,253.75h-.01c-1.85,.36-3.38,.62-4.77,.8-2.02,.26-3.77,.35-5.82,.29-.42-.9-.88-1.91-1.36-2.98,3.87-.02,7.78-.38,11.6-1.06v.03c0,1,.12,1.94,.36,2.92Z"/><path class="o" d="M178.04,191.58c-1.87,1.1-4.65,1.97-5.21,1.28-.2-.25-.17-.76,.07-1.34,1.73,0,3.45,.02,5.14,.06Z"/><path class="o" d="M170.28,255.44c1.51,.47,3.01,7.33,1.22,14.01h0c-.35-.03-.7-.05-1.05-.07v-.19c.62-3.42,.48-9.36-1.11-10.14-1.2-.59-2.55,1.18-4.2,1.21-2.42,.05-2.58-6.34-10.43-20.58v-.02h.03c2.36,.4,5.26,6.89,7.62,12.14,.01,.02,.02,.04,.02,.06h0c.48,1.07,.94,2.08,1.36,2.98,.96,2.02,1.77,3.46,2.31,3.63,1.78,.55,1.63-3.13,3.61-3.13,.19,0,.39,.03,.61,.1Z"/><path class="o" d="M162.92,290.55c4.89,2.82,8.94,6.73,8.22,9.17-.03,.09-.06,.17-.11,.26-1.93,.02-3.93,.03-6.03,.03-2.56,0-4.99-.02-7.29-.05v-.06c.74-3.27,2.65-6.29,5.21-9.35Z"/><path class="o" d="M155.24,272.19h-.01c-.25,.02-.5,.03-.74,.05,0-.92-.59-1.7-1.41-1.98l.02-.06c-1.43-1.54-2.4-3.07-2.4-3.8,0-.09,.02-.17,.05-.24,.53-1.07,1.89-.17,3.16,.3,.01,0,.03,.01,.04,.01,.03,.01,.07,.02,.1,.03,.96,.51,2.18,1.64,2.7,1.28,.61-.43-.22-2.27-.3-3.58h-.11c-.02-1.16-.22-2.73-.5-4.52-.01-.01-.01-.03-.01-.04-.39-2.46-.94-5.33-1.44-8.11,0-.02,0-.05,0-.07-1.02-5.65-1.8-10.93-.5-11.65,.27-.15,.54-.19,.83-.15v.02c7.85,14.24,8.01,20.63,10.43,20.58,1.65-.03,3-1.8,4.2-1.21,1.59,.78,1.73,6.72,1.11,10.14v.19c-1.65-.06-3.37,.13-5.04,.55-1.72,.43-3.38,1.1-4.87,2h-.01c-.97,.58-1.85,1.26-2.63,2.03h0c-.91-.46-1.81-1.07-2.66-1.77Zm10.74-3.79c-.15-1.73-.5-3.16-.96-3.17-.36-.01-.76,.72-1.04,1.8-1.26-2.15-3.42-4.79-4.31-4.38-1.04,.48,1.1,5.84,1.77,6.85,.7,1.05,3.03,.83,3.43,0,.05-.11,.05-.27,0-.48,.55,.05,1.11-.17,1.11-.62Z"/><path class="o" d="M167.82,226.96c.97,1.68,2.67,7.47,2.39,8.62h0c-2.45,1.4-5.37,2.44-8.29,2.73,.28-1.15-.36-6.06-1.34-7.73,2.71-.57,5.08-2.24,7.24-3.62Z"/><path class="o" d="M169.57,254.55l.1,.79c-1.98,0-1.83,3.68-3.61,3.13-.54-.17-1.35-1.61-2.31-3.63,2.05,.06,3.8-.03,5.82-.29Z"/><path class="o" d="M168.56,214c.02,1.7-5.56,4.37-10,4.37-3.72,0-8.49-.76-8.35-2.33,.19-2.09,18.34-4.19,18.35-2.04Z"/><path class="o" d="M165.02,265.23c.46,0,.81,1.44,.96,3.17,0,.45-.56,.67-1.11,.62-.1-.48-.44-1.2-.89-1.99,.28-1.08,.68-1.81,1.04-1.8Z"/><path class="o" d="M164.87,269.02c.05,.21,.05,.37,0,.48-.4,.83-2.73,1.05-3.43,0-.67-1.01-2.81-6.37-1.77-6.85,.89-.41,3.05,2.23,4.31,4.38-.06,.24-.12,.51-.17,.79-.17,.77,.44,1.16,1.06,1.2Z"/><path class="o" d="M164.1,289.05l-.18,.33c-.35,.39-.68,.78-1,1.17-2.85-1.65-5.99-2.92-8.64-3.31v-.02c.48-.15,.99-.27,1.52-.35h.02s.03-.01,.05-.01c.11-.02,.21-.03,.32-.04h.02s.1-.02,.14-.03c.42-.04,.85-.04,1.31,.01h.09c.09,.01,.18,.02,.27,.04h.01c.18,.02,.36,.05,.54,.08,.27,.04,.53,.1,.81,.18,1.44,.37,3.04,1.05,4.72,1.95Z"/><path class="o" d="M163.98,267.03c.45,.79,.79,1.51,.89,1.99-.62-.04-1.23-.43-1.06-1.2,.05-.28,.11-.55,.17-.79Z"/><path class="o" d="M162.76,221.42c.58,1.46-1.11,3.12-3.75,3.29-.25,.01-.51,0-.77-.06,2.41-.1,2.91-2.81,2.54-3.76,1.03,.01,1.83,.16,1.98,.53Z"/><path class="o" d="M160.58,230.58c.98,1.67,1.62,6.58,1.34,7.73-2.16,.21-4.59,.06-6.81-.38-.58-.12-1.13-.25-1.67-.4,.28-1.15,.44-5.4-.54-7.09,1.81,.05,3.92,.4,6.06,.33,.55-.02,1.09-.08,1.62-.19Z"/><path class="o" d="M160.78,220.89c.37,.95-.13,3.66-2.54,3.76-1.79-.33-3.43-2.04-2.86-2.74,.41-.49,3.36-1.04,5.4-1.02Z"/><path class="o" d="M149.17,290.52c.3-.32,.61-.62,.93-.9,1.11-.98,2.37-1.75,3.76-2.25t.02-.01c.12-.05,.24-.09,.36-.13,.01,0,.02-.01,.03-.01v.02c2.66,.39,5.8,1.66,8.65,3.31-2.56,3.06-4.47,6.08-5.21,9.35v.06c-.77-.01-1.52-.02-2.26-.03-3.89-.07-7.42-.18-10.6-.33v-.05c.55-3.31,2.06-6.6,4.32-9.03Z"/><path class="o" d="M161.22,360.73c-.79,.23-1.32,1.4-1.68,3.2-1.18,5.89-.44,18.58-.58,27.33-1.8,.19-3.32,.35-4.68,.45,1.43-9.43,.78-23.11,.73-29.65,0-1.33,4.68-1.27,6.21-1.33Z"/><path class="o" d="M157.9,273.96h-.01c-1.52,1.49-2.64,3.31-3.15,5.42-.04,.2-.08,.41-.12,.62-.02,.11-.04,.22-.05,.34v.05c-.62,.01-1.24,.03-1.84,.04-1.89,.04-3.68,.1-5.38,.16-.08-.77-.26-1.38-.4-1.99,.24-.1,.49-.23,.74-.37,1.71-.97,3.38-2.69,3.78-4.13,.28,.14,.6,.22,.94,.22,1.15,0,2.08-.93,2.08-2.08,.24-.02,.49-.03,.74-.04h.01c.85,.69,1.75,1.3,2.66,1.75h0Z"/><path class="o" d="M158.96,391.26c-.07,4.88-.42,8.53-1.52,9.12-2.77,1.5-5.63,1.65-8.17,1.21,2.69-.47,4.19-4.47,5.01-9.88,1.36-.1,2.88-.26,4.68-.45Z"/><path class="o" d="M156.45,264.2c.08,1.31,.91,3.15,.3,3.58-.52,.36-1.74-.77-2.7-1.28,.81,.27,1.57,.32,2.05-.49,.2-.34,.27-.96,.24-1.81h.11Z"/><path class="o" d="M156.34,264.2c.03,.85-.04,1.47-.24,1.81-.48,.81-1.24,.76-2.05,.49-.05-.02-.1-.05-.14-.07-.11-2.36-.36-4.93-.68-6.11,.97-.17,1.86-.37,2.6-.64h.01c.28,1.79,.48,3.36,.5,4.52Z"/><path class="o" d="M146.78,277.25c-.19,.54-.44,1.08-.61,1.62-.18,.59-.29,1.18-.14,1.78h.01c.04,.17,.1,.34,.19,.51,.94,1.8,4.01,2.6,6.15,1.9,1.22-.39,1.7-.92,2.16-1.24,.09,1.2,.41,2.52,.92,3.95h0c-.36,.41-.72,.79-1.1,1.13-.15,.16-.32,.31-.48,.46t-.02,.01c-1.39,.5-2.65,1.27-3.76,2.25-.36-.88-.87-1.77-1.44-2.62-1.02-1.5-2.27-2.87-3.37-3.81-.02-.02-.04-.03-.06-.05-.61-.72-.36-6.41-.81-7.57-.29-.76-.86-1.2-1.52-1.57,.31-.47,.6-.96,.88-1.48,.67,.27,1.39,.5,1.99,.91,.43,.27,.8,.65,1.06,1.18,.41,.92,.24,1.79-.05,2.64Z"/><path class="o" d="M154.57,280.39c-.06,.45-.06,.93-.03,1.43-.46,.32-.94,.85-2.16,1.24-2.14,.7-5.21-.1-6.15-1.9-.09-.17-.15-.34-.19-.51,.43-.02,.86-.04,1.31-.06,1.7-.06,3.49-.12,5.38-.16,.6-.01,1.22-.03,1.84-.04Z"/><path class="o" d="M149.47,311.91c3.76,4.41,6.13,12.59,4.5,16.33-.01,.02-.01,.05-.02,.07,0,.01,0,.02-.01,.03-.15,.56-.48,1.09-.95,1.58-3.23,3.36-13.29,4.87-20.49,2.24,10.16,.4,16.69-2.26,17.06-10.64,1.36-2.53,.69-6.21-.23-9.49l.14-.12Z"/><path class="o" d="M153.08,270.26c.82,.28,1.41,1.06,1.41,1.98,0,1.15-.93,2.08-2.08,2.08-.34,0-.66-.08-.94-.22-.67-.34-1.14-1.05-1.14-1.86,0-.38,.1-.74,.28-1.05,.36-.62,1.03-1.04,1.8-1.04,.24,0,.46,.04,.67,.11Z"/><path class="o" d="M153.91,266.43v.03c-1.27-.47-2.63-1.37-3.16-.3-.03,.07-.05,.15-.05,.24h-.15c-.15-2.23-.43-4.52-.7-5.53,1.16-.2,2.32-.36,3.38-.55,.32,1.18,.57,3.75,.68,6.11Z"/><path class="o" d="M152.9,230.44c.98,1.69,.82,5.94,.54,7.09-3.93-1.1-6.67-3.14-4.97-5.57,.95-1.36,2.53-1.6,4.43-1.52Z"/><path class="o" d="M153.1,270.2l-.02,.06c-.21-.07-.43-.11-.67-.11-.77,0-1.44,.42-1.8,1.04,.11-1.03,.07-2.89-.06-4.78h.15c0,.72,.97,2.25,2.4,3.79Z"/><path class="o" d="M147.89,371.94c3.23,0,5.85,1.32,5.85,2.95s-2.62,2.94-5.85,2.94-5.86-1.31-5.86-2.94,2.62-2.95,5.86-2.95Z"/><path class="o" d="M140.14,389.74c6.48,2,9.32,2.33,14.14,1.97-.82,5.41-2.32,9.41-5.01,9.88-1.61-.27-3.1-.78-4.35-1.34-2-.89-2.94-2.54-4.78-10.51Z"/><path class="o" d="M143.78,272.52c-.82-.32-1.57-.69-1.98-1.49-.36-.7-.44-1.75,.34-3.4-.73-.42-1.45-.84-2.17-1.23,1.16-1.49,2.23-2.67,3.05-3.29,1.69-1.27,4.28-1.83,6.83-2.24,.27,1.01,.55,3.3,.7,5.54,.13,1.89,.17,3.75,.06,4.78-.18,.31-.28,.67-.28,1.05,0,.81,.47,1.52,1.14,1.86-.4,1.44-2.07,3.16-3.78,4.13-.25,.14-.5,.27-.74,.37-.1-.43-.17-.86-.17-1.35,.29-.85,.46-1.72,.05-2.64-.26-.53-.63-.91-1.06-1.18-.6-.41-1.32-.64-1.99-.91Z"/><path class="o" d="M149.33,312.03c.92,3.28,1.59,6.96,.23,9.49,.14-3.04-.53-6.83-2.13-11.5,.71,.49,1.4,1.13,2.04,1.89l-.14,.12Z"/><path class="o" d="M150.1,289.62c-.32,.28-.63,.58-.93,.9-.96-2.85-3.27-5.61-4.38-5.17-1.25,.48-.31,2.79-1.3,4.09-1.32,1.73-8.79-2.53-21.32-5.78-1.44-.37-2.94-.73-4.51-1.06,1.26-.1,3.24,.21,5.56,.72,.02,0,.05,0,.07,.02,.49,.1,.98,.22,1.5,.34,1.8,.42,3.72,.93,5.62,1.42h.01c2.92,.77,5.77,1.52,7.97,1.94h.01c.94,.18,1.75,.31,2.41,.35,.16,.01,.31,.02,.45,.02h.1c.19,0,.37-.01,.52-.04h.04c.09-.02,.18-.04,.25-.07,.05-.01,.09-.03,.13-.05,1.43-.7,.47-2.4,.11-3.72-.2-.73-.22-1.34,.44-1.61,.41-.17,1.32,.32,2.38,1.22,.02,.02,.04,.03,.06,.05,1.1,.94,2.35,2.31,3.37,3.81,.57,.85,1.08,1.74,1.44,2.62Z"/><path class="o" d="M149.56,321.52c-.37,8.38-6.9,11.04-17.06,10.64-.75-.27-1.47-.58-2.15-.95-1.26-.69-2.38-1.53-3.28-2.56-1.74-1.73-2.25-4.68-2.26-6.96,.93,.58,1.97,1.13,3.13,1.63,.03,.02,.06,.04,.09,.04l.24,.19c4.54-5.83,8.68-11.03,12.39-13.33h0c1.3-.81,2.54-1.25,3.73-1.25,.24,0,.48,.01,.71,.05,.8,.13,1.58,.48,2.33,1,1.6,4.67,2.27,8.46,2.13,11.5Z"/><path class="o" d="M148.33,192.13c.17,1.1-.04,2.11-.5,2.43-.85,.6-3.2-.66-4.72-2.14,1.71-.1,3.45-.19,5.22-.29Z"/><path class="o" d="M147.37,189.9c.54,.65,.85,1.46,.96,2.23-1.77,.1-3.51,.19-5.22,.29-.54-.52-.97-1.07-1.19-1.57,1.81-.32,3.63-.64,5.45-.95Z"/><path class="o" d="M147.35,280.59c-.45,.02-.88,.04-1.31,.06h-.01c-.15-.6-.04-1.19,.14-1.78h.01c.25-.07,.51-.16,.77-.27,.14,.61,.32,1.22,.4,1.99Z"/><path class="o" d="M131.82,294.73l-.02,.02c-1.64-.99-3.98-2.22-6.36-3.52-.79-.43-1.59-.88-2.36-1.33-.02-.01-.03-.02-.05-.03-1.18-.68-2.3-1.37-3.29-2.04-.95-.65-1.76-1.27-2.38-1.88h-.01c-1.07-1.06-1.54-2.03-1.01-2.84,.2-.3,.66-.46,1.32-.51,1.57,.33,3.07,.69,4.51,1.06,12.53,3.25,20,7.51,21.32,5.78,.99-1.3,.05-3.61,1.3-4.09,1.11-.44,3.42,2.32,4.38,5.17-2.26,2.43-3.77,5.72-4.32,9.03v.05c-.98-.05-1.92-.1-2.83-.15h0c-3.87-.24-7.19-.53-10.04-.89v-.05c.5-.23,1.02-.41,1.42-.64h.01s.02-.02,.03-.03c1.07-.36,2.98-.27,3.02-.89,.05-.72-3.45-1.49-4.64-2.22Zm12.45,1.82c1.26,.04,2.43-1.98,1.98-2.79-.54-.98-8.32-1.2-8.59,.26-.21,1.13,5.4,2.49,6.61,2.53Z"/><path class="o" d="M146.25,293.76c.45,.81-.72,2.83-1.98,2.79-1.21-.04-6.82-1.4-6.61-2.53,.27-1.46,8.05-1.24,8.59-.26Z"/><path class="o" d="M145.65,159.47s-.03,.02-.05,.03c-3.93,2.61-6.26,4.21-8.61,5.77l-.06-.1c3.57-1.76-2.56-18.03-3.91-48.62-.3-6.81-1.7-21.59-6.11-31.89,3.6,7.24,6.66,16.94,8.05,28.61,2.41,20.23,6.29,35.98,10.69,46.2Z"/><path class="o" d="M139.7,203.24c3.69,4.56,6.24,11.37,5.09,14.71-.91-5.43-4.34-9.09-8.41-11.01-.02-.48-.43-.87-.92-.87-.23,0-.45,.09-.61,.23-.78-.28-1.58-.49-2.37-.65,2.2-2.58,5.01-3.98,7.21-2.41h.01Z"/><path class="o" d="M136,265.58c2.05,1.04,2.88,1.73,3.01,2.79,.11,.89-.13,2.26,.82,3.61,.74,1.07,2.02,1.44,3.07,2.02,.66,.37,1.23,.81,1.52,1.57,.45,1.16,.2,6.85,.81,7.57-1.06-.9-1.97-1.39-2.38-1.22-.66,.27-.64,.88-.44,1.61l-1.18,.49c-1.04,1.25-1.91,2.21-2.83,3.02h-.01c-2.2-.42-5.05-1.17-7.97-1.94-.49-.98-.97-1.96-1.42-2.95-4.47-9.72-6.97-19.62-5.25-21.96,.09-.11,.23-.19,.44-.22h0c5.85,2.91,9.56,4.47,11.81,5.61Z"/><path class="o" d="M144.53,306.17l-.14,2.8c-1.19,0-2.43,.44-3.73,1.24h0c-3.71,2.31-7.85,7.51-12.39,13.34l-.24-.19s-.06-.02-.09-.04c-1.16-.5-2.2-1.05-3.13-1.63-8.28-5.13-8.28-12.79-8.28-21.36l.05-.05c2.93,2.87,10.15,5.02,27.95,5.89Z"/><path class="o" d="M143.78,272.52c-.28,.52-.57,1.01-.88,1.48-1.05-.58-2.33-.95-3.07-2.02-.95-1.35-.71-2.72-.82-3.61-.13-1.06-.96-1.75-3.01-2.79,.09-.39,.16-.79,.21-1.2,1.22,.62,2.48,1.3,3.76,2.02,.72,.39,1.44,.81,2.17,1.23-.78,1.65-.7,2.7-.34,3.4,.41,.8,1.16,1.17,1.98,1.49Z"/><path class="o" d="M142.41,283.53c.36,1.32,1.32,3.02-.11,3.72-.04,.02-.08,.04-.13,.05-.07,.03-.16,.05-.25,.07h-.04c-.17,.01-.35,.03-.52,.04h-.1c-.14,0-.29-.01-.45-.02-.66-.04-1.47-.17-2.41-.35,.92-.81,1.79-1.77,2.83-3.02l1.18-.49Z"/><path class="o" d="M141.92,190.85c.22,.5,.65,1.05,1.19,1.57-6.13,.38-11.83,.83-16.7,1.3,5.05-.99,10.24-1.95,15.51-2.87Z"/><path class="o" d="M139.69,203.24c-2.2-1.57-5.01-.17-7.21,2.41-2.96-.58-5.95-.34-8.37,.71l-.17-.08c2.09-4.46,6.13-8.1,9.5-7.52,2.16,.37,4.36,2.13,6.25,4.48Z"/><path class="o" d="M144.79,217.95c-.84,2.44-5.48,3.48-10.29,3.09h0c-8.03-1.73-6.08-10.6-2.02-15.39,.79,.16,1.59,.37,2.37,.65-.2,.17-.32,.42-.32,.7,0,.51,.42,.92,.93,.92s.93-.41,.93-.92c0-.02,0-.04,0-.06,4.07,1.92,7.5,5.58,8.41,11.01Z"/><path class="o" d="M136.93,165.17l.06,.1c-.69,.46-1.38,.91-2.11,1.39-3.92-6.39-9.31-17.56-8.41-33.17,.54-9.18,.49-17.33-.09-25.01,0-.02-.01-.05-.01-.07-.4-5.29-1.04-10.36-1.92-15.4h-.01c-.51-5.1-6.43-20.58-14.38-22.35,.79-.42,1.56-.66,2.3-.69,4.05-.18,9.76,5.08,14.53,14.65,0,.01,.01,.02,.02,.04,4.41,10.3,5.81,25.08,6.11,31.89,1.35,30.59,7.48,46.86,3.91,48.62Z"/><path class="o" d="M131.82,294.73c1.19,.73,4.69,1.5,4.64,2.22-.04,.62-1.95,.53-3.02,.89,.46-.28,.75-.62,.62-1.21-.1-.43-.96-1.08-2.26-1.88l.02-.02Z"/><path class="o" d="M136.38,206.94s0,.04,0,.06c0,.51-.42,.92-.93,.92s-.93-.41-.93-.92c0-.28,.12-.53,.32-.7,.52,.19,1.03,.4,1.53,.64Z"/><path class="o" d="M136.21,264.38c-.05,.41-.12,.81-.21,1.2-2.25-1.14-5.96-2.7-11.81-5.6h0c1.54-.3,6.3,1.49,12.02,4.4Z"/><path class="o" d="M135.46,206.07c.49,0,.9,.39,.92,.87-.5-.24-1.01-.45-1.53-.64,.16-.14,.38-.23,.61-.23Z"/><path class="o" d="M134.5,221.03h0c-4.85-.4-9.86-2.26-11.33-5.64-1.17-2.71-.65-6.1,.77-9.11l.17,.08c2.42-1.05,5.41-1.29,8.37-.71-4.06,4.79-6.01,13.66,2.02,15.38Z"/><path class="o" d="M133.44,297.84s-.02,.01-.03,.02h-.01c-.4,.24-.92,.42-1.41,.65v.05c-9.23-1.13-13.57-2.9-15.61-5.05-.03-.04-.06-.06-.08-.1,.02-.03,.05-.06,.08-.1,1.03-1.09,2.66-2.09,5.2-2.95,.47-.16,.96-.31,1.5-.46,.77,.45,1.57,.9,2.36,1.33,2.38,1.3,4.72,2.53,6.36,3.52,1.3,.8,2.16,1.45,2.26,1.88,.13,.59-.16,.93-.62,1.21Z"/><path class="o" d="M130.42,285.1h-.01c-1.9-.49-3.82-1-5.62-1.42-.52-.12-1.01-.24-1.5-.34,.68-.19,1.42-.37,2.21-.54,1.06-.23,2.23-.44,3.5-.65,.45,.99,.93,1.97,1.42,2.95Z"/><path class="o" d="M124.66,226.03c3.06,0,5.55,1.32,5.55,2.95s-2.49,2.94-5.55,2.94-5.55-1.32-5.55-2.94,2.48-2.95,5.55-2.95Z"/><path class="o" d="M134.88,166.66c-1.78,1.16-3.82,2.45-6.72,4.23-.05-.06-.1-.11-.17-.18,1.31-2.62-2.01-13.68-2.93-16.9-3.08-10.81,1.95-31.96,1.32-45.33,.58,7.68,.63,15.83,.09,25.01-.9,15.61,4.49,26.78,8.41,33.17Z"/><path class="o" d="M125.06,153.81c.92,3.22,4.24,14.28,2.93,16.9-7.22-7.67-21.58-19.55-28.95-38.07-10.3-25.91,1.61-56.99,11.02-61.98,7.95,1.77,13.87,17.25,14.38,22.35h.01c.88,5.04,1.52,10.11,1.92,15.4,0,.02,.01,.05,.01,.07,.63,13.37-4.4,34.52-1.32,45.33Z"/><path class="o" d="M114.76,290.28h-.03c.15-.93,.45-1.83,1.02-2.68,.39-.58,.91-1.13,1.61-1.65,.62,.61,1.43,1.23,2.38,1.88,.99,.67,2.11,1.36,3.29,2.04,.02,.01,.03,.02,.05,.03-.54,.15-1.03,.3-1.5,.46-2.54,.86-4.17,1.86-5.2,2.95-.03,.04-.06,.07-.08,.1-.89-.97-1.32-2.02-1.54-3.13Z"/><path class="o" d="M117.21,195.55c-2.53,7.67-4,15.68-4.93,23.05-.17,1.38-.23,2.72-.18,4.01h-.02c-26.64-.8-50.55-3.75-50.94-8.41-.03-.38,.09-.78,.38-1.2h.01c3.19-4.78,26.32-11.39,55.68-17.45Z"/></g></g><g id="c"><g><path class="k" d="M258.69,184.47c.99,8.68-26.72,21.74-48.04,27.85h0c-1.78-10.1-4.94-20.81-10.27-29.9h0c27.52-2.98,49.98-3.67,56.44-.17,.02,.01,.04,.03,.06,.04,.46,.32,.88,.66,1.28,1h0c.3,.37,.47,.76,.52,1.18Z"/><path class="y" d="M256.82,182.25c-6.46-3.5-28.92-2.81-56.44,.16-16.64,1.8-35.13,4.44-53.06,7.5-1.82,.31-3.64,.62-5.45,.94-5.3,.94-10.53,1.9-15.63,2.89-3.08,.6-6.11,1.21-9.08,1.82-29.36,6.06-52.49,12.67-55.68,17.44,2.99-6.68,25.15-15.28,53.72-22.57,24.96-6.36,54.82-11.73,81.06-13.93,1.94-.17,3.86-.32,5.76-.44,24.78-1.68,45.6-.26,54.8,6.19Z"/><path class="k" d="M220.71,243.93c-1.33-.71-2.69-1.4-4.06-2.05l.87-1.8c.84,1.26,10.43-2.06,12.08,.03,.78,1-6.12,1.97-6,2.87,.16,1.24,11.42-.11,12.39,1.18,.55,.74-6.41,1.09-6.39,1.82,.02,.95,10.82,1.36,10.82,2.22,0,.56-5.74,1.25-6.26,2.35-1.09,2.29,4.34,9.63,2.75,9.93-2.42,.44-4.9-8.48-6.83-8.27-1.29,.14-.21,4.4-1.4,4.47-1.73,.1-3.16-8.74-4.69-8.61-1.09,.09-1.43,4.6-2.09,4.56-.77-.04-.68-6.37-2.08-7l.89-1.7Z"/><path class="v" d="M229.89,84.31c4.65,13.05,6.12,33.51-2.62,50.56-8.47,16.53-22.59,26.78-30.91,33.72-.01,.01-.03,.02-.04,.04-2.95-1.56-5.25-2.84-7.41-4.09,.26-.36,.53-.75,.8-1.14,.29-.44,.59-.89,.89-1.36,6.7,1.52,9.02,.79,21.09-11.61,9.66-9.92,22.75-34.63,18.18-66.11h.02Z"/><path class="g" d="M229.87,84.32c4.57,31.48-8.52,56.19-18.18,66.11-12.07,12.4-14.39,13.13-21.09,11.61,4.17-6.5,8.81-16.29,9.28-28.93,.58-15.55,2.54-27.98,5.87-40.11h-.01c2.03-5.51,11.26-21.7,18.58-18.97h.01c2.04,2.28,3.98,5.86,5.56,10.28h-.02Z"/><path class="k" d="M224.33,74.02h-.01c-7.32-2.72-16.55,13.47-18.58,18.98h.01c-3.33,12.13-5.29,24.56-5.87,40.11-.47,12.64-5.11,22.43-9.28,28.93-.3,.47-.6,.92-.89,1.36-.27,.39-.54,.78-.8,1.14h-.01c-.84-.49-1.66-.97-2.49-1.46-5.05-5.25-.54-21.53,1.77-30.63l-.16-.05c1.95-6.24,3.78-13.05,5.34-20.23,5.8-26.71,19.55-41.95,26.61-40.96,1.43,.2,2.92,1.19,4.36,2.81Z"/><path class="y" d="M220.71,243.93l-.89,1.7c-.05-.02-.09-.03-.14-.04-.9-.15-1.68,2.03-2.61,1.83-1.17-.26-1.01-3.96-1.82-4.05h-.03l.6-1.89c.28,.13,.55,.26,.83,.4,1.37,.65,2.73,1.34,4.06,2.05Z"/><path class="y" d="M219.03,237.9c.42,.86-1.75,1.43-1.56,2.08,.01,.04,.03,.07,.05,.1l-.87,1.8c-.28-.14-.55-.27-.83-.4-1.2-.57-2.41-1.11-3.63-1.63-.3-.13-.6-.26-.9-.38,1.75-1.92,7.5-2.07,7.74-1.57Z"/><path class="r" d="M187.35,287.34v-.06c.01-1.56,.36-3.3,.87-4.87,.17-.52,.35-1.03,.55-1.5,.01-.02,.01-.03,.02-.05,.13-.31,.26-.6,.39-.88,.05-.11,.1-.2,.16-.3h0c.67-1.32,1.36-2.19,1.82-2.19,.57,0,.82,.37,.94,.9,.13,.53,.12,1.22,.18,1.87l.03,.24h-.01c0,1.09-.93,2.57-.35,2.92,.63,.38,2.58-1.3,3.76-1.91l-.02-.03s.05-.03,.07-.04h.01c.32-.19,.67-.4,1.04-.63,.16-.1,.32-.2,.48-.31,.38-.25,.77-.51,1.19-.8,.47-.33,.97-.69,1.49-1.05,.02-.02,.03-.03,.05-.04,6.12-4.43,14.38-11.23,16.14-10.01,.75,.52,.73,1.51,.21,2.79l-.27-.1c-9.88,12.91-15.07,14-14.05,16.2,.69,1.5,2.86,2.02,2.8,3.36-.08,1.77-4.71,4.12-8.09,4.93l-.1,.05c-.65-1.29-1.49-2.53-2.46-3.65-.03-.03-.05-.06-.08-.09-.21-.25-.43-.49-.65-.71-1.5-1.55-3.26-2.81-5.16-3.65-.32-.13-.64-.26-.96-.37l-.09-.03s.06,0,.09,.01Zm9.87,.82c1.07-1.4,1.84-2.86,1.4-3.38-.63-.74-4.06,1.66-5.56,2.95h-.01c-.26,.23-.46,.42-.58,.55-.83,.95,.31,2.79,1.22,2.96,.03,.01,.07,.01,.12,.01,.03,0,.06-.01,.09-.02v.03c.02,.63,.42,1.26,.91,1.13,1.63-.6,2.92-1.31,2.81-1.76-.08-.35-.91-.55-2.04-.53-.04,0-.07,0-.11,.01l.02-.02c.57-.54,1.19-1.23,1.72-1.93h.01Z"/><path class="p" d="M216.1,271.29l.27,.1c-1.3,3.27-5.81,8.37-8.79,12.08-.02,.02-.03,.04-.05,.06-.01,.02-.03,.03-.04,.05-1.6,2.02-2.75,3.61-2.65,4.22,.33,2,4.16-.28,4.59,2.44,.02,.13,0,.28-.05,.44,0,.01-.01,.03-.02,.04-.1,.31-.34,.68-.7,1.07-1.71,1.96-6.1,4.73-11.25,5.76-.21-.58-.46-1.16-.75-1.72l.1-.05c3.38-.81,8.01-3.16,8.09-4.93,.06-1.34-2.11-1.86-2.8-3.36-1.02-2.2,4.17-3.29,14.05-16.2Z"/><path class="y" d="M215.82,241.48l-.6,1.89c-.78,0-1.45,3.32-2.19,3.26-.42-.03-1.68-3.71-.88-6.68l.04-.1c1.22,.52,2.43,1.06,3.63,1.63Z"/><path class="k" d="M215.18,290.26c.2,1.08,.2,2.2,.2,3.33,0,2.45,0,4.74-2,6.7-1.7,1.67-4.87,3.1-10.74,4.18,1.65-1.19,1.4-5.14,.09-6.61,6.04-1.11,9.19-2.6,10.84-4.35,.03-.04,.06-.06,.09-.1,.89-.97,1.32-2.04,1.52-3.15Z"/><path class="k" d="M215.18,290.25h0c-.2,1.12-.63,2.19-1.52,3.16l-.09-.09c-.86-.92-2.13-1.76-4.01-2.52-.06-.03-.13-.05-.2-.08,.01-.01,.02-.03,.02-.04,.05-.16,.07-.31,.05-.44-.43-2.72-4.26-.44-4.59-2.44-.1-.61,1.05-2.2,2.65-4.22,.32,.1,.63,.2,.93,.3,4.84,1.65,6.31,3.9,6.76,6.37Z"/><path class="k" d="M202.72,297.86c-1.47,.27-3.12,.52-4.97,.75v-.05c-.11-.34-.22-.68-.34-1.01,5.15-1.03,9.54-3.8,11.25-5.76,.36-.39,.6-.76,.7-1.07,.07,.03,.14,.05,.2,.08,1.88,.76,3.15,1.6,4.01,2.52l.09,.09s-.06,.06-.09,.1c-1.65,1.75-4.8,3.24-10.84,4.35h-.01Z"/><path class="k" d="M204.67,306.11c-4.64,.83-11.21,1.33-18.18,1.5-8.75,.2-18.14-.13-25.12-1.02,1.16,.02,2.36,.02,3.58,.02,18.55,0,30.28-.79,37.69-2.14,5.87-1.08,9.04-2.51,10.74-4.18l.05,.05c0,8.1,0,15.39-6.99,20.49-.9,.66-1.91,1.28-3.05,1.86-.03,.01-.06,.03-.09,.04l-.26,.2c-1.31-1.67-2.58-3.29-3.82-4.81,.36-.34,.71-.71,1.04-1.08,2.9-3.26,4.01-7.81,4.41-10.93Z"/><path class="a`" d="M211.36,216.78c1.06,7.57-1.95,14.34-7.46,19.87-1.98-.69-3.96-1.3-5.91-1.85,1.68-2.03,3.1-4.11,4.16-6.15,.35-.68,.66-1.39,.94-2.12,.7-.58,1.07-1.27,.99-1.96-.03-.21-.09-.41-.21-.6,2.21-8.87-.09-20.3-2.8-30.56-6.42-1.09-14.45-1.64-23.05-1.82,1.04-.61,1.79-1.29,1.72-1.81-.11-.81-2.25-1.49-4.01-.95-1.48,.45-2.49,1.68-2.88,2.7-8.13-.04-16.59,.21-24.57,.62-.11-.77-.41-1.59-.96-2.24,17.93-3.06,36.42-5.7,53.06-7.5h0c5.33,9.1,8.49,19.81,10.27,29.9h0c.27,1.52,.5,3,.71,4.47Z"/><path class="a`" d="M203.04,322.93l.26-.2s.06-.03,.09-.04c1.14-.58,2.15-1.2,3.05-1.86,.01,2.3-.5,5.35-2.27,7.11-.84,.96-1.87,1.77-3.04,2.42-6.46,3.66-17,2.84-21.62-.14,11.8,1.54,22.67-3.02,16.74-15.6,.98,1.08,1.97,2.25,2.97,3.5,1.24,1.52,2.51,3.14,3.82,4.81Z"/><path class="x" d="M204.08,224.57c.08,.69-.29,1.38-.99,1.96,.31-.82,.57-1.68,.78-2.56,.12,.19,.18,.39,.21,.6Z"/><path class="k" d="M160.73,220.91c-2.04-.02-4.99,.53-5.4,1.02-.57,.69,1.07,2.41,2.86,2.74,.26,.05,.51,.07,.77,.05,2.64-.17,4.33-1.82,3.74-3.28-.14-.37-.94-.52-1.97-.53Zm34.67-15.96c-2.29-4.61-6.8-8.35-10.28-7.52-2.13,.51-4.22,2.4-5.96,4.87-3.26,4.59-5.34,11.17-4.3,14.57,.04,.15,.09,.29,.15,.43,1,2.38,5.7,3.13,10.48,2.43,4.81-.72,9.7-2.9,10.94-6.36,.93-2.59,.35-5.66-1.03-8.42Zm-42.55,25.5c-1.9-.08-3.49,.16-4.44,1.52-1.7,2.44,1.05,4.48,4.98,5.57,.54,.15,1.1,.28,1.68,.4l-.38,1.74h-.03c-.29-.04-.56,0-.83,.15-1.3,.72-.52,6,.5,11.65,0,.02,0,.04,0,.06-21.3-1.86-41.6-11.51-42.29-28.91-.05-1.3,.01-2.64,.18-4.02,.11-.92,.24-1.85,.37-2.78,.94-6.58,2.35-13.56,4.56-20.27,2.97-.61,6-1.22,9.08-1.82h0c4.9-.46,10.65-.92,16.83-1.3,1.52,1.47,3.86,2.73,4.71,2.13,.46-.32,.67-1.33,.5-2.42,7.98-.41,16.44-.66,24.57-.62-.24,.58-.27,1.09-.07,1.34,.56,.7,3.37-.18,5.24-1.28,8.6,.18,16.63,.73,23.05,1.82,2.71,10.26,5.01,21.69,2.8,30.56-.69-1.25-3.02-1.97-5.66-1.65-3.04,.37-5.35,1.98-5.15,3.59,.19,1.62,2.82,2.62,5.86,2.25,1.74-.21,3.24-.83,4.17-1.63-.28,.73-.59,1.44-.94,2.12-1.06,2.04-2.48,4.12-4.16,6.15-8.49-2.41-16.59-3.57-23.02-3.14,1.54-1.96,1.95-3.96,.53-5.43-2.38-2.45-4.86-1.11-7.73,.74-2.15,1.39-4.52,3.06-7.24,3.63-.52,.11-1.07,.17-1.62,.19-2.14,.06-4.24-.28-6.06-.34Zm15.66-16.43c0-2.16-18.16-.06-18.35,2.04-.14,1.57,4.63,2.32,8.35,2.32,4.43,0,10-2.67,10-4.36Zm-23.77,3.94c1.16-3.33-1.4-10.15-5.09-14.71,0,0-.01,0-.01-.01-1.9-2.34-4.1-4.09-6.25-4.46-3.37-.58-7.41,3.05-9.5,7.51-1.42,3.01-1.94,6.4-.77,9.11,1.46,3.37,6.45,5.24,11.29,5.64,0,.01,.02,.01,.03,.01,4.81,.39,9.46-.65,10.3-3.09Zm-14.58,11.03c0-1.63-2.49-2.95-5.55-2.95s-5.55,1.32-5.55,2.95,2.48,2.94,5.55,2.94,5.55-1.31,5.55-2.94Z"/><path class="y" d="M204.67,306.11c-.4,3.12-1.51,7.67-4.41,10.93-.33,.37-.68,.74-1.04,1.08-1-1.25-1.99-2.42-2.97-3.5-3.56-3.97-6.81-6.58-9.74-6.36l-.02-.65c6.97-.17,13.54-.67,18.18-1.5Z"/><path class="ab" d="M203.87,223.97c-.21,.88-.47,1.74-.78,2.56-.93,.8-2.43,1.42-4.17,1.63-3.04,.37-5.67-.63-5.86-2.25-.2-1.61,2.11-3.22,5.15-3.59,2.64-.32,4.97,.4,5.66,1.65Z"/><path class="y" d="M161.37,306.59c-6.5-.03-12.1-.17-16.92-.41-17.78-.87-25-3.02-27.92-5.89-2-1.96-2-4.25-2-6.7v-.68c0-.35,0-.7,.01-1.04,.02-.54,.06-1.06,.14-1.58h.03c.22,1.11,.65,2.16,1.54,3.13,.02,.04,.05,.06,.08,.1,2.04,2.15,6.38,3.92,15.6,5.05,2.85,.36,6.17,.65,10.04,.88h0c.91,.06,1.85,.11,2.83,.16,3.18,.15,6.71,.26,10.6,.33,.74,.01,1.49,.02,2.26,.03,2.3,.03,4.73,.05,7.29,.05,2.1,0,4.1-.01,6.03-.03,1.23-.01,2.42-.03,3.58-.05,1.27-.02,2.49-.05,3.68-.08,.7-.02,1.39-.04,2.06-.06,1.17-.03,2.3-.08,3.39-.13,.17,0,.34-.01,.5-.02h.01l.57-.03c5.13-.24,9.42-.58,12.98-1.01,1.85-.23,3.5-.48,4.97-.75h.01c1.31,1.47,1.56,5.42-.09,6.61-7.41,1.35-19.14,2.14-37.69,2.14-1.22,0-2.42,0-3.58-.02Z"/><path class="k" d="M201.96,175.21l.06,.85c-1.9,.12-3.82,.27-5.76,.44h0s-.04-.06-.05-.09c-4.98-8.76-24.05-19.85-38.84-19.85,6.91-.88,13.88-.35,20.36,1.5h0c3.55,2.01,6.15,3.55,8.68,5.02,.65,.69,1.47,1.19,2.49,1.46h.01c2.16,1.25,4.46,2.53,7.41,4.09,.01-.02,.03-.03,.04-.04,2.07,1.98,3.95,4.19,5.6,6.62Z"/><path class="w" d="M172.72,328.26c.51-.07,2.22-.22,4.59-.61h.01c.05,.22,.13,.42,.24,.61,.38,.72,1.05,1.38,1.95,1.96,4.62,2.98,15.16,3.8,21.62,.14h0c.65,3.93-.05,10.31-.48,14.44-1.68,15.98-3.73,34.15-6.33,44.95-1.97,.61-3.6,1.08-5.05,1.41,1.41-4.55,2.51-10.29,3.36-16.49h0c.17-.29,.27-.58,.27-.89,0-.17-.03-.33-.09-.49,1.66-12.61,2.31-26.83,2.46-36.63-16.17,0-15.28-2.77-18.33-4.11-2.84-1.25-17.68-2.06-23.99-2.62,.47-.49,.79-1.02,.94-1.58,.01-.01,.01-.02,.01-.03,.01-.02,.01-.05,.02-.07,3.37,.22,7.03,.16,11.04,.16,2.01,0,3.93-.03,5.78-.08,.69-.02,1.34-.04,1.96-.07h.02Z"/><path class="a`" d="M199.97,278.65c-.52,.36-1.02,.72-1.49,1.05-.22-.57-.46-1.19-.72-1.83h0c.17-1,.31-1.97,.43-2.93,.68,1.33,1.28,2.6,1.78,3.71Z"/><path class="p" d="M198.62,284.78c.44,.52-.33,1.98-1.4,3.38h-.01c-.53,.7-1.15,1.39-1.72,1.93l-.02,.02c-.21,.01-.44,.02-.67,.04-.69,.02-.93,.54-.9,1.08-.03,.01-.06,.02-.09,.02-.05,0-.09,0-.12-.01-.91-.17-2.05-2.01-1.22-2.96,.12-.13,.32-.32,.58-.55h.01c1.5-1.29,4.93-3.69,5.56-2.95Z"/><path class="a`" d="M197.99,234.8c1.95,.55,3.93,1.16,5.91,1.85-6.12,6.16-15.35,10.78-25.47,13.23,6.64-2.85,14.34-8.73,19.56-15.08Z"/><path class="j" d="M191.62,273.67s.01-.01,.01-.01c.85-1.53,1.68-3.1,2.42-4.62h0c.14-.31,.28-.6,.42-.89h0c1.77-3.75,2.99-6.99,2.86-8.02,1.57,1.51,1.79,7.46,.88,14.68-.01,.04-.01,.08-.02,.12h0c-.12,.97-.26,1.94-.43,2.93h0c-.14,.88-.3,1.76-.47,2.64-.16,.11-.32,.21-.48,.31-.37,.23-.72,.44-1.04,.63h-.01s-.05,.03-.07,.04h-.01c-.88,.5-1.57,.77-2.01,.73-.7-.05-1.05-.46-1.21-1.02-.01-.02-.01-.04-.02-.06h-.01c-.06-.2-.1-.41-.12-.63l-.03-.24c-.06-.65-.05-1.34-.18-1.87-.12-.53-.37-.9-.94-.9-.46,0-1.15,.87-1.82,2.18h0c-.06,.11-.11,.2-.16,.31-.13,.28-.26,.57-.39,.88-.01,.02-.01,.03-.02,.05-.2,.47-.38,.98-.55,1.5h-.29c-.56-.36-1.09-.69-1.58-1,.17-.19,.35-.39,.53-.61,.58-.69,1.23-1.51,1.85-2.42,.05-.07,.09-.13,.14-.2,.92-1.36,1.85-2.9,2.75-4.51Z"/><path class="a`" d="M197.76,277.87c.26,.64,.5,1.26,.72,1.83-.42,.29-.81,.55-1.19,.8,.17-.88,.33-1.76,.47-2.63Z"/><path class="j" d="M197.74,298.56v.05c-3.55,.43-7.84,.77-12.97,1.01l-.57,.03c5.84-2.01,11.19-4.56,9.92-7.56,.03,.03,.05,.06,.08,.09,.97,1.12,1.81,2.36,2.46,3.65,.29,.56,.54,1.14,.75,1.72,.12,.33,.23,.67,.33,1.01Z"/><path class="p" d="M197.62,290.63c.11,.45-1.18,1.16-2.81,1.76-.49,.13-.89-.5-.91-1.13v-.03c.36-.09,.94-.52,1.57-1.12,.04-.01,.07-.01,.11-.01,1.13-.02,1.96,.18,2.04,.53Z"/><path class="u" d="M197.33,260.13c.13,1.03-1.09,4.27-2.86,8.01h0c-.14,.3-.28,.59-.42,.89h0c-.74,1.53-1.57,3.1-2.42,4.63,0,0,0,.01-.01,.01s-.01-.01-.02-.01c-2.67-1.68-4.56-3.78-5.64-6.82,1.73-1.42,3.37-2.68,4.85-3.71,.02-.02,.03-.03,.05-.04,3.32-2.35,5.78-3.58,6.41-3.02l.03,.03,.03,.03Z"/><path class="k" d="M196.25,314.62c5.93,12.58-4.94,17.14-16.74,15.6-.9-.58-1.57-1.24-1.95-1.96-.11-.19-.19-.39-.24-.61h-.01l-.03-.12c-2.21-5.06,2.92-18.27,8.87-19.22,.12-.02,.24-.03,.36-.05,2.93-.22,6.18,2.39,9.74,6.36Z"/><path class="h" d="M195.4,204.95c1.38,2.76,1.96,5.83,1.03,8.42-1.24,3.46-6.13,5.64-10.94,6.36h0c7.79-2.21,5.45-10.73,1.2-15.3,3.05-.74,6.18-.58,8.71,.52Z"/><path class="y" d="M128.12,170.91c2.89-1.78,4.93-3.07,6.72-4.23,.73-.48,1.42-.94,2.11-1.4,2.35-1.56,4.66-3.16,8.6-5.77,.02-.01,.03-.02,.05-.03,3.84-1.45,7.8-2.42,11.77-2.92,14.79,0,33.86,11.09,38.84,19.85,.01,.03,.03,.05,.05,.08h0c-26.24,2.21-56.1,7.58-81.06,13.94l-.11-.43c3.22-7.83,7.65-14.23,12.85-19.28,.07,.07,.13,.13,.18,.19Z"/><path class="p" d="M195.69,281.48l.02,.03c-1.18,.61-3.13,2.29-3.76,1.91-.58-.35,.35-1.83,.35-2.92h.01c.02,.22,.06,.43,.12,.63h.01s.01,.04,.02,.06c.16,.56,.51,.97,1.21,1.02,.44,.04,1.13-.23,2.01-.73h.01Z"/><path class="p" d="M194.8,290.15c.23-.02,.46-.03,.67-.04-.63,.6-1.21,1.03-1.57,1.12-.03-.54,.21-1.06,.9-1.08Z"/><path class="u" d="M194.12,292.09c1.27,3-4.08,5.55-9.92,7.56h-.01c-.16,.01-.33,.02-.5,.02v-.05c-2.26-3.01-5.75-5.11-9.93-7.01,.48-.62,.99-1.22,1.49-1.76h0c1.58-1.72,3.16-2.98,4.67-3.57h.02c.18-.08,.36-.14,.54-.19,.05-.01,.1-.03,.15-.04h.01c.06-.02,.12-.04,.19-.05,.09-.03,.19-.05,.28-.07,1.11-.26,2.21-.31,3.3-.21,.9,.07,1.78,.27,2.64,.55h.01l.18,.06h0l.09,.03c.32,.11,.64,.24,.96,.37,1.9,.84,3.66,2.1,5.16,3.65,.22,.22,.44,.46,.65,.71Z"/><path class="w" d="M192.81,373.29c.06,.16,.09,.32,.09,.49,0,.31-.1,.6-.27,.88,.06-.46,.13-.91,.18-1.37Z"/><path class="m" d="M195.27,336.66c-.15,9.8-.8,24.02-2.46,36.63-.47-1.4-2.98-2.46-6-2.46-3.37,0-6.1,1.32-6.1,2.95s2.73,2.95,6.1,2.95c2.72,0,5.03-.87,5.82-2.06-.85,6.2-1.95,11.94-3.36,16.49-4.64,1.1-7.42,.91-13.67,.25-.81-10.89-.51-29.01-3.21-30.41-.91-.47-1.96-.76-3.06-.9h-.01c-3.05-.44-6.45,.13-8.15,.64-1.54,.07-6.21,0-6.21,1.33,.05,6.54,.7,20.22-.73,29.65-4.82,.36-7.66,.04-14.13-1.97-1.73-7.49-4.25-20.57-9.19-43.88-.82-3.88-1.28-10.1-.61-14.65,.68,.37,1.4,.68,2.15,.96h.02c7.21,2.62,17.26,1.12,20.47-2.25h.01c6.31,.56,21.15,1.37,23.99,2.62,3.05,1.34,2.16,4.11,18.33,4.11Zm-41.58,38.24c0-1.63-2.62-2.95-5.86-2.95s-5.86,1.32-5.86,2.95,2.63,2.95,5.86,2.95,5.86-1.32,5.86-2.95Z"/><path class="k" d="M197.99,234.8c-5.22,6.35-12.92,12.23-19.56,15.08t-.02,.01c-1.47,.36-2.97,.67-4.47,.92-3.83,.68-7.73,1.04-11.61,1.06-.01-.02-.01-.03-.02-.05-2.36-5.25-5.26-11.74-7.62-12.14l.38-1.74c2.21,.44,4.65,.59,6.8,.38,2.92-.29,5.84-1.33,8.29-2.72,2.01-1.15,3.7-2.53,4.81-3.94,6.43-.43,14.53,.73,23.02,3.14Z"/><path class="w" d="M192.81,373.29c-.05,.46-.12,.91-.18,1.37h0c-.79,1.2-3.1,2.07-5.82,2.07-3.37,0-6.1-1.32-6.1-2.95s2.73-2.95,6.1-2.95c3.02,0,5.53,1.06,6,2.46Z"/><path class="u" d="M191.6,273.66s.01,.01,.02,.01c-.9,1.61-1.83,3.15-2.75,4.51-.05,.07-.09,.13-.14,.2-.62,.91-1.27,1.73-1.85,2.42-.18,.22-.36,.42-.53,.61-.36-.24-.71-.46-1.04-.69h-.01s-.05-.03-.07-.05h-.01c-1.39-.93-2.55-1.81-3.62-2.83,0-.01-.01-.01-.01-.02-.81-1.8-1.74-3.37-2.78-4.63,.37-.35,.74-.71,1.11-1.05l.05-.05c.87-.81,1.73-1.6,2.6-2.35,.01-.02,.03-.03,.04-.04,.36-.33,.73-.64,1.09-.95,.02-.02,.03-.04,.05-.05,.75-.65,1.49-1.27,2.21-1.86,1.08,3.04,2.97,5.14,5.64,6.82Z"/><path class="f" d="M195.4,204.95c-2.53-1.1-5.66-1.26-8.71-.52-2.39-2.56-5.39-3.88-7.53-2.13,1.74-2.47,3.83-4.36,5.96-4.87,3.48-.83,7.99,2.91,10.28,7.52Z"/><path class="a`" d="M194.32,389.75c-1.26,5.24-2.65,8.75-4.19,9.43-2.75,1.21-5.04,2.01-7.37,1.95,2.68-.75,4.82-4.5,6.51-9.97,1.45-.33,3.08-.8,5.05-1.41Z"/><path class="k" d="M189.82,262.21c.32,.24,.65,.55,.99,.92-1.48,1.03-3.12,2.29-4.85,3.71-.72,.59-1.46,1.21-2.21,1.86-.02,.01-.03,.03-.05,.05,.03-2.81,.43-6.94,.82-8.39l.02-.08c2.03,.39,3.96,.93,5.28,1.93Z"/><path class="j" d="M187.93,282.4h.29c-.51,1.58-.86,3.32-.87,4.88v.06s-.06-.01-.09-.01h0l-.18-.06h-.01c-.86-.28-1.74-.48-2.64-.55-.28-1.27-.59-2.5-.95-3.68l.12-.04c.7,.21,1.67-.42,2.76-1.59,.49,.31,1.02,.64,1.58,.99Z"/><path class="a`" d="M188.02,132.4l.16,.05c-2.31,9.1-6.82,25.38-1.77,30.63-2.53-1.47-5.13-3.01-8.68-5.01h0c3.38-6.37,7.02-15.22,10.29-25.67Z"/><path class="n" d="M186.69,204.43c4.25,4.57,6.59,13.09-1.2,15.29h0c-4.78,.71-9.48-.04-10.48-2.42-.06-.14-.11-.28-.15-.43l.06-.02c.89-5.27,4.1-8.95,7.97-10.98,.17,.26,.46,.43,.79,.43,.51,0,.93-.41,.93-.92,0-.1-.01-.19-.04-.27,.69-.28,1.41-.51,2.12-.68Z"/><path class="y" d="M186.49,307.61l.02,.65c-.12,.02-.24,.03-.36,.05-5.95,.95-11.08,14.16-8.87,19.22l.03,.12c-2.37,.39-4.08,.54-4.59,.61h-.02c-.62,.03-1.27,.05-1.96,.07-1.85,.05-3.77,.08-5.78,.08-4.01,0-7.67,.06-11.04-.16,1.63-3.74-.74-11.93-4.51-16.33-.64-.75-1.32-1.4-2.03-1.88h0c-.75-.52-1.53-.87-2.33-1-.24-.04-.49-.06-.73-.06l.13-2.8c4.82,.24,10.42,.38,16.92,.41,6.98,.89,16.37,1.22,25.12,1.02Z"/><path class="u" d="M185.31,280.72c.33,.23,.68,.45,1.04,.69-1.09,1.17-2.06,1.8-2.76,1.59l-.12,.04c-.24-.84-.5-1.65-.78-2.43-.01-.02-.01-.04-.02-.06-.12-.34-.24-.67-.37-1-.22-.59-.46-1.16-.71-1.71v-.02s.01,.01,.01,.02c1.07,1.02,2.23,1.9,3.62,2.83h.01s.05,.03,.07,.05h.01Z"/><path class="i" d="M186.69,204.43c-.71,.17-1.43,.4-2.12,.68-.12-.39-.47-.66-.89-.66-.51,0-.93,.41-.93,.93,0,.18,.05,.35,.14,.49-3.87,2.03-7.08,5.71-7.97,10.98l-.06,.02c-1.04-3.4,1.04-9.98,4.3-14.57,2.14-1.75,5.14-.43,7.53,2.13Z"/><path class="h" d="M184.57,205.11c.03,.08,.04,.17,.04,.27,0,.51-.42,.92-.93,.92-.33,0-.62-.17-.79-.43,.55-.29,1.11-.55,1.68-.76Z"/><path class="m" d="M184.54,260.28l-.02,.08c-.39,1.45-.79,5.58-.82,8.39-.36,.31-.73,.62-1.09,.95-.01,.01-.03,.02-.04,.04-.2-.06-.4-.09-.61-.09-.58,0-1.1,.24-1.48,.62-.22-2.01,.09-8.37,.66-10.45l.02-.12c1.1,.19,2.25,.36,3.38,.58Z"/><path class="j" d="M184.42,286.72c-1.09-.1-2.19-.05-3.3,.21l-.02-.08c-.42-1.29-1.38-6.89-5.45-12.67-2.07-2.95-6.58-3.83-10.26-4.13l-.03-.11c1.67-.42,3.39-.61,5.04-.55,.35,.02,.7,.04,1.05,.08,1.56,.17,3.05,.57,4.35,1.22,.58,.29,1.14,.67,1.67,1.12,.02,.02,.04,.03,.06,.05,.45,.39,.87,.83,1.28,1.33,1.04,1.26,1.97,2.83,2.78,4.63v.02c.25,.55,.49,1.12,.71,1.71,.13,.33,.25,.66,.37,1,.01,.02,.01,.04,.02,.06,.28,.78,.54,1.59,.78,2.43,.36,1.18,.67,2.41,.95,3.68Z"/><path class="h" d="M183.68,204.45c.42,0,.77,.27,.89,.66-.57,.21-1.13,.47-1.68,.76-.09-.14-.14-.31-.14-.49,0-.52,.42-.93,.93-.93Z"/><path class="u" d="M183.69,299.62v.05c-1.09,.05-2.22,.1-3.39,.13-.67,.02-1.36,.04-2.06,.06v-.05l-.02-.02c-.47-.44-.95-.87-1.43-1.3-.56-.5-1.12-1-1.69-1.48-.94-.82-1.9-1.61-2.86-2.38,.38-.54,.76-1.05,1.14-1.54,.12-.16,.25-.32,.38-.48,4.18,1.9,7.67,4,9.93,7.01Z"/><path class="k" d="M175.6,391.41c6.25,.66,9.03,.85,13.67-.25-1.69,5.47-3.83,9.22-6.51,9.97h0c-1.7-.03-3.44-.53-5.41-1.65-.93-.54-1.42-3.73-1.74-8.07Z"/><path class="q" d="M181.96,269.65c.21,0,.41,.03,.61,.09-.87,.75-1.73,1.54-2.6,2.35l-.05,.05c0-.05-.02-.1-.02-.15-.02-.08-.02-.16-.02-.25,0-.57,.22-1.08,.6-1.46h0c.38-.39,.9-.63,1.48-.63Z"/><path class="k" d="M181.16,259.7l-.02,.12c-.57,2.08-.88,8.44-.66,10.45h0c-.38,.39-.6,.9-.6,1.47,0,.09,0,.17,.02,.25h-.02c-.75-.05-1.54-.09-2.35-.13-.02-.02-.04-.03-.06-.05-.53-.45-1.09-.83-1.67-1.12-1.3-.65-2.79-1.05-4.35-1.22,1.79-6.68,.29-13.54-1.22-14.01-.22-.07-.42-.1-.61-.1l-.1-.8c1.39-.18,2.92-.44,4.77-.8h.01c.25,1.05,.63,2.14,1.12,3.39,.6,1.52,2.99,2.08,5.74,2.55Z"/><path class="u" d="M158.52,286.93c-.18-.03-.36-.06-.54-.08h-.01c-.09-.02-.18-.03-.27-.04h-.09c-.46-.05-.89-.05-1.31,0-.04,0-.1,.02-.14,.03h-.02c-.11,.01-.21,.02-.32,.04-.01-.01-.01-.03-.01-.04h-.01c-.14-.36-.27-.7-.39-1.04h0c-.51-1.44-.83-2.76-.92-3.96-.03-.5-.03-.98,.03-1.43v-.05c.01-.12,.03-.23,.05-.34,.04-.21,.08-.42,.12-.62,.51-2.11,1.63-3.93,3.15-5.41h.01c.78-.78,1.66-1.46,2.63-2.04h.01c1.49-.9,3.15-1.57,4.87-2l.03,.11c3.68,.3,8.19,1.18,10.26,4.13,4.07,5.78,5.03,11.38,5.45,12.67l.02,.08c-.09,.02-.19,.04-.28,.07-.07,.01-.13,.03-.19,.05h-.01c-.05,0-.1,.03-.15,.04-.18,.05-.36,.11-.54,.19h-.02c-1.51,.59-3.09,1.85-4.67,3.57h0c-.5,.54-1.01,1.14-1.49,1.76-.13,.16-.26,.32-.38,.48-.38,.49-.76,1-1.14,1.54-2.37-1.87-4.73-3.57-6.97-4.88-.41-.24-.82-.47-1.22-.68-1.68-.91-3.28-1.59-4.72-1.96-.28-.08-.54-.14-.81-.18Z"/><path class="m" d="M179.9,271.99c0,.05,.01,.1,.02,.15-.37,.34-.74,.7-1.11,1.05-.41-.5-.83-.94-1.28-1.33,.81,.04,1.6,.08,2.35,.13h.02Z"/><path class="aa" d="M179.74,189.78c.07,.52-.68,1.2-1.72,1.81-1.7-.04-3.43-.06-5.17-.06,.39-1.02,1.4-2.25,2.88-2.7,1.76-.54,3.9,.14,4.01,.95Z"/><path class="j" d="M178.24,299.81v.05c-1.19,.03-2.41,.06-3.68,.08-1.16,.02-2.35,.04-3.58,.05,.05-.09,.08-.17,.11-.26,.72-2.44-3.33-6.35-8.22-9.17,.33-.38,.66-.77,1-1.16l.18-.33c.4,.21,.81,.44,1.22,.68,2.24,1.31,4.6,3.01,6.97,4.88,.96,.77,1.92,1.56,2.86,2.38,.57,.48,1.13,.98,1.69,1.48,.48,.43,.96,.86,1.43,1.3l.02,.02Z"/><path class="f" d="M175.5,226.23c1.42,1.47,1.01,3.47-.53,5.43-1.11,1.41-2.8,2.79-4.81,3.94,.28-1.15-1.42-6.95-2.39-8.63,2.87-1.85,5.35-3.19,7.73-.74Z"/><path class="a`" d="M174.3,253.76h-.01c-1.85,.36-3.38,.62-4.77,.8-2.02,.26-3.77,.35-5.82,.29-.43-.9-.89-1.91-1.37-2.98,3.88-.02,7.78-.38,11.61-1.06v.03c0,1,.12,1.94,.36,2.92Z"/><path class="l" d="M178.02,191.59c-1.87,1.1-4.68,1.98-5.24,1.28-.2-.25-.17-.76,.07-1.34,1.74,0,3.47,.02,5.17,.06Z"/><path class="p" d="M170.23,255.46c1.51,.47,3.01,7.33,1.22,14.01-.35-.04-.7-.06-1.05-.08v-.19c.62-3.42,.48-9.35-1.11-10.14-1.2-.59-2.55,1.19-4.2,1.22-2.42,.05-2.59-6.34-10.43-20.59h.03c2.36,.39,5.26,6.88,7.62,12.13,.01,.02,.01,.03,.02,.05,.48,1.07,.94,2.08,1.37,2.98,.96,2.02,1.77,3.47,2.31,3.64,1.78,.55,1.63-3.13,3.61-3.13,.19,0,.39,.03,.61,.1Z"/><path class="u" d="M162.87,290.56c4.89,2.82,8.94,6.73,8.22,9.17-.03,.09-.06,.17-.11,.26-1.93,.02-3.93,.03-6.03,.03-2.56,0-4.99-.02-7.29-.05v-.05c.74-3.28,2.66-6.3,5.21-9.36Z"/><path class="r" d="M155.18,272.21c-.25,.01-.5,.02-.74,.04,0-.92-.59-1.69-1.41-1.97l.02-.06c-1.43-1.54-2.4-3.07-2.4-3.8,0-.09,.02-.17,.05-.24,.53-1.07,1.89-.17,3.16,.3,.01,0,.03,.01,.04,.01,.05,.02,.09,.03,.14,.04,.95,.53,2.15,1.62,2.66,1.26,.61-.42-.23-2.26-.3-3.57h-.11c-.02-1.16-.22-2.74-.51-4.53v-.03c-.39-2.46-.94-5.34-1.44-8.12,0-.02,0-.04,0-.06-1.02-5.65-1.8-10.93-.5-11.65,.27-.15,.54-.19,.83-.15h0c7.84,14.26,8.01,20.65,10.43,20.6,1.65-.03,3-1.81,4.2-1.22,1.59,.79,1.73,6.72,1.11,10.14v.19c-1.65-.06-3.37,.13-5.04,.55-1.72,.43-3.38,1.1-4.87,2h-.01c-.97,.58-1.85,1.26-2.63,2.03-.91-.45-1.82-1.06-2.67-1.76Zm10.75-3.79c-.15-1.74-.5-3.17-.96-3.18-.36-.01-.76,.72-1.04,1.8-1.26-2.15-3.42-4.79-4.31-4.38-1.04,.48,1.1,5.84,1.77,6.85,.69,1.05,3.02,.83,3.43,0,.05-.1,.05-.27,.01-.47,.55,.04,1.1-.18,1.1-.62Z"/><path class="f" d="M167.77,226.97c.97,1.68,2.67,7.48,2.39,8.63-2.45,1.39-5.37,2.43-8.29,2.72,.28-1.15-.36-6.03-1.34-7.72,2.72-.57,5.09-2.24,7.24-3.63Z"/><path class="k" d="M169.52,254.56l.1,.8c-1.98,0-1.83,3.68-3.61,3.13-.54-.17-1.35-1.62-2.31-3.64,2.05,.06,3.8-.03,5.82-.29Z"/><path class="p" d="M164.97,265.24c.46,.01,.81,1.44,.96,3.18,0,.44-.55,.66-1.1,.62-.11-.48-.44-1.2-.9-1.99h0c.28-1.09,.68-1.82,1.04-1.81Z"/><path class="a`" d="M150.16,216.06c.19-2.1,18.34-4.2,18.35-2.04,0,1.69-5.57,4.36-10,4.36-3.72,0-8.49-.75-8.35-2.32Z"/><path class="p" d="M164.83,269.04c.04,.2,.04,.37-.01,.47-.41,.83-2.74,1.05-3.43,0-.67-1.01-2.81-6.37-1.77-6.85,.89-.41,3.05,2.23,4.31,4.38h0c-.07,.26-.12,.52-.17,.8-.18,.78,.45,1.16,1.07,1.2Z"/><path class="j" d="M164.05,289.07l-.18,.33c-.34,.39-.67,.78-1,1.16-2.85-1.65-5.99-2.92-8.64-3.31v-.02c.48-.15,.99-.27,1.52-.35h.02s.03-.01,.05-.01c.11-.02,.21-.03,.32-.04h.02s.1-.02,.14-.03c.42-.04,.85-.04,1.31,0h.09c.09,.01,.18,.02,.27,.04h.01c.18,.02,.36,.05,.54,.08,.27,.04,.53,.1,.81,.18,1.44,.37,3.04,1.05,4.72,1.96Z"/><path class="p" d="M163.93,267.05c.46,.79,.79,1.51,.9,1.99-.62-.04-1.25-.42-1.07-1.2,.05-.28,.1-.54,.17-.79Z"/><path class="v" d="M162.7,221.44c.59,1.46-1.1,3.11-3.74,3.28-.26,.02-.51,0-.77-.05,2.41-.11,2.91-2.82,2.54-3.76,1.03,.01,1.83,.16,1.97,.53Z"/><path class="h" d="M160.53,230.6c.98,1.69,1.62,6.57,1.34,7.72-2.15,.21-4.59,.06-6.8-.38-.58-.12-1.14-.25-1.68-.4,.28-1.15,.44-5.4-.54-7.09,1.82,.06,3.92,.4,6.06,.34,.55-.02,1.1-.08,1.62-.19Z"/><path class="g" d="M160.73,220.91c.37,.94-.13,3.65-2.54,3.76-1.79-.33-3.43-2.05-2.86-2.74,.41-.49,3.36-1.04,5.4-1.02Z"/><path class="u" d="M149.12,290.53c.3-.32,.61-.62,.93-.9,1.11-.98,2.37-1.75,3.76-2.25t.02-.01c.12-.05,.24-.09,.36-.13,.01,0,.02-.01,.03-.01v.02c2.66,.39,5.8,1.66,8.65,3.31-2.55,3.06-4.47,6.08-5.21,9.36v.05c-.77-.01-1.52-.02-2.26-.03-3.89-.07-7.42-.18-10.6-.33v-.05c.55-3.31,2.06-6.6,4.32-9.03Z"/><path class="w" d="M161.17,360.74c-.79,.23-1.32,1.4-1.68,3.2-1.18,5.89-.44,18.58-.58,27.33-1.8,.19-3.32,.35-4.68,.45,1.43-9.43,.78-23.11,.73-29.65,0-1.33,4.67-1.26,6.21-1.33Z"/><path class="m" d="M157.85,273.97h-.01c-1.52,1.49-2.64,3.31-3.15,5.42-.04,.2-.08,.41-.12,.62-.02,.11-.04,.22-.05,.34v.05c-.62,.01-1.24,.03-1.84,.04-1.89,.04-3.68,.1-5.38,.16-.08-.77-.26-1.38-.4-1.99,.24-.1,.49-.23,.74-.37,1.71-.97,3.38-2.69,3.78-4.13,.28,.14,.6,.22,.94,.22,1.15,0,2.08-.93,2.08-2.08,.24-.02,.49-.03,.74-.04,.85,.7,1.76,1.31,2.67,1.76Z"/><path class="a`" d="M158.91,391.27c-.07,4.88-.42,8.53-1.52,9.12-2.77,1.5-5.63,1.65-8.17,1.21,2.69-.47,4.19-4.48,5.01-9.88,1.36-.1,2.88-.26,4.68-.45Z"/><path class="p" d="M156.4,264.22c.07,1.31,.91,3.15,.3,3.57-.51,.36-1.71-.73-2.66-1.26,.8,.26,1.54,.29,2.01-.5,.2-.34,.27-.96,.24-1.81h.11Z"/><path class="k" d="M156.29,264.22c.03,.85-.04,1.47-.24,1.81-.47,.79-1.21,.76-2.01,.5l-.18-.09c-.11-2.36-.36-4.93-.68-6.11,.97-.17,1.86-.37,2.6-.64,.29,1.79,.49,3.37,.51,4.53Z"/><path class="j" d="M155.41,285.78h0c-.36,.41-.72,.79-1.1,1.13-.15,.16-.32,.31-.48,.46t-.02,.01c-1.39,.5-2.65,1.27-3.76,2.25-.36-.88-.87-1.77-1.44-2.62-1.02-1.5-2.27-2.87-3.37-3.81-.02-.02-.04-.03-.06-.05-.61-.72-.36-6.41-.81-7.57-.29-.75-.86-1.2-1.51-1.57,.3-.47,.59-.96,.87-1.48,.67,.27,1.39,.5,1.99,.91,.43,.28,.8,.65,1.05,1.18,.41,.91,.25,1.77-.04,2.62-.19,.55-.43,1.1-.6,1.64h-.01c-.18,.59-.29,1.18-.14,1.78,.05,.17,.11,.34,.2,.51,.94,1.8,4.01,2.61,6.15,1.91,1.22-.4,1.7-.93,2.16-1.25,.09,1.2,.41,2.52,.92,3.95Z"/><path class="y" d="M154.52,280.4c-.06,.45-.06,.93-.03,1.43-.46,.32-.94,.85-2.16,1.25-2.14,.7-5.21-.11-6.15-1.91-.09-.17-.15-.34-.2-.51,.43-.02,.87-.04,1.32-.06,1.7-.06,3.49-.12,5.38-.16,.6-.01,1.22-.03,1.84-.04Z"/><path class="a`" d="M149.41,311.92c3.77,4.4,6.14,12.59,4.51,16.33,0,.02,0,.05-.02,.07,0,.01,0,.02-.01,.03-.15,.56-.47,1.09-.94,1.58h-.01c-3.21,3.37-13.26,4.87-20.47,2.25,10.15,.39,16.67-2.27,17.04-10.65,1.36-2.52,.69-6.21-.23-9.49l.13-.12Z"/><path class="q" d="M153.03,270.28c.82,.28,1.41,1.05,1.41,1.97,0,1.15-.93,2.08-2.08,2.08-.34,0-.66-.08-.94-.22-.68-.35-1.14-1.05-1.14-1.86,0-.38,.1-.74,.28-1.05,.37-.62,1.03-1.03,1.8-1.03,.23,0,.46,.04,.67,.11Z"/><path class="m" d="M153.86,266.44v.04c-1.27-.47-2.63-1.37-3.16-.3-.03,.07-.05,.15-.05,.24h-.14c-.16-2.24-.44-4.54-.71-5.54,1.16-.2,2.32-.36,3.38-.55,.32,1.18,.57,3.75,.68,6.11Z"/><path class="h" d="M152.85,230.45c.98,1.69,.82,5.94,.54,7.09-3.93-1.09-6.68-3.13-4.98-5.57,.95-1.36,2.54-1.6,4.44-1.52Z"/><path class="m" d="M153.05,270.22l-.02,.06c-.21-.07-.44-.11-.67-.11-.77,0-1.43,.41-1.8,1.03,.11-1.03,.07-2.88-.05-4.77h.14c0,.72,.97,2.25,2.4,3.79Z"/><ellipse class="w" cx="147.83" cy="374.9" rx="5.86" ry="2.95"/><path class="k" d="M140.1,389.75c6.47,2.01,9.31,2.33,14.13,1.97-.82,5.4-2.32,9.41-5.01,9.88-1.61-.27-3.1-.78-4.35-1.34-2-.89-2.94-2.54-4.77-10.51Z"/><path class="k" d="M145.72,273.44c-.6-.41-1.32-.64-1.99-.91-.82-.32-1.58-.69-1.99-1.49-.35-.69-.43-1.75,.35-3.4-.73-.42-1.45-.84-2.17-1.23,1.16-1.49,2.23-2.67,3.05-3.29,1.69-1.27,4.28-1.83,6.83-2.24,.27,1,.55,3.3,.71,5.55,.12,1.89,.16,3.74,.05,4.77-.18,.31-.28,.67-.28,1.05,0,.81,.46,1.51,1.14,1.86-.4,1.44-2.07,3.16-3.78,4.13-.25,.14-.5,.27-.74,.37-.1-.43-.17-.87-.17-1.37,.29-.85,.45-1.71,.04-2.62-.25-.53-.62-.9-1.05-1.18Z"/><path class="a`" d="M149.28,312.04c.92,3.28,1.59,6.97,.23,9.49,.14-3.04-.53-6.82-2.13-11.49,.71,.48,1.39,1.13,2.03,1.88l-.13,.12Z"/><path class="p" d="M150.05,289.63c-.32,.28-.63,.58-.93,.9-.96-2.85-3.27-5.61-4.38-5.17-1.25,.48-.31,2.79-1.3,4.09-1.32,1.73-8.79-2.53-21.32-5.78-1.44-.37-2.94-.73-4.51-1.06,1.26-.1,3.24,.21,5.56,.72,.02,.01,.05,.01,.07,.02,.49,.1,.98,.22,1.5,.34,1.8,.42,3.72,.93,5.62,1.42h.01c2.92,.77,5.77,1.52,7.97,1.94h.01c.94,.18,1.75,.31,2.41,.35,.16,.01,.31,.02,.45,.02h.1c.19,0,.37-.01,.52-.04h.04c.09-.02,.18-.04,.25-.07,.05,0,.09-.03,.13-.05,1.43-.7,.47-2.4,.11-3.72-.2-.73-.22-1.34,.44-1.61,.41-.17,1.32,.32,2.38,1.22,.02,.02,.04,.03,.06,.05,1.1,.94,2.35,2.31,3.37,3.81,.57,.85,1.08,1.74,1.44,2.62Z"/><path class="k" d="M128.22,323.56c4.54-5.83,8.68-11.03,12.39-13.33h0c1.29-.8,2.53-1.25,3.71-1.25,.24,0,.49,.02,.73,.06,.8,.13,1.58,.48,2.33,.99h0c1.6,4.68,2.27,8.46,2.13,11.5-.37,8.38-6.89,11.04-17.04,10.65h-.02c-.75-.28-1.47-.59-2.15-.96-1.26-.68-2.38-1.53-3.28-2.56-1.74-1.73-2.25-4.68-2.26-6.96,.93,.58,1.97,1.13,3.13,1.63,.03,.02,.06,.04,.09,.04l.24,.19Z"/><path class="l" d="M148.28,192.15c.17,1.09-.04,2.1-.5,2.42-.85,.6-3.19-.66-4.71-2.13,1.71-.1,3.45-.2,5.21-.29Z"/><path class="aa" d="M147.32,189.91c.55,.65,.85,1.47,.96,2.24-1.76,.09-3.5,.19-5.21,.29-.54-.52-.98-1.08-1.2-1.58h0c1.81-.33,3.63-.64,5.45-.95Z"/><path class="w" d="M147.3,280.6c-.45,.02-.89,.04-1.32,.06-.15-.6-.04-1.19,.14-1.78h.01c.25-.07,.51-.16,.77-.27,.14,.61,.32,1.22,.4,1.99Z"/><path class="r" d="M131.77,294.74l-.02,.02c-1.64-.99-3.98-2.22-6.36-3.52-.79-.43-1.59-.88-2.36-1.33-.02-.01-.03-.02-.05-.03-1.18-.68-2.3-1.37-3.29-2.04-.95-.65-1.76-1.27-2.38-1.88h-.01c-1.07-1.06-1.54-2.03-1.01-2.84,.2-.3,.66-.46,1.32-.51,1.57,.33,3.07,.69,4.51,1.06,12.53,3.25,20,7.51,21.32,5.78,.99-1.3,.05-3.61,1.3-4.09,1.11-.44,3.42,2.32,4.38,5.17-2.26,2.43-3.77,5.72-4.32,9.03v.05c-.98-.05-1.92-.1-2.83-.15h0c-3.87-.24-7.19-.53-10.04-.89v-.05c.5-.23,1.02-.41,1.42-.64h.01c1.06-.39,3.01-.29,3.05-.91,.05-.73-3.45-1.49-4.64-2.23Zm12.45,1.82c1.26,.04,2.43-1.98,1.98-2.79-.54-.98-8.32-1.2-8.59,.26-.21,1.13,5.4,2.49,6.61,2.53Z"/><path class="p" d="M146.2,293.77c.45,.81-.72,2.83-1.98,2.79-1.21-.04-6.82-1.4-6.61-2.53,.27-1.46,8.05-1.24,8.59-.26Z"/><path class="a`" d="M145.6,159.48s-.03,.02-.05,.03c-3.94,2.61-6.25,4.21-8.6,5.77l-.07-.11c3.55-1.78-2.56-18.05-3.91-48.61-.3-6.81-1.7-21.59-6.11-31.89,3.6,7.24,6.66,16.94,8.05,28.61,2.41,20.23,6.29,35.98,10.69,46.2Z"/><path class="i" d="M139.65,203.25c3.69,4.56,6.25,11.38,5.09,14.71-.92-5.43-4.34-9.09-8.41-11.01-.02-.48-.43-.87-.92-.87-.23,0-.45,.09-.61,.23-.78-.27-1.57-.49-2.36-.64,2.19-2.59,5-3.98,7.2-2.43,0,.01,.01,.01,.01,.01Z"/><path class="u" d="M135.95,265.59c2.05,1.04,2.89,1.74,3.01,2.79,.11,.89-.13,2.26,.81,3.61,.75,1.07,2.04,1.44,3.09,2.02,.65,.37,1.22,.82,1.51,1.57,.45,1.16,.2,6.85,.81,7.57-1.06-.9-1.97-1.39-2.38-1.22-.66,.27-.64,.88-.44,1.61l-1.18,.5c-1.04,1.25-1.92,2.2-2.83,3.01h-.01c-2.2-.42-5.05-1.17-7.97-1.94-.49-.98-.97-1.96-1.42-2.95-4.47-9.72-6.97-19.62-5.25-21.95,.08-.12,.23-.19,.44-.22h0c5.84,2.9,9.56,4.46,11.81,5.6Z"/><path class="y" d="M144.45,306.18l-.13,2.8c-1.18,0-2.42,.45-3.71,1.24h0c-3.71,2.31-7.85,7.51-12.39,13.34l-.24-.19s-.06-.02-.09-.04c-1.16-.5-2.2-1.05-3.13-1.63-8.28-5.13-8.28-12.79-8.28-21.36l.05-.05c2.92,2.87,10.14,5.02,27.92,5.89Z"/><path class="j" d="M143.73,272.53c-.28,.52-.57,1.01-.87,1.48-1.05-.58-2.34-.95-3.09-2.02-.94-1.35-.7-2.72-.81-3.61-.12-1.05-.96-1.75-3.01-2.79,.09-.38,.16-.79,.21-1.2,1.22,.62,2.48,1.3,3.76,2.02,.72,.39,1.44,.81,2.17,1.23-.78,1.65-.7,2.71-.35,3.4,.41,.8,1.17,1.17,1.99,1.49Z"/><path class="u" d="M142.36,283.54c.36,1.32,1.32,3.02-.11,3.72-.04,.02-.08,.04-.13,.05-.07,.03-.16,.05-.25,.07h-.04c-.17,.01-.35,.03-.52,.04h-.1c-.14,0-.29-.01-.45-.02-.66-.04-1.47-.17-2.41-.35,.91-.81,1.79-1.76,2.83-3.01l1.18-.5Z"/><path class="a`" d="M141.87,190.86c.22,.5,.66,1.06,1.2,1.58-6.18,.38-11.93,.84-16.83,1.31h0c5.1-1,10.33-1.96,15.63-2.9h0Z"/><path class="f" d="M139.64,203.24c-2.2-1.55-5.01-.16-7.2,2.43-2.96-.59-5.95-.35-8.38,.7l-.17-.08c2.09-4.46,6.13-8.09,9.5-7.51,2.15,.37,4.35,2.12,6.25,4.46Z"/><path class="n" d="M144.74,217.96c-.84,2.44-5.49,3.48-10.3,3.09-.01,0-.02,0-.03-.01-7.99-1.74-6.04-10.59-1.97-15.37,.79,.15,1.58,.37,2.36,.64-.2,.17-.32,.42-.32,.7,0,.51,.42,.93,.93,.93s.93-.42,.93-.93c0-.02,0-.04,0-.06,4.07,1.92,7.49,5.58,8.41,11.01Z"/><path class="k" d="M136.88,165.17l.07,.11c-.69,.46-1.38,.92-2.11,1.4-3.92-6.39-9.32-17.56-8.42-33.18,.54-9.18,.49-17.33-.09-25.01,0-.02-.01-.05-.01-.07-.04-.9-.11-1.76-.21-2.58-.4-4.37-.98-8.6-1.71-12.82h-.01c-.51-5.1-6.44-20.58-14.38-22.35,.79-.42,1.56-.66,2.3-.69,4.05-.18,9.76,5.08,14.53,14.65,0,.01,.01,.02,.02,.04,4.41,10.3,5.81,25.08,6.11,31.89,1.35,30.56,7.46,46.83,3.91,48.61Z"/><path class="p" d="M131.77,294.74c1.19,.74,4.69,1.5,4.64,2.23-.04,.62-1.99,.52-3.05,.9,.48-.28,.78-.63,.65-1.23-.11-.44-.97-1.08-2.26-1.88l.02-.02Z"/><path class="h" d="M136.33,206.95s0,.04,0,.06c0,.51-.42,.93-.93,.93s-.93-.42-.93-.93c0-.28,.12-.53,.32-.7,.52,.19,1.03,.4,1.53,.64Z"/><path class="j" d="M136.16,264.39c-.05,.41-.12,.82-.21,1.2-2.25-1.14-5.97-2.7-11.81-5.59h0c1.53-.31,6.29,1.48,12.02,4.39Z"/><path class="h" d="M135.41,206.08c.49,0,.9,.39,.92,.87-.5-.24-1.01-.45-1.53-.64,.16-.14,.38-.23,.61-.23Z"/><path class="k" d="M133.35,297.88c-.4,.23-.92,.41-1.41,.64v.05c-9.23-1.13-13.57-2.9-15.61-5.05-.03-.04-.06-.06-.08-.1,.02-.03,.05-.06,.08-.1,1.03-1.09,2.66-2.09,5.2-2.95,.47-.16,.96-.31,1.5-.46,.77,.45,1.57,.9,2.36,1.33,2.38,1.3,4.72,2.53,6.36,3.52,1.29,.8,2.15,1.44,2.26,1.88,.13,.6-.17,.95-.65,1.23h-.01Z"/><path class="y" d="M130.37,285.11h-.01c-1.9-.49-3.82-1-5.62-1.42-.52-.12-1.01-.24-1.5-.34,.68-.19,1.42-.37,2.21-.54,1.06-.23,2.23-.44,3.5-.65,.45,.99,.93,1.97,1.42,2.95Z"/><path class="h" d="M124.06,206.37c2.43-1.05,5.42-1.29,8.38-.7-4.07,4.78-6.02,13.63,1.97,15.37-4.84-.4-9.83-2.27-11.29-5.64-1.17-2.71-.65-6.1,.77-9.11l.17,.08Z"/><path class="ab" d="M124.61,226.04c3.06,0,5.55,1.32,5.55,2.95s-2.49,2.94-5.55,2.94-5.55-1.31-5.55-2.94,2.48-2.95,5.55-2.95Z"/><path class="v" d="M134.84,166.68c-1.79,1.16-3.83,2.45-6.72,4.23-.05-.06-.11-.12-.18-.19,1.31-2.62-2.01-13.68-2.93-16.89-3.08-10.81,1.95-31.96,1.32-45.34,.58,7.68,.63,15.83,.09,25.01-.9,15.62,4.5,26.79,8.42,33.18Z"/><path class="g" d="M125.01,153.83c.92,3.21,4.24,14.27,2.93,16.89-7.22-7.67-21.58-19.55-28.95-38.07-10.3-25.91,1.61-56.99,11.02-61.98,7.94,1.77,13.87,17.25,14.38,22.35h.01c.73,4.22,1.31,8.45,1.71,12.82,.08,.86,.15,1.72,.21,2.58,0,.02,.01,.05,.01,.07,.63,13.38-4.4,34.53-1.32,45.34Z"/><path class="y" d="M114.71,290.29h-.03c.15-.93,.45-1.83,1.02-2.68,.39-.58,.91-1.13,1.61-1.65,.62,.61,1.43,1.23,2.38,1.88,.99,.67,2.11,1.36,3.29,2.04,.02,.01,.03,.02,.05,.03-.54,.15-1.03,.3-1.5,.46-2.54,.86-4.17,1.86-5.2,2.95-.03,.04-.06,.07-.08,.1-.89-.97-1.32-2.02-1.54-3.13Z"/><path class="k" d="M112.6,215.83c-.13,.93-.26,1.86-.37,2.78-.17,1.38-.23,2.72-.18,4.02h-.02c-26.64-.8-50.55-3.76-50.94-8.42-.03-.38,.09-.78,.38-1.2h.01c3.19-4.78,26.32-11.39,55.68-17.45-2.21,6.71-3.62,13.69-4.56,20.27Z"/></g></g><g id="d"><g id="e"/><path class="t" d="M201.15,330.2c.65,3.93-.03,10.45-.46,14.58-2.5,23.74-5.8,52.31-10.52,54.38-4.77,2.1-8.13,2.95-12.79,.3-3.26-1.87-1.17-36.52-4.95-38.48-.91-.47-1.96-.76-3.06-.9h-.01c-3.05-.44-6.45,.13-8.15,.64-.79,.23-1.32,1.4-1.68,3.2-1.83,9.17,.98,34.79-2.1,36.45-4.53,2.45-9.3,1.31-12.52-.13-3.88-1.73-3.77-6.29-13.96-54.39-.82-3.88-1.28-10.22-.61-14.77"/><path class="t" d="M153.93,328.07c3.37,.22,7.06,.33,11.07,.33,2.01,0,3.93-.03,5.78-.08,2.41-.07,4.68-.18,6.82-.34"/><path class="t" d="M215.43,293.58c0,7.19,0,13.02-50.43,13.02s-50.43-5.83-50.43-13.02"/><path class="t" d="M200.42,182.41c5.33,9.09,8.49,19.8,10.27,29.89,.27,1.51,.5,3,.71,4.47,1.07,7.57-1.95,14.34-7.46,19.87-9.31,9.35-25.74,15.15-41.63,15.22"/><path class="t" d="M154.33,251.52c-22.87-2.01-44.57-13-42.06-32.92,.93-7.37,2.4-15.38,4.93-23.05"/><path class="t" d="M177.77,158.06h0c5.39-10.17,11.46-26.68,15.63-45.9,5.8-26.71,19.55-41.95,26.61-40.96,9.47,1.34,21.09,36.75,7.3,63.66-8.47,16.53-22.59,26.78-30.91,33.72,0,.01-.03,.02-.04,.04"/><path class="t" d="M188.95,164.53c.26-.36,.53-.75,.8-1.14,4.37-6.46,9.67-16.74,10.17-30.29,.58-15.55,2.54-27.98,5.87-40.11"/><path class="t" d="M145.64,159.47c-4.4-10.22-8.28-25.97-10.69-46.2-3.24-27.13-15.48-43.62-22.6-43.3-9.55,.43-24.49,34.58-13.32,62.67,7.37,18.52,21.73,30.4,28.95,38.07,.07,.07,.13,.13,.18,.19"/><path class="t" d="M124.44,93.01c2.15,12.39,2.93,24.95,2.02,40.48-.9,15.62,4.5,26.79,8.42,33.18"/><path class="t" d="M175.06,217.29c-2.07-4.93,3.85-18.37,10.1-19.87,5.57-1.34,13.79,9.03,11.31,15.93-2.48,6.9-19.41,8.72-21.41,3.94Z"/><path class="t" d="M179.2,202.28c5.96-4.86,18.5,13.98,6.33,17.43"/><path class="t" d="M144.79,217.95c1.75-5.06-5.02-18.09-11.35-19.19-5.64-.98-13.18,9.89-10.27,16.62,2.91,6.73,19.93,7.46,21.62,2.56Z"/><path class="t" d="M139.69,203.24c-6.26-4.47-17.57,15.14-5.2,17.8"/><path class="t" d="M147.36,189.9c1.32,1.57,1.24,4.11,.46,4.66-1.15,.81-5.06-1.79-5.91-3.71"/><path class="t" d="M172.82,192.86c-.54-.68,.62-3.33,2.95-4.04,1.77-.54,3.91,.14,4.01,.95,.19,1.46-6.09,4.18-6.96,3.09Z"/><path class="t" d="M159,224.7c2.64-.16,4.33-1.82,3.75-3.28-.44-1.11-6.77-.25-7.37,.49-.65,.79,1.58,2.92,3.62,2.79Z"/><path class="t" d="M158.95,230.77c.3-2.22,.34-5.24,.11-6.06"/><path class="t" d="M112.64,215.82c-12.56-5.07-29.11-5.88-40.49-3.07"/><path class="t" d="M80.43,231.09c11.2-3.95,22.55-5.88,32.06-5.1"/><path class="t" d="M211.53,214.62c12.56-5.07,28.56-5.84,39.93-3.03"/><path class="t" d="M243.19,229.94c-11.2-3.95-22.55-5.88-32.06-5.1"/><path class="t" d="M155.78,259.7c-.73,.26-1.61,.45-2.56,.62-3.39,.61-7.75,.94-10.21,2.8-.83,.63-1.91,1.82-3.09,3.33"/><line class="t" x1="169.37" y1="360.09" x2="169.36" y2="360.09"/><path class="t" d="M173.98,250.83c-.01,2.07,.53,3.9,1.48,6.31,1.27,3.23,10.53,2.1,14.41,5.06,.32,.24,.65,.56,.99,.93"/><path class="t" d="M200.02,278.65c-.51-1.13-1.13-2.43-1.81-3.8"/><path class="t" d="M127.08,325.06c.32-.4,.63-.81,.94-1.2,4.63-5.95,8.85-11.3,12.63-13.64h0c1.56-.97,3.04-1.43,4.44-1.2,5.95,.95,11.08,14.15,8.87,19.22-.01,.02-.01,.05-.02,.07,0,0,0,.02-.01,.03-1.29,4.83-15.46,7.25-23.59,2.87-1.26-.68-2.38-1.53-3.28-2.56"/><path class="t" d="M127.08,324.62s0,.02-.02,.03"/><path class="t" d="M149.32,312.03c1.1,3.94,1.85,8.45-.84,10.85"/><path class="t" d="M140.65,310.56h0c.54,5.01,.12,8.14-1.68,11.28"/><path class="t" d="M116.52,300.33c0,8.57,0,16.23,8.28,21.36,.93,.58,1.97,1.13,3.13,1.63,.03,.02,.06,.04,.09,.04"/><path class="t" d="M203.34,322.72s.06-.03,.09-.04c1.14-.58,2.15-1.2,3.05-1.86,6.99-5.1,6.99-12.39,6.99-20.49"/><path class="t" d="M114.76,290.26h0c.21,1.12,.65,2.17,1.53,3.14,.02,.03,.05,.06,.08,.09,2.67,2.82,9.28,4.97,25.64,5.94h0c3.9,.24,8.35,.39,13.43,.48,2.96,.05,6.14,.08,9.55,.08s6.62-.03,9.6-.08c2.01-.03,3.92-.08,5.74-.14,1.56-.05,3.04-.11,4.47-.17,18.7-.86,25.98-3.11,28.81-6.12,.03-.03,.06-.06,.08-.09,.9-.97,1.32-2.04,1.53-3.15h0"/><path class="t" d="M114.57,293.31v-.41c0-.35,.01-.7,.02-1.04,.05-1.51,.26-2.95,1.15-4.26,.38-.56,.89-1.1,1.56-1.61"/><line class="t" x1="185.23" y1="280.71" x2="185.22" y2="280.71"/><line class="t" x1="195.77" y1="281.48" x2="195.76" y2="281.48"/><line class="t" x1="192.44" y1="281.17" x2="192.43" y2="281.17"/><path class="t" d="M207.53,283.57c.32,.1,.63,.2,.93,.3,6.97,2.38,6.97,5.73,6.97,9.44"/><path class="t" d="M145.97,280.65c2.11-.09,4.36-.16,6.76-.22,.59-.01,1.18-.03,1.79-.04"/><path class="t" d="M123.17,283.37c.71-.2,1.49-.39,2.33-.57,1.04-.23,2.17-.44,3.42-.64"/><path class="t" d="M140.74,287.44h.02c.45-.03,.9-.06,1.36-.09"/><path class="t" d="M187.35,287.32h-.06c-.07,0-.14-.01-.22-.01,0,0,0-.01,0,0"/><path class="t" d="M209.38,290.72c.08,.02,.15,.05,.22,.08,1.88,.75,3.16,1.59,4.02,2.51,.03,.03,.06,.06,.08,.09"/><path class="t" d="M157.61,286.85h.09"/><line class="t" x1="155.81" y1="286.87" x2="155.8" y2="286.87"/><path class="t" d="M156.16,286.87h-.02"/><path class="t" d="M116.29,293.41s.05-.06,.08-.09c1.04-1.1,2.66-2.1,5.21-2.96,.44-.15,.91-.29,1.4-.44"/><path class="t" d="M124.8,321.69c.01,2.28,.52,4.98,2.26,6.71"/><path class="t" d="M204.09,323.72c.03,.05,.06,.09,.1,.14"/><path class="t" d="M204.21,324.36s-.01,0-.02-.03c-.29-.36-.57-.72-.85-1.08-6.58-8.45-12.31-15.72-17.15-14.95-5.95,.95-11.08,14.15-8.87,19.22,.06,.26,.15,.49,.28,.73,2.68,5.11,20.19,7.02,26.61-.32"/><path class="t" d="M181.96,311.36c-1.1,3.94-1.85,8.45,.84,10.85"/><path class="t" d="M190.63,309.89c-.54,5.01-.12,8.13,1.68,11.27"/><path class="t" d="M206.48,320.82c0,2.3-.5,5.06-2.27,6.82"/><path class="t" d="M145.94,272.31c-.05,.36-.12,.76-.2,1.18"/><line class="t" x1="189.34" y1="279.72" x2="189.34" y2="279.71"/><path class="t" d="M175.54,226.22c-4.51-4.64-9.39,4.34-16.59,4.56-4.39,.14-8.64-1.47-10.49,1.19-2.83,4.05,6.67,7.02,13.45,6.35,8.63-.85,17.33-8.28,13.63-12.09Z"/><path class="t" d="M160.58,230.58c.98,1.68,1.61,6.58,1.34,7.73"/><path class="t" d="M167.81,226.96c.98,1.68,2.67,7.48,2.4,8.63"/><path class="t" d="M152.9,230.43c.98,1.68,.81,5.95,.54,7.1"/><path class="t" d="M175.01,231.64c14.81-.98,38.49,6.46,55.41,18.11"/><path class="t" d="M212.19,239.94c-.79,2.96,.46,6.65,.88,6.68,.75,.06,1.43-3.35,2.22-3.26,.82,.09,.65,3.79,1.83,4.04,.93,.2,1.7-1.98,2.61-1.83,1.55,.26,1.41,7,2.22,7.04,.66,.04,1-4.47,2.09-4.57,1.53-.13,2.96,8.71,4.7,8.61,1.19-.07,.1-4.33,1.4-4.47,1.93-.21,4.41,8.72,6.82,8.27,1.59-.29-3.83-7.64-2.75-9.93,.52-1.1,6.26-1.79,6.26-2.35,0-.86-10.8-1.27-10.83-2.22-.02-.73,6.95-1.08,6.39-1.83-.96-1.29-12.23,.07-12.39-1.17-.12-.9,6.78-1.88,6-2.87-1.69-2.15-11.71,1.39-12.13-.13-.18-.65,1.98-1.22,1.57-2.09-.24-.5-6.21-.33-7.84,1.68"/><circle class="t" cx="152.4" cy="272.24" r="2.08"/><path class="t" d="M149.85,260.86c.5,1.84,1.01,8.07,.76,10.33"/><path class="t" d="M153.9,266.53c-.1-2.39-.35-5.01-.68-6.21"/><path class="t" d="M179.97,272.13c-.03-.13-.04-.26-.04-.4,0-1.15,.93-2.08,2.08-2.08,.21,0,.41,.03,.6,.09"/><path class="t" d="M184.57,260.35c-.39,1.45-.79,5.58-.82,8.39"/><path class="t" d="M181.19,259.81c-.58,2.08-.89,8.46-.66,10.46"/><path class="t" d="M179.93,271.98c-.79-.05-1.61-.1-2.46-.13"/><path class="t" d="M155.12,272.2c-.21,.01-.42,.03-.63,.04"/><path class="t" d="M151.46,274.1c-.52,1.88-3.19,4.23-5.32,4.78"/><path class="t" d="M140.14,389.74c8.3,2.57,10.63,2.38,18.82,1.52"/><path class="t" d="M194.37,389.74c-8.3,2.57-10.53,2.52-18.73,1.66"/><path class="t" d="M112.07,222.61c-26.64-.8-50.55-3.75-50.94-8.41-1.14-13.6,195.72-46.31,197.6-29.74,.99,8.68-26.72,21.73-48.04,27.84"/><path class="t" d="M61.51,213c8.42-18.87,169.99-53.1,196.7-29.72"/><path class="t" d="M202,175.2c-1.65-2.43-3.53-4.64-5.6-6.62"/><path class="t" d="M177.77,158.05c-10.21-2.92-21.61-2.55-32.13,1.42-.02,.01-.03,.02-.05,.03"/><path class="t" d="M115.13,189.99c3.22-7.83,7.65-14.23,12.85-19.28"/><path class="t" d="M128.15,170.89c8.17-5.02,9.56-6.17,17.49-11.42"/><path class="t" d="M177.77,158.05c7.71,4.34,10.99,6.55,18.59,10.56"/><path class="t" d="M197.74,298.6c-.1-.34-.21-.68-.33-1.01-.7-1.91-1.81-3.76-3.21-5.37-.24-.28-.48-.55-.73-.8-1.5-1.55-3.26-2.81-5.16-3.65-.32-.13-.64-.26-.96-.37-.09-.03-.19-.06-.28-.09,0,0,0-.01,0,0-.86-.28-1.74-.48-2.64-.55"/><path class="t" d="M187.35,287.39v-.07c.01-2.1,.65-4.52,1.44-6.42,.13-.31,.26-.6,.39-.88,.05-.11,.1-.2,.16-.3h0c.67-1.32,1.36-2.19,1.82-2.19,.57,0,.82,.37,.94,.9,.13,.53,.12,1.22,.18,1.87,.03,.31,.07,.6,.15,.87h.01c.16,.59,.5,1.03,1.23,1.08,.45,.04,1.17-.25,2.09-.77h.01c.32-.19,.67-.4,1.04-.63,.16-.1,.32-.2,.48-.31,.83-.54,1.75-1.19,2.73-1.89,6.12-4.43,14.38-11.23,16.14-10.01,2.66,1.85-4.43,9.71-8.58,14.87-.02,.02-.03,.04-.05,.06-1.62,2.04-2.79,3.65-2.69,4.27,.33,2,4.16-.28,4.59,2.44,.02,.13,0,.28-.05,.44-.1,.32-.35,.7-.72,1.11-1.71,1.96-6.1,4.73-11.25,5.76"/><path class="t" d="M183.69,299.66c-2.26-3.01-5.75-5.11-9.93-7.01h-.01"/><path class="t" d="M178.81,273.23c.39-.37,.77-.74,1.16-1.1,.88-.82,1.76-1.62,2.64-2.39,.38-.34,.76-.67,1.14-1,.75-.65,1.49-1.27,2.21-1.86,1.75-1.44,3.41-2.71,4.9-3.75,3.32-2.35,5.78-3.58,6.41-3.02,1.63,1.43,1.87,7.44,.94,14.74-.23,1.83-.54,3.75-.92,5.69"/><path class="t" d="M187.93,282.44c-1-.62-1.89-1.18-2.7-1.73h-.01c-1.39-.93-2.55-1.81-3.62-2.83,0-.01-.01-.01-.01-.02"/><path class="t" d="M185.96,266.88c1.25,3.55,3.63,5.8,7.03,7.64"/><path class="t" d="M147.28,310.08h-.01m-2.47-10.48c.62-3.74,2.47-7.46,5.25-9.93,1.11-.98,2.37-1.75,3.76-2.25t.02-.01c.12-.05,.24-.09,.36-.13,.01,0,.02-.01,.03-.01,.51-.16,1.05-.28,1.6-.36,.11-.02,.21-.03,.32-.04h.02s.1-.02,.14-.03c.42-.04,.85-.04,1.31,.01h.09c.27,.03,.54,.07,.82,.12,.27,.04,.53,.1,.81,.18,1.79,.46,3.81,1.39,5.94,2.64,2.24,1.31,4.6,3.01,6.97,4.88,.96,.77,1.92,1.56,2.86,2.38,.57,.48,1.13,.98,1.69,1.48,.48,.43,.96,.86,1.43,1.3l.02,.02"/><path class="t" d="M150.05,289.67c-.36-.88-.87-1.77-1.44-2.62-2.03-2.98-4.96-5.43-5.81-5.08-1.86,.76,1.66,4.24-.55,5.33-.04,.02-.08,.04-.13,.05-.31,.11-.77,.13-1.36,.09-.66-.04-1.47-.17-2.41-.35h-.01c-2.2-.42-5.06-1.17-7.98-1.94-1.9-.49-3.82-1-5.62-1.42-.54-.13-1.06-.25-1.57-.36-3.54-.78-6.3-1.09-6.88-.21-.53,.81-.06,1.78,1.01,2.83,.62,.61,1.44,1.24,2.39,1.89,.99,.67,2.11,1.36,3.29,2.04,.79,.46,1.6,.92,2.41,1.36,4.25,2.33,8.39,4.41,8.62,5.4,.25,1.11-1.01,1.38-2.07,1.88"/><path class="t" d="M179.94,287.32h-.01"/><path class="t" d="M178.24,299.85l-.02-.02c-.47-.44-.95-.87-1.43-1.3-.56-.5-1.12-1-1.69-1.48-.94-.82-1.9-1.61-2.86-2.38,.38-.54,.76-1.05,1.14-1.54,.12-.16,.25-.32,.38-.48,.48-.62,.99-1.22,1.49-1.76h.01c1.58-1.72,3.16-2.98,4.67-3.57h0"/><path class="t" d="M179.94,287.31h.01c.18-.07,.36-.13,.54-.18,.12-.03,.23-.07,.35-.09,1.2-.32,2.4-.39,3.58-.28-.48-2.18-1.06-4.26-1.75-6.17-.12-.34-.24-.67-.37-1-.22-.59-.46-1.16-.71-1.71v-.02c-.81-1.8-1.74-3.37-2.78-4.63-.43-.52-.87-.98-1.34-1.38-.53-.45-1.09-.83-1.67-1.12-1.3-.65-2.79-1.05-4.35-1.22-4.71-.49-10.17,1.14-13.6,4.5h-.01c-1.52,1.49-2.64,3.31-3.15,5.42-.04,.2-.08,.41-.12,.62-.02,.11-.04,.22-.05,.34-.06,.46-.06,.96-.03,1.48,.09,1.2,.41,2.53,.92,3.96,.12,.34,.25,.68,.39,1.04h.01s0,.03,0,.04"/><path class="t" d="M171.45,269.51c1.79-6.68,.29-13.54-1.22-14.01-2.63-.82-2.28,3.63-4.22,3.03-.79-.25-2.13-3.18-3.7-6.67-2.66-5.9-5.99-13.37-8.48-11.99-1.3,.72-.52,6,.5,11.65,.5,2.8,1.06,5.7,1.45,8.18,.5,3.11,.74,5.57,.27,6.37-.5,.84-1.3,.75-2.15,.46-1.28-.46-2.66-1.39-3.2-.31-.29,.58,.73,2.3,2.35,4.04"/><path class="t" d="M154.37,271.57c.25,.22,.49,.43,.75,.63,.87,.72,1.8,1.35,2.73,1.81"/><path class="t" d="M158.52,286.96c3.82-2.83,7.58-4.65,11.78-4.47"/><path class="t" d="M130.36,285.15c-5.34-10.58-8.56-22.33-6.66-24.91,.72-.98,5.96,.88,12.45,4.18,1.9,.97,3.9,2.07,5.94,3.25"/><path class="t" d="M155.41,285.82c-.52,.58-1.04,1.11-1.6,1.6"/><path class="t" d="M143.72,272.56c-1.46,2.73-3.28,4.61-6.17,7.42"/><path class="t" d="M136.15,264.43c-.46,3.72-2.29,6.42-5.22,8.93"/><path class="t" d="M141.17,284.07c-1.04,1.25-1.91,2.2-2.83,3.01"/><path class="t" d="M142.09,267.68c-.79,1.65-.71,2.71-.35,3.41,.41,.79,1.16,1.17,1.98,1.48,1.15,.46,2.44,.81,3.05,2.1,1.07,2.35-1.7,4.38-.59,6.55,.94,1.8,4.01,2.6,6.15,1.9,1.22-.39,1.7-.93,2.17-1.25"/><path class="t" d="M157.66,299.96c.83-3.69,3.16-7.06,6.21-10.52"/></g></svg>