<?xml version="1.0" encoding="UTF-8"?><svg xmlns="http://www.w3.org/2000/svg" viewBox="0 0 336.39 524.48"><defs><style>.e{fill:#ead0d0;}.f{fill:#fcb9b9;}.g{fill:#fff;}.h{fill:#6b3d34;}.i{fill:#eab5a7;}.j{fill:#7f4d40;}.k{fill:#bc7171;}.l{fill:#472b28;}.m{stroke-width:2px;}.m,.n{fill:none;stroke:#3f2a25;stroke-linecap:round;stroke-linejoin:round;}.o{fill:#eaa0a0;}.p{fill:#b27967;}.q{fill:#d17e75;}.r{fill:#935d51;}.s{fill:#e08f82;}</style></defs><g id="a"><path class="m" d="M156.98,191.43c4.4-1.42,9.37-2.21,14.95-2.25,5.67-.04,10.72,.81,15.22,2.38"/><path class="m" d="M164.87,280.85c-23.09-1.86-45.21-12.87-42.68-32.97,.12-.92,.24-1.84,.37-2.78,2.11-14.84,6.6-31.69,17.36-42.99"/><path class="m" d="M205.11,204.21c9.12,10.89,13.73,26.04,15.89,39.7,.11,.72,.22,1.43,.32,2.14,2.05,14.56-11.01,26.19-27.88,31.67"/><path class="m" d="M187.15,191.55c8.31-7.59,20.2-22.88,30.79-42.06,13.22-23.92,30.77-34.58,37.24-31.61,8.69,4,9.67,41.26-11.25,63.08-12.66,13.2-28.82,18.99-38.82,23.24"/><path class="m" d="M157.21,191.9c-4.91-10.04-9.7-27.22-12.34-49.35-3.24-27.14-15.48-43.62-22.59-43.3-9.55,.43-24.49,34.58-13.32,62.67,8.1,20.36,24.84,32.76,31.07,40.31"/><path class="m" d="M122.56,245.1c-12.56-5.07-29.11-5.88-40.49-3.07"/><path class="m" d="M90.35,260.37c11.2-3.95,22.55-5.88,32.06-5.1"/><path class="m" d="M220.9,243.94c12.56-5.07,29.11-5.88,40.49-3.07"/><path class="m" d="M253.11,259.22c-11.2-3.95-22.55-5.88-32.06-5.1"/><path class="m" d="M207.37,337.62c1.68,7.68,3.4,18,2.09,30.53-2.5,23.74-5.8,52.31-10.52,54.38-4.77,2.1-8.13,2.95-12.79,.3-3.26-1.87-1.17-36.52-4.95-38.48-3.42-1.77-8.91-.95-11.22-.26-4.83,1.43-.1,37.66-3.78,39.65-4.53,2.45-9.3,1.31-12.52-.13-3.88-1.73-3.77-6.3-13.96-54.39-1.37-6.45-1.02-14.07,.2-21.87"/><path class="m" d="M164.87,280.84c.64,3.52,.92,7.89-1.12,9.26-2.69,1.81-6.1,2.83-10.01,4.96-.34,.18-.99,.7-1.54,1.51"/><path class="m" d="M152.33,296.4c-9.17,10.16-22.47,30.18-38.69,38.96-17.22,9.33-20.61,18.29-18.98,22.89,2.07,5.86,18.13,7.98,29.54,3.39,10.03-4.03,13.76-10.81,15.72-14.31"/><path class="m" d="M94.36,354.98s-.01,0-.01,0"/><path class="m" d="M193.44,277.72c3.29,6.21,.32,12.7,3.54,21.06,6.18,16.05,25.17,29.61,16.57,38.22-1.28,1.28-3.47,1.38-6.18,.62"/></g><g id="b"><g><path class="k" d="M198.71,197.92c-3.44-2.78-7.36-5.04-11.83-6.59,8.31-7.59,20.2-22.88,30.79-42.06,13.22-23.92,30.77-34.58,37.24-31.61,8.69,4,9.67,41.26-11.25,63.08-12.66,13.2-28.82,18.99-38.82,23.24-1.85-2.21-3.89-4.25-6.13-6.06Z"/><path class="k" d="M168.45,260.18c-.75,.08-1.44,.45-2,1.04-.95,.96-1.56,2.49-1.56,4.21,0,2.92,1.75,5.28,3.91,5.28s3.92-2.36,3.92-5.28c0-1.71-.6-3.23-1.55-4.19-.65-.69-1.48-1.09-2.37-1.09-.12,0-.24,.01-.35,.03Zm52.28-16.5c.11,.72,.22,1.43,.32,2.14,2.05,14.56-11.01,26.19-27.88,31.67-.32-.61-.7-1.22-1.16-1.83-1.88-2.5-4.13-4.92-6.5-6.71-3.28-2.49-6.77-3.75-9.72-2.29-.25,.12-.49,.26-.72,.42-3.07,2.12-4.58,7.38-4.94,13.81-1.85-.03-3.69-.12-5.53-.27-23.09-1.86-45.21-12.87-42.68-32.97,1.94-15.41,6.27-33.63,17.61-45.64,1.74-1.84,3.65-3.54,5.74-5.06,3.29-2.38,7.02-4.33,11.27-5.7,4.45-1.44,9.47-2.25,15.12-2.3,5.67-.04,10.72,.81,15.22,2.38,4.47,1.55,8.39,3.81,11.83,6.59,2.24,1.81,4.28,3.85,6.13,6.06,9.12,10.89,13.73,26.04,15.89,39.7Zm-14.62-1.27c2.48-6.9-5.74-17.27-11.31-15.94-2.12,.51-4.21,2.4-5.96,4.87-3.39,4.79-5.51,11.75-4.14,15,1,2.38,5.69,3.13,10.47,2.43h.01c4.81-.72,9.69-2.9,10.93-6.36Zm-23.64-31.25c.86,1.08,7.15-1.64,6.96-3.1-.11-.81-2.25-1.48-4.02-.94-2.32,.71-3.48,3.36-2.94,4.04Zm-13.83,42.6c2.64-.17,4.34-1.82,3.75-3.28-.44-1.11-6.77-.25-7.37,.49-.65,.79,1.58,2.92,3.62,2.79Zm-12.67-28.7c.98-.68,.85-4.43-1.67-5.59-1.74-.8-4.07-.12-4.37,.94-.5,1.81,4.69,5.59,6.04,4.65Zm-1.54,21.94c1.16-3.33-1.4-10.15-5.1-14.71h0c-1.89-2.35-4.09-4.1-6.24-4.47-5.65-.98-13.18,9.89-10.27,16.62,1.46,3.37,6.45,5.24,11.29,5.64,.01,.01,.02,.01,.03,.01,4.81,.39,9.46-.65,10.3-3.09Z"/><path class="k" d="M175.07,267.08c.23-.16,.47-.3,.72-.42,2.95-1.46,6.44-.2,9.72,2.29,2.37,1.79,4.62,4.21,6.5,6.71,.46,.61,.84,1.22,1.16,1.83,3.28,6.21,.32,12.7,3.54,21.06,6.18,16.05,25.17,29.61,16.56,38.22-1.28,1.28-3.46,1.39-6.17,.62-11.01-3.1-30.74-20.52-33.87-31.4-2.25-7.8-3.52-17.32-3.1-25.1,.36-6.43,1.87-11.69,4.94-13.81Z"/><path class="k" d="M152.05,296.18c.52-.71,1.1-1.17,1.42-1.34,3.91-2.13,7.32-3.15,10.01-4.96,2.04-1.37,1.76-5.74,1.12-9.26,1.84,.15,3.68,.24,5.53,.27-.42,7.78,.85,17.3,3.1,25.1,3.13,10.88,22.86,28.3,33.87,31.4,1.68,7.68,3.4,18,2.09,30.53-2.5,23.74-5.8,52.31-10.52,54.38-4.77,2.1-8.13,2.95-12.79,.3-3.26-1.87-1.17-36.52-4.95-38.48-3.42-1.77-8.91-.95-11.22-.26-4.83,1.43-.1,37.66-3.78,39.65-4.53,2.45-9.3,1.31-12.52-.13-3.88-1.73-3.78-6.29-13.96-54.39-1.37-6.45-1.02-14.07,.2-21.87-1.97,3.49-5.7,10.27-15.73,14.3-7.25,2.92-16.39,3.12-22.61,1.38-3.57-1-6.18-2.63-6.93-4.77-.33-.92-.45-2.02-.3-3.27,.59-4.93,5.52-12.16,19.28-19.62,16.22-8.79,29.52-28.81,38.69-38.96Z"/><path class="k" d="M194.8,226.47c5.57-1.33,13.79,9.04,11.31,15.94-1.24,3.46-6.12,5.64-10.93,6.36,12.16-3.46-.38-22.3-6.34-17.43,1.75-2.47,3.84-4.36,5.96-4.87Z"/><path class="k" d="M188.84,231.34c5.96-4.87,18.5,13.97,6.34,17.43h-.01c-4.78,.7-9.47-.05-10.47-2.43-1.37-3.25,.75-10.21,4.14-15Z"/><path class="k" d="M189.43,208.06c.19,1.46-6.1,4.18-6.96,3.1-.54-.68,.62-3.33,2.94-4.04,1.77-.54,3.91,.13,4.02,.94Z"/><path class="k" d="M172.39,250.48c.59,1.46-1.11,3.11-3.75,3.28-2.04,.13-4.27-2-3.62-2.79,.6-.74,6.93-1.6,7.37-.49Z"/><path class="k" d="M171.17,261.24c.95,.96,1.55,2.48,1.55,4.19,0,2.92-1.75,5.28-3.92,5.28s-3.91-2.36-3.91-5.28c0-1.72,.61-3.25,1.56-4.21-.12,.4-.18,.85-.18,1.31,0,1.96,1.13,3.55,2.54,3.55s2.54-1.59,2.54-3.55c0-.45-.07-.9-.18-1.29Z"/><path class="k" d="M171.17,261.24c.11,.39,.18,.84,.18,1.29,0,1.96-1.14,3.55-2.54,3.55,.15-1.68-.52-3.95-.36-5.9,.11-.02,.23-.03,.35-.03,.89,0,1.72,.4,2.37,1.09Z"/><path class="k" d="M168.45,260.18c-.16,1.95,.51,4.22,.36,5.9-1.41,0-2.54-1.59-2.54-3.55,0-.46,.06-.91,.18-1.31,.56-.59,1.25-.96,2-1.04Z"/><path class="k" d="M154.3,219.47c2.52,1.16,2.65,4.91,1.67,5.59-1.35,.94-6.54-2.84-6.04-4.65,.3-1.06,2.63-1.74,4.37-.94Z"/><path class="k" d="M149.33,232.29c3.7,4.56,6.26,11.38,5.1,14.71-.84,2.44-5.49,3.48-10.3,3.09-.01,0-.02,0-.03-.01-12.31-2.68-1.03-22.24,5.22-17.79h0Z"/><path class="k" d="M145.27,196.95c-2.09,1.52-4,3.22-5.74,5.06l-.08-.08c-6.23-7.54-22.68-19.87-30.78-40.24-11.17-28.09,3.77-62.24,13.33-62.67,7.12-.31,19.35,16.17,22.59,43.31,2.64,22.12,7.03,38.88,11.95,48.92-4.25,1.37-7.98,3.32-11.27,5.7Z"/><path class="k" d="M149.32,232.29c-6.25-4.45-17.53,15.11-5.22,17.79-4.84-.4-9.83-2.27-11.29-5.64-2.91-6.73,4.62-17.6,10.27-16.62,2.15,.37,4.35,2.12,6.24,4.47Z"/></g></g><g id="c"><g><path class="e" d="M168.86,260.35c.89,0,1.72,.4,2.36,1.09,.11,.39,.18,.84,.18,1.29,0,1.96-1.14,3.55-2.54,3.55,.15-1.68-.51-3.95-.35-5.9,.11-.02,.23-.03,.35-.03Z"/><path class="e" d="M149.39,232.5c-2.2-1.57-5.02-.17-7.22,2.42-3.01-.68-6.06-.5-8.52,.57,2.1-4.44,6.12-8.05,9.48-7.47,2.16,.37,4.36,2.13,6.26,4.48Z"/><path class="e" d="M204.99,233.89c-2.55-1.11-5.69-1.23-8.75-.41-2.35-2.43-5.23-3.63-7.32-1.95,1.74-2.46,3.82-4.34,5.94-4.85,3.41-.82,7.8,2.74,10.13,7.21Z"/><path class="g" d="M168.51,260.38c-.16,1.95,.5,4.22,.35,5.9-1.41,0-2.54-1.59-2.54-3.55,0-.45,.06-.9,.18-1.29,.56-.6,1.25-.98,2.01-1.06Z"/><path class="g" d="M204.99,233.89c1.49,2.83,2.14,6.04,1.18,8.72-1.25,3.47-6.13,5.66-10.94,6.37h0c7.91-2.24,5.38-10.98,1.01-15.5,3.06-.82,6.2-.7,8.75,.41Z"/><path class="g" d="M133.65,235.49c2.46-1.07,5.51-1.25,8.52-.57-4.06,4.79-6,13.63,2,15.36-4.84-.4-9.84-2.26-11.31-5.63-1.18-2.73-.64-6.13,.79-9.16Z"/><path class="l" d="M168.86,266.28c1.4,0,2.54-1.59,2.54-3.55,0-.45-.07-.9-.18-1.29,.95,.96,1.55,2.48,1.55,4.19,0,2.92-1.75,5.29-3.91,5.29s-3.91-2.37-3.91-5.29c0-1.71,.6-3.23,1.55-4.19-.12,.39-.18,.84-.18,1.29,0,1.96,1.13,3.55,2.54,3.55Z"/><path class="o" d="M259.78,126.22c3.01,13.15-.33,38.31-16.07,54.72-12.66,13.2-28.82,18.99-38.82,23.24-1.85-2.21-3.89-4.25-6.13-6.06,.81-.64,1.66-1.35,2.55-2.12,.89-.78,1.81-1.64,2.74-2.56,6.2,2.97,9.82,4.88,24.34-4.53,11.62-7.53,34.33-46.81,31.3-62.67l.09-.02Z"/><path class="o" d="M136.17,162.75c-.97,16.66,5.24,28.26,9.16,34.4-2.04,1.47-3.9,3.12-5.61,4.91l-.14-.12c-.38-.46-.79-.93-1.25-1.42l.07-.06c1.32-2.62-2.07-14.61-2.98-17.82-2.95-10.34,1.02-30.16,.74-43.57,.49,7.3,.51,15.03,.01,23.68Z"/><path class="f" d="M138.33,200.52c-6.95-7.62-21.99-19.49-29.6-38.62-11.17-28.09,3.77-62.24,13.32-62.67h.08c6.3,3.34,10.7,15.88,12.01,23.03,.95,5.49,1.64,11.01,2.02,16.81,.28,13.41-3.69,33.23-.74,43.57,.91,3.21,4.3,15.2,2.98,17.82l-.07,.06Z"/><path class="f" d="M259.69,126.24c3.03,15.86-19.68,55.14-31.3,62.67-14.52,9.41-18.14,7.5-24.34,4.53,5.09-5.05,10.58-12.23,13.92-22.05,5.01-14.72,10.46-26.07,17.12-36.74,3.87-6.85,14.92-15.86,20.96-15.73l.18-.19c1.55,1.43,2.77,4.05,3.55,7.49l-.09,.02Z"/><path class="f" d="M170.88,250.17c.44,.84-.19,3.67-2.68,3.78-1.88-.2-3.72-2.04-3.12-2.78,.43-.53,3.76-1.11,5.8-1Z"/><path class="o" d="M168.2,253.95c2.49-.11,3.12-2.94,2.68-3.78,.82,.04,1.44,.19,1.57,.51,.58,1.46-1.11,3.12-3.75,3.28-.17,.01-.33,.01-.5-.01Z"/><path class="q" d="M214.48,253.38c.08,.68-.28,1.36-.95,1.94,.47-.99,.75-1.97,.84-2.35,.06,.13,.09,.27,.11,.41Z"/><path class="s" d="M214.36,252.96c-.24,.81-.52,1.6-.83,2.36h-.01c-.92,.82-2.43,1.44-4.19,1.66-3.05,.37-5.67-.64-5.87-2.26-.19-1.61,2.11-3.22,5.16-3.59,2.77-.34,5.19,.47,5.74,1.83Z"/><path class="s" d="M135.01,254.86c3.07,0,5.55,1.32,5.55,2.94s-2.48,2.95-5.55,2.95-5.55-1.32-5.55-2.95,2.49-2.94,5.55-2.94Z"/><path class="i" d="M156.44,224.61c-.09,.3-.23,.53-.41,.65-.07,.05-.15,.08-.24,.11-.06,.01-.12,.02-.18,.02-1.72,.16-5.89-3.03-5.44-4.64,.28-1.03,2.55-1.69,4.24-.91,1.98,.91,2.43,3.48,2.03,4.77Z"/><path class="i" d="M189.48,208.27c.2,1.46-6.09,4.18-6.96,3.09-.53-.68,.62-3.33,2.95-4.04,1.77-.54,3.9,.14,4.01,.95Z"/><path class="h" d="M154.39,247.44c-1.2-7.04-6.63-11.27-12.22-12.52,2.2-2.59,5.02-3.99,7.22-2.42,3.7,4.56,6.25,11.37,5.1,14.71-.03,.08-.06,.16-.1,.23Z"/><path class="h" d="M188.92,231.53c2.09-1.68,4.97-.48,7.32,1.95-5.36,1.42-10.47,5.71-11.64,12.61-1.02-3.42,1.06-9.99,4.32-14.56Z"/><path class="j" d="M142.17,234.92c5.59,1.25,11.02,5.48,12.22,12.52-1.05,2.27-5.54,3.24-10.2,2.85t-.02-.01c-8-1.73-6.06-10.57-2-15.36Z"/><path class="j" d="M196.24,233.48c4.37,4.52,6.9,13.26-1.01,15.49h0c-4.78,.71-9.47-.04-10.47-2.42-.06-.14-.11-.29-.16-.45h0c1.17-6.91,6.28-11.2,11.64-12.62Z"/><path class="r" d="M159.31,244.87c.19-2.1,18.34-4.2,18.35-2.04,.01,1.69-5.57,4.37-10.01,4.36-3.71,0-8.49-.75-8.34-2.32Z"/><path class="r" d="M156.93,396.76c2.73,0,4.94,1.49,4.94,3.32s-2.21,3.33-4.94,3.33-4.95-1.49-4.95-3.33,2.22-3.32,4.95-3.32Z"/><path class="r" d="M193.92,397.05c2.85,0,5.15,1.36,5.15,3.03s-2.3,3.04-5.15,3.04-5.16-1.36-5.16-3.04,2.31-3.03,5.16-3.03Z"/><path class="r" d="M143.38,145.37c-.29-6.43-2.2-19.94-6.13-30.1,3.31,7.08,6.09,16.3,7.4,27.26,2.64,22.13,7.03,38.88,11.94,48.92-3.05,.99-5.84,2.27-8.39,3.8,3.61-1.7-3.47-19.23-4.82-49.88Z"/><path class="r" d="M186.93,191.53c6.07-5.54,14.05-15.2,22.04-27.47-4.83,9.46-16,27.42-7.95,31.61l.29,.33c-.89,.77-1.74,1.48-2.55,2.12-3.44-2.78-7.36-5.04-11.83-6.59Z"/><path class="r" d="M191.84,275.57c8.77-3.76,16.36-9.68,20.71-18.11,.35-.69,.68-1.4,.97-2.13h.01c.67-.59,1.03-1.27,.95-1.95-.02-.14-.05-.28-.11-.41h-.01c4.64-14.86-.52-36.7-9.47-48.51l.14-.11c9.03,10.88,13.6,25.94,15.75,39.53,.11,.72,.22,1.43,.32,2.14,2.05,14.56-11,26.19-27.87,31.67-.32-.61-.7-1.21-1.16-1.82-.08-.1-.15-.2-.23-.3Z"/><path class="r" d="M170.19,281.09c-.08,1.47-.1,3-.07,4.57h-.01c-1.58,.42-3.27,.51-4.99-.36-.01-1.46-.2-3.04-.47-4.48,1.84,.15,3.69,.24,5.54,.27Z"/><path class="r" d="M195.85,303.82c-2.32-5.17-3.46-9.75-4.83-10.39,0,0,0-.01-.01,0-.16-.08-.32-.1-.49-.06-6.34-.72-12.13,.63-12.99-1.68-1.33-3.53,3.17-5.07,7.86-6.66,2.23-.76,4.51-1.54,6.22-2.54,1.2-.7,2.12-1.52,2.56-2.53,1.72,5.54-.24,11.44,2.59,18.8,6.18,16.05,25.18,29.61,16.57,38.22-.85,.84-2.08,1.18-3.6,1.09,6.36-4.43-.52-15.09-5.01-20.36-3.28-3.85-6.71-9.08-8.87-13.89Z"/><path class="r" d="M209.24,368.12c-2.5,23.74-5.8,52.31-10.52,54.38-2.17,.95-4.04,1.65-5.87,1.87,7.9-2.32,11-34.47,11.42-38.37,2.36-21.93,.4-43.82-2.16-50.48,1.8,.94,3.51,1.65,5.04,2.08,1.68,7.68,3.4,18,2.09,30.52Z"/><path class="r" d="M164.09,414.3c1.12-13.33-2.35-30.91,5.67-30.24-4.83,1.43-.1,37.66-3.78,39.65-3.19,1.73-6.51,1.67-9.31,.98,8.07-1.91,7.07-6.21,7.42-10.39Z"/><path class="r" d="M123.98,361.63c-10.25,4.12-24.24,2.82-28.48-1.72h-.01c-.48-.52-.84-1.07-1.05-1.67-.33-.93-.45-2.03-.3-3.28,.46-3.89,3.61-9.18,11.63-14.89l.08,.12c4.37-2.03,13.99-4.06,20.55,3.55,1.69,1.96,2.48,4.51,2.65,7.06,12.21-14.08,18.46-39.66,21.34-43.43-2.84,9.47-8.36,25.05-10.69,39.95-1.81,3.23-5.12,9.25-13.51,13.33-.7,.34-1.43,.67-2.21,.98Z"/><path class="p" d="M152.07,296.42s.03-.03,.04-.04c.51-.71,1.09-1.17,1.41-1.34,3.91-2.13,7.32-3.15,10.01-4.96,1.21-.81,1.6-2.67,1.59-4.78,1.72,.87,3.41,.78,4.99,.36h.01c.16,6.75,1.34,14.21,3.17,20.53,2.7,9.37,17.68,23.58,28.82,29.33,2.56,6.66,4.52,28.55,2.16,50.48-.42,3.9-3.52,36.05-11.42,38.37-2.22,.28-4.37-.12-6.92-1.57-3.26-1.87-1.17-36.52-4.95-38.48-3.42-1.77-8.91-.95-11.22-.26-8.02-.67-4.55,16.91-5.67,30.24-.35,4.18,.65,8.48-7.42,10.39-1.17-.29-2.26-.69-3.21-1.11-3.88-1.73-3.77-6.29-13.96-54.39-1.37-6.45-1.02-14.07,.2-21.87,2.33-14.9,7.85-30.48,10.69-39.95-2.88,3.77-9.13,29.35-21.34,43.43-.17-2.55-.96-5.1-2.65-7.06-6.56-7.61-16.18-5.58-20.55-3.55l-.08-.12c2.17-1.55,4.71-3.13,7.65-4.72,16.2-8.78,29.49-28.76,38.65-38.93Zm9.8,103.66c0-1.83-2.21-3.32-4.94-3.32s-4.95,1.49-4.95,3.32,2.22,3.33,4.95,3.33,4.94-1.49,4.94-3.33Zm37.2,0c0-1.67-2.3-3.03-5.15-3.03s-5.16,1.36-5.16,3.03,2.31,3.04,5.16,3.04,5.15-1.36,5.15-3.04Z"/><path class="p" d="M193.23,277.69c.4,.75,.7,1.5,.94,2.26h0c-.44,1.02-1.36,1.84-2.56,2.54-.72-4.42-3.27-9.44-6.05-13.34,2.27,1.71,4.45,4.02,6.28,6.42,.08,.1,.15,.2,.23,.3,.46,.61,.84,1.21,1.16,1.82Z"/><path class="p" d="M185.56,269.15c2.78,3.9,5.33,8.92,6.05,13.34-1.71,1-3.99,1.78-6.22,2.54-1.41-6.8-5.07-12.06-10.27-17.74,.24-.16,.48-.31,.73-.43,2.95-1.46,6.43-.2,9.71,2.29Z"/><path class="p" d="M207.15,337.6c-1.53-.43-3.24-1.14-5.04-2.08-11.14-5.75-26.12-19.96-28.82-29.33-1.83-6.32-3.01-13.78-3.17-20.53-.03-1.57-.01-3.1,.07-4.57,.35-6.43,1.86-11.68,4.93-13.8,5.2,5.68,8.86,10.94,10.27,17.74-4.69,1.59-9.19,3.13-7.86,6.66,.86,2.31,6.65,.96,12.99,1.68,.17,.02,.32,.04,.49,.06,.01-.01,.01,0,.01,0,1.37,.64,2.51,5.22,4.83,10.39,2.16,4.81,5.59,10.04,8.87,13.89,4.49,5.27,11.37,15.93,5.01,20.36h-.01c-.79-.05-1.65-.21-2.57-.47Z"/><path class="p" d="M217.72,149.47c13.22-23.92,30.77-34.58,37.24-31.61,.44,.2,.87,.5,1.27,.87l-.18,.19c-6.04-.13-17.09,8.88-20.96,15.73-6.66,10.67-12.11,22.02-17.12,36.74-3.34,9.82-8.83,17-13.92,22.05-.93,.92-1.85,1.78-2.74,2.56l-.29-.33c-8.05-4.19,3.12-22.15,7.95-31.61,2.94-4.53,5.89-9.42,8.75-14.59Z"/><path class="p" d="M136.16,139.07c-.38-5.8-1.07-11.32-2.02-16.81-1.31-7.15-5.71-19.69-12.01-23.03,4.24-.12,10.26,5.65,15.12,16.04,3.93,10.16,5.84,23.67,6.13,30.1,1.35,30.65,8.43,48.18,4.82,49.88-.99,.59-1.95,1.23-2.87,1.9-3.92-6.14-10.13-17.74-9.16-34.4,.5-8.65,.48-16.38-.01-23.68Z"/><path class="p" d="M184.76,246.55c1,2.38,5.69,3.13,10.47,2.43,4.81-.71,9.69-2.9,10.94-6.37,.96-2.68,.31-5.89-1.18-8.72-2.33-4.47-6.72-8.03-10.13-7.21-2.12,.51-4.2,2.39-5.94,4.85-3.26,4.57-5.34,11.14-4.32,14.56h0c.05,.17,.1,.32,.16,.46Zm-16.06,7.41c2.64-.16,4.33-1.82,3.75-3.28-.13-.32-.75-.47-1.57-.51-2.04-.11-5.37,.47-5.8,1-.6,.74,1.24,2.58,3.12,2.78,.17,.02,.33,.02,.5,.01Zm2.52,7.48c-.64-.69-1.47-1.09-2.36-1.09-.12,0-.24,.01-.35,.03-.76,.08-1.45,.46-2.01,1.06-.95,.96-1.55,2.48-1.55,4.19,0,2.92,1.75,5.29,3.91,5.29s3.91-2.37,3.91-5.29c0-1.71-.6-3.23-1.55-4.19Zm3.9,5.85c-3.07,2.12-4.58,7.37-4.93,13.8-1.85-.03-3.7-.12-5.54-.27-20.07-1.62-39.41-10.15-42.46-25.56-.46-2.31-.55-4.78-.22-7.41,.11-.91,.24-1.84,.37-2.77,2.11-14.85,6.61-31.72,17.38-43.02,1.71-1.79,3.57-3.44,5.61-4.91,.92-.67,1.88-1.31,2.87-1.9,2.55-1.53,5.34-2.81,8.39-3.8,4.45-1.44,9.47-2.25,15.12-2.3,5.67-.04,10.72,.81,15.22,2.38,4.47,1.55,8.39,3.81,11.83,6.59,2.24,1.81,4.28,3.85,6.13,6.06,.05,.05,.09,.11,.14,.17l-.14,.11c8.95,11.81,14.11,33.65,9.47,48.5-.55-1.36-2.97-2.17-5.74-1.83-3.05,.37-5.35,1.98-5.16,3.59,.2,1.62,2.82,2.63,5.87,2.26,1.76-.22,3.27-.84,4.19-1.65-.29,.73-.62,1.44-.97,2.13-4.35,8.43-11.94,14.35-20.71,18.11-1.83-2.4-4.01-4.71-6.28-6.42-3.28-2.49-6.76-3.75-9.71-2.29-.25,.12-.49,.27-.73,.43Zm7.4-55.93c.87,1.09,7.16-1.63,6.96-3.09-.11-.81-2.24-1.49-4.01-.95-2.33,.71-3.48,3.36-2.95,4.04Zm-4.86,31.47c-.01-2.16-18.16-.06-18.35,2.04-.15,1.57,4.63,2.32,8.34,2.32,4.44,.01,10.02-2.67,10.01-4.36Zm-21.22-18.22c.44-1.31-.02-3.99-2.08-4.94-1.74-.8-4.08-.11-4.37,.95-.46,1.66,3.86,4.96,5.62,4.77,.06,0,.12-.01,.18-.02,.09-.03,.17-.06,.24-.11,.18-.12,.32-.35,.41-.65Zm-1.95,22.6c1.15-3.34-1.4-10.15-5.1-14.71-1.9-2.35-4.1-4.11-6.26-4.48-3.36-.58-7.38,3.03-9.48,7.47-1.43,3.03-1.97,6.43-.79,9.16,1.47,3.37,6.47,5.23,11.31,5.63t.02,.01c4.66,.39,9.15-.58,10.2-2.85,.04-.07,.07-.15,.1-.23Zm-13.93,10.59c0-1.62-2.48-2.94-5.55-2.94s-5.55,1.32-5.55,2.94,2.49,2.95,5.55,2.95,5.55-1.32,5.55-2.95Z"/></g><circle class="g" cx="193.44" cy="234.52" r=".93"/><circle class="g" cx="145.4" cy="235.79" r=".93"/></g><g id="d"><path class="n" d="M170.27,281.18c-1.85-.03-3.7-.12-5.54-.27-23.09-1.86-45.21-12.87-42.68-32.97,3.19-25.4,12.88-58.41,49.74-58.7,33.9-.26,45.81,31.49,49.39,56.87,2.05,14.56-11.01,26.19-27.88,31.67"/><path class="n" d="M187.01,191.62c8.31-7.59,20.2-22.88,30.79-42.06,13.22-23.92,30.77-34.58,37.24-31.61,8.69,4,9.67,41.26-11.25,63.08-12.66,13.2-28.82,18.99-38.82,23.24"/><path class="n" d="M198.84,198.21c6.11-4.85,14.65-13.34,19.21-26.73,5.01-14.72,10.46-26.07,17.12-36.74"/><path class="n" d="M156.67,191.54c-4.91-10.04-9.3-26.8-11.94-48.92-3.24-27.14-15.48-43.62-22.59-43.3-9.55,.43-24.49,34.58-13.32,62.67,8.1,20.36,24.54,32.7,30.77,40.24"/><path class="n" d="M134.21,122.35c2.16,12.39,2.93,24.95,2.03,40.49-.97,16.67,5.25,28.26,9.16,34.4"/><path class="n" d="M184.83,246.63c-2.07-4.93,3.85-18.37,10.1-19.87,5.57-1.34,13.79,9.03,11.31,15.93-2.48,6.9-19.41,8.72-21.41,3.94Z"/><path class="n" d="M188.97,231.63c5.96-4.86,18.5,13.98,6.33,17.43"/><path class="n" d="M154.56,247.29c1.75-5.06-5.02-18.09-11.35-19.19-5.64-.98-13.18,9.89-10.27,16.62,2.91,6.73,19.93,7.46,21.62,2.56Z"/><path class="n" d="M149.46,232.58c-6.26-4.47-17.57,15.14-5.2,17.8"/><path class="n" d="M156.1,225.35c.97-.68,.85-4.43-1.67-5.59-1.74-.8-4.08-.12-4.37,.95-.5,1.81,4.69,5.58,6.04,4.64Z"/><path class="n" d="M182.6,211.45c-.54-.68,.62-3.33,2.95-4.04,1.77-.54,3.91,.14,4.01,.95,.19,1.46-6.09,4.18-6.96,3.09Z"/><path class="n" d="M168.77,254.05c2.64-.16,4.33-1.82,3.75-3.28-.44-1.11-6.77-.25-7.37,.49-.65,.79,1.58,2.92,3.62,2.79Z"/><path class="n" d="M168.84,260.44c.3-2.22,.23-5.56,0-6.38"/><path class="n" d="M122.41,245.17c-12.56-5.07-29.11-5.88-40.49-3.07"/><path class="n" d="M90.2,260.44c11.2-3.95,22.55-5.88,32.06-5.1"/><path class="n" d="M220.75,244.01c12.56-5.07,29.11-5.88,40.49-3.07"/><path class="n" d="M252.96,259.28c-11.2-3.95-22.55-5.88-32.06-5.1"/><ellipse class="n" cx="168.93" cy="265.72" rx="3.91" ry="5.28"/><path class="n" d="M171.3,261.51c.11,.4,.18,.85,.18,1.31,0,1.96-1.14,3.55-2.54,3.55s-2.54-1.59-2.54-3.55c0-.46,.06-.91,.18-1.31"/><path class="n" d="M168.58,260.46c-.16,1.95,.5,4.23,.35,5.91"/><path class="n" d="M207.23,337.68c1.68,7.68,3.4,18,2.09,30.53-2.5,23.74-5.8,52.31-10.52,54.38-4.77,2.1-8.13,2.95-12.79,.3-3.26-1.87-1.17-36.52-4.95-38.48-3.42-1.77-8.91-.95-11.22-.26-4.83,1.43-.1,37.66-3.78,39.65-4.53,2.45-9.3,1.31-12.52-.13-3.88-1.73-3.77-6.29-13.96-54.39-3.98-18.78,6.56-47.41,10.89-61.83"/><path class="n" d="M164.73,280.91c.64,3.52,.92,7.89-1.12,9.26-2.69,1.81-6.1,2.83-10.01,4.96-.34,.18-.99,.7-1.54,1.51"/><path class="n" d="M152.18,296.47c-9.17,10.16-22.47,30.18-38.69,38.96-17.22,9.33-20.61,18.29-18.98,22.89,2.07,5.86,18.13,7.98,29.54,3.39,10.03-4.03,13.76-10.81,15.72-14.31"/><path class="n" d="M94.21,355.05c4.31-2.89,6.72-4.32,11.71-5.86"/><path class="n" d="M101.44,363.09c4.91-1.72,6.81-2.76,10.35-5.55"/><path class="n" d="M213.4,337.06c-6.48,6.48-36.13-17.22-40.04-30.78-4.25-14.72-5-35.59,2.56-39.33,5.08-2.51,11.74,3.04,16.22,9.01,5.09,6.78,1.16,13.71,4.7,22.89,6.18,16.05,25.17,29.61,16.57,38.22Z"/><path class="n" d="M175.2,267.37c6.03,6.58,9.98,12.6,10.78,21.1"/><path class="n" d="M185.64,269.23c3.23,4.54,6.16,10.59,6.24,15.45"/></g></svg>