<?xml version="1.0" encoding="UTF-8"?><svg xmlns="http://www.w3.org/2000/svg" viewBox="0 0 336.39 524.48"><defs><style>.e{fill:#ead0d0;}.f{fill:#fcb9b9;}.g{fill:#fff;}.h{fill:#6b3d34;}.i{fill:#eab5a7;}.j{fill:#7f4d40;}.k{fill:#bc7171;}.l{fill:#824f46;}.m{stroke-width:2px;}.m,.n{fill:none;stroke:#3f2a25;stroke-linecap:round;stroke-linejoin:round;}.o{fill:#eaa0a0;}.p{fill:#b27967;}.q{fill:#d17e75;}.r{fill:#935d51;}.s{fill:#e08f82;}</style></defs><g id="a"><path class="m" d="M143.28,197.34c-10.76,11.29-15.25,28.16-17.36,42.99-.13,.93-.26,1.86-.37,2.77-.33,2.63-.24,5.1,.21,7.41,3.22,16.23,24.49,24.83,45.67,25.76"/><path class="m" d="M187.34,275.29c21.11-3.71,39.76-16.81,37.34-34.01-.1-.71-.21-1.42-.32-2.14-2.34-14.87-7.6-31.51-18.42-42.5"/><path class="m" d="M160.15,186.71c4.45-1.44,9.47-2.26,15.14-2.3,4.92-.04,9.37,.59,13.41,1.8"/><path class="m" d="M188.7,186.21c5.81-9.67,13.32-28.16,17.98-49.54,5.8-26.71,19.55-41.95,26.61-40.96,9.46,1.34,21.09,36.75,7.3,63.65-9.87,19.25-27.54,30.34-34.65,37.28l-.27,.27"/><path class="m" d="M160.15,186.71c-4.8-10.13-9.35-27.29-11.93-48.93-3.23-27.14-15.47-43.62-22.59-43.3-9.55,.43-24.49,34.58-13.32,62.67,8.05,20.25,24.67,32.63,30.97,40.19,.03,.04,.07,.08,.1,.12"/><path class="m" d="M125.92,240.33c-12.56-5.07-29.11-5.88-40.49-3.07"/><path class="m" d="M93.71,255.61c11.2-3.95,22.55-5.88,32.06-5.1"/><path class="m" d="M224.26,239.18c12.56-5.07,29.11-5.88,40.49-3.07"/><path class="m" d="M256.47,254.45c-11.2-3.95-22.55-5.88-32.06-5.1"/><path class="m" d="M172.77,388.43c-1.83,9.16,.98,34.8-2.1,36.46-4.53,2.45-9.3,1.31-12.52-.13-3.88-1.73-3.77-6.29-13.96-54.39-2.85-13.43,1.73-31.87,6.16-46.57h0"/><path class="m" d="M181.63,385.91c1.09,.15,3.03,.44,3.93,.9,3.78,1.96,1.8,35.3,5.06,37.17,4.66,2.65,8.02,1.8,12.79-.3,4.72-2.07,8.02-30.64,10.52-54.38,.93-8.86,.34-16.61-.68-23.11"/><path class="m" d="M171.43,276.27c.46,2.16,.65,4.72-.36,6.55-1.56,2.84-10.2,4.28-14.48,6.98-4.42,2.79-6.69,14.07-6.24,33.99h0"/><path class="m" d="M172.77,388.43c1.76,.48,3.53,.54,5.21-.02,1.42-.47,2.63-1.35,3.65-2.5"/><path class="m" d="M187.34,275.29c.05,1.95,.52,4.11,1.4,6.36,1.27,3.23,9.46,3.68,13.39,6.58,6.98,5.15,16.42,40.57,15.37,46.25-.33,1.81-1.91,6.21-4.25,11.71"/></g><g id="b"><g><path class="k" d="M233.24,95.37c9.47,1.34,21.09,36.75,7.3,63.65-9.99,19.5-27.84,30.26-34.76,37.17h-.01c-4.57-4.61-10.13-8.22-16.88-10.25,5.85-9.53,13.01-27.84,17.74-49.61,5.8-26.71,19.55-41.95,26.61-40.96Z"/><path class="k" d="M224.63,240.94c2.43,17.22-16.28,30.33-37.43,34.03-3.94,.69-7.97,1.05-11.96,1.05-1.27,0-2.54-.03-3.82-.09-21.19-.92-42.5-9.52-45.7-25.76-.46-2.32-.55-4.79-.22-7.41,.12-.91,.24-1.84,.37-2.77,2.11-14.81,6.59-31.63,17.3-42.92,1.73-1.83,3.62-3.5,5.69-5.01,3.28-2.38,7.01-4.32,11.26-5.7,4.45-1.43,9.46-2.25,15.12-2.29,5.02-.04,9.55,.62,13.65,1.87,6.75,2.03,12.31,5.64,16.88,10.26,11.42,11.5,16.68,29.29,18.86,44.74Zm-14.93-3.42c2.48-6.9-5.74-17.27-11.31-15.93-2.12,.51-4.2,2.39-5.95,4.85h-.01c-3.39,4.8-5.51,11.76-4.15,15.02,1,2.38,5.7,3.13,10.48,2.43,4.81-.72,9.7-2.9,10.94-6.37Zm-23.65-20.49c.87,1.08,7.16-1.64,6.96-3.1-.11-.81-2.25-1.48-4.01-.94-2.33,.71-3.49,3.36-2.95,4.04Zm-13.82,31.85c2.64-.17,4.33-1.82,3.75-3.29-.45-1.1-6.77-.24-7.37,.49-.65,.8,1.57,2.92,3.62,2.8Zm-11.18-30.15c.97-.68,.85-4.43-1.67-5.59-1.74-.8-4.08-.11-4.37,.95-.5,1.81,4.69,5.58,6.04,4.64Zm-3.03,23.39c1.15-3.34-1.4-10.15-5.1-14.71-1.9-2.35-4.1-4.11-6.26-4.48-5.64-.97-13.18,9.9-10.27,16.63,1.47,3.38,6.48,5.24,11.33,5.65,4.81,.39,9.45-.65,10.3-3.09Z"/><path class="k" d="M187.55,379.74c-.92,.02-1.84,0-2.73-.06-.6,1.69-1.33,3.25-2.22,4.58h0c-.31,.47-.65,.91-1.01,1.31-1.02,1.15-2.23,2.03-3.65,2.5-1.68,.56-3.45,.5-5.21,.02-.73-.19-1.44-.45-2.16-.77h-.01c-6.1-2.69-11.54-9.22-11.92-9.68-5.37-6.58-5.42-13.66-7.11-33.13-.69-7.85-1.09-14.87-1.22-21.05h0c-.45-19.93,1.82-31.21,6.24-34,4.28-2.7,12.92-4.14,14.48-6.98,1.04-1.89,.89-4.33,.4-6.54h0c1.28,.05,2.55,.08,3.82,.08,3.99,0,8.02-.36,11.96-1.05v.03c0,2.07,.54,3.9,1.49,6.31,1.27,3.23,9.46,3.68,13.39,6.58,6.98,5.15,16.42,40.57,15.37,46.25-.33,1.81-1.91,6.21-4.25,11.71-4.18,9.83-10.77,23.15-16.88,31.33-1.27,1.71-4.99,2.49-8.77,2.56Z"/><path class="k" d="M187.55,379.74c3.78-.07,7.5-.85,8.77-2.56,6.11-8.18,12.7-21.5,16.88-31.33,1.02,6.5,1.61,14.25,.68,23.11-2.5,23.74-5.8,52.31-10.52,54.38-4.77,2.1-8.13,2.95-12.79,.3-3.26-1.87-1.27-35.21-5.05-37.17-.9-.46-2.85-.75-3.94-.9,.36-.4,.7-.84,1.01-1.31h0c.89-1.33,1.62-2.89,2.22-4.58,.89,.06,1.81,.08,2.73,.06Z"/><path class="k" d="M198.39,221.59c5.57-1.34,13.79,9.03,11.31,15.93-1.24,3.47-6.13,5.65-10.94,6.37h0c12.16-3.45-.36-22.28-6.32-17.45,1.75-2.46,3.83-4.34,5.95-4.85Z"/><path class="k" d="M192.44,226.44c5.96-4.83,18.48,14,6.32,17.44h0c-4.78,.71-9.48-.04-10.48-2.42-1.36-3.26,.76-10.22,4.15-15.01h.01Z"/><path class="k" d="M193.01,213.93c.2,1.46-6.09,4.18-6.96,3.1-.54-.68,.62-3.33,2.95-4.04,1.76-.54,3.9,.13,4.01,.94Z"/><path class="k" d="M175.98,245.59c.58,1.47-1.11,3.12-3.75,3.29-2.05,.12-4.27-2-3.62-2.8,.6-.73,6.92-1.59,7.37-.49Z"/><path class="k" d="M172.72,388.09c-1.83,9.16,.98,34.8-2.1,36.46-4.53,2.45-9.3,1.31-12.52-.13-3.88-1.73-3.77-6.29-13.96-54.39-2.85-13.43,1.73-31.87,6.16-46.57,.13,6.18,.53,13.2,1.22,21.05,1.69,19.47,1.74,26.55,7.11,33.13,.38,.46,5.82,6.99,11.92,9.68h.01c.72,.32,1.43,.58,2.16,.77Z"/><path class="k" d="M159.38,213.14c2.52,1.16,2.64,4.91,1.67,5.59-1.35,.94-6.54-2.83-6.04-4.64,.29-1.06,2.63-1.75,4.37-.95Z"/><path class="k" d="M152.92,227.41c3.7,4.56,6.25,11.37,5.1,14.71-.85,2.44-5.49,3.48-10.3,3.09h0c-12.37-2.66-1.06-22.28,5.2-17.8Z"/><path class="k" d="M148.86,192.06c-2.07,1.51-3.96,3.18-5.69,5.01l-.02-.02c-6.23-7.54-22.79-19.88-30.89-40.24-11.17-28.09,3.77-62.24,13.32-62.67,7.12-.32,19.36,16.16,22.6,43.3,2.64,22.13,7.03,38.89,11.94,48.92-4.25,1.38-7.98,3.32-11.26,5.7Z"/><path class="k" d="M152.92,227.41c-6.26-4.48-17.57,15.14-5.2,17.79h0c-4.85-.4-9.86-2.26-11.33-5.64-2.91-6.73,4.63-17.6,10.27-16.63,2.16,.37,4.36,2.13,6.26,4.48Z"/></g></g><g id="c"><g><path class="o" d="M224.9,174.6c9.66-9.93,22.75-34.64,18.18-66.12l.06-.02c4.72,13.04,6.24,33.63-2.54,50.77-10,19.5-27.84,30.25-34.76,37.17-1.73-1.75-3.6-3.35-5.63-4.77,.55-.7,1.15-1.5,1.78-2.38,.68-.93,1.38-1.96,2.09-3.09l.3,.19c6.7,1.52,8.45,.64,20.52-11.75Z"/><path class="f" d="M243.08,108.48c4.57,31.48-8.52,56.19-18.18,66.12-12.07,12.39-13.82,13.27-20.52,11.75l-.3-.19c4.13-6.5,8.67-16.21,9.13-28.69,.58-15.55,2.54-27.98,5.87-40.11,2.25-5.37,11.25-21.7,18.58-18.97,2.01,2.26,3.92,5.75,5.48,10.07l-.06,.02Z"/><path class="p" d="M237.66,98.39c-7.33-2.73-16.33,13.6-18.58,18.97-3.33,12.13-5.29,24.56-5.87,40.11-.46,12.48-5,22.19-9.13,28.69-.71,1.13-1.41,2.16-2.09,3.09l-.07-.05c-8.77-2.3-3.15-22.26-.53-32.56v-.02c1.94-6.2,3.75-12.96,5.3-20.09,5.8-26.71,19.55-41.95,26.61-40.95,1.44,.2,2.92,1.19,4.36,2.81Z"/><path class="r" d="M224.37,239c.11,.72,.22,1.43,.32,2.14,2.26,16.02-13.79,28.5-33.07,33.13,8.77-3.76,19.39-13.03,23.74-21.46,.35-.69,.68-1.4,.98-2.14,.67-.58,1.03-1.26,.95-1.94-.02-.13-.05-.26-.1-.38,4.77-14.9,.29-37.11-8.63-48.95,9.07,10.88,13.66,25.98,15.81,39.6Z"/><path class="r" d="M208.45,298.59c5.22,12.53,9.81,31.7,9.06,35.75-.33,1.81-1.91,6.21-4.25,11.71-1.35,3.18-2.96,6.73-4.72,10.35-3.68,7.57-8.03,15.45-12.16,20.98-1.27,1.71-4.99,2.49-8.77,2.56,.52-1.95,.93-3.59,1.3-5.06,8.37-5.07,21.26-30.7,21.96-40.53,.35-5.01,2.23-22.46-2.42-35.76Z"/><path class="p" d="M152.96,227.59c-1.9-2.34-4.09-4.08-6.24-4.45-3.34-.58-7.34,2.99-9.45,7.39-1.45,3.04-2.01,6.48-.82,9.23,1.46,3.36,6.44,5.23,11.26,5.64,.02,0,.04,.01,.06,.01,4.81,.4,9.46-.65,10.3-3.09,1.16-3.34-1.41-10.17-5.11-14.73Zm-9.67-30.39c1.71-1.79,3.58-3.45,5.63-4.93,.59-.44,1.2-.85,1.82-1.25,.1-.05,.19-.1,.27-.17,2.75-1.74,5.8-3.19,9.17-4.28,4.45-1.44,9.47-2.25,15.12-2.3,5.02-.04,9.55,.62,13.65,1.87,4.2,1.26,7.94,3.14,11.26,5.49,2.03,1.42,3.9,3.02,5.63,4.77,.93,.94,1.82,1.91,2.67,2.93,.02,.02,.03,.05,.05,.07,8.92,11.84,13.4,34.05,8.63,48.95-.53-1.38-2.97-2.21-5.77-1.87-3.04,.37-5.35,1.98-5.15,3.6,.2,1.61,2.82,2.62,5.86,2.25,1.77-.22,3.29-.85,4.21-1.66-.3,.74-.63,1.45-.98,2.14-4.35,8.43-14.97,17.7-23.74,21.46-1.41,.34-2.84,.64-4.28,.89-3.97,.7-8.02,1.07-12.04,1.07-1.27,0-2.54-.03-3.82-.09-24.21-1.05-48.57-12.13-45.92-33.17,.12-.91,.24-1.84,.37-2.77,2.11-14.84,6.6-31.7,17.36-43Zm66.47,40.53c.95-2.65,.32-5.8-1.12-8.61-2.32-4.52-6.76-8.15-10.19-7.33-2.12,.51-4.21,2.4-5.96,4.87-3.19,4.5-5.25,10.9-4.36,14.36,.05,.23,.13,.44,.21,.64,1,2.38,5.7,3.13,10.48,2.43h.01c4.81-.72,9.69-2.9,10.93-6.36Zm-23.65-20.5c.87,1.09,7.15-1.63,6.96-3.09-.11-.81-2.25-1.49-4.01-.95-2.33,.71-3.49,3.36-2.95,4.04Zm-4.38,20.95c-.02-2.16-18.16-.05-18.36,2.04-.14,1.57,4.63,2.32,8.35,2.33,4.44,0,10.01-2.67,10.01-4.37Zm-9.44,10.9c2.64-.17,4.33-1.82,3.74-3.28-.16-.39-1.05-.54-2.17-.53-2.03,.02-4.81,.55-5.2,1.02-.54,.66,.91,2.24,2.59,2.68,.34,.09,.69,.13,1.04,.11Zm-11.18-30.14c.97-.68,.85-4.43-1.67-5.59-1.74-.8-4.08-.12-4.37,.94-.5,1.81,4.69,5.59,6.04,4.65Zm-17.74,34.21c0-1.62-2.49-2.94-5.55-2.94s-5.55,1.32-5.55,2.94,2.48,2.95,5.55,2.95,5.55-1.32,5.55-2.95Z"/><path class="q" d="M217.29,248.73c.08,.68-.28,1.36-.95,1.94,.31-.75,.59-1.52,.85-2.32,.05,.12,.08,.25,.1,.38Z"/><path class="s" d="M217.19,248.35c-.26,.8-.54,1.57-.85,2.32-.92,.81-2.44,1.44-4.21,1.66-3.04,.37-5.66-.64-5.86-2.25-.2-1.62,2.11-3.23,5.15-3.6,2.8-.34,5.24,.49,5.77,1.87Z"/><path class="r" d="M213.26,346.05c1.02,6.5,1.61,14.25,.68,23.11-2.5,23.74-5.8,52.31-10.52,54.38-3.08,1.36-5.58,2.19-8.21,1.9h0c5.34-.35,8.64-12.27,10.62-26.61h.01c.17-.29,.27-.58,.27-.89,0-.17-.03-.33-.09-.49,1.92-14.64,2.52-31.47,2.52-41.05,1.76-3.62,3.37-7.17,4.72-10.35Z"/><path class="p" d="M194.05,330c-.35,.26-.7,.52-1.03,.87,.35-.3,.69-.59,1.03-.87Zm.8-27.95h0c.64,2.05,3.17,14.44,2.12,22.81-.27,2.17-.87,3.28-1.58,4.03-.41,.34-.83,.68-1.25,1.05,.43-.32,.86-.62,1.25-1.05,1.83-1.49,3.51-2.81,4.91-3.97l-.05-.06c-.37-5.88-3.01-15.99-5.39-22.81Zm-25.76,15.45l-.1,.02c0,23.22,9.92,30.52,11.09,42.91,.32,3.34,.54,7.26,.42,11.11-.21,7.27-1.63,14.35-5.89,17.08-.61-.05-1.22-.17-1.83-.33-.73-.19-1.45-.45-2.17-.77-.83-.36-1.65-.8-2.44-1.29-5.05-3.06-9.15-7.99-9.48-8.39-5.37-6.58-5.42-13.66-7.11-33.13-.69-7.85-1.09-14.87-1.22-21.05h0c-.45-19.93,1.82-31.21,6.24-34,4.28-2.7,12.92-4.14,14.48-6.98,.63-1.14,.82-2.49,.76-3.86h0c2.81,2.35,12.87,2.03,15.82-.74,.24,1.08,.6,2.21,1.08,3.43,1.27,3.23,9.46,3.68,13.39,6.58,2,1.48,4.21,5.45,6.31,10.5,4.65,13.3,2.77,30.75,2.42,35.76-.7,9.83-13.59,35.46-21.96,40.53-1.03,.62-1.99,.94-2.85,.87,.96-4.23,1.33-8.58,1.58-11.48,.43-4.98-3.17-10.8-7.46-18.88-4.03-7.59-8.64-15.88-11.09-27.89Z"/><path class="g" d="M208.64,229.12c1.44,2.81,2.07,5.96,1.12,8.61-1.24,3.46-6.12,5.64-10.93,6.36,7.88-2.25,5.38-10.96,1.02-15.48,3.08-.76,6.24-.6,8.79,.51Z"/><path class="p" d="M187.61,379.94c3.78-.07,7.5-.85,8.77-2.56,4.13-5.53,8.48-13.41,12.16-20.98,0,9.58-.6,26.41-2.52,41.05-.48-1.39-2.99-2.45-6-2.45-3.37,0-6.1,1.32-6.1,2.94s2.73,2.95,6.1,2.95c2.72,0,5.03-.87,5.81-2.06-1.98,14.34-5.28,26.26-10.62,26.6h0c-1.44-.15-2.93-.65-4.58-1.59-3.26-1.87-1.28-35.21-5.06-37.17-.9-.46-2.84-.75-3.93-.9,.36-.4,.7-.84,1.01-1.31h.01c.89-1.33,1.62-2.89,2.22-4.58,.89,.06,1.81,.08,2.73,.06Z"/><path class="l" d="M206.02,397.45c.06,.16,.09,.32,.09,.49,0,.31-.1,.6-.27,.88,.06-.45,.12-.91,.18-1.37Z"/><path class="r" d="M206.02,397.45c-.06,.46-.12,.92-.18,1.37h-.01c-.78,1.2-3.09,2.07-5.81,2.07-3.37,0-6.1-1.32-6.1-2.95s2.73-2.94,6.1-2.94c3.01,0,5.52,1.06,6,2.45Z"/><path class="e" d="M208.64,229.12c-2.55-1.11-5.71-1.27-8.79-.51-2.36-2.44-5.27-3.66-7.36-1.95,1.75-2.47,3.84-4.36,5.96-4.87,3.43-.82,7.87,2.81,10.19,7.33Z"/><path class="r" d="M201.92,189.2l.07,.05c-.63,.88-1.23,1.68-1.78,2.38-3.32-2.35-7.06-4.23-11.26-5.49,3.93-6.41,8.45-16.77,12.44-29.5-2.62,10.3-8.24,30.26,.53,32.56Z"/><path class="r" d="M200.24,324.86l.05,.06c-1.4,1.16-3.08,2.48-4.91,3.97,.71-.75,1.31-1.86,1.58-4.03,1.05-8.37-1.48-20.76-2.12-22.81h0c2.38,6.82,5.02,16.93,5.39,22.81Z"/><path class="j" d="M199.85,228.61c4.36,4.52,6.86,13.23-1.02,15.48h-.01c-4.78,.7-9.48-.05-10.48-2.43-.08-.2-.16-.41-.21-.64,1.18-6.91,6.32-11.08,11.72-12.41Z"/><path class="h" d="M192.49,226.66c2.09-1.71,5-.49,7.36,1.95-5.4,1.33-10.54,5.5-11.72,12.41-.89-3.46,1.17-9.86,4.36-14.36Z"/><path class="i" d="M193.07,214.14c.19,1.46-6.09,4.18-6.96,3.09-.54-.68,.62-3.33,2.95-4.04,1.76-.54,3.9,.14,4.01,.95Z"/><path class="r" d="M188.91,374.88c-.37,1.47-.78,3.11-1.3,5.06-.92,.02-1.84,0-2.73-.06,.47-1.32,.86-2.72,1.18-4.13,.86,.07,1.82-.25,2.85-.87Z"/><path class="r" d="M180.18,345.39c4.29,8.08,7.89,13.9,7.46,18.88-.25,2.9-.62,7.25-1.58,11.48-.32,1.41-.71,2.81-1.18,4.13-.6,1.69-1.33,3.25-2.22,4.58h-.01c.06-1.79,.01-3.39-.15-4.85-.31-3.07-1.04-5.56-2-8.07,.12-3.85-.1-7.77-.42-11.11-1.17-12.39-11.09-19.69-11.09-42.91l.1-.02c2.45,12.01,7.06,20.3,11.09,27.89Z"/><path class="r" d="M187.34,275.16c0,.96,.12,1.92,.33,2.92-2.95,2.77-13.01,3.09-15.82,.74h0c-.03-.9-.17-1.81-.36-2.68,1.28,.06,2.55,.09,3.82,.09,4.02,0,8.07-.37,12.04-1.07Z"/><path class="r" d="M182.5,379.61c.16,1.46,.21,3.06,.15,4.85-.31,.47-.65,.91-1.01,1.31-1.02,1.15-2.23,2.03-3.65,2.5-1.1,.37-2.24,.47-3.38,.35,4.26-2.73,5.68-9.81,5.89-17.08,.96,2.51,1.69,5,2,8.07Z"/><path class="r" d="M163.37,240.22c.2-2.09,18.34-4.2,18.36-2.04,0,1.7-5.57,4.37-10.01,4.37-3.72-.01-8.49-.76-8.35-2.33Z"/><path class="o" d="M176.03,245.8c.59,1.46-1.1,3.11-3.74,3.28-.35,.02-.7-.02-1.04-.11h0c2.49-.12,3.05-2.86,2.61-3.7,1.12-.01,2.01,.14,2.17,.53Z"/><path class="f" d="M173.86,245.27c.44,.84-.12,3.58-2.61,3.69h0c-1.68-.43-3.13-2.01-2.59-2.67,.39-.47,3.17-1,5.2-1.02Z"/><path class="r" d="M170.61,387.52c.72,.32,1.44,.58,2.17,.77-1.83,9.16,.98,34.8-2.1,36.46-3.04,1.65-6.2,1.67-8.91,1.07,8.14,.29,6.48-29.01,6.4-39.59,.79,.49,1.61,.93,2.44,1.29Z"/><path class="p" d="M168.17,386.23c.08,10.58,1.74,39.88-6.4,39.59-1.33-.29-2.55-.73-3.61-1.2-3.88-1.73-3.77-6.29-13.96-54.39-2.85-13.43,1.73-31.87,6.16-46.57,.13,6.18,.53,13.2,1.22,21.05,1.69,19.47,1.74,26.55,7.11,33.13,.33,.4,4.43,5.33,9.48,8.39Zm-1.26,12.84c0-1.63-2.63-2.95-5.86-2.95s-5.86,1.32-5.86,2.95,2.62,2.94,5.86,2.94,5.86-1.32,5.86-2.94Z"/><path class="r" d="M161.05,396.12c3.23,0,5.86,1.32,5.86,2.95s-2.63,2.94-5.86,2.94-5.86-1.32-5.86-2.94,2.62-2.95,5.86-2.95Z"/><path class="i" d="M159.44,213.35c2.52,1.16,2.64,4.91,1.67,5.59-1.35,.94-6.54-2.84-6.04-4.65,.29-1.06,2.63-1.74,4.37-.94Z"/><path class="h" d="M152.96,227.59c3.7,4.56,6.27,11.39,5.11,14.73-1.19-7.03-6.63-11.18-12.21-12.4,2.18-2.51,4.94-3.85,7.1-2.33Z"/><path class="r" d="M148.24,137.65c2.63,22.12,7.03,38.88,11.94,48.92-3.37,1.09-6.42,2.54-9.17,4.28,2.98-2.51-3.51-20.3-4.83-50.12-.3-6.82-2.43-21.63-6.86-31.93l.59-.31c3.72,7.29,6.9,17.19,8.33,29.16Z"/><path class="p" d="M146.18,140.73c1.32,29.82,7.81,47.61,4.83,50.12-.08,.07-.17,.12-.27,.17-.62,.4-1.23,.81-1.82,1.25-3.92-6.14-10.14-17.74-9.17-34.4,.58-9.92,.47-18.62-.25-26.84-.4-4.66-1-9.17-1.78-13.65-.5-5.1-6.43-20.58-14.38-22.35,.79-.42,1.56-.66,2.3-.69,3.98-.17,9.56,4.9,14.27,14.15l-.59,.31c4.43,10.3,6.56,25.11,6.86,31.93Z"/><path class="e" d="M152.96,227.59c-2.16-1.52-4.92-.18-7.1,2.33-3.04-.66-6.12-.46-8.59,.61,2.11-4.4,6.11-7.97,9.45-7.39,2.15,.37,4.34,2.11,6.24,4.45Z"/><path class="j" d="M158.07,242.32c-.84,2.44-5.49,3.49-10.3,3.09-.02,0-.04-.01-.06-.01-8.01-1.78-5.97-10.73-1.85-15.48,5.58,1.22,11.02,5.37,12.21,12.4Z"/><path class="o" d="M148.92,192.27c-2.05,1.48-3.92,3.14-5.63,4.93-.54-.65-1.16-1.34-1.85-2.06,1.18-2.8-2.31-13.97-3.22-17.15-3.2-11.25,2.38-33.72,1.2-46.95h.08c.72,8.21,.83,16.91,.25,26.83-.97,16.66,5.25,28.26,9.17,34.4Z"/><path class="g" d="M137.27,230.53c2.47-1.07,5.55-1.27,8.59-.61-4.12,4.75-6.16,13.7,1.85,15.48-4.82-.41-9.8-2.28-11.26-5.64-1.19-2.75-.63-6.19,.82-9.23Z"/><path class="s" d="M137.82,250.21c3.06,0,5.55,1.32,5.55,2.94s-2.49,2.95-5.55,2.95-5.55-1.32-5.55-2.95,2.48-2.94,5.55-2.94Z"/><path class="f" d="M139.42,131.04c1.18,13.23-4.4,35.7-1.2,46.95,.91,3.18,4.4,14.35,3.22,17.15-7.25-7.68-21.76-19.61-29.12-38.13-10.3-25.91,1.61-56.99,11.02-61.98,7.95,1.77,13.88,17.25,14.38,22.35,.78,4.48,1.38,8.99,1.78,13.65h-.08Z"/></g><circle class="g" cx="196.88" cy="229.54" r=".93"/><circle class="g" cx="148.61" cy="231.18" r=".93"/></g><g id="d"><path class="n" d="M224.77,241.23c2.88,20.43-23.99,35.09-49.39,35.09s-52.53-11.11-49.74-33.26c3.2-25.4,12.88-58.41,49.74-58.7,33.9-.26,45.81,31.49,49.39,56.87Z"/><path class="n" d="M189.03,186.22c5.85-9.52,13.01-27.83,17.74-49.61,5.8-26.71,19.55-41.95,26.61-40.96,9.47,1.33,21.1,36.75,7.3,63.65-10,19.5-27.84,30.25-34.76,37.17"/><path class="n" d="M219.16,117.44c-3.33,12.13-5.29,24.56-5.87,40.11-.62,16.68-8.51,28.42-13,34.16"/><path class="n" d="M160.26,186.65c-4.91-10.04-9.3-26.8-11.94-48.92-3.24-27.14-15.48-43.62-22.59-43.3-9.55,.43-24.49,34.58-13.32,62.67,8.1,20.36,24.66,32.7,30.89,40.24"/><path class="n" d="M137.8,117.47c2.16,12.39,2.93,24.95,2.03,40.49-.97,16.67,5.25,28.26,9.16,34.4"/><path class="n" d="M188.42,241.75c-2.07-4.93,3.85-18.37,10.1-19.87,5.57-1.34,13.79,9.03,11.31,15.93-2.48,6.9-19.41,8.72-21.41,3.94Z"/><path class="n" d="M192.57,226.74c5.96-4.86,18.5,13.98,6.33,17.43"/><path class="n" d="M158.15,242.41c1.75-5.06-5.02-18.09-11.35-19.19-5.64-.98-13.18,9.89-10.27,16.62,2.91,6.73,19.93,7.46,21.62,2.56Z"/><path class="n" d="M153.06,227.7c-6.26-4.47-17.57,15.14-5.2,17.8"/><path class="n" d="M161.19,219.02c.97-.68,.85-4.43-1.67-5.59-1.74-.8-4.08-.12-4.37,.95-.5,1.81,4.69,5.58,6.04,4.64Z"/><path class="n" d="M186.19,217.32c-.54-.68,.62-3.33,2.95-4.04,1.77-.54,3.91,.14,4.01,.95,.19,1.46-6.09,4.18-6.96,3.09Z"/><path class="n" d="M172.37,249.17c2.64-.16,4.33-1.82,3.75-3.28-.44-1.11-6.77-.25-7.37,.49-.65,.79,1.58,2.92,3.62,2.79Z"/><path class="n" d="M162.6,255.53c1.58,2.59,7.8,.07,10.08-.09s9.24,2.12,11.17-1.11"/><path class="n" d="M172.43,255.47c.3-2.22,.23-5.47,0-6.3"/><path class="n" d="M126.01,240.28c-12.56-5.07-29.11-5.88-40.49-3.07"/><path class="n" d="M93.79,255.55c11.2-3.95,22.55-5.88,32.06-5.1"/><path class="n" d="M224.89,239.08c12.56-5.07,28.56-5.84,39.93-3.03"/><path class="n" d="M256.56,254.4c-11.2-3.95-22.55-5.88-32.06-5.1"/><path class="n" d="M172.86,388.38c-1.83,9.16,.98,34.8-2.1,36.46-4.53,2.45-9.3,1.31-12.52-.13-3.88-1.73-3.77-6.29-13.96-54.39-2.85-13.43,1.73-31.87,6.16-46.57h0"/><path class="n" d="M181.72,385.86c1.09,.15,3.03,.44,3.93,.9,3.78,1.96,1.8,35.3,5.06,37.17,4.66,2.65,8.02,1.8,12.79-.3,4.72-2.07,8.02-30.64,10.52-54.38,.93-8.86,.34-16.61-.68-23.11"/><path class="n" d="M167.44,300.44c.25,22.13,7.11,34.28,12.82,45.03,4.29,8.08,7.89,13.9,7.46,18.88-.33,3.87-.88,10.32-2.76,15.61-.6,1.69-1.33,3.25-2.22,4.58h0c-1.21,1.8-2.74,3.17-4.66,3.81-1.68,.56-3.45,.5-5.21,.02-.73-.19-1.45-.45-2.17-.77-6.1-2.69-11.54-9.22-11.92-9.68-5.37-6.58-5.42-13.66-7.11-33.13-.69-7.85-1.09-14.87-1.22-21.05h0c-.45-19.93,1.82-31.21,6.24-34,4.28-2.7,12.92-4.14,14.48-6.98,1.04-1.89,.89-4.33,.4-6.54"/><path class="n" d="M180.26,345.48c6.92-11.35,17.7-18.01,22.15-22.25"/><path class="n" d="M184.96,379.97c.89,.06,1.81,.08,2.73,.06,3.78-.07,7.5-.85,8.77-2.56,6.11-8.18,12.7-21.5,16.88-31.33,2.34-5.5,3.92-9.9,4.25-11.71,1.05-5.68-8.39-41.1-15.37-46.25-3.93-2.9-12.12-3.35-13.39-6.58-.95-2.41-1.5-4.23-1.49-6.3"/><path class="n" d="M193.75,299c2.61,6.43,6.13,19.07,6.57,25.94"/><path class="n" d="M165.81,366.31c.44,8.08,2.36,13.01,4.88,21.3"/><path class="n" d="M182.73,384.55c.06-1.79,0-3.39-.15-4.85-.61-5.97-2.8-9.77-5.14-15.7"/><path class="n" d="M193.93,361.91c-3.89,7.09-4.04,9.87-6.27,18.25"/></g></svg>