<?xml version="1.0" encoding="UTF-8"?><svg xmlns="http://www.w3.org/2000/svg" viewBox="0 0 169.12 140.65"><defs><style>.f{fill:#cccac6;}.g{fill:#9fc9d3;}.h{fill:#e2e2e2;}.i{fill:#ff8585;}.j{fill:#8e8c87;}.k{fill:none;stroke:#3f2a25;stroke-linecap:round;stroke-linejoin:round;stroke-width:.5px;}.l{fill:#a09a9a;}.m{fill:#4f4a41;}.n{fill:#bcb7b7;}.o{fill:#e87979;}.p{fill:#bc7171;}</style></defs><g id="a"/><g id="b"><g><path class="p" d="M135.3,84.87c.52-.52,1.22-.83,1.99-.83h2.49c.09,.32,.13,.65,.13,1.02l.07,4.64h-2.69c-1.55,0-2.82-1.28-2.82-2.84,0-.77,.31-1.48,.83-1.99Z"/><path class="p" d="M139.98,89.7l.08,5.82c0,2.66-2.17,4.83-4.83,4.83h-13.48v-.23c0-4.26-2.87-7.84-6.77-8.93-.8-.23-1.64-.35-2.51-.35-5.13,0-9.29,4.15-9.29,9.28v.23h-33.65c-.1-4.19-2.99-7.7-6.88-8.74-.77-.2-1.57-.31-2.4-.31-5.05,0-9.17,4.04-9.29,9.05h-9.45c-2.65,0-4.82-2.17-4.82-4.83v-11.3h4.42c.77,0,1.49-.31,2-.82,.51-.53,.82-1.23,.82-2h93.82c1,.64,1.75,1.5,2.03,2.63h-2.49c-.77,0-1.47,.32-1.99,.84-.52,.51-.83,1.22-.83,1.99,0,1.56,1.27,2.84,2.82,2.84h2.69Z"/><path class="p" d="M116.71,100.12c0,2.33-1.88,4.22-4.2,4.24,1.76-1.98,2.67-4.66,2.93-7.26,.78,.76,1.27,1.84,1.27,3.02Z"/><path class="p" d="M121.75,100.35c-.12,5.02-4.24,9.05-9.28,9.05-2.18,0-4.19-.75-5.77-2.01,2.53-.35,4.43-1.48,5.81-3.03,2.32-.02,4.2-1.91,4.2-4.24,0-1.18-.49-2.26-1.27-3.02,.22-2.12,.02-4.2-.49-5.8l.03-.11c3.9,1.09,6.77,4.67,6.77,8.93v.23Z"/><path class="p" d="M108.23,100.12c0-2.34,1.9-4.24,4.24-4.24,1.16,0,2.2,.47,2.97,1.22-.26,2.6-1.17,5.28-2.93,7.26h-.04c-2.34,0-4.24-1.9-4.24-4.24Z"/><path class="p" d="M106.7,107.39c-2.09-1.65-3.45-4.18-3.52-7.04v-.23c0-5.13,4.16-9.28,9.29-9.28,.87,0,1.71,.12,2.51,.35l-.03,.11c.51,1.6,.71,3.68,.49,5.8-.77-.75-1.81-1.22-2.97-1.22-2.34,0-4.24,1.9-4.24,4.24s1.9,4.24,4.24,4.24h.04c-1.38,1.55-3.28,2.68-5.81,3.03Z"/><path class="p" d="M101.63,70.78l-24.17-.07v-.07l-.02-17.35c11.57,0,21.31,7.41,24.19,17.49Z"/><path class="p" d="M77.46,70.64v.07l-24.17-.07c2.93-10,12.63-17.35,24.15-17.35l.02,17.35Z"/><path class="p" d="M69.53,100.58c0,5.13-4.16,9.29-9.28,9.29-2.23,0-4.28-.79-5.88-2.1l.02-.03c2.48-.34,4.35-1.43,5.72-2.93,.05,.01,.09,.01,.14,.01,2.34,0,4.24-1.89,4.24-4.24,0-1.23-.52-2.34-1.36-3.11,.22-2.13,.02-4.21-.49-5.82v-.04c3.9,1.04,6.79,4.55,6.89,8.74v.23Z"/><path class="p" d="M60.11,104.81c1.82-1.99,2.75-4.7,3.02-7.34,.84,.77,1.36,1.88,1.36,3.11,0,2.35-1.9,4.24-4.24,4.24-.05,0-.09,0-.14-.01Z"/><path class="p" d="M63.13,97.47c-.27,2.64-1.2,5.35-3.02,7.34-2.28-.07-4.1-1.93-4.1-4.23s1.89-4.24,4.24-4.24c1.11,0,2.12,.43,2.88,1.13Z"/><path class="p" d="M54.37,107.77c-2.08-1.7-3.41-4.29-3.41-7.19v-.23c.12-5.01,4.24-9.05,9.29-9.05,.83,0,1.63,.11,2.4,.31v.04c.5,1.61,.7,3.69,.48,5.82-.76-.7-1.77-1.13-2.88-1.13-2.35,0-4.24,1.9-4.24,4.24s1.82,4.16,4.1,4.23c-1.37,1.5-3.24,2.59-5.72,2.93l-.02,.03Z"/><path class="p" d="M41.11,84.22h-4.42v-2.82h7.24c0,.77-.31,1.47-.82,2-.51,.51-1.23,.82-2,.82Z"/><path class="p" d="M43.93,81.4h-7.24v-2.83h4.42c1.56,0,2.82,1.26,2.82,2.83Z"/><path class="p" d="M41.11,78.57h-4.42v-.26c0-2.66,2.17-4.83,4.82-4.83l1.98-.1c4.29-14.69,18.54-25.47,35.46-25.47s31.29,10.88,35.51,25.67l20.63,6.65c.97,.29,1.89,.66,2.66,1.17H43.93c0-1.57-1.26-2.83-2.82-2.83Zm36.35-7.86l24.17,.07c-2.88-10.08-12.62-17.49-24.19-17.49s-21.22,7.35-24.15,17.35l24.17,.07Z"/></g></g><g id="c"><g><path class="h" d="M137.29,89.7c-1.55,0-2.82-1.28-2.82-2.84,0-.78,.31-1.48,.82-1.99s1.23-.84,2-.84h2.49c.09,.32,.13,.66,.13,1.03l.07,4.64h-2.69Z"/><path class="n" d="M43.93,81.39h93.82c1,.65,1.75,1.51,2.03,2.64h-2.49c-.77,0-1.48,.32-2,.84s-.82,1.21-.82,1.99c0,1.56,1.27,2.84,2.82,2.84h2.69l.08,5.82c0,2.66-2.17,4.83-4.83,4.83h-13.48v-.23c0-4.26-2.86-7.85-6.77-8.94-.8-.23-1.65-.35-2.52-.35-5.12,0-9.28,4.16-9.28,9.29v.23h-33.65c-.1-4.19-2.99-7.69-6.88-8.73-.77-.21-1.57-.32-2.41-.32-5.04,0-9.16,4.04-9.28,9.05h-9.45c-2.65,0-4.82-2.17-4.82-4.83v-11.3h4.41c.78,0,1.49-.32,2-.83,.51-.52,.83-1.22,.83-2Z"/><path class="m" d="M121.75,100.12v.23c-.12,5.01-4.24,9.05-9.29,9.05-2.18,0-4.18-.75-5.76-2.01,2.53-.35,4.42-1.48,5.79-3.03,2.34-.02,4.21-1.91,4.21-4.24,0-1.18-.48-2.25-1.26-3.02,.22-2.12,.02-4.19-.49-5.8l.03-.12c3.91,1.09,6.77,4.68,6.77,8.94Z"/><path class="f" d="M115.44,97.1c.78,.77,1.26,1.84,1.26,3.02,0,2.33-1.87,4.22-4.21,4.24,1.78-1.99,2.68-4.66,2.95-7.26Z"/><path class="j" d="M103.18,100.35v-.23c0-5.13,4.16-9.29,9.28-9.29,.87,0,1.72,.12,2.52,.35l-.03,.12c.51,1.61,.71,3.68,.49,5.8-.77-.75-1.82-1.22-2.98-1.22-2.34,0-4.24,1.9-4.24,4.24s1.9,4.24,4.24,4.24h.03c-1.37,1.55-3.26,2.68-5.79,3.03-2.09-1.66-3.45-4.19-3.52-7.04Z"/><path class="h" d="M112.46,95.88c1.16,0,2.21,.47,2.98,1.22-.27,2.6-1.17,5.27-2.95,7.26h-.03c-2.34,0-4.24-1.9-4.24-4.24s1.9-4.24,4.24-4.24Z"/><path class="g" d="M101.62,70.77l-24.16-.06v-.07l-.02-17.35c11.57,0,21.31,7.41,24.18,17.48Z"/><path class="g" d="M77.46,70.64v.07l-24.17-.07c2.92-10.01,12.63-17.35,24.15-17.35l.02,17.35Z"/><path class="m" d="M69.53,100.58c0,5.13-4.16,9.29-9.29,9.29-2.23,0-4.27-.79-5.87-2.1l.02-.03c2.47-.34,4.34-1.43,5.7-2.93,.05,.01,.1,.01,.15,.01,2.34,0,4.24-1.9,4.24-4.24,0-1.22-.52-2.33-1.35-3.1,.22-2.13,.02-4.22-.49-5.83v-.03c3.9,1.04,6.79,4.54,6.89,8.73v.23Z"/><path class="f" d="M64.48,100.58c0,2.34-1.9,4.24-4.24,4.24-.05,0-.1,0-.15-.01,1.83-1.99,2.76-4.69,3.04-7.33,.83,.77,1.35,1.88,1.35,3.1Z"/><path class="h" d="M63.13,97.48c-.28,2.64-1.21,5.34-3.04,7.33-2.27-.07-4.09-1.94-4.09-4.23s1.9-4.24,4.24-4.24c1.12,0,2.13,.44,2.89,1.14Z"/><path class="j" d="M60.09,104.81c-1.36,1.5-3.23,2.59-5.7,2.93l-.02,.03c-2.08-1.7-3.41-4.29-3.41-7.19v-.23c.12-5.01,4.24-9.05,9.28-9.05,.84,0,1.64,.11,2.41,.32v.03c.5,1.61,.7,3.7,.48,5.83-.76-.7-1.77-1.14-2.89-1.14-2.34,0-4.24,1.9-4.24,4.24s1.82,4.16,4.09,4.23Z"/><path class="i" d="M41.1,84.22h-4.41v-2.83h7.24c0,.78-.32,1.48-.83,2-.51,.51-1.22,.83-2,.83Z"/><path class="o" d="M41.1,78.57c1.56,0,2.83,1.26,2.83,2.82h-7.24v-2.82h4.41Z"/><path class="l" d="M41.1,78.57h-4.41v-.26c0-2.66,2.17-4.83,4.82-4.83l1.98-.1c4.29-14.69,18.54-25.47,35.46-25.47s31.29,10.88,35.51,25.67l20.63,6.65c.97,.29,1.88,.66,2.65,1.16H43.93c0-1.56-1.27-2.82-2.83-2.82Zm36.36-7.86l24.16,.06c-2.87-10.07-12.61-17.48-24.18-17.48s-21.23,7.34-24.15,17.35l24.17,.07Z"/></g></g><g id="d"><g id="e"/><path class="k" d="M43.47,73.38c4.29-14.69,18.54-25.47,35.46-25.47s31.29,10.88,35.51,25.67"/><path class="k" d="M114.44,73.58l20.63,6.65c2.24,.66,4.2,1.8,4.69,3.8,.09,.32,.13,.66,.13,1.03l.07,4.64,.08,5.82c0,2.66-2.17,4.83-4.83,4.83h-13.48"/><path class="k" d="M43.47,73.38l-1.98,.1c-2.65,0-4.82,2.17-4.82,4.83v17.21c0,2.66,2.17,4.83,4.82,4.83h9.45"/><line class="k" x1="103.17" y1="100.35" x2="69.51" y2="100.35"/><circle class="k" cx="60.23" cy="100.58" r="9.28"/><circle class="k" cx="112.45" cy="100.12" r="9.28"/><circle class="k" cx="60.23" cy="100.58" r="4.24"/><circle class="k" cx="112.45" cy="100.12" r="4.24"/><path class="k" d="M53.28,70.64c2.92-10,12.63-17.35,24.15-17.35s21.31,7.41,24.18,17.48"/><line class="k" x1="101.61" y1="70.77" x2="53.28" y2="70.64"/><line class="k" x1="53.28" y1="74.72" x2="59.36" y2="74.72"/><line class="k" x1="79.1" y1="74.72" x2="85.18" y2="74.72"/><line class="k" x1="77.43" y1="53.29" x2="77.44" y2="70.64"/><path class="k" d="M36.67,84.22h4.42c.78,0,1.49-.32,2-.83,.51-.52,.83-1.22,.83-2,0-1.56-1.27-2.83-2.83-2.83h-4.42"/><path class="k" d="M139.96,89.69h-2.68c-1.55,0-2.83-1.28-2.83-2.84,0-.78,.32-1.48,.83-1.99s1.22-.84,2-.84h2.49"/></g></svg>