<?xml version="1.0" encoding="UTF-8"?><svg xmlns="http://www.w3.org/2000/svg" viewBox="0 0 169.12 140.65"><defs><style>.f{fill:#ead0d0;}.g{fill:#fcb9b9;}.h{fill:#fff;}.i{fill:#6b3d34;}.j{fill:none;stroke:#3f2a25;stroke-linecap:round;stroke-linejoin:round;stroke-width:.5px;}.k{fill:#eab5a7;}.l{fill:#7f4d40;}.m{fill:#bc7171;}.n{fill:#824f46;}.o{fill:#eaa0a0;}.p{fill:#b27967;}.q{fill:#d17e75;}.r{fill:#935d51;}.s{fill:#e08f82;}</style></defs><g id="a"/><g id="b"><path class="m" d="M100.27,64.6c.91,6.47-7.6,11.11-15.64,11.11s-16.64-3.52-15.75-10.53c1.01-8.04,4.08-18.5,15.75-18.59,10.74-.08,14.51,9.97,15.64,18.01Z"/><path class="m" d="M88.96,47.18c1.85-3.02,4.12-8.81,5.62-15.71,1.84-8.46,6.19-13.29,8.43-12.97,3,.42,6.68,11.64,2.31,20.16-3.17,6.18-8.82,9.58-11.01,11.77"/><path class="m" d="M98.5,25.39c-1.05,3.84-1.68,7.78-1.86,12.7-.2,5.28-2.7,9-4.12,10.82"/><path class="m" d="M79.84,47.31c-1.56-3.18-2.95-8.49-3.78-15.49-1.03-8.6-4.9-13.82-7.16-13.71-3.03,.14-7.76,10.95-4.22,19.85,2.56,6.45,7.81,10.36,9.78,12.75"/><path class="m" d="M72.73,25.4c.68,3.92,.93,7.9,.64,12.82-.31,5.28,1.66,8.95,2.9,10.9"/><path class="m" d="M88.76,64.76c-.66-1.56,1.22-5.82,3.2-6.29,1.76-.42,4.37,2.86,3.58,5.05-.78,2.19-6.15,2.76-6.78,1.25Z"/><path class="m" d="M90.08,60.01c1.89-1.54,5.86,4.43,2,5.52"/><path class="m" d="M79.18,64.97c.55-1.6-1.59-5.73-3.6-6.08-1.79-.31-4.18,3.13-3.25,5.26,.92,2.13,6.31,2.36,6.85,.81Z"/><path class="m" d="M77.56,60.31c-1.98-1.42-5.57,4.79-1.65,5.64"/><path class="m" d="M80.14,57.57c.31-.21,.27-1.4-.53-1.77-.55-.25-1.29-.04-1.38,.3-.16,.57,1.48,1.77,1.91,1.47Z"/><path class="m" d="M88.06,57.03c-.17-.21,.2-1.05,.93-1.28,.56-.17,1.24,.04,1.27,.3,.06,.46-1.93,1.32-2.2,.98Z"/><path class="m" d="M83.68,67.11c.84-.05,1.37-.58,1.19-1.04-.14-.35-2.14-.08-2.33,.16-.21,.25,.5,.92,1.15,.88Z"/><path class="m" d="M80.58,69.13c.5,.82,2.47,.02,3.19-.03s2.93,.67,3.54-.35"/><path class="m" d="M83.7,69.11c.1-.7,.07-1.73,0-1.99"/><path class="m" d="M83.83,111.2c-.58,2.9,.31,11.02-.67,11.55-1.43,.78-2.95,.41-3.97-.04-1.23-.55-1.19-1.99-4.42-17.23-.9-4.25,.55-10.09,1.95-14.75h0"/><path class="m" d="M86.64,110.41c.35,.05,.96,.14,1.25,.28,1.2,.62,.57,11.18,1.6,11.77,1.48,.84,2.54,.57,4.05-.1,1.49-.66,2.54-9.7,3.33-17.22,.29-2.81,.11-5.26-.22-7.32"/><path class="m" d="M82.12,83.35c.08,7.01,2.25,10.86,4.06,14.26,1.36,2.56,2.5,4.4,2.36,5.98-.1,1.23-.28,3.27-.87,4.94-.19,.54-.42,1.03-.7,1.45h0c-.38,.57-.87,1-1.48,1.21-.53,.18-1.09,.16-1.65,0-.23-.06-.46-.14-.69-.24-1.93-.85-3.65-2.92-3.78-3.07-1.7-2.08-1.72-4.33-2.25-10.49-.22-2.49-.35-4.71-.39-6.67h0c-.14-6.31,.58-9.88,1.98-10.77,1.36-.86,4.09-1.31,4.59-2.21,.33-.6,.28-1.37,.13-2.07"/><path class="m" d="M86.18,97.62c2.19-3.59,5.61-5.7,7.02-7.05"/><path class="m" d="M87.67,108.54c.28,.02,.57,.03,.86,.02,1.2-.02,2.38-.27,2.78-.81,1.94-2.59,4.02-6.81,5.35-9.92,.74-1.74,1.24-3.14,1.35-3.71,.33-1.8-2.66-13.02-4.87-14.65-1.24-.92-3.84-1.06-4.24-2.08-.3-.76-.47-1.34-.47-2"/><path class="m" d="M90.45,82.9c.83,2.04,1.94,6.04,2.08,8.22"/><path class="m" d="M81.6,104.22c.14,2.56,.75,4.12,1.55,6.75"/><path class="m" d="M86.96,109.99c.02-.57,0-1.07-.05-1.54-.19-1.89-.89-3.09-1.63-4.97"/><path class="m" d="M90.51,102.82c-1.23,2.25-1.28,3.13-1.99,5.78"/><g><path class="m" d="M100.31,43.49c3.06-3.14,7.19-10.95,5.75-20.91h.02c1.49,4.12,1.97,10.63-.81,16.05-3.16,6.17-8.8,9.57-10.99,11.76-.55-.55-1.14-1.06-1.78-1.51,.17-.22,.36-.47,.56-.75,.21-.29,.43-.62,.66-.98l.09,.06c2.12,.48,2.67,.2,6.49-3.72Z"/><path class="m" d="M106.06,22.58c1.44,9.96-2.69,17.77-5.75,20.91-3.82,3.92-4.37,4.2-6.49,3.72l-.09-.06c1.31-2.06,2.74-5.13,2.89-9.08,.18-4.91,.8-8.85,1.86-12.69,.71-1.7,3.56-6.86,5.88-6,.64,.71,1.24,1.82,1.74,3.19h-.02Z"/><path class="m" d="M104.34,19.38c-2.32-.86-5.16,4.3-5.88,6-1.05,3.84-1.67,7.77-1.86,12.69-.15,3.95-1.58,7.02-2.89,9.08-.22,.36-.45,.68-.66,.98l-.03-.02c-2.77-.72-1-7.04-.17-10.3h0c.61-1.97,1.19-4.1,1.68-6.36,1.83-8.45,6.18-13.27,8.42-12.95,.46,.06,.92,.38,1.38,.89Z"/><path class="m" d="M100.14,63.85c.03,.23,.07,.46,.1,.68,.71,5.07-4.35,9.01-10.45,10.47,2.77-1.19,6.12-4.12,7.5-6.78,.11-.22,.22-.45,.31-.68,.21-.18,.33-.4,.3-.61,0-.04-.02-.08-.03-.12,1.51-4.72,.09-11.76-2.75-15.5,2.88,3.44,4.34,8.23,5.02,12.54Z"/><path class="m" d="M95.12,82.73c1.64,3.97,3.09,10,2.85,11.28-.1,.57-.6,1.96-1.34,3.7-.43,1.01-.94,2.13-1.49,3.27-1.16,2.39-2.54,4.89-3.85,6.64-.4,.54-1.58,.79-2.77,.81,.16-.62,.29-1.14,.41-1.6,2.65-1.6,6.73-9.71,6.95-12.82,.11-1.58,.7-7.08-.75-11.28Z"/><path class="m" d="M97.9,66.93c.03,.22-.09,.43-.3,.61,.1-.24,.19-.48,.27-.73,.02,.04,.03,.08,.03,.12Z"/><path class="m" d="M97.87,66.81c-.08,.25-.17,.49-.27,.73-.29,.26-.77,.46-1.33,.52-.96,.12-1.79-.2-1.86-.71-.06-.51,.67-1.02,1.63-1.14,.89-.11,1.66,.15,1.82,.59Z"/><path class="m" d="M95.17,60.73c.46,.89,.65,1.88,.35,2.72-.39,1.1-1.94,1.79-3.46,2.01h0c2.5-.71,1.7-3.47,.33-4.9,.97-.24,1.98-.19,2.78,.16Z"/><path class="m" d="M94.34,113.97c.02,.05,.03,.1,.03,.15,0,.09-.03,.19-.09,.28,.02-.14,.04-.29,.06-.43Z"/><path class="m" d="M94.34,113.97c-.02,.14-.04,.29-.06,.43h0c-.25,.38-.98,.66-1.84,.66-1.07,0-1.93-.42-1.93-.93s.86-.93,1.93-.93c.96,0,1.75,.34,1.9,.78Z"/><path class="m" d="M95.17,60.73c-.81-.35-1.81-.4-2.78-.16-.75-.77-1.66-1.16-2.32-.62,.55-.78,1.21-1.37,1.88-1.53,1.09-.26,2.49,.89,3.23,2.32Z"/><path class="m" d="M92.39,60.57c1.38,1.43,2.17,4.19-.33,4.89h0c-1.51,.22-3-.01-3.31-.77-.03-.06-.05-.13-.07-.21h0c.37-2.19,2-3.5,3.71-3.92Z"/><path class="m" d="M92.5,48.87c-1.05-.74-2.24-1.33-3.56-1.74,1.24-2.02,2.68-5.3,3.93-9.33-.83,3.26-2.61,9.57,.17,10.3l.03,.02c-.2,.28-.39,.53-.56,.75Z"/><path class="m" d="M90.8,83.8c.76,2.16,1.59,5.35,1.71,7.21l.02,.02c-.44,.37-.98,.78-1.56,1.26,.22-.24,.42-.59,.5-1.28,.33-2.64-.46-6.55-.67-7.21Z"/><path class="m" d="M90.92,122.82c1.69-.11,2.74-3.88,3.37-8.42h0c.05-.09,.09-.18,.09-.28,0-.05,0-.1-.03-.15,.61-4.63,.79-9.96,.79-12.98,.56-1.14,1.07-2.26,1.49-3.27,.32,2.06,.51,4.51,.22,7.31-.79,7.51-1.83,16.54-3.33,17.2-.97,.43-1.76,.69-2.6,.6h0Z"/><path class="m" d="M90.06,59.95c.66-.53,1.58-.15,2.32,.62-1.71,.42-3.34,1.74-3.71,3.92-.28-1.1,.37-3.12,1.38-4.54h0Z"/><path class="m" d="M90.58,92.61l-.37,.31c.12-.12,.24-.22,.37-.31Z"/><path class="m" d="M90.24,55.99c.06,.46-1.93,1.32-2.2,.98-.17-.22,.2-1.06,.93-1.28,.56-.17,1.23,.04,1.27,.3Z"/><path class="m" d="M83.49,64.98c1.4,0,3.17-.84,3.17-1.38,0-.68-5.74-.02-5.81,.65-.04,.5,1.46,.73,2.64,.73Zm.18,2.07c.83-.05,1.37-.58,1.19-1.04-.05-.12-.34-.17-.69-.17-.64,0-1.52,.17-1.64,.32-.17,.21,.29,.71,.82,.85,.11,.03,.22,.04,.33,.03Zm-9.17-16.4c.54-.57,1.13-1.09,1.78-1.56,.19-.14,.38-.27,.58-.4,.03-.02,.06-.03,.09-.05,.87-.55,1.83-1.01,2.9-1.35,1.41-.45,2.99-.71,4.78-.72,1.59-.01,3.02,.2,4.32,.59,1.33,.4,2.51,.99,3.56,1.74,.64,.45,1.23,.96,1.78,1.51,.29,.3,.58,.61,.84,.93,2.83,3.74,4.26,10.78,2.75,15.5-.17-.44-.94-.7-1.82-.59-.96,.12-1.69,.63-1.63,1.14,.06,.51,.89,.83,1.86,.71,.56-.07,1.04-.27,1.33-.52-.09,.23-.2,.46-.31,.68-1.38,2.66-4.73,5.59-7.5,6.78h0c-.45,.11-.9,.2-1.35,.28-1.26,.22-2.54,.34-3.81,.34-.4,0-.8,0-1.21-.03-6.7-.29-13.44-3.01-14.45-8.15-.15-.73-.17-1.51-.07-2.34,.04-.29,.08-.58,.12-.88,.67-4.69,2.09-10.02,5.49-13.6Zm21.02,12.81c.3-.83,.1-1.83-.35-2.72-.73-1.43-2.14-2.58-3.23-2.32-.67,.16-1.33,.76-1.88,1.53h0c-1.01,1.42-1.66,3.44-1.38,4.54h0c.02,.08,.04,.15,.07,.21,.32,.75,1.8,.99,3.31,.77,1.52-.23,3.07-.92,3.46-2.01Zm-7.48-6.48c.28,.34,2.26-.52,2.2-.98-.03-.26-.71-.47-1.27-.3-.74,.22-1.1,1.06-.93,1.28Zm-7.91,.54c.31-.22,.27-1.4-.53-1.77-.55-.25-1.29-.03-1.38,.3-.16,.57,1.48,1.76,1.91,1.47Zm-.96,7.4c.36-1.06-.45-3.21-1.61-4.65-.6-.74-1.3-1.3-1.98-1.42-1.06-.18-2.32,.95-2.99,2.34h0c-.46,.96-.64,2.05-.26,2.92,.46,1.07,2.05,1.66,3.58,1.79,1.52,.12,2.99-.21,3.26-.98Zm-4.65,3.43c0-.52-.78-.93-1.76-.93s-1.76,.42-1.76,.93,.79,.93,1.76,.93,1.76-.41,1.76-.93Z"/><path class="m" d="M88.93,106.83c-.12,.46-.25,.99-.41,1.6-.29,0-.58,0-.86-.02,.15-.42,.27-.86,.37-1.31,.27,.02,.58-.08,.9-.28Z"/><path class="m" d="M88.51,108.43c1.2-.02,2.37-.27,2.77-.81,1.31-1.75,2.68-4.24,3.85-6.64,0,3.03-.19,8.35-.79,12.98-.15-.44-.95-.78-1.9-.78-1.07,0-1.93,.42-1.93,.93s.86,.93,1.93,.93c.86,0,1.59-.28,1.84-.65-.63,4.54-1.68,8.31-3.37,8.42h0c-.46-.05-.93-.21-1.45-.5-1.03-.59-.4-11.14-1.6-11.76-.28-.15-.9-.24-1.25-.28,.11-.13,.22-.27,.32-.41h0c.28-.42,.51-.91,.7-1.45,.28,.02,.57,.03,.86,.02Z"/><path class="m" d="M88.53,76.22c-.93,.87-4.11,.98-5,.23h0c0-.28-.05-.57-.11-.84h0c.4,.02,.81,.03,1.21,.03,1.27,0,2.55-.12,3.81-.34,0,.31,.04,.61,.1,.93Z"/><path class="m" d="M86.9,108.33c.05,.46,.07,.97,.05,1.53-.1,.15-.21,.29-.32,.41-.32,.36-.71,.64-1.15,.79-.35,.12-.71,.15-1.07,.11,1.35-.86,1.8-3.09,1.87-5.39,.3,.79,.53,1.57,.63,2.54Z"/><path class="m" d="M80.85,64.24c.06-.66,5.8-1.33,5.81-.65,0,.53-1.76,1.38-3.17,1.38-1.18,0-2.69-.24-2.64-.73Z"/><path class="m" d="M84.86,66c.18,.46-.35,.99-1.19,1.04-.11,0-.22,0-.33-.03,.79-.03,.97-.9,.83-1.17,.35,0,.64,.04,.69,.17Z"/><path class="m" d="M84.17,65.84c.14,.27-.04,1.14-.83,1.17-.53-.14-.99-.64-.82-.85,.12-.15,1-.32,1.64-.32Z"/><path class="m" d="M90.21,92.93l.37-.31c-.13,.09-.25,.19-.37,.31Zm2.32-1.9l-.02-.02c-.12-1.86-.95-5.05-1.71-7.21,.2,.66,1,4.57,.67,7.21-.09,.69-.28,1.04-.5,1.28-.12,.1-.25,.2-.38,.31,.13-.09,.26-.18,.38-.31,.58-.48,1.12-.9,1.56-1.26Zm-6.36,6.47c-1.27-2.4-2.73-5.03-3.5-8.82h-.04c0,7.35,3.14,9.66,3.51,13.58,.1,1.06,.17,2.3,.13,3.52-.07,2.3-.52,4.54-1.87,5.39-.19-.02-.38-.05-.58-.1-.23-.06-.46-.14-.68-.24h0c-.26-.12-.52-.25-.77-.41-1.6-.97-2.89-2.53-3-2.65-1.7-2.08-1.71-4.32-2.25-10.48-.22-2.48-.34-4.7-.39-6.66h0c-.14-6.3,.58-9.87,1.97-10.75,1.35-.85,4.09-1.31,4.58-2.21,.2-.36,.26-.79,.24-1.22h0c.89,.75,4.07,.64,5-.23,.08,.34,.19,.7,.34,1.08,.4,1.02,2.99,1.16,4.23,2.08,.64,.47,1.34,1.74,2.01,3.35,1.45,4.2,.86,9.7,.75,11.28-.22,3.11-4.3,11.21-6.95,12.82-.33,.2-.63,.3-.9,.28,.3-1.33,.42-2.71,.5-3.63,.14-1.57-1-3.42-2.36-5.97Z"/><path class="m" d="M82.66,88.68c.77,3.8,2.23,6.42,3.5,8.82,1.36,2.56,2.5,4.4,2.36,5.97-.08,.92-.2,2.29-.5,3.63-.1,.45-.22,.89-.37,1.31-.19,.53-.42,1.03-.7,1.45h0c.02-.57,0-1.07-.05-1.53-.1-.97-.33-1.76-.63-2.54,.04-1.22-.03-2.46-.13-3.52-.37-3.92-3.51-6.23-3.51-13.57h.04Z"/><path class="m" d="M83.14,110.83c.23,.1,.45,.18,.68,.24-.58,2.9,.31,11.01-.66,11.53-.96,.52-1.97,.53-2.83,.34,2.58,.12,2.06-9.17,2.03-12.52,.25,.15,.51,.29,.77,.41h0Z"/><path class="m" d="M80.11,115.41c1.02,0,1.85-.42,1.85-.93s-.83-.93-1.85-.93-1.85,.42-1.85,.93,.83,.93,1.85,.93Zm2.25-4.99c.03,3.35,.55,12.63-2.03,12.52-.42-.09-.8-.23-1.13-.38-1.23-.55-1.19-1.99-4.42-17.2-.9-4.25,.55-10.08,1.95-14.73,.04,1.95,.17,4.17,.39,6.66,.53,6.16,.55,8.4,2.25,10.48,.1,.13,1.4,1.69,3,2.65Z"/><ellipse class="m" cx="80.11" cy="114.48" rx="1.85" ry=".93"/><path class="m" d="M79.61,55.74c.8,.37,.83,1.55,.53,1.77-.43,.3-2.07-.9-1.91-1.47,.09-.34,.83-.55,1.38-.3Z"/><path class="m" d="M77.56,60.25c1.17,1.44,1.98,3.6,1.61,4.65-.38-2.22-2.1-3.54-3.86-3.92,.69-.8,1.57-1.22,2.25-.73Z"/><path class="m" d="M75.31,60.98c1.77,.39,3.49,1.7,3.86,3.92-.27,.77-1.74,1.1-3.26,.98h0c-2.56-.55-1.91-3.4-.61-4.9Z"/><path class="m" d="M77.56,60.25c-.68-.49-1.56-.07-2.25,.73-.96-.21-1.93-.15-2.71,.2,.66-1.39,1.93-2.52,2.99-2.34,.68,.12,1.38,.67,1.98,1.42Z"/><path class="m" d="M75.92,65.88h0c-1.53-.13-3.12-.71-3.58-1.78-.38-.87-.2-1.96,.26-2.92h0c.78-.34,1.76-.4,2.71-.2-1.31,1.51-1.95,4.35,.61,4.9Z"/><path class="m" d="M76.06,31.8c.83,7,2.22,12.3,3.78,15.47-1.07,.34-2.03,.8-2.9,1.35,.95-.79-1.11-6.42-1.52-15.85-.1-2.16-.77-6.84-2.17-10.1l.19-.1c1.18,2.31,2.18,5.44,2.63,9.22Z"/><path class="m" d="M72.77,67.4c.97,0,1.76,.42,1.76,.93s-.78,.93-1.76,.93-1.76-.41-1.76-.93,.79-.93,1.76-.93Z"/><path class="m" d="M73.27,29.71c.38,4.18-1.39,11.29-.38,14.85,.29,1.01,1.39,4.54,1.02,5.42-2.29-2.43-6.88-6.2-9.21-12.06-3.26-8.19,.51-18.02,3.49-19.6,2.51,.56,4.39,5.45,4.55,7.07,.25,1.42,.44,2.84,.56,4.32h-.03Z"/><path class="m" d="M76.28,49.07c-.65,.47-1.24,1-1.78,1.56-.17-.21-.37-.42-.59-.65,.37-.89-.73-4.42-1.02-5.42-1.01-3.56,.76-10.66,.38-14.85h.03c.22,2.6,.26,5.35,.08,8.49-.3,5.27,1.66,8.94,2.9,10.88Z"/><path class="m" d="M76.85,48.68c-.2,.13-.39,.26-.58,.4-1.24-1.94-3.2-5.61-2.9-10.88,.18-3.13,.15-5.89-.08-8.49-.13-1.47-.32-2.9-.56-4.32-.16-1.61-2.04-6.51-4.55-7.07,.25-.13,.49-.21,.73-.22,1.26-.06,3.02,1.55,4.51,4.47l-.19,.1c1.4,3.26,2.07,7.94,2.17,10.1,.41,9.43,2.47,15.06,1.52,15.85-.03,.02-.05,.04-.09,.05Z"/></g><circle class="m" cx="91.45" cy="60.86" r=".29"/><circle class="m" cx="76.18" cy="61.38" r=".29"/></g><g id="c"><path class="j" d="M100.27,64.6c.91,6.47-7.6,11.11-15.64,11.11s-16.64-3.52-15.75-10.53c1.01-8.04,4.08-18.5,15.75-18.59,10.74-.08,14.51,9.97,15.64,18.01Z"/><path class="j" d="M88.96,47.18c1.85-3.02,4.12-8.81,5.62-15.71,1.84-8.46,6.19-13.29,8.43-12.97,3,.42,6.68,11.64,2.31,20.16-3.17,6.18-8.82,9.58-11.01,11.77"/><path class="j" d="M98.5,25.39c-1.05,3.84-1.68,7.78-1.86,12.7-.2,5.28-2.7,9-4.12,10.82"/><path class="j" d="M79.84,47.31c-1.56-3.18-2.95-8.49-3.78-15.49-1.03-8.6-4.9-13.82-7.16-13.71-3.03,.14-7.76,10.95-4.22,19.85,2.56,6.45,7.81,10.36,9.78,12.75"/><path class="j" d="M72.73,25.4c.68,3.92,.93,7.9,.64,12.82-.31,5.28,1.66,8.95,2.9,10.9"/><path class="j" d="M88.76,64.76c-.66-1.56,1.22-5.82,3.2-6.29,1.76-.42,4.37,2.86,3.58,5.05-.78,2.19-6.15,2.76-6.78,1.25Z"/><path class="j" d="M90.08,60.01c1.89-1.54,5.86,4.43,2,5.52"/><path class="j" d="M79.18,64.97c.55-1.6-1.59-5.73-3.6-6.08-1.79-.31-4.18,3.13-3.25,5.26,.92,2.13,6.31,2.36,6.85,.81Z"/><path class="j" d="M77.56,60.31c-1.98-1.42-5.57,4.79-1.65,5.64"/><path class="j" d="M80.14,57.57c.31-.21,.27-1.4-.53-1.77-.55-.25-1.29-.04-1.38,.3-.16,.57,1.48,1.77,1.91,1.47Z"/><path class="j" d="M88.06,57.03c-.17-.21,.2-1.05,.93-1.28,.56-.17,1.24,.04,1.27,.3,.06,.46-1.93,1.32-2.2,.98Z"/><path class="j" d="M83.68,67.11c.84-.05,1.37-.58,1.19-1.04-.14-.35-2.14-.08-2.33,.16-.21,.25,.5,.92,1.15,.88Z"/><path class="j" d="M80.58,69.13c.5,.82,2.47,.02,3.19-.03s2.93,.67,3.54-.35"/><path class="j" d="M83.7,69.11c.1-.7,.07-1.73,0-1.99"/><path class="j" d="M69,64.3c-3.98-1.61-9.22-1.86-12.82-.97"/><path class="j" d="M58.79,69.14c3.55-1.25,7.14-1.86,10.15-1.61"/><path class="j" d="M100.32,63.92c3.98-1.61,9.05-1.85,12.65-.96"/><path class="j" d="M110.34,68.77c-3.55-1.25-7.14-1.86-10.15-1.61"/><path class="j" d="M83.83,111.2c-.58,2.9,.31,11.02-.67,11.55-1.43,.78-2.95,.41-3.97-.04-1.23-.55-1.19-1.99-4.42-17.23-.9-4.25,.55-10.09,1.95-14.75h0"/><path class="j" d="M86.64,110.41c.35,.05,.96,.14,1.25,.28,1.2,.62,.57,11.18,1.6,11.77,1.48,.84,2.54,.57,4.05-.1,1.49-.66,2.54-9.7,3.33-17.22,.29-2.81,.11-5.26-.22-7.32"/><path class="j" d="M82.12,83.35c.08,7.01,2.25,10.86,4.06,14.26,1.36,2.56,2.5,4.4,2.36,5.98-.1,1.23-.28,3.27-.87,4.94-.19,.54-.42,1.03-.7,1.45h0c-.38,.57-.87,1-1.48,1.21-.53,.18-1.09,.16-1.65,0-.23-.06-.46-.14-.69-.24-1.93-.85-3.65-2.92-3.78-3.07-1.7-2.08-1.72-4.33-2.25-10.49-.22-2.49-.35-4.71-.39-6.67h0c-.14-6.31,.58-9.88,1.98-10.77,1.36-.86,4.09-1.31,4.59-2.21,.33-.6,.28-1.37,.13-2.07"/><path class="j" d="M86.18,97.62c2.19-3.59,5.61-5.7,7.02-7.05"/><path class="j" d="M87.67,108.54c.28,.02,.57,.03,.86,.02,1.2-.02,2.38-.27,2.78-.81,1.94-2.59,4.02-6.81,5.35-9.92,.74-1.74,1.24-3.14,1.35-3.71,.33-1.8-2.66-13.02-4.87-14.65-1.24-.92-3.84-1.06-4.24-2.08-.3-.76-.47-1.34-.47-2"/><path class="j" d="M90.45,82.9c.83,2.04,1.94,6.04,2.08,8.22"/><path class="j" d="M81.6,104.22c.14,2.56,.75,4.12,1.55,6.75"/><path class="j" d="M86.96,109.99c.02-.57,0-1.07-.05-1.54-.19-1.89-.89-3.09-1.63-4.97"/><path class="j" d="M90.51,102.82c-1.23,2.25-1.28,3.13-1.99,5.78"/><g><path class="o" d="M100.31,43.49c3.06-3.14,7.19-10.95,5.75-20.91h.02c1.49,4.11,1.98,10.63-.8,16.05-3.16,6.17-8.81,9.57-10.99,11.76-.55-.55-1.14-1.06-1.78-1.51,.17-.22,.36-.47,.56-.75,.21-.29,.43-.62,.66-.98l.09,.06c2.12,.48,2.67,.2,6.49-3.72Z"/><path class="g" d="M106.06,22.57c1.45,9.96-2.69,17.77-5.75,20.91-3.82,3.92-4.37,4.2-6.49,3.72l-.09-.06c1.31-2.06,2.74-5.13,2.89-9.08,.18-4.92,.8-8.85,1.86-12.69,.71-1.7,3.56-6.86,5.87-6,.64,.71,1.24,1.82,1.73,3.18h-.02Z"/><path class="p" d="M104.34,19.38c-2.32-.86-5.16,4.3-5.87,6-1.05,3.84-1.68,7.77-1.86,12.69-.15,3.95-1.58,7.02-2.89,9.08-.23,.36-.45,.68-.66,.98l-.03-.02c-2.77-.72-.99-7.05-.16-10.3h0c.61-1.96,1.19-4.1,1.68-6.35,1.84-8.45,6.19-13.27,8.42-12.95,.46,.06,.92,.38,1.38,.89Z"/><path class="r" d="M100.14,63.85c.03,.23,.07,.46,.1,.68,.71,5.07-4.36,9.01-10.45,10.47,2.77-1.19,6.13-4.12,7.5-6.78,.11-.22,.22-.45,.31-.68,.21-.18,.33-.4,.3-.61,0-.04-.02-.08-.03-.12,1.51-4.71,.09-11.74-2.73-15.48,2.87,3.44,4.32,8.22,5,12.53Z"/><path class="r" d="M95.11,82.7c1.65,3.96,3.1,10.03,2.87,11.31-.1,.57-.6,1.96-1.34,3.7-.43,1.01-.94,2.13-1.49,3.27-1.16,2.39-2.54,4.89-3.85,6.64-.4,.54-1.58,.79-2.77,.81,.16-.62,.29-1.14,.41-1.6,2.65-1.6,6.73-9.71,6.95-12.82,.11-1.58,.71-7.1-.76-11.31Z"/><path class="p" d="M90.06,59.95c-1.01,1.42-1.66,3.45-1.38,4.54,.02,.07,.04,.14,.07,.21,.32,.75,1.8,.99,3.31,.77,1.52-.22,3.06-.92,3.46-2.01,.3-.83,.1-1.83-.35-2.72-.73-1.43-2.14-2.58-3.23-2.32-.67,.16-1.33,.76-1.88,1.53Zm-15.57-9.31c.54-.57,1.13-1.09,1.78-1.56,.21-.15,.43-.3,.66-.45,.87-.55,1.84-1.01,2.91-1.36,1.41-.45,3-.71,4.78-.72,1.59-.01,3.02,.2,4.32,.59,1.33,.4,2.51,.99,3.56,1.73,.64,.45,1.23,.96,1.78,1.51,.29,.3,.58,.61,.84,.93,0,0,0,0,.01,.02,2.82,3.74,4.24,10.77,2.73,15.48-.17-.44-.94-.7-1.82-.59-.96,.12-1.69,.63-1.63,1.14,.06,.51,.89,.83,1.85,.71,.56-.07,1.04-.27,1.33-.52-.09,.23-.2,.46-.31,.68-1.38,2.66-4.73,5.59-7.5,6.78h0c-.45,.11-.9,.2-1.35,.28-1.26,.22-2.54,.34-3.81,.34-.4,0-.8,0-1.21-.03-6.7-.29-13.44-3.01-14.46-8.15-.15-.73-.17-1.51-.07-2.34,.04-.29,.08-.58,.12-.88,.67-4.69,2.09-10.02,5.49-13.6Zm13.55,6.33c.27,.34,2.26-.52,2.2-.98-.03-.26-.71-.47-1.27-.3-.73,.22-1.1,1.06-.93,1.27Zm-1.39,6.63c0-.68-5.74-.02-5.8,.65-.05,.5,1.46,.73,2.64,.73,1.4,0,3.17-.84,3.17-1.38Zm-2.99,3.44c.83-.05,1.37-.58,1.19-1.04-.05-.12-.33-.17-.69-.17-.64,0-1.52,.17-1.64,.32-.17,.21,.28,.71,.82,.85h0c.11,.03,.22,.04,.33,.03Zm-3.54-9.53c.31-.22,.27-1.4-.52-1.77-.55-.25-1.29-.03-1.38,.3-.16,.57,1.48,1.76,1.91,1.47Zm-.96,7.4c.36-1.06-.44-3.21-1.61-4.65-.6-.74-1.3-1.3-1.98-1.42-1.06-.18-2.32,.95-2.99,2.34-.46,.96-.64,2.05-.26,2.92,.46,1.07,2.04,1.65,3.57,1.78h0c1.52,.13,2.99-.2,3.26-.97Zm-4.65,3.43c0-.52-.79-.93-1.76-.93s-1.76,.42-1.76,.93,.78,.93,1.76,.93,1.76-.41,1.76-.93Z"/><path class="q" d="M97.9,66.93c.03,.22-.09,.43-.3,.61,.1-.24,.19-.48,.27-.73,.02,.04,.03,.08,.03,.12Z"/><path class="s" d="M97.87,66.81c-.08,.25-.17,.5-.27,.73-.29,.26-.77,.46-1.33,.52-.96,.12-1.79-.2-1.85-.71-.06-.51,.67-1.02,1.63-1.14,.88-.11,1.65,.15,1.82,.59Z"/><path class="r" d="M96.63,97.71c.32,2.06,.51,4.51,.22,7.31-.79,7.51-1.83,16.54-3.33,17.2-.97,.43-1.76,.69-2.6,.6h0c1.69-.11,2.73-3.88,3.36-8.42h0c.05-.09,.09-.18,.09-.28,0-.05,0-.1-.03-.15,.61-4.63,.8-9.96,.8-12.98,.56-1.14,1.07-2.26,1.49-3.27Z"/><path class="p" d="M92.53,91.03l-.02-.02c-.12-1.86-.95-5.05-1.71-7.21,.2,.66,1,4.57,.67,7.21-.09,.7-.28,1.05-.51,1.29-.11,.09-.23,.19-.35,.29,.12-.09,.24-.17,.35-.29,.59-.48,1.12-.9,1.57-1.27Zm-9.39,19.79c-.26-.12-.52-.25-.77-.41-1.59-.97-2.89-2.53-3-2.65-1.7-2.08-1.71-4.32-2.25-10.48-.22-2.48-.34-4.7-.39-6.66h0c-.14-6.3,.58-9.87,1.97-10.75,1.35-.85,4.09-1.31,4.58-2.21,.2-.36,.26-.79,.24-1.22,.89,.75,4.08,.64,5.01-.23,.08,.34,.19,.7,.34,1.09,.4,1.02,2.99,1.16,4.23,2.08,.63,.47,1.33,1.72,2,3.32,1.47,4.2,.88,9.72,.76,11.31-.22,3.11-4.3,11.22-6.95,12.82-.33,.2-.63,.29-.9,.28,.3-1.33,.42-2.71,.5-3.63,.14-1.57-1-3.42-2.36-5.97-1.27-2.4-2.73-5.03-3.5-8.82h-.03c0,7.35,3.14,9.66,3.51,13.58,.1,1.06,.17,2.29,.13,3.51-.07,2.3-.52,4.54-1.87,5.4-.19-.02-.38-.05-.58-.1-.23-.06-.46-.14-.69-.24Z"/><path class="h" d="M95.17,60.73c.46,.89,.65,1.88,.35,2.72-.4,1.1-1.94,1.79-3.46,2.01h0c2.5-.71,1.71-3.47,.33-4.9,.97-.24,1.98-.19,2.78,.16Z"/><path class="p" d="M88.51,108.43h0c1.2-.02,2.37-.27,2.77-.81,1.31-1.75,2.68-4.24,3.85-6.64,0,3.03-.19,8.35-.8,12.98-.15-.44-.95-.78-1.9-.78-1.06,0-1.93,.42-1.93,.93s.86,.93,1.93,.93c.86,0,1.59-.28,1.84-.65-.63,4.54-1.67,8.31-3.36,8.42h0c-.46-.05-.93-.21-1.45-.5-1.03-.59-.4-11.14-1.6-11.76-.28-.15-.9-.24-1.24-.28,.11-.13,.22-.27,.32-.41h0c.28-.42,.51-.91,.7-1.45,.28,.02,.57,.03,.86,.02Z"/><path class="n" d="M94.34,113.97c.02,.05,.03,.1,.03,.15,0,.09-.03,.19-.09,.28,.02-.14,.04-.29,.06-.43Z"/><path class="r" d="M94.34,113.97c-.02,.14-.04,.29-.06,.43h0c-.25,.38-.98,.66-1.84,.66-1.06,0-1.93-.42-1.93-.93s.86-.93,1.93-.93c.96,0,1.75,.34,1.9,.78Z"/><path class="f" d="M95.17,60.73c-.81-.35-1.81-.4-2.78-.16-.74-.77-1.66-1.16-2.32-.62,.55-.78,1.21-1.37,1.88-1.53,1.09-.26,2.49,.89,3.23,2.32Z"/><path class="r" d="M93.04,48.1l.03,.02c-.2,.28-.39,.53-.56,.75-1.05-.74-2.23-1.33-3.56-1.73h0c1.24-2.03,2.67-5.31,3.93-9.34h0c-.83,3.26-2.61,9.58,.16,10.3Z"/><path class="r" d="M92.51,91.01l.02,.02c-.45,.37-.98,.79-1.57,1.27,.23-.24,.42-.59,.51-1.29,.34-2.64-.46-6.55-.67-7.21,.76,2.16,1.59,5.35,1.71,7.21Z"/><path class="l" d="M92.38,60.57c1.38,1.43,2.17,4.19-.33,4.89h0c-1.51,.22-3-.01-3.31-.77-.03-.06-.05-.13-.07-.21,.37-2.18,2-3.5,3.7-3.92Z"/><path class="i" d="M90.06,59.95c.66-.53,1.58-.15,2.32,.62-1.71,.42-3.33,1.74-3.7,3.92-.28-1.1,.37-3.12,1.38-4.54Z"/><path class="k" d="M90.24,55.99c.06,.46-1.93,1.32-2.2,.98-.17-.21,.2-1.05,.93-1.27,.56-.17,1.24,.04,1.27,.3Z"/><path class="r" d="M88.92,106.83c-.12,.46-.24,.99-.41,1.6h0c-.29,0-.58,0-.86-.02,.15-.42,.27-.86,.37-1.31,.27,.02,.57-.08,.9-.28Z"/><path class="r" d="M88.03,107.1c-.1,.45-.22,.89-.37,1.31-.19,.53-.42,1.03-.7,1.45h0c.02-.57,0-1.07-.05-1.53-.1-.97-.33-1.76-.63-2.55,.04-1.22-.03-2.46-.13-3.51-.37-3.92-3.51-6.23-3.51-13.57h.03c.77,3.79,2.23,6.42,3.5,8.82,1.36,2.56,2.5,4.4,2.36,5.97-.08,.92-.2,2.29-.5,3.63Z"/><path class="r" d="M88.43,75.29c0,.3,.04,.61,.1,.92-.93,.88-4.12,.98-5.01,.23,0-.28-.05-.57-.11-.84h0c.4,.02,.81,.03,1.21,.03,1.27,0,2.55-.12,3.81-.34Z"/><path class="r" d="M86.9,108.33c.05,.46,.07,.97,.05,1.53-.1,.15-.21,.29-.32,.41-.32,.36-.71,.64-1.15,.79-.35,.12-.71,.15-1.07,.11,1.35-.86,1.8-3.1,1.87-5.4,.3,.79,.53,1.58,.63,2.55Z"/><path class="r" d="M80.85,64.24c.06-.66,5.8-1.33,5.8-.65,0,.53-1.76,1.38-3.17,1.38-1.17,0-2.69-.24-2.64-.73Z"/><path class="o" d="M84.85,66c.19,.46-.35,.99-1.19,1.04-.11,0-.22,0-.33-.03,.79-.04,.96-.9,.83-1.17,.35,0,.64,.04,.69,.17Z"/><path class="g" d="M84.17,65.84c.14,.27-.04,1.13-.83,1.17h0c-.53-.14-.99-.64-.82-.85,.12-.15,1-.32,1.64-.32Z"/><path class="r" d="M83.83,111.07c-.58,2.9,.31,11.01-.66,11.53-.96,.52-1.97,.53-2.83,.34,2.58,.12,2.06-9.17,2.03-12.52,.25,.15,.51,.29,.77,.41,.23,.1,.46,.18,.69,.24Z"/><path class="p" d="M82.37,110.42c.03,3.35,.55,12.63-2.03,12.52-.42-.09-.8-.23-1.13-.38-1.23-.55-1.19-1.99-4.42-17.2-.9-4.25,.55-10.08,1.95-14.73,.04,1.95,.17,4.17,.39,6.66,.53,6.16,.55,8.4,2.25,10.48,.1,.13,1.4,1.69,3,2.65Zm-.4,4.06c0-.52-.83-.93-1.85-.93s-1.85,.42-1.85,.93,.83,.93,1.85,.93,1.85-.42,1.85-.93Z"/><ellipse class="r" cx="80.11" cy="114.48" rx="1.85" ry=".93"/><path class="k" d="M79.61,55.74c.79,.37,.83,1.55,.52,1.77-.43,.3-2.07-.9-1.91-1.47,.09-.34,.83-.55,1.38-.3Z"/><path class="i" d="M77.56,60.25c1.17,1.44,1.98,3.6,1.61,4.65-.38-2.22-2.09-3.54-3.86-3.92,.69-.8,1.57-1.22,2.25-.73Z"/><path class="r" d="M76.06,31.8c.83,7,2.22,12.3,3.78,15.47-1.07,.34-2.03,.81-2.91,1.36,.95-.78-1.1-6.41-1.52-15.85-.09-2.16-.77-6.84-2.17-10.1l.19-.09c1.18,2.31,2.18,5.44,2.63,9.22Z"/><path class="p" d="M76.94,48.63c-.23,.14-.45,.29-.66,.45-1.24-1.94-3.2-5.61-2.9-10.88,.18-3.11,.15-5.85-.07-8.43-.13-1.49-.32-2.94-.57-4.37-.16-1.61-2.03-6.51-4.55-7.07,.25-.13,.49-.21,.73-.22,1.26-.06,3.02,1.55,4.51,4.48l-.19,.09c1.4,3.26,2.07,7.94,2.17,10.1,.42,9.44,2.47,15.07,1.52,15.85Z"/><path class="f" d="M77.56,60.25c-.68-.49-1.56-.07-2.25,.73-.96-.21-1.94-.15-2.72,.2,.67-1.39,1.93-2.52,2.99-2.34,.68,.12,1.38,.67,1.98,1.42Z"/><path class="l" d="M79.17,64.91c-.27,.77-1.74,1.1-3.26,.97h0c-2.55-.56-1.9-3.4-.59-4.9,1.77,.39,3.49,1.7,3.86,3.92Z"/><path class="o" d="M76.28,49.07c-.65,.47-1.24,.99-1.78,1.56-.17-.21-.37-.43-.59-.66,.37-.89-.73-4.42-1.02-5.42-1.01-3.54,.74-10.6,.39-14.79h.03c.22,2.58,.25,5.32,.07,8.43-.31,5.27,1.66,8.94,2.9,10.88Z"/><path class="h" d="M72.6,61.18c.78-.34,1.76-.4,2.72-.2-1.31,1.5-1.95,4.34,.59,4.9-1.53-.13-3.11-.71-3.57-1.78-.38-.87-.2-1.96,.26-2.92Z"/><path class="s" d="M72.77,67.4c.97,0,1.76,.42,1.76,.93s-.79,.93-1.76,.93-1.76-.41-1.76-.93,.78-.93,1.76-.93Z"/><path class="g" d="M73.28,29.77c.35,4.19-1.39,11.25-.39,14.79,.29,1.01,1.39,4.53,1.02,5.42-2.3-2.43-6.88-6.2-9.21-12.05-3.26-8.19,.51-18.02,3.49-19.6,2.51,.56,4.39,5.45,4.55,7.07,.25,1.44,.44,2.88,.57,4.37h-.03Z"/></g><circle class="h" cx="91.45" cy="60.86" r=".29"/><circle class="h" cx="76.18" cy="61.38" r=".29"/></g><g id="d"><g id="e"/><path class="j" d="M100.28,64.55c.91,6.47-7.6,11.11-15.64,11.11s-16.64-3.52-15.75-10.53c1.01-8.04,4.08-18.5,15.75-18.59,10.74-.08,14.51,9.97,15.64,18.01Z"/><path class="j" d="M88.97,47.13c1.85-3.02,4.12-8.81,5.62-15.71,1.84-8.46,6.19-13.29,8.43-12.97,3,.42,6.68,11.64,2.31,20.16-3.17,6.18-8.82,9.58-11.01,11.77"/><path class="j" d="M98.51,25.35c-1.05,3.84-1.68,7.78-1.86,12.7-.2,5.28-2.7,9-4.12,10.82"/><path class="j" d="M79.85,47.27c-1.56-3.18-2.95-8.49-3.78-15.49-1.03-8.6-4.9-13.82-7.16-13.71-3.03,.14-7.76,10.95-4.22,19.85,2.56,6.45,7.81,10.36,9.78,12.75"/><path class="j" d="M72.74,25.36c.68,3.92,.93,7.9,.64,12.82-.31,5.28,1.66,8.95,2.9,10.9"/><path class="j" d="M88.77,64.72c-.66-1.56,1.22-5.82,3.2-6.29,1.76-.42,4.37,2.86,3.58,5.05-.78,2.19-6.15,2.76-6.78,1.25Z"/><path class="j" d="M90.09,59.97c1.89-1.54,5.86,4.43,2,5.52"/><path class="j" d="M79.19,64.93c.55-1.6-1.59-5.73-3.6-6.08-1.79-.31-4.18,3.13-3.25,5.26,.92,2.13,6.31,2.36,6.85,.81Z"/><path class="j" d="M77.57,60.27c-1.98-1.42-5.57,4.79-1.65,5.64"/><path class="j" d="M80.15,57.52c.31-.21,.27-1.4-.53-1.77-.55-.25-1.29-.04-1.38,.3-.16,.57,1.48,1.77,1.91,1.47Z"/><path class="j" d="M88.07,56.98c-.17-.21,.2-1.05,.93-1.28,.56-.17,1.24,.04,1.27,.3,.06,.46-1.93,1.32-2.2,.98Z"/><path class="j" d="M83.69,67.07c.84-.05,1.37-.58,1.19-1.04-.14-.35-2.14-.08-2.33,.16-.21,.25,.5,.92,1.15,.88Z"/><path class="j" d="M80.6,69.08c.5,.82,2.47,.02,3.19-.03s2.93,.67,3.54-.35"/><path class="j" d="M83.71,69.06c.1-.7,.07-1.73,0-1.99"/><path class="j" d="M69.01,64.25c-3.98-1.61-9.22-1.86-12.82-.97"/><path class="j" d="M58.8,69.09c3.55-1.25,7.14-1.86,10.15-1.61"/><path class="j" d="M100.33,63.87c3.98-1.61,9.05-1.85,12.65-.96"/><path class="j" d="M110.35,68.72c-3.55-1.25-7.14-1.86-10.15-1.61"/><path class="j" d="M83.85,111.16c-.58,2.9,.31,11.02-.67,11.55-1.43,.78-2.95,.41-3.97-.04-1.23-.55-1.19-1.99-4.42-17.23-.9-4.25,.55-10.09,1.95-14.75h0"/><path class="j" d="M86.65,110.36c.35,.05,.96,.14,1.25,.28,1.2,.62,.57,11.18,1.6,11.77,1.48,.84,2.54,.57,4.05-.1,1.49-.66,2.54-9.7,3.33-17.22,.29-2.81,.11-5.26-.22-7.32"/><path class="j" d="M82.13,83.31c.08,7.01,2.25,10.86,4.06,14.26,1.36,2.56,2.5,4.4,2.36,5.98-.1,1.23-.28,3.27-.87,4.94-.19,.54-.42,1.03-.7,1.45h0c-.38,.57-.87,1-1.48,1.21-.53,.18-1.09,.16-1.65,0-.23-.06-.46-.14-.69-.24-1.93-.85-3.65-2.92-3.78-3.07-1.7-2.08-1.72-4.33-2.25-10.49-.22-2.49-.35-4.71-.39-6.67h0c-.14-6.31,.58-9.88,1.98-10.77,1.36-.86,4.09-1.31,4.59-2.21,.33-.6,.28-1.37,.13-2.07"/><path class="j" d="M86.19,97.57c2.19-3.59,5.61-5.7,7.02-7.05"/><path class="j" d="M87.68,108.49c.28,.02,.57,.03,.86,.02,1.2-.02,2.38-.27,2.78-.81,1.94-2.59,4.02-6.81,5.35-9.92,.74-1.74,1.24-3.14,1.35-3.71,.33-1.8-2.66-13.02-4.87-14.65-1.24-.92-3.84-1.06-4.24-2.08-.3-.76-.47-1.34-.47-2"/><path class="j" d="M90.46,82.85c.83,2.04,1.94,6.04,2.08,8.22"/><path class="j" d="M81.61,104.17c.14,2.56,.75,4.12,1.55,6.75"/><path class="j" d="M86.97,109.94c.02-.57,0-1.07-.05-1.54-.19-1.89-.89-3.09-1.63-4.97"/><path class="j" d="M90.52,102.78c-1.23,2.25-1.28,3.13-1.99,5.78"/></g></svg>